<svg width="79" height="51" viewBox="0 0 79 51" fill="none" xmlns="http://www.w3.org/2000/svg">
<path d="M38.3269 28.6078C38.2258 27.3286 37.7941 26.0756 36.7479 25.2406C35.6823 24.3891 33.6531 24.6804 33.6531 24.6804C33.6531 24.6804 33.0318 23.8435 32.428 23.4148C31.0211 22.4142 28.0595 22.5876 27.0823 23.938C26.1052 22.5876 23.1426 22.4142 21.7367 23.4148C21.1338 23.8435 20.5116 24.6804 20.5116 24.6804C20.5116 24.6804 18.4824 24.3891 17.4167 25.2406C16.3715 26.0756 15.9389 27.3286 15.8377 28.6078C15.795 29.1466 15.7755 29.6961 15.7755 30.2505C15.7774 34.1136 16.7799 38.2486 18.0565 41.1968C18.1217 41.3478 18.1926 41.4872 18.2665 41.6158C19.269 43.3617 20.9909 43.0948 21.9972 42.6758C22.3015 43.5049 22.8237 44.336 23.6696 44.5738C25.1309 44.984 26.2578 44.5329 27.0804 44.5738V44.5572L27.0823 44.5738C27.9049 44.5329 29.0328 44.984 30.4931 44.5738C31.339 44.336 31.8602 43.5049 32.1655 42.6758C33.1718 43.0948 34.8937 43.3617 35.8962 41.6158C35.9701 41.4872 36.0411 41.3488 36.1062 41.1968C37.3828 38.2486 38.3862 34.1136 38.3872 30.2505C38.3892 29.6971 38.3697 29.1476 38.3269 28.6078Z" fill="#FF725E"/>
<g opacity="0.3">
<path d="M36.7479 25.2621C35.6823 24.4115 33.6531 24.7028 33.6531 24.7028C33.6531 24.7028 33.0309 23.8669 32.428 23.4382C31.0211 22.4385 28.0595 22.612 27.0824 23.9604C26.1052 22.612 23.1426 22.4385 21.7367 23.4382C21.1339 23.8669 20.5116 24.7028 20.5116 24.7028C20.5116 24.7028 18.4824 24.4125 17.4168 25.2621C17.3516 25.3137 17.2952 25.3722 17.235 25.4277C18.3152 25.2631 19.9496 25.7677 21.7104 27.3354C21.7104 27.3354 22.8889 25.607 25.8203 26.5677C26.6205 26.8297 27.4907 26.8931 28.3123 26.6953C30.7868 26.101 32.0343 27.0519 32.7878 28.5299C33.4353 29.8014 33.4139 37.1457 32.1655 42.6739C33.2467 43.124 35.1524 43.3988 36.1062 41.1968C37.5647 37.8297 38.6653 32.9143 38.326 28.6244C38.2258 27.3471 37.7932 26.0961 36.7479 25.2621Z" fill="black"/>
</g>
<path d="M26.1237 23.292C25.9982 24.9843 25.3565 25.9294 24.9686 26.3571C25.236 26.4039 25.517 26.4692 25.8213 26.5686C26.6215 26.8306 27.4917 26.894 28.3133 26.6962C28.6176 26.6231 28.9035 26.5734 29.1718 26.5452C28.9705 26.0902 28.5952 25.1743 28.3074 24.0899C28.2345 23.8142 28.1781 23.5385 28.1412 23.2637C27.971 21.9874 28.2481 20.7227 29.5121 19.5613C28.5709 16.9814 26.4523 18.057 26.4523 18.057C26.4523 18.057 25.9691 19.2545 26.1314 22.2105C26.1538 22.6012 26.148 22.9597 26.1237 23.292Z" fill="#455A64"/>
<path d="M21.7114 27.3364C21.7687 27.3598 21.372 28.1558 21.0872 29.5354C20.7828 30.913 20.7361 32.8704 20.916 35.0246C21.0764 37.1788 21.3924 39.1138 21.6472 40.509C21.9029 41.9042 22.0838 42.7645 22.0361 42.7762C22.0147 42.7811 21.9408 42.5735 21.831 42.1906C21.7211 41.8077 21.5762 41.2504 21.4197 40.5557C21.1056 39.1674 20.7507 37.2236 20.5884 35.0499C20.4056 32.885 20.4902 30.878 20.8596 29.4847C21.0346 28.7881 21.2398 28.2435 21.409 27.8801C21.5772 27.5166 21.6929 27.3276 21.7114 27.3364Z" fill="#263238"/>
<path d="M26.9754 44.1098C26.885 44.1098 26.8111 40.5205 26.8111 36.0943C26.8111 31.666 26.885 28.0777 26.9754 28.0777C27.0658 28.0777 27.1397 31.666 27.1397 36.0943C27.1397 40.5205 27.0658 44.1098 26.9754 44.1098Z" fill="#263238"/>
<path d="M30.9016 26.7119C30.9035 26.6973 31.1592 26.7119 31.5618 26.9253C31.9614 27.1328 32.467 27.6161 32.7849 28.3663C33.1281 29.0951 33.3031 30.0674 33.3401 31.1099C33.4023 32.1544 33.4276 33.306 33.3955 34.5141C33.3333 36.9314 33.0406 39.107 32.7411 40.6591C32.5934 41.4366 32.4465 42.0591 32.3357 42.4869C32.22 42.9136 32.1461 43.1475 32.1237 43.1416C32.0732 43.1299 32.2774 42.1751 32.5127 40.6191C32.7518 39.0641 33.0056 36.9031 33.0669 34.5044C33.099 33.306 33.0834 32.1631 33.0377 31.1245C33.0153 30.084 32.8734 29.174 32.57 28.455C32.2949 27.733 31.8544 27.2653 31.4956 27.0344C31.1349 26.7986 30.8918 26.7402 30.9016 26.7119Z" fill="#263238"/>
<path d="M30.5515 26.6659C30.5331 26.7068 30.0984 26.5304 29.3605 26.6552C28.9929 26.7039 28.5622 26.811 28.0625 26.9026C27.553 27.002 26.9677 26.9777 26.3921 26.8666C25.8155 26.7643 25.2788 26.5782 24.813 26.4876C24.3356 26.397 23.8952 26.3824 23.5316 26.4165C22.7916 26.473 22.4222 26.7857 22.3911 26.7428C22.3541 26.7243 22.71 26.3103 23.5005 26.1865C23.8865 26.1203 24.3551 26.1105 24.8636 26.1894C25.3818 26.2742 25.8913 26.4447 26.4523 26.5441C27.0085 26.6503 27.5374 26.6805 28.0148 26.6045C28.501 26.5324 28.9511 26.4457 29.3371 26.4252C30.1227 26.3522 30.5836 26.6279 30.5515 26.6659Z" fill="#263238"/>
<path d="M33.2583 25.0944C33.2467 25.1909 32.534 25.1266 31.762 25.4696C30.9832 25.7959 30.5398 26.3591 30.462 26.3016C30.3804 26.2704 30.7527 25.5416 31.6317 25.1675C32.5077 24.7846 33.2914 25.0136 33.2583 25.0944Z" fill="#263238"/>
<path d="M21.1406 24.6228C21.1299 24.539 22.0643 24.4299 23.1358 24.8089C24.2101 25.1791 24.8732 25.8475 24.813 25.9059C24.7527 25.9829 24.0371 25.4655 23.0269 25.1187C22.0215 24.7621 21.1396 24.7202 21.1406 24.6228Z" fill="#263238"/>
<path d="M34.0196 9.52225C33.4216 8.38719 32.531 7.40705 31.2408 7.05435C29.9262 6.69483 28.1771 7.76557 28.1771 7.76557C28.1771 7.76557 27.2758 7.24336 26.5524 7.08747C24.8654 6.72503 22.213 8.05787 21.8484 9.68594C20.4182 8.83245 17.6286 9.84669 16.7312 11.3228C16.3462 11.9561 16.1051 12.9703 16.1051 12.9703C16.1051 12.9703 14.1264 13.5062 13.4837 14.7104C12.8527 15.8913 12.95 17.2134 13.3612 18.4293C13.5343 18.9418 13.7336 19.4543 13.9524 19.9629C15.4779 23.5113 18.0292 26.9126 20.3657 29.1145C20.4852 29.2276 20.6048 29.3269 20.7235 29.4156C22.3326 30.6228 23.8095 29.6952 24.5679 28.9119C25.1746 29.553 25.9816 30.1093 26.8528 29.9933C28.3569 29.7917 29.2145 28.9304 29.9865 28.642L29.9797 28.6264L29.9885 28.641C30.7284 28.2776 31.9418 28.2454 33.1222 27.2897C33.8047 26.7363 33.9564 25.7658 33.9097 24.8841C34.9997 24.8705 36.6866 24.434 36.919 22.4328C36.9365 22.2856 36.9462 22.1297 36.9472 21.9651C36.9569 18.7509 36.2471 14.5555 34.7255 11.0071C34.5057 10.4975 34.2714 10.0006 34.0196 9.52225Z" fill="#FF725E"/>
<g opacity="0.3">
<path d="M31.2496 7.07385C29.935 6.71531 28.1868 7.78606 28.1868 7.78606C28.1868 7.78606 27.2865 7.2648 26.5631 7.10989C24.8771 6.7494 22.2238 8.08129 21.8582 9.7074C20.4279 8.85586 17.6394 9.87011 16.741 11.3452C16.356 11.9775 16.1148 12.9918 16.1148 12.9918C16.1148 12.9918 14.1362 13.5286 13.4925 14.7309C13.4527 14.805 13.4245 14.88 13.3905 14.955C14.3171 14.3763 16.0186 14.1921 18.2548 14.9355C18.2548 14.9355 18.6554 12.8817 21.7279 12.6021C22.566 12.5261 23.3905 12.2396 24.0672 11.732C26.1061 10.2062 27.6268 10.5853 28.9015 11.6443C29.9982 12.5553 32.8743 19.3101 33.9088 24.8831C35.0785 24.8676 36.9385 24.3658 36.9462 21.9661C36.9579 18.2959 36.0303 13.3445 34.0255 9.53786C33.4295 8.40377 32.5388 7.42558 31.2496 7.07385Z" fill="black"/>
</g>
<path d="M20.7127 9.47255C21.265 11.0763 21.0482 12.1986 20.8605 12.7452C21.124 12.6819 21.4079 12.6303 21.7268 12.601C22.5649 12.525 23.3894 12.2386 24.0662 11.731C24.317 11.5429 24.5601 11.3851 24.7954 11.2526C24.4308 10.9135 23.7249 10.2218 23.0336 9.34003C22.8576 9.11594 22.6972 8.88503 22.5552 8.6473C21.895 7.54244 21.6519 6.27097 22.3539 4.70331C20.4716 2.70697 18.9499 4.53282 18.9499 4.53282C18.9499 4.53282 18.9781 5.82474 20.2936 8.47485C20.4687 8.8256 20.6048 9.15688 20.7127 9.47255Z" fill="#455A64"/>
<path d="M18.2547 14.9344C18.317 14.9334 18.2664 15.821 18.5484 17.2016C18.8119 18.587 19.5411 20.4041 20.5571 22.3118C21.5547 24.2273 22.6077 25.8788 23.3914 27.0596C24.176 28.2405 24.6826 28.9585 24.6437 28.9878C24.6262 29.0014 24.4765 28.8387 24.2237 28.5308C23.9718 28.2229 23.6189 27.7679 23.2008 27.1911C22.3646 26.0405 21.2727 24.3949 20.2654 22.4629C19.2445 20.5464 18.5299 18.6699 18.3199 17.2435C18.2061 16.5342 18.1799 15.9525 18.1915 15.5521C18.2032 15.1526 18.2343 14.9334 18.2547 14.9344Z" fill="#263238"/>
<path d="M29.7065 28.2571C29.6229 28.2932 28.1402 25.0254 26.3939 20.9586C24.6477 16.8909 23.2991 13.5656 23.3827 13.5295C23.4663 13.4935 24.9491 16.7613 26.6953 20.8281C28.4416 24.8948 29.7902 28.2211 29.7065 28.2571Z" fill="#263238"/>
<path d="M26.4503 10.7217C26.4464 10.7071 26.6875 10.6194 27.1406 10.6564C27.5898 10.6886 28.2451 10.9321 28.8324 11.4953C29.4352 12.0292 29.9797 12.8525 30.424 13.7956C30.8937 14.7309 31.3701 15.7783 31.8173 16.9007C32.7138 19.1455 33.303 21.2598 33.6404 22.804C33.8115 23.5767 33.9224 24.207 33.9885 24.6435C34.0507 25.082 34.075 25.3246 34.0526 25.3294C34.0011 25.3392 33.8125 24.3814 33.4148 22.8586C33.021 21.3358 32.4017 19.2498 31.512 17.0215C31.0687 15.9079 30.6039 14.8645 30.1528 13.9291C29.722 12.9821 29.232 12.2017 28.671 11.6629C28.1333 11.1085 27.5441 10.8532 27.1231 10.7831C26.6992 10.709 26.4532 10.7509 26.4503 10.7217Z" fill="#263238"/>
<path d="M26.111 10.817C26.11 10.8628 25.6413 10.8726 25.0123 11.2789C24.6934 11.4689 24.3404 11.7377 23.9175 12.0203C23.4887 12.3136 22.9423 12.523 22.3696 12.6487C21.7998 12.7832 21.233 12.8251 20.7692 12.9264C20.2957 13.0316 19.8844 13.1934 19.5635 13.3678C18.9063 13.7127 18.6904 14.1462 18.6447 14.1189C18.6039 14.116 18.7672 13.5958 19.4439 13.169C19.7716 12.9556 20.1984 12.7608 20.6972 12.6322C21.2067 12.5045 21.7415 12.4587 22.2966 12.3282C22.8489 12.2054 23.3467 12.0242 23.7561 11.765C24.1742 11.5059 24.5533 11.2487 24.8995 11.0762C25.5937 10.6991 26.1265 10.7703 26.111 10.817Z" fill="#263238"/>
<path d="M27.9787 8.30248C28.0059 8.39504 27.3253 8.61815 26.7526 9.23878C26.1654 9.84675 25.9816 10.5395 25.8873 10.5181C25.7998 10.521 25.8542 9.7045 26.5144 9.01275C27.1658 8.31417 27.9768 8.21479 27.9787 8.30248Z" fill="#263238"/>
<path d="M16.6613 12.6682C16.6185 12.5951 17.4342 12.1245 18.567 12.0485C19.6997 11.9637 20.5728 12.3135 20.5407 12.3924C20.5164 12.4869 19.654 12.295 18.5903 12.3768C17.5247 12.446 16.6992 12.7588 16.6613 12.6682Z" fill="#263238"/>
<path d="M59.9876 40.5848C60.7324 39.5404 61.2059 38.303 60.9424 36.9896C60.6741 35.6509 58.9337 34.5646 58.9337 34.5646C58.9337 34.5646 58.9949 33.5231 58.8092 32.806C58.3756 31.1331 55.9973 29.355 54.3823 29.7574C54.5019 28.0933 52.3464 26.0502 50.6273 25.9089C49.8903 25.8485 48.8772 26.0872 48.8772 26.0872C48.8772 26.0872 47.5111 24.5556 46.1489 24.5195C44.812 24.4844 43.6774 25.1645 42.778 26.0784C42.3988 26.4633 42.0313 26.8715 41.6754 27.2963C39.1951 30.2533 37.3059 34.0648 36.3891 37.1446C36.3414 37.3024 36.3064 37.4544 36.2811 37.6005C35.9262 39.5832 37.4158 40.4893 38.4552 40.8177C38.1557 41.6488 38.0206 42.6211 38.5155 43.3489C39.3701 44.6058 40.5223 44.9877 41.1261 45.5489L41.1368 45.5362L41.127 45.5509C41.7824 46.0507 42.356 47.1224 43.7377 47.7508C44.5379 48.1142 45.4703 47.8151 46.2365 47.3767C46.7372 48.3471 47.8835 49.6614 49.7717 48.9716C49.9108 48.921 50.0537 48.8605 50.2015 48.7865C53.0727 47.3543 56.4961 44.8367 58.9794 41.8816C59.3362 41.4578 59.6736 41.0242 59.9876 40.5848Z" fill="#FF725E"/>
<g opacity="0.3">
<path d="M60.9288 37.0053C60.6595 35.6676 58.9201 34.5813 58.9201 34.5813C58.9201 34.5813 58.9813 33.5407 58.7947 32.8236C58.36 31.1517 55.9818 29.3736 54.3678 29.775C54.4864 28.1119 52.3308 26.0688 50.6128 25.9265C49.8758 25.8651 48.8636 26.1039 48.8636 26.1039C48.8636 26.1039 47.4975 24.5722 46.1363 24.5362C46.0527 24.5342 45.973 24.542 45.8904 24.5459C46.8228 25.1159 47.7494 26.5579 48.0897 28.8933C48.0897 28.8933 50.1014 28.3311 51.728 30.9569C52.1724 31.6739 52.7975 32.2829 53.553 32.6619C55.8282 33.8038 56.1724 35.3363 55.799 36.9527C55.4782 38.343 50.7431 43.9492 46.2365 47.3758C46.7751 48.4173 48.0566 49.8574 50.2005 48.7876C53.4791 47.1517 57.4791 44.1002 59.975 40.5976C60.7198 39.5541 61.1923 38.3187 60.9288 37.0053Z" fill="black"/>
</g>
<path d="M54.0634 28.6447C52.8802 29.8587 51.7824 30.1685 51.2107 30.2455C51.3848 30.454 51.5588 30.6849 51.727 30.9567C52.1713 31.6738 52.7965 32.2827 53.552 32.6617C53.832 32.802 54.0819 32.9482 54.3055 33.1002C54.4446 32.6218 54.745 31.6797 55.2214 30.6644C55.342 30.4062 55.4762 30.1588 55.6249 29.9249C56.3143 28.8386 57.3391 28.0504 59.0523 27.9753C59.9886 25.3944 57.6775 24.8498 57.6775 24.8498C57.6775 24.8498 56.5379 25.4548 54.7645 27.8214C54.5311 28.1361 54.2958 28.4069 54.0634 28.6447Z" fill="#455A64"/>
<path d="M48.0887 28.8932C48.1169 28.9478 47.3031 29.3014 46.1986 30.1734C45.0805 31.0308 43.7873 32.4991 42.5418 34.2645C41.2807 36.0173 40.2802 37.7009 39.5782 38.9325C38.8772 40.165 38.463 40.9405 38.4193 40.9191C38.3998 40.9093 38.4766 40.7028 38.638 40.3384C38.7994 39.975 39.0474 39.4547 39.3741 38.8214C40.0255 37.5567 41.0026 35.84 42.2754 34.0716C43.5267 32.2974 44.8802 30.8155 46.0586 29.9884C46.64 29.5675 47.1475 29.2839 47.5092 29.1144C47.8709 28.9449 48.081 28.8747 48.0887 28.8932Z" fill="#263238"/>
<path d="M41.3429 45.1252C41.2738 45.0667 43.5228 42.2724 46.3667 38.8848C49.2117 35.4961 51.5724 32.7973 51.6424 32.8558C51.7114 32.9143 49.4625 35.7076 46.6185 39.0962C43.7736 42.4839 41.4119 45.1837 41.3429 45.1252Z" fill="#263238"/>
<path d="M55.5229 34.3435C55.5336 34.3338 55.7203 34.5101 55.8905 34.932C56.0625 35.349 56.1394 36.0446 55.9011 36.8231C55.695 37.6025 55.205 38.459 54.5633 39.2803C53.94 40.1201 53.2186 41.0175 52.4184 41.9206C50.818 43.7309 49.1972 45.206 47.9701 46.2018C47.3576 46.7016 46.8452 47.0835 46.4854 47.3388C46.1228 47.5911 45.9166 47.7217 45.903 47.7031C45.8719 47.6612 46.641 47.062 47.8214 46.0234C49.0027 44.9878 50.5856 43.498 52.1734 41.7014C52.9677 40.8051 53.6901 39.9204 54.3221 39.0962C54.9745 38.2855 55.45 37.4973 55.6795 36.752C55.9323 36.0222 55.8963 35.3801 55.7699 34.9709C55.6454 34.5608 55.4976 34.3591 55.5229 34.3435Z" fill="#263238"/>
<path d="M55.2846 34.0823C55.2438 34.1018 55.024 33.6858 54.3804 33.3048C54.0683 33.1051 53.6696 32.9093 53.2282 32.6569C52.7751 32.4046 52.3424 32.009 51.9739 31.5521C51.5986 31.1019 51.3069 30.6138 51.0084 30.2436C50.7012 29.8665 50.3735 29.5713 50.0741 29.3618C49.4712 28.9283 48.988 28.9292 48.9919 28.8756C48.9764 28.8376 49.5131 28.7509 50.1985 29.165C50.5359 29.3628 50.9005 29.658 51.2399 30.0468C51.5821 30.4462 51.8631 30.9051 52.2277 31.3426C52.5845 31.783 52.9705 32.1474 53.3847 32.3968C53.8028 32.655 54.2034 32.8791 54.5116 33.1129C55.1582 33.566 55.3332 34.0745 55.2846 34.0823Z" fill="#263238"/>
<path d="M58.3659 34.6271C58.2949 34.6933 57.7913 34.1837 56.9804 33.9489C56.1744 33.6966 55.4743 33.8418 55.451 33.7472C55.4092 33.6703 56.1617 33.3527 57.0747 33.6342C57.9906 33.9051 58.4427 34.5861 58.3659 34.6271Z" fill="#263238"/>
<path d="M49.3955 26.4487C49.4412 26.3776 50.2268 26.8969 50.8024 27.877C51.3867 28.8533 51.4655 29.7925 51.3809 29.7994C51.2856 29.8198 51.0698 28.9614 50.5194 28.0456C49.9808 27.1239 49.3323 26.5237 49.3955 26.4487Z" fill="#263238"/>
<path d="M56.3668 10.7732C56.2657 9.49392 55.833 8.24097 54.7878 7.40599C53.7222 6.55445 51.693 6.84576 51.693 6.84576C51.693 6.84576 51.0717 6.00885 50.4679 5.58015C49.061 4.57954 46.0994 4.75296 45.1222 6.10334C44.1451 4.75296 41.1825 4.57954 39.7766 5.58015C39.1737 6.00885 38.5515 6.84576 38.5515 6.84576C38.5515 6.84576 36.5223 6.55445 35.4566 7.40599C34.4114 8.24097 33.9788 9.49392 33.8776 10.7732C33.8349 11.312 33.8154 11.8615 33.8154 12.4159C33.8173 16.279 34.8198 20.4139 36.0964 23.3622C36.1616 23.5132 36.2325 23.6525 36.3064 23.7811C37.3089 25.5271 39.0308 25.2601 40.0371 24.8412C40.3415 25.6703 40.8636 26.5014 41.7095 26.7391C43.1708 27.1493 44.2977 26.6982 45.1203 26.7391V26.7225L45.1222 26.7391C45.9448 26.6982 47.0727 27.1493 48.533 26.7391C49.3789 26.5014 49.9001 25.6703 50.2044 24.8412C51.2107 25.2601 52.9327 25.5271 53.9351 23.7811C54.009 23.6525 54.08 23.5141 54.1451 23.3622C55.4218 20.4139 56.4252 16.279 56.4261 12.4159C56.43 11.8615 56.4096 11.312 56.3668 10.7732Z" fill="#FF725E"/>
<g opacity="0.3">
<path d="M54.7878 7.42646C53.7222 6.57589 51.693 6.86721 51.693 6.86721C51.693 6.86721 51.0717 6.03126 50.4679 5.60354C49.061 4.6039 46.0994 4.77734 45.1223 6.12577C44.1451 4.77734 41.1825 4.6039 39.7766 5.60354C39.1738 6.03223 38.5515 6.86721 38.5515 6.86721C38.5515 6.86721 36.5223 6.57687 35.4567 7.42646C35.3915 7.4781 35.3351 7.53657 35.2749 7.59211C36.3551 7.42745 37.9895 7.93212 39.7503 9.49977C39.7503 9.49977 40.9288 7.77136 43.8602 8.73203C44.6604 8.99411 45.5306 9.05745 46.3522 8.85967C48.8267 8.26535 50.0742 9.21626 50.8277 10.6943C51.4752 11.9657 51.4538 19.3101 50.2054 24.8383C51.2866 25.2874 53.1923 25.5631 54.1461 23.3612C55.6046 19.994 56.7052 15.0786 56.3659 10.7888C56.2657 9.51244 55.834 8.26144 54.7878 7.42646Z" fill="black"/>
</g>
<path d="M44.1636 5.45733C44.0381 7.1497 43.3964 8.09477 43.0085 8.52249C43.2759 8.56926 43.5569 8.63455 43.8612 8.73393C44.6614 8.99601 45.5316 9.05932 46.3532 8.86154C46.6575 8.78847 46.9434 8.73975 47.2117 8.71052C47.0104 8.25552 46.6351 7.33969 46.3473 6.25529C46.2744 5.97956 46.218 5.70384 46.1811 5.42909C46.0109 4.15275 46.288 2.88808 47.552 1.72671C46.6108 -0.853244 44.4922 0.222382 44.4922 0.222382C44.4922 0.222382 44.009 1.4198 44.1713 4.37584C44.1947 4.76654 44.1889 5.1251 44.1636 5.45733Z" fill="#455A64"/>
<path d="M39.7513 9.50076C39.8087 9.52512 39.413 10.3201 39.1271 11.6998C38.8228 13.0774 38.7761 15.0348 38.956 17.189C39.1164 19.3432 39.4324 21.2782 39.6872 22.6724C39.9429 24.0676 40.1237 24.9279 40.0761 24.9396C40.0547 24.9445 39.9808 24.7369 39.8709 24.354C39.7611 23.9711 39.6162 23.4138 39.4596 22.7191C39.1456 21.3307 38.7907 19.387 38.6283 17.2134C38.4465 15.0485 38.5301 13.0414 38.8996 11.6481C39.0746 10.9515 39.2798 10.4069 39.4489 10.0435C39.6181 9.68101 39.7329 9.49199 39.7513 9.50076Z" fill="#263238"/>
<path d="M45.0163 26.2742C44.9259 26.2742 44.852 22.6849 44.852 18.2586C44.852 13.8304 44.9259 10.242 45.0163 10.242C45.1067 10.242 45.1806 13.8304 45.1806 18.2586C45.1796 22.6849 45.1067 26.2742 45.0163 26.2742Z" fill="#263238"/>
<path d="M48.9415 8.8771C48.9434 8.86248 49.1991 8.87612 49.6017 9.09046C50.0013 9.29799 50.5069 9.78125 50.8248 10.5315C51.168 11.2602 51.343 12.2326 51.38 13.2751C51.4422 14.3195 51.4675 15.4712 51.4354 16.6793C51.3732 19.0966 51.0805 21.2722 50.781 22.8242C50.6333 23.6017 50.4864 24.2243 50.3746 24.652C50.2589 25.0788 50.185 25.3126 50.1627 25.3068C50.1121 25.2951 50.3163 24.3403 50.5516 22.7843C50.7908 21.2293 51.0445 19.0683 51.1058 16.6696C51.1379 15.4712 51.1223 14.3283 51.0766 13.2897C51.0543 12.2492 50.9123 11.3391 50.6089 10.6201C50.3338 9.89814 49.8933 9.43049 49.5336 9.1986C49.1748 8.9638 48.9317 8.90535 48.9415 8.8771Z" fill="#263238"/>
<path d="M48.5914 8.83037C48.5729 8.87227 48.1374 8.69493 47.4004 8.81964C47.0328 8.86836 46.6021 8.97553 46.1023 9.06711C45.5929 9.16649 45.0075 9.14215 44.4319 9.03108C43.8554 8.92877 43.3187 8.74267 42.852 8.65206C42.3755 8.56145 41.9341 8.54683 41.5705 8.57996C40.8306 8.63647 40.4611 8.94924 40.43 8.90637C40.393 8.88786 40.7489 8.47474 41.5394 8.35003C41.9254 8.28378 42.394 8.27403 42.9025 8.35393C43.4208 8.43869 43.9302 8.60921 44.4913 8.70859C45.0474 8.81479 45.5763 8.84497 46.0537 8.76898C46.5399 8.69688 46.9901 8.61017 47.3761 8.58971C48.1626 8.51761 48.6245 8.79335 48.5914 8.83037Z" fill="#263238"/>
<path d="M51.2992 7.25971C51.2876 7.35617 50.5749 7.29185 49.8029 7.6348C49.0241 7.96119 48.5807 8.52434 48.5029 8.46686C48.4212 8.43568 48.7936 7.7069 49.6726 7.33277C50.5477 6.94889 51.3323 7.17885 51.2992 7.25971Z" fill="#263238"/>
<path d="M39.1815 6.78812C39.1708 6.70433 40.1052 6.59522 41.1757 6.97422C42.2501 7.34446 42.9132 8.01281 42.8529 8.07127C42.7926 8.14824 42.077 7.6309 41.0668 7.28405C40.0624 6.92648 39.1805 6.88555 39.1815 6.78812Z" fill="#263238"/>
<path d="M51.8311 24.1893C51.416 25.4033 51.3139 26.7245 51.941 27.9082C52.5798 29.1144 54.5574 29.6571 54.5574 29.6571C54.5574 29.6571 54.7957 30.6724 55.1778 31.3066C56.0703 32.7856 58.856 33.8086 60.2901 32.96C60.6498 34.589 63.2984 35.9297 64.9863 35.5731C65.7097 35.4201 66.6129 34.9008 66.6129 34.9008C66.6129 34.9008 68.3582 35.9774 69.6737 35.6218C70.9649 35.273 71.8585 34.2958 72.4603 33.1627C72.7141 32.6853 72.9503 32.1893 73.1701 31.6798C74.7044 28.1353 75.4278 23.9418 75.4278 20.7286C75.4278 20.5639 75.418 20.4081 75.4015 20.2609C75.1759 18.2597 73.49 17.8174 72.4 17.7998C72.4496 16.9181 72.3018 15.9477 71.6203 15.3923C70.4428 14.4326 69.2303 14.3966 68.4914 14.0312L68.4846 14.0468L68.4895 14.0302C67.7184 13.7389 66.8638 12.8757 65.3606 12.6692C64.4904 12.5493 63.6815 13.1037 63.0728 13.7428C62.3164 12.9566 60.8424 12.0251 59.2293 13.2265C59.1097 13.3151 58.9901 13.4145 58.8705 13.5265C56.5273 15.7216 53.9643 19.1142 52.4281 22.6567C52.2064 23.1663 52.0061 23.6778 51.8311 24.1893Z" fill="#FF725E"/>
<g opacity="0.3">
<path d="M51.9496 27.8887C52.5893 29.0939 54.566 29.6366 54.566 29.6366C54.566 29.6366 54.8042 30.6508 55.1873 31.2851C56.0809 32.7631 58.8665 33.7861 60.2987 32.9385C60.6594 34.5656 63.3079 35.9062 64.9949 35.5506C65.7183 35.3976 66.6205 34.8793 66.6205 34.8793C66.6205 34.8793 68.3658 35.9559 69.6813 35.6013C69.762 35.5798 69.8359 35.5487 69.9137 35.5214C68.8578 35.2417 67.5588 34.1262 66.5661 31.9846C66.5661 31.9846 64.7985 33.1002 62.4912 31.0483C61.8612 30.4891 61.0882 30.0838 60.2559 29.9367C57.7493 29.4943 56.9831 28.1245 56.8801 26.4681C56.7916 25.0437 59.7299 18.3152 63.0717 13.7418C62.2588 12.898 60.6205 11.8848 58.8704 13.5245C56.1946 16.0314 53.232 20.1001 51.8387 24.1717C51.4226 25.3867 51.3215 26.7069 51.9496 27.8887Z" fill="black"/>
</g>
<path d="M60.9124 33.9351C61.7 32.4327 62.6645 31.8218 63.1895 31.5841C62.963 31.435 62.7306 31.2636 62.4914 31.0502C61.8614 30.4909 61.0884 30.0856 60.2561 29.9385C59.9479 29.8839 59.6659 29.8157 59.4083 29.7339C59.4121 30.2318 59.3927 31.2207 59.2255 32.3304C59.1827 32.612 59.1253 32.8877 59.0495 33.1547C58.6985 34.394 57.9411 35.4423 56.3203 36.0045C56.1589 38.7462 58.5293 38.6059 58.5293 38.6059C58.5293 38.6059 59.4481 37.6998 60.4739 34.924C60.61 34.5567 60.7578 34.2293 60.9124 33.9351Z" fill="#455A64"/>
<path d="M66.5662 31.9865C66.5235 31.9417 67.2021 31.3698 68.013 30.2182C68.8395 29.0763 69.6611 27.2991 70.3514 25.2502C71.0602 23.21 71.5395 21.3091 71.8604 19.9285C72.1803 18.547 72.3563 17.6847 72.4039 17.6935C72.4253 17.6974 72.4107 17.9176 72.3592 18.3122C72.3076 18.7068 72.2192 19.2767 72.0869 19.9763C71.8234 21.3754 71.3762 23.2996 70.6616 25.3583C69.9683 27.417 69.0942 29.2244 68.2007 30.3555C67.7631 30.9245 67.3587 31.3425 67.0592 31.6085C66.7607 31.8745 66.5799 32.0021 66.5662 31.9865Z" fill="#263238"/>
<path d="M68.4029 14.4999C68.4856 14.5359 67.1273 17.8583 65.3684 21.9182C63.6085 25.9801 62.1151 29.2431 62.0324 29.206C61.9488 29.17 63.3081 25.8486 65.0679 21.7867C66.8268 17.7268 68.3203 14.4638 68.4029 14.4999Z" fill="#263238"/>
<path d="M57.8885 28.8922C57.8807 28.9049 57.6512 28.7899 57.3683 28.4333C57.0844 28.0835 56.8122 27.4386 56.819 26.624C56.7937 25.8183 57.0193 24.8567 57.3994 23.8862C57.7572 22.9032 58.1928 21.8363 58.7013 20.7412C59.7183 18.548 60.852 16.6696 61.7427 15.365C62.187 14.7112 62.5691 14.1977 62.8414 13.8499C63.1165 13.504 63.2779 13.3199 63.2954 13.3335C63.3372 13.3647 62.7704 14.1588 61.9361 15.4916C61.099 16.8225 60.0071 18.7039 58.9979 20.8795C58.4923 21.9659 58.0528 23.0211 57.6814 23.9915C57.2876 24.9551 57.0562 25.8465 57.0494 26.626C57.0154 27.3976 57.2332 28.0027 57.4704 28.3583C57.7086 28.7188 57.9089 28.8698 57.8885 28.8922Z" fill="#263238"/>
<path d="M58.1909 29.0744C58.2249 29.0442 58.5536 29.3794 59.2799 29.5597C59.6367 29.662 60.0742 29.736 60.5691 29.851C61.0757 29.963 61.6027 30.2193 62.0869 30.5505C62.575 30.875 62.9931 31.2588 63.3849 31.5287C63.7865 31.8025 64.1851 31.9915 64.5322 32.1055C65.2332 32.3491 65.697 32.2097 65.7077 32.2614C65.734 32.2935 65.2439 32.5303 64.469 32.3296C64.0888 32.237 63.6552 32.0578 63.2196 31.783C62.7782 31.4985 62.3776 31.139 61.9031 30.8243C61.4354 30.5047 60.9619 30.266 60.4933 30.1452C60.0188 30.0176 59.5716 29.9172 59.2089 29.7818C58.4602 29.5324 58.1462 29.0949 58.1909 29.0744Z" fill="#263238"/>
<path d="M55.0835 29.4339C55.1321 29.3501 55.7602 29.694 56.6051 29.6872C57.4491 29.6989 58.0791 29.3589 58.1278 29.4426C58.19 29.504 57.559 30.0243 56.6042 30.0165C55.6494 30.0195 55.0213 29.4953 55.0835 29.4339Z" fill="#263238"/>
<path d="M66.0121 34.703C65.9888 34.7839 65.0874 34.511 64.2561 33.7365C63.418 32.9677 63.0748 32.0909 63.1536 32.0607C63.2391 32.0139 63.6903 32.7748 64.4788 33.4949C65.2586 34.2236 66.051 34.6134 66.0121 34.703Z" fill="#263238"/>
<path d="M12.5446 15.2801H3.64709V50.0092H12.5446V15.2801Z" fill="#FF9C67"/>
<g opacity="0.3">
<path d="M12.5446 15.2801H3.64709V50.0092H12.5446V15.2801Z" fill="black"/>
</g>
<path d="M79 20.5434H0V31.0376H79V20.5434Z" fill="#FF9C67"/>
<path d="M79 39.7741H0V50.2683H79V39.7741Z" fill="#FF9C67"/>
<path d="M44.5331 15.2801H35.6356V50.0092H44.5331V15.2801Z" fill="#FF9C67"/>
<path d="M75.1623 15.2801H66.2648V50.0092H75.1623V15.2801Z" fill="#FF9C67"/>
<path d="M78.8366 39.7741C78.8366 39.893 61.2235 39.9894 39.5014 39.9894C17.7726 39.9894 0.163319 39.893 0.163319 39.7741C0.163319 39.6552 17.7726 39.5588 39.5014 39.5588C61.2235 39.5588 78.8366 39.6552 78.8366 39.7741Z" fill="#263238"/>
<g opacity="0.3">
<path d="M35.2758 20.4343H0V31.1477H35.2758V20.4343Z" fill="black"/>
</g>
<g opacity="0.3">
<path d="M35.2758 39.5529H0V50.2664H35.2758V39.5529Z" fill="black"/>
</g>
<path d="M78.8366 31.1476C78.8366 31.2665 61.2235 31.3629 39.5014 31.3629C17.7726 31.3629 0.163319 31.2665 0.163319 31.1476C0.163319 31.0287 17.7726 30.9323 39.5014 30.9323C61.2235 30.9313 78.8366 31.0278 78.8366 31.1476Z" fill="#263238"/>
<path d="M78.8366 20.4343C78.8366 20.5532 61.2235 20.6496 39.5014 20.6496C17.7726 20.6496 0.163319 20.5532 0.163319 20.4343C0.163319 20.3154 17.7726 20.219 39.5014 20.219C61.2235 20.218 78.8366 20.3154 78.8366 20.4343Z" fill="#263238"/>
</svg>
