<svg width="57" height="125" viewBox="0 0 57 125" fill="none" xmlns="http://www.w3.org/2000/svg">
<path d="M53.7488 1.7028C53.7488 1.7028 56.123 9.27372 55.7909 18.6289C55.6621 22.2489 47.4697 122.588 47.4697 122.588L30.5136 123.286L31.1759 29.2697L29.8 29.619C29.8 29.619 22.2941 70.0137 21.8216 76.5231C21.3975 82.3737 15.4417 125 15.4417 125L0 124.588L2.44968 69.6488L5.86279 15.7191L7.34712 0L53.7488 1.7028Z" fill="#263238"/>
<path d="M28.0833 19.8078C28.0746 19.8292 28.3292 19.9601 28.8076 20.1649C29.2868 20.3608 29.9927 20.6597 30.9387 20.7917C31.4112 20.8547 31.9457 20.8576 32.5015 20.7383C33.0543 20.6199 33.6392 20.3657 34.102 19.9107C34.5648 19.4556 34.8485 18.8327 35.0189 18.1914C35.1913 17.5442 35.2765 16.8757 35.3869 16.1946C35.809 13.4643 36.0675 10.9766 36.2021 9.17382C36.2699 8.27245 36.3086 7.54185 36.3261 7.03634C36.3416 6.53084 36.3377 6.25043 36.3125 6.24946C36.2873 6.24752 36.2447 6.52501 36.1866 7.02663C36.1227 7.60199 36.0433 8.31222 35.9494 9.15149C35.75 10.9455 35.4527 13.4206 35.0315 16.1432C34.8166 17.4889 34.6897 18.856 33.8638 19.6875C33.0388 20.5045 31.8469 20.6354 30.9687 20.5471C30.0615 20.454 29.3498 20.1949 28.8589 20.0397C28.368 19.8747 28.093 19.7855 28.0833 19.8078Z" fill="#455A64"/>
<path d="M32.6302 6.87426C32.635 6.85874 32.5169 6.79277 32.2768 6.78792C32.0405 6.78016 31.6842 6.86457 31.3405 7.12266C31.0123 7.37881 30.6705 7.82802 30.6821 8.42182C30.6801 9.02338 31.1895 9.59486 31.8304 9.78891C32.4656 9.99945 33.2247 9.8316 33.5907 9.3455C33.9616 8.87299 33.9616 8.31509 33.8522 7.9202C33.7331 7.5156 33.4968 7.24394 33.3022 7.11392C33.1066 6.98003 32.971 6.96548 32.9652 6.981C32.9207 7.02758 33.4542 7.23716 33.6052 7.97746C33.6721 8.32676 33.6333 8.79439 33.3332 9.14466C33.0456 9.50171 32.4685 9.62785 31.9428 9.45902C31.416 9.29311 31.0277 8.86137 31.0132 8.40826C30.9851 7.95418 31.2398 7.55443 31.5061 7.31186C32.0793 6.80054 32.638 6.93733 32.6302 6.87426Z" fill="#455A64"/>
<path d="M6.05543 14.746C6.05446 14.7702 6.26071 14.7916 6.63639 14.809C7.01111 14.8333 7.55721 14.8207 8.22724 14.7615C9.56634 14.648 11.4138 14.256 13.2825 13.4051C15.1493 12.5474 16.6356 11.4131 17.5767 10.4827C18.0492 10.0179 18.4065 9.61816 18.6253 9.32223C18.85 9.02921 18.9632 8.86137 18.9439 8.84681C18.8945 8.808 18.3765 9.43478 17.4005 10.3051C16.4284 11.1764 14.9537 12.2505 13.1285 13.0907C11.3005 13.9232 9.50726 14.3443 8.19624 14.518C6.88523 14.6955 6.0564 14.6839 6.05543 14.746Z" fill="#455A64"/>
<path d="M46.9933 6.58617C46.9574 6.60558 47.2741 7.25954 47.946 8.22688C48.6151 9.19326 49.6715 10.4536 51.0415 11.6432C52.4155 12.8298 53.8263 13.7059 54.8913 14.2415C55.9584 14.78 56.6642 15.0119 56.6797 14.975C56.7039 14.9236 56.0368 14.6131 55.0153 14.0261C53.9938 13.441 52.6314 12.5494 51.2807 11.3831C49.9339 10.213 48.8659 9.00211 48.1513 8.08328C47.4367 7.16444 47.0427 6.55803 46.9933 6.58617Z" fill="#455A64"/>
</svg>
