<svg width="45" height="45" viewBox="0 0 45 45" fill="none" xmlns="http://www.w3.org/2000/svg">
<path d="M22.5 3.75C12.15 3.75 3.75 12.15 3.75 22.5C3.75 32.85 12.15 41.25 22.5 41.25C32.85 41.25 41.25 32.85 41.25 22.5C41.25 12.15 32.85 3.75 22.5 3.75ZM22.5 37.5C14.2125 37.5 7.5 30.7875 7.5 22.5C7.5 14.2125 14.2125 7.5 22.5 7.5C30.7875 7.5 37.5 14.2125 37.5 22.5C37.5 30.7875 30.7875 37.5 22.5 37.5Z" fill="black"/>
<path d="M22.5 31.875C27.6777 31.875 31.875 27.6777 31.875 22.5C31.875 17.3223 27.6777 13.125 22.5 13.125C17.3223 13.125 13.125 17.3223 13.125 22.5C13.125 27.6777 17.3223 31.875 22.5 31.875Z" fill="black"/>
</svg>
