<svg width="683" height="277" viewBox="0 0 683 277" fill="none" xmlns="http://www.w3.org/2000/svg">
<path d="M658.819 44.7398C659.25 41.5994 654.827 39.0161 651.503 38.7473C649.918 38.6192 648.271 38.8618 646.77 38.3377C643.517 37.2013 642.217 32.9896 639.043 31.6484C636.669 30.645 633.937 31.5378 631.636 32.6984C629.335 33.8591 627.061 35.3187 624.491 35.4836C622.255 35.6273 619.827 34.7956 617.871 35.8903C616.413 36.7054 615.649 38.3892 614.306 39.3819C612.992 40.3534 611.276 40.5591 609.646 40.6484C608.015 40.7377 606.327 40.7542 604.841 41.4354C603.355 42.1167 602.127 43.6907 602.435 45.2978L658.819 44.7398Z" fill="#F5F5F5"/>
<path d="M489.566 29.3076C490.228 24.4951 483.45 20.5367 478.357 20.1252C475.928 19.9292 473.405 20.3008 471.105 19.4973C466.12 17.7563 464.128 11.3028 459.265 9.24642C455.628 7.70922 451.441 9.07756 447.916 10.8554C444.391 12.6333 440.907 14.8712 436.968 15.1235C433.542 15.3428 429.822 14.0705 426.824 15.7475C424.591 16.9974 423.421 19.5759 421.362 21.0976C419.348 22.5862 416.72 22.9016 414.222 23.0375C411.723 23.1743 409.136 23.1986 406.861 24.2428C404.585 25.287 402.703 27.6976 403.175 30.1606L489.566 29.3076Z" fill="#F5F5F5"/>
<path d="M118.785 32.8159C119.394 28.3829 113.151 24.7369 108.461 24.3574C106.224 24.1769 103.9 24.5195 101.78 23.7791C97.1889 22.1749 95.3546 16.2309 90.8736 14.3375C87.5237 12.9216 83.6674 14.1823 80.4202 15.8194C77.1729 17.4575 73.9635 19.5178 70.3357 19.7507C67.1805 19.9526 63.7531 18.7803 60.9921 20.3252C58.9351 21.4762 57.8572 23.8518 55.961 25.2532C54.1054 26.6244 51.6862 26.9146 49.3842 27.0398C47.0822 27.165 44.6988 27.1882 42.6031 28.15C40.5074 29.1117 38.7729 31.3321 39.2077 33.601L118.785 32.8159Z" fill="#EBEBEB"/>
<path d="M214.756 13.5873C215.19 10.4324 210.747 7.8374 207.407 7.56762C205.815 7.43855 204.161 7.6831 202.653 7.15615C199.386 6.01489 198.08 1.78372 194.891 0.436738C192.507 -0.570591 189.762 0.326104 187.451 1.49162C185.141 2.65713 182.856 4.12446 180.274 4.28943C178.028 4.43306 175.59 3.59847 173.624 4.69799C172.16 5.51705 171.393 7.20758 170.043 8.2052C168.723 9.18148 167 9.38721 165.362 9.47746C163.723 9.56675 162.028 9.58325 160.536 10.2674C159.045 10.9516 157.81 12.5324 158.12 14.1473L214.756 13.5873Z" fill="#F5F5F5"/>
<path d="M320.088 121.233C320.52 118.078 316.078 115.483 312.739 115.213C311.147 115.084 309.493 115.328 307.985 114.801C304.717 113.66 303.412 109.429 300.223 108.082C297.838 107.075 295.094 107.971 292.783 109.137C290.471 110.302 288.188 111.769 285.606 111.935C283.36 112.078 280.92 111.244 278.956 112.343C277.492 113.162 276.725 114.853 275.375 115.851C274.055 116.827 272.332 117.034 270.695 117.123C269.056 117.212 267.36 117.229 265.869 117.913C264.377 118.597 263.143 120.178 263.453 121.793L320.088 121.233Z" fill="#EBEBEB"/>
<path d="M316.279 36.6219C318.056 29.4858 313.723 22.2574 306.602 20.4769C299.48 18.6963 292.267 23.0379 290.49 30.174C288.713 37.3101 293.046 44.5384 300.167 46.3189C307.288 48.0995 314.502 43.7579 316.279 36.6219Z" fill="#EBEBEB"/>
<path d="M301.485 63.188C301.408 63.188 301.346 60.7289 301.346 57.6953C301.346 54.6616 301.409 52.2025 301.485 52.2025C301.563 52.2025 301.626 54.6616 301.626 57.6953C301.625 60.7289 301.562 63.188 301.485 63.188Z" fill="#EBEBEB"/>
<path d="M293.827 49.1069C293.894 49.1457 292.645 51.4398 291.036 54.2308C289.427 57.0228 288.069 59.2539 288.002 59.2151C287.935 59.1763 289.184 56.8821 290.794 54.0901C292.402 51.2991 293.76 49.068 293.827 49.1069Z" fill="#EBEBEB"/>
<path d="M285.968 44.2032C286.016 44.2643 284.627 45.4502 282.865 46.8545C281.103 48.2587 279.635 49.3466 279.587 49.2864C279.538 49.2263 280.928 48.0394 282.691 46.6352C284.452 45.2309 285.921 44.1421 285.968 44.2032Z" fill="#EBEBEB"/>
<path d="M314.742 57.7768C314.702 57.7836 314.583 57.2635 314.391 56.425C314.2 55.5865 313.929 54.4317 313.59 53.1652C313.25 51.8998 312.905 50.7634 312.652 49.9424C312.398 49.1214 312.24 48.6119 312.278 48.5973C312.313 48.5847 312.536 49.0699 312.839 49.8783C313.142 50.6857 313.518 51.8192 313.86 53.0925C314.201 54.3657 314.443 55.5351 314.586 56.3862C314.728 57.2382 314.778 57.771 314.742 57.7768Z" fill="#EBEBEB"/>
<path d="M328.221 48.1925C328.17 48.2508 326.412 46.7941 324.293 44.9386C322.174 43.0821 320.498 41.5314 320.549 41.4731C320.599 41.4149 322.358 42.8716 324.477 44.728C326.596 46.5826 328.271 48.1343 328.221 48.1925Z" fill="#EBEBEB"/>
<path d="M333.383 35.0227C333.375 35.0625 332.765 34.9558 331.781 34.7918C330.797 34.6277 329.435 34.4162 327.924 34.2415C326.412 34.0688 325.039 33.9649 324.043 33.9018C323.047 33.8378 322.429 33.8038 322.429 33.7631C322.429 33.7272 323.049 33.6903 324.05 33.7039C325.052 33.7165 326.436 33.7893 327.956 33.963C329.476 34.1377 330.84 34.3812 331.818 34.5967C332.796 34.8112 333.391 34.9868 333.383 35.0227Z" fill="#EBEBEB"/>
<path d="M333.4 22.0711C333.418 22.1458 330.541 22.9134 326.975 23.7839C323.407 24.6544 320.502 25.2998 320.484 25.2241C320.465 25.1494 323.342 24.3817 326.909 23.5112C330.475 22.6408 333.382 21.9964 333.4 22.0711Z" fill="#EBEBEB"/>
<path d="M318.384 6.98142C318.449 7.02412 317.072 9.22413 315.31 11.8948C313.548 14.5665 312.067 16.6976 312.003 16.6549C311.939 16.6122 313.315 14.4122 315.077 11.7405C316.838 9.06983 318.319 6.93872 318.384 6.98142Z" fill="#EBEBEB"/>
<path d="M303.482 3.82845C303.521 3.83039 303.516 4.52912 303.501 5.65678C303.484 6.78445 303.462 8.34105 303.464 10.0607C303.466 11.7813 303.492 13.3379 303.511 14.4656C303.529 15.5932 303.535 16.291 303.495 16.2939C303.458 16.2958 303.382 15.601 303.313 14.4733C303.243 13.3457 303.187 11.7852 303.184 10.0617C303.182 8.33814 303.236 6.77765 303.303 5.64999C303.37 4.52232 303.445 3.82651 303.482 3.82845Z" fill="#EBEBEB"/>
<path d="M292.196 17.9127C292.13 17.9534 290.731 15.7777 289.07 13.0556C287.409 10.3315 286.116 8.0917 286.182 8.05094C286.248 8.01018 287.647 10.185 289.308 12.909C290.969 15.6321 292.262 17.8729 292.196 17.9127Z" fill="#EBEBEB"/>
<path d="M285.455 23.6538C285.447 23.6907 284.906 23.6111 284.042 23.4296C283.178 23.2482 281.993 22.957 280.7 22.5757C279.407 22.1933 278.253 21.7925 277.429 21.4752C276.605 21.1578 276.107 20.9307 276.121 20.8958C276.134 20.8579 276.656 21.02 277.495 21.2879C278.334 21.5567 279.492 21.9254 280.779 22.3068C282.066 22.6863 283.239 23.0065 284.088 23.2365C284.938 23.4675 285.463 23.615 285.455 23.6538Z" fill="#EBEBEB"/>
<path d="M282.51 33.8842C282.517 33.9609 280.618 34.2074 278.269 34.4335C275.918 34.6596 274.009 34.7809 274.001 34.7042C273.993 34.6276 275.892 34.3811 278.242 34.155C280.591 33.9289 282.502 33.8075 282.51 33.8842Z" fill="#EBEBEB"/>
<path d="M561.657 34.872C561.647 34.8982 561.205 34.7158 560.368 34.5295C559.536 34.346 558.287 34.185 556.771 34.3907C555.267 34.5925 553.484 35.1981 551.925 36.4849C550.369 37.7485 549.036 39.6602 548.504 41.9282C548.5 41.9486 548.494 41.9699 548.489 41.9884L548.389 42.3775L548.24 42.0087C547.369 39.8543 545.823 38.1415 544.145 37.0526C542.462 35.9444 540.652 35.4854 539.142 35.3815C537.623 35.2748 536.39 35.4941 535.569 35.7095C534.744 35.9279 534.308 36.12 534.298 36.0948C534.295 36.087 534.402 36.0346 534.609 35.9444C534.815 35.8532 535.128 35.7328 535.542 35.6115C536.363 35.3641 537.608 35.1127 539.154 35.1971C540.69 35.2777 542.546 35.727 544.274 36.8508C545.998 37.9532 547.588 39.7 548.482 41.9117L548.233 41.9321C548.238 41.9127 548.244 41.8913 548.249 41.87C548.796 39.538 550.169 37.5825 551.773 36.2986C553.381 34.9895 555.214 34.3888 556.747 34.2082C558.293 34.0219 559.557 34.216 560.391 34.4314C560.811 34.5372 561.129 34.6459 561.339 34.7323C561.55 34.8157 561.66 34.8633 561.657 34.872Z" fill="#E0E0E0"/>
<path d="M594.267 17.4787C594.259 17.5001 594.012 17.4079 593.553 17.3128C593.096 17.2196 592.412 17.1371 591.585 17.2555C590.765 17.371 589.795 17.7058 588.948 18.4084C588.102 19.0984 587.379 20.1407 587.089 21.3731L587.081 21.4061L586.981 21.7953L586.832 21.4265C586.358 20.2542 585.517 19.3197 584.604 18.7238C583.689 18.1173 582.704 17.863 581.88 17.8009C581.05 17.7378 580.375 17.8504 579.923 17.962C579.469 18.0746 579.227 18.1726 579.218 18.1522C579.214 18.1435 579.271 18.1124 579.384 18.0581C579.497 18.0037 579.668 17.9348 579.896 17.864C580.347 17.7204 581.035 17.5758 581.892 17.6165C582.742 17.6563 583.773 17.9009 584.735 18.5219C585.693 19.1314 586.578 20.0999 587.075 21.3285L586.826 21.3489L586.835 21.3149C587.139 20.0174 587.904 18.9324 588.796 18.2221C589.691 17.4971 590.71 17.1682 591.561 17.0731C592.418 16.975 593.117 17.0886 593.575 17.2147C593.806 17.2769 593.981 17.3399 594.095 17.3914C594.211 17.4399 594.27 17.47 594.267 17.4787Z" fill="#E0E0E0"/>
<path d="M571.511 0.961658C571.527 0.978156 571.265 1.24406 570.82 1.74772C570.374 2.25042 569.766 3.01319 569.132 4.0312C567.857 6.041 566.582 9.24349 566.625 12.9176C566.625 12.9555 566.624 12.9943 566.624 13.0292L566.364 13.0506C566.093 11.2582 565.496 9.61227 564.743 8.23811C563.991 6.8591 563.108 5.73919 562.274 4.89587C561.441 4.05061 560.681 3.45378 560.134 3.07724C559.587 2.69877 559.271 2.50856 559.283 2.48818C559.288 2.48041 559.371 2.5202 559.525 2.60463C559.678 2.69295 559.913 2.80551 560.19 2.99378C560.758 3.34703 561.544 3.92639 562.404 4.76583C563.265 5.60236 564.177 6.72711 564.953 8.12165C565.73 9.51231 566.346 11.1854 566.622 13.0127L566.362 13.0341C566.362 12.9982 566.363 12.9594 566.363 12.9205C566.318 9.18235 567.645 5.93717 568.975 3.93221C569.636 2.91518 570.271 2.16405 570.743 1.67979C570.971 1.42941 571.173 1.25959 571.301 1.13634C571.434 1.01503 571.505 0.954865 571.511 0.961658Z" fill="#E0E0E0"/>
<path d="M635.93 114.697C635.337 114.995 619.301 123.326 619.301 123.326L622.568 127.343L636.821 116.333L635.93 114.697Z" fill="#E0E0E0"/>
<path d="M638.283 119.287C637.807 119.751 625.052 132.567 625.052 132.567L629.381 135.401L639.628 120.576L638.283 119.287Z" fill="#E0E0E0"/>
<path d="M633.712 110.08C633.051 110.15 615.516 111.009 615.516 111.009L616.775 117.236L633.974 111.926L633.712 110.08Z" fill="#E0E0E0"/>
<path d="M634.183 105.185C633.531 105.066 616.466 100.931 616.466 100.931L615.92 107.261L633.915 107.03L634.183 105.185Z" fill="#E0E0E0"/>
<path d="M637.187 101.478C636.667 101.065 623.559 89.3631 623.559 89.3631L620.102 94.689L636.084 102.979L637.187 101.478Z" fill="#E0E0E0"/>
<path d="M640.896 99.6345C640.649 99.0163 635.066 82.3381 635.066 82.3381L629.426 85.2427L639.194 100.389L640.896 99.6345Z" fill="#E0E0E0"/>
<path d="M646.367 99.0977C646.433 98.4359 649.182 81.0609 649.182 81.0609L642.841 81.0221L644.512 98.9784L646.367 99.0977Z" fill="#E0E0E0"/>
<path d="M651.409 110.677C651.409 113.361 649.238 115.538 646.558 115.538C643.878 115.538 641.707 113.362 641.707 110.677C641.707 107.993 643.878 105.816 646.558 105.816C649.238 105.816 651.409 107.992 651.409 110.677Z" fill="#E0E0E0"/>
<path d="M628.645 275.496C628.386 275.471 631.623 240.676 635.871 197.79C640.122 154.889 643.776 120.144 644.033 120.169C644.292 120.194 641.056 154.982 636.806 197.882C632.557 240.769 628.903 275.522 628.645 275.496Z" fill="#E0E0E0"/>
<path d="M666.095 274.404C665.836 274.43 662.191 240.373 657.953 198.346C653.714 156.304 650.488 122.212 650.746 122.186C651.003 122.16 654.649 156.209 658.887 198.251C663.125 240.279 666.352 274.378 666.095 274.404Z" fill="#E0E0E0"/>
<path d="M656.151 177.258C656.151 177.518 652.402 177.728 647.779 177.728C643.155 177.728 639.407 177.518 639.407 177.258C639.407 176.998 643.155 176.787 647.779 176.787C652.402 176.787 656.151 176.998 656.151 177.258Z" fill="#E0E0E0"/>
<path d="M659.742 215.401C659.742 215.661 654.27 215.871 647.522 215.871C640.771 215.871 635.3 215.661 635.3 215.401C635.3 215.14 640.771 214.93 647.522 214.93C654.27 214.93 659.742 215.14 659.742 215.401Z" fill="#E0E0E0"/>
<path d="M664.183 254.284C664.183 254.544 656.764 254.754 647.615 254.754C638.462 254.754 631.044 254.544 631.044 254.284C631.044 254.024 638.462 253.813 647.615 253.813C656.764 253.813 664.183 254.025 664.183 254.284Z" fill="#E0E0E0"/>
<path d="M647.007 113.658C647.266 113.656 647.782 149.642 648.159 194.023C648.536 238.421 648.632 274.402 648.372 274.404C648.113 274.406 647.596 238.428 647.22 194.031C646.842 149.65 646.747 113.66 647.007 113.658Z" fill="#E0E0E0"/>
<path d="M668.819 111.494C668.811 111.494 668.797 111.369 668.776 111.125C668.757 110.859 668.731 110.5 668.698 110.041C668.682 109.8 668.665 109.534 668.646 109.243C668.615 108.951 668.551 108.634 668.498 108.29C668.387 107.602 668.281 106.804 668.017 105.937C667.611 104.175 666.783 102.095 665.483 99.8907C664.17 97.6955 662.281 95.4043 659.711 93.4605C657.148 91.5351 653.915 89.897 650.185 89.2371C646.48 88.6004 642.298 88.7169 638.316 90.2337C637.303 90.5588 636.351 91.0615 635.371 91.5322C634.444 92.0941 633.467 92.6123 632.603 93.3159C631.685 93.9476 630.883 94.7376 630.042 95.4984C629.283 96.3408 628.485 97.1656 627.83 98.1215C626.486 99.9916 625.313 102.069 624.604 104.354C623.868 106.625 623.472 109.036 623.439 111.49C623.472 113.946 623.867 116.358 624.602 118.63C625.311 120.916 626.485 122.994 627.829 124.865C628.484 125.822 629.282 126.647 630.041 127.489C630.882 128.25 631.685 129.04 632.603 129.673C633.467 130.376 634.444 130.895 635.371 131.458C636.351 131.928 637.304 132.431 638.317 132.757C642.3 134.274 646.483 134.39 650.188 133.754C653.918 133.093 657.151 131.456 659.713 129.529C662.284 127.584 664.173 125.293 665.485 123.098C666.786 120.894 667.614 118.814 668.02 117.053C668.285 116.186 668.39 115.388 668.501 114.7C668.553 114.355 668.617 114.039 668.649 113.747C668.669 113.456 668.685 113.19 668.701 112.949C668.734 112.491 668.76 112.132 668.779 111.865C668.796 111.621 668.81 111.494 668.819 111.494C668.827 111.494 668.829 111.62 668.824 111.865C668.816 112.133 668.805 112.494 668.792 112.954C668.783 113.196 668.773 113.463 668.763 113.757C668.738 114.052 668.681 114.371 668.636 114.718C668.539 115.412 668.447 116.219 668.193 117.097C667.812 118.879 667.002 120.99 665.707 123.232C664.402 125.465 662.506 127.803 659.911 129.793C657.324 131.765 654.048 133.447 650.256 134.137C646.49 134.803 642.231 134.699 638.166 133.165C637.132 132.835 636.16 132.326 635.16 131.848C634.212 131.278 633.216 130.75 632.332 130.035C631.395 129.391 630.575 128.588 629.717 127.813C628.94 126.955 628.126 126.114 627.455 125.139C626.082 123.232 624.883 121.112 624.156 118.779C623.403 116.46 622.999 113.997 622.967 111.491C622.999 108.987 623.404 106.525 624.158 104.206C624.885 101.874 626.083 99.7548 627.456 97.8488C628.126 96.8745 628.941 96.0341 629.717 95.1762C630.575 94.4008 631.396 93.5973 632.332 92.9549C633.215 92.2396 634.212 91.7127 635.159 91.1421C636.159 90.6636 637.132 90.1551 638.165 89.8251C642.23 88.2909 646.487 88.187 650.254 88.8527C654.045 89.5418 657.322 91.2245 659.909 93.1955C662.505 95.1849 664.4 97.5237 665.705 99.7558C667 101.998 667.81 104.109 668.191 105.892C668.444 106.77 668.537 107.576 668.634 108.271C668.679 108.618 668.736 108.937 668.761 109.231C668.771 109.524 668.781 109.792 668.79 110.035C668.803 110.496 668.814 110.857 668.822 111.124C668.829 111.369 668.827 111.494 668.819 111.494Z" fill="#E0E0E0"/>
<path d="M654.557 104.095C655.291 104.196 671.684 99.2889 671.684 99.2889L667.089 91.2322L654.023 102.581L654.557 104.095Z" fill="#E0E0E0"/>
<path d="M650.746 100.247C651.221 99.783 664.872 87.4398 664.872 87.4398L658.421 82.4798L649.393 99.6209L650.746 100.247Z" fill="#E0E0E0"/>
<path d="M656.518 110.297C657.178 110.227 674.713 109.368 674.713 109.368L673.454 103.141L656.255 108.451L656.518 110.297Z" fill="#E0E0E0"/>
<path d="M655.703 116.528C656.35 116.676 673.21 121.582 673.21 121.582L674.042 115.283L656.055 114.697L655.703 116.528Z" fill="#E0E0E0"/>
<path d="M653.238 120.668C653.759 121.081 666.867 132.783 666.867 132.783L670.325 127.457L654.343 119.168L653.238 120.668Z" fill="#E0E0E0"/>
<path d="M649.393 121.454C649.64 122.072 655.223 138.75 655.223 138.75L660.862 135.846L651.094 120.7L649.393 121.454Z" fill="#E0E0E0"/>
<path d="M642.739 121.02C642.598 121.67 637.912 138.624 637.912 138.624L644.208 139.38L644.57 121.35L642.739 121.02Z" fill="#E0E0E0"/>
<path d="M28.4395 225.49C26.8842 225.49 25.6223 224.227 25.6223 222.667V123.076C25.6223 121.516 26.8832 120.253 28.4395 120.253C29.9958 120.253 31.2567 121.516 31.2567 123.076V222.667C31.2567 224.226 29.9958 225.49 28.4395 225.49Z" fill="#E0E0E0"/>
<path d="M60.4274 227.297H33.5345C31.6625 227.297 30.1459 225.777 30.1459 223.902V108.123C30.1459 98.8057 37.6834 91.2527 46.9815 91.2527C56.2796 91.2527 63.817 98.8057 63.817 108.123V223.901C63.8161 225.777 62.2995 227.297 60.4274 227.297Z" fill="#EBEBEB"/>
<path d="M65.0061 225.49H0.0365771V227.948H65.0061V225.49Z" fill="#EBEBEB"/>
<path d="M63.817 227.297H2.79494V254.733H63.817V227.297Z" fill="#EBEBEB"/>
<path d="M64.554 108.802H29.8506C29.3673 108.802 28.9761 108.41 28.9761 107.926V107.484C28.9761 107 29.3673 106.608 29.8506 106.608H64.554C65.0373 106.608 65.4286 107 65.4286 107.484V107.926C65.4286 108.409 65.0373 108.802 64.554 108.802Z" fill="#E0E0E0"/>
<path d="M64.554 108.802C64.554 108.794 64.6209 108.796 64.7448 108.765C64.8649 108.732 65.0518 108.659 65.2068 108.465C65.2823 108.369 65.3462 108.245 65.3762 108.098C65.4034 107.952 65.3859 107.779 65.3879 107.594C65.4285 107.238 65.2048 106.793 64.7506 106.686C62.8631 106.654 60.0672 106.704 56.6457 106.706C49.7745 106.717 40.3089 106.731 29.8544 106.748C29.5775 106.745 29.3121 106.913 29.1939 107.161C29.13 107.289 29.1155 107.409 29.1184 107.573C29.1213 107.728 29.1097 107.914 29.1281 108.037C29.1659 108.305 29.3683 108.544 29.6259 108.624C29.7508 108.667 29.8893 108.659 30.0588 108.66H30.5372C31.8117 108.661 33.0668 108.661 34.2996 108.662C36.7663 108.664 39.1458 108.667 41.4129 108.669C45.9433 108.681 50.0234 108.691 53.4575 108.699C56.8732 108.719 59.643 108.733 61.578 108.744C62.5232 108.756 63.2641 108.764 63.786 108.77C64.0262 108.776 64.216 108.781 64.3603 108.784C64.4872 108.793 64.554 108.797 64.554 108.802C64.554 108.807 64.4882 108.812 64.3584 108.817C64.2151 108.821 64.0253 108.825 63.7841 108.831C63.2621 108.837 62.5222 108.847 61.576 108.858C59.642 108.868 56.8723 108.884 53.4556 108.902C50.0215 108.911 45.9414 108.921 41.411 108.932C39.1438 108.935 36.7643 108.937 34.2977 108.94C33.0639 108.941 31.8088 108.941 30.5353 108.942H30.0568C29.9077 108.941 29.7198 108.955 29.5377 108.892C29.1804 108.781 28.9015 108.454 28.8482 108.08C28.824 107.881 28.8405 107.742 28.8356 107.574C28.8298 107.415 28.8521 107.201 28.9392 107.037C29.1019 106.693 29.4709 106.461 29.8535 106.465C40.3079 106.481 49.7735 106.496 56.6447 106.507C60.0778 106.532 62.837 106.507 64.7758 106.58C65.2901 106.706 65.5254 107.227 65.4712 107.595C65.4644 107.779 65.4789 107.95 65.445 108.112C65.4082 108.27 65.3346 108.402 65.2503 108.501C65.077 108.701 64.8775 108.769 64.7516 108.793C64.6209 108.816 64.554 108.802 64.554 108.802Z" fill="#E0E0E0"/>
<path d="M64.0707 114.269C64.0707 114.346 56.4936 114.41 47.15 114.41C37.8025 114.41 30.2273 114.347 30.2273 114.269C30.2273 114.19 37.8025 114.127 47.15 114.127C56.4936 114.127 64.0707 114.191 64.0707 114.269Z" fill="#E0E0E0"/>
<path d="M64.0707 120.893C64.0707 120.971 56.4936 121.035 47.15 121.035C37.8025 121.035 30.2273 120.972 30.2273 120.893C30.2273 120.816 37.8025 120.752 47.15 120.752C56.4936 120.752 64.0707 120.816 64.0707 120.893Z" fill="#E0E0E0"/>
<path d="M64.0707 127.518C64.0707 127.597 56.4936 127.66 47.15 127.66C37.8025 127.66 30.2273 127.597 30.2273 127.518C30.2273 127.441 37.8025 127.377 47.15 127.377C56.4936 127.377 64.0707 127.44 64.0707 127.518Z" fill="#E0E0E0"/>
<path d="M64.0707 134.143C64.0707 134.22 56.4936 134.284 47.15 134.284C37.8025 134.284 30.2273 134.221 30.2273 134.143C30.2273 134.065 37.8025 134.001 47.15 134.001C56.4936 134.001 64.0707 134.064 64.0707 134.143Z" fill="#E0E0E0"/>
<path d="M64.0707 140.767C64.0707 140.845 56.4936 140.909 47.15 140.909C37.8025 140.909 30.2273 140.846 30.2273 140.767C30.2273 140.688 37.8025 140.625 47.15 140.625C56.4936 140.626 64.0707 140.689 64.0707 140.767Z" fill="#E0E0E0"/>
<path d="M64.0707 147.391C64.0707 147.469 56.4936 147.533 47.15 147.533C37.8025 147.533 30.2273 147.47 30.2273 147.391C30.2273 147.313 37.8025 147.25 47.15 147.25C56.4936 147.251 64.0707 147.314 64.0707 147.391Z" fill="#E0E0E0"/>
<path d="M64.0707 154.017C64.0707 154.095 56.4936 154.158 47.15 154.158C37.8025 154.158 30.2273 154.095 30.2273 154.017C30.2273 153.939 37.8025 153.876 47.15 153.876C56.4936 153.875 64.0707 153.938 64.0707 154.017Z" fill="#E0E0E0"/>
<path d="M64.0707 160.641C64.0707 160.719 56.4936 160.783 47.15 160.783C37.8025 160.783 30.2273 160.72 30.2273 160.641C30.2273 160.562 37.8025 160.499 47.15 160.499C56.4936 160.5 64.0707 160.563 64.0707 160.641Z" fill="#E0E0E0"/>
<path d="M64.0707 167.265C64.0707 167.343 56.4936 167.407 47.15 167.407C37.8025 167.407 30.2273 167.344 30.2273 167.265C30.2273 167.187 37.8025 167.123 47.15 167.123C56.4936 167.124 64.0707 167.187 64.0707 167.265Z" fill="#E0E0E0"/>
<path d="M64.0707 173.891C64.0707 173.969 56.4936 174.032 47.15 174.032C37.8025 174.032 30.2273 173.969 30.2273 173.891C30.2273 173.813 37.8025 173.749 47.15 173.749C56.4936 173.749 64.0707 173.812 64.0707 173.891Z" fill="#E0E0E0"/>
<path d="M64.0707 180.515C64.0707 180.592 56.4936 180.656 47.15 180.656C37.8025 180.656 30.2273 180.593 30.2273 180.515C30.2273 180.437 37.8025 180.373 47.15 180.373C56.4936 180.373 64.0707 180.437 64.0707 180.515Z" fill="#E0E0E0"/>
<path d="M64.0707 187.139C64.0707 187.217 56.4936 187.281 47.15 187.281C37.8025 187.281 30.2273 187.218 30.2273 187.139C30.2273 187.061 37.8025 186.997 47.15 186.997C56.4936 186.998 64.0707 187.061 64.0707 187.139Z" fill="#E0E0E0"/>
<path d="M64.0707 193.764C64.0707 193.841 56.4936 193.905 47.15 193.905C37.8025 193.905 30.2273 193.842 30.2273 193.764C30.2273 193.686 37.8025 193.622 47.15 193.622C56.4936 193.623 64.0707 193.686 64.0707 193.764Z" fill="#E0E0E0"/>
<path d="M64.0707 200.389C64.0707 200.466 56.4936 200.53 47.15 200.53C37.8025 200.53 30.2273 200.467 30.2273 200.389C30.2273 200.31 37.8025 200.247 47.15 200.247C56.4936 200.247 64.0707 200.31 64.0707 200.389Z" fill="#E0E0E0"/>
<path d="M64.0707 207.209C64.0707 207.287 56.4936 207.351 47.15 207.351C37.8025 207.351 30.2273 207.288 30.2273 207.209C30.2273 207.131 37.8025 207.067 47.15 207.067C56.4936 207.068 64.0707 207.131 64.0707 207.209Z" fill="#E0E0E0"/>
<path d="M64.0707 214.03C64.0707 214.108 56.4936 214.172 47.15 214.172C37.8025 214.172 30.2273 214.109 30.2273 214.03C30.2273 213.953 37.8025 213.889 47.15 213.889C56.4936 213.889 64.0707 213.953 64.0707 214.03Z" fill="#E0E0E0"/>
<path d="M64.0707 220.852C64.0707 220.929 56.4936 220.993 47.15 220.993C37.8025 220.993 30.2273 220.93 30.2273 220.852C30.2273 220.773 37.8025 220.71 47.15 220.71C56.4936 220.71 64.0707 220.773 64.0707 220.852Z" fill="#E0E0E0"/>
<path d="M0.0368012 227.947C0.0368012 227.947 0.0280845 227.763 0.0213053 227.361C0.016463 226.946 0.00968398 226.331 0.000967919 225.49L0 225.454H0.0368012C7.38928 225.393 33.7079 225.348 65.0024 225.348H65.0053H65.1467V225.49C65.1467 226.331 65.1467 227.169 65.1467 227.947V228.088H65.0053C46.9214 228.065 30.6641 228.045 18.9177 228.03C13.0692 228.012 8.34417 227.997 5.06984 227.987C3.45059 227.979 2.19161 227.972 1.32581 227.967C0.90744 227.962 0.585912 227.959 0.358326 227.957C0.142361 227.953 0.0368012 227.947 0.0368012 227.947C0.0368012 227.947 0.155921 227.94 0.379633 227.937C0.612061 227.935 0.939398 227.931 1.36649 227.927C2.23906 227.922 3.50966 227.916 5.14344 227.907C8.42455 227.897 13.1612 227.883 19.0242 227.864C30.7444 227.85 46.964 227.829 65.0073 227.806L64.8659 227.947C64.8659 227.169 64.8659 226.332 64.8659 225.49L65.0073 225.631H65.0024C33.7079 225.631 7.38928 225.587 0.0368012 225.526L0.0726327 225.49C0.0629482 226.322 0.0561691 226.931 0.0522953 227.341C0.0445477 227.746 0.0368012 227.947 0.0368012 227.947Z" fill="#E0E0E0"/>
<path d="M108.737 225.49H43.768V227.947H108.737V225.49Z" fill="#EBEBEB"/>
<path d="M72.1718 249.876C70.6165 249.876 69.3546 248.612 69.3546 247.053V158.871C69.3546 157.311 70.6155 156.048 72.1718 156.048C73.7281 156.048 74.9891 157.311 74.9891 158.871V247.053C74.9881 248.612 73.7272 249.876 72.1718 249.876Z" fill="#E0E0E0"/>
<path d="M104.159 251.671H77.2659C75.3939 251.671 73.8773 250.15 73.8773 248.276V152.443C73.8773 143.126 81.4147 135.573 90.7128 135.573C100.011 135.573 107.548 143.126 107.548 152.443V248.275C107.547 250.151 106.031 251.671 104.159 251.671Z" fill="#EBEBEB"/>
<path d="M108.285 153.123H73.5819C73.0987 153.123 72.7074 152.731 72.7074 152.246V151.805C72.7074 151.32 73.0987 150.928 73.5819 150.928H108.285C108.769 150.928 109.16 151.32 109.16 151.805V152.246C109.16 152.731 108.769 153.123 108.285 153.123Z" fill="#E0E0E0"/>
<path d="M108.285 153.123C108.285 153.115 108.352 153.117 108.476 153.086C108.596 153.053 108.783 152.979 108.938 152.786C109.014 152.69 109.078 152.566 109.108 152.418C109.135 152.273 109.117 152.1 109.119 151.914C109.16 151.558 108.936 151.114 108.482 151.006C106.594 150.974 103.799 151.025 100.377 151.026C93.5059 151.037 84.0402 151.052 73.5858 151.068C73.3088 151.065 73.0435 151.233 72.9253 151.482C72.8624 151.61 72.8469 151.729 72.8507 151.893C72.8546 152.048 72.843 152.235 72.8604 152.357C72.8982 152.626 73.1006 152.865 73.3582 152.944C73.4831 152.989 73.6216 152.979 73.7911 152.98H74.2695C75.544 152.981 76.7991 152.982 78.0319 152.982C80.4986 152.985 82.8781 152.988 85.1452 152.99C89.6756 153.001 93.7557 153.011 97.1898 153.02C100.606 153.039 103.375 153.054 105.31 153.064C106.256 153.076 106.996 153.085 107.518 153.091C107.759 153.096 107.948 153.101 108.093 153.104C108.22 153.113 108.285 153.118 108.285 153.123C108.285 153.128 108.22 153.132 108.09 153.137C107.946 153.141 107.757 153.145 107.515 153.151C106.993 153.158 106.254 153.166 105.307 153.177C103.373 153.188 100.604 153.203 97.1869 153.222C93.7528 153.23 89.6727 153.241 85.1423 153.252C82.8752 153.255 80.4957 153.257 78.029 153.259C76.7952 153.26 75.5401 153.26 74.2666 153.261H73.7882C73.6391 153.26 73.4512 153.274 73.2691 153.212C72.9117 153.1 72.6328 152.773 72.5796 152.4C72.5554 152.201 72.5718 152.061 72.567 151.892C72.5612 151.734 72.5834 151.519 72.6706 151.356C72.8333 151.013 73.2023 150.781 73.5838 150.785C84.0383 150.801 93.5039 150.816 100.375 150.827C103.808 150.852 106.567 150.827 108.506 150.899C109.02 151.026 109.256 151.547 109.202 151.914C109.195 152.099 109.209 152.27 109.175 152.432C109.139 152.59 109.065 152.722 108.981 152.821C108.807 153.021 108.608 153.089 108.482 153.113C108.352 153.137 108.285 153.123 108.285 153.123Z" fill="#E0E0E0"/>
<path d="M107.802 158.589C107.802 158.667 100.225 158.731 90.8813 158.731C81.5338 158.731 73.9586 158.668 73.9586 158.589C73.9586 158.511 81.5338 158.448 90.8813 158.448C100.225 158.449 107.802 158.512 107.802 158.589Z" fill="#E0E0E0"/>
<path d="M107.802 165.215C107.802 165.292 100.225 165.356 90.8813 165.356C81.5338 165.356 73.9586 165.293 73.9586 165.215C73.9586 165.136 81.5338 165.073 90.8813 165.073C100.225 165.073 107.802 165.136 107.802 165.215Z" fill="#E0E0E0"/>
<path d="M107.802 171.839C107.802 171.916 100.225 171.98 90.8813 171.98C81.5338 171.98 73.9586 171.917 73.9586 171.839C73.9586 171.761 81.5338 171.697 90.8813 171.697C100.225 171.697 107.802 171.761 107.802 171.839Z" fill="#E0E0E0"/>
<path d="M107.802 178.463C107.802 178.541 100.225 178.605 90.8813 178.605C81.5338 178.605 73.9586 178.542 73.9586 178.463C73.9586 178.386 81.5338 178.322 90.8813 178.322C100.225 178.323 107.802 178.386 107.802 178.463Z" fill="#E0E0E0"/>
<path d="M107.802 185.088C107.802 185.166 100.225 185.23 90.8813 185.23C81.5338 185.23 73.9586 185.167 73.9586 185.088C73.9586 185.011 81.5338 184.947 90.8813 184.947C100.225 184.947 107.802 185.01 107.802 185.088Z" fill="#E0E0E0"/>
<path d="M107.802 191.713C107.802 191.791 100.225 191.854 90.8813 191.854C81.5338 191.854 73.9586 191.791 73.9586 191.713C73.9586 191.635 81.5338 191.572 90.8813 191.572C100.225 191.571 107.802 191.634 107.802 191.713Z" fill="#E0E0E0"/>
<path d="M107.802 198.337C107.802 198.415 100.225 198.479 90.8813 198.479C81.5338 198.479 73.9586 198.416 73.9586 198.337C73.9586 198.259 81.5338 198.195 90.8813 198.195C100.225 198.195 107.802 198.259 107.802 198.337Z" fill="#E0E0E0"/>
<path d="M107.802 204.961C107.802 205.04 100.225 205.103 90.8813 205.103C81.5338 205.103 73.9586 205.04 73.9586 204.961C73.9586 204.884 81.5338 204.82 90.8813 204.82C100.225 204.821 107.802 204.884 107.802 204.961Z" fill="#E0E0E0"/>
<path d="M107.802 211.587C107.802 211.664 100.225 211.728 90.8813 211.728C81.5338 211.728 73.9586 211.665 73.9586 211.587C73.9586 211.509 81.5338 211.445 90.8813 211.445C100.225 211.445 107.802 211.508 107.802 211.587Z" fill="#E0E0E0"/>
<path d="M107.802 218.211C107.802 218.289 100.225 218.353 90.8813 218.353C81.5338 218.353 73.9586 218.29 73.9586 218.211C73.9586 218.133 81.5338 218.069 90.8813 218.069C100.225 218.069 107.802 218.133 107.802 218.211Z" fill="#E0E0E0"/>
<path d="M107.802 224.835C107.802 224.913 100.225 224.977 90.8813 224.977C81.5338 224.977 73.9586 224.914 73.9586 224.835C73.9586 224.758 81.5338 224.693 90.8813 224.693C100.225 224.694 107.802 224.758 107.802 224.835Z" fill="#E0E0E0"/>
<path d="M107.802 231.461C107.802 231.538 100.225 231.602 90.8813 231.602C81.5338 231.602 73.9586 231.539 73.9586 231.461C73.9586 231.383 81.5338 231.319 90.8813 231.319C100.225 231.319 107.802 231.382 107.802 231.461Z" fill="#E0E0E0"/>
<path d="M107.802 230.453C107.802 230.532 100.225 230.595 90.8813 230.595C81.5338 230.595 73.9586 230.532 73.9586 230.453C73.9586 230.376 81.5338 230.312 90.8813 230.312C100.225 230.312 107.802 230.376 107.802 230.453Z" fill="#E0E0E0"/>
<path d="M107.802 237.275C107.802 237.353 100.225 237.416 90.8813 237.416C81.5338 237.416 73.9586 237.353 73.9586 237.275C73.9586 237.197 81.5338 237.133 90.8813 237.133C100.225 237.133 107.802 237.196 107.802 237.275Z" fill="#E0E0E0"/>
<path d="M107.802 244.095C107.802 244.173 100.225 244.237 90.8813 244.237C81.5338 244.237 73.9586 244.173 73.9586 244.095C73.9586 244.017 81.5338 243.953 90.8813 243.953C100.225 243.954 107.802 244.017 107.802 244.095Z" fill="#E0E0E0"/>
<path d="M107.548 227.297H46.5263V254.733H107.548V227.297Z" fill="#EBEBEB"/>
<path d="M43.7682 227.946C43.7682 227.946 43.7595 227.763 43.7527 227.361C43.7478 226.946 43.741 226.331 43.7323 225.489V225.453H43.7691C51.1216 225.393 77.4402 225.348 108.735 225.348H108.738H108.879V225.489C108.879 226.331 108.879 227.169 108.879 227.946V228.088H108.738C90.6538 228.065 74.3964 228.044 62.65 228.03C56.8016 228.011 52.0765 227.997 48.8031 227.987C47.1839 227.978 45.9249 227.972 45.0591 227.967C44.6407 227.962 44.3192 227.959 44.0916 227.957C43.8737 227.953 43.7682 227.946 43.7682 227.946C43.7682 227.946 43.8873 227.94 44.111 227.937C44.3434 227.935 44.6708 227.931 45.0979 227.927C45.9704 227.922 47.241 227.915 48.8748 227.907C52.1559 227.897 56.8926 227.882 62.7556 227.864C74.4758 227.849 90.6954 227.829 108.739 227.806L108.597 227.946C108.597 227.169 108.597 226.332 108.597 225.489L108.739 225.631H108.736C77.4412 225.631 51.1226 225.586 43.7701 225.526L43.8059 225.49C43.7962 226.322 43.7895 226.93 43.7856 227.341C43.7769 227.746 43.7682 227.946 43.7682 227.946Z" fill="#E0E0E0"/>
<path d="M241.562 191.308H294.979L300.651 216.971H241.562V191.308Z" fill="#E0E0E0"/>
<path d="M295.991 216.778H241.562V253.069H295.991V216.778Z" fill="#EBEBEB"/>
<path d="M241.562 253.069V180.567L222.051 146.426L183.564 125.995L148.551 146.963L129.722 182.18V253.069H241.562Z" fill="#F5F5F5"/>
<path d="M241.811 204.139C241.811 204.218 216.72 204.281 185.774 204.281C154.817 204.281 129.731 204.218 129.731 204.139C129.731 204.062 154.817 203.998 185.774 203.998C216.72 203.998 241.811 204.062 241.811 204.139Z" fill="#E0E0E0"/>
<path d="M241.811 209.673C241.811 209.751 216.72 209.815 185.774 209.815C154.817 209.815 129.731 209.752 129.731 209.673C129.731 209.595 154.817 209.531 185.774 209.531C216.72 209.531 241.811 209.594 241.811 209.673Z" fill="#E0E0E0"/>
<path d="M241.812 215.206C241.812 215.283 216.717 215.347 185.769 215.347C154.811 215.347 129.721 215.284 129.721 215.206C129.721 215.128 154.81 215.064 185.769 215.064C216.717 215.064 241.812 215.127 241.812 215.206Z" fill="#E0E0E0"/>
<path d="M241.812 220.738C241.812 220.816 216.717 220.88 185.769 220.88C154.811 220.88 129.721 220.817 129.721 220.738C129.721 220.661 154.81 220.597 185.769 220.597C216.717 220.598 241.812 220.661 241.812 220.738Z" fill="#E0E0E0"/>
<path d="M241.811 226.271C241.811 226.349 216.72 226.412 185.774 226.412C154.817 226.412 129.731 226.349 129.731 226.271C129.731 226.193 154.817 226.13 185.774 226.13C216.72 226.13 241.811 226.193 241.811 226.271Z" fill="#E0E0E0"/>
<path d="M241.811 231.804C241.811 231.882 216.72 231.946 185.774 231.946C154.817 231.946 129.731 231.883 129.731 231.804C129.731 231.726 154.817 231.663 185.774 231.663C216.72 231.663 241.811 231.726 241.811 231.804Z" fill="#E0E0E0"/>
<path d="M241.811 237.337C241.811 237.415 216.72 237.479 185.774 237.479C154.817 237.479 129.731 237.415 129.731 237.337C129.731 237.259 154.817 237.195 185.774 237.195C216.72 237.196 241.811 237.259 241.811 237.337Z" fill="#E0E0E0"/>
<path d="M241.563 196.043H129.722V199.211H241.563V196.043Z" fill="white"/>
<path d="M192.445 220.925H179.288V253.305H192.445V220.925Z" fill="#E0E0E0"/>
<path d="M166.274 242.562H129.722V245.438H166.274V242.562Z" fill="white"/>
<path d="M131.806 252.831C131.728 252.831 131.665 251.175 131.665 249.134C131.665 247.093 131.728 245.437 131.806 245.437C131.884 245.437 131.948 247.092 131.948 249.134C131.947 251.176 131.884 252.831 131.806 252.831Z" fill="white"/>
<path d="M133.766 252.831C133.689 252.831 133.625 251.175 133.625 249.134C133.625 247.093 133.688 245.437 133.766 245.437C133.845 245.437 133.908 247.092 133.908 249.134C133.908 251.176 133.844 252.831 133.766 252.831Z" fill="white"/>
<path d="M135.726 252.831C135.648 252.831 135.585 251.175 135.585 249.134C135.585 247.093 135.648 245.437 135.726 245.437C135.804 245.437 135.868 247.092 135.868 249.134C135.868 251.176 135.805 252.831 135.726 252.831Z" fill="white"/>
<path d="M137.688 252.831C137.61 252.831 137.546 251.175 137.546 249.134C137.546 247.093 137.609 245.437 137.688 245.437C137.766 245.437 137.829 247.092 137.829 249.134C137.829 251.176 137.765 252.831 137.688 252.831Z" fill="white"/>
<path d="M139.648 252.831C139.569 252.831 139.506 251.175 139.506 249.134C139.506 247.093 139.569 245.437 139.648 245.437C139.725 245.437 139.789 247.092 139.789 249.134C139.789 251.176 139.726 252.831 139.648 252.831Z" fill="white"/>
<path d="M141.609 252.831C141.531 252.831 141.467 251.175 141.467 249.134C141.467 247.093 141.53 245.437 141.609 245.437C141.686 245.437 141.75 247.092 141.75 249.134C141.749 251.176 141.686 252.831 141.609 252.831Z" fill="white"/>
<path d="M143.569 252.831C143.491 252.831 143.428 251.175 143.428 249.134C143.428 247.093 143.49 245.437 143.569 245.437C143.646 245.437 143.71 247.092 143.71 249.134C143.71 251.176 143.647 252.831 143.569 252.831Z" fill="white"/>
<path d="M145.53 252.831C145.452 252.831 145.389 251.175 145.389 249.134C145.389 247.093 145.452 245.437 145.53 245.437C145.608 245.437 145.67 247.092 145.67 249.134C145.67 251.176 145.608 252.831 145.53 252.831Z" fill="white"/>
<path d="M147.49 252.831C147.413 252.831 147.349 251.175 147.349 249.134C147.349 247.093 147.412 245.437 147.49 245.437C147.569 245.437 147.632 247.092 147.632 249.134C147.632 251.176 147.568 252.831 147.49 252.831Z" fill="white"/>
<path d="M149.45 252.831C149.372 252.831 149.309 251.175 149.309 249.134C149.309 247.093 149.372 245.437 149.45 245.437C149.528 245.437 149.592 247.092 149.592 249.134C149.592 251.176 149.529 252.831 149.45 252.831Z" fill="white"/>
<path d="M151.411 252.831C151.333 252.831 151.27 251.175 151.27 249.134C151.27 247.093 151.333 245.437 151.411 245.437C151.489 245.437 151.552 247.092 151.552 249.134C151.552 251.176 151.489 252.831 151.411 252.831Z" fill="white"/>
<path d="M153.372 252.831C153.294 252.831 153.23 251.175 153.23 249.134C153.23 247.093 153.293 245.437 153.372 245.437C153.45 245.437 153.513 247.092 153.513 249.134C153.513 251.176 153.45 252.831 153.372 252.831Z" fill="white"/>
<path d="M155.333 252.831C155.255 252.831 155.191 251.175 155.191 249.134C155.191 247.093 155.254 245.437 155.333 245.437C155.411 245.437 155.474 247.092 155.474 249.134C155.473 251.176 155.41 252.831 155.333 252.831Z" fill="white"/>
<path d="M157.293 252.831C157.215 252.831 157.151 251.175 157.151 249.134C157.151 247.093 157.214 245.437 157.293 245.437C157.371 245.437 157.434 247.092 157.434 249.134C157.434 251.176 157.371 252.831 157.293 252.831Z" fill="white"/>
<path d="M159.254 252.831C159.176 252.831 159.113 251.175 159.113 249.134C159.113 247.093 159.176 245.437 159.254 245.437C159.331 245.437 159.395 247.092 159.395 249.134C159.394 251.176 159.331 252.831 159.254 252.831Z" fill="white"/>
<path d="M161.462 252.831C161.385 252.831 161.321 251.175 161.321 249.134C161.321 247.093 161.384 245.437 161.462 245.437C161.54 245.437 161.603 247.092 161.603 249.134C161.603 251.176 161.54 252.831 161.462 252.831Z" fill="white"/>
<path d="M163.671 252.831C163.593 252.831 163.53 251.175 163.53 249.134C163.53 247.093 163.593 245.437 163.671 245.437C163.749 245.437 163.812 247.092 163.812 249.134C163.812 251.176 163.749 252.831 163.671 252.831Z" fill="white"/>
<path d="M241.812 242.562H206.427V245.438H241.812V242.562Z" fill="white"/>
<path d="M214.699 253.373C214.62 253.373 214.557 251.616 214.557 249.448C214.557 247.28 214.62 245.522 214.699 245.522C214.776 245.522 214.84 247.28 214.84 249.448C214.84 251.616 214.776 253.373 214.699 253.373Z" fill="white"/>
<path d="M212.566 253.331C212.489 253.331 212.425 251.573 212.425 249.405C212.425 247.237 212.488 245.48 212.566 245.48C212.644 245.48 212.708 247.237 212.708 249.405C212.708 251.573 212.644 253.331 212.566 253.331Z" fill="white"/>
<path d="M210.434 253.288C210.355 253.288 210.292 251.53 210.292 249.362C210.292 247.195 210.355 245.437 210.434 245.437C210.511 245.437 210.575 247.195 210.575 249.362C210.575 251.53 210.512 253.288 210.434 253.288Z" fill="white"/>
<path d="M208.147 253.288C208.069 253.288 208.006 251.53 208.006 249.362C208.006 247.195 208.069 245.437 208.147 245.437C208.225 245.437 208.289 247.195 208.289 249.362C208.289 251.53 208.226 253.288 208.147 253.288Z" fill="white"/>
<path d="M216.659 253.373C216.581 253.373 216.517 251.616 216.517 249.448C216.517 247.28 216.58 245.522 216.659 245.522C216.736 245.522 216.8 247.28 216.8 249.448C216.8 251.616 216.737 253.373 216.659 253.373Z" fill="white"/>
<path d="M218.62 253.373C218.542 253.373 218.479 251.616 218.479 249.448C218.479 247.28 218.542 245.522 218.62 245.522C218.697 245.522 218.761 247.28 218.761 249.448C218.76 251.616 218.697 253.373 218.62 253.373Z" fill="white"/>
<path d="M220.58 253.373C220.503 253.373 220.439 251.616 220.439 249.448C220.439 247.28 220.502 245.522 220.58 245.522C220.658 245.522 220.722 247.28 220.722 249.448C220.722 251.616 220.659 253.373 220.58 253.373Z" fill="white"/>
<path d="M222.541 253.373C222.464 253.373 222.4 251.616 222.4 249.448C222.4 247.28 222.463 245.522 222.541 245.522C222.619 245.522 222.683 247.28 222.683 249.448C222.682 251.616 222.619 253.373 222.541 253.373Z" fill="white"/>
<path d="M224.501 253.373C224.424 253.373 224.36 251.616 224.36 249.448C224.36 247.28 224.423 245.522 224.501 245.522C224.58 245.522 224.643 247.28 224.643 249.448C224.643 251.616 224.58 253.373 224.501 253.373Z" fill="white"/>
<path d="M226.463 253.373C226.385 253.373 226.321 251.616 226.321 249.448C226.321 247.28 226.384 245.522 226.463 245.522C226.54 245.522 226.604 247.28 226.604 249.448C226.603 251.616 226.54 253.373 226.463 253.373Z" fill="white"/>
<path d="M228.423 253.373C228.345 253.373 228.281 251.616 228.281 249.448C228.281 247.28 228.344 245.522 228.423 245.522C228.5 245.522 228.564 247.28 228.564 249.448C228.564 251.616 228.5 253.373 228.423 253.373Z" fill="white"/>
<path d="M230.383 253.373C230.304 253.373 230.241 251.616 230.241 249.448C230.241 247.28 230.304 245.522 230.383 245.522C230.46 245.522 230.524 247.28 230.524 249.448C230.524 251.616 230.461 253.373 230.383 253.373Z" fill="white"/>
<path d="M232.344 253.373C232.265 253.373 232.203 251.616 232.203 249.448C232.203 247.28 232.265 245.522 232.344 245.522C232.421 245.522 232.484 247.28 232.484 249.448C232.484 251.616 232.421 253.373 232.344 253.373Z" fill="white"/>
<path d="M234.304 253.373C234.227 253.373 234.163 251.616 234.163 249.448C234.163 247.28 234.226 245.522 234.304 245.522C234.382 245.522 234.445 247.28 234.445 249.448C234.445 251.616 234.382 253.373 234.304 253.373Z" fill="white"/>
<path d="M236.265 253.373C236.188 253.373 236.124 251.616 236.124 249.448C236.124 247.28 236.187 245.522 236.265 245.522C236.344 245.522 236.407 247.28 236.407 249.448C236.406 251.616 236.343 253.373 236.265 253.373Z" fill="white"/>
<path d="M238.225 253.373C238.148 253.373 238.084 251.616 238.084 249.448C238.084 247.28 238.147 245.522 238.225 245.522C238.303 245.522 238.367 247.28 238.367 249.448C238.367 251.616 238.304 253.373 238.225 253.373Z" fill="white"/>
<path d="M240.186 253.373C240.108 253.373 240.045 251.616 240.045 249.448C240.045 247.28 240.108 245.522 240.186 245.522C240.264 245.522 240.328 247.28 240.328 249.448C240.327 251.616 240.264 253.373 240.186 253.373Z" fill="white"/>
<path d="M149.064 225.371H138.074V233.19H149.064V225.371Z" fill="white"/>
<path d="M147.49 226.935H139.648V231.626H147.49V226.935Z" fill="#E0E0E0"/>
<path d="M235.89 225.371H224.9V233.19H235.89V225.371Z" fill="white"/>
<path d="M234.317 226.935H226.474V231.626H234.317V226.935Z" fill="#E0E0E0"/>
<path d="M186.208 220.167H166.273V253.342H186.208V220.167Z" fill="white"/>
<path d="M168.329 222.449C168.329 222.619 168.555 249.399 168.555 249.399L175.208 235.925L168.329 222.449Z" fill="#E0E0E0"/>
<path d="M184.485 222.449C184.485 222.619 184.259 249.399 184.259 249.399L177.606 235.925L184.485 222.449Z" fill="#E0E0E0"/>
<path d="M169.796 220.167L176.505 233.635L183.44 220.167H169.796Z" fill="#E0E0E0"/>
<path d="M183.063 251.715L176.353 238.729L169.796 251.715H183.063Z" fill="#E0E0E0"/>
<path d="M166.273 253.726C166.195 253.726 166.132 246.265 166.132 237.064C166.132 227.86 166.195 220.401 166.273 220.401C166.351 220.401 166.415 227.86 166.415 237.064C166.415 246.265 166.352 253.726 166.273 253.726Z" fill="#E0E0E0"/>
<path d="M241.811 191.265C241.811 191.343 216.72 191.406 185.774 191.406C154.817 191.406 129.731 191.343 129.731 191.265C129.731 191.187 154.817 191.123 185.774 191.123C216.72 191.123 241.811 191.186 241.811 191.265Z" fill="#E0E0E0"/>
<path d="M241.811 185.126C241.811 185.204 216.72 185.268 185.774 185.268C154.817 185.268 129.731 185.205 129.731 185.126C129.731 185.049 154.817 184.985 185.774 184.985C216.72 184.986 241.811 185.049 241.811 185.126Z" fill="#E0E0E0"/>
<path d="M241.811 178.989C241.811 179.067 216.72 179.131 185.774 179.131C154.817 179.131 129.731 179.068 129.731 178.989C129.731 178.911 154.817 178.848 185.774 178.848C216.72 178.848 241.811 178.911 241.811 178.989Z" fill="#E0E0E0"/>
<path d="M239.263 172.851C239.263 172.93 215.211 172.993 185.548 172.993C155.875 172.993 131.827 172.93 131.827 172.851C131.827 172.774 155.874 172.711 185.548 172.711C215.211 172.711 239.263 172.774 239.263 172.851Z" fill="#E0E0E0"/>
<path d="M234.318 166.714C234.318 166.792 212.696 166.856 186.031 166.856C159.356 166.856 137.739 166.793 137.739 166.714C137.739 166.636 159.356 166.572 186.031 166.572C212.695 166.572 234.318 166.636 234.318 166.714Z" fill="#E0E0E0"/>
<path d="M232.333 160.576C232.333 160.655 211.156 160.718 185.038 160.718C158.911 160.718 137.738 160.655 137.738 160.576C137.738 160.498 158.911 160.434 185.038 160.434C211.155 160.434 232.333 160.498 232.333 160.576Z" fill="#E0E0E0"/>
<path d="M226.892 154.438C226.892 154.516 207.844 154.58 184.352 154.58C160.853 154.58 141.809 154.516 141.809 154.438C141.809 154.36 160.853 154.296 184.352 154.296C207.843 154.297 226.892 154.36 226.892 154.438Z" fill="#E0E0E0"/>
<path d="M225.383 148.301C225.383 148.379 207.223 148.442 184.827 148.442C162.424 148.442 144.267 148.379 144.267 148.301C144.267 148.223 162.423 148.16 184.827 148.16C207.223 148.159 225.383 148.223 225.383 148.301Z" fill="#E0E0E0"/>
<path d="M215.656 142.163C215.656 142.24 201.937 142.304 185.019 142.304C168.094 142.304 154.379 142.241 154.379 142.163C154.379 142.084 168.094 142.021 185.019 142.021C201.937 142.022 215.656 142.085 215.656 142.163Z" fill="#E0E0E0"/>
<path d="M203.681 136.026C203.681 136.035 203.537 136.045 203.264 136.054C202.965 136.06 202.568 136.069 202.071 136.08C201.005 136.091 199.513 136.106 197.684 136.124C193.954 136.135 188.849 136.15 183.21 136.166C177.568 136.15 172.464 136.135 168.733 136.124C166.904 136.106 165.412 136.091 164.346 136.08C163.849 136.069 163.453 136.06 163.153 136.054C162.88 136.045 162.737 136.035 162.737 136.026C162.737 136.016 162.881 136.006 163.153 135.997C163.452 135.991 163.849 135.982 164.346 135.971C165.412 135.96 166.903 135.945 168.733 135.927C172.464 135.916 177.568 135.901 183.21 135.885C188.849 135.901 193.953 135.916 197.684 135.927C199.513 135.945 201.005 135.96 202.071 135.971C202.568 135.982 202.964 135.991 203.264 135.997C203.537 136.006 203.681 136.016 203.681 136.026Z" fill="#E0E0E0"/>
<path d="M194.101 129.887C194.101 129.966 189.721 130.029 184.32 130.029C178.917 130.029 174.539 129.966 174.539 129.887C174.539 129.81 178.917 129.746 184.32 129.746C189.721 129.747 194.101 129.81 194.101 129.887Z" fill="#E0E0E0"/>
<path d="M245.313 181.531L223.363 144.933L183.119 123.275L144.969 146.174L125.97 182.269L129.222 183.572V182.846L148.052 147.761L183.065 126.87L221.553 147.225L241.063 181.239V181.965L245.313 181.531Z" fill="#F5F5F5"/>
<path d="M245.312 181.531C245.107 181.553 243.856 181.69 241.066 181.996L241.032 182V181.966C241.031 181.745 241.03 181.498 241.029 181.24L241.033 181.256C237.721 175.502 230.884 163.628 221.469 147.273L221.507 147.309C210.674 141.588 197.6 134.685 183.006 126.98L183.126 126.977C172.432 133.363 160.602 140.426 148.121 147.879L148.171 147.826C142.206 158.943 135.872 170.749 129.345 182.914L129.362 182.847C129.362 183.075 129.362 183.324 129.362 183.573V183.781L129.168 183.704C128.142 183.292 127.031 182.848 125.916 182.401L125.771 182.343L125.844 182.204C125.923 182.055 126.009 181.892 126.094 181.73C132.559 169.451 138.846 157.508 144.846 146.111L144.864 146.077L144.897 146.058C158.492 137.903 171.307 130.216 183.054 123.171L183.114 123.135L183.175 123.168C198.561 131.462 212.149 138.785 223.404 144.853L223.426 144.864L223.439 144.886C237.154 167.861 244.952 180.925 245.312 181.531C244.949 180.928 237.095 167.897 223.283 144.981L223.318 145.015C212.055 138.963 198.458 131.657 183.059 123.384L183.181 123.381C171.439 130.435 158.628 138.13 145.039 146.294L145.089 146.24C139.091 157.638 132.807 169.582 126.344 181.862C126.259 182.025 126.173 182.187 126.094 182.336L126.022 182.139C127.135 182.586 128.247 183.03 129.274 183.442L129.081 183.573C129.081 183.324 129.081 183.075 129.081 182.847V182.811L129.097 182.78C135.627 170.617 141.964 158.813 147.931 147.697L147.949 147.664L147.981 147.645C160.467 140.2 172.303 133.144 183.001 126.766L183.06 126.731L183.121 126.763C197.704 134.488 210.769 141.409 221.595 147.144L221.619 147.157L221.633 147.18C230.998 163.564 237.796 175.46 241.091 181.224L241.096 181.232V181.241C241.095 181.499 241.094 181.746 241.094 181.967L241.06 181.937C243.855 181.669 245.107 181.55 245.312 181.531Z" fill="#E0E0E0"/>
<path d="M193.716 178.832H175.667V181.935H193.716V178.832Z" fill="#EBEBEB"/>
<path d="M192.158 152.033H177.246V180.383H192.158V152.033Z" fill="#EBEBEB"/>
<path d="M190.702 153.424H178.701V178.866H190.702V153.424Z" fill="white"/>
<path d="M190.701 178.761C190.705 178.765 190.637 178.768 190.499 178.772C190.346 178.775 190.143 178.779 189.884 178.784C189.32 178.789 188.52 178.798 187.496 178.81C185.388 178.823 182.367 178.842 178.646 178.865L178.543 178.866V178.761C178.533 172.187 178.519 163.328 178.506 153.596C178.38 153.721 178.677 153.422 178.648 153.453H178.651H178.657H178.669H178.695H178.744H178.844H179.042H179.439H180.23C180.754 153.453 181.276 153.453 181.796 153.453C182.834 153.454 183.858 153.454 184.867 153.454C186.883 153.456 188.836 153.458 190.702 153.46H190.836L190.835 153.594C190.809 160.939 190.787 167.241 190.771 171.726C190.756 173.934 190.743 175.695 190.734 176.922C190.728 177.509 190.722 177.968 190.718 178.297C190.715 178.441 190.712 178.557 190.71 178.648C190.707 178.725 190.704 178.763 190.701 178.761C190.699 178.758 190.696 178.715 190.694 178.632C190.692 178.537 190.689 178.417 190.686 178.266C190.682 177.931 190.676 177.463 190.669 176.863C190.661 175.629 190.648 173.859 190.633 171.636C190.617 167.174 190.595 160.903 190.569 153.594L190.702 153.728C188.836 153.729 186.883 153.731 184.867 153.733C183.858 153.734 182.834 153.734 181.796 153.735C181.276 153.735 180.754 153.735 180.23 153.735H179.439H179.042H178.844H178.744H178.695H178.669H178.657H178.651H178.648C178.616 153.765 178.913 153.468 178.788 153.596C178.773 163.328 178.76 172.187 178.751 178.761L178.647 178.657C182.342 178.681 185.34 178.7 187.433 178.713C188.466 178.724 189.276 178.733 189.844 178.739C190.111 178.744 190.321 178.748 190.479 178.751C190.623 178.754 190.699 178.757 190.701 178.761Z" fill="#E0E0E0"/>
<path d="M192.158 165.358H177.246V166.735H192.158V165.358Z" fill="#E0E0E0"/>
<path d="M192.158 166.735C192.151 166.728 192.144 166.599 192.134 166.364C192.126 166.104 192.114 165.772 192.102 165.359L192.158 165.415C189.659 165.464 183.921 165.499 177.247 165.499H177.246C177.215 165.53 177.513 165.232 177.387 165.359V165.362V165.368V165.379V165.401V165.446V165.534V165.71C177.387 165.827 177.387 165.943 177.387 166.058C177.387 166.289 177.387 166.515 177.387 166.735L177.247 166.594C181.401 166.597 185.103 166.625 187.788 166.654C189.108 166.672 190.185 166.686 190.971 166.696C191.325 166.704 191.614 166.71 191.843 166.715C192.043 166.721 192.151 166.728 192.158 166.735C192.165 166.741 192.069 166.747 191.879 166.754C191.658 166.759 191.38 166.766 191.039 166.773C190.263 166.784 189.198 166.798 187.89 166.815C185.21 166.844 181.458 166.872 177.246 166.875H177.105V166.735C177.105 166.515 177.105 166.289 177.105 166.058C177.105 165.943 177.105 165.827 177.105 165.71V165.534V165.446V165.401V165.379V165.368V165.362V165.36C176.98 165.486 177.277 165.186 177.247 165.217C183.921 165.217 189.66 165.252 192.159 165.301L192.217 165.302L192.215 165.358C192.202 165.785 192.191 166.128 192.183 166.396C192.172 166.627 192.165 166.741 192.158 166.735Z" fill="#E0E0E0"/>
<path d="M193.216 178.832C193.216 178.91 189.268 178.974 184.4 178.974C179.529 178.974 175.583 178.911 175.583 178.832C175.583 178.755 179.529 178.691 184.4 178.691C189.267 178.691 193.216 178.755 193.216 178.832Z" fill="#E0E0E0"/>
<path d="M186.492 253.365H206.427V220.191H186.492V253.365Z" fill="white"/>
<path d="M204.37 222.472C204.37 222.642 204.145 249.423 204.145 249.423L197.491 235.948L204.37 222.472Z" fill="#E0E0E0"/>
<path d="M188.215 222.472C188.215 222.642 188.441 249.423 188.441 249.423L195.094 235.948L188.215 222.472Z" fill="#E0E0E0"/>
<path d="M202.905 220.192L196.196 233.66L189.261 220.192H202.905Z" fill="#E0E0E0"/>
<path d="M189.637 251.739L196.347 238.753L202.905 251.739H189.637Z" fill="#E0E0E0"/>
<path d="M206.475 253.306C206.397 253.306 206.333 245.882 206.333 236.725C206.333 227.566 206.396 220.143 206.475 220.143C206.553 220.143 206.616 227.565 206.616 236.725C206.615 245.882 206.552 253.306 206.475 253.306Z" fill="#E0E0E0"/>
<path d="M129.722 252.831C129.645 252.831 129.581 236.973 129.581 217.416C129.581 197.853 129.644 181.999 129.722 181.999C129.8 181.999 129.863 197.853 129.863 217.416C129.862 236.974 129.8 252.831 129.722 252.831Z" fill="#E0E0E0"/>
<path d="M241.747 252.831C241.669 252.831 241.605 236.924 241.605 217.308C241.605 197.684 241.668 181.78 241.747 181.78C241.824 181.78 241.888 197.683 241.888 217.308C241.888 236.924 241.825 252.831 241.747 252.831Z" fill="#E0E0E0"/>
<path d="M295.766 220.908C295.766 220.986 283.57 221.05 268.529 221.05C253.483 221.05 241.29 220.987 241.29 220.908C241.29 220.83 253.483 220.766 268.529 220.766C283.57 220.766 295.766 220.829 295.766 220.908Z" fill="#E0E0E0"/>
<path d="M295.766 226.271C295.766 226.349 283.57 226.412 268.529 226.412C253.483 226.412 241.29 226.349 241.29 226.271C241.29 226.193 253.483 226.13 268.529 226.13C283.57 226.13 295.766 226.193 295.766 226.271Z" fill="#E0E0E0"/>
<path d="M295.766 231.804C295.766 231.882 283.709 231.946 268.838 231.946C253.963 231.946 241.908 231.883 241.908 231.804C241.908 231.726 253.963 231.663 268.838 231.663C283.708 231.663 295.766 231.726 295.766 231.804Z" fill="#E0E0E0"/>
<path d="M295.766 237.337C295.766 237.415 283.686 237.479 268.791 237.479C253.889 237.479 241.812 237.415 241.812 237.337C241.812 237.259 253.889 237.195 268.791 237.195C283.686 237.196 295.766 237.259 295.766 237.337Z" fill="#E0E0E0"/>
<path d="M295.766 242.361C295.766 242.439 283.673 242.503 268.758 242.503C253.838 242.503 241.747 242.439 241.747 242.361C241.747 242.283 253.838 242.219 268.758 242.219C283.672 242.22 295.766 242.283 295.766 242.361Z" fill="#E0E0E0"/>
<path d="M295.766 247.724C295.766 247.803 283.686 247.866 268.791 247.866C253.889 247.866 241.812 247.803 241.812 247.724C241.812 247.647 253.889 247.583 268.791 247.583C283.686 247.583 295.766 247.647 295.766 247.724Z" fill="#E0E0E0"/>
<path d="M216.131 216.971H156.901V220.383H216.131V216.971Z" fill="white"/>
<path d="M216.242 220.383C216.242 220.462 202.979 220.525 186.621 220.525C170.258 220.525 156.997 220.462 156.997 220.383C156.997 220.305 170.258 220.241 186.621 220.241C202.979 220.241 216.242 220.304 216.242 220.383Z" fill="#E0E0E0"/>
<path d="M534.032 191.308H587.45L593.121 216.971H534.032V191.308Z" fill="#EBEBEB"/>
<path d="M588.462 216.778H534.032V253.069H588.462V216.778Z" fill="#EBEBEB"/>
<path d="M534.032 253.069V180.567L514.521 146.426L476.034 125.995L441.021 146.963L422.191 182.18V253.069H534.032Z" fill="#F5F5F5"/>
<path d="M534.282 204.139C534.282 204.218 509.189 204.281 478.244 204.281C447.288 204.281 422.201 204.218 422.201 204.139C422.201 204.062 447.288 203.998 478.244 203.998C509.189 203.998 534.282 204.062 534.282 204.139Z" fill="#E0E0E0"/>
<path d="M534.282 209.673C534.282 209.751 509.189 209.815 478.244 209.815C447.288 209.815 422.201 209.752 422.201 209.673C422.201 209.595 447.288 209.531 478.244 209.531C509.189 209.531 534.282 209.594 534.282 209.673Z" fill="#E0E0E0"/>
<path d="M534.282 215.206C534.282 215.283 509.187 215.347 478.239 215.347C447.28 215.347 422.191 215.284 422.191 215.206C422.191 215.128 447.28 215.064 478.239 215.064C509.187 215.064 534.282 215.127 534.282 215.206Z" fill="#E0E0E0"/>
<path d="M534.282 220.738C534.282 220.816 509.187 220.88 478.239 220.88C447.28 220.88 422.191 220.817 422.191 220.738C422.191 220.661 447.28 220.597 478.239 220.597C509.187 220.598 534.282 220.661 534.282 220.738Z" fill="#E0E0E0"/>
<path d="M534.282 226.271C534.282 226.349 509.189 226.412 478.244 226.412C447.288 226.412 422.201 226.349 422.201 226.271C422.201 226.193 447.288 226.13 478.244 226.13C509.189 226.13 534.282 226.193 534.282 226.271Z" fill="#E0E0E0"/>
<path d="M534.282 231.804C534.282 231.882 509.189 231.946 478.244 231.946C447.288 231.946 422.201 231.883 422.201 231.804C422.201 231.726 447.288 231.663 478.244 231.663C509.189 231.663 534.282 231.726 534.282 231.804Z" fill="#E0E0E0"/>
<path d="M534.282 237.337C534.282 237.415 509.189 237.479 478.244 237.479C447.288 237.479 422.201 237.415 422.201 237.337C422.201 237.259 447.288 237.195 478.244 237.195C509.189 237.196 534.282 237.259 534.282 237.337Z" fill="#E0E0E0"/>
<path d="M484.915 220.925H471.758V253.305H484.915V220.925Z" fill="#E0E0E0"/>
<path d="M458.743 242.562H422.191V245.438H458.743V242.562Z" fill="white"/>
<path d="M424.275 252.831C424.198 252.831 424.134 251.175 424.134 249.134C424.134 247.093 424.197 245.437 424.275 245.437C424.353 245.437 424.417 247.092 424.417 249.134C424.417 251.176 424.354 252.831 424.275 252.831Z" fill="white"/>
<path d="M426.236 252.831C426.159 252.831 426.095 251.175 426.095 249.134C426.095 247.093 426.158 245.437 426.236 245.437C426.314 245.437 426.378 247.092 426.378 249.134C426.377 251.176 426.314 252.831 426.236 252.831Z" fill="white"/>
<path d="M428.197 252.831C428.118 252.831 428.055 251.175 428.055 249.134C428.055 247.093 428.118 245.437 428.197 245.437C428.274 245.437 428.338 247.092 428.338 249.134C428.338 251.176 428.275 252.831 428.197 252.831Z" fill="white"/>
<path d="M430.158 252.831C430.08 252.831 430.016 251.175 430.016 249.134C430.016 247.093 430.079 245.437 430.158 245.437C430.235 245.437 430.299 247.092 430.299 249.134C430.298 251.176 430.235 252.831 430.158 252.831Z" fill="white"/>
<path d="M432.118 252.831C432.04 252.831 431.976 251.175 431.976 249.134C431.976 247.093 432.039 245.437 432.118 245.437C432.195 245.437 432.259 247.092 432.259 249.134C432.259 251.176 432.195 252.831 432.118 252.831Z" fill="white"/>
<path d="M434.078 252.831C433.999 252.831 433.937 251.175 433.937 249.134C433.937 247.093 433.999 245.437 434.078 245.437C434.155 245.437 434.219 247.092 434.219 249.134C434.219 251.176 434.156 252.831 434.078 252.831Z" fill="white"/>
<path d="M436.039 252.831C435.962 252.831 435.898 251.175 435.898 249.134C435.898 247.093 435.961 245.437 436.039 245.437C436.117 245.437 436.18 247.092 436.18 249.134C436.18 251.176 436.117 252.831 436.039 252.831Z" fill="white"/>
<path d="M437.999 252.831C437.921 252.831 437.858 251.175 437.858 249.134C437.858 247.093 437.921 245.437 437.999 245.437C438.077 245.437 438.141 247.092 438.141 249.134C438.141 251.176 438.078 252.831 437.999 252.831Z" fill="white"/>
<path d="M439.96 252.831C439.882 252.831 439.819 251.175 439.819 249.134C439.819 247.093 439.882 245.437 439.96 245.437C440.038 245.437 440.102 247.092 440.102 249.134C440.101 251.176 440.038 252.831 439.96 252.831Z" fill="white"/>
<path d="M441.92 252.831C441.843 252.831 441.779 251.175 441.779 249.134C441.779 247.093 441.842 245.437 441.92 245.437C441.999 245.437 442.062 247.092 442.062 249.134C442.062 251.176 441.999 252.831 441.92 252.831Z" fill="white"/>
<path d="M443.882 252.831C443.803 252.831 443.74 251.175 443.74 249.134C443.74 247.093 443.803 245.437 443.882 245.437C443.959 245.437 444.023 247.092 444.023 249.134C444.022 251.176 443.959 252.831 443.882 252.831Z" fill="white"/>
<path d="M445.842 252.831C445.764 252.831 445.7 251.175 445.7 249.134C445.7 247.093 445.763 245.437 445.842 245.437C445.919 245.437 445.983 247.092 445.983 249.134C445.983 251.176 445.919 252.831 445.842 252.831Z" fill="white"/>
<path d="M447.802 252.831C447.724 252.831 447.661 251.175 447.661 249.134C447.661 247.093 447.724 245.437 447.802 245.437C447.88 245.437 447.943 247.092 447.943 249.134C447.943 251.176 447.88 252.831 447.802 252.831Z" fill="white"/>
<path d="M449.763 252.831C449.686 252.831 449.622 251.175 449.622 249.134C449.622 247.093 449.685 245.437 449.763 245.437C449.84 245.437 449.904 247.092 449.904 249.134C449.904 251.176 449.84 252.831 449.763 252.831Z" fill="white"/>
<path d="M451.723 252.831C451.646 252.831 451.582 251.175 451.582 249.134C451.582 247.093 451.645 245.437 451.723 245.437C451.801 245.437 451.865 247.092 451.865 249.134C451.865 251.176 451.802 252.831 451.723 252.831Z" fill="white"/>
<path d="M453.932 252.831C453.854 252.831 453.791 251.175 453.791 249.134C453.791 247.093 453.854 245.437 453.932 245.437C454.01 245.437 454.073 247.092 454.073 249.134C454.074 251.176 454.01 252.831 453.932 252.831Z" fill="white"/>
<path d="M456.141 252.831C456.064 252.831 456 251.175 456 249.134C456 247.093 456.063 245.437 456.141 245.437C456.219 245.437 456.283 247.092 456.283 249.134C456.282 251.176 456.219 252.831 456.141 252.831Z" fill="white"/>
<path d="M534.282 242.562H498.896V245.438H534.282V242.562Z" fill="white"/>
<path d="M507.169 253.373C507.091 253.373 507.027 251.616 507.027 249.448C507.027 247.28 507.09 245.522 507.169 245.522C507.247 245.522 507.31 247.28 507.31 249.448C507.309 251.616 507.246 253.373 507.169 253.373Z" fill="white"/>
<path d="M505.036 253.331C504.959 253.331 504.895 251.573 504.895 249.405C504.895 247.237 504.958 245.48 505.036 245.48C505.115 245.48 505.178 247.237 505.178 249.405C505.177 251.573 505.114 253.331 505.036 253.331Z" fill="white"/>
<path d="M502.904 253.288C502.825 253.288 502.762 251.53 502.762 249.362C502.762 247.195 502.825 245.437 502.904 245.437C502.981 245.437 503.045 247.195 503.045 249.362C503.044 251.53 502.981 253.288 502.904 253.288Z" fill="white"/>
<path d="M500.617 253.288C500.539 253.288 500.476 251.53 500.476 249.362C500.476 247.195 500.539 245.437 500.617 245.437C500.695 245.437 500.759 247.195 500.759 249.362C500.759 251.53 500.696 253.288 500.617 253.288Z" fill="white"/>
<path d="M509.129 253.373C509.052 253.373 508.988 251.616 508.988 249.448C508.988 247.28 509.051 245.522 509.129 245.522C509.207 245.522 509.27 247.28 509.27 249.448C509.27 251.616 509.207 253.373 509.129 253.373Z" fill="white"/>
<path d="M511.09 253.373C511.013 253.373 510.949 251.616 510.949 249.448C510.949 247.28 511.012 245.522 511.09 245.522C511.168 245.522 511.231 247.28 511.231 249.448C511.231 251.616 511.168 253.373 511.09 253.373Z" fill="white"/>
<path d="M513.05 253.373C512.972 253.373 512.909 251.616 512.909 249.448C512.909 247.28 512.972 245.522 513.05 245.522C513.128 245.522 513.192 247.28 513.192 249.448C513.192 251.616 513.128 253.373 513.05 253.373Z" fill="white"/>
<path d="M515.01 253.373C514.933 253.373 514.869 251.616 514.869 249.448C514.869 247.28 514.932 245.522 515.01 245.522C515.088 245.522 515.152 247.28 515.152 249.448C515.152 251.616 515.089 253.373 515.01 253.373Z" fill="white"/>
<path d="M516.972 253.373C516.894 253.373 516.83 251.616 516.83 249.448C516.83 247.28 516.893 245.522 516.972 245.522C517.05 245.522 517.113 247.28 517.113 249.448C517.113 251.616 517.049 253.373 516.972 253.373Z" fill="white"/>
<path d="M518.932 253.373C518.853 253.373 518.79 251.616 518.79 249.448C518.79 247.28 518.853 245.522 518.932 245.522C519.009 245.522 519.073 247.28 519.073 249.448C519.073 251.616 519.01 253.373 518.932 253.373Z" fill="white"/>
<path d="M520.893 253.373C520.815 253.373 520.751 251.616 520.751 249.448C520.751 247.28 520.814 245.522 520.893 245.522C520.97 245.522 521.034 247.28 521.034 249.448C521.033 251.616 520.97 253.373 520.893 253.373Z" fill="white"/>
<path d="M522.853 253.373C522.774 253.373 522.712 251.616 522.712 249.448C522.712 247.28 522.774 245.522 522.853 245.522C522.93 245.522 522.994 247.28 522.994 249.448C522.994 251.616 522.931 253.373 522.853 253.373Z" fill="white"/>
<path d="M524.814 253.373C524.737 253.373 524.673 251.616 524.673 249.448C524.673 247.28 524.736 245.522 524.814 245.522C524.892 245.522 524.955 247.28 524.955 249.448C524.954 251.616 524.892 253.373 524.814 253.373Z" fill="white"/>
<path d="M526.774 253.373C526.697 253.373 526.633 251.616 526.633 249.448C526.633 247.28 526.696 245.522 526.774 245.522C526.852 245.522 526.916 247.28 526.916 249.448C526.916 251.616 526.853 253.373 526.774 253.373Z" fill="white"/>
<path d="M528.735 253.373C528.658 253.373 528.594 251.616 528.594 249.448C528.594 247.28 528.657 245.522 528.735 245.522C528.813 245.522 528.877 247.28 528.877 249.448C528.876 251.616 528.813 253.373 528.735 253.373Z" fill="white"/>
<path d="M530.695 253.373C530.618 253.373 530.554 251.616 530.554 249.448C530.554 247.28 530.617 245.522 530.695 245.522C530.773 245.522 530.837 247.28 530.837 249.448C530.837 251.616 530.773 253.373 530.695 253.373Z" fill="white"/>
<path d="M532.656 253.373C532.577 253.373 532.514 251.616 532.514 249.448C532.514 247.28 532.577 245.522 532.656 245.522C532.733 245.522 532.797 247.28 532.797 249.448C532.797 251.616 532.734 253.373 532.656 253.373Z" fill="white"/>
<path d="M441.534 225.371H430.544V233.19H441.534V225.371Z" fill="white"/>
<path d="M439.96 226.935H432.118V231.626H439.96V226.935Z" fill="#E0E0E0"/>
<path d="M528.359 225.371H517.37V233.19H528.359V225.371Z" fill="white"/>
<path d="M526.786 226.935H518.943V231.626H526.786V226.935Z" fill="#E0E0E0"/>
<path d="M478.678 220.167H458.744V253.342H478.678V220.167Z" fill="white"/>
<path d="M460.8 222.449C460.8 222.619 461.025 249.399 461.025 249.399L467.678 235.925L460.8 222.449Z" fill="#E0E0E0"/>
<path d="M476.954 222.449C476.954 222.619 476.729 249.399 476.729 249.399L470.075 235.925L476.954 222.449Z" fill="#E0E0E0"/>
<path d="M462.266 220.167L468.975 233.635L475.91 220.167H462.266Z" fill="#E0E0E0"/>
<path d="M475.533 251.715L468.823 238.729L462.266 251.715H475.533Z" fill="#E0E0E0"/>
<path d="M458.743 253.726C458.666 253.726 458.602 246.265 458.602 237.064C458.602 227.86 458.665 220.401 458.743 220.401C458.821 220.401 458.885 227.86 458.885 237.064C458.885 246.265 458.821 253.726 458.743 253.726Z" fill="#E0E0E0"/>
<path d="M534.282 191.265C534.282 191.343 509.189 191.406 478.244 191.406C447.288 191.406 422.201 191.343 422.201 191.265C422.201 191.187 447.288 191.123 478.244 191.123C509.189 191.123 534.282 191.186 534.282 191.265Z" fill="#E0E0E0"/>
<path d="M534.282 197.601C534.282 197.678 509.189 197.742 478.244 197.742C447.288 197.742 422.201 197.679 422.201 197.601C422.201 197.523 447.288 197.459 478.244 197.459C509.189 197.46 534.282 197.523 534.282 197.601Z" fill="#E0E0E0"/>
<path d="M534.282 185.126C534.282 185.204 509.189 185.268 478.244 185.268C447.288 185.268 422.201 185.205 422.201 185.126C422.201 185.049 447.288 184.985 478.244 184.985C509.189 184.986 534.282 185.049 534.282 185.126Z" fill="#E0E0E0"/>
<path d="M534.282 178.989C534.282 179.067 509.189 179.131 478.244 179.131C447.288 179.131 422.201 179.068 422.201 178.989C422.201 178.911 447.288 178.848 478.244 178.848C509.189 178.848 534.282 178.911 534.282 178.989Z" fill="#E0E0E0"/>
<path d="M531.734 172.851C531.734 172.93 507.681 172.993 478.018 172.993C448.345 172.993 424.298 172.93 424.298 172.851C424.298 172.774 448.344 172.711 478.018 172.711C507.681 172.711 531.734 172.774 531.734 172.851Z" fill="#E0E0E0"/>
<path d="M526.787 166.714C526.787 166.792 505.165 166.856 478.5 166.856C451.825 166.856 430.208 166.793 430.208 166.714C430.208 166.636 451.825 166.572 478.5 166.572C505.165 166.572 526.787 166.636 526.787 166.714Z" fill="#E0E0E0"/>
<path d="M524.802 160.576C524.802 160.655 503.625 160.718 477.507 160.718C451.38 160.718 430.207 160.655 430.207 160.576C430.207 160.498 451.38 160.434 477.507 160.434C503.625 160.434 524.802 160.498 524.802 160.576Z" fill="#E0E0E0"/>
<path d="M519.361 154.438C519.361 154.516 500.313 154.58 476.822 154.58C453.322 154.58 434.279 154.516 434.279 154.438C434.279 154.36 453.322 154.296 476.822 154.296C500.313 154.297 519.361 154.36 519.361 154.438Z" fill="#E0E0E0"/>
<path d="M517.853 148.301C517.853 148.379 499.693 148.442 477.297 148.442C454.894 148.442 436.737 148.379 436.737 148.301C436.737 148.223 454.893 148.16 477.297 148.16C499.692 148.159 517.853 148.223 517.853 148.301Z" fill="#E0E0E0"/>
<path d="M508.126 142.163C508.126 142.24 494.408 142.304 477.489 142.304C460.564 142.304 446.849 142.241 446.849 142.163C446.849 142.084 460.564 142.021 477.489 142.021C494.408 142.022 508.126 142.085 508.126 142.163Z" fill="#E0E0E0"/>
<path d="M496.151 136.026C496.151 136.035 496.008 136.045 495.734 136.054C495.435 136.06 495.038 136.069 494.541 136.08C493.475 136.091 491.984 136.106 490.154 136.124C486.424 136.135 481.319 136.15 475.68 136.166C470.039 136.15 464.934 136.135 461.203 136.124C459.374 136.106 457.883 136.091 456.816 136.08C456.319 136.069 455.923 136.06 455.623 136.054C455.351 136.045 455.208 136.035 455.208 136.026C455.208 136.016 455.351 136.006 455.623 135.997C455.922 135.991 456.319 135.982 456.816 135.971C457.883 135.96 459.373 135.945 461.203 135.927C464.935 135.916 470.039 135.901 475.68 135.885C481.319 135.901 486.423 135.916 490.154 135.927C491.984 135.945 493.475 135.96 494.541 135.971C495.038 135.982 495.434 135.991 495.734 135.997C496.008 136.006 496.151 136.016 496.151 136.026Z" fill="#E0E0E0"/>
<path d="M486.571 129.887C486.571 129.966 482.192 130.029 476.791 130.029C471.388 130.029 467.009 129.966 467.009 129.887C467.009 129.81 471.388 129.746 476.791 129.746C482.192 129.747 486.571 129.81 486.571 129.887Z" fill="#E0E0E0"/>
<path d="M537.783 181.531L515.833 144.933L475.589 123.275L437.44 146.174L418.44 182.269L421.693 183.572V182.846L440.522 147.761L475.535 126.87L514.022 147.225L533.533 181.239V181.965L537.783 181.531Z" fill="#F5F5F5"/>
<path d="M537.783 181.531C537.577 181.553 536.326 181.69 533.536 181.996L533.502 182V181.966C533.501 181.745 533.5 181.498 533.499 181.24L533.504 181.256C530.192 175.502 523.356 163.628 513.94 147.273L513.978 147.309C503.145 141.588 490.071 134.685 475.477 126.98L475.597 126.977C464.903 133.363 453.073 140.426 440.592 147.879L440.642 147.826C434.677 158.943 428.343 170.749 421.816 182.914L421.833 182.847C421.833 183.075 421.833 183.324 421.833 183.573V183.781L421.639 183.704C420.613 183.292 419.502 182.848 418.387 182.401L418.242 182.343L418.315 182.204C418.394 182.055 418.48 181.892 418.565 181.73C425.031 169.451 431.317 157.508 437.317 146.111L437.336 146.077L437.369 146.058C450.964 137.903 463.779 130.216 475.526 123.171L475.586 123.135L475.647 123.168C491.034 131.462 504.621 138.785 515.876 144.853L515.899 144.864L515.911 144.886C529.624 167.861 537.421 180.925 537.783 181.531C537.419 180.928 529.565 167.897 515.753 144.981L515.788 145.015C504.525 138.963 490.928 131.657 475.53 123.384L475.651 123.381C463.909 130.435 451.098 138.13 437.509 146.294L437.56 146.24C431.561 157.638 425.277 169.582 418.814 181.862C418.729 182.025 418.643 182.187 418.564 182.336L418.492 182.139C419.605 182.586 420.717 183.03 421.744 183.442L421.551 183.573C421.551 183.324 421.551 183.075 421.551 182.847V182.811L421.568 182.78C428.097 170.617 434.434 158.813 440.401 147.697L440.418 147.664L440.451 147.645C452.938 140.2 464.772 133.144 475.471 126.766L475.531 126.731L475.592 126.763C490.174 134.488 503.239 141.409 514.065 147.144L514.089 147.157L514.103 147.18C523.468 163.564 530.266 175.46 533.561 181.224L533.566 181.232V181.241C533.565 181.499 533.564 181.746 533.563 181.967L533.529 181.937C536.324 181.669 537.577 181.55 537.783 181.531Z" fill="#E0E0E0"/>
<path d="M486.186 178.832H468.137V181.935H486.186V178.832Z" fill="#EBEBEB"/>
<path d="M484.627 152.033H469.715V180.383H484.627V152.033Z" fill="#EBEBEB"/>
<path d="M483.173 153.424H471.172V178.866H483.173V153.424Z" fill="white"/>
<path d="M483.172 178.761C483.176 178.765 483.107 178.768 482.969 178.772C482.816 178.775 482.613 178.779 482.354 178.784C481.791 178.789 480.99 178.798 479.966 178.81C477.858 178.823 474.838 178.842 471.116 178.865L471.013 178.866V178.761C471.003 172.187 470.99 163.328 470.975 153.596C470.849 153.721 471.146 153.422 471.117 153.453H471.12H471.127H471.14H471.165H471.214H471.314H471.512H471.909H472.699C473.224 153.453 473.746 153.453 474.265 153.453C475.303 153.454 476.327 153.454 477.336 153.454C479.353 153.456 481.305 153.458 483.172 153.46H483.305V153.594C483.279 160.939 483.257 167.241 483.241 171.726C483.226 173.934 483.213 175.695 483.205 176.922C483.198 177.509 483.192 177.968 483.188 178.297C483.185 178.441 483.182 178.557 483.18 178.648C483.178 178.725 483.175 178.763 483.172 178.761C483.169 178.758 483.166 178.715 483.164 178.632C483.162 178.537 483.159 178.417 483.156 178.266C483.152 177.931 483.146 177.463 483.14 176.863C483.131 175.629 483.118 173.859 483.103 171.636C483.087 167.174 483.065 160.903 483.039 153.594L483.173 153.728C481.306 153.729 479.353 153.731 477.337 153.733C476.329 153.734 475.304 153.734 474.266 153.735C473.747 153.735 473.225 153.735 472.7 153.735H471.91H471.513H471.315H471.215H471.166H471.141H471.128H471.121H471.118C471.086 153.765 471.384 153.468 471.258 153.596C471.243 163.328 471.23 172.187 471.22 178.761L471.116 178.657C474.811 178.681 477.809 178.7 479.903 178.713C480.936 178.724 481.746 178.733 482.315 178.739C482.581 178.744 482.791 178.748 482.949 178.751C483.092 178.754 483.169 178.757 483.172 178.761Z" fill="#E0E0E0"/>
<path d="M484.627 165.358H469.715V166.735H484.627V165.358Z" fill="#E0E0E0"/>
<path d="M484.627 166.735C484.62 166.728 484.613 166.599 484.603 166.364C484.594 166.104 484.584 165.772 484.571 165.359L484.627 165.415C482.128 165.464 476.391 165.499 469.716 165.499H469.715C469.684 165.53 469.982 165.232 469.856 165.359V165.362V165.368V165.379V165.401V165.446V165.534V165.71C469.856 165.827 469.856 165.943 469.856 166.058C469.856 166.289 469.856 166.515 469.855 166.735L469.715 166.594C473.869 166.597 477.571 166.625 480.257 166.654C481.577 166.672 482.653 166.686 483.439 166.696C483.793 166.704 484.082 166.71 484.311 166.715C484.512 166.721 484.621 166.728 484.627 166.735C484.634 166.741 484.538 166.747 484.348 166.754C484.127 166.759 483.85 166.766 483.509 166.773C482.731 166.784 481.667 166.798 480.359 166.815C477.68 166.844 473.927 166.872 469.715 166.875H469.575V166.735C469.575 166.515 469.575 166.289 469.575 166.058C469.575 165.943 469.575 165.827 469.575 165.71V165.534V165.446V165.401V165.379V165.368V165.362V165.36C469.449 165.486 469.746 165.186 469.716 165.217C476.391 165.217 482.13 165.252 484.628 165.301L484.686 165.302L484.684 165.358C484.671 165.785 484.66 166.128 484.652 166.396C484.642 166.627 484.635 166.741 484.627 166.735Z" fill="#E0E0E0"/>
<path d="M485.685 178.832C485.685 178.91 481.737 178.974 476.869 178.974C471.999 178.974 468.052 178.911 468.052 178.832C468.052 178.755 471.999 178.691 476.869 178.691C481.737 178.691 485.685 178.755 485.685 178.832Z" fill="#E0E0E0"/>
<path d="M478.963 253.365H498.896V220.191H478.963V253.365Z" fill="white"/>
<path d="M496.84 222.472C496.84 222.642 496.615 249.423 496.615 249.423L489.961 235.948L496.84 222.472Z" fill="#E0E0E0"/>
<path d="M480.686 222.472C480.686 222.642 480.911 249.423 480.911 249.423L487.565 235.948L480.686 222.472Z" fill="#E0E0E0"/>
<path d="M495.374 220.192L488.665 233.66L481.73 220.192H495.374Z" fill="#E0E0E0"/>
<path d="M482.107 251.739L488.817 238.753L495.374 251.739H482.107Z" fill="#E0E0E0"/>
<path d="M498.944 253.306C498.866 253.306 498.802 245.882 498.802 236.725C498.802 227.566 498.865 220.143 498.944 220.143C499.021 220.143 499.085 227.565 499.085 236.725C499.085 245.882 499.022 253.306 498.944 253.306Z" fill="#E0E0E0"/>
<path d="M422.191 252.831C422.113 252.831 422.05 236.973 422.05 217.416C422.05 197.853 422.113 181.999 422.191 181.999C422.269 181.999 422.333 197.853 422.333 217.416C422.333 236.974 422.27 252.831 422.191 252.831Z" fill="#E0E0E0"/>
<path d="M534.217 252.831C534.138 252.831 534.075 236.924 534.075 217.308C534.075 197.684 534.138 181.78 534.217 181.78C534.294 181.78 534.358 197.683 534.358 217.308C534.358 236.924 534.295 252.831 534.217 252.831Z" fill="#E0E0E0"/>
<path d="M588.236 220.908C588.236 220.986 576.04 221.05 560.999 221.05C545.953 221.05 533.761 220.987 533.761 220.908C533.761 220.83 545.953 220.766 560.999 220.766C576.039 220.766 588.236 220.829 588.236 220.908Z" fill="#E0E0E0"/>
<path d="M588.236 226.271C588.236 226.349 576.04 226.412 560.999 226.412C545.953 226.412 533.761 226.349 533.761 226.271C533.761 226.193 545.953 226.13 560.999 226.13C576.039 226.13 588.236 226.193 588.236 226.271Z" fill="#E0E0E0"/>
<path d="M588.236 231.804C588.236 231.882 576.179 231.946 561.308 231.946C546.433 231.946 534.378 231.883 534.378 231.804C534.378 231.726 546.434 231.663 561.308 231.663C576.178 231.663 588.236 231.726 588.236 231.804Z" fill="#E0E0E0"/>
<path d="M588.236 237.337C588.236 237.415 576.156 237.479 561.261 237.479C546.359 237.479 534.283 237.415 534.283 237.337C534.283 237.259 546.359 237.195 561.261 237.195C576.156 237.196 588.236 237.259 588.236 237.337Z" fill="#E0E0E0"/>
<path d="M588.236 242.361C588.236 242.439 576.143 242.503 561.228 242.503C546.308 242.503 534.217 242.439 534.217 242.361C534.217 242.283 546.308 242.219 561.228 242.219C576.142 242.22 588.236 242.283 588.236 242.361Z" fill="#E0E0E0"/>
<path d="M588.236 247.724C588.236 247.803 576.156 247.866 561.261 247.866C546.359 247.866 534.283 247.803 534.283 247.724C534.283 247.647 546.359 247.583 561.261 247.583C576.156 247.583 588.236 247.647 588.236 247.724Z" fill="#E0E0E0"/>
<path d="M423.084 191.308H369.667L363.996 216.971H423.084V191.308Z" fill="#EBEBEB"/>
<path d="M423.084 216.778H368.654V253.069H423.084V216.778Z" fill="#EBEBEB"/>
<path d="M368.881 220.908C368.881 220.986 381.077 221.05 396.118 221.05C411.163 221.05 423.356 220.987 423.356 220.908C423.356 220.83 411.163 220.766 396.118 220.766C381.077 220.766 368.881 220.829 368.881 220.908Z" fill="#E0E0E0"/>
<path d="M368.881 226.271C368.881 226.349 381.077 226.412 396.118 226.412C411.163 226.412 423.356 226.349 423.356 226.271C423.356 226.193 411.163 226.13 396.118 226.13C381.077 226.13 368.881 226.193 368.881 226.271Z" fill="#E0E0E0"/>
<path d="M368.881 231.804C368.881 231.882 380.938 231.946 395.809 231.946C410.684 231.946 422.738 231.883 422.738 231.804C422.738 231.726 410.684 231.663 395.809 231.663C380.938 231.663 368.881 231.726 368.881 231.804Z" fill="#E0E0E0"/>
<path d="M368.881 237.337C368.881 237.415 380.96 237.479 395.857 237.479C410.759 237.479 422.835 237.415 422.835 237.337C422.835 237.259 410.759 237.195 395.857 237.195C380.96 237.196 368.881 237.259 368.881 237.337Z" fill="#E0E0E0"/>
<path d="M368.881 242.361C368.881 242.439 380.974 242.503 395.889 242.503C410.809 242.503 422.9 242.439 422.9 242.361C422.9 242.283 410.809 242.219 395.889 242.219C380.974 242.22 368.881 242.283 368.881 242.361Z" fill="#E0E0E0"/>
<path d="M368.881 247.724C368.881 247.803 380.96 247.866 395.857 247.866C410.759 247.866 422.835 247.803 422.835 247.724C422.835 247.647 410.759 247.583 395.857 247.583C380.96 247.583 368.881 247.647 368.881 247.724Z" fill="#E0E0E0"/>
<path d="M508.602 216.971H449.371V220.383H508.602V216.971Z" fill="white"/>
<path d="M508.712 220.383C508.712 220.462 495.448 220.525 479.091 220.525C462.728 220.525 449.467 220.462 449.467 220.383C449.467 220.305 462.728 220.241 479.091 220.241C495.449 220.241 508.712 220.304 508.712 220.383Z" fill="#E0E0E0"/>
<path d="M346.629 238.016H59.2827V241.336H346.629V238.016Z" fill="#E0E0E0"/>
<path d="M346.629 249.876H59.2827V253.196H346.629V249.876Z" fill="#E0E0E0"/>
<path d="M77.9263 235.563H73.5286V276.842H77.9263V235.563Z" fill="#E0E0E0"/>
<path d="M136.397 235.563H132V276.842H136.397V235.563Z" fill="#E0E0E0"/>
<path d="M199.191 235.563H194.794V276.842H199.191V235.563Z" fill="#E0E0E0"/>
<path d="M261.986 235.563H257.589V276.842H261.986V235.563Z" fill="#E0E0E0"/>
<path d="M324.781 235.563H320.384V276.842H324.781V235.563Z" fill="#E0E0E0"/>
<path d="M683 238.016H395.654V241.336H683V238.016Z" fill="#E0E0E0"/>
<path d="M683 249.876H395.654V253.196H683V249.876Z" fill="#E0E0E0"/>
<path d="M414.297 235.563H409.9V276.842H414.297V235.563Z" fill="#E0E0E0"/>
<path d="M472.768 235.563H468.371V276.842H472.768V235.563Z" fill="#E0E0E0"/>
<path d="M535.562 235.563H531.165V276.842H535.562V235.563Z" fill="#E0E0E0"/>
<path d="M598.357 235.563H593.961V276.842H598.357V235.563Z" fill="#E0E0E0"/>
<path d="M661.152 235.563H656.755V276.842H661.152V235.563Z" fill="#E0E0E0"/>
</svg>
