<svg width="80" height="85" viewBox="0 0 80 85" fill="none" xmlns="http://www.w3.org/2000/svg">
<path d="M69.3742 38.6689H2.43525V85H69.3742V38.6689Z" fill="#455A64"/>
<path d="M2.43525 28.9862L23.3207 36.0818H33.5415L53.0953 28.9862H2.43525Z" fill="#455A64"/>
<path d="M35.197 36.0819H21.2213V38.6689H35.197V36.0819Z" fill="#455A64"/>
<path d="M76.7039 0H51.9317C50.2422 0 48.8727 1.40641 48.8727 3.1413V12.9841C48.8727 14.7189 50.2422 16.1254 51.9317 16.1254H76.7039C78.3934 16.1254 79.763 14.7189 79.763 12.9841V3.1413C79.763 1.40641 78.3934 0 76.7039 0Z" fill="#455A64"/>
<path d="M74.9045 3.01811H53.8871C53.1252 3.01811 52.5075 3.65238 52.5075 4.43478V11.5181C52.5075 12.3005 53.1252 12.9348 53.8871 12.9348H74.9045C75.6664 12.9348 76.2841 12.3005 76.2841 11.5181V4.43478C76.2841 3.65238 75.6664 3.01811 74.9045 3.01811Z" fill="#263238"/>
<path d="M66.0753 16.1255H61.6846V38.6689H66.0753V16.1255Z" fill="#455A64"/>
<path d="M63.88 47.1195C64.7148 47.1195 65.3915 46.4356 65.3915 45.592C65.3915 44.7483 64.7148 44.0644 63.88 44.0644C63.0452 44.0644 62.3684 44.7483 62.3684 45.592C62.3684 46.4356 63.0452 47.1195 63.88 47.1195Z" fill="#E0E0E0"/>
<path d="M9.64496 45.5056C9.65212 45.817 9.56859 46.1236 9.40506 46.386C9.24153 46.6483 9.00544 46.8546 8.72705 46.9783C8.44866 47.1021 8.14065 47.1376 7.84245 47.0805C7.54425 47.0234 7.26943 46.8761 7.05322 46.6576C6.83701 46.4391 6.68924 46.1593 6.62884 45.854C6.56844 45.5488 6.59819 45.232 6.71422 44.9441C6.83025 44.6563 7.02728 44.4106 7.28013 44.2385C7.53297 44.0664 7.83012 43.9757 8.13346 43.9781C8.33038 43.9765 8.52566 44.0147 8.70819 44.0906C8.89073 44.1665 9.05694 44.2785 9.1973 44.4204C9.33766 44.5622 9.44942 44.7311 9.52624 44.9173C9.60305 45.1035 9.64339 45.3034 9.64496 45.5056Z" fill="#E0E0E0"/>
<path d="M69.4582 51.0616C69.4582 51.2464 54.4629 51.3819 35.9647 51.3819C17.4665 51.3819 2.47123 51.2464 2.47123 51.0616C2.47123 50.8768 17.4665 50.7413 35.9647 50.7413C54.4629 50.7413 69.4582 50.8891 69.4582 51.0616Z" fill="#263238"/>
<path d="M69.4582 38.6687C69.4582 38.8535 54.4629 39.0013 35.9647 39.0013C17.4665 39.0013 2.47123 38.8535 2.47123 38.6687C2.47123 38.4839 17.4665 38.3484 35.9647 38.3484C54.4629 38.3484 69.4582 38.4962 69.4582 38.6687Z" fill="#263238"/>
<path d="M54.4869 26.0914H0V28.9863H54.4869V26.0914Z" fill="#455A64"/>
<path d="M64.3958 80.2942C64.3868 80.1506 64.3868 80.0066 64.3958 79.863C64.3958 79.5551 64.3958 79.1609 64.3958 78.6311C64.3958 77.5348 64.3958 75.9949 64.3958 74.0239C64.3958 70.0203 64.3238 64.292 64.2758 57.2087L64.4917 57.4305L8.22941 57.529L8.54133 57.2087V63.1833C8.54133 65.1667 8.54133 67.1254 8.54133 69.0471V80.2572L8.24142 79.9493L48.5008 80.0971L60.2331 80.171H63.3881H64.2159H64.5038H64.2518H63.4601H60.365L48.7047 80.2572L8.24142 80.4051H7.94152V80.0971C7.94152 76.5 7.94152 72.7058 7.94152 68.887V57.0486L8.25339 56.7283L64.5158 56.8268H64.7317V57.0486C64.7317 64.1935 64.6477 69.971 64.6117 73.9993C64.6117 75.9456 64.6117 77.4732 64.6117 78.5572C64.6117 79.0377 64.6117 79.4319 64.6117 79.7891C64.6117 80.1464 64.3958 80.2942 64.3958 80.2942Z" fill="#263238"/>
<g opacity="0.3">
<path d="M0 28.9862H54.151C53.9111 28.9862 36.2646 31.45 25.8999 30.7108C18.0183 30.1688 0 28.9862 0 28.9862Z" fill="black"/>
</g>
</svg>
