<svg width="9" height="4" viewBox="0 0 9 4" fill="none" xmlns="http://www.w3.org/2000/svg">
<path d="M8.99999 3.4326C8.69904 2.92663 8.37152 2.43785 8.01889 1.96839C7.55098 1.45179 6.97837 1.0469 6.34148 0.782289C5.7046 0.51768 5.01893 0.399801 4.33285 0.436949C3.64676 0.474097 2.97697 0.665367 2.37072 0.997286C1.76447 1.3292 1.23654 1.7937 0.824133 2.35796C0.517477 2.85888 0.242204 3.37933 0 3.91619C0.0162954 3.29612 0.21717 2.69606 0.575584 2.19675C0.983441 1.55438 1.53422 1.02081 2.18245 0.640099C2.83069 0.259383 3.55781 0.0424452 4.30378 0.00716074C5.12988 -0.0382371 5.95363 0.13279 6.69766 0.504181C7.29629 0.809478 7.82301 1.24494 8.24125 1.78033C8.65849 2.23445 8.92423 2.81312 8.99999 3.4326Z" fill="#263238"/>
</svg>
