<svg width="559" height="119" viewBox="0 0 559 119" fill="none" xmlns="http://www.w3.org/2000/svg">
<path d="M50.921 87.8029C51.1534 86.6198 51.1552 85.4011 50.9263 84.2173C50.6974 83.0335 50.2423 81.908 49.5873 80.9058C48.2193 78.8774 46.1341 77.4777 43.7759 77.0049C43.5644 76.9254 43.3324 76.9254 43.1209 77.0049C42.847 77.1761 42.8232 77.5551 42.8351 77.8731C42.9441 80.215 43.7785 82.4601 45.2168 84.281C46.6855 86.1259 48.6805 87.4517 50.921 88.0719" fill="#455A64"/>
<path d="M37.4524 104.055C39.5126 108.946 42.6446 112.273 46.7173 112.615C47.5271 112.688 48.1701 112.175 48.9561 112.163C49.4042 112.289 49.833 112.478 50.2303 112.725C50.4437 112.829 50.6738 112.891 50.9091 112.908C55.1248 112.908 58.8521 110.084 61.5077 105.204C65.2113 98.3929 64.5325 90.8355 59.9954 88.3898C59.3991 88.0492 58.7732 87.7667 58.1257 87.546C57.3828 87.3004 56.6078 87.1726 55.8274 87.1669C54.0122 87.1942 52.2122 87.5119 50.4923 88.1085L50.2661 88.1819C46.5744 86.3231 43.5496 86.1641 40.5606 87.4482C35.8091 89.4537 34.4158 96.9499 37.4524 104.055Z" fill="#F06449"/>
<path d="M37.8216 96.9498C37.6291 96.4974 37.5201 96.0123 37.5001 95.519C37.4169 94.3299 37.6172 93.1378 38.0836 92.046C38.5662 90.9546 39.2924 89.9952 40.2033 89.2457C40.5442 88.913 40.9501 88.6587 41.3942 88.4997C41.3942 88.4997 40.9416 88.8176 40.2986 89.4169C39.4781 90.2071 38.8219 91.1597 38.3694 92.2173C37.934 93.269 37.7111 94.4006 37.7144 95.5435C37.8216 96.424 37.9288 96.9498 37.8216 96.9498Z" fill="#FAFAFA"/>
<path d="M38.5599 100.35C38.4766 100.35 38.3456 100.019 38.2622 99.5914C38.1789 99.1634 38.1908 98.7965 38.2622 98.7843C38.3337 98.772 38.4766 99.1022 38.5599 99.5302C38.6433 99.9582 38.6552 100.325 38.5599 100.35Z" fill="#FAFAFA"/>
<path d="M61.1148 76.8458C61.1148 76.9069 60.2335 77.2004 58.8879 77.9219C58.1018 78.346 57.3493 78.8326 56.6372 79.3772C55.7861 80.0519 54.9896 80.7962 54.2554 81.6028C53.5326 82.4291 52.8792 83.3168 52.3024 84.2565C51.8459 85.0396 51.4478 85.8572 51.1116 86.7022C50.5281 88.133 50.3375 89.0746 50.278 89.0502C50.2802 88.8266 50.3122 88.6044 50.3732 88.3898C50.4274 88.1295 50.495 87.8723 50.5757 87.6194C50.661 87.2782 50.7685 86.9431 50.8972 86.6166C51.2232 85.7669 51.6217 84.9485 52.0881 84.1708C53.2219 82.2243 54.734 80.5385 56.53 79.2182C57.2602 78.67 58.0375 78.1911 58.8521 77.7874C59.1624 77.6281 59.4803 77.4853 59.8048 77.3594C60.0446 77.2523 60.2913 77.1624 60.5432 77.0904C60.7225 76.9837 60.9147 76.9014 61.1148 76.8458Z" fill="#263238"/>
<path d="M30.2954 60.2636C30.5294 59.0799 30.5309 57.86 30.2999 56.6757C30.0688 55.4914 29.6098 54.3663 28.9497 53.3665C27.5864 51.3388 25.5051 49.9389 23.1503 49.4656C22.94 49.3792 22.7055 49.3792 22.4953 49.4656C22.2214 49.6368 22.1976 50.0159 22.2095 50.3338C22.3209 52.6715 23.1552 54.9118 24.5912 56.7294C26.0555 58.5571 28.0361 59.8732 30.2597 60.4959" fill="#455A64"/>
<path d="M16.7673 76.4912C18.8394 81.3827 21.9713 84.7089 26.044 85.0513C26.8538 85.1247 27.4969 84.6111 28.2709 84.5989C28.7228 84.7247 29.1556 84.914 29.5571 85.1614C29.7662 85.2648 29.9924 85.327 30.2239 85.3448C34.4515 85.3448 38.1789 82.5077 40.8345 77.6407C44.538 70.817 43.8593 63.2596 39.3221 60.7527C38.7247 60.418 38.0989 60.1397 37.4524 59.9212C36.7102 59.6715 35.9351 59.5395 35.1541 59.5298C33.3384 59.5623 31.5386 59.8841 29.8191 60.4837L29.5928 60.557C25.8892 58.686 22.8764 58.5393 19.8873 59.8111C15.1239 61.8778 13.7306 69.3373 16.7673 76.4912Z" fill="#F06449"/>
<path d="M17.196 69.4107C16.9862 68.9688 16.8762 68.4839 16.8744 67.9922C16.7913 66.803 16.9916 65.611 17.458 64.5192C17.9255 63.4183 18.6395 62.4462 19.542 61.6821C19.8863 61.3512 20.291 61.0935 20.7328 60.924C20.7328 60.924 20.2803 61.2541 19.6372 61.8533C18.8135 62.6359 18.1566 63.5852 17.708 64.6415C17.2603 65.6936 17.0369 66.8319 17.0531 67.98C17.1126 68.8237 17.2436 69.3985 17.196 69.4107Z" fill="#FAFAFA"/>
<path d="M17.8867 72.7737C17.8033 72.7737 17.6604 72.4557 17.5889 72.0277C17.5175 71.5997 17.577 71.2695 17.577 71.2695C17.577 71.2695 17.8033 71.5875 17.8748 72.0155C17.9462 72.4435 17.97 72.7615 17.8867 72.7737Z" fill="#FAFAFA"/>
<path d="M40.4415 49.2576C40.4415 49.3187 39.5483 49.6122 38.2027 50.3337C37.4157 50.7561 36.663 51.2428 35.952 51.789C34.2118 53.1227 32.7329 54.7824 31.5934 56.6805C31.1402 57.4656 30.7423 58.2829 30.4026 59.1262C29.831 60.5448 29.6285 61.4864 29.569 61.4742C29.5795 61.2505 29.6155 61.0289 29.6761 60.8138C29.72 60.5523 29.7837 60.2947 29.8667 60.0434C29.962 59.7499 30.0453 59.4075 30.2001 59.0406C30.5254 58.1906 30.9239 57.3721 31.391 56.5949C31.9682 55.6302 32.6299 54.7215 33.3678 53.8801C34.1202 53.0536 34.9454 52.3004 35.8329 51.63C36.5693 51.095 37.3458 50.6207 38.155 50.2114C38.5004 50.028 38.8338 49.9057 39.1077 49.7834C39.3522 49.6779 39.6027 49.588 39.858 49.5144C40.0396 49.4008 40.2361 49.3143 40.4415 49.2576Z" fill="#263238"/>
<path d="M77.5962 60.2636C77.8293 59.0805 77.8314 57.8617 77.6025 56.6778C77.3735 55.4939 76.918 54.3684 76.2625 53.3665C74.8972 51.3352 72.8108 49.9347 70.4511 49.4656C70.2409 49.3792 70.0063 49.3792 69.7961 49.4656C69.6813 49.574 69.5949 49.7104 69.545 49.8621C69.495 50.0139 69.4831 50.1761 69.5103 50.3338C69.6275 52.6703 70.4611 54.9089 71.892 56.7294C73.359 58.5541 75.3385 59.8695 77.5605 60.4959" fill="#455A64"/>
<path d="M64.08 76.4912C66.1402 81.3827 69.2721 84.7089 73.3449 85.0513C74.1546 85.1247 74.7977 84.6111 75.5837 84.5989C76.0317 84.7248 76.4606 84.9141 76.8579 85.1614C77.0712 85.2649 77.3013 85.3271 77.5367 85.3448C81.7523 85.3448 85.4797 82.5077 88.1472 77.6407C91.8389 70.817 91.1601 63.2596 86.6229 60.7527C86.0265 60.4158 85.4005 60.1374 84.7533 59.9212C84.0148 59.6725 83.2439 59.5405 82.4668 59.5298C80.6471 59.5612 78.8433 59.883 77.1199 60.4837L76.8936 60.557C73.202 58.686 70.1772 58.5393 67.1881 59.8111C62.4366 61.8778 61.0433 69.3373 64.08 76.4912Z" fill="#F06449"/>
<path d="M64.4968 69.4107C64.3008 68.9639 64.1915 68.482 64.1753 67.9922C64.1005 66.8035 64.3005 65.6135 64.7588 64.5192C65.2264 63.4183 65.9404 62.4462 66.8428 61.6821C67.1895 61.3544 67.5936 61.0971 68.0337 60.924C68.0337 60.924 67.5811 61.2541 66.95 61.8533C66.1222 62.6349 65.4613 63.5843 65.0089 64.6415C64.5722 65.6971 64.3493 66.833 64.3539 67.98C64.4254 68.8237 64.5563 69.3985 64.4968 69.4107Z" fill="#FAFAFA"/>
<path d="M65.2113 72.7736C65.1279 72.7736 64.997 72.4556 64.9136 72.0276C64.8302 71.5996 64.9136 71.2327 64.9136 71.2205C64.9136 71.2083 65.1279 71.5385 65.2113 71.9665C65.2947 72.3945 65.2828 72.7614 65.2113 72.7736Z" fill="#FAFAFA"/>
<path d="M87.7542 49.2576C87.7542 49.3187 86.8611 49.6122 85.5154 50.3337C84.7284 50.7561 83.9758 51.2428 83.2647 51.789C82.4108 52.4602 81.6141 53.2048 80.883 54.0146C80.1632 54.8391 79.51 55.7225 78.93 56.656C78.4761 57.4407 78.0781 58.2581 77.7391 59.1018C77.1556 60.5203 76.9651 61.4619 76.9055 61.4497C76.9077 61.2262 76.9398 61.004 77.0008 60.7893C77.0549 60.529 77.1225 60.2719 77.2032 60.0189C77.294 59.6794 77.4013 59.3447 77.5248 59.0162C77.8507 58.1665 78.2493 57.3481 78.7156 56.5704C79.2846 55.6031 79.9426 54.694 80.6805 53.8556C81.4091 53.0203 82.2103 52.2549 83.0742 51.5689C83.8279 51.0283 84.6246 50.5538 85.4559 50.1503C85.8012 49.9669 86.1228 49.8446 86.4086 49.7223C86.6497 49.6188 86.8962 49.529 87.1469 49.4533C87.3399 49.3604 87.5442 49.2946 87.7542 49.2576Z" fill="#263238"/>
<path d="M53.8267 60.5204C54.0601 59.3366 54.0612 58.117 53.8302 56.9327C53.5991 55.7485 53.1405 54.6234 52.481 53.6234C51.1177 51.5957 49.0364 50.1957 46.6816 49.7224C46.4703 49.6418 46.2379 49.6418 46.0266 49.7224C45.7527 49.8936 45.7289 50.2727 45.7408 50.5906C45.8523 52.9283 46.6866 55.1687 48.1225 56.9863C49.5837 58.8176 51.5655 60.1344 53.791 60.7527" fill="#455A64"/>
<path d="M40.2986 76.7724C42.3707 81.6639 45.5026 84.9901 49.5635 85.3325C50.3851 85.4059 51.0282 84.8923 51.8023 84.8801C52.2541 85.0059 52.6869 85.1952 53.0884 85.4426C53.2976 85.546 53.5238 85.6082 53.7553 85.626C57.9828 85.626 61.7102 82.8012 64.3658 77.9219C68.0694 71.0982 67.3906 63.553 62.8534 61.0461C62.2562 60.7078 61.6304 60.4253 60.9838 60.2024C60.2401 59.9585 59.4659 59.8267 58.6854 59.811C56.8703 59.8497 55.0714 60.1713 53.3504 60.7649L53.1241 60.8382C49.4205 58.9795 46.4077 58.8205 43.4186 60.1045C38.6552 62.1712 37.2619 69.6185 40.2986 76.7724Z" fill="#F06449"/>
<g opacity="0.3">
<path d="M40.2986 76.7724C42.3707 81.6639 45.5026 84.9901 49.5635 85.3325C50.3851 85.4059 51.0282 84.8923 51.8023 84.8801C52.2541 85.0059 52.6869 85.1952 53.0884 85.4426C53.2976 85.546 53.5238 85.6082 53.7553 85.626C57.9828 85.626 61.7102 82.8012 64.3658 77.9219C68.0694 71.0982 67.3906 63.553 62.8534 61.0461C62.2562 60.7078 61.6304 60.4253 60.9838 60.2024C60.2401 59.9585 59.4659 59.8267 58.6854 59.811C56.8703 59.8497 55.0714 60.1713 53.3504 60.7649L53.1241 60.8382C49.4205 58.9795 46.4077 58.8205 43.4186 60.1045C38.6552 62.1712 37.2619 69.6185 40.2986 76.7724Z" fill="black"/>
</g>
<path d="M40.7273 69.7042C40.5213 69.2565 40.4117 68.7685 40.4058 68.2734C40.3226 67.0843 40.5229 65.8922 40.9893 64.8004C41.4568 63.6995 42.1709 62.7275 43.0733 61.9634C43.4176 61.6324 43.8223 61.3747 44.2641 61.2052C44.2641 61.2663 43.8116 61.5353 43.1686 62.1346C42.3476 62.9196 41.6912 63.8684 41.2394 64.9227C40.7923 65.975 40.569 67.1132 40.5844 68.2612C40.6439 69.1417 40.7749 69.6797 40.7273 69.7042Z" fill="#FAFAFA"/>
<path d="M41.3942 73.067C41.3108 73.067 41.1679 72.7368 41.0965 72.3088C41.025 71.8808 41.025 71.5139 41.0965 71.5017C41.1679 71.4895 41.3227 71.8196 41.3942 72.2477C41.4656 72.6757 41.5014 73.0425 41.3942 73.067Z" fill="#FAFAFA"/>
<path d="M64.0205 49.5632C64.0205 49.6244 63.1273 49.9179 61.7816 50.6394C60.9972 51.0663 60.2449 51.5528 59.5309 52.0946C58.6797 52.7691 57.8832 53.5134 57.1492 54.3203C56.4257 55.1417 55.7723 56.0254 55.1962 56.9616C54.7382 57.744 54.3401 58.5617 54.0053 59.4074C53.4337 60.8259 53.2313 61.7798 53.1717 61.7554C53.1831 61.5318 53.2191 61.3103 53.2789 61.095C53.3228 60.8335 53.3865 60.5759 53.4695 60.3246C53.5647 60.0311 53.6481 59.6887 53.8029 59.3218C54.1282 58.4718 54.5267 57.6533 54.9938 56.8761C55.5369 55.9089 56.1668 54.9959 56.8753 54.149C57.5935 53.3077 58.3914 52.5417 59.257 51.8623C60.0114 51.3332 60.8081 50.8709 61.6387 50.4804C61.9841 50.297 62.3175 50.1747 62.5914 50.0524C62.8358 49.9469 63.0864 49.857 63.3417 49.7833C63.555 49.6733 63.7842 49.599 64.0205 49.5632Z" fill="#263238"/>
<path d="M74.5238 87.8029C74.7595 86.6199 74.763 85.4006 74.534 84.2163C74.305 83.032 73.8481 81.9065 73.19 80.9058C71.8248 78.8745 69.7383 77.474 67.3787 77.0049C67.1672 76.9254 66.9352 76.9254 66.7237 77.0049C66.6089 77.1133 66.5225 77.2497 66.4726 77.4014C66.4226 77.5532 66.4107 77.7154 66.4379 77.8731C66.5526 80.2138 67.3864 82.4571 68.8196 84.281C70.2841 86.106 72.2651 87.418 74.4881 88.0352" fill="#455A64"/>
<path d="M61.0076 104.055C63.0678 108.946 66.1997 112.273 70.2724 112.615C71.0822 112.688 71.7253 112.175 72.5113 112.163C72.9593 112.289 73.3882 112.478 73.7855 112.725C73.9988 112.829 74.2289 112.891 74.4643 112.909C78.6799 112.909 82.4073 110.084 85.0748 105.204C88.7665 98.3808 88.0877 90.8356 83.5505 88.3287C82.9573 87.9905 82.3355 87.7081 81.6928 87.4849C80.9494 87.2412 80.1747 87.1134 79.3944 87.1058C77.5752 87.1321 75.7712 87.4498 74.0475 88.0474L73.8212 88.1208C70.1295 86.262 67.1048 86.103 64.1157 87.3871C59.3642 89.4537 57.9709 96.95 61.0076 104.055Z" fill="#F06449"/>
<g opacity="0.3">
<path d="M61.0076 104.055C63.0678 108.946 66.1997 112.273 70.2724 112.615C71.0822 112.688 71.7253 112.175 72.5113 112.163C72.9593 112.289 73.3882 112.478 73.7855 112.725C73.9988 112.829 74.2289 112.891 74.4643 112.909C78.6799 112.909 82.4073 110.084 85.0748 105.204C88.7665 98.3808 88.0877 90.8356 83.5505 88.3287C82.9573 87.9905 82.3355 87.7081 81.6928 87.4849C80.9494 87.2412 80.1747 87.1134 79.3944 87.1058C77.5752 87.1321 75.7712 87.4498 74.0475 88.0474L73.8212 88.1208C70.1295 86.262 67.1048 86.103 64.1157 87.3871C59.3642 89.4537 57.9709 96.95 61.0076 104.055Z" fill="black"/>
</g>
<path d="M61.4244 96.9498C61.2319 96.4974 61.1228 96.0123 61.1029 95.519C61.015 94.3383 61.1985 93.1528 61.6387 92.0583C62.1063 90.9574 62.8203 89.9853 63.7227 89.2212C64.0636 88.8885 64.4696 88.6342 64.9136 88.4753C64.9136 88.4753 64.4611 88.7932 63.8299 89.3924C63.0044 90.1681 62.3468 91.1132 61.8996 92.1665C61.4524 93.2198 61.2256 94.3578 61.2339 95.5068C61.3529 96.424 61.4839 96.9498 61.4244 96.9498Z" fill="#FAFAFA"/>
<path d="M62.1151 100.35C62.0317 100.35 61.9007 100.019 61.8174 99.5914C61.734 99.1634 61.7578 98.7965 61.8174 98.7843C61.8769 98.772 62.0317 99.1022 62.1151 99.5302C62.1984 99.9582 62.2103 100.325 62.1151 100.35Z" fill="#FAFAFA"/>
<path d="M84.6818 76.8458C84.6818 76.9069 83.7887 77.2004 82.443 77.9219C81.6586 78.3489 80.9063 78.8353 80.1923 79.3772C79.3412 80.0519 78.5447 80.7962 77.8106 81.6028C77.0877 82.4291 76.4344 83.3168 75.8576 84.2565C75.401 85.0396 75.0029 85.8572 74.6667 86.7022C74.0832 88.133 73.8927 89.0746 73.8331 89.0502C73.8367 88.8258 73.8729 88.6032 73.9403 88.3898C73.9841 88.1283 74.0478 87.8707 74.1308 87.6194C74.2216 87.2798 74.3289 86.9451 74.4524 86.6166C74.7783 85.7669 75.1768 84.9485 75.6432 84.1708C76.7771 82.2243 78.2891 80.5385 80.0851 79.2182C80.817 78.6725 81.594 78.1938 82.4073 77.7874C82.7526 77.604 83.0742 77.4817 83.36 77.3594C83.6011 77.256 83.8476 77.1661 84.0983 77.0904C84.2814 76.9827 84.4776 76.9004 84.6818 76.8458Z" fill="#263238"/>
<path d="M27.4373 88.5366C27.6707 87.3515 27.673 86.1308 27.4441 84.9448C27.2151 83.7589 26.7595 82.6313 26.1036 81.6273C24.7356 79.5989 22.6504 78.1991 20.2922 77.7263C20.0807 77.6468 19.8487 77.6468 19.6372 77.7263C19.3633 77.8975 19.3395 78.2766 19.3514 78.5946C19.4604 80.9365 20.2948 83.1816 21.7331 85.0025C23.1976 86.8275 25.1786 88.1395 27.4016 88.7567" fill="#455A64"/>
<path d="M13.9211 104.776C15.9813 109.668 19.1132 112.994 23.186 113.337C23.9958 113.41 24.6388 112.896 25.4248 112.896C25.8742 113.012 26.3039 113.198 26.699 113.447C26.9103 113.556 27.1415 113.618 27.3778 113.63C31.5934 113.63 35.3208 110.805 37.9764 105.938C41.68 99.1145 41.0012 91.5571 36.464 89.0502C35.8678 88.7096 35.2419 88.4271 34.5944 88.2064C33.8501 87.9667 33.076 87.839 32.296 87.8273C30.4808 87.8546 28.6809 88.1723 26.961 88.7689L26.7347 88.8423C23.0431 86.9835 20.0183 86.8245 17.0293 88.1085C12.2777 90.1752 10.8844 97.6225 13.9211 104.776Z" fill="#F06449"/>
<g opacity="0.3">
<path d="M13.9211 104.776C15.9813 109.668 19.1132 112.994 23.186 113.337C23.9958 113.41 24.6388 112.896 25.4248 112.896C25.8742 113.012 26.3039 113.198 26.699 113.447C26.9103 113.556 27.1415 113.618 27.3778 113.63C31.5934 113.63 35.3208 110.805 37.9764 105.938C41.68 99.1145 41.0012 91.5571 36.464 89.0502C35.8678 88.7096 35.2419 88.4271 34.5944 88.2064C33.8501 87.9667 33.076 87.839 32.296 87.8273C30.4808 87.8546 28.6809 88.1723 26.961 88.7689L26.7347 88.8423C23.0431 86.9835 20.0183 86.8245 17.0293 88.1085C12.2777 90.1752 10.8844 97.6225 13.9211 104.776Z" fill="black"/>
</g>
<path d="M14.3379 97.7082C14.141 97.2573 14.0317 96.7713 14.0164 96.2774C13.9382 95.0852 14.1396 93.891 14.6038 92.7951C15.0679 91.6993 15.7812 90.7338 16.6839 89.9796C17.0266 89.6465 17.4318 89.3885 17.8748 89.2214C17.8748 89.2214 17.4222 89.5516 16.7792 90.1508C15.9558 90.9276 15.3004 91.8732 14.8553 92.9264C14.4101 93.9797 14.1852 95.1171 14.195 96.2652C14.2665 97.1457 14.3975 97.696 14.3379 97.7082Z" fill="#FAFAFA"/>
<path d="M15.0286 101.071C14.9452 101.071 14.8143 100.741 14.7309 100.313C14.6475 99.8848 14.6594 99.518 14.7309 99.5057C14.8023 99.4935 14.9452 99.8237 15.0286 100.252C15.112 100.68 15.1239 101.047 15.0286 101.071Z" fill="#FAFAFA"/>
<path d="M37.5834 77.5673C37.5834 77.6284 36.7022 77.9219 35.3565 78.6434C34.5541 79.0653 33.7856 79.5519 33.0582 80.0986C32.209 80.7578 31.4125 81.4857 30.6765 82.2754C29.9536 83.1016 29.3003 83.9894 28.7235 84.929C28.2669 85.7122 27.8688 86.5298 27.5326 87.3748C26.9491 88.8056 26.7585 89.7472 26.699 89.7349C26.7001 89.5073 26.7322 89.2809 26.7943 89.0623C26.8484 88.802 26.916 88.5449 26.9967 88.2919C27.0821 87.9507 27.1895 87.6157 27.3183 87.2892C27.6442 86.4395 28.0427 85.621 28.5091 84.8434C29.0813 83.8821 29.7391 82.9774 30.474 82.1409C31.2171 81.2908 32.0386 80.5168 32.9272 79.8296C33.6735 79.277 34.4713 78.8019 35.3089 78.4111C35.6167 78.2431 35.935 78.096 36.2616 77.9708C36.5013 77.8637 36.748 77.7738 36.9999 77.7018C37.1881 77.632 37.3842 77.5868 37.5834 77.5673Z" fill="#263238"/>
<path d="M104.891 74.1798H0V89.7838H104.891V74.1798Z" fill="#FF9B6A"/>
<path d="M104.891 102.771H0V118.375H104.891V102.771Z" fill="#FF9B6A"/>
<path d="M17.8748 66.3656H4.96587V117.983H17.8748V66.3656Z" fill="#FF9B6A"/>
<path d="M99.3294 66.3656H86.4205V117.983H99.3294V66.3656Z" fill="#FF9B6A"/>
<path d="M104.676 89.9427C104.676 90.1262 81.2879 90.2729 52.4453 90.2729C23.6028 90.2729 0.214357 90.1262 0.214357 89.9427C0.214357 89.7593 23.5909 89.6126 52.4453 89.6126C81.2998 89.6126 104.676 89.7715 104.676 89.9427Z" fill="#263238"/>
<path d="M104.676 102.771C104.676 102.942 81.2879 103.089 52.4453 103.089C23.6028 103.089 0.214357 102.942 0.214357 102.771C0.214357 102.6 23.5909 102.453 52.4453 102.453C81.2998 102.453 104.676 102.587 104.676 102.771Z" fill="#263238"/>
<path d="M104.676 74.0209C104.676 74.2043 81.2879 74.3388 52.4453 74.3388C23.6028 74.3388 0.214357 74.2043 0.214357 74.0209C0.214357 73.8374 23.5909 73.7151 52.4453 73.7151C81.2998 73.7151 104.676 73.8497 104.676 74.0209Z" fill="#263238"/>
<path d="M50.921 38.5208C51.1534 37.3377 51.1552 36.119 50.9263 34.9352C50.6974 33.7514 50.2423 32.6259 49.5873 31.6238C48.2193 29.5953 46.1341 28.1956 43.7759 27.7228C43.5644 27.6433 43.3324 27.6433 43.1209 27.7228C42.847 27.894 42.8232 28.2731 42.8351 28.5911C42.9441 30.933 43.7785 33.178 45.2168 34.9989C46.6855 36.8439 48.6805 38.1697 50.921 38.7899" fill="#455A64"/>
<path d="M37.4524 54.7729C39.5126 59.6644 42.6446 62.9906 46.7173 63.333C47.5271 63.4064 48.1701 62.8928 48.9561 62.8806C49.4042 63.0066 49.833 63.1959 50.2303 63.4431C50.4437 63.5466 50.6738 63.6088 50.9091 63.6265C55.1248 63.6265 58.8521 60.8017 61.5077 55.9224C65.2113 49.111 64.5325 41.5535 59.9954 39.0466C59.3991 38.7061 58.7732 38.4236 58.1257 38.2028C57.3815 37.9631 56.6073 37.8355 55.8274 37.8238C54.0122 37.8511 52.2122 38.1688 50.4923 38.7654L50.2661 38.8388C46.5744 36.98 43.5496 36.821 40.5606 38.105C35.8091 40.1717 34.4158 47.619 37.4524 54.7729Z" fill="#F06449"/>
<path d="M37.8216 47.7045C37.6269 47.2528 37.5178 46.7672 37.5001 46.2737C37.4203 45.0847 37.6204 43.8935 38.0836 42.8007C38.5614 41.6959 39.2879 40.7235 40.2033 39.9636C40.5442 39.6309 40.9501 39.3766 41.3942 39.2177C41.3942 39.2177 40.9417 39.5478 40.2986 40.147C39.4752 40.9238 38.8198 41.8694 38.3747 42.9227C37.9296 43.9759 37.7046 45.1133 37.7144 46.2614C37.8216 47.1419 37.9288 47.6922 37.8216 47.7045Z" fill="#FAFAFA"/>
<path d="M38.5599 51.0675C38.4766 51.0675 38.3456 50.7373 38.2622 50.3093C38.1789 49.8813 38.1908 49.5145 38.2622 49.5022C38.3337 49.49 38.4766 49.8202 38.5599 50.2482C38.6433 50.6762 38.6552 51.0431 38.5599 51.0675Z" fill="#FAFAFA"/>
<path d="M61.1148 27.5638C61.1148 27.6249 60.2335 27.9184 58.8879 28.6399C58.1018 29.064 57.3493 29.5505 56.6372 30.0951C55.7861 30.7698 54.9896 31.5141 54.2554 32.3208C53.5326 33.147 52.8792 34.0348 52.3024 34.9744C51.8459 35.7576 51.4478 36.5752 51.1116 37.4202C50.5281 38.8509 50.3375 39.7925 50.278 39.7681C50.2802 39.5445 50.3122 39.3224 50.3732 39.1078C50.4274 38.8475 50.495 38.5903 50.5757 38.3373C50.661 37.9961 50.7685 37.6611 50.8972 37.3346C51.2232 36.4849 51.6217 35.6664 52.0881 34.8888C53.2219 32.9423 54.734 31.2564 56.53 29.9362C57.2361 29.3791 57.9893 28.888 58.7807 28.4687C59.0909 28.3094 59.4089 28.1665 59.7334 28.0407C59.9731 27.9335 60.2198 27.8436 60.4717 27.7716C60.6754 27.6714 60.8919 27.6014 61.1148 27.5638Z" fill="#263238"/>
<path d="M30.2954 10.9569C30.536 9.76566 30.5409 8.53683 30.3097 7.34357C30.0786 6.15031 29.616 5.017 28.9497 4.01099C27.5864 1.9833 25.5051 0.583312 23.1503 0.110006C22.94 0.0235961 22.7055 0.0235961 22.4953 0.110006C22.2214 0.281209 22.1976 0.660291 22.2095 0.97824C22.3209 3.31595 23.1552 5.55632 24.5912 7.37391C26.0523 9.20527 28.0342 10.5221 30.2597 11.1404" fill="#455A64"/>
<path d="M16.7673 27.2458C18.8394 32.1373 21.9713 35.4635 26.044 35.806C26.8538 35.8793 27.4969 35.3657 28.2709 35.3535C28.7228 35.4793 29.1556 35.6686 29.5571 35.916C29.7662 36.0194 29.9924 36.0816 30.2239 36.0994C34.4515 36.0994 38.1789 33.2746 40.8345 28.3953C44.538 21.5716 43.8593 14.0143 39.3221 11.5196C38.7273 11.1761 38.1011 10.8935 37.4524 10.6758C36.7102 10.4261 35.9351 10.2941 35.1541 10.2845C33.3384 10.3169 31.5386 10.6387 29.8191 11.2383L29.5928 11.3117C25.8892 9.44067 22.8764 9.2939 19.8873 10.5657C15.1239 12.5712 13.7306 20.0553 16.7673 27.2458Z" fill="#F06449"/>
<path d="M17.196 20.1287C16.9862 19.6868 16.8762 19.2018 16.8744 18.7102C16.7913 17.521 16.9916 16.329 17.458 15.2372C17.9255 14.1363 18.6395 13.1642 19.542 12.4001C19.8863 12.0691 20.291 11.8115 20.7328 11.6419C20.7328 11.6419 20.2803 11.9721 19.6372 12.5713C18.8135 13.3539 18.1566 14.3032 17.708 15.3595C17.2783 16.4115 17.0712 17.5453 17.1007 18.6857C17.1126 19.5784 17.2436 20.1165 17.196 20.1287Z" fill="#FAFAFA"/>
<path d="M17.8867 23.4915C17.8033 23.4915 17.6604 23.1736 17.589 22.7456C17.5175 22.3176 17.5175 21.9507 17.589 21.9385C17.6604 21.9262 17.8152 22.2564 17.8867 22.6844C17.9581 23.1124 17.97 23.4793 17.8867 23.4915Z" fill="#FAFAFA"/>
<path d="M40.4415 0C40.4415 0 39.5483 0.354641 38.2027 1.07614C37.4157 1.49853 36.663 1.98517 35.952 2.53137C34.2118 3.86509 32.7329 5.52477 31.5934 7.42289C31.1402 8.20796 30.7423 9.0253 30.4026 9.86865C29.831 11.2872 29.6285 12.2288 29.569 12.2166C29.5795 11.9929 29.6155 11.7713 29.6761 11.5562C29.72 11.2947 29.7837 11.0371 29.8667 10.7858C29.962 10.4923 30.0453 10.1499 30.2001 9.78304C30.5254 8.93302 30.9239 8.11452 31.391 7.33728C31.9682 6.37256 32.6299 5.46387 33.3678 4.62248C34.1202 3.79599 34.9454 3.04275 35.8329 2.37239C36.5693 1.83739 37.3458 1.36306 38.155 0.953845C38.5004 0.770413 38.8338 0.648117 39.1077 0.525829C39.3522 0.420296 39.6027 0.330444 39.858 0.256794C40.0396 0.143164 40.2361 0.0567039 40.4415 0Z" fill="#263238"/>
<path d="M77.5962 10.9569C77.8358 9.76631 77.8413 8.53852 77.6123 7.3457C77.3832 6.15288 76.9243 5.01909 76.2625 4.01099C74.8972 1.9797 72.8108 0.579119 70.4511 0.110006C70.2409 0.0235961 70.0063 0.0235961 69.7961 0.110006C69.6813 0.218446 69.5949 0.354819 69.545 0.506561C69.495 0.658302 69.4831 0.820515 69.5103 0.97824C69.6275 3.31472 70.4611 5.55333 71.892 7.37391C73.3553 9.20281 75.3363 10.5191 77.5605 11.1404" fill="#455A64"/>
<path d="M64.08 27.2458C66.1402 32.1373 69.2721 35.4635 73.3449 35.806C74.1546 35.8793 74.7977 35.3657 75.5837 35.3535C76.0317 35.4795 76.4606 35.6688 76.8579 35.916C77.0712 36.0195 77.3013 36.0817 77.5367 36.0994C81.7523 36.0994 85.4797 33.2746 88.1472 28.3953C91.8389 21.5716 91.1601 14.0143 86.6229 11.5196C86.0292 11.1739 85.4027 10.8912 84.7533 10.6758C84.0148 10.4271 83.2439 10.2952 82.4668 10.2845C80.6471 10.3158 78.8433 10.6376 77.1199 11.2383L76.8936 11.3117C73.202 9.44067 70.1772 9.2939 67.1881 10.5657C62.4366 12.5712 61.0433 20.0553 64.08 27.2458Z" fill="#F06449"/>
<path d="M64.4968 20.1287C64.3008 19.6818 64.1915 19.2 64.1753 18.7102C64.1005 17.5215 64.3005 16.3314 64.7588 15.2372C65.2264 14.1363 65.9404 13.1642 66.8428 12.4001C67.1895 12.0723 67.5936 11.8151 68.0337 11.6419C68.0337 11.6419 67.5811 11.9721 66.95 12.5713C66.1222 13.3529 65.4613 14.3023 65.0089 15.3595C64.5722 16.4151 64.3493 17.551 64.3539 18.698C64.4254 19.5784 64.5563 20.1165 64.4968 20.1287Z" fill="#FAFAFA"/>
<path d="M65.2113 23.4915C65.1279 23.4915 64.997 23.1736 64.9136 22.7456C64.8302 22.3176 64.9136 21.9507 64.9136 21.9385C64.9136 21.9262 65.1279 22.2564 65.2113 22.6844C65.2947 23.1124 65.2828 23.4793 65.2113 23.4915Z" fill="#FAFAFA"/>
<path d="M87.7542 0C87.7542 0 86.8611 0.354641 85.5154 1.07614C84.7284 1.49853 83.9758 1.98517 83.2647 2.53137C82.4108 3.20263 81.6141 3.94716 80.883 4.75698C80.1632 5.58149 79.51 6.46489 78.93 7.39841C78.4761 8.18309 78.0781 9.00048 77.7391 9.84417C77.1556 11.2627 76.9651 12.2043 76.9055 12.1921C76.9077 11.9686 76.9398 11.7464 77.0008 11.5317C77.0549 11.2714 77.1225 11.0143 77.2032 10.7613C77.294 10.4218 77.4013 10.0871 77.5248 9.75859C77.8507 8.90889 78.2493 8.09045 78.7156 7.31283C79.2846 6.34551 79.9426 5.43641 80.6805 4.59804C81.408 3.75418 82.2092 2.98052 83.0742 2.28678C83.8279 1.7462 84.6246 1.27168 85.4559 0.868234C85.8012 0.684802 86.1228 0.562507 86.4086 0.440219C86.6497 0.336743 86.8962 0.246928 87.1469 0.171184C87.3411 0.08676 87.5453 0.0292085 87.7542 0Z" fill="#263238"/>
<path d="M53.8267 11.2384C54.0601 10.0546 54.0612 8.83497 53.8302 7.65073C53.5991 6.46648 53.1405 5.3414 52.481 4.34132C51.1177 2.31363 49.0364 0.913639 46.6816 0.440333C46.4703 0.359772 46.2379 0.359772 46.0266 0.440333C45.7527 0.611536 45.7289 0.990656 45.7408 1.3086C45.8498 3.65055 46.6842 5.89556 48.1225 7.71648C49.588 9.54025 51.5686 10.852 53.791 11.4707" fill="#455A64"/>
<path d="M40.2986 27.4903C42.3707 32.3818 45.5026 35.7081 49.5635 36.0505C50.3851 36.1239 51.0282 35.6102 51.8023 35.598C52.2541 35.7238 52.6869 35.9131 53.0884 36.1605C53.2976 36.2639 53.5238 36.3261 53.7553 36.344C57.9828 36.344 61.7102 33.5191 64.3658 28.6398C68.0694 21.8162 67.3906 14.271 62.8534 11.7641C62.2562 11.4257 61.6304 11.1433 60.9838 10.9203C60.2401 10.6764 59.4659 10.5446 58.6854 10.529C56.8703 10.5676 55.0714 10.8892 53.3504 11.4828L53.1241 11.5562C49.4205 9.69743 46.4077 9.53844 43.4186 10.8225C38.6552 12.8891 37.2619 20.3365 40.2986 27.4903Z" fill="#F06449"/>
<g opacity="0.3">
<path d="M40.2986 27.4903C42.3707 32.3818 45.5026 35.7081 49.5635 36.0505C50.3851 36.1239 51.0282 35.6102 51.8023 35.598C52.2541 35.7238 52.6869 35.9131 53.0884 36.1605C53.2976 36.2639 53.5238 36.3261 53.7553 36.344C57.9828 36.344 61.7102 33.5191 64.3658 28.6398C68.0694 21.8162 67.3906 14.271 62.8534 11.7641C62.2562 11.4257 61.6304 11.1433 60.9838 10.9203C60.2401 10.6764 59.4659 10.5446 58.6854 10.529C56.8703 10.5676 55.0714 10.8892 53.3504 11.4828L53.1241 11.5562C49.4205 9.69743 46.4077 9.53844 43.4186 10.8225C38.6552 12.8891 37.2619 20.3365 40.2986 27.4903Z" fill="black"/>
</g>
<path d="M40.7273 20.4221C40.5213 19.9744 40.4117 19.4864 40.4058 18.9913C40.3226 17.8022 40.5229 16.6102 40.9893 15.5184C41.4568 14.4174 42.1709 13.4454 43.0733 12.6813C43.4123 12.3461 43.8188 12.0915 44.2641 11.9353C44.2641 11.9353 43.8116 12.2533 43.1686 12.8525C42.3476 13.6376 41.6912 14.5863 41.2394 15.6407C40.7923 16.693 40.569 17.8311 40.5844 18.9791C40.6439 19.9085 40.7749 20.3977 40.7273 20.4221Z" fill="#FAFAFA"/>
<path d="M41.3942 23.785C41.3108 23.785 41.1679 23.4548 41.0965 23.0267C41.025 22.5987 41.025 22.2319 41.0965 22.2197C41.1679 22.2075 41.3227 22.5376 41.3942 22.9656C41.4656 23.3936 41.5014 23.7605 41.3942 23.785Z" fill="#FAFAFA"/>
<path d="M64.0205 0.342287C64.0205 0.403431 63.1273 0.696928 61.7816 1.41843C60.9835 1.81574 60.2152 2.27354 59.4833 2.78805C58.632 3.46251 57.8355 4.20685 57.1016 5.0137C56.3687 5.8419 55.7073 6.73387 55.1248 7.67956C54.6668 8.46196 54.2686 9.27967 53.9339 10.1253C53.3623 11.5561 53.1598 12.4977 53.1003 12.4733C53.1117 12.2497 53.1476 12.0282 53.2075 11.8129C53.2513 11.5514 53.315 11.2938 53.398 11.0425C53.4933 10.749 53.5766 10.4066 53.7315 10.0397C54.0567 9.1897 54.4553 8.3712 54.9223 7.59395C55.4892 6.61306 56.143 5.68793 56.8753 4.83027C57.5953 4.00171 58.3931 3.248 59.257 2.58014C60.0097 2.03421 60.8065 1.55555 61.6387 1.14939C61.9841 0.96596 62.3175 0.843665 62.5914 0.721377C62.8358 0.615844 63.0864 0.525992 63.3417 0.452342C63.5611 0.380002 63.79 0.342883 64.0205 0.342287Z" fill="#263238"/>
<path d="M74.5238 38.5208C74.7595 37.3379 74.763 36.1186 74.534 34.9343C74.305 33.7499 73.8481 32.6244 73.19 31.6238C71.8248 29.5925 69.7383 28.1919 67.3787 27.7228C67.1672 27.6433 66.9352 27.6433 66.7237 27.7228C66.6089 27.8313 66.5225 27.9676 66.4726 28.1194C66.4226 28.2711 66.4107 28.4333 66.4379 28.5911C66.5526 30.9318 67.3864 33.175 68.8196 34.9989C70.2841 36.8239 72.2651 38.136 74.4881 38.7532" fill="#455A64"/>
<path d="M61.0076 54.7729C63.0678 59.6644 66.1997 62.9906 70.2724 63.333C71.0822 63.4064 71.7253 62.8928 72.5113 62.8806C72.9593 63.0066 73.3882 63.1959 73.7855 63.4431C73.9988 63.5466 74.2289 63.6088 74.4643 63.6265C78.6799 63.6265 82.4073 60.8017 85.0748 55.9224C88.7665 49.111 88.0877 41.5535 83.5505 39.0466C82.9573 38.7084 82.3355 38.426 81.6928 38.2028C80.9481 37.965 80.1742 37.8373 79.3944 37.8238C77.5752 37.85 75.7712 38.1677 74.0475 38.7654L73.8212 38.8388C70.1295 36.98 67.1048 36.821 64.1157 38.105C59.3642 40.1717 57.9709 47.619 61.0076 54.7729Z" fill="#F06449"/>
<g opacity="0.3">
<path d="M61.0076 54.7729C63.0678 59.6644 66.1997 62.9906 70.2724 63.333C71.0822 63.4064 71.7253 62.8928 72.5113 62.8806C72.9593 63.0066 73.3882 63.1959 73.7855 63.4431C73.9988 63.5466 74.2289 63.6088 74.4643 63.6265C78.6799 63.6265 82.4073 60.8017 85.0748 55.9224C88.7665 49.111 88.0877 41.5535 83.5505 39.0466C82.9573 38.7084 82.3355 38.426 81.6928 38.2028C80.9481 37.965 80.1742 37.8373 79.3944 37.8238C77.5752 37.85 75.7712 38.1677 74.0475 38.7654L73.8212 38.8388C70.1295 36.98 67.1048 36.821 64.1157 38.105C59.3642 40.1717 57.9709 47.619 61.0076 54.7729Z" fill="black"/>
</g>
<path d="M61.4244 47.7045C61.2297 47.2528 61.1206 46.7672 61.1029 46.2737C61.0267 45.0798 61.2289 43.8846 61.6929 42.7871C62.1568 41.6897 62.869 40.7217 63.7704 39.9636C64.1112 39.6309 64.5172 39.3766 64.9612 39.2177C64.9612 39.2177 64.5087 39.5478 63.8775 40.147C63.0471 40.9262 62.3858 41.8762 61.9365 42.9352C61.501 43.9869 61.2782 45.1186 61.2815 46.2614C61.3529 47.1419 61.4839 47.6922 61.4244 47.7045Z" fill="#FAFAFA"/>
<path d="M62.1151 51.0675C62.0317 51.0675 61.9007 50.7373 61.8174 50.3093C61.734 49.8813 61.7578 49.5145 61.8174 49.5022C61.8769 49.49 62.0317 49.8202 62.1151 50.2482C62.1984 50.6762 62.2103 51.0431 62.1151 51.0675Z" fill="#FAFAFA"/>
<path d="M84.6818 27.5638C84.6818 27.6249 83.7887 27.9184 82.443 28.6399C81.6586 29.0669 80.9063 29.5533 80.1923 30.0951C79.3412 30.7698 78.5447 31.5141 77.8106 32.3208C77.0877 33.147 76.4344 34.0348 75.8576 34.9744C75.401 35.7576 75.0029 36.5752 74.6667 37.4202C74.0832 38.8509 73.8927 39.7925 73.8331 39.7681C73.8367 39.5437 73.8729 39.3212 73.9403 39.1078C73.9841 38.8462 74.0478 38.5886 74.1308 38.3373C74.2216 37.9978 74.3289 37.6631 74.4524 37.3346C74.7783 36.4849 75.1768 35.6664 75.6432 34.8888C76.7771 32.9423 78.2891 31.2564 80.0851 29.9362C80.7929 29.3815 81.5459 28.8905 82.3358 28.4687C82.6812 28.2853 83.0027 28.163 83.2885 28.0407C83.5296 27.9372 83.7761 27.8474 84.0268 27.7716C84.2343 27.6703 84.4549 27.6003 84.6818 27.5638Z" fill="#263238"/>
<path d="M27.4373 39.2543C27.6707 38.0693 27.673 36.8485 27.4441 35.6626C27.2151 34.4766 26.7595 33.3491 26.1036 32.3451C24.7312 30.3258 22.6466 28.9353 20.2922 28.4685C20.082 28.3821 19.8474 28.3821 19.6372 28.4685C19.3633 28.6275 19.3395 29.0066 19.3514 29.3368C19.4629 31.6745 20.2972 33.9149 21.7331 35.7324C23.2024 37.555 25.1877 38.8628 27.4135 39.4745" fill="#455A64"/>
<path d="M13.9211 55.4944C15.9813 60.3859 19.1132 63.7243 23.186 64.0545C23.9958 64.1279 24.6388 63.6143 25.4248 63.6143C25.8742 63.7303 26.3039 63.9159 26.699 64.1646C26.9118 64.2715 27.1418 64.3378 27.3778 64.3602C31.5934 64.3602 35.3208 61.5231 37.9764 56.6561C41.68 49.8324 41.0012 42.275 36.464 39.7681C35.8678 39.4275 35.2419 39.1451 34.5944 38.9243C33.8501 38.6846 33.076 38.5569 32.296 38.5452C30.4808 38.5725 28.6809 38.8902 26.961 39.4869L26.7347 39.5602C23.0431 37.7015 20.0183 37.5425 17.0293 38.8265C12.2777 40.8932 10.8844 48.3405 13.9211 55.4944Z" fill="#F06449"/>
<g opacity="0.3">
<path d="M13.9211 55.4944C15.9813 60.3859 19.1132 63.7243 23.186 64.0545C23.9958 64.1279 24.6388 63.6143 25.4248 63.6143C25.8742 63.7303 26.3039 63.9159 26.699 64.1646C26.9118 64.2715 27.1418 64.3378 27.3778 64.3602C31.5934 64.3602 35.3208 61.5231 37.9764 56.6561C41.68 49.8324 41.0012 42.275 36.464 39.7681C35.8678 39.4275 35.2419 39.1451 34.5944 38.9243C33.8501 38.6846 33.076 38.5569 32.296 38.5452C30.4808 38.5725 28.6809 38.8902 26.961 39.4869L26.7347 39.5602C23.0431 37.7015 20.0183 37.5425 17.0293 38.8265C12.2777 40.8932 10.8844 48.3405 13.9211 55.4944Z" fill="black"/>
</g>
<path d="M14.3379 48.4262C14.141 47.9753 14.0317 47.4893 14.0164 46.9954C13.9382 45.8031 14.1396 44.6089 14.6038 43.5131C15.0679 42.4173 15.7812 41.4517 16.6839 40.6976C17.0266 40.3645 17.4318 40.1065 17.8748 39.9394C17.8748 39.9394 17.4222 40.2696 16.7792 40.8688C15.9558 41.6456 15.3004 42.5911 14.8553 43.6444C14.4101 44.6976 14.1852 45.8351 14.195 46.9832C14.2665 47.8636 14.3975 48.4139 14.3379 48.4262Z" fill="#FAFAFA"/>
<path d="M15.0286 51.789C14.9452 51.789 14.8143 51.4588 14.7309 51.0308C14.6475 50.6028 14.6594 50.2359 14.7309 50.2237C14.8023 50.2115 14.9452 50.5416 15.0286 50.9697C15.112 51.3977 15.1239 51.7645 15.0286 51.789Z" fill="#FAFAFA"/>
<path d="M37.5834 28.2852C37.5834 28.2852 36.7022 28.6399 35.3565 29.3614C34.5541 29.7832 33.7856 30.2698 33.0582 30.8166C32.2071 31.4913 31.4106 32.2356 30.6765 33.0422C29.9536 33.8685 29.3003 34.7562 28.7235 35.6959C28.2669 36.4791 27.8688 37.2967 27.5326 38.1416C26.9491 39.5724 26.7585 40.514 26.699 40.5018C26.7001 40.2741 26.7322 40.0478 26.7943 39.8292C26.8484 39.5689 26.916 39.3117 26.9967 39.0588C27.0821 38.7176 27.1895 38.3826 27.3183 38.056C27.6442 37.2063 28.0427 36.3879 28.5091 35.6103C29.0813 34.649 29.7391 33.7443 30.474 32.9077C31.2274 32.0778 32.0569 31.3243 32.951 30.6576C33.6973 30.1051 34.4951 29.6299 35.3327 29.2391C35.6406 29.0711 35.9588 28.924 36.2854 28.7988C36.5251 28.6917 36.7718 28.6018 37.0237 28.5298C37.1994 28.424 37.3875 28.3419 37.5834 28.2852Z" fill="#263238"/>
<path d="M104.891 24.8978H0V40.5017H104.891V24.8978Z" fill="#FF9B6A"/>
<path d="M104.891 53.4887H0V69.0926H104.891V53.4887Z" fill="#FF9B6A"/>
<path d="M17.8748 17.0836H4.96587V68.7013H17.8748V17.0836Z" fill="#FF9B6A"/>
<path d="M99.3294 17.0836H86.4205V68.7013H99.3294V17.0836Z" fill="#FF9B6A"/>
<path d="M104.676 40.6973C104.676 40.8808 81.2879 41.0275 52.4453 41.0275C23.6028 41.0275 0.214357 40.8808 0.214357 40.6973C0.214357 40.5139 23.5909 40.3794 52.4453 40.3794C81.2998 40.3794 104.676 40.4895 104.676 40.6973Z" fill="#263238"/>
<path d="M104.676 53.4887C104.676 53.6599 81.2879 53.8067 52.4453 53.8067C23.6028 53.8067 0.214357 53.6599 0.214357 53.4887C0.214357 53.3175 23.5909 53.1708 52.4453 53.1708C81.2998 53.1708 104.676 53.3053 104.676 53.4887Z" fill="#263238"/>
<path d="M104.676 24.7999C104.676 24.9834 81.2879 25.1179 52.4453 25.1179C23.6028 25.1179 0.214357 24.9834 0.214357 24.7999C0.214357 24.6165 23.5909 24.482 52.4453 24.482C81.2998 24.482 104.676 24.5676 104.676 24.7999Z" fill="#263238"/>
<path d="M287.544 88.1086C287.777 86.9255 287.779 85.7067 287.55 84.5228C287.322 83.3389 286.866 82.2134 286.21 81.2115C284.845 79.1802 282.759 77.7797 280.399 77.3106C280.189 77.2241 279.954 77.2241 279.744 77.3106C279.629 77.419 279.543 77.5554 279.493 77.7071C279.443 77.8589 279.431 78.0211 279.458 78.1788C279.575 80.5153 280.409 82.7539 281.84 84.5745C283.303 86.4034 285.284 87.7196 287.509 88.3409" fill="#455A64"/>
<path d="M274.028 104.361C276.088 109.252 279.22 112.578 283.293 112.921C284.103 112.982 284.746 112.48 285.532 112.468C285.98 112.594 286.409 112.784 286.806 113.031C287.019 113.134 287.249 113.196 287.485 113.214C291.7 113.214 295.428 110.377 298.095 105.51C301.787 98.6864 301.108 91.129 296.571 88.6221C295.974 88.2852 295.349 88.0068 294.701 87.7906C293.963 87.5419 293.192 87.41 292.415 87.3992C290.595 87.4306 288.791 87.7524 287.068 88.3531L286.842 88.4264C283.15 86.5554 280.125 86.4087 277.136 87.6805C272.42 89.7472 270.991 97.2067 274.028 104.361Z" fill="#F06449"/>
<path d="M274.445 97.2802C274.249 96.8333 274.14 96.3514 274.123 95.8616C274.049 94.6729 274.248 93.4829 274.707 92.3886C275.174 91.2877 275.888 90.3157 276.791 89.5516C277.137 89.2238 277.542 88.9665 277.982 88.7934C277.982 88.7934 277.529 89.1236 276.898 89.7228C276.07 90.5044 275.409 91.4537 274.957 92.5109C274.52 93.5666 274.297 94.7025 274.302 95.8494C274.373 96.7299 274.504 97.2679 274.445 97.2802Z" fill="#FAFAFA"/>
<path d="M275.136 100.619C275.052 100.619 274.921 100.301 274.838 99.8726C274.754 99.4446 274.778 99.0777 274.838 99.0655C274.897 99.0533 275.052 99.3834 275.136 99.8114C275.219 100.239 275.231 100.619 275.136 100.619Z" fill="#FAFAFA"/>
<path d="M297.69 77.1514C297.69 77.2126 296.809 77.4939 295.463 78.2276C294.675 78.6472 293.922 79.1339 293.213 79.6828C292.359 80.3541 291.562 81.0986 290.831 81.9085C290.111 82.733 289.458 83.6163 288.878 84.5499C288.424 85.3345 288.026 86.1519 287.687 86.9956C287.104 88.4142 286.913 89.3558 286.854 89.3436C286.856 89.12 286.888 88.8978 286.949 88.6832C287.003 88.4229 287.071 88.1657 287.151 87.9128C287.242 87.5732 287.349 87.2386 287.473 86.91C287.799 86.0603 288.197 85.2419 288.664 84.4643C289.233 83.4969 289.891 82.5879 290.629 81.7495C291.385 80.9229 292.214 80.1696 293.106 79.4994C293.84 78.9617 294.617 78.4873 295.428 78.0808C295.773 77.8974 296.095 77.7751 296.38 77.6528C296.622 77.5494 296.868 77.4595 297.119 77.3838C297.299 77.282 297.491 77.204 297.69 77.1514Z" fill="#263238"/>
<path d="M266.871 60.5448C267.106 59.3611 267.108 58.1412 266.876 56.9567C266.645 55.7723 266.186 54.6473 265.525 53.6478C264.165 51.6145 262.083 50.2097 259.726 49.7346C259.515 49.654 259.282 49.654 259.071 49.7346C258.797 49.9058 258.773 50.2849 258.785 50.6028C258.897 52.9405 259.731 55.1809 261.167 56.9985C262.629 58.8265 264.611 60.1392 266.835 60.7527" fill="#455A64"/>
<path d="M253.367 76.7846C255.439 81.6761 258.571 85.0146 262.643 85.3448C263.453 85.4059 264.096 84.9045 264.87 84.8923C265.32 85.0189 265.752 85.2038 266.156 85.4426C266.363 85.5547 266.59 85.6214 266.823 85.6382C271.051 85.6382 274.778 82.8012 277.434 77.9341C281.137 71.1104 280.459 63.553 275.921 61.0461C275.323 60.7104 274.697 60.4281 274.052 60.2024C273.308 59.9626 272.533 59.835 271.753 59.8233C269.939 59.857 268.14 60.1745 266.418 60.7649L266.192 60.8382C262.489 58.9795 259.476 58.8205 256.487 60.1045C251.699 62.1834 250.318 69.643 253.367 76.7846Z" fill="#F06449"/>
<path d="M253.772 69.7164C253.562 69.2744 253.452 68.7895 253.45 68.2978C253.367 67.1087 253.567 65.9166 254.034 64.8249C254.498 63.722 255.212 62.7493 256.118 61.9878C256.464 61.66 256.868 61.4027 257.308 61.2296C257.308 61.2296 256.856 61.5597 256.213 62.159C255.389 62.9415 254.732 63.8908 254.284 64.9471C253.836 65.9992 253.613 67.1375 253.629 68.2856C253.688 69.1661 253.819 69.7041 253.772 69.7164Z" fill="#FAFAFA"/>
<path d="M254.462 73.0793C254.379 73.0793 254.248 72.7614 254.165 72.3334C254.081 71.9054 254.093 71.5385 254.165 71.5141C254.236 71.4896 254.379 71.8442 254.462 72.2722C254.546 72.7002 254.557 73.0671 254.462 73.0793Z" fill="#FAFAFA"/>
<path d="M277.017 49.5755C277.017 49.6366 276.124 49.9301 274.778 50.6638C273.993 51.089 273.24 51.5755 272.528 52.119C271.671 52.7866 270.874 53.5314 270.146 54.3447C269.423 55.1668 268.77 56.0505 268.193 56.9861C267.729 57.7654 267.331 58.5835 267.002 59.4319C266.418 60.8504 266.228 61.792 266.156 61.7798C266.174 61.5529 266.21 61.328 266.264 61.1072C266.264 60.8993 266.359 60.6425 266.454 60.3368C266.548 60.0007 266.659 59.67 266.788 59.3463C267.116 58.4978 267.515 57.6796 267.978 56.9005C268.551 55.9392 269.208 55.0345 269.943 54.1979C270.699 53.3745 271.524 52.6215 272.408 51.9478C273.16 51.403 273.957 50.9282 274.79 50.5293C275.1 50.37 275.418 50.2271 275.743 50.1013C275.983 49.9941 276.229 49.9042 276.481 49.8322C276.653 49.7328 276.832 49.647 277.017 49.5755Z" fill="#263238"/>
<path d="M314.184 60.5448C314.416 59.3609 314.416 58.1415 314.185 56.9575C313.954 55.7734 313.496 54.6484 312.838 53.6477C311.473 51.6137 309.387 50.2091 307.027 49.7345C306.815 49.655 306.583 49.655 306.372 49.7345C306.256 49.8421 306.17 49.9788 306.122 50.1311C306.074 50.2835 306.066 50.4461 306.098 50.6027C306.209 52.9405 307.044 55.1808 308.479 56.9984C309.946 58.8267 311.932 60.1392 314.16 60.7526" fill="#455A64"/>
<path d="M300.656 76.7846C302.716 81.6761 305.86 85.0146 309.92 85.3448C310.73 85.4059 311.373 84.9045 312.159 84.8923C312.605 85.0191 313.033 85.204 313.433 85.4426C313.644 85.555 313.875 85.6216 314.112 85.6382C318.328 85.6382 322.067 82.8012 324.723 77.9341C328.426 71.1104 327.736 63.553 323.199 61.0461C322.604 60.7107 321.982 60.4284 321.341 60.2024C320.596 59.9645 319.822 59.8368 319.042 59.8233C317.224 59.8558 315.421 60.1733 313.695 60.7649L313.469 60.8382C309.778 58.9795 306.765 58.8205 303.764 60.1045C299.012 62.1834 297.619 69.643 300.656 76.7846Z" fill="#F06449"/>
<path d="M301.072 69.7164C300.876 69.2695 300.767 68.7877 300.751 68.2978C300.681 67.1048 300.887 65.9118 301.35 64.8155C301.814 63.7191 302.522 62.7504 303.418 61.9878C303.765 61.66 304.169 61.4027 304.609 61.2296C304.609 61.2296 304.169 61.5597 303.526 62.159C302.698 62.9406 302.037 63.8899 301.584 64.9471C301.145 66.0016 300.926 67.1389 300.941 68.2856C301.001 69.1661 301.132 69.7041 301.072 69.7164Z" fill="#FAFAFA"/>
<path d="M301.775 73.0793C301.68 73.0793 301.549 72.7614 301.477 72.3334C301.406 71.9054 301.406 71.5385 301.477 71.5141C301.549 71.4896 301.703 71.8442 301.775 72.2722C301.846 72.7002 301.858 73.0671 301.775 73.0793Z" fill="#FAFAFA"/>
<path d="M324.33 49.5755C324.33 49.6366 323.437 49.9301 322.091 50.6638C321.304 51.0862 320.551 51.5728 319.84 52.119C318.984 52.7868 318.187 53.5317 317.459 54.3447C316.736 55.1668 316.083 56.0505 315.506 56.9861C315.047 57.7681 314.649 58.5858 314.315 59.4319C313.731 60.8504 313.541 61.792 313.481 61.7798C313.484 61.5513 313.52 61.3246 313.588 61.1072C313.635 60.8463 313.699 60.5889 313.779 60.3368C313.868 60.0007 313.975 59.67 314.1 59.3463C314.429 58.4978 314.827 57.6796 315.291 56.9005C315.863 55.9392 316.521 55.0345 317.256 54.1979C318.013 53.3713 318.842 52.6181 319.733 51.9478C320.465 51.4058 321.242 50.9311 322.055 50.5293C322.401 50.3459 322.722 50.2236 323.008 50.1013C323.249 49.9978 323.496 49.908 323.746 49.8322C323.934 49.7301 324.129 49.6442 324.33 49.5755Z" fill="#263238"/>
<path d="M290.402 60.826C290.637 59.6423 290.639 58.4224 290.408 57.238C290.177 56.0535 289.717 54.9285 289.057 53.929C287.696 51.8958 285.614 50.4909 283.257 50.0158C283.046 49.9352 282.813 49.9352 282.602 50.0158C282.328 50.187 282.304 50.5661 282.316 50.884C282.428 53.2217 283.262 55.4621 284.698 57.2797C286.16 59.1078 288.142 60.4205 290.367 61.0339" fill="#455A64"/>
<path d="M276.874 77.078C278.946 81.9695 282.078 85.2958 286.151 85.6382C286.961 85.6993 287.604 85.1979 288.378 85.1857C288.83 85.3115 289.263 85.5008 289.664 85.7482C289.873 85.8516 290.099 85.9138 290.331 85.9317C294.558 85.9317 298.286 83.0946 300.941 78.2275C304.645 71.4039 303.966 63.8465 299.429 61.3396C298.833 61.0027 298.207 60.7243 297.559 60.508C296.817 60.2583 296.042 60.1264 295.261 60.1167C293.445 60.1491 291.646 60.4709 289.926 61.0705L289.7 61.1317C285.996 59.2729 282.983 59.1139 279.994 60.3979C275.231 62.4646 273.849 69.9242 276.874 77.078Z" fill="#F06449"/>
<g opacity="0.4">
<path d="M276.874 77.078C278.946 81.9695 282.078 85.2958 286.151 85.6382C286.961 85.6993 287.604 85.1979 288.378 85.1857C288.83 85.3115 289.263 85.5008 289.664 85.7482C289.873 85.8516 290.099 85.9138 290.331 85.9317C294.558 85.9317 298.286 83.0946 300.941 78.2275C304.645 71.4039 303.966 63.8465 299.429 61.3396C298.833 61.0027 298.207 60.7243 297.559 60.508C296.817 60.2583 296.042 60.1264 295.261 60.1167C293.445 60.1491 291.646 60.4709 289.926 61.0705L289.7 61.1317C285.996 59.2729 282.983 59.1139 279.994 60.3979C275.231 62.4646 273.849 69.9242 276.874 77.078Z" fill="black"/>
</g>
<path d="M277.303 70.0464C277.093 69.6045 276.983 69.1196 276.981 68.6279C276.898 67.4388 277.098 66.2467 277.565 65.1549C278.029 64.0521 278.744 63.0793 279.649 62.3178C279.996 61.9901 280.4 61.7328 280.84 61.5597C280.84 61.5597 280.387 61.8899 279.744 62.4891C278.92 63.2716 278.263 64.221 277.815 65.2772C277.367 66.3293 277.144 67.4676 277.16 68.6157C277.184 69.4472 277.35 70.0464 277.303 70.0464Z" fill="#FAFAFA"/>
<path d="M277.994 73.3606C277.91 73.3606 277.779 73.0426 277.696 72.6146C277.612 72.1866 277.624 71.8197 277.696 71.7953C277.767 71.7708 277.91 72.1254 277.994 72.5534C278.077 72.9815 278.077 73.3483 277.994 73.3606Z" fill="#FAFAFA"/>
<path d="M300.548 49.8691C300.548 49.8691 299.655 50.2115 298.31 50.9453C297.524 51.3704 296.772 51.857 296.059 52.4005C294.319 53.7342 292.84 55.3939 291.7 57.292C291.237 58.0713 290.838 58.8894 290.509 59.7378C289.926 61.1563 289.735 62.0979 289.664 62.0857C289.682 61.8589 289.718 61.6341 289.771 61.4131C289.822 61.1573 289.886 60.9042 289.962 60.6549C290.053 60.3142 290.165 59.9793 290.295 59.6522C290.621 58.8025 291.02 57.984 291.486 57.2064C292.055 56.2391 292.713 55.33 293.451 54.4916C294.206 53.6682 295.031 52.9152 295.916 52.2415C296.67 51.7012 297.467 51.2267 298.298 50.823C298.608 50.6637 298.926 50.5208 299.25 50.395C299.49 50.2878 299.737 50.1979 299.989 50.1259C300.164 50.0159 300.352 49.9296 300.548 49.8691Z" fill="#263238"/>
<path d="M311.111 88.1084C311.343 86.9245 311.343 85.7053 311.112 84.5213C310.881 83.3374 310.423 82.2123 309.766 81.2114C308.4 79.1801 306.314 77.7795 303.954 77.3104C303.829 77.2519 303.69 77.2331 303.554 77.2565C303.418 77.2798 303.293 77.3442 303.193 77.4414C303.093 77.5387 303.024 77.6642 302.994 77.8021C302.964 77.94 302.975 78.0838 303.025 78.2153C303.137 80.553 303.971 82.7934 305.407 84.611C306.873 86.4426 308.859 87.7592 311.087 88.3774" fill="#455A64"/>
<path d="M297.583 104.361C299.643 109.252 302.787 112.578 306.848 112.921C307.658 112.982 308.301 112.48 309.087 112.468C309.535 112.594 309.964 112.784 310.361 113.031C310.574 113.134 310.804 113.196 311.04 113.214C315.255 113.214 318.995 110.377 321.65 105.51C325.354 98.6864 324.663 91.129 320.126 88.6221C319.534 88.2853 318.912 88.0069 318.268 87.7906C317.526 87.5429 316.751 87.411 315.97 87.3992C314.154 87.4299 312.354 87.7517 310.635 88.3531L310.397 88.4264C306.705 86.5554 303.692 86.4087 300.691 87.6805C295.94 89.7472 294.546 97.2067 297.583 104.361Z" fill="#F06449"/>
<g opacity="0.4">
<path d="M297.583 104.361C299.643 109.252 302.787 112.578 306.848 112.921C307.658 112.982 308.301 112.48 309.087 112.468C309.535 112.594 309.964 112.784 310.361 113.031C310.574 113.134 310.804 113.196 311.04 113.214C315.255 113.214 318.995 110.377 321.65 105.51C325.354 98.6864 324.663 91.129 320.126 88.6221C319.534 88.2853 318.912 88.0069 318.268 87.7906C317.526 87.5429 316.751 87.411 315.97 87.3992C314.154 87.4299 312.354 87.7517 310.635 88.3531L310.397 88.4264C306.705 86.5554 303.692 86.4087 300.691 87.6805C295.94 89.7472 294.546 97.2067 297.583 104.361Z" fill="black"/>
</g>
<path d="M298 97.2802C297.806 96.8332 297.7 96.3509 297.69 95.8616C297.603 94.6723 297.804 93.4793 298.274 92.3886C298.733 91.2861 299.444 90.3131 300.346 89.5516C300.693 89.2238 301.097 88.9665 301.537 88.7934C301.537 88.7934 301.096 89.1236 300.453 89.7228C299.625 90.5044 298.964 91.4537 298.512 92.5109C298.073 93.5654 297.854 94.7027 297.869 95.8494C297.929 96.7299 298.06 97.2679 298 97.2802Z" fill="#FAFAFA"/>
<path d="M298.703 100.619C298.607 100.619 298.476 100.301 298.405 99.8726C298.333 99.4446 298.333 99.0777 298.405 99.0655C298.476 99.0533 298.631 99.3834 298.703 99.8114C298.774 100.239 298.786 100.619 298.703 100.619Z" fill="#FAFAFA"/>
<path d="M321.245 77.1514C321.245 77.2126 320.352 77.4939 319.007 78.2276C318.22 78.65 317.467 79.1366 316.756 79.6828C315.902 80.3541 315.105 81.0986 314.374 81.9085C313.654 82.733 313.001 83.6163 312.421 84.5499C311.967 85.3345 311.569 86.1519 311.23 86.9956C310.659 88.4142 310.456 89.3558 310.397 89.3436C310.4 89.1191 310.436 88.8965 310.504 88.6832C310.548 88.4217 310.612 88.1641 310.695 87.9128C310.79 87.6193 310.873 87.2769 311.016 86.91C311.342 86.0603 311.741 85.2419 312.207 84.4643C312.776 83.4969 313.434 82.5879 314.172 81.7495C314.928 80.9229 315.758 80.1696 316.649 79.4994C317.403 78.9588 318.199 78.4843 319.031 78.0808C319.376 77.8974 319.697 77.7751 319.983 77.6528C320.224 77.5494 320.471 77.4595 320.722 77.3838C320.886 77.2851 321.062 77.207 321.245 77.1514Z" fill="#263238"/>
<path d="M264.013 88.83C264.245 87.6469 264.247 86.4282 264.018 85.2444C263.789 84.0606 263.334 82.9351 262.679 81.933C261.314 79.9017 259.227 78.5011 256.868 78.032C256.656 77.9525 256.424 77.9525 256.213 78.032C256.098 78.1404 256.012 78.2768 255.962 78.4285C255.912 78.5803 255.9 78.7425 255.927 78.9002C256.044 81.2367 256.878 83.4753 258.309 85.2959C259.772 87.1248 261.753 88.441 263.977 89.0623" fill="#455A64"/>
<path d="M250.497 105.082C252.557 109.974 255.689 113.3 259.762 113.642C260.571 113.716 261.214 113.202 262 113.19C262.448 113.316 262.877 113.505 263.275 113.752C263.488 113.856 263.718 113.918 263.953 113.936C268.169 113.936 271.896 111.111 274.564 106.232C278.256 99.4079 277.577 91.8505 273.04 89.3558C272.443 89.0153 271.817 88.7328 271.17 88.512C270.43 88.2692 269.66 88.1374 268.884 88.1207C267.064 88.1583 265.261 88.4799 263.537 89.0745L263.31 89.1479C259.619 87.2769 256.594 87.1302 253.605 88.402C248.853 90.4809 247.412 97.9282 250.497 105.082Z" fill="#F06449"/>
<g opacity="0.4">
<path d="M250.497 105.082C252.557 109.974 255.689 113.3 259.762 113.642C260.571 113.716 261.214 113.202 262 113.19C262.448 113.316 262.877 113.505 263.275 113.752C263.488 113.856 263.718 113.918 263.953 113.936C268.169 113.936 271.896 111.111 274.564 106.232C278.256 99.4079 277.577 91.8505 273.04 89.3558C272.443 89.0153 271.817 88.7328 271.17 88.512C270.43 88.2692 269.66 88.1374 268.884 88.1207C267.064 88.1583 265.261 88.4799 263.537 89.0745L263.31 89.1479C259.619 87.2769 256.594 87.1302 253.605 88.402C248.853 90.4809 247.412 97.9282 250.497 105.082Z" fill="black"/>
</g>
<path d="M250.913 98.0016C250.717 97.5547 250.608 97.0729 250.592 96.5831C250.517 95.3944 250.717 94.2043 251.175 93.1101C251.643 92.0091 252.357 91.0371 253.259 90.273C253.606 89.9452 254.01 89.688 254.45 89.5148C254.45 89.576 253.998 89.845 253.367 90.4442C252.539 91.218 251.88 92.1627 251.432 93.2164C250.985 94.2702 250.759 95.4091 250.771 96.5586C250.842 97.4513 250.985 97.9893 250.913 98.0016Z" fill="#FAFAFA"/>
<path d="M251.604 101.364C251.521 101.364 251.39 101.046 251.306 100.618C251.223 100.19 251.247 99.8236 251.306 99.8114C251.366 99.7992 251.521 100.129 251.604 100.557C251.688 100.985 251.699 101.352 251.604 101.364Z" fill="#FAFAFA"/>
<path d="M274.159 77.8729C274.159 77.9341 273.278 78.2276 271.932 78.9491C271.145 79.3714 270.392 79.8581 269.681 80.4043C268.828 81.0755 268.031 81.8201 267.3 82.6299C266.58 83.4544 265.927 84.3378 265.347 85.2714C264.893 86.056 264.495 86.8734 264.156 87.7171C263.572 89.1357 263.382 90.0773 263.322 90.065C263.324 89.8415 263.356 89.6193 263.417 89.4047C263.472 89.1443 263.539 88.8872 263.62 88.6343C263.711 88.2947 263.818 87.96 263.941 87.6315C264.267 86.7818 264.666 85.9634 265.132 85.1857C265.701 84.2184 266.359 83.3093 267.097 82.4709C267.854 81.6443 268.683 80.8911 269.574 80.2209C270.309 79.6832 271.086 79.2088 271.896 78.8023C272.242 78.6189 272.563 78.4966 272.849 78.3743C273.09 78.2708 273.337 78.181 273.587 78.1053C273.768 78.0035 273.96 77.9254 274.159 77.8729Z" fill="#263238"/>
<path d="M341.466 74.4857H236.576V90.0897H341.466V74.4857Z" fill="#FF9B6A"/>
<path d="M341.466 103.077H236.576V118.681H341.466V103.077Z" fill="#FF9B6A"/>
<path d="M254.45 66.6593H241.541V118.277H254.45V66.6593Z" fill="#FF9B6A"/>
<path d="M335.905 66.6593H322.996V118.277H335.905V66.6593Z" fill="#FF9B6A"/>
<path d="M341.252 90.2486C341.252 90.432 317.863 90.5665 289.021 90.5665C260.178 90.5665 236.79 90.432 236.79 90.2486C236.79 90.0651 260.178 89.9307 289.021 89.9307C317.863 89.9307 341.252 90.0774 341.252 90.2486Z" fill="#263238"/>
<path d="M341.252 103.064C341.252 103.235 317.863 103.382 289.021 103.382C260.178 103.382 236.79 103.235 236.79 103.064C236.79 102.893 260.178 102.734 289.021 102.734C317.863 102.734 341.252 102.893 341.252 103.064Z" fill="#263238"/>
<path d="M341.252 74.3265C341.252 74.4977 317.863 74.6445 289.021 74.6445C260.178 74.6445 236.79 74.4977 236.79 74.3265C236.79 74.1553 260.178 74.0086 289.021 74.0086C317.863 74.0086 341.252 74.1431 341.252 74.3265Z" fill="#263238"/>
<path d="M505.09 87.8885C505.321 86.7026 505.321 85.4815 505.09 84.2956C504.859 83.1098 504.402 81.9826 503.744 80.9792C502.375 78.9517 500.291 77.5522 497.933 77.0782C497.723 76.9918 497.488 76.9918 497.278 77.0782C497.016 77.2372 496.98 77.6163 497.004 77.9464C497.115 80.2842 497.95 82.5245 499.386 84.3421C500.852 86.1705 502.838 87.483 505.066 88.0964" fill="#455A64"/>
<path d="M491.538 104.128C493.598 109.02 496.742 112.358 500.803 112.688C501.613 112.762 502.256 112.248 503.042 112.248C503.491 112.364 503.921 112.55 504.316 112.798C504.529 112.905 504.759 112.972 504.995 112.994C509.21 112.994 512.95 110.157 515.605 105.29C519.309 98.4663 518.618 90.9089 514.081 88.402C513.489 88.0616 512.867 87.7791 512.223 87.5582C511.478 87.3203 510.705 87.1927 509.925 87.1791C508.106 87.2054 506.302 87.5231 504.578 88.1207L504.352 88.1941C500.66 86.3353 497.647 86.1763 494.646 87.4604C489.918 89.527 488.525 96.9499 491.538 104.128Z" fill="#F06449"/>
<path d="M491.979 97.06C491.782 96.6092 491.672 96.1232 491.657 95.6293C491.583 94.4394 491.787 93.2486 492.252 92.1563C492.709 91.0552 493.42 90.0855 494.325 89.3314C494.667 88.9983 495.072 88.7404 495.515 88.5732C495.515 88.5732 495.075 88.9034 494.432 89.5026C493.603 90.275 492.944 91.2198 492.498 92.274C492.053 93.3283 491.831 94.4679 491.848 95.617C491.907 96.5097 492.038 97.0478 491.979 97.06Z" fill="#FAFAFA"/>
<path d="M492.729 100.423C492.634 100.423 492.503 100.105 492.431 99.6647C492.36 99.2244 492.36 98.8698 492.431 98.8576C492.503 98.8453 492.657 99.1755 492.729 99.6158C492.8 100.056 492.729 100.398 492.729 100.423Z" fill="#FAFAFA"/>
<path d="M515.236 76.9191C515.236 76.9802 514.343 77.2737 512.997 77.9952C512.213 78.4222 511.46 78.9086 510.746 79.4505C509.892 80.1259 509.096 80.8745 508.365 81.6883C507.639 82.5081 506.986 83.392 506.412 84.3297C505.955 85.1129 505.557 85.9305 505.221 86.7755C504.637 88.2063 504.447 89.1479 504.387 89.1357C504.39 88.9072 504.426 88.6804 504.494 88.4631C504.538 88.2016 504.602 87.944 504.685 87.6927C504.776 87.3531 504.883 87.0184 505.007 86.6899C505.333 85.8402 505.731 85.0218 506.197 84.2441C506.77 83.2828 507.427 82.3781 508.162 81.5416C508.897 80.6885 509.711 79.9104 510.592 79.2181C511.321 78.6716 512.098 78.1967 512.914 77.7996C513.223 77.6338 513.541 77.4868 513.867 77.3594C514.108 77.2559 514.354 77.1661 514.605 77.0903C514.807 77.0038 515.019 76.9461 515.236 76.9191Z" fill="#263238"/>
<path d="M484.393 60.2635C484.625 59.0804 484.627 57.8617 484.398 56.6779C484.169 55.4941 483.714 54.3686 483.059 53.3665C481.691 51.338 479.606 49.9383 477.248 49.4655C477.036 49.386 476.804 49.386 476.593 49.4655C476.319 49.6367 476.295 50.0158 476.307 50.3338C476.418 52.6715 477.253 54.9118 478.689 56.7294C480.152 58.5583 482.133 59.8746 484.357 60.4959" fill="#455A64"/>
<path d="M470.889 76.5644C472.949 81.4559 476.081 84.7822 480.153 85.1246C480.963 85.1979 481.606 84.6843 482.392 84.6721C482.84 84.7981 483.269 84.9874 483.666 85.2347C483.876 85.3365 484.102 85.3986 484.333 85.4181C488.561 85.4181 492.288 82.5932 494.944 77.7139C498.647 70.8903 497.969 63.3451 493.431 60.8382C492.835 60.4977 492.209 60.2152 491.562 59.9944C490.818 59.7506 490.044 59.6187 489.263 59.6031C487.448 59.6417 485.649 59.9633 483.928 60.5569L483.702 60.6303C480.01 58.7715 476.986 58.6126 473.997 59.8966C469.245 61.9633 467.852 69.4106 470.889 76.5644Z" fill="#F06449"/>
<path d="M471.293 69.4962C471.101 69.0439 470.992 68.5587 470.972 68.0655C470.889 66.8763 471.089 65.6843 471.555 64.5925C472.023 63.4916 472.737 62.5195 473.639 61.7554C473.986 61.4277 474.39 61.1704 474.83 60.9972C474.83 60.9972 474.378 61.3274 473.735 61.9266C472.917 62.7148 472.261 63.6628 471.805 64.7148C471.372 65.7714 471.149 66.9066 471.151 68.0532C471.293 68.9337 471.365 69.4718 471.293 69.4962Z" fill="#FAFAFA"/>
<path d="M471.996 72.8591C471.913 72.8591 471.782 72.5289 471.698 72.1009C471.615 71.6729 471.627 71.306 471.698 71.2938C471.77 71.2816 471.913 71.6118 471.996 72.0398C472.079 72.4678 472.091 72.8346 471.996 72.8591Z" fill="#FAFAFA"/>
<path d="M494.551 49.3553C494.551 49.4165 493.67 49.71 492.324 50.4315C491.538 50.8555 490.785 51.3421 490.073 51.8867C488.326 53.2157 486.842 54.8761 485.703 56.7782C485.244 57.5602 484.846 58.378 484.512 59.224C483.928 60.6425 483.738 61.5964 483.678 61.5719C483.681 61.3484 483.713 61.1262 483.774 60.9116C483.828 60.6512 483.895 60.3941 483.976 60.1411C484.061 59.7999 484.169 59.4649 484.298 59.1384C484.624 58.2887 485.022 57.4702 485.488 56.6926C486.622 54.7461 488.134 53.0602 489.93 51.74C490.661 51.1918 491.438 50.7129 492.253 50.3092C492.563 50.1499 492.881 50.007 493.205 49.8812C493.445 49.774 493.692 49.6841 493.944 49.6122C494.133 49.4982 494.338 49.4117 494.551 49.3553Z" fill="#263238"/>
<path d="M531.717 60.2635C531.948 59.0796 531.948 57.8604 531.717 56.6766C531.486 55.4927 531.029 54.3677 530.372 53.3664C529.007 51.3351 526.92 49.9346 524.56 49.4654C524.353 49.3857 524.125 49.3857 523.917 49.4654C523.798 49.5701 523.708 49.7061 523.658 49.859C523.607 50.0119 523.598 50.1759 523.632 50.3337C523.733 52.6735 524.569 54.917 526.013 56.7293C527.472 58.5631 529.455 59.8806 531.682 60.4958" fill="#455A64"/>
<path d="M518.189 76.5644C520.25 81.4559 523.393 84.7822 527.454 85.1246C528.276 85.1979 528.919 84.6843 529.693 84.6721C530.144 84.8002 530.577 84.9894 530.979 85.2347C531.188 85.3395 531.414 85.4018 531.646 85.4181C535.874 85.4181 539.601 82.5932 542.257 77.7139C545.96 70.8903 545.269 63.3451 540.732 60.8382C540.14 60.4978 539.518 60.2153 538.874 59.9944C538.131 59.7516 537.357 59.6198 536.576 59.6031C534.761 59.6408 532.962 59.9624 531.241 60.5569L531.003 60.6303C527.311 58.7715 524.298 58.6126 521.297 59.8966C516.546 61.9633 515.153 69.4106 518.189 76.5644Z" fill="#F06449"/>
<path d="M518.606 69.4962C518.415 69.0441 518.31 68.5584 518.297 68.0655C518.209 66.8761 518.41 65.6831 518.88 64.5925C519.348 63.4949 520.057 62.5237 520.952 61.7554C521.299 61.4277 521.703 61.1704 522.143 60.9972C522.143 60.9972 521.702 61.3274 521.059 61.9266C520.238 62.7117 519.582 63.6604 519.13 64.7148C518.683 65.7671 518.46 66.9053 518.475 68.0532C518.535 68.9337 518.666 69.4718 518.606 69.4962Z" fill="#FAFAFA"/>
<path d="M519.309 72.8591C519.213 72.8591 519.083 72.5289 519.011 72.1009C518.94 71.6729 518.94 71.306 519.011 71.2938C519.083 71.2816 519.237 71.6118 519.309 72.0398C519.38 72.4678 519.392 72.8346 519.309 72.8591Z" fill="#FAFAFA"/>
<path d="M541.864 49.3553C541.864 49.4165 540.97 49.71 539.625 50.4315C538.84 50.8584 538.088 51.3449 537.374 51.8867C535.634 53.2204 534.155 54.8801 533.016 56.7782C532.558 57.5606 532.159 58.3783 531.825 59.224C531.253 60.6425 531.051 61.5964 530.991 61.5719C530.995 61.3476 531.031 61.125 531.098 60.9116C531.142 60.65 531.206 60.3924 531.289 60.1411C531.384 59.8476 531.467 59.5052 531.61 59.1384C531.936 58.2887 532.335 57.4702 532.801 56.6926C533.368 55.7243 534.03 54.8187 534.778 53.9901C535.524 53.1571 536.35 52.4033 537.243 51.74C537.996 51.194 538.793 50.7153 539.625 50.3092C539.97 50.1257 540.304 50.0035 540.577 49.8812C540.819 49.7777 541.065 49.6879 541.316 49.6122C541.487 49.5031 541.671 49.4168 541.864 49.3553Z" fill="#263238"/>
<path d="M507.936 60.6058C508.169 59.4208 508.172 58.2 507.943 57.0141C507.714 55.8281 507.258 54.7006 506.602 53.6966C505.234 51.6681 503.149 50.2684 500.791 49.7956C500.579 49.7161 500.347 49.7161 500.136 49.7956C499.862 49.9668 499.838 50.3459 499.85 50.6638C499.959 53.0058 500.794 55.2508 502.232 57.0717C503.696 58.8967 505.677 60.2087 507.9 60.826" fill="#455A64"/>
<path d="M494.42 76.8456C496.48 81.7372 499.612 85.0634 503.685 85.4058C504.495 85.4792 505.138 84.9656 505.924 84.9656C506.373 85.0817 506.803 85.2672 507.198 85.5159C507.407 85.6177 507.633 85.6798 507.865 85.6993C512.092 85.6993 515.82 82.8744 518.475 77.9952C522.179 71.1837 521.5 63.6263 516.963 61.1194C516.367 60.7789 515.741 60.4964 515.093 60.2756C514.349 60.0359 513.575 59.9083 512.795 59.8966C510.98 59.9239 509.18 60.2415 507.46 60.8382L507.233 60.9115C503.542 59.0528 500.517 58.8938 497.528 60.1778C492.729 62.2445 491.383 69.6918 494.42 76.8456Z" fill="#F06449"/>
<g opacity="0.3">
<path d="M494.42 76.8456C496.48 81.7372 499.612 85.0634 503.685 85.4058C504.495 85.4792 505.138 84.9656 505.924 84.9656C506.373 85.0817 506.803 85.2672 507.198 85.5159C507.407 85.6177 507.633 85.6798 507.865 85.6993C512.092 85.6993 515.82 82.8744 518.475 77.9952C522.179 71.1837 521.5 63.6263 516.963 61.1194C516.367 60.7789 515.741 60.4964 515.093 60.2756C514.349 60.0359 513.575 59.9083 512.795 59.8966C510.98 59.9239 509.18 60.2415 507.46 60.8382L507.233 60.9115C503.542 59.0528 500.517 58.8938 497.528 60.1778C492.729 62.2445 491.383 69.6918 494.42 76.8456Z" fill="black"/>
</g>
<path d="M494.837 69.7775C494.642 69.3258 494.533 68.8402 494.515 68.3467C494.435 67.1577 494.635 65.9665 495.099 64.8737C495.566 63.7728 496.28 62.8007 497.183 62.0366C497.528 61.7101 497.933 61.4566 498.373 61.2907C498.373 61.2907 497.921 61.6209 497.278 62.2201C496.455 62.9969 495.799 63.9425 495.354 64.9957C494.909 66.0489 494.684 67.1864 494.694 68.3345C494.765 69.2149 494.896 69.7652 494.837 69.7775Z" fill="#FAFAFA"/>
<path d="M495.527 73.1405C495.444 73.1405 495.313 72.8104 495.23 72.3824C495.146 71.9543 495.158 71.5875 495.23 71.5753C495.301 71.563 495.444 71.8932 495.527 72.3212C495.611 72.7492 495.623 73.1161 495.527 73.1405Z" fill="#FAFAFA"/>
<path d="M518.082 49.6368C518.082 49.6979 517.201 49.9914 515.855 50.7129C515.069 51.137 514.317 51.6236 513.605 52.1681C512.753 52.8429 511.957 53.5872 511.223 54.3938C510.5 55.2201 509.847 56.1078 509.27 57.0474C508.808 57.8279 508.41 58.6459 508.079 59.4932C507.495 60.924 507.305 61.8656 507.245 61.8411C507.248 61.6176 507.28 61.3954 507.341 61.1808C507.395 60.9205 507.462 60.6633 507.543 60.4103C507.628 60.0691 507.736 59.7341 507.865 59.4076C508.191 58.5579 508.589 57.7394 509.055 56.9618C509.599 55.9654 510.233 55.0237 510.949 54.1492C511.702 53.3193 512.532 52.5657 513.426 51.8991C514.153 51.35 514.931 50.8749 515.748 50.4806C516.056 50.3126 516.374 50.1655 516.701 50.0404C516.941 49.9332 517.187 49.8433 517.439 49.7713C517.646 49.6962 517.863 49.6509 518.082 49.6368Z" fill="#263238"/>
<path d="M528.645 87.8884C528.876 86.7025 528.876 85.4814 528.645 84.2956C528.414 83.1097 527.957 81.9825 527.299 80.9791C525.931 78.9516 523.846 77.5522 521.488 77.0781C521.282 76.9925 521.051 76.9925 520.845 77.0781C520.571 77.2371 520.547 77.6162 520.559 77.9464C520.671 80.2841 521.505 82.5245 522.941 84.3421C524.4 86.1726 526.383 87.4859 528.609 88.0963" fill="#455A64"/>
<path d="M515.117 104.128C517.177 109.02 520.321 112.358 524.382 112.688C525.204 112.762 525.847 112.248 526.621 112.248C527.073 112.366 527.507 112.551 527.907 112.798C528.115 112.905 528.342 112.972 528.574 112.994C532.801 112.994 536.529 110.157 539.184 105.29C542.888 98.4663 542.197 90.9089 537.66 88.402C537.068 88.0616 536.446 87.7791 535.802 87.5582C535.058 87.3195 534.284 87.1918 533.504 87.1791C531.689 87.2054 529.888 87.5231 528.169 88.1207L527.931 88.1941C524.239 86.3353 521.226 86.1763 518.225 87.4604C513.474 89.527 512.08 96.9499 515.117 104.128Z" fill="#F06449"/>
<g opacity="0.3">
<path d="M515.117 104.128C517.177 109.02 520.321 112.358 524.382 112.688C525.204 112.762 525.847 112.248 526.621 112.248C527.073 112.366 527.507 112.551 527.907 112.798C528.115 112.905 528.342 112.972 528.574 112.994C532.801 112.994 536.529 110.157 539.184 105.29C542.888 98.4663 542.197 90.9089 537.66 88.402C537.068 88.0616 536.446 87.7791 535.802 87.5582C535.058 87.3195 534.284 87.1918 533.504 87.1791C531.689 87.2054 529.888 87.5231 528.169 88.1207L527.931 88.1941C524.239 86.3353 521.226 86.1763 518.225 87.4604C513.474 89.527 512.08 96.9499 515.117 104.128Z" fill="black"/>
</g>
<path d="M515.534 97.06C515.338 96.6093 515.233 96.1227 515.224 95.6293C515.141 94.4401 515.341 93.248 515.808 92.1563C516.272 91.0601 516.982 90.0921 517.88 89.3314C518.222 88.9983 518.628 88.7404 519.071 88.5732C519.071 88.5732 518.63 88.9034 517.987 89.5026C517.161 90.2828 516.503 91.2328 516.058 92.2908C515.61 93.3429 515.387 94.4812 515.403 95.6293C515.462 96.5097 515.593 97.0478 515.534 97.06Z" fill="#FAFAFA"/>
<path d="M516.236 100.423C516.141 100.423 516.01 100.105 515.939 99.6647C515.867 99.2244 515.867 98.8698 515.939 98.8576C516.01 98.8453 516.165 99.1755 516.236 99.6158C516.308 100.056 516.32 100.398 516.236 100.423Z" fill="#FAFAFA"/>
<path d="M538.791 76.9191C538.791 76.9802 537.898 77.2737 536.552 77.9952C535.768 78.4222 535.016 78.9086 534.302 79.4505C533.445 80.1227 532.648 80.8716 531.92 81.6883C531.191 82.505 530.537 83.3892 529.967 84.3297C529.506 85.1106 529.108 85.9285 528.776 86.7755C528.204 88.2063 528.002 89.1479 527.942 89.1357C527.945 88.9072 527.981 88.6804 528.05 88.4631C528.093 88.2016 528.157 87.944 528.24 87.6927C528.335 87.3992 528.419 87.0568 528.562 86.6899C528.888 85.8402 529.286 85.0218 529.753 84.2441C530.329 83.2827 530.991 82.378 531.729 81.5416C532.479 80.712 533.304 79.9584 534.194 79.2915C534.925 78.7476 535.702 78.2728 536.517 77.8729C536.827 77.7094 537.145 77.5625 537.469 77.4327C537.71 77.3292 537.957 77.2394 538.208 77.1637C538.391 77.056 538.587 76.9737 538.791 76.9191Z" fill="#263238"/>
<path d="M481.559 88.6099C481.79 87.424 481.79 86.2029 481.559 85.0171C481.328 83.8312 480.87 82.704 480.213 81.7006C478.844 79.6731 476.759 78.2737 474.402 77.7996C474.275 77.7391 474.134 77.7193 473.996 77.7428C473.859 77.7662 473.731 77.8319 473.631 77.9312C473.53 78.0304 473.461 78.1586 473.433 78.2988C473.405 78.439 473.419 78.5847 473.473 78.7168C473.584 81.0545 474.418 83.2949 475.854 85.1125C477.321 86.9408 479.307 88.2533 481.535 88.8667" fill="#455A64"/>
<path d="M468.03 104.85C470.091 109.741 473.235 113.08 477.295 113.41C478.105 113.483 478.748 112.97 479.534 112.97C479.98 113.096 480.408 113.281 480.808 113.52C481.019 113.632 481.25 113.699 481.487 113.716C485.703 113.716 489.442 110.878 492.098 106.011C495.789 99.1878 495.111 91.6304 490.573 89.1235C489.979 88.7881 489.357 88.5058 488.716 88.2797C487.971 88.0418 487.197 87.9141 486.417 87.9006C484.598 87.9268 482.794 88.2445 481.07 88.8422L480.844 88.9156C477.152 87.0568 474.14 86.8978 471.139 88.1818C466.387 90.2485 464.994 97.7081 468.03 104.85Z" fill="#F06449"/>
<g opacity="0.3">
<path d="M468.03 104.85C470.091 109.741 473.235 113.08 477.295 113.41C478.105 113.483 478.748 112.97 479.534 112.97C479.98 113.096 480.408 113.281 480.808 113.52C481.019 113.632 481.25 113.699 481.487 113.716C485.703 113.716 489.442 110.878 492.098 106.011C495.789 99.1878 495.111 91.6304 490.573 89.1235C489.979 88.7881 489.357 88.5058 488.716 88.2797C487.971 88.0418 487.197 87.9141 486.417 87.9006C484.598 87.9268 482.794 88.2445 481.07 88.8422L480.844 88.9156C477.152 87.0568 474.14 86.8978 471.139 88.1818C466.387 90.2485 464.994 97.7081 468.03 104.85Z" fill="black"/>
</g>
<path d="M468.447 97.7815C468.25 97.3306 468.141 96.8446 468.126 96.3507C468.052 95.1609 468.256 93.9701 468.721 92.8778C469.177 91.7767 469.889 90.8069 470.793 90.0529C471.14 89.7251 471.544 89.4679 471.984 89.2947C471.984 89.2947 471.544 89.6249 470.9 90.2241C470.072 90.9965 469.413 91.9413 468.967 92.9955C468.522 94.0498 468.3 95.1894 468.316 96.3385C468.376 97.2312 468.507 97.7693 468.447 97.7815Z" fill="#FAFAFA"/>
<path d="M469.15 101.144C469.055 101.144 468.924 100.826 468.852 100.386C468.781 99.9459 468.781 99.5913 468.852 99.579C468.924 99.5668 469.078 99.897 469.15 100.337C469.221 100.777 469.233 101.132 469.15 101.144Z" fill="#FAFAFA"/>
<path d="M491.705 77.6406C491.705 77.7017 490.812 77.9952 489.466 78.7167C488.684 79.1481 487.932 79.6343 487.215 80.1719C486.361 80.8474 485.564 81.596 484.833 82.4098C484.108 83.2296 483.455 84.1135 482.88 85.0512C482.424 85.8344 482.026 86.652 481.69 87.497C481.106 88.9277 480.916 89.8694 480.856 89.8572C480.858 89.6287 480.895 89.4019 480.963 89.1846C481.008 88.9233 481.072 88.6659 481.154 88.4141C481.243 88.0781 481.35 87.7474 481.475 87.4236C481.802 86.5741 482.2 85.7557 482.666 84.9778C483.238 84.0165 483.896 83.1118 484.631 82.2753C485.384 81.4453 486.214 80.6918 487.108 80.0252C487.84 79.4831 488.617 79.0084 489.43 78.6067C489.776 78.4232 490.097 78.3009 490.383 78.1786C490.622 78.0665 490.869 77.9726 491.121 77.8974C491.307 77.7913 491.502 77.7052 491.705 77.6406Z" fill="#263238"/>
<path d="M559 74.2656H454.109V89.8695H559V74.2656Z" fill="#FF9B6A"/>
<path d="M559 102.844H454.109V118.448H559V102.844Z" fill="#FF9B6A"/>
<path d="M471.984 66.4391H459.075V118.057H471.984V66.4391Z" fill="#FF9B6A"/>
<path d="M553.451 66.4391H540.542V118.057H553.451V66.4391Z" fill="#FF9B6A"/>
<path d="M558.786 90.0162C558.786 90.1997 535.409 90.3464 506.567 90.3464C477.724 90.3464 454.324 90.1997 454.324 90.0162C454.324 89.8328 477.712 89.6983 506.567 89.6983C535.421 89.6983 558.786 89.845 558.786 90.0162Z" fill="#263238"/>
<path d="M558.786 102.844C558.786 103.028 535.409 103.162 506.567 103.162C477.724 103.162 454.324 103.028 454.324 102.844C454.324 102.661 477.712 102.526 506.567 102.526C535.421 102.526 558.786 102.673 558.786 102.844Z" fill="#263238"/>
<path d="M558.786 74.0942C558.786 74.2776 535.409 74.4243 506.567 74.4243C477.724 74.4243 454.324 74.2776 454.324 74.0942C454.324 73.9107 477.712 73.7762 506.567 73.7762C535.421 73.7762 558.786 73.923 558.786 74.0942Z" fill="#263238"/>
<path d="M374.393 60.0433C374.393 60.0433 381.539 65.852 382.67 73.6173C383.801 81.3826 382.67 85.8461 382.67 85.8461C384.907 87.112 387.442 87.7172 389.994 87.5948C392.685 87.6671 395.346 86.9956 397.698 85.6504C397.698 85.6504 396.734 82.3486 396.734 74.2043C396.734 66.0599 404.82 60.0555 404.82 60.0555L401.247 57.0473C401.247 57.0473 395.757 62.2445 393.257 66.5857V55.7877H386.111V67.1238C383.896 61.5964 378.609 57.4386 378.609 57.4386L374.393 60.0433Z" fill="#455A64"/>
<g opacity="0.3">
<path d="M374.393 60.0433C374.393 60.0433 381.539 65.852 382.67 73.6173C383.801 81.3826 382.67 85.8461 382.67 85.8461C384.907 87.112 387.442 87.7172 389.994 87.5948C392.685 87.6671 395.346 86.9956 397.698 85.6504C397.698 85.6504 396.734 82.3486 396.734 74.2043C396.734 66.0599 404.82 60.0555 404.82 60.0555L401.247 57.0473C401.247 57.0473 395.757 62.2445 393.257 66.5857V55.7877H386.111V67.1238C383.896 61.5964 378.609 57.4386 378.609 57.4386L374.393 60.0433Z" fill="black"/>
</g>
<path d="M371.261 65.6198C364.45 66.378 360.115 61.2419 360.949 55.58C358.686 55.262 353.149 51.0064 354.637 44.5741C355.899 39.0711 361.913 36.98 366.355 37.9705C366.123 35.7429 366.559 33.4957 367.603 31.529C368.648 29.5624 370.253 27.97 372.202 26.9646C374.197 26.0204 376.419 25.7058 378.588 26.0606C380.757 26.4155 382.775 27.4239 384.385 28.9579C385.842 26.6392 387.938 24.8191 390.407 23.73C392.877 22.6409 395.606 22.3322 398.246 22.8435C400.856 23.4276 403.233 24.8071 405.067 26.8013C406.9 28.7955 408.105 31.3117 408.523 34.0206C410.349 32.7184 412.589 32.1795 414.788 32.5134C416.987 32.8474 418.98 34.0291 420.361 35.8183C421.584 37.7009 422.032 40.0046 421.605 42.2252C421.179 44.4459 419.914 46.4029 418.086 47.668C419.694 48.5788 420.987 49.9796 421.787 51.6771C422.587 53.3746 422.854 55.2852 422.552 57.1453C422.158 58.996 421.222 60.6788 419.871 61.9683C418.519 63.2578 416.816 64.0924 414.99 64.3603C411.31 64.8494 407.845 63.5287 406.261 60.1535C404.367 61.7677 401.045 61.3153 398.83 60.1535C397.742 59.5827 396.837 58.7029 396.223 57.6188C395.608 56.5348 395.31 55.2922 395.364 54.0391C393.971 56.9496 390.756 58.3804 387.576 58.7594C384.397 59.1385 382.753 57.8301 379.979 54.9441C379.502 61.5721 377.132 64.9717 371.261 65.6198Z" fill="#455A64"/>
<g opacity="0.3">
<path d="M404.296 43.9991C404.236 43.9991 404.201 43.5589 403.951 42.7762C403.577 41.7354 402.974 40.7977 402.188 40.037C401.56 39.3953 400.807 38.898 399.978 38.5778C399.149 38.2576 398.264 38.1219 397.38 38.1798C396.496 38.2376 395.634 38.4875 394.851 38.9131C394.069 39.3387 393.383 39.9302 392.84 40.6484C392.127 41.5231 391.658 42.5794 391.482 43.7056L391.339 44.745L390.911 43.7912C390.586 43.088 390.108 42.4714 389.513 41.9898C388.918 41.5082 388.223 41.1746 387.481 41.0153C386.274 40.752 385.015 40.9799 383.968 41.6512C383.03 42.2779 382.273 43.1522 381.777 44.1825C381.797 43.8667 381.891 43.5604 382.051 43.2898C382.442 42.4927 383.029 41.8142 383.754 41.321C384.308 40.9309 384.933 40.6576 385.591 40.517C386.249 40.3764 386.928 40.3711 387.588 40.5017C388.421 40.6597 389.206 41.0179 389.879 41.5472C390.552 42.0764 391.093 42.7615 391.458 43.5466L390.887 43.6322C391.064 42.3904 391.571 41.2227 392.352 40.2571C393.027 39.4164 393.877 38.7409 394.839 38.2797C395.801 37.8186 396.851 37.5834 397.913 37.5912C399.645 37.6872 401.279 38.4516 402.486 39.7312C403.299 40.5528 403.883 41.5831 404.177 42.7151C404.311 43.1283 404.351 43.5674 404.296 43.9991Z" fill="black"/>
</g>
<g opacity="0.3">
<path d="M361.949 52.9263C361.878 52.9263 361.806 52.4249 362.056 51.7034C362.432 50.7237 363.126 49.9073 364.021 49.3922C364.909 48.848 365.951 48.6322 366.974 48.7807C367.76 48.9153 368.165 49.2332 368.165 49.2944C368.165 49.3555 367.689 49.2332 366.974 49.221C366.065 49.2118 365.17 49.4532 364.383 49.9199C363.595 50.3866 362.944 51.0617 362.497 51.8747C362.128 52.4494 362.044 52.9263 361.949 52.9263Z" fill="black"/>
</g>
<path d="M436.687 46.3593C436.687 46.3593 438.854 53.9656 435.889 59.9699C434.434 63.1749 432.415 66.0769 429.935 68.5301C430.877 70.5453 432.361 72.2424 434.21 73.4216C436.077 74.8093 438.274 75.6542 440.569 75.8674C440.569 75.8674 441.498 73.0792 445.464 67.3072C449.429 61.5352 458.039 61.364 458.039 61.364L457.003 57.4997C453.497 58.0184 450.058 58.9372 446.75 60.239L452.013 52.6693L447.012 49.1474L441.522 57.1328C442.13 53.6307 441.943 50.0316 440.974 46.6161L436.687 46.3593Z" fill="#455A64"/>
<g opacity="0.3">
<path d="M436.687 46.3593C436.687 46.3593 438.854 53.9656 435.889 59.9699C434.434 63.1749 432.415 66.0769 429.935 68.5301C430.877 70.5453 432.361 72.2424 434.21 73.4216C436.077 74.8093 438.274 75.6542 440.569 75.8674C440.569 75.8674 441.498 73.0792 445.464 67.3072C449.429 61.5352 458.039 61.364 458.039 61.364L457.003 57.4997C453.497 58.0184 450.058 58.9372 446.75 60.239L452.013 52.6693L447.012 49.1474L441.522 57.1328C442.13 53.6307 441.943 50.0316 440.974 46.6161L436.687 46.3593Z" fill="black"/>
</g>
<path d="M431.805 48.7562C426.648 45.9191 426.124 40.196 429.423 36.6007C428.21 35.0014 427.635 32.9882 427.814 30.9694C427.993 28.9505 428.913 27.0772 430.387 25.7294C433.96 22.4887 439.188 24.0051 441.832 26.8911C442.757 25.2144 444.149 23.8606 445.83 23.0041C447.511 22.1475 449.404 21.8275 451.263 22.0852C453.108 22.3923 454.819 23.2658 456.171 24.5908C457.523 25.9158 458.452 27.6301 458.837 29.508C460.973 28.5989 463.325 28.3635 465.592 28.8317C467.859 29.2999 469.939 30.4507 471.567 32.1372C473.115 33.8471 474.114 36.0037 474.429 38.3154C474.744 40.6271 474.36 42.9825 473.33 45.0631C474.285 44.9879 475.246 45.1155 476.151 45.4382C477.057 45.7608 477.887 46.2715 478.592 46.9384C479.297 47.6053 479.86 48.4141 480.247 49.3145C480.634 50.2148 480.837 51.1873 480.842 52.1714C480.846 53.1555 480.654 54.1301 480.276 55.0345C479.898 55.9388 479.343 56.7535 478.645 57.4278C477.947 58.1021 477.121 58.6215 476.219 58.9537C475.317 59.2859 474.357 59.4237 473.401 59.3585C474.078 60.8126 474.299 62.4467 474.032 64.0349C473.765 65.6232 473.025 67.0872 471.913 68.2244C470.74 69.3266 469.272 70.0427 467.7 70.2803C466.127 70.5179 464.521 70.2661 463.088 69.5574C460.266 68.0777 458.492 65.4485 459.016 62.2812C456.896 62.4769 454.788 60.5203 453.788 58.6126C453.296 57.659 453.088 56.5779 453.189 55.5038C453.291 54.4297 453.698 53.41 454.359 52.5715C451.978 53.9289 449.013 53.3419 446.595 52.0335C444.178 50.725 443.666 48.9885 443.118 45.6011C439.521 49.9546 436.199 51.1775 431.805 48.7562Z" fill="#455A64"/>
<g opacity="0.3">
<path d="M465.494 49.8813C465.574 49.536 465.678 49.1968 465.804 48.8663C466.045 47.9609 466.074 47.0094 465.887 46.0904C465.628 44.7271 464.886 43.5111 463.803 42.6785C463.111 42.2017 462.326 41.8876 461.502 41.7587C460.679 41.6297 459.838 41.6891 459.04 41.9326C458.132 42.1939 457.309 42.7007 456.658 43.4L455.943 44.1704L456.146 43.131C456.256 42.4874 456.219 41.8263 456.037 41.2001C455.855 40.574 455.533 39.9999 455.098 39.5235C454.378 38.7449 453.391 38.2844 452.347 38.2395C451.385 38.2166 450.434 38.4482 449.584 38.9121C449.584 38.9121 449.751 38.6675 450.203 38.3984C450.865 38.0315 451.607 37.8423 452.359 37.8482C452.938 37.8443 453.513 37.9591 454.048 38.1858C454.584 38.4126 455.07 38.7468 455.479 39.1689C455.978 39.7043 456.346 40.3538 456.553 41.0639C456.76 41.7739 456.8 42.5243 456.67 43.2533L456.158 42.9842C456.892 42.1988 457.817 41.6289 458.837 41.3333C459.72 41.072 460.649 41.0165 461.555 41.1709C462.462 41.3254 463.323 41.6859 464.077 42.2261C465.25 43.1503 466.031 44.5039 466.256 46.0047C466.421 46.9956 466.323 48.0139 465.97 48.9519C465.879 49.2935 465.716 49.6106 465.494 49.8813Z" fill="black"/>
</g>
<g opacity="0.3">
<path d="M431.435 35.1946C431.435 35.1946 431.555 34.7543 432.114 34.3386C432.857 33.8336 433.742 33.5968 434.631 33.6655C435.519 33.7341 436.36 34.1043 437.021 34.7176C437.497 35.219 437.616 35.6348 437.556 35.6715C437.497 35.7082 437.223 35.4025 436.735 35.0601C436.095 34.6118 435.352 34.3459 434.579 34.2897C433.809 34.2212 433.035 34.3692 432.34 34.7176C431.805 34.9867 431.507 35.2557 431.435 35.1946Z" fill="black"/>
</g>
<path d="M412.608 88.3898C412.608 88.3898 418.646 93.4647 419.539 100.117C420.127 103.581 420.078 107.127 419.396 110.573C421.292 111.686 423.453 112.237 425.636 112.163C427.94 112.259 430.226 111.719 432.257 110.597C432.257 110.597 431.471 107.76 431.566 100.814C431.662 93.8683 438.712 88.7811 438.712 88.7811L435.699 86.1641C433.087 88.5719 430.753 91.28 428.744 94.2352L428.863 84.9902L422.766 84.9046L422.587 94.5042C421.131 91.2524 418.967 88.3868 416.264 86.1275L412.608 88.3898Z" fill="#455A64"/>
<g opacity="0.3">
<path d="M412.608 88.3898C412.608 88.3898 418.646 93.4647 419.539 100.117C420.127 103.581 420.078 107.127 419.396 110.573C421.292 111.686 423.453 112.237 425.636 112.163C427.94 112.259 430.226 111.719 432.257 110.597C432.257 110.597 431.471 107.76 431.566 100.814C431.662 93.8683 438.712 88.7811 438.712 88.7811L435.699 86.1641C433.087 88.5719 430.753 91.28 428.744 94.2352L428.863 84.9902L422.766 84.9046L422.587 94.5042C421.131 91.2524 418.967 88.3868 416.264 86.1275L412.608 88.3898Z" fill="black"/>
</g>
<path d="M409.905 93.0979C404.058 93.6605 400.378 89.2092 401.188 84.3788C399.304 83.7541 397.718 82.4257 396.743 80.6569C395.768 78.8881 395.476 76.8078 395.924 74.8281C397.115 70.1445 402.248 68.4202 406.034 69.3129C405.868 67.41 406.27 65.5001 407.187 63.8376C408.104 62.1752 409.492 60.8389 411.167 60.0068C412.887 59.2276 414.793 58.9883 416.645 59.3191C418.497 59.6498 420.212 60.5358 421.575 61.8656C422.852 59.9102 424.665 58.3877 426.785 57.4908C428.905 56.594 431.236 56.3631 433.484 56.8273C435.712 57.3581 437.732 58.5681 439.28 60.2987C440.827 62.0292 441.828 64.1994 442.153 66.5248C443.731 65.4322 445.655 64.9985 447.534 65.3121C449.412 65.6256 451.104 66.6628 452.264 68.2123C453.286 69.8393 453.641 71.8154 453.25 73.7098C452.86 75.6042 451.756 77.2633 450.18 78.3255C451.545 79.1253 452.635 80.3409 453.298 81.8043C453.962 83.2676 454.166 84.9066 453.883 86.4944C453.527 88.0791 452.708 89.5142 451.535 90.6071C450.362 91.7 448.892 92.3985 447.321 92.6088C444.166 92.9757 441.236 91.8017 439.902 88.9402C438.259 90.2976 435.425 89.8695 433.531 88.8668C432.6 88.3583 431.832 87.5848 431.319 86.639C430.806 85.6933 430.569 84.6155 430.638 83.535C429.447 85.9808 426.648 87.2037 423.921 87.4849C421.194 87.7662 419.801 86.6289 417.455 84.122C416.967 89.735 414.894 92.621 409.905 93.0979Z" fill="#455A64"/>
<g opacity="0.3">
<path d="M438.402 74.938C438.402 74.938 438.319 74.5589 438.104 73.923C437.802 73.0305 437.295 72.2254 436.628 71.575C436.1 71.0215 435.464 70.5893 434.761 70.3073C434.059 70.0253 433.306 69.8997 432.553 69.939C431.8 69.9783 431.063 70.1816 430.392 70.5353C429.721 70.889 429.131 71.3852 428.661 71.9908C428.045 72.7254 427.634 73.6168 427.47 74.5711L427.303 75.6105L426.898 74.6445C426.635 74.0381 426.239 73.5021 425.741 73.078C425.243 72.6539 424.657 72.353 424.028 72.1987C423.002 71.9631 421.928 72.1427 421.027 72.7001C420.222 73.2248 419.562 73.9533 419.11 74.8157C419.126 74.5425 419.207 74.2776 419.348 74.0452C419.686 73.3614 420.196 72.7829 420.825 72.3699C421.304 72.0349 421.845 71.8027 422.413 71.6871C422.982 71.5715 423.568 71.575 424.135 71.6973C424.853 71.8418 425.527 72.1587 426.102 72.6221C426.678 73.0854 427.138 73.6821 427.446 74.3632L426.874 74.4488C427.043 73.3811 427.497 72.3821 428.184 71.5628C428.773 70.8416 429.512 70.2659 430.347 69.8785C431.182 69.4911 432.091 69.3019 433.007 69.3249C434.5 69.4326 435.899 70.1137 436.925 71.2326C437.605 71.9566 438.09 72.8502 438.331 73.8251C438.451 74.1827 438.476 74.5672 438.402 74.938Z" fill="black"/>
</g>
<g opacity="0.3">
<path d="M402.045 82.0797C401.974 82.0797 401.902 81.6516 402.117 81.0035C402.446 80.1579 403.052 79.457 403.831 79.0225C404.609 78.562 405.518 78.3934 406.404 78.5456C407.071 78.6801 407.404 78.9613 407.368 79.0225C407.333 79.0836 406.951 79.0225 406.356 79.0225C405.581 79.019 404.818 79.2212 404.141 79.6095C403.469 79.9932 402.91 80.5548 402.521 81.2359C402.224 81.7128 402.14 82.0919 402.045 82.0797Z" fill="black"/>
</g>
<path d="M358.591 60.826V118.093H478.308V60.826H358.591ZM436.961 89.1601H399.925C395.472 89.1601 391.863 85.8461 391.863 81.7617C391.863 77.6773 395.436 74.4244 399.925 74.4244H436.961C441.415 74.4244 445.023 77.7384 445.023 81.7617C445.023 85.7849 441.415 89.1601 436.961 89.1601Z" fill="#FF9B6A"/>
<path d="M477.665 74.3756C477.665 74.5468 451.299 74.6813 418.777 74.6813C386.254 74.6813 359.877 74.5468 359.877 74.3756C359.877 74.2044 386.242 74.0577 418.777 74.0577C451.311 74.0577 477.665 74.2044 477.665 74.3756Z" fill="#263238"/>
<path d="M477.665 89.4169C477.665 89.5881 451.299 89.7349 418.777 89.7349C386.254 89.7349 359.877 89.5881 359.877 89.4169C359.877 89.2457 386.242 89.1112 418.777 89.1112C451.311 89.1112 477.665 89.2457 477.665 89.4169Z" fill="#263238"/>
<path d="M477.665 104.47C477.665 104.642 451.299 104.776 418.777 104.776C386.254 104.776 359.877 104.642 359.877 104.47C359.877 104.299 386.242 104.165 418.777 104.165C451.311 104.165 477.665 104.287 477.665 104.47Z" fill="#263238"/>
<path d="M391.506 104.654C391.093 99.5715 391.093 94.4626 391.506 89.3802C391.903 94.4633 391.903 99.5709 391.506 104.654Z" fill="#263238"/>
<path d="M449.024 104.654C448.612 99.5715 448.612 94.4626 449.024 89.3802C449.421 94.4633 449.421 99.5709 449.024 104.654Z" fill="#263238"/>
<path d="M418.241 117.983C417.828 113.53 417.828 109.046 418.241 104.593C418.638 109.047 418.638 113.529 418.241 117.983Z" fill="#263238"/>
<path d="M418.777 74.2166C418.36 69.7429 418.36 65.2386 418.777 60.7649C419.193 65.2386 419.193 69.7429 418.777 74.2166Z" fill="#263238"/>
</svg>
