<svg width="280" height="329" viewBox="0 0 280 329" fill="none" xmlns="http://www.w3.org/2000/svg">
<path d="M17.9856 194.858H23.7913V64.7495H17.9856" fill="#AE7461"/>
<path d="M262.107 64.7495H256.301V194.858H262.107V64.7495Z" fill="#AE7461"/>
<path d="M265.751 194.858H12.4646V201.746H265.751V194.858Z" fill="#AE7461"/>
<path d="M268.357 329H14.6445L15.0329 254.442L20.3786 251.137V201.002H261.559V253.891L268.357 254.678V329Z" fill="#AE7461"/>
<path d="M265.75 201.677C265.75 201.725 209.126 201.763 139.293 201.763C69.436 201.763 12.8239 201.725 12.8239 201.677C12.8239 201.631 69.436 201.592 139.293 201.592C209.126 201.592 265.75 201.631 265.75 201.677Z" fill="#263238"/>
<path d="M268.822 249.479H10.5859V254.678H268.822V249.479Z" fill="#6F4439"/>
<path d="M62.9905 193.838C76.6348 191.619 85.9005 178.736 83.6861 165.064C81.4718 151.391 68.6158 142.106 54.9716 144.325C41.3274 146.544 32.0616 159.427 34.276 173.099C36.4904 186.772 49.3463 196.057 62.9905 193.838Z" fill="#455A64"/>
<g opacity="0.3">
<path d="M82.5425 166.643C81.2206 164.753 78.7085 164.254 76.5267 163.514C74.3448 162.773 71.978 161.124 72.161 158.823C72.2501 157.693 72.9561 156.72 73.6359 155.814C74.707 154.387 75.7781 152.958 76.8482 151.531C75.6028 150.257 74.2228 149.116 72.7305 148.131C71.0948 150.042 69.5259 152.033 68.5788 154.354C67.4758 157.059 67.3489 160.341 68.9875 162.759C70.4324 164.892 72.9329 165.986 75.2028 167.198C77.4728 168.41 79.8116 170.089 80.3713 172.605C80.9524 175.216 79.4378 177.769 78.2466 180.162C77.0196 182.628 76.0967 185.242 75.4779 187.928C78.8548 184.957 81.4269 181.093 82.8243 176.7C82.9822 175.372 83.1391 174.046 83.2969 172.718C83.5419 170.643 83.7385 168.354 82.5425 166.643Z" fill="white"/>
</g>
<g opacity="0.3">
<path d="M60.1875 181.993C62.5931 179.323 64.9676 176.15 64.8001 172.557C64.5832 167.897 60.2417 164.498 58.8617 160.042C57.8652 156.824 58.516 153.276 59.9415 150.224C60.9099 148.15 62.2134 146.265 63.6138 144.45C62.1088 144.166 60.5623 144.001 58.975 144.001C58.6206 144.001 58.2691 144.014 57.9185 144.028C56.2053 146.194 55.665 149.171 55.9022 151.954C56.1647 155.021 57.2357 157.95 58.1199 160.898C59.0041 163.846 59.7139 166.946 59.2268 169.985C58.7058 173.241 56.8639 176.119 54.9193 178.779C52.9747 181.439 50.8567 184.037 49.6336 187.099C49.0245 188.623 48.6739 190.306 48.702 191.948C50.3938 192.713 52.1825 193.298 54.0496 193.671C54.2133 192.775 54.252 191.838 54.4254 190.939C55.1033 187.406 57.7819 184.664 60.1875 181.993Z" fill="white"/>
</g>
<g opacity="0.3">
<path d="M40.4394 182.757C39.2628 178.291 39.3122 173.229 41.8824 169.395C43.5016 166.981 45.9701 165.263 48.5374 163.906C49.6898 163.296 50.9478 162.677 51.5627 161.527C52.5031 159.769 51.5182 157.572 50.1808 156.095C48.8434 154.618 47.1244 153.432 46.2093 151.661C45.5159 150.321 45.5701 148.454 46.4582 147.366C44.9368 148.249 43.5132 149.283 42.2165 150.456C42.2668 150.674 42.3201 150.893 42.4053 151.103C43.2653 153.227 45.6437 154.706 45.7609 156.995C45.849 158.737 44.5378 160.245 43.0977 161.223C41.6577 162.202 39.9978 162.879 38.7389 164.082C36.6732 166.057 36.0389 169.111 35.9972 171.971C35.9624 174.427 36.28 176.894 36.1396 179.337C37.3191 181.971 38.9383 184.362 40.9052 186.418C40.9536 186.187 40.9856 185.951 40.9904 185.718C41.0079 184.711 40.696 183.731 40.4394 182.757Z" fill="white"/>
</g>
<path d="M98.8131 175.011L78.2515 173.762L65.2262 173.326L58.9751 173.013L59.7517 179.862L62.4962 185.381L72.6986 192.787L84.1221 193.64L96.6157 185.411L99.8387 176.885L98.8131 175.011Z" fill="#FF725E"/>
<path d="M55.4062 172.833C55.4062 172.833 54.7584 195.767 79.1481 196.242C103.538 196.716 103.241 175.233 103.241 175.233L101.502 175.146C101.502 175.146 95.1455 195.172 77.5647 193.041C59.984 190.911 58.5129 172.989 58.5129 172.989L57.191 172.923L55.4062 172.833Z" fill="#455A64"/>
<path d="M59.7566 173.052C59.7566 173.052 59.5503 190.615 79.5192 191.729C79.5192 191.729 90.689 192.938 95.2987 185.77C99.9084 178.603 98.8131 175.011 98.8131 175.011L101.501 175.146C101.501 175.146 99.4842 183.967 97.5338 186.064C95.5834 188.161 90.0014 195.182 78.9865 194.559C67.9707 193.936 61.8183 187.757 59.3111 181.97C56.8038 176.183 57.1902 172.923 57.1902 172.923L59.2549 173.027L59.7566 173.052Z" fill="#455A64"/>
<path d="M59.7566 173.052C59.7566 173.052 59.5503 190.615 79.5192 191.729C79.5192 191.729 90.5902 192.27 95.1989 185.103C99.8076 177.935 98.8131 175.012 98.8131 175.012L101.501 175.147C101.501 175.147 100.283 182.647 97.5338 186.065C95.0372 189.17 90.0014 195.183 78.9865 194.56C67.9707 193.937 61.8183 187.758 59.3111 181.971C56.8038 176.184 57.1902 172.924 57.1902 172.924L59.2549 173.028L59.7566 173.052Z" fill="white"/>
<path d="M80.4857 186.053C80.4624 185.964 80.3482 185.938 80.2881 186.008C79.9908 186.355 79.34 187.19 79.3943 187.786C79.464 188.555 80.1516 188.559 80.414 188.45C80.7995 188.292 81.0077 187.868 80.7791 187.1C80.6639 186.716 80.5506 186.297 80.4857 186.053Z" fill="#263238"/>
<path d="M68.5392 182.5C68.515 182.41 68.4017 182.384 68.3416 182.454C68.0443 182.801 67.3935 183.636 67.4478 184.232C67.5185 185.001 68.2051 185.005 68.4685 184.897C68.8539 184.738 69.0621 184.314 68.8336 183.546C68.7174 183.162 68.6041 182.743 68.5392 182.5Z" fill="#263238"/>
<path d="M87.1455 181.533C87.1212 181.444 87.0079 181.418 86.9479 181.488C86.6506 181.835 85.9998 182.67 86.054 183.265C86.1247 184.035 86.8114 184.039 87.0748 183.93C87.4602 183.772 87.6684 183.348 87.4399 182.579C87.3236 182.197 87.2103 181.777 87.1455 181.533Z" fill="#263238"/>
<path d="M72.0139 176.493C71.9896 176.404 71.8763 176.377 71.8163 176.447C71.519 176.795 70.8682 177.629 70.9224 178.225C70.9931 178.995 71.6797 178.999 71.9432 178.89C72.3286 178.732 72.5368 178.308 72.3082 177.539C72.192 177.156 72.0787 176.736 72.0139 176.493Z" fill="#263238"/>
<path d="M93.0646 183.758C93.0403 183.668 92.927 183.642 92.867 183.712C92.5697 184.059 91.9189 184.894 91.9731 185.49C92.0429 186.259 92.7304 186.262 92.9939 186.155C93.3793 185.996 93.5875 185.572 93.359 184.804C93.2427 184.42 93.1285 184.001 93.0646 183.758Z" fill="#263238"/>
<path d="M92.6674 176.854C92.6432 176.765 92.5299 176.738 92.4698 176.808C92.1725 177.156 91.5218 177.99 91.576 178.586C91.6457 179.356 92.3333 179.36 92.5967 179.252C92.9821 179.094 93.1904 178.67 92.9618 177.901C92.8456 177.517 92.7313 177.097 92.6674 176.854Z" fill="#263238"/>
<path d="M82.0129 176.458C81.9886 176.369 81.8753 176.342 81.8153 176.412C81.518 176.76 80.8672 177.594 80.9214 178.19C80.9912 178.96 81.6787 178.964 81.9412 178.855C82.3266 178.697 82.5348 178.273 82.3063 177.504C82.192 177.121 82.0777 176.702 82.0129 176.458Z" fill="#263238"/>
<path d="M63.6825 174.595C63.6583 174.505 63.545 174.479 63.485 174.549C63.1876 174.896 62.5369 175.731 62.5911 176.327C62.6608 177.096 63.3484 177.1 63.6118 176.992C63.9972 176.833 64.2055 176.409 63.9769 175.641C63.8607 175.257 63.7474 174.838 63.6825 174.595Z" fill="#263238"/>
<path d="M76.0125 180.894C75.9883 180.804 75.875 180.778 75.815 180.848C75.5177 181.196 74.8669 182.03 74.9211 182.626C74.9909 183.396 75.6784 183.399 75.9418 183.291C76.3273 183.133 76.5355 182.708 76.3069 181.94C76.1917 181.557 76.0774 181.136 76.0125 180.894Z" fill="#263238"/>
<path d="M103.242 175.233C103.242 175.233 103.248 175.297 103.248 175.423C103.248 175.549 103.247 175.736 103.234 175.981C103.211 176.471 103.154 177.193 103.016 178.114C102.732 179.946 102.143 182.628 100.583 185.587C99.7989 187.055 98.7734 188.592 97.3982 189.994C96.0317 191.401 94.3389 192.682 92.374 193.684C90.412 194.689 88.1875 195.41 85.8294 195.829C83.4703 196.252 80.9815 196.383 78.4461 196.294C75.9098 196.204 73.4336 195.861 71.1287 195.188C68.8239 194.526 66.6992 193.535 64.8785 192.289C63.054 191.047 61.5394 189.562 60.3405 188.011C59.1387 186.459 58.2458 184.848 57.5786 183.322C56.2567 180.252 55.7792 177.561 55.5575 175.719C55.45 174.794 55.4122 174.071 55.3996 173.581C55.3919 173.335 55.3948 173.149 55.3957 173.023C55.3986 172.897 55.4064 172.832 55.4064 172.832C55.4064 172.832 55.4103 172.896 55.4141 173.023C55.418 173.148 55.4219 173.335 55.4345 173.579C55.4587 174.068 55.5071 174.788 55.6243 175.71C55.8664 177.545 56.3613 180.223 57.6909 183.271C58.362 184.787 59.2559 186.384 60.4538 187.922C61.6488 189.458 63.1557 190.927 64.9676 192.155C66.7757 193.388 68.8849 194.368 71.1752 195.023C73.4646 195.689 75.9273 196.029 78.452 196.119C80.9757 196.207 83.4529 196.077 85.7984 195.661C88.143 195.246 90.351 194.533 92.3004 193.539C94.2518 192.549 95.9339 191.284 97.2936 189.892C98.663 188.506 99.6875 186.983 100.474 185.526C102.039 182.592 102.645 179.925 102.948 178.102C103.096 177.185 103.163 176.465 103.198 175.977C103.216 175.733 103.223 175.546 103.23 175.42C103.236 175.297 103.242 175.233 103.242 175.233Z" fill="#263238"/>
<path d="M216.657 158.34C220.031 157.171 223.002 154.567 223.076 151.273C223.079 151.136 223.077 150.999 223.072 150.862C222.928 147.867 220.145 145.759 217.29 145.732C214.826 145.709 212.496 146.84 210.215 147.626C208.73 148.137 205.673 149.317 201.603 146.381C200.629 145.678 198.59 145.079 197.222 146.972C196.514 147.954 196.184 149.407 197.51 151.061C203.291 158.271 210.592 160.443 216.657 158.34Z" fill="#FF725E"/>
<path d="M196.069 149.02C196.032 148.884 196 148.743 195.98 148.595C195.937 148.292 195.922 147.993 195.948 147.7C195.955 147.628 195.963 147.556 195.974 147.486C195.987 147.41 196.003 147.337 196.022 147.263C196.152 146.75 196.443 146.276 196.984 145.879C196.206 144.978 196.222 143.907 196.222 143.907C196.593 143.402 197.285 143.798 197.285 143.798C196.905 144.723 197.442 145.577 197.442 145.577C198.515 144.95 199.365 145.048 200.239 145.419C201.067 145.77 201.451 145.666 201.451 145.666C201.451 145.666 201.059 146.401 200.055 146.484C199.05 146.566 199.05 146.566 199.05 146.566C199.05 146.566 199.282 146.662 199.483 147.092C199.484 147.095 199.485 147.097 199.487 147.1C199.5 147.128 199.513 147.157 199.525 147.188C199.53 147.2 199.535 147.212 199.539 147.224C199.549 147.248 199.558 147.273 199.567 147.3C199.575 147.321 199.582 147.345 199.589 147.368C199.596 147.388 199.603 147.406 199.609 147.428C199.62 147.469 199.633 147.512 199.643 147.557C199.644 147.562 199.646 147.567 199.647 147.571C199.725 147.889 199.841 148.134 199.956 148.318C200.149 148.622 200.338 148.752 200.338 148.752C200.338 148.752 198.118 149.543 197.686 147.955C197.686 147.955 197.678 148.095 197.61 148.301C197.592 148.353 197.572 148.408 197.547 148.466C197.534 148.495 197.521 148.525 197.506 148.555C197.432 148.708 197.327 148.875 197.179 149.038C196.706 149.559 196.73 150.399 196.73 150.399C196.732 150.401 196.288 149.824 196.069 149.02Z" fill="#455A64"/>
<path d="M212.249 148.394C212.273 148.438 212.793 148.163 213.683 147.862C214.569 147.56 215.844 147.252 217.27 147.26C218.688 147.26 219.906 147.851 220.584 148.467C221.279 149.087 221.479 149.667 221.533 149.636C221.549 149.631 221.516 149.483 221.402 149.238C221.292 148.99 221.075 148.655 220.732 148.308C220.055 147.614 218.773 146.951 217.272 146.951C215.797 146.944 214.491 147.296 213.607 147.657C212.718 148.019 212.231 148.365 212.249 148.394Z" fill="white"/>
<path d="M203.309 148.449C203.288 148.474 203.581 148.777 204.168 149.113C204.751 149.451 205.648 149.784 206.683 149.864C207.718 149.941 208.656 149.748 209.283 149.503C209.915 149.26 210.251 149.005 210.233 148.977C210.209 148.931 209.841 149.114 209.214 149.297C208.591 149.481 207.695 149.631 206.706 149.558C205.718 149.48 204.856 149.197 204.267 148.919C203.676 148.645 203.34 148.408 203.309 148.449Z" fill="white"/>
<path d="M201.124 147.007C201.073 147.074 201.146 147.218 201.29 147.328C201.433 147.437 201.59 147.471 201.642 147.403C201.694 147.336 201.62 147.193 201.477 147.083C201.333 146.973 201.176 146.94 201.124 147.007Z" fill="white"/>
<path d="M237.038 164.619H192.269V194.858H237.038V164.619Z" fill="#455A64"/>
<path d="M192.269 158.3L206.237 162.93H213.073L226.146 158.3H192.269Z" fill="#455A64"/>
<path d="M214.179 162.93H204.833V164.619H214.179V162.93Z" fill="#455A64"/>
<path d="M241.504 149.905H225.791C224.426 149.905 223.319 148.797 223.319 147.429V141.858C223.319 140.49 224.425 139.381 225.791 139.381H241.504C242.868 139.381 243.975 140.489 243.975 141.858V147.429C243.975 148.796 242.868 149.905 241.504 149.905Z" fill="#455A64"/>
<path d="M240.542 147.822H226.862C226.249 147.822 225.753 147.324 225.753 146.711V142.463C225.753 141.849 226.25 141.352 226.862 141.352H240.542C241.155 141.352 241.651 141.85 241.651 142.463V146.711C241.652 147.324 241.155 147.822 240.542 147.822Z" fill="#263238"/>
<path d="M234.83 149.905H231.894V164.619H234.83V149.905Z" fill="#455A64"/>
<path d="M234.377 169.137C234.377 169.687 233.923 170.134 233.362 170.134C232.801 170.134 232.347 169.687 232.347 169.137C232.347 168.586 232.801 168.14 233.362 168.14C233.923 168.139 234.377 168.586 234.377 169.137Z" fill="#E0E0E0"/>
<path d="M197.089 169.078C197.089 169.628 196.635 170.075 196.074 170.075C195.513 170.075 195.059 169.628 195.059 169.078C195.059 168.527 195.513 168.081 196.074 168.081C196.635 168.081 197.089 168.527 197.089 169.078Z" fill="#E0E0E0"/>
<path d="M237.088 172.704C237.088 172.82 227.059 172.914 214.692 172.914C202.319 172.914 192.292 172.82 192.292 172.704C192.292 172.589 202.319 172.495 214.692 172.495C227.059 172.496 237.088 172.589 237.088 172.704Z" fill="#263238"/>
<path d="M237.088 164.619C237.088 164.734 227.059 164.828 214.692 164.828C202.319 164.828 192.292 164.734 192.292 164.619C192.292 164.503 202.319 164.409 214.692 164.409C227.059 164.409 237.088 164.503 237.088 164.619Z" fill="#263238"/>
<path d="M227.075 156.408H190.635V158.299H227.075V156.408Z" fill="#455A64"/>
<path d="M233.702 191.778C233.697 191.773 233.692 191.679 233.686 191.5C233.683 191.3 233.678 191.04 233.671 190.711C233.662 189.998 233.651 188.992 233.635 187.707C233.616 185.095 233.59 181.355 233.556 176.73L233.702 176.876C224.16 176.893 210.828 176.914 196.077 176.939C195.889 177.127 196.328 176.684 196.283 176.732V176.736V176.743V176.759V176.79V176.852V176.975V177.222V177.714V178.695C196.283 179.347 196.283 179.996 196.282 180.642C196.281 181.932 196.281 183.209 196.28 184.468C196.278 186.985 196.275 189.431 196.273 191.779L196.074 191.578C206.936 191.616 216.31 191.649 222.999 191.672C226.328 191.696 228.989 191.715 230.844 191.728C231.745 191.738 232.449 191.747 232.955 191.753C233.181 191.758 233.363 191.762 233.506 191.766C233.632 191.769 233.698 191.773 233.702 191.778C233.706 191.782 233.649 191.787 233.531 191.791C233.394 191.794 233.221 191.798 233.004 191.803C232.508 191.809 231.817 191.818 230.934 191.829C229.089 191.842 226.445 191.861 223.134 191.885C216.412 191.908 206.99 191.941 196.074 191.979L195.873 191.98V191.778C195.871 189.43 195.869 186.983 195.867 184.467C195.866 183.208 195.866 181.932 195.865 180.641C195.865 179.995 195.865 179.346 195.864 178.694V177.713V177.221V176.974V176.851V176.789V176.758V176.742V176.735V176.731C195.817 176.774 196.261 176.333 196.075 176.52C210.826 176.544 224.158 176.568 233.7 176.583H233.847L233.846 176.73C233.813 181.392 233.786 185.162 233.767 187.795C233.751 189.066 233.739 190.061 233.731 190.766C233.724 191.083 233.719 191.336 233.715 191.529C233.713 191.699 233.707 191.783 233.702 191.778Z" fill="#263238"/>
<g opacity="0.3">
<path d="M190.635 158.3C190.635 158.3 227.006 158.3 226.848 158.3C226.691 158.3 214.887 159.888 207.961 159.423C202.686 159.068 190.635 158.3 190.635 158.3Z" fill="black"/>
</g>
<path d="M70.2077 198.384H68.9769V222.018H70.2077V198.384Z" fill="#263238"/>
<path d="M79.7295 187.722L55.1221 190.547L56.5542 203.076L81.1617 200.251L79.7295 187.722Z" fill="#E0E0E0"/>
<path d="M81.1519 200.258C81.1461 200.253 81.1316 200.173 81.1093 200.023C81.0851 199.849 81.0551 199.631 81.0173 199.361C80.9389 198.755 80.8304 197.915 80.6929 196.853C80.4237 194.665 80.0411 191.561 79.5714 187.746L79.7361 187.877C73.2476 188.635 64.6074 189.644 55.1362 190.752C54.9783 190.949 55.3483 190.482 55.3105 190.531V190.534L55.3115 190.541L55.3124 190.554L55.3154 190.58L55.3212 190.631L55.3328 190.735L55.356 190.942L55.4035 191.354L55.4974 192.176C55.5594 192.722 55.6214 193.266 55.6833 193.805C55.8063 194.885 55.9274 195.95 56.0455 196.998C56.2818 199.094 56.5114 201.122 56.7292 203.059L56.521 202.893C63.6661 202.11 69.7894 201.44 74.1628 200.96C76.3263 200.734 78.0559 200.553 79.28 200.425C79.8571 200.368 80.3142 200.324 80.658 200.29C80.9757 200.263 81.1442 200.251 81.1519 200.258C81.1606 200.265 81.0086 200.29 80.7084 200.332C80.3762 200.375 79.9336 200.434 79.3739 200.508C78.1624 200.66 76.4512 200.873 74.311 201.141C69.9105 201.669 63.7513 202.407 56.5646 203.268L56.3787 203.29L56.3574 203.102C56.1337 201.166 55.8983 199.139 55.6562 197.044C55.5352 195.996 55.4132 194.93 55.2892 193.851C55.2272 193.311 55.1652 192.768 55.1023 192.222L55.0084 191.4L54.9609 190.987L54.9377 190.781L54.926 190.677L54.9202 190.625L54.9173 190.599L54.9154 190.587L54.9144 190.58V190.577C54.8757 190.623 55.2476 190.156 55.0916 190.354C64.5677 189.286 73.2118 188.312 79.7032 187.58L79.8523 187.564L79.8678 187.712C80.2755 191.573 80.6067 194.715 80.8411 196.928C80.9456 197.981 81.028 198.812 81.087 199.413C81.1103 199.673 81.1287 199.882 81.1432 200.051C81.1548 200.192 81.1577 200.263 81.1519 200.258Z" fill="#263238"/>
<path d="M75.9331 194.719C75.9418 194.773 75.1806 194.928 73.941 195.134C72.7024 195.34 70.9854 195.598 69.0854 195.857C67.1853 196.117 65.4625 196.329 64.2132 196.464C62.964 196.598 62.1892 196.654 62.1834 196.599C62.1776 196.545 62.9417 196.39 64.1803 196.184C65.4199 195.978 67.134 195.721 69.0311 195.461C70.9273 195.202 72.6482 194.989 73.8965 194.854C75.1467 194.72 75.9244 194.664 75.9331 194.719Z" fill="#263238"/>
<path d="M60.2853 229.39C60.6068 227.84 60.2747 226.169 59.3818 224.853C58.4898 223.536 57.0488 222.591 55.4693 222.286C55.3212 222.258 55.1575 222.237 55.0297 222.316C54.8476 222.427 54.8282 222.676 54.8379 222.886C54.9086 224.408 55.481 225.902 56.4494 227.092C57.4168 228.282 58.7755 229.16 60.2698 229.562" fill="#455A64"/>
<path d="M51.1753 240.07C52.565 243.267 54.6781 245.476 57.4178 245.708C57.9659 245.752 58.3978 245.417 58.9237 245.413C59.191 245.443 59.4941 245.645 59.7866 245.779C59.9435 245.846 60.0984 245.902 60.2398 245.903C63.084 245.887 65.5971 244.04 67.3868 240.838C69.8804 236.353 69.4214 231.385 66.3641 229.738C65.9293 229.502 65.5167 229.32 65.1071 229.186C64.6064 229.031 64.1096 228.941 63.5595 228.933C62.595 228.906 61.4784 229.11 59.9638 229.556C59.9144 229.572 59.8582 229.588 59.8088 229.603C57.319 228.38 55.2873 228.277 53.271 229.119C50.0684 230.469 49.131 235.37 51.1753 240.07Z" fill="#FF725E"/>
<path d="M51.4581 235.421C51.4388 235.428 51.2945 235.082 51.2431 234.486C51.1889 233.893 51.2732 233.048 51.6373 232.202C52.0053 231.358 52.566 230.713 53.0386 230.339C53.5112 229.962 53.8647 229.824 53.8734 229.842C53.8937 229.875 53.5712 230.059 53.1403 230.453C52.7084 230.843 52.1912 231.476 51.8378 232.286C51.4891 233.098 51.3845 233.903 51.3981 234.479C51.4078 235.057 51.4969 235.412 51.4581 235.421Z" fill="#FAFAFA"/>
<path d="M51.9268 237.631C51.8678 237.641 51.7777 237.419 51.7254 237.136C51.6731 236.852 51.6789 236.614 51.738 236.603C51.7971 236.592 51.8871 236.814 51.9385 237.098C51.9907 237.382 51.9849 237.621 51.9268 237.631Z" fill="#FAFAFA"/>
<path d="M67.1214 222.183C67.1359 222.221 66.522 222.415 65.6146 222.891C65.1594 223.126 64.6423 223.45 64.098 223.849C63.5615 224.257 63.0027 224.745 62.474 225.313C61.9529 225.888 61.5162 226.485 61.1579 227.051C60.8112 227.624 60.5352 228.162 60.3444 228.632C59.9551 229.568 59.8234 230.188 59.7817 230.178C59.7672 230.175 59.7924 230.019 59.8515 229.739C59.8786 229.599 59.9183 229.428 59.9812 229.234C60.0422 229.04 60.1013 228.815 60.2011 228.578C60.3763 228.095 60.6417 227.54 60.9855 226.951C61.3409 226.369 61.7806 225.757 62.3122 225.172C62.8507 224.592 63.4249 224.099 63.9769 223.693C64.5377 223.296 65.0713 222.979 65.5429 222.758C65.7724 222.636 65.9942 222.555 66.185 222.476C66.3748 222.394 66.5433 222.338 66.6827 222.296C66.9626 222.21 67.1175 222.169 67.1214 222.183Z" fill="#263238"/>
<path d="M46.3555 211.267C46.677 209.718 46.3449 208.046 45.452 206.731C44.5601 205.414 43.119 204.469 41.5395 204.164C41.3914 204.136 41.2277 204.114 41.0999 204.193C40.9178 204.305 40.8985 204.553 40.9081 204.764C40.9788 206.285 41.5512 207.78 42.5196 208.969C43.487 210.159 44.8457 211.037 46.34 211.439" fill="#455A64"/>
<path d="M37.2456 221.948C38.6353 225.144 40.7483 227.353 43.489 227.585C44.0371 227.63 44.469 227.295 44.9949 227.29C45.2622 227.32 45.5653 227.522 45.8577 227.657C46.0146 227.724 46.1696 227.779 46.31 227.78C49.1543 227.764 51.6673 225.918 53.457 222.715C55.9507 218.23 55.4916 213.262 52.4343 211.616C51.9995 211.379 51.5869 211.197 51.1773 211.063C50.6776 210.908 50.1798 210.818 49.6298 210.81C48.6652 210.783 47.5486 210.988 46.034 211.433C45.9846 211.45 45.9284 211.465 45.8791 211.481C43.3892 210.257 41.3575 210.154 39.3422 210.997C36.1387 212.346 35.2012 217.247 37.2456 221.948Z" fill="#FF725E"/>
<path d="M37.5283 217.299C37.509 217.305 37.3647 216.959 37.3134 216.363C37.2591 215.77 37.3434 214.925 37.7065 214.08C38.0745 213.235 38.6352 212.59 39.1078 212.217C39.5804 211.839 39.9339 211.701 39.9426 211.72C39.963 211.753 39.6405 211.936 39.2086 212.33C38.7766 212.721 38.2595 213.353 37.906 214.163C37.5574 214.975 37.4528 215.78 37.4664 216.356C37.478 216.935 37.5671 217.289 37.5283 217.299Z" fill="#FAFAFA"/>
<path d="M37.997 219.509C37.938 219.52 37.8479 219.297 37.7956 219.014C37.7433 218.731 37.7491 218.492 37.8082 218.481C37.8673 218.471 37.9573 218.692 38.0096 218.976C38.0609 219.26 38.0551 219.498 37.997 219.509Z" fill="#FAFAFA"/>
<path d="M53.1926 204.06C53.2062 204.1 52.5931 204.292 51.6857 204.768C51.2306 205.003 50.7134 205.327 50.1692 205.726C49.6327 206.135 49.0739 206.622 48.5451 207.191C48.0241 207.765 47.5874 208.362 47.229 208.929C46.8814 209.501 46.6063 210.04 46.4156 210.509C46.0263 211.446 45.8946 212.065 45.8529 212.055C45.8384 212.052 45.8636 211.897 45.9226 211.617C45.9498 211.476 45.9895 211.305 46.0524 211.111C46.1134 210.917 46.1725 210.692 46.2722 210.454C46.4475 209.971 46.7129 209.417 47.0567 208.828C47.4121 208.245 47.8517 207.633 48.3834 207.048C48.9209 206.469 49.4961 205.976 50.0481 205.569C50.6088 205.172 51.1424 204.856 51.6141 204.634C51.8436 204.512 52.0654 204.432 52.2561 204.352C52.4459 204.271 52.6144 204.214 52.7539 204.173C53.0328 204.087 53.1878 204.046 53.1926 204.06Z" fill="#263238"/>
<path d="M78.2263 211.267C78.5478 209.718 78.2156 208.046 77.3227 206.731C76.4308 205.414 74.9898 204.469 73.4103 204.164C73.2621 204.136 73.0985 204.114 72.9706 204.193C72.7886 204.305 72.7692 204.553 72.7789 204.764C72.8496 206.285 73.4219 207.78 74.3903 208.969C75.3578 210.159 76.7165 211.037 78.2108 211.439" fill="#455A64"/>
<path d="M69.1153 221.948C70.505 225.144 72.6181 227.353 75.3578 227.585C75.9059 227.63 76.3378 227.295 76.8637 227.29C77.131 227.32 77.4341 227.522 77.7265 227.657C77.8834 227.724 78.0384 227.779 78.1798 227.78C81.024 227.764 83.5371 225.918 85.3267 222.715C87.8204 218.23 87.3614 213.262 84.3041 211.616C83.8693 211.379 83.4557 211.197 83.0471 211.063C82.5474 210.908 82.0506 210.818 81.4995 210.81C80.535 210.783 79.4184 210.988 77.9038 211.433C77.8544 211.45 77.7982 211.465 77.7488 211.481C75.259 210.257 73.2273 210.154 71.212 210.997C68.0084 212.346 67.071 217.247 69.1153 221.948Z" fill="#FF725E"/>
<path d="M69.3981 217.299C69.3787 217.305 69.2344 216.959 69.1831 216.363C69.1289 215.77 69.2131 214.925 69.5763 214.08C69.9433 213.235 70.505 212.59 70.9776 212.217C71.4502 211.839 71.8037 211.701 71.8124 211.72C71.8327 211.753 71.5102 211.936 71.0783 212.33C70.6464 212.721 70.1293 213.353 69.7758 214.163C69.4272 214.975 69.3226 215.78 69.3361 216.356C69.3478 216.935 69.4368 217.289 69.3981 217.299Z" fill="#FAFAFA"/>
<path d="M69.8668 219.509C69.8077 219.52 69.7177 219.297 69.6654 219.014C69.6131 218.731 69.6189 218.492 69.678 218.481C69.737 218.471 69.8271 218.692 69.8794 218.976C69.9307 219.26 69.9259 219.498 69.8668 219.509Z" fill="#FAFAFA"/>
<path d="M85.0623 204.06C85.0759 204.1 84.4628 204.292 83.5554 204.768C83.1003 205.003 82.5831 205.327 82.0389 205.726C81.5024 206.135 80.9426 206.622 80.4148 207.191C79.8938 207.765 79.4571 208.362 79.0987 208.929C78.7511 209.501 78.4761 210.04 78.2853 210.509C77.896 211.446 77.7643 212.065 77.7226 212.055C77.7081 212.052 77.7333 211.897 77.7923 211.617C77.8195 211.476 77.8592 211.305 77.9221 211.111C77.9831 210.917 78.0422 210.692 78.1419 210.454C78.3172 209.971 78.5826 209.417 78.9264 208.828C79.2818 208.245 79.7214 207.633 80.2531 207.048C80.7916 206.469 81.3658 205.976 81.9178 205.569C82.4786 205.172 83.0122 204.856 83.4838 204.634C83.7133 204.512 83.9351 204.432 84.1258 204.352C84.3156 204.271 84.4842 204.214 84.6236 204.173C84.9025 204.087 85.0575 204.046 85.0623 204.06Z" fill="#263238"/>
<path d="M62.2086 211.454C62.5301 209.904 62.1969 208.233 61.305 206.917C60.4131 205.601 58.9721 204.655 57.3926 204.35C57.2444 204.322 57.0808 204.301 56.9529 204.379C56.7709 204.491 56.7515 204.739 56.7612 204.95C56.8319 206.472 57.4042 207.966 58.3726 209.156C59.3401 210.345 60.6988 211.223 62.1931 211.625" fill="#455A64"/>
<path d="M53.0986 222.134C54.4883 225.331 56.6014 227.539 59.3421 227.771C59.8902 227.816 60.3221 227.481 60.848 227.476C61.1152 227.506 61.4184 227.708 61.7108 227.843C61.8667 227.91 62.0227 227.965 62.164 227.966C65.0083 227.951 67.5214 226.104 69.311 222.902C71.8047 218.416 71.3457 213.449 68.2884 211.802C67.8535 211.565 67.441 211.384 67.0313 211.25C66.5316 211.095 66.0339 211.004 65.4838 210.997C64.5193 210.969 63.4027 211.174 61.888 211.62C61.8387 211.636 61.7825 211.652 61.7331 211.667C59.2433 210.443 57.2115 210.341 55.1962 211.183C51.9908 212.533 51.0533 217.433 53.0986 222.134Z" fill="#FF725E"/>
<g opacity="0.3">
<path d="M53.0986 222.134C54.4883 225.331 56.6014 227.539 59.3421 227.771C59.8902 227.816 60.3221 227.481 60.848 227.476C61.1152 227.506 61.4184 227.708 61.7108 227.843C61.8667 227.91 62.0227 227.965 62.164 227.966C65.0083 227.951 67.5214 226.104 69.311 222.902C71.8047 218.416 71.3457 213.449 68.2884 211.802C67.8535 211.565 67.441 211.384 67.0313 211.25C66.5316 211.095 66.0339 211.004 65.4838 210.997C64.5193 210.969 63.4027 211.174 61.888 211.62C61.8387 211.636 61.7825 211.652 61.7331 211.667C59.2433 210.443 57.2115 210.341 55.1962 211.183C51.9908 212.533 51.0533 217.433 53.0986 222.134Z" fill="black"/>
</g>
<path d="M53.3814 217.485C53.362 217.492 53.2177 217.145 53.1664 216.549C53.1122 215.957 53.1964 215.111 53.5596 214.266C53.9276 213.422 54.4883 212.776 54.9609 212.403C55.4335 212.025 55.787 211.888 55.7957 211.906C55.816 211.939 55.4935 212.122 55.0626 212.516C54.6307 212.907 54.1135 213.539 53.7601 214.35C53.4114 215.162 53.3068 215.966 53.3204 216.543C53.3301 217.121 53.4192 217.475 53.3814 217.485Z" fill="#FAFAFA"/>
<path d="M53.8492 219.694C53.7901 219.705 53.7 219.484 53.6477 219.199C53.5954 218.916 53.6012 218.677 53.6593 218.667C53.7184 218.656 53.8085 218.877 53.8608 219.162C53.9131 219.446 53.9082 219.685 53.8492 219.694Z" fill="#FAFAFA"/>
<path d="M69.0447 204.246C69.0592 204.285 68.4452 204.478 67.5378 204.955C67.0827 205.19 66.5655 205.514 66.0213 205.913C65.4848 206.321 64.926 206.808 64.3972 207.377C63.8762 207.951 63.4395 208.548 63.0811 209.115C62.7344 209.688 62.4584 210.226 62.2677 210.696C61.8784 211.632 61.7467 212.251 61.706 212.242C61.6915 212.239 61.7166 212.083 61.7757 211.803C61.8028 211.662 61.8425 211.492 61.9055 211.297C61.9665 211.103 62.0256 210.878 62.1253 210.641C62.3006 210.158 62.5659 209.604 62.9107 209.015C63.2651 208.433 63.7058 207.82 64.2374 207.235C64.7759 206.656 65.3492 206.163 65.9022 205.756C66.4629 205.359 66.9965 205.043 67.4681 204.823C67.6976 204.701 67.9194 204.62 68.1102 204.54C68.3 204.458 68.4685 204.403 68.6079 204.362C68.8849 204.274 69.0399 204.233 69.0447 204.246Z" fill="#263238"/>
<path d="M76.1559 229.39C76.4774 227.84 76.1452 226.169 75.2523 224.853C74.3595 223.537 72.9194 222.591 71.3399 222.286C71.1917 222.258 71.0281 222.237 70.9003 222.316C70.7182 222.427 70.6988 222.676 70.7085 222.886C70.7792 224.408 71.3515 225.902 72.32 227.092C73.2874 228.282 74.6461 229.16 76.1404 229.562" fill="#455A64"/>
<path d="M67.0459 240.07C68.4356 243.267 70.5487 245.476 73.2893 245.708C73.8374 245.752 74.2694 245.417 74.7952 245.413C75.0625 245.443 75.3656 245.645 75.6581 245.779C75.815 245.846 75.9699 245.902 76.1103 245.903C78.9546 245.887 81.4677 244.04 83.2573 240.838C85.751 236.353 85.292 231.385 82.2356 229.738C81.8008 229.502 81.3873 229.32 80.9786 229.186C80.4779 229.031 79.9811 228.941 79.4311 228.933C78.4665 228.906 77.3499 229.11 75.8353 229.556C75.7859 229.572 75.7297 229.588 75.6804 229.603C73.1905 228.38 71.1588 228.277 69.1435 229.119C65.939 230.469 65.0016 235.37 67.0459 240.07Z" fill="#FF725E"/>
<g opacity="0.3">
<path d="M67.0459 240.07C68.4356 243.267 70.5487 245.476 73.2893 245.708C73.8374 245.752 74.2694 245.417 74.7952 245.413C75.0625 245.443 75.3656 245.645 75.6581 245.779C75.815 245.846 75.9699 245.902 76.1103 245.903C78.9546 245.887 81.4677 244.04 83.2573 240.838C85.751 236.353 85.292 231.385 82.2356 229.738C81.8008 229.502 81.3873 229.32 80.9786 229.186C80.4779 229.031 79.9811 228.941 79.4311 228.933C78.4665 228.906 77.3499 229.11 75.8353 229.556C75.7859 229.572 75.7297 229.588 75.6804 229.603C73.1905 228.38 71.1588 228.277 69.1435 229.119C65.939 230.469 65.0016 235.37 67.0459 240.07Z" fill="black"/>
</g>
<path d="M67.3287 235.421C67.3094 235.428 67.1651 235.082 67.1137 234.486C67.0595 233.893 67.1438 233.048 67.5069 232.202C67.8749 231.358 68.4356 230.713 68.9082 230.339C69.3808 229.962 69.7343 229.824 69.743 229.842C69.7633 229.875 69.4409 230.059 69.0089 230.453C68.577 230.843 68.0599 231.476 67.7064 232.286C67.3578 233.098 67.2532 233.903 67.2667 234.479C67.2784 235.057 67.3675 235.412 67.3287 235.421Z" fill="#FAFAFA"/>
<path d="M67.7974 237.631C67.7383 237.641 67.6483 237.419 67.596 237.136C67.5437 236.852 67.5495 236.614 67.6086 236.603C67.6676 236.592 67.7577 236.814 67.81 237.098C67.8613 237.382 67.8555 237.621 67.7974 237.631Z" fill="#FAFAFA"/>
<path d="M82.9919 222.183C83.0065 222.221 82.3925 222.415 81.4851 222.891C81.0299 223.126 80.5128 223.45 79.9685 223.849C79.432 224.257 78.8732 224.745 78.3445 225.313C77.8235 225.888 77.3867 226.485 77.0284 227.051C76.6807 227.624 76.4057 228.162 76.2149 228.632C75.8256 229.568 75.6939 230.188 75.6523 230.178C75.6377 230.175 75.6629 230.019 75.722 229.739C75.7491 229.599 75.7888 229.428 75.8518 229.234C75.9128 229.04 75.9718 228.815 76.0716 228.578C76.2469 228.095 76.5122 227.54 76.856 226.951C77.2114 226.369 77.6511 225.757 78.1827 225.172C78.7212 224.592 79.2955 224.099 79.8475 223.693C80.4082 223.296 80.9418 222.979 81.4134 222.758C81.6429 222.636 81.8647 222.555 82.0555 222.476C82.2453 222.394 82.4138 222.338 82.5533 222.296C82.8331 222.21 82.9881 222.169 82.9919 222.183Z" fill="#263238"/>
<path d="M44.4332 229.866C44.7547 228.316 44.4225 226.645 43.5296 225.329C42.6377 224.012 41.1967 223.067 39.6172 222.761C39.469 222.733 39.3054 222.712 39.1775 222.79C38.9955 222.902 38.9761 223.15 38.9858 223.361C39.0565 224.882 39.6288 226.377 40.5972 227.567C41.5647 228.756 42.9234 229.635 44.4177 230.036" fill="#455A64"/>
<path d="M35.3232 240.545C36.7129 243.742 38.826 245.95 41.5656 246.182C42.1138 246.227 42.5457 245.892 43.0715 245.887C43.3388 245.917 43.6419 246.119 43.9344 246.254C44.0913 246.321 44.2462 246.376 44.3867 246.377C47.2309 246.362 49.744 244.515 51.5336 241.313C54.0273 236.827 53.5683 231.86 50.511 230.213C50.0762 229.976 49.6636 229.795 49.254 229.661C48.7533 229.505 48.2565 229.415 47.7064 229.407C46.7419 229.38 45.6253 229.586 44.1107 230.03C44.0613 230.047 44.0051 230.062 43.9557 230.078C41.4659 228.854 39.4342 228.751 37.4189 229.594C34.2153 230.945 33.2779 235.845 35.3232 240.545Z" fill="#FF725E"/>
<g opacity="0.3">
<path d="M35.3232 240.545C36.7129 243.742 38.826 245.95 41.5656 246.182C42.1138 246.227 42.5457 245.892 43.0715 245.887C43.3388 245.917 43.6419 246.119 43.9344 246.254C44.0913 246.321 44.2462 246.376 44.3867 246.377C47.2309 246.362 49.744 244.515 51.5336 241.313C54.0273 236.827 53.5683 231.86 50.511 230.213C50.0762 229.976 49.6636 229.795 49.254 229.661C48.7533 229.505 48.2565 229.415 47.7064 229.407C46.7419 229.38 45.6253 229.586 44.1107 230.03C44.0613 230.047 44.0051 230.062 43.9557 230.078C41.4659 228.854 39.4342 228.751 37.4189 229.594C34.2153 230.945 33.2779 235.845 35.3232 240.545Z" fill="black"/>
</g>
<path d="M35.606 235.896C35.5866 235.902 35.4423 235.556 35.391 234.96C35.3368 234.367 35.421 233.522 35.7851 232.677C36.1522 231.832 36.7139 231.187 37.1865 230.814C37.659 230.436 38.0125 230.298 38.0212 230.317C38.0416 230.35 37.7191 230.533 37.2872 230.927C36.8553 231.317 36.3381 231.95 35.9846 232.76C35.636 233.572 35.5314 234.377 35.545 234.953C35.5547 235.532 35.6438 235.887 35.606 235.896Z" fill="#FAFAFA"/>
<path d="M36.0737 238.106C36.0146 238.117 35.9246 237.896 35.8723 237.611C35.82 237.328 35.8258 237.089 35.8849 237.079C35.9439 237.068 36.034 237.289 36.0863 237.573C36.1386 237.857 36.1328 238.096 36.0737 238.106Z" fill="#FAFAFA"/>
<path d="M51.2693 222.658C51.2838 222.697 50.6698 222.89 49.7624 223.366C49.3072 223.601 48.7901 223.925 48.2459 224.324C47.7093 224.733 47.1506 225.22 46.6218 225.789C46.1008 226.363 45.664 226.96 45.3057 227.527C44.9581 228.099 44.683 228.638 44.4922 229.108C44.1029 230.044 43.9712 230.663 43.9296 230.653C43.9151 230.65 43.9402 230.494 43.9993 230.215C44.0264 230.074 44.0661 229.903 44.1291 229.709C44.1901 229.515 44.2492 229.29 44.3489 229.053C44.5242 228.57 44.7895 228.016 45.1333 227.427C45.4878 226.844 45.9284 226.232 46.4601 225.647C46.9985 225.068 47.5728 224.575 48.1248 224.168C48.6855 223.771 49.2191 223.455 49.6907 223.234C49.9203 223.111 50.142 223.031 50.3328 222.951C50.5226 222.87 50.6911 222.813 50.8306 222.772C51.1095 222.684 51.2644 222.644 51.2693 222.658Z" fill="#263238"/>
<path d="M96.6128 220.434H25.946V230.688H96.6128V220.434Z" fill="#FF9C67"/>
<path d="M96.6128 239.225H25.946V249.48H96.6128V239.225Z" fill="#FF9C67"/>
<path d="M37.9845 215.292H29.29V249.227H37.9845V215.292Z" fill="#FF9C67"/>
<path d="M92.8621 215.292H84.1686V249.227H92.8621V215.292Z" fill="#FF9C67"/>
<path d="M96.4675 230.795C96.4675 230.911 80.7123 231.006 61.2818 231.006C41.8446 231.006 26.0922 230.911 26.0922 230.795C26.0922 230.679 41.8436 230.584 61.2818 230.584C80.7123 230.584 96.4675 230.679 96.4675 230.795Z" fill="#263238"/>
<path d="M96.4675 239.225C96.4675 239.342 80.7123 239.436 61.2818 239.436C41.8446 239.436 26.0922 239.342 26.0922 239.225C26.0922 239.109 41.8436 239.015 61.2818 239.015C80.7123 239.015 96.4675 239.109 96.4675 239.225Z" fill="#263238"/>
<path d="M96.4675 220.327C96.4675 220.444 80.7123 220.538 61.2818 220.538C41.8446 220.538 26.0922 220.444 26.0922 220.327C26.0922 220.211 41.8436 220.116 61.2818 220.116C80.7123 220.116 96.4675 220.211 96.4675 220.327Z" fill="#263238"/>
<path d="M210.763 229.818C210.675 228.706 210.299 227.617 209.391 226.891C208.465 226.151 206.7 226.404 206.7 226.404C206.7 226.404 206.16 225.677 205.636 225.304C204.414 224.434 201.839 224.584 200.988 225.759C200.139 224.584 197.564 224.434 196.342 225.304C195.818 225.676 195.278 226.404 195.278 226.404C195.278 226.404 193.514 226.151 192.587 226.891C191.678 227.617 191.303 228.706 191.215 229.818C191.178 230.287 191.161 230.764 191.161 231.246C191.162 234.605 192.033 238.199 193.144 240.761C193.201 240.893 193.262 241.014 193.326 241.125C194.198 242.643 195.694 242.411 196.57 242.046C196.834 242.767 197.288 243.489 198.023 243.696C199.293 244.053 200.273 243.661 200.988 243.696V243.681L200.99 243.696C201.706 243.661 202.685 244.053 203.956 243.696C204.691 243.489 205.144 242.767 205.409 242.046C206.285 242.41 207.781 242.643 208.653 241.125C208.716 241.014 208.778 240.893 208.835 240.761C209.944 238.199 210.816 234.604 210.818 231.246C210.818 230.765 210.801 230.288 210.763 229.818Z" fill="#FF725E"/>
<g opacity="0.3">
<path d="M209.39 226.91C208.465 226.17 206.7 226.423 206.7 226.423C206.7 226.423 206.16 225.698 205.636 225.325C204.414 224.456 201.839 224.607 200.988 225.779C200.139 224.607 197.564 224.456 196.342 225.325C195.818 225.698 195.278 226.423 195.278 226.423C195.278 226.423 193.514 226.171 192.587 226.91C192.53 226.955 192.482 227.006 192.43 227.053C193.368 226.91 194.79 227.349 196.321 228.712C196.321 228.712 197.344 227.209 199.893 228.044C200.588 228.272 201.345 228.326 202.06 228.155C204.21 227.638 205.295 228.464 205.95 229.749C206.512 230.854 206.494 237.238 205.409 242.043C206.349 242.434 208.006 242.674 208.835 240.759C210.102 237.833 211.059 233.56 210.764 229.831C210.676 228.722 210.3 227.635 209.39 226.91Z" fill="black"/>
</g>
<path d="M200.156 225.198C200.046 226.669 199.488 227.491 199.151 227.861C199.384 227.902 199.628 227.959 199.892 228.045C200.587 228.273 201.344 228.327 202.059 228.156C202.323 228.092 202.571 228.05 202.805 228.025C202.63 227.629 202.304 226.833 202.054 225.891C201.99 225.651 201.941 225.411 201.909 225.172C201.761 224.063 202.002 222.964 203.102 221.954C202.283 219.711 200.442 220.645 200.442 220.645C200.442 220.645 200.022 221.687 200.163 224.256C200.183 224.597 200.177 224.909 200.156 225.198Z" fill="#455A64"/>
<path d="M196.321 228.713C196.37 228.733 196.026 229.425 195.778 230.624C195.514 231.822 195.473 233.524 195.63 235.396C195.77 237.269 196.045 238.951 196.266 240.163C196.487 241.376 196.645 242.124 196.603 242.133C196.585 242.138 196.521 241.957 196.425 241.624C196.329 241.291 196.204 240.807 196.068 240.202C195.795 238.995 195.487 237.307 195.346 235.416C195.187 233.535 195.26 231.79 195.582 230.579C195.734 229.973 195.912 229.5 196.059 229.184C196.205 228.87 196.304 228.705 196.321 228.713Z" fill="#263238"/>
<path d="M200.896 243.293C200.818 243.293 200.754 240.173 200.754 236.325C200.754 232.477 200.818 229.357 200.896 229.357C200.975 229.357 201.039 232.476 201.039 236.325C201.039 240.173 200.975 243.293 200.896 243.293Z" fill="#263238"/>
<path d="M204.308 228.17C204.31 228.158 204.533 228.17 204.882 228.355C205.229 228.536 205.669 228.956 205.945 229.607C206.243 230.241 206.395 231.086 206.427 231.992C206.481 232.9 206.503 233.9 206.475 234.95C206.42 237.051 206.167 238.943 205.906 240.292C205.777 240.967 205.65 241.509 205.554 241.88C205.453 242.252 205.389 242.454 205.37 242.45C205.325 242.44 205.503 241.61 205.708 240.258C205.916 238.906 206.137 237.027 206.19 234.943C206.218 233.9 206.204 232.908 206.165 232.005C206.145 231.101 206.022 230.31 205.759 229.685C205.52 229.057 205.137 228.65 204.824 228.45C204.512 228.246 204.3 228.195 204.308 228.17Z" fill="#263238"/>
<path d="M204.004 228.13C203.988 228.166 203.61 228.013 202.969 228.121C202.649 228.163 202.275 228.255 201.841 228.335C201.398 228.421 200.89 228.4 200.389 228.303C199.888 228.214 199.422 228.053 199.016 227.974C198.601 227.895 198.218 227.883 197.902 227.912C197.259 227.961 196.938 228.233 196.911 228.195C196.879 228.179 197.188 227.82 197.876 227.712C198.211 227.655 198.619 227.646 199.061 227.715C199.512 227.789 199.955 227.936 200.442 228.023C200.925 228.115 201.385 228.141 201.8 228.075C202.222 228.012 202.613 227.937 202.949 227.919C203.632 227.858 204.033 228.097 204.004 228.13Z" fill="#263238"/>
<path d="M206.358 226.765C206.349 226.848 205.729 226.792 205.058 227.091C204.381 227.374 203.995 227.864 203.929 227.814C203.858 227.787 204.181 227.153 204.945 226.828C205.705 226.495 206.386 226.694 206.358 226.765Z" fill="#263238"/>
<path d="M195.824 226.354C195.815 226.282 196.627 226.187 197.557 226.515C198.491 226.838 199.068 227.418 199.016 227.469C198.964 227.536 198.341 227.086 197.463 226.785C196.591 226.475 195.824 226.44 195.824 226.354Z" fill="#263238"/>
<path d="M207.019 213.228C206.5 212.241 205.725 211.39 204.604 211.082C203.461 210.769 201.94 211.7 201.94 211.7C201.94 211.7 201.157 211.246 200.528 211.111C199.062 210.797 196.756 211.954 196.439 213.369C195.195 212.627 192.77 213.509 191.991 214.792C191.657 215.342 191.447 216.224 191.447 216.224C191.447 216.224 189.727 216.69 189.168 217.737C188.62 218.764 188.704 219.913 189.062 220.97C189.213 221.415 189.386 221.86 189.577 222.303C190.902 225.387 193.121 228.344 195.151 230.258C195.255 230.356 195.359 230.443 195.462 230.52C196.86 231.57 198.144 230.763 198.804 230.082C199.331 230.639 200.033 231.123 200.79 231.021C202.097 230.846 202.843 230.097 203.514 229.847L203.508 229.833L203.516 229.846C204.159 229.531 205.214 229.503 206.24 228.672C206.834 228.191 206.965 227.347 206.925 226.581C207.872 226.569 209.338 226.189 209.541 224.45C209.555 224.321 209.564 224.187 209.565 224.043C209.573 221.249 208.957 217.602 207.634 214.517C207.442 214.076 207.238 213.644 207.019 213.228Z" fill="#FF725E"/>
<g opacity="0.3">
<path d="M204.611 211.1C203.469 210.788 201.949 211.719 201.949 211.719C201.949 211.719 201.167 211.266 200.538 211.131C199.073 210.818 196.766 211.976 196.448 213.389C195.206 212.649 192.781 213.53 192 214.813C191.666 215.363 191.456 216.244 191.456 216.244C191.456 216.244 189.736 216.71 189.178 217.756C189.144 217.82 189.118 217.886 189.089 217.951C189.895 217.448 191.374 217.289 193.318 217.934C193.318 217.934 193.665 216.148 196.336 215.906C197.065 215.84 197.781 215.59 198.37 215.15C200.142 213.823 201.464 214.153 202.572 215.074C203.525 215.866 206.025 221.738 206.925 226.581C207.942 226.569 209.558 226.132 209.565 224.046C209.574 220.855 208.769 216.552 207.027 213.243C206.506 212.256 205.732 211.406 204.611 211.1Z" fill="black"/>
</g>
<path d="M195.453 213.185C195.932 214.579 195.744 215.555 195.582 216.03C195.811 215.976 196.058 215.93 196.335 215.905C197.064 215.839 197.78 215.589 198.369 215.149C198.587 214.986 198.798 214.848 199.003 214.734C198.687 214.439 198.074 213.838 197.472 213.071C197.319 212.876 197.18 212.675 197.056 212.469C196.482 211.508 196.27 210.403 196.881 209.04C195.245 207.304 193.923 208.892 193.923 208.892C193.923 208.892 193.948 210.014 195.091 212.318C195.241 212.623 195.359 212.911 195.453 213.185Z" fill="#455A64"/>
<path d="M193.316 217.933C193.369 217.932 193.326 218.703 193.571 219.904C193.801 221.108 194.434 222.688 195.317 224.345C196.184 226.011 197.1 227.446 197.781 228.473C198.463 229.498 198.903 230.123 198.87 230.149C198.854 230.16 198.724 230.02 198.504 229.752C198.286 229.484 197.979 229.088 197.615 228.587C196.889 227.587 195.939 226.157 195.065 224.477C194.177 222.811 193.556 221.18 193.374 219.94C193.274 219.324 193.252 218.817 193.262 218.47C193.271 218.122 193.298 217.932 193.316 217.933Z" fill="#263238"/>
<path d="M203.27 229.513C203.197 229.544 201.908 226.704 200.391 223.169C198.872 219.634 197.701 216.743 197.773 216.712C197.846 216.681 199.135 219.521 200.652 223.057C202.171 226.591 203.343 229.482 203.27 229.513Z" fill="#263238"/>
<path d="M200.44 214.271C200.436 214.258 200.647 214.181 201.041 214.213C201.431 214.242 202 214.453 202.511 214.942C203.035 215.406 203.508 216.122 203.895 216.941C204.303 217.754 204.718 218.665 205.106 219.64C205.886 221.592 206.398 223.429 206.69 224.772C206.839 225.443 206.935 225.991 206.993 226.371C207.047 226.751 207.067 226.964 207.048 226.967C207.003 226.975 206.839 226.143 206.494 224.819C206.152 223.496 205.614 221.683 204.84 219.746C204.454 218.778 204.051 217.871 203.658 217.058C203.284 216.234 202.858 215.557 202.37 215.088C201.903 214.606 201.391 214.384 201.025 214.323C200.656 214.26 200.442 214.297 200.44 214.271Z" fill="#263238"/>
<path d="M200.145 214.354C200.144 214.394 199.736 214.403 199.19 214.756C198.913 214.921 198.606 215.155 198.238 215.4C197.865 215.654 197.39 215.837 196.892 215.947C196.396 216.063 195.904 216.1 195.501 216.188C195.09 216.28 194.732 216.42 194.454 216.572C193.882 216.872 193.694 217.25 193.656 217.226C193.62 217.224 193.762 216.77 194.35 216.4C194.635 216.214 195.006 216.046 195.439 215.933C195.883 215.822 196.348 215.783 196.829 215.669C197.309 215.562 197.742 215.405 198.098 215.179C198.461 214.954 198.791 214.73 199.092 214.58C199.695 214.251 200.158 214.313 200.145 214.354Z" fill="#263238"/>
<path d="M201.768 212.168C201.791 212.248 201.2 212.442 200.702 212.982C200.191 213.511 200.032 214.112 199.949 214.094C199.874 214.097 199.92 213.386 200.494 212.786C201.062 212.178 201.767 212.092 201.768 212.168Z" fill="#263238"/>
<path d="M191.931 215.963C191.894 215.9 192.602 215.49 193.587 215.424C194.572 215.351 195.33 215.655 195.303 215.723C195.282 215.806 194.532 215.639 193.607 215.71C192.681 215.77 191.964 216.042 191.931 215.963Z" fill="#263238"/>
<path d="M229.592 240.229C230.239 239.321 230.651 238.245 230.422 237.104C230.188 235.94 228.676 234.996 228.676 234.996C228.676 234.996 228.729 234.091 228.568 233.468C228.191 232.014 226.124 230.468 224.72 230.818C224.823 229.371 222.95 227.596 221.456 227.472C220.815 227.42 219.935 227.628 219.935 227.628C219.935 227.628 218.747 226.296 217.563 226.265C216.401 226.234 215.414 226.826 214.633 227.62C214.303 227.955 213.983 228.309 213.674 228.679C211.517 231.249 209.876 234.562 209.079 237.24C209.038 237.377 209.007 237.508 208.985 237.636C208.677 239.359 209.971 240.147 210.875 240.432C210.615 241.154 210.497 242 210.927 242.632C211.67 243.725 212.671 244.057 213.196 244.545L213.206 244.533L213.198 244.546C213.769 244.981 214.266 245.912 215.467 246.459C216.163 246.775 216.973 246.514 217.639 246.134C218.075 246.977 219.071 248.12 220.713 247.52C220.834 247.476 220.958 247.423 221.087 247.359C223.583 246.114 226.559 243.926 228.717 241.357C229.025 240.988 229.319 240.612 229.592 240.229Z" fill="#FF725E"/>
<g opacity="0.3">
<path d="M230.409 237.118C230.175 235.955 228.663 235.011 228.663 235.011C228.663 235.011 228.716 234.107 228.555 233.484C228.177 232.03 226.11 230.484 224.707 230.834C224.81 229.389 222.936 227.613 221.442 227.489C220.802 227.435 219.922 227.643 219.922 227.643C219.922 227.643 218.735 226.312 217.551 226.28C217.479 226.278 217.409 226.285 217.338 226.287C218.149 226.783 218.955 228.036 219.25 230.066C219.25 230.066 220.999 229.577 222.413 231.861C222.798 232.484 223.343 233.013 223.999 233.342C225.978 234.335 226.276 235.667 225.951 237.072C225.673 238.281 221.557 243.153 217.639 246.132C218.107 247.037 219.222 248.289 221.086 247.358C223.936 245.937 227.413 243.284 229.583 240.239C230.228 239.334 230.64 238.259 230.409 237.118Z" fill="black"/>
</g>
<path d="M224.443 229.851C223.414 230.906 222.459 231.175 221.963 231.242C222.115 231.423 222.265 231.624 222.412 231.861C222.797 232.484 223.342 233.013 223.998 233.342C224.241 233.465 224.459 233.592 224.654 233.724C224.774 233.308 225.035 232.488 225.45 231.606C225.555 231.382 225.672 231.168 225.8 230.964C226.4 230.02 227.291 229.334 228.78 229.27C229.595 227.026 227.585 226.553 227.585 226.553C227.585 226.553 226.595 227.079 225.053 229.137C224.848 229.408 224.644 229.643 224.443 229.851Z" fill="#455A64"/>
<path d="M219.249 230.066C219.273 230.114 218.566 230.421 217.606 231.179C216.634 231.926 215.51 233.201 214.426 234.735C213.33 236.259 212.46 237.722 211.85 238.792C211.241 239.864 210.881 240.538 210.843 240.519C210.826 240.51 210.893 240.33 211.034 240.014C211.174 239.698 211.389 239.246 211.673 238.695C212.24 237.596 213.089 236.104 214.195 234.567C215.282 233.024 216.459 231.736 217.484 231.017C217.989 230.651 218.43 230.405 218.744 230.258C219.059 230.111 219.242 230.05 219.249 230.066Z" fill="#263238"/>
<path d="M213.384 244.175C213.324 244.125 215.279 241.696 217.751 238.752C220.223 235.806 222.276 233.46 222.336 233.511C222.396 233.562 220.441 235.991 217.969 238.936C215.498 241.88 213.445 244.227 213.384 244.175Z" fill="#263238"/>
<path d="M225.71 234.804C225.72 234.795 225.883 234.948 226.03 235.315C226.18 235.677 226.246 236.283 226.039 236.959C225.859 237.637 225.433 238.382 224.875 239.095C224.334 239.825 223.707 240.605 223.011 241.39C221.621 242.963 220.211 244.246 219.145 245.111C218.614 245.546 218.167 245.877 217.854 246.099C217.539 246.318 217.36 246.432 217.348 246.416C217.321 246.379 217.989 245.859 219.015 244.956C220.042 244.057 221.417 242.761 222.798 241.2C223.489 240.421 224.116 239.652 224.666 238.936C225.233 238.231 225.646 237.546 225.846 236.898C226.066 236.263 226.034 235.705 225.924 235.35C225.818 234.993 225.689 234.817 225.71 234.804Z" fill="#263238"/>
<path d="M225.504 234.577C225.468 234.593 225.277 234.232 224.718 233.901C224.447 233.728 224.1 233.557 223.716 233.337C223.322 233.118 222.946 232.774 222.626 232.377C222.3 231.986 222.047 231.561 221.786 231.239C221.52 230.911 221.234 230.654 220.974 230.474C220.45 230.096 220.03 230.097 220.033 230.052C220.02 230.019 220.487 229.943 221.082 230.303C221.376 230.475 221.692 230.732 221.987 231.07C222.284 231.417 222.528 231.816 222.846 232.196C223.156 232.579 223.491 232.895 223.852 233.112C224.215 233.336 224.564 233.532 224.832 233.734C225.394 234.128 225.547 234.571 225.504 234.577Z" fill="#263238"/>
<path d="M228.182 235.05C228.121 235.108 227.682 234.665 226.977 234.46C226.277 234.241 225.668 234.367 225.648 234.286C225.612 234.219 226.266 233.943 227.059 234.187C227.855 234.422 228.25 235.015 228.182 235.05Z" fill="#263238"/>
<path d="M220.384 227.942C220.424 227.881 221.106 228.331 221.607 229.184C222.115 230.033 222.183 230.849 222.111 230.855C222.027 230.873 221.84 230.127 221.362 229.331C220.893 228.528 220.33 228.006 220.384 227.942Z" fill="#263238"/>
<path d="M226.444 214.315C226.356 213.203 225.981 212.114 225.072 211.388C224.146 210.648 222.382 210.901 222.382 210.901C222.382 210.901 221.841 210.174 221.318 209.801C220.095 208.931 217.52 209.082 216.67 210.256C215.821 209.082 213.246 208.931 212.024 209.801C211.5 210.173 210.959 210.901 210.959 210.901C210.959 210.901 209.196 210.648 208.269 211.388C207.361 212.114 206.985 213.203 206.897 214.315C206.86 214.784 206.843 215.261 206.843 215.744C206.844 219.102 207.715 222.696 208.826 225.259C208.883 225.391 208.944 225.511 209.009 225.622C209.88 227.14 211.377 226.908 212.252 226.543C212.517 227.264 212.971 227.986 213.706 228.193C214.975 228.55 215.955 228.158 216.671 228.193V228.179L216.673 228.193C217.389 228.158 218.368 228.55 219.638 228.193C220.373 227.986 220.827 227.264 221.092 226.543C221.966 226.908 223.464 227.14 224.335 225.622C224.399 225.511 224.461 225.391 224.518 225.259C225.628 222.696 226.5 219.101 226.502 215.744C226.499 215.261 226.482 214.784 226.444 214.315Z" fill="#FF725E"/>
<g opacity="0.3">
<path d="M225.072 211.407C224.146 210.668 222.382 210.921 222.382 210.921C222.382 210.921 221.841 210.195 221.318 209.822C220.095 208.954 217.52 209.104 216.67 210.276C215.821 209.104 213.246 208.954 212.024 209.822C211.5 210.195 210.959 210.921 210.959 210.921C210.959 210.921 209.196 210.668 208.269 211.407C208.212 211.453 208.163 211.503 208.111 211.551C209.05 211.407 210.471 211.847 212.001 213.209C212.001 213.209 213.025 211.707 215.574 212.541C216.269 212.769 217.025 212.824 217.74 212.652C219.891 212.136 220.976 212.962 221.63 214.246C222.193 215.352 222.175 221.735 221.09 226.541C222.029 226.932 223.686 227.171 224.515 225.257C225.783 222.33 226.74 218.057 226.444 214.328C226.356 213.22 225.981 212.132 225.072 211.407Z" fill="black"/>
</g>
<path d="M215.837 209.695C215.728 211.166 215.17 211.988 214.833 212.359C215.065 212.4 215.309 212.456 215.574 212.542C216.269 212.77 217.025 212.825 217.74 212.653C218.005 212.59 218.253 212.546 218.487 212.522C218.312 212.126 217.986 211.33 217.736 210.388C217.672 210.148 217.624 209.909 217.592 209.67C217.444 208.561 217.685 207.461 218.784 206.451C217.966 204.208 216.125 205.143 216.125 205.143C216.125 205.143 215.705 206.184 215.846 208.754C215.863 209.094 215.859 209.406 215.837 209.695Z" fill="#455A64"/>
<path d="M212.001 213.21C212.051 213.23 211.707 213.922 211.459 215.122C211.195 216.319 211.154 218.021 211.311 219.893C211.45 221.766 211.725 223.448 211.946 224.66C212.168 225.873 212.326 226.621 212.284 226.631C212.266 226.636 212.202 226.454 212.106 226.121C212.01 225.789 211.885 225.304 211.749 224.7C211.475 223.493 211.167 221.803 211.026 219.914C210.867 218.031 210.941 216.287 211.262 215.076C211.414 214.47 211.593 213.997 211.74 213.682C211.885 213.366 211.986 213.202 212.001 213.21Z" fill="#263238"/>
<path d="M216.578 227.79C216.5 227.79 216.436 224.67 216.436 220.822C216.436 216.973 216.5 213.853 216.578 213.853C216.657 213.853 216.72 216.972 216.72 220.822C216.72 224.67 216.657 227.79 216.578 227.79Z" fill="#263238"/>
<path d="M219.99 212.668C219.992 212.655 220.215 212.667 220.563 212.853C220.911 213.033 221.35 213.454 221.626 214.105C221.925 214.738 222.077 215.584 222.109 216.489C222.163 217.397 222.184 218.398 222.156 219.448C222.102 221.549 221.848 223.44 221.588 224.789C221.46 225.465 221.332 226.006 221.235 226.378C221.135 226.749 221.071 226.951 221.051 226.947C221.007 226.937 221.185 226.107 221.389 224.755C221.597 223.404 221.817 221.525 221.872 219.44C221.899 218.398 221.886 217.405 221.846 216.503C221.827 215.598 221.704 214.807 221.44 214.182C221.2 213.554 220.818 213.148 220.505 212.947C220.193 212.743 219.982 212.692 219.99 212.668Z" fill="#263238"/>
<path d="M219.686 212.627C219.669 212.663 219.292 212.509 218.65 212.617C218.33 212.66 217.956 212.752 217.521 212.832C217.079 212.919 216.57 212.897 216.07 212.8C215.569 212.711 215.102 212.55 214.696 212.471C214.282 212.393 213.898 212.38 213.583 212.409C212.94 212.459 212.618 212.731 212.592 212.693C212.56 212.676 212.869 212.317 213.557 212.209C213.892 212.152 214.299 212.143 214.742 212.212C215.192 212.286 215.636 212.434 216.123 212.52C216.606 212.612 217.066 212.638 217.481 212.572C217.903 212.509 218.294 212.435 218.63 212.416C219.313 212.355 219.714 212.595 219.686 212.627Z" fill="#263238"/>
<path d="M222.039 211.261C222.029 211.345 221.409 211.288 220.738 211.587C220.061 211.871 219.676 212.361 219.609 212.31C219.538 212.283 219.862 211.649 220.626 211.324C221.386 210.991 222.068 211.191 222.039 211.261Z" fill="#263238"/>
<path d="M211.506 210.852C211.497 210.779 212.308 210.684 213.239 211.013C214.173 211.335 214.75 211.915 214.697 211.967C214.645 212.034 214.022 211.583 213.145 211.283C212.273 210.972 211.506 210.936 211.506 210.852Z" fill="#263238"/>
<path d="M222.501 225.978C222.14 227.033 222.052 228.182 222.597 229.21C223.153 230.258 224.871 230.73 224.871 230.73C224.871 230.73 225.077 231.613 225.41 232.164C226.186 233.45 228.608 234.339 229.853 233.602C230.166 235.017 232.468 236.183 233.935 235.873C234.565 235.74 235.349 235.289 235.349 235.289C235.349 235.289 236.867 236.225 238.01 235.916C239.133 235.612 239.909 234.763 240.432 233.778C240.652 233.363 240.858 232.932 241.049 232.489C242.383 229.408 243.011 225.763 243.011 222.97C243.011 222.826 243.003 222.691 242.988 222.563C242.792 220.823 241.327 220.439 240.379 220.424C240.423 219.657 240.294 218.814 239.701 218.331C238.678 217.497 237.623 217.465 236.981 217.148L236.975 217.162L236.979 217.147C236.309 216.894 235.566 216.144 234.259 215.964C233.502 215.86 232.799 216.342 232.27 216.898C231.613 216.214 230.332 215.404 228.929 216.448C228.826 216.525 228.722 216.611 228.618 216.709C226.581 218.617 224.353 221.566 223.017 224.646C222.827 225.088 222.654 225.533 222.501 225.978Z" fill="#FF725E"/>
<g opacity="0.3">
<path d="M222.605 229.193C223.16 230.24 224.878 230.713 224.878 230.713C224.878 230.713 225.086 231.595 225.419 232.146C226.195 233.431 228.617 234.32 229.862 233.584C230.176 234.999 232.478 236.163 233.944 235.855C234.572 235.722 235.357 235.272 235.357 235.272C235.357 235.272 236.874 236.207 238.017 235.899C238.087 235.879 238.152 235.853 238.219 235.83C237.301 235.587 236.172 234.617 235.309 232.755C235.309 232.755 233.773 233.725 231.767 231.942C231.22 231.456 230.548 231.104 229.823 230.976C227.644 230.591 226.978 229.401 226.889 227.961C226.811 226.722 229.366 220.873 232.27 216.899C231.563 216.165 230.139 215.285 228.618 216.709C226.292 218.888 223.717 222.425 222.506 225.964C222.146 227.018 222.059 228.165 222.605 229.193Z" fill="black"/>
</g>
<path d="M230.396 234.449C231.08 233.143 231.918 232.612 232.375 232.406C232.178 232.276 231.976 232.126 231.768 231.942C231.221 231.456 230.549 231.104 229.824 230.975C229.556 230.928 229.312 230.869 229.087 230.798C229.09 231.231 229.074 232.091 228.928 233.055C228.892 233.3 228.841 233.539 228.775 233.771C228.47 234.848 227.812 235.76 226.403 236.248C226.262 238.631 228.323 238.509 228.323 238.509C228.323 238.509 229.122 237.722 230.013 235.308C230.132 234.989 230.261 234.705 230.396 234.449Z" fill="#455A64"/>
<path d="M235.31 232.755C235.274 232.717 235.863 232.22 236.568 231.218C237.287 230.225 238.001 228.681 238.601 226.901C239.217 225.127 239.633 223.475 239.912 222.275C240.19 221.073 240.343 220.324 240.385 220.332C240.404 220.335 240.391 220.527 240.346 220.871C240.302 221.214 240.224 221.709 240.109 222.317C239.879 223.533 239.491 225.206 238.869 226.996C238.267 228.785 237.507 230.356 236.73 231.339C236.35 231.834 235.998 232.197 235.738 232.428C235.479 232.657 235.322 232.769 235.31 232.755Z" fill="#263238"/>
<path d="M236.907 217.555C236.98 217.586 235.798 220.474 234.269 224.003C232.74 227.533 231.441 230.37 231.369 230.338C231.296 230.307 232.478 227.42 234.007 223.889C235.536 220.36 236.835 217.524 236.907 217.555Z" fill="#263238"/>
<path d="M227.767 230.065C227.761 230.076 227.561 229.976 227.315 229.667C227.068 229.362 226.832 228.802 226.838 228.093C226.816 227.394 227.012 226.557 227.342 225.713C227.653 224.858 228.032 223.931 228.474 222.979C229.358 221.073 230.343 219.44 231.118 218.306C231.504 217.737 231.837 217.292 232.073 216.989C232.312 216.688 232.453 216.528 232.468 216.54C232.505 216.567 232.012 217.257 231.287 218.415C230.559 219.572 229.61 221.207 228.732 223.099C228.292 224.043 227.91 224.96 227.588 225.803C227.246 226.641 227.045 227.416 227.039 228.093C227.009 228.764 227.199 229.29 227.405 229.6C227.611 229.915 227.785 230.046 227.767 230.065Z" fill="#263238"/>
<path d="M228.031 230.223C228.06 230.197 228.345 230.488 228.977 230.646C229.287 230.734 229.667 230.799 230.097 230.899C230.538 230.996 230.996 231.218 231.416 231.507C231.84 231.789 232.205 232.123 232.545 232.357C232.893 232.595 233.241 232.759 233.542 232.859C234.151 233.071 234.554 232.949 234.564 232.995C234.587 233.023 234.16 233.229 233.487 233.054C233.157 232.974 232.78 232.818 232.401 232.579C232.017 232.331 231.67 232.019 231.257 231.745C230.85 231.467 230.438 231.26 230.031 231.155C229.619 231.044 229.231 230.957 228.915 230.84C228.264 230.622 227.992 230.242 228.031 230.223Z" fill="#263238"/>
<path d="M225.329 230.537C225.371 230.464 225.918 230.763 226.651 230.757C227.385 230.767 227.932 230.472 227.975 230.545C228.029 230.598 227.481 231.05 226.65 231.044C225.821 231.045 225.275 230.59 225.329 230.537Z" fill="#263238"/>
<path d="M234.828 235.116C234.808 235.187 234.024 234.949 233.302 234.277C232.574 233.609 232.275 232.847 232.343 232.82C232.418 232.78 232.81 233.44 233.495 234.067C234.173 234.7 234.863 235.039 234.828 235.116Z" fill="#263238"/>
<path d="M251.488 220.076H180.821V230.33H251.488V220.076Z" fill="#FF9C67"/>
<path d="M251.488 238.868H180.821V249.122H251.488V238.868Z" fill="#FF9C67"/>
<path d="M192.86 214.933H184.165V248.869H192.86V214.933Z" fill="#FF9C67"/>
<path d="M247.739 214.933H239.045V248.869H247.739V214.933Z" fill="#FF9C67"/>
<path d="M251.343 230.438C251.343 230.554 235.587 230.648 216.157 230.648C196.72 230.648 180.967 230.554 180.967 230.438C180.967 230.321 196.72 230.227 216.157 230.227C235.587 230.226 251.343 230.321 251.343 230.438Z" fill="#263238"/>
<path d="M251.343 238.868C251.343 238.984 235.587 239.078 216.157 239.078C196.72 239.078 180.967 238.984 180.967 238.868C180.967 238.751 196.72 238.657 216.157 238.657C235.587 238.656 251.343 238.75 251.343 238.868Z" fill="#263238"/>
<path d="M251.343 219.969C251.343 220.085 235.587 220.179 216.157 220.179C196.72 220.179 180.967 220.085 180.967 219.969C180.967 219.852 196.72 219.758 216.157 219.758C235.587 219.758 251.343 219.852 251.343 219.969Z" fill="#263238"/>
<path d="M233.985 0H43.3224C24.136 17.6239 0.167554 19.8461 0.167554 19.8461H278.988C246.846 17.6617 233.985 0 233.985 0Z" fill="#FF725E"/>
<path d="M279.409 69.2222H90.8546L70.7472 68.0432L57.0324 69.2222H26.8011L0.587842 71.3426V19.8461H279.409V69.2222Z" fill="#FF725E"/>
<g opacity="0.3">
<path d="M56.4968 19.8461H27.846V69.2232H56.4968V19.8461Z" fill="white"/>
</g>
<g opacity="0.3">
<path d="M120.513 19.8461H91.8617V69.2232H120.513V19.8461Z" fill="white"/>
</g>
<g opacity="0.3">
<path d="M184.527 19.8461H155.876V69.2232H184.527V19.8461Z" fill="white"/>
</g>
<g opacity="0.3">
<path d="M248.542 19.8461H219.891V69.2232H248.542V19.8461Z" fill="white"/>
</g>
<path d="M208.296 53.0015C208.296 53.0015 208.134 53.0355 207.816 53.0811C207.482 53.1267 207.011 53.1898 206.4 53.2723C205.138 53.4334 203.305 53.6682 200.951 53.9681C199.765 54.1165 198.45 54.2815 197.011 54.461C195.568 54.6231 193.997 54.757 192.31 54.922C188.936 55.2277 185.099 55.6634 180.839 55.8953C178.71 56.036 176.48 56.1826 174.156 56.3349C171.832 56.4815 169.41 56.53 166.904 56.6358C161.892 56.8852 156.531 56.8842 150.89 56.9385C139.609 56.8755 127.206 56.4164 114.233 55.2937C101.261 54.1059 88.9681 52.3688 77.8515 50.4377C72.3083 49.3857 67.0304 48.4415 62.1408 47.308C59.6926 46.7598 57.3171 46.2823 55.0549 45.7292C52.7946 45.1673 50.6262 44.6287 48.5548 44.1134C44.4022 43.1313 40.7028 42.025 37.4344 41.1264C35.8036 40.6645 34.2812 40.255 32.8896 39.8406C31.5047 39.4088 30.239 39.0138 29.0992 38.6577C26.835 37.9444 25.0715 37.3893 23.859 37.008C23.2722 36.8187 22.8209 36.6722 22.4994 36.5693C22.1943 36.4684 22.0403 36.4063 22.0403 36.4063C22.0403 36.4063 22.2021 36.4412 22.512 36.5286C22.8354 36.6227 23.2915 36.7557 23.8842 36.9284C25.1025 37.2923 26.8728 37.8221 29.1457 38.5024C30.2884 38.8479 31.557 39.2312 32.9448 39.6495C34.3451 40.0347 35.8646 40.452 37.4964 40.9013C40.7677 41.7786 44.471 42.8635 48.6255 43.8262C50.6969 44.3318 52.8662 44.8616 55.1265 45.4138C57.3888 45.9582 59.7643 46.4279 62.2125 46.9674C67.1011 48.0844 72.377 49.015 77.9174 50.0563C89.0281 51.9651 101.31 53.6886 114.269 54.8754C127.23 55.9972 139.62 56.4679 150.89 56.5523C156.525 56.5086 161.883 56.5222 166.89 56.2884C169.395 56.1894 171.816 56.1496 174.138 56.0118C176.46 55.8682 178.689 55.7304 180.816 55.5993C185.075 55.3868 188.911 54.9724 192.286 54.6891C193.973 54.5348 195.545 54.4125 196.988 54.2621C198.428 54.0952 199.744 53.9428 200.93 53.805C203.288 53.5382 205.125 53.3295 206.388 53.1869C207.002 53.1219 207.474 53.0724 207.809 53.0365C208.131 53.0064 208.296 53.0015 208.296 53.0015Z" fill="#263238"/>
<path d="M266.161 36.2249C266.164 36.2317 266.098 36.2714 265.968 36.3432C265.814 36.4238 265.62 36.5267 265.379 36.6528C264.83 36.9313 264.067 37.3176 263.098 37.8086C262.108 38.3113 260.89 38.9139 259.459 39.5767C258.03 40.2444 256.413 41.0294 254.593 41.8213C250.975 43.4594 246.61 45.2828 241.716 47.1858C236.81 49.0597 231.369 50.9928 225.589 52.8152C219.802 54.6192 214.229 56.1351 209.131 57.3966C204.026 58.63 199.402 59.6218 195.498 60.3438C193.552 60.7349 191.778 61.0124 190.223 61.2802C188.67 61.5529 187.327 61.7538 186.228 61.9071C185.153 62.0575 184.305 62.1759 183.696 62.2613C183.426 62.2953 183.209 62.3215 183.037 62.3429C182.888 62.3594 182.811 62.3632 182.81 62.3564C182.809 62.3496 182.884 62.3302 183.031 62.3002C183.201 62.2681 183.416 62.2274 183.685 62.1769C184.291 62.0731 185.133 61.9285 186.203 61.7451C187.298 61.5675 188.636 61.3433 190.184 61.0483C191.732 60.7582 193.502 60.4602 195.442 60.0517C199.335 59.2928 203.947 58.2719 209.039 57.0201C214.124 55.7391 219.685 54.2136 225.464 52.4135C231.235 50.5939 236.672 48.6735 241.578 46.8229C246.472 44.9422 250.844 43.1498 254.473 41.5476C256.3 40.7742 257.923 40.0095 259.36 39.3622C260.799 38.7198 262.027 38.1395 263.028 37.6591C264.011 37.1982 264.785 36.8353 265.342 36.5742C265.591 36.4626 265.791 36.3724 265.949 36.3015C266.086 36.2462 266.158 36.219 266.161 36.2249Z" fill="#263238"/>
<g opacity="0.3">
<path d="M27.846 20.4459C27.846 20.4459 46.7942 10.7038 51.893 0.00097699H63.1625L56.4968 20.4459H27.846Z" fill="white"/>
</g>
<g opacity="0.3">
<path d="M248.542 20.4459C248.542 20.4459 229.594 10.7038 224.495 0.00097699H213.225L219.891 20.4459H248.542Z" fill="white"/>
</g>
<g opacity="0.3">
<path d="M91.8617 19.8461C91.8617 19.8461 98.448 3.98165 97.7778 0C97.7778 0 116.058 0 115.169 0C114.28 0 117.085 13.4229 120.513 19.8461H91.8617Z" fill="white"/>
</g>
<g opacity="0.3">
<path d="M155.789 19.8461C155.789 19.8461 159.224 3.98165 158.553 0H176.129C175.24 0 181.013 13.4229 184.44 19.8461H155.789Z" fill="white"/>
</g>
<path d="M278.5 20.4449C278.5 20.4449 278.256 20.4614 277.782 20.4673C277.291 20.4711 276.588 20.476 275.671 20.4828C273.8 20.4847 271.069 20.4886 267.557 20.4925C260.494 20.476 250.304 20.4517 237.713 20.4216C212.501 20.3256 177.697 20.1926 139.255 20.0461C100.795 19.9432 65.9816 20.0131 40.7832 20.1771C28.1937 20.2722 18.004 20.3479 10.9432 20.4013C7.43071 20.4265 4.70073 20.4459 2.82973 20.4595C1.91361 20.4605 1.21053 20.4614 0.719539 20.4614C0.244043 20.4595 0 20.4449 0 20.4449C0 20.4449 0.243075 20.4246 0.718571 20.41C1.20956 20.3984 1.91167 20.3799 2.8278 20.3576C4.69879 20.3227 7.42781 20.2712 10.9403 20.2052C17.9856 20.0781 28.1811 19.9452 40.7803 19.821C65.9796 19.5657 100.795 19.4396 139.257 19.5425C177.706 19.6473 212.517 19.8889 237.715 20.0655C250.305 20.1635 260.495 20.2421 267.558 20.2974C271.07 20.3343 273.801 20.3634 275.672 20.3828C276.588 20.3984 277.292 20.41 277.783 20.4178C278.257 20.4265 278.5 20.4449 278.5 20.4449Z" fill="#263238"/>
</svg>
