<svg width="80" height="254" viewBox="0 0 80 254" fill="none" xmlns="http://www.w3.org/2000/svg">
<path d="M48.6846 2.93394C48.1284 1.69195 46.7146 0.894706 45.3666 1.06464C43.8704 -0.268625 41.4215 -0.361842 39.8294 0.853926C38.6868 0.0848457 37.1383 -0.0336294 35.8931 0.553863C34.6478 1.14135 33.7514 2.41247 33.6138 3.78458C31.8123 4.62746 30.571 4.57405 30.0244 5.34993C29.2201 6.49093 29.4624 8.20195 30.3762 9.25652C28.8529 9.65757 27.7733 11.3142 28.0185 12.8737C28.2636 14.4332 29.7996 15.6762 31.3724 15.5888L47.8716 6.66281C48.8949 5.76361 49.2409 4.17593 48.6846 2.93394Z" fill="#263238"/>
<path d="M30.8801 16.0104C31.854 8.95465 38.0706 3.83231 45.167 4.23724L45.8724 4.27705C53.4505 5.15684 56.9382 12.096 55.8518 19.6625L53.3081 44.9704L53.1724 46.1987L35.427 48.7216L35.8194 42.2562C35.8194 42.2562 28.5747 40.6996 28.9013 33.372C29.0593 29.8344 29.975 22.5728 30.8801 16.0104Z" fill="#FFBF9D"/>
<path d="M35.7603 42.2445C35.7603 42.2445 40.4109 42.7922 45.4955 39.9829C45.4955 39.9829 42.944 45.1247 35.6887 44.0487L35.7603 42.2445Z" fill="#FF9A6C"/>
<path d="M32.4141 23.1458C32.3628 23.6964 32.7872 24.1945 33.36 24.2586C33.9327 24.3217 34.4385 23.9285 34.4889 23.3769C34.5393 22.8253 34.1158 22.3272 33.5441 22.2641C32.9714 22.2 32.4645 22.5942 32.4141 23.1458Z" fill="#263238"/>
<path d="M32.2475 19.683C32.3686 19.8267 33.1923 19.2858 34.3165 19.3528C35.4386 19.4033 36.2304 20.0296 36.3602 19.8985C36.4232 19.8413 36.3059 19.5868 35.9619 19.3052C35.6237 19.0236 35.0355 18.7362 34.3359 18.6993C33.6362 18.6634 33.0334 18.8877 32.6797 19.1324C32.3182 19.379 32.1874 19.6189 32.2475 19.683Z" fill="#263238"/>
<path d="M42.3238 23.8925C42.2724 24.4431 42.6969 24.9412 43.2705 25.0043C43.8433 25.0684 44.3491 24.6742 44.4005 24.1226C44.4509 23.572 44.0274 23.0729 43.4547 23.0098C42.881 22.9467 42.3751 23.3419 42.3238 23.8925Z" fill="#263238"/>
<path d="M43.2744 20.524C43.3965 20.6677 44.2211 20.1268 45.3433 20.1938C46.4654 20.2443 47.2572 20.8706 47.387 20.7396C47.45 20.6823 47.3337 20.4288 46.9887 20.1462C46.6505 19.8656 46.0623 19.5772 45.3627 19.5403C44.663 19.5044 44.0603 19.7287 43.7066 19.9734C43.3461 20.2191 43.2143 20.4589 43.2744 20.524Z" fill="#263238"/>
<path d="M38.7247 28.6362C38.7334 28.5721 38.0424 28.4119 36.9193 28.2022C36.6344 28.1565 36.3659 28.0837 36.3291 27.8846C36.2739 27.673 36.4105 27.37 36.5685 27.0437C36.8776 26.3639 37.2013 25.6512 37.5404 24.9045C38.8952 21.8563 39.8933 19.3432 39.7703 19.2898C39.6472 19.2364 38.4494 21.6631 37.0947 24.7122C36.7672 25.4638 36.4551 26.1814 36.1576 26.867C36.0306 27.1874 35.8233 27.5467 35.9444 27.9866C36.0093 28.2061 36.2109 28.374 36.3921 28.4333C36.5723 28.5003 36.7342 28.5119 36.8747 28.5285C38.0105 28.6547 38.7159 28.7003 38.7247 28.6362Z" fill="#263238"/>
<path d="M41.9855 29.6034C41.8033 29.5821 41.7316 30.8037 40.6394 31.6106C39.5483 32.4215 38.2566 32.2098 38.2372 32.3797C38.2159 32.4554 38.5134 32.6331 39.0609 32.6798C39.5977 32.7293 40.3933 32.6011 41.062 32.1068C41.7287 31.6116 42.0427 30.9173 42.1124 30.4191C42.188 29.9113 42.0688 29.6015 41.9855 29.6034Z" fill="#263238"/>
<path d="M43.2356 16.0969C43.3286 16.4086 44.4585 16.328 45.7668 16.562C47.0798 16.7698 48.1206 17.2175 48.3115 16.9524C48.3968 16.8252 48.2282 16.5271 47.8154 16.2066C47.4064 15.8871 46.7426 15.5667 45.9567 15.4336C45.1708 15.3016 44.4391 15.3861 43.9478 15.555C43.4526 15.723 43.1959 15.9493 43.2356 16.0969Z" fill="#263238"/>
<path d="M32.2814 16.4464C32.4645 16.7134 33.2534 16.492 34.1837 16.5328C35.1159 16.5406 35.8921 16.8027 36.0879 16.5454C36.1751 16.4201 36.0656 16.157 35.7351 15.8958C35.4095 15.6355 34.8533 15.4054 34.2128 15.3889C33.5722 15.3724 33.0053 15.5724 32.6671 15.8161C32.324 16.0589 32.2009 16.3162 32.2814 16.4464Z" fill="#263238"/>
<path d="M31.7019 12.2339C31.7019 12.2339 33.89 7.75833 36.1576 6.81348C38.9029 5.67054 39.8856 8.67501 42.472 8.10694C45.0584 7.53887 47.6797 6.44156 50.1692 8.56236C52.8942 10.8832 51.4736 12.3213 51.4649 15.5812C51.429 28.7954 53.6181 32.6573 54.654 26.492C54.7674 25.8162 56.6813 25.3831 57.1232 22.5272C57.6969 18.8236 58.0971 14.3101 57.4178 11.6193C56.8451 9.35184 55.6657 7.73987 53.4892 5.91331C50.0529 3.02926 45.1282 2.69036 41.7617 2.83699C38.3961 2.98362 31.7232 6.47458 31.7019 12.2339Z" fill="#263238"/>
<path d="M54.2732 26.7241C54.3836 25.5967 55.406 24.7596 56.5233 24.9305C57.8791 25.1383 59.351 26.0006 59.101 28.8177C58.6572 33.8148 53.7412 32.3368 53.746 32.1931C53.7489 32.096 54.0687 28.8138 54.2732 26.7241Z" fill="#FFBF9D"/>
<path d="M54.998 30.4103C55.0213 30.3967 55.0794 30.4792 55.2199 30.5598C55.3566 30.6385 55.5988 30.7055 55.8682 30.6307C56.4119 30.4841 56.9303 29.6859 57.0349 28.7867C57.0882 28.3332 57.0311 27.8914 56.9022 27.5185C56.7821 27.1388 56.5688 26.863 56.3082 26.7921C56.0494 26.7076 55.8479 26.8494 55.7742 26.9844C55.6948 27.1184 55.718 27.2204 55.6909 27.2272C55.6754 27.2388 55.5911 27.1339 55.6502 26.931C55.6802 26.8339 55.749 26.7212 55.874 26.6358C56.0019 26.5484 56.1832 26.5144 56.3653 26.5513C56.7472 26.6125 57.0621 26.998 57.2046 27.4068C57.3674 27.8195 57.441 28.3167 57.3819 28.8265C57.2608 29.8306 56.6619 30.7269 55.9225 30.8715C55.564 30.9317 55.281 30.7997 55.1395 30.6686C54.9961 30.5317 54.9796 30.4181 54.998 30.4103Z" fill="#FF9A6C"/>
<path d="M54.7267 17.0192C54.0523 17.4261 53.341 17.8446 52.555 17.8776C51.7691 17.9106 50.8999 17.4096 50.8127 16.6259C50.773 16.2744 50.8815 15.8743 50.6673 15.5918C50.4125 15.2548 49.9037 15.3267 49.4821 15.347C48.0208 15.4189 46.5915 14.3041 46.3027 12.867C45.9006 13.402 45.0371 13.3282 44.4973 12.934C43.9576 12.5397 43.63 11.926 43.2201 11.3977C42.8102 10.8695 42.22 10.384 41.5543 10.4403C41.1822 10.4723 40.8236 10.6724 40.4544 10.618C39.8013 10.5218 39.5251 9.73432 39.463 9.07594C39.401 8.41756 39.3671 7.65236 38.8312 7.26588C38.3351 6.90756 37.6567 7.06001 37.0472 7.11439C36.4386 7.16974 35.6663 6.98233 35.5452 6.38221C35.4822 6.06759 35.6334 5.74811 35.8204 5.4869C36.6683 4.30414 38.3952 3.8555 39.7102 4.47698C40.2935 2.85046 41.91 1.65119 43.6329 1.56768C45.3559 1.48417 47.0809 2.52225 47.8173 4.08468C48.9279 3.18451 50.4852 2.86988 51.8574 3.26704C53.2295 3.6642 54.3788 4.76249 54.8401 6.11712C56.0737 5.86658 57.4323 6.41619 58.1455 7.45523C58.8588 8.49427 58.8859 9.96252 58.2105 11.0268C59.0797 11.592 59.7978 12.53 59.7571 13.5681C59.7164 14.6052 58.6504 15.5801 57.6678 15.2509C58.0254 16.0812 57.6349 17.1571 56.8286 17.563C56.0233 17.9689 54.9273 17.6417 54.4757 16.86" fill="#263238"/>
<path d="M58.0341 15.2615C58.0526 15.2489 58.102 15.6878 57.6679 16.2063C57.4537 16.452 57.0971 16.6996 56.6329 16.7472C56.1784 16.7967 55.6328 16.655 55.2326 16.251L55.4458 16.2316C55.1745 16.6482 54.8227 17.0686 54.3779 17.4231C54.091 17.6484 53.7771 17.8367 53.435 17.9377C53.0997 18.0504 52.7256 18.0407 52.4243 17.9737C51.7953 17.8678 51.2624 17.4949 51.0298 17.0628C50.7866 16.6385 50.7246 16.2539 50.6848 15.9976C50.649 15.7383 50.6519 15.5936 50.6693 15.5907C50.6916 15.5868 50.7255 15.7276 50.7943 15.9743C50.865 16.219 50.9601 16.5841 51.2013 16.9531C51.6335 17.6979 53.1559 18.1533 54.1996 17.1949C54.6134 16.8667 54.9526 16.4695 55.2171 16.0791L55.313 15.9364L55.4303 16.0587C55.7549 16.3996 56.221 16.5404 56.6135 16.5122C57.0118 16.488 57.3335 16.2928 57.5448 16.0859C57.9702 15.6548 57.9905 15.246 58.0341 15.2615Z" fill="white"/>
<path d="M49.2438 3.28735C49.2458 3.30483 49.112 3.31453 48.8833 3.39707C48.6604 3.47961 48.3281 3.65053 48.0693 4.01371L48.0044 4.10596L47.9405 4.00885C47.5092 3.35435 46.7717 2.50273 45.636 1.91135C45.071 1.621 44.4092 1.40544 43.693 1.36659C42.9817 1.32193 42.2249 1.48506 41.5427 1.85115C41.0126 2.1347 40.5581 2.52701 40.2151 2.97564C39.8788 3.4301 39.6598 3.94281 39.5794 4.45358L39.5542 4.6109L39.4049 4.5604C38.6656 4.31084 37.8933 4.41378 37.3138 4.69539C36.7265 4.97699 36.3369 5.43436 36.1082 5.84997C35.6557 6.70742 35.7633 7.32502 35.7119 7.31531C35.7003 7.31628 35.6673 7.17353 35.675 6.9026C35.6847 6.63362 35.7419 6.23063 35.9648 5.77521C36.1848 5.32658 36.585 4.81775 37.2139 4.49535C37.8322 4.1749 38.6675 4.0438 39.4883 4.30793L39.3149 4.41475C39.3943 3.85736 39.6278 3.29706 39.9874 2.8057C40.3537 2.32017 40.8392 1.89873 41.4051 1.59576C42.1319 1.20442 42.9469 1.03254 43.7076 1.08692C44.4683 1.13547 45.1651 1.37241 45.7504 1.68703C46.9278 2.32793 47.6614 3.23297 48.0693 3.92534L47.9405 3.92047C48.2447 3.53399 48.613 3.37959 48.8552 3.31744C49.1062 3.25821 49.2438 3.27667 49.2438 3.28735Z" fill="white"/>
<path d="M43.662 30.4306C43.5806 30.4257 43.5796 29.8965 43.1794 29.4362C42.7957 28.9623 42.2753 28.8711 42.285 28.7895C42.2869 28.7536 42.4284 28.7196 42.6542 28.772C42.8771 28.8216 43.1716 28.9789 43.4003 29.2498C43.6281 29.5217 43.7318 29.8392 43.7424 30.0684C43.755 30.3005 43.6969 30.4355 43.662 30.4306Z" fill="#FF9A6C"/>
<path d="M44.1834 29.0729C44.1107 29.1118 43.9391 28.9272 43.6804 28.7932C43.4255 28.6515 43.1775 28.6116 43.1688 28.5301C43.1523 28.4534 43.4749 28.3553 43.8161 28.5388C44.1581 28.7204 44.256 29.0438 44.1834 29.0729Z" fill="#FF9A6C"/>
<path d="M37.6062 230.398L37.6014 253.926L6.69323 254C6.85991 251.203 22.8203 245.551 22.8203 245.551L22.1701 230.474L37.6062 230.398Z" fill="#455A64"/>
<g opacity="0.6">
<path d="M32.3707 244.26C32.9695 244.414 33.3862 245.05 33.2505 245.623C33.1148 246.196 32.4365 246.6 31.8347 246.457C31.2329 246.313 30.7077 245.564 30.9112 245.01C31.1137 244.455 31.9384 244.02 32.4859 244.296" fill="white"/>
</g>
<g opacity="0.6">
<path d="M37.6006 253.926L37.5037 251.555L7.90571 252.512C7.90571 252.512 6.5326 253.082 6.6925 254L37.6006 253.926Z" fill="white"/>
</g>
<path d="M22.774 245.601C22.7798 245.744 23.5347 245.807 24.2799 246.265C25.0377 246.703 25.4234 247.322 25.562 247.265C25.7005 247.237 25.4718 246.383 24.559 245.843C23.6519 245.297 22.7401 245.47 22.774 245.601Z" fill="#263238"/>
<path d="M19.2321 246.919C19.1982 247.058 19.8533 247.299 20.3688 247.903C20.9028 248.491 21.0365 249.145 21.1867 249.138C21.3282 249.16 21.4289 248.322 20.7729 247.584C20.1227 246.84 19.235 246.783 19.2321 246.919Z" fill="#263238"/>
<path d="M17.3657 250.59C17.5033 250.62 17.7097 249.905 17.3173 249.123C16.9316 248.339 16.2183 248.032 16.1553 248.15C16.071 248.268 16.5314 248.687 16.8425 249.334C17.169 249.974 17.2155 250.576 17.3657 250.59Z" fill="#263238"/>
<path d="M22.7188 242.616C22.7828 242.746 23.4738 242.547 24.3275 242.601C25.1822 242.638 25.847 242.907 25.9255 242.784C26.0127 242.68 25.3615 242.153 24.3556 242.104C23.3497 242.047 22.6442 242.505 22.7188 242.616Z" fill="#263238"/>
<path d="M23.2905 238.478C23.2895 238.537 23.8864 238.623 24.8381 238.466C25.3119 238.387 25.8701 238.239 26.4544 237.991C26.7471 237.867 27.0456 237.718 27.3411 237.542C27.4826 237.456 27.6512 237.368 27.8063 237.197C27.9729 237.047 28.066 236.668 27.8712 236.436C27.7123 236.211 27.4312 236.115 27.2084 236.111C26.9806 236.104 26.7965 236.148 26.6279 236.189C26.2839 236.268 25.9621 236.377 25.6666 236.503C25.0774 236.759 24.5997 237.082 24.244 237.394C23.5298 238.024 23.2875 238.559 23.3399 238.586C23.4087 238.633 23.7556 238.185 24.4824 237.664C24.8448 237.404 25.309 237.136 25.8595 236.924C26.1356 236.819 26.4331 236.729 26.7471 236.663C27.0736 236.58 27.3528 236.578 27.4371 236.715C27.4681 236.767 27.472 236.788 27.4041 236.879C27.3344 236.963 27.2016 237.045 27.062 237.132C26.7897 237.302 26.5145 237.448 26.247 237.576C25.7092 237.831 25.1947 238.006 24.7538 238.123C23.87 238.36 23.2876 238.401 23.2905 238.478Z" fill="#263238"/>
<path d="M23.4882 238.682C23.5415 238.705 23.839 238.192 23.8894 237.266C23.9126 236.806 23.8593 236.25 23.6694 235.661C23.5735 235.368 23.4417 235.067 23.2702 234.772C23.087 234.484 22.8641 234.096 22.2788 234.034C21.9726 234.023 21.7196 234.251 21.6343 234.444C21.5326 234.642 21.5133 234.812 21.4784 234.982C21.4231 235.324 21.4318 235.659 21.4822 235.969C21.583 236.593 21.8543 237.109 22.1509 237.482C22.7585 238.24 23.3893 238.409 23.4019 238.36C23.4523 238.288 22.9242 238.013 22.4581 237.286C22.2284 236.928 22.0239 236.454 21.961 235.91C21.929 235.639 21.9318 235.352 21.9851 235.063C22.0317 234.753 22.1538 234.501 22.2769 234.532C22.43 234.529 22.6926 234.763 22.8205 235.011C22.9804 235.273 23.1083 235.541 23.2081 235.804C23.4048 236.332 23.4921 236.839 23.5153 237.267C23.5647 238.125 23.4058 238.66 23.4882 238.682Z" fill="#263238"/>
<path d="M66.8449 220.493L79.7353 236.939L58.1747 253.999C56.7579 251.953 64.8156 239.219 64.8156 239.219L56.0989 229.041L66.8449 220.493Z" fill="#455A64"/>
<g opacity="0.6">
<path d="M70.7821 233.062C71.2851 232.84 71.9246 233.055 72.1436 233.53C72.3626 234.005 72.1107 234.661 71.6116 234.892C71.1125 235.123 70.3354 234.888 70.1726 234.389C70.0107 233.89 70.348 233.133 70.8819 233.024" fill="white"/>
</g>
<g opacity="0.6">
<path d="M79.7353 236.94L78.3669 235.336L58.2067 252.293C58.2067 252.293 57.5593 253.447 58.1747 254L79.7353 236.94Z" fill="white"/>
</g>
<path d="M64.7846 239.393C64.867 239.49 65.429 239.118 66.2004 239.029C66.9708 238.919 67.5794 239.139 67.6443 239.022C67.7257 238.926 67.0978 238.455 66.1646 238.58C65.2323 238.698 64.6897 239.32 64.7846 239.393Z" fill="#263238"/>
<path d="M63.0752 242.286C63.1275 242.402 63.7177 242.21 64.4086 242.348C65.1044 242.466 65.556 242.849 65.6568 242.762C65.7682 242.699 65.3796 242.059 64.5162 241.903C63.6547 241.741 63.0025 242.189 63.0752 242.286Z" fill="#263238"/>
<path d="M63.7119 245.861C63.8243 245.806 63.5772 245.193 62.8746 244.862C62.1749 244.526 61.5082 244.704 61.5295 244.822C61.5344 244.952 62.0858 244.99 62.6585 245.271C63.2361 245.538 63.5995 245.933 63.7119 245.861Z" fill="#263238"/>
<path d="M63.0965 237.051C63.2128 237.106 63.5869 236.588 64.2119 236.155C64.8292 235.71 65.4417 235.532 65.4291 235.404C65.433 235.284 64.6887 235.274 63.959 235.793C63.2264 236.307 62.9832 237.014 63.0965 237.051Z" fill="#263238"/>
<path d="M61.268 234.018C61.299 234.06 61.7641 233.793 62.3436 233.159C62.6314 232.843 62.9405 232.433 63.2128 231.937C63.3495 231.69 63.4765 231.422 63.5869 231.135C63.6383 230.996 63.708 230.842 63.7226 230.637C63.7575 230.441 63.614 230.124 63.3514 230.07C63.1169 230.001 62.8679 230.088 62.7099 230.208C62.5471 230.328 62.4425 230.46 62.3465 230.581C62.1498 230.826 61.9841 231.079 61.8474 231.33C61.5761 231.833 61.4191 232.321 61.3416 232.735C61.1875 233.568 61.3116 234.075 61.3629 234.066C61.4366 234.061 61.4337 233.557 61.6556 232.793C61.767 232.412 61.9434 231.969 62.2118 231.518C62.3475 231.293 62.5055 231.066 62.6886 230.847C62.8718 230.61 63.0646 230.455 63.1993 230.504C63.2497 230.524 63.2632 230.536 63.2661 230.637C63.2632 230.734 63.2158 230.864 63.1654 231.002C63.0675 231.27 62.957 231.525 62.8388 231.762C62.6023 232.236 62.3388 232.641 62.0946 232.966C61.6081 233.616 61.2234 233.966 61.268 234.018Z" fill="#263238"/>
<path d="M61.5179 234.052C61.5674 234.038 61.4937 233.516 61.0217 232.841C60.7863 232.507 60.4442 232.148 59.9888 231.841C59.7601 231.689 59.5042 231.551 59.2232 231.439C58.9373 231.338 58.5691 231.191 58.1262 231.469C57.9072 231.631 57.8549 231.929 57.9004 232.11C57.9382 232.304 58.0177 232.435 58.0865 232.572C58.2357 232.841 58.4247 233.072 58.6301 233.26C59.0419 233.64 59.5158 233.852 59.9267 233.949C60.7669 234.144 61.2998 233.915 61.2824 233.875C61.2776 233.797 60.7582 233.895 60.0343 233.644C59.6777 233.519 59.2745 233.301 58.9324 232.955C58.7619 232.783 58.6059 232.58 58.4848 232.35C58.3472 232.106 58.2948 231.865 58.3975 231.818C58.5032 231.732 58.8152 231.751 59.04 231.853C59.2949 231.948 59.5314 232.066 59.7465 232.195C60.1738 232.456 60.512 232.762 60.762 233.047C61.2659 233.621 61.4491 234.082 61.5179 234.052Z" fill="#263238"/>
<path d="M59.5991 125.194L59.4644 126.786C59.1475 130.535 58.4449 134.241 57.3683 137.845L57.2327 138.299C56.3179 141.461 54.6375 144.345 52.3379 146.695C49.9531 149.132 47.1477 152.023 46.6913 152.59L35.8736 189.844L39.4543 242.474L19.2301 243.574C19.2301 243.574 13.6502 191.752 13.53 183.845C13.4118 176.099 20.5073 122.641 20.5073 122.641L22.5336 118.985L59.5991 125.194Z" fill="#263238"/>
<path d="M44.8626 153.947L47.4296 190.336L74.1224 225.514L57.9207 236.967L22.0199 196.29L20.9171 148.582L44.8626 153.947Z" fill="#263238"/>
<path d="M46.6913 152.59C46.6855 152.588 46.6622 152.646 46.6215 152.762C46.576 152.895 46.5188 153.065 46.4461 153.276C46.291 153.754 46.0749 154.421 45.7997 155.274C45.2435 157.04 44.4469 159.566 43.4575 162.705C41.4903 169.047 38.7576 177.862 35.6595 187.852L35.6498 187.883L35.6518 187.916C35.7952 190.043 35.9454 192.27 36.0985 194.539C36.9319 206.54 37.6868 217.402 38.2353 225.292C38.525 229.209 38.7595 232.386 38.9233 234.61C39.0115 235.69 39.0793 236.539 39.1287 237.141C39.1549 237.415 39.1752 237.632 39.1907 237.8C39.2072 237.947 39.3652 241.262 39.371 241.262C39.3768 241.262 39.2315 237.946 39.2276 237.798C39.2208 237.63 39.2121 237.412 39.2004 237.137C39.1675 236.534 39.121 235.684 39.0619 234.601C38.9242 232.375 38.7285 229.196 38.4872 225.277C37.9659 217.385 37.2488 206.52 36.4561 194.515C36.302 192.247 36.1498 190.019 36.0054 187.894L35.9977 187.958C39.0502 177.954 41.7433 169.127 43.6814 162.776C44.6272 159.623 45.3888 157.087 45.9209 155.313C46.1718 154.452 46.3686 153.779 46.5091 153.297C46.5682 153.08 46.6167 152.907 46.6535 152.772C46.6835 152.653 46.6971 152.592 46.6913 152.59Z" fill="#455A64"/>
<path d="M53.2624 45.3877C53.2624 45.3877 60.5207 54.5196 60.919 63.0368C61.1196 67.3366 60.573 112.051 60.573 112.051L61.5896 126.28L18.7543 124.062L20.5432 102.092L23.0123 76.9298C23.7973 68.9292 26.5833 61.2559 31.1108 54.6196L35.3668 48.3825L53.2624 45.3877Z" fill="#FF725E"/>
<g opacity="0.3">
<path d="M36.5782 96.3413L36.4203 85.379L33.9792 84.8274L35.2632 70.8257L35.9066 82.2784L38.7014 82.1687L38.7479 96.2995L36.5782 96.3413Z" fill="black"/>
</g>
<path d="M58.0826 101.489C57.9721 103.227 57.3898 104.918 56.5157 106.418C53.9496 110.822 51.1083 112.226 49.9019 114.062C49.6974 114.373 49.7419 114.577 49.4619 114.469C49.2613 114.392 49.395 114.022 49.4483 113.808C49.77 112.519 49.1024 107.571 49.8999 104.297C50.3505 102.446 51.0463 100.656 52.3448 99.244C53.3323 98.169 55.4652 96.5123 56.8655 97.0552C58.3414 97.6271 58.1214 100.887 58.0826 101.489Z" fill="#455A64"/>
<g opacity="0.3">
<path d="M58.0826 101.489C57.9721 103.227 57.3898 104.918 56.5157 106.418C53.9496 110.822 51.1083 112.226 49.9019 114.062C49.6974 114.373 49.7419 114.577 49.4619 114.469C49.2613 114.392 49.395 114.022 49.4483 113.808C49.77 112.519 49.1024 107.571 49.8999 104.297C50.3505 102.446 51.0463 100.656 52.3448 99.244C53.3323 98.169 55.4652 96.5123 56.8655 97.0552C58.3414 97.6271 58.1214 100.887 58.0826 101.489Z" fill="black"/>
</g>
<path d="M62.0266 115.843C60.9384 116.47 59.6699 116.921 58.4189 117.191C57.5864 117.371 54.3372 118.165 52.6684 118.975C52.2362 119.185 55.1473 113.76 56.9905 111.301C58.258 109.609 60.8337 107.286 63.6924 107.343C65.021 107.371 66.1606 107.583 66.7808 108.314C67.5425 109.213 66.6675 113.168 62.0266 115.843Z" fill="#455A64"/>
<g opacity="0.3">
<path d="M62.0266 115.843C60.9384 116.47 59.6699 116.921 58.4189 117.191C57.5864 117.371 54.3372 118.165 52.6684 118.975C52.2362 119.185 55.1473 113.76 56.9905 111.301C58.258 109.609 60.8337 107.286 63.6924 107.343C65.021 107.371 66.1606 107.583 66.7808 108.314C67.5425 109.213 66.6675 113.168 62.0266 115.843Z" fill="black"/>
</g>
<path d="M62.9724 121.527C61.5247 122.436 59.0458 122.933 57.1019 122.712C53.7509 122.33 52.3283 123.154 52.3283 123.154C52.1897 122.942 52.4398 122.327 52.246 122.475C51.7634 122.843 53.6375 121.495 54.842 119.677C55.9409 118.018 57.1716 115.769 61.5702 114.618C62.2873 114.43 66.1936 114.12 66.7459 116.024C67.3187 118.004 64.7555 120.408 62.9724 121.527Z" fill="#455A64"/>
<path d="M45.1504 101.469C43.9789 104.452 44.2512 107.466 44.8568 109.522C45.4121 111.405 47.1041 114.67 47.1041 114.67C47.1506 115.13 49.3678 112.029 50.9871 107.197C51.6383 105.253 51.8544 103.219 51.2352 101.054C51.0123 100.274 50.0975 97.6833 48.4336 97.6969C46.7077 97.7105 45.4082 100.813 45.1504 101.469Z" fill="#455A64"/>
<path d="M38.2585 111.94C38.5192 114.167 39.6491 115.816 40.469 116.817C41.8072 118.449 43.5961 119.926 43.5961 119.926C43.8432 119.92 44.0845 120.177 44.0758 119.952C44.0671 119.726 45.1195 118.159 45.1418 114.538C45.1544 112.469 44.508 110.06 44.1339 109.251C42.8722 106.523 40.8856 105.574 39.8439 106.063C38.3477 106.766 38.0066 109.782 38.2585 111.94Z" fill="#455A64"/>
<path d="M58.6553 103.05C57.1446 103.897 55.6561 105.131 54.7065 106.591C51.8884 110.927 52.1956 114.238 51.2101 116.244C50.9843 116.704 50.9668 118.001 51.4455 117.23C52.7586 115.113 55.1677 114.474 56.38 114.023C58.855 113.101 60.4355 111.584 61.5296 109.854C63.9619 106.006 63.5307 103.329 62.8058 102.685C61.8697 101.853 59.5973 102.52 58.6553 103.05Z" fill="#455A64"/>
<path d="M53.5125 121.785C50.9465 123.099 49.2768 124.462 48.2564 125.479C49.1682 123.752 51.2313 120.405 55.1541 117.052C59.2503 113.551 64.115 110.24 64.115 110.24C64.115 110.24 58.9111 113.004 54.3721 116.949C51.9203 119.081 50.4183 120.546 49.4473 121.625C49.6198 121.197 49.8127 120.729 50.0278 120.216C53.3061 112.409 60.4151 104.845 60.4151 104.845C60.4151 104.845 52.8361 112.404 50.0336 118.471C49.4628 119.707 48.5664 121.765 47.6119 123.835C47.5702 122.978 47.5925 120.074 49.2719 115.684C51.1199 110.851 55.7995 99.2314 55.8363 99.1381C55.8363 99.1381 50.7894 110.138 48.5151 116.026C47.8464 117.757 47.0411 119.888 46.3919 121.799C46.7175 119.866 47.0954 117.262 47.6167 113.852C48.5296 107.878 47.9995 100.396 47.9995 100.396C47.9995 100.396 47.89 107.876 47.1167 113.237C46.4626 117.771 45.5343 121.257 44.9509 123.29C44.7542 122.161 44.4228 120.716 44.0012 118.883C42.7463 113.415 40.3382 108.343 40.3382 108.343C40.3382 108.343 42.3315 113.543 43.3267 118.478C44.446 124.028 44.3917 125.055 43.8742 127.045C43.129 129.914 46.3909 130.93 47.6507 128.382C48.5655 126.532 49.9958 124.239 54.2471 122.073C59.0236 119.639 64.4997 117.578 64.4997 117.578C64.4997 117.578 58.8365 119.059 53.5125 121.785Z" fill="#455A64"/>
<g opacity="0.1">
<path d="M53.5125 121.785C50.9465 123.099 49.2768 124.462 48.2564 125.479C49.1682 123.752 51.2313 120.405 55.1541 117.052C59.2503 113.551 64.115 110.24 64.115 110.24C64.115 110.24 58.9111 113.004 54.3721 116.949C51.9203 119.081 50.4183 120.546 49.4473 121.625C49.6198 121.197 49.8127 120.729 50.0278 120.216C53.3061 112.409 60.4151 104.845 60.4151 104.845C60.4151 104.845 52.8361 112.404 50.0336 118.471C49.4628 119.707 48.5664 121.765 47.6119 123.835C47.5702 122.978 47.5925 120.074 49.2719 115.684C51.1199 110.851 55.7995 99.2314 55.8363 99.1381C55.8363 99.1381 50.7894 110.138 48.5151 116.026C47.8464 117.757 47.0411 119.888 46.3919 121.799C46.7175 119.866 47.0954 117.262 47.6167 113.852C48.5296 107.878 47.9995 100.396 47.9995 100.396C47.9995 100.396 47.89 107.876 47.1167 113.237C46.4626 117.771 45.5343 121.257 44.9509 123.29C44.7542 122.161 44.4228 120.716 44.0012 118.883C42.7463 113.415 40.3382 108.343 40.3382 108.343C40.3382 108.343 42.3315 113.543 43.3267 118.478C44.446 124.028 44.3917 125.055 43.8742 127.045C43.129 129.914 46.3909 130.93 47.6507 128.382C48.5655 126.532 49.9958 124.239 54.2471 122.073C59.0236 119.639 64.4997 117.578 64.4997 117.578C64.4997 117.578 58.8365 119.059 53.5125 121.785Z" fill="black"/>
</g>
<path d="M12.8857 93.707C12.6328 93.6827 5.13904 92.7466 4.27076 92.2018C3.60695 91.7853 1.39361 87.8282 0.379972 85.822C0.0795639 85.2277 0.244301 84.1478 0.788912 83.7662C2.09036 82.8524 4.06434 81.6309 4.98785 81.8814C6.30868 82.2397 8.59568 83.6808 8.59568 83.6808C8.59568 83.6808 8.16346 85.7297 6.37845 85.1461C4.59344 84.5635 3.80267 85.284 3.80267 85.284L6.01896 88.3953H17.2203L12.8857 93.707Z" fill="#FFBF9D"/>
<path d="M1.01466 86.929C1.01466 86.929 3.14271 93.7313 3.94703 93.9303C5.53338 94.3226 14.6522 94.646 14.6522 94.646L15.6765 92.1542L5.54594 90.9152L1.01466 86.929Z" fill="#FFBF9D"/>
<path d="M54.0396 78.9769C54.0396 78.9769 52.2818 97.1338 51.6296 100.057C49.5432 109.404 45.9374 108.69 41.4933 108.296C39.2877 108.1 12.7878 93.9924 12.7878 93.9924L16.603 87.8495L38.9349 93.0068L39.0842 79.6236L54.0396 78.9769Z" fill="#FFBF9D"/>
<path d="M3.32782 82.1864C3.34914 82.2223 2.90533 82.533 2.1485 83.0477C1.77153 83.306 1.31028 83.6119 0.815094 83.978C0.291802 84.2673 0.256907 85.0102 0.441997 85.6763L0.425495 85.6385C0.773387 86.2269 1.14453 86.8562 1.53118 87.5097C2.03509 88.3808 2.5158 89.211 2.96253 89.983C3.4083 90.7365 3.76294 91.46 4.13506 91.9776C4.50911 92.5019 4.9888 92.7428 5.33863 92.7923C5.68943 92.8438 5.88614 92.7544 5.8968 92.7855C5.90843 92.7981 5.7224 92.9447 5.32509 92.935C4.93746 92.9312 4.36085 92.6874 3.93059 92.1388C3.49935 91.5959 3.13402 90.9026 2.66887 90.1549C2.21438 89.3877 1.72501 88.5624 1.21238 87.6962C0.830573 87.0388 0.464291 86.4076 0.121244 85.8162L0.108646 85.7948L0.103796 85.7783C0.00107595 85.3841 -0.0328482 85.0044 0.035955 84.6247C0.0718102 84.4373 0.139648 84.2537 0.245275 84.0945C0.35381 83.9343 0.514643 83.8178 0.637713 83.7323C1.16004 83.374 1.63394 83.0933 2.02932 82.8593C2.82298 82.3971 3.30747 82.1514 3.32782 82.1864Z" fill="#FF9A6C"/>
<path d="M18.4209 88.3952C18.1312 88.2136 16.8384 85.4257 13.6841 84.9917C10.5299 84.5586 7.5742 84.9888 6.97726 84.5469C6.38032 84.1051 2.69015 82.4281 2.16976 84.1197C1.64841 85.8113 3.5953 86.6366 4.41609 87.0396C6.44046 88.034 11.7422 89.4916 11.7422 89.4916L18.4209 88.3952Z" fill="#FFBF9D"/>
<path d="M9.52977 89.0089C9.52105 89.0332 9.1509 88.9166 8.48903 88.6855C7.76708 88.4243 6.829 88.0835 5.69908 87.6747C5.11183 87.4465 4.46834 87.2445 3.77741 86.9298C3.12038 86.5997 2.35194 86.1472 2.01276 85.2752C1.86644 84.8362 1.87612 84.3526 2.07865 83.9021C2.29669 83.4097 2.86941 83.2097 3.33262 83.2058C4.2949 83.1932 5.20972 83.503 6.10222 83.8797C6.32414 83.9788 6.54311 84.0817 6.75727 84.1982C6.86387 84.2565 6.97147 84.3196 7.07903 84.3944C7.1488 84.4371 7.23018 84.4672 7.33484 84.4935C7.75444 84.577 8.22057 84.5789 8.6644 84.5896C9.56078 84.5993 10.4349 84.5944 11.2654 84.6294C12.0968 84.6614 12.8876 84.7265 13.6221 84.8314C14.3683 84.9372 15.0447 85.1712 15.6058 85.48C16.7338 86.1035 17.4111 86.9201 17.821 87.4863C18.0274 87.7727 18.1718 88.0048 18.2697 88.1602C18.3656 88.3185 18.4257 88.3845 18.4209 88.3961C18.3831 88.4359 18.1379 88.1155 17.7067 87.5737C17.2687 87.0415 16.5758 86.2763 15.4837 85.7102C14.4032 85.1091 12.8972 85.0275 11.2537 84.9683C10.43 84.944 9.56465 84.9557 8.65955 84.9508C8.20506 84.9411 7.74673 84.9479 7.25251 84.8518C7.12944 84.8236 6.99081 84.777 6.86096 84.6925C6.77568 84.6342 6.68073 84.5779 6.57995 84.5226C6.37936 84.4129 6.16811 84.3138 5.95394 84.2186C5.0973 83.8535 4.19508 83.5583 3.34812 83.568C2.92852 83.5768 2.54189 83.7292 2.39556 84.0584C2.23857 84.3934 2.21727 84.8197 2.33452 85.1644C2.59423 85.8801 3.2871 86.3346 3.91214 86.656C4.55657 86.9638 5.21938 87.1911 5.79307 87.4319C6.90555 87.8854 7.83005 88.2621 8.54037 88.5525C9.18673 88.8234 9.5385 88.9856 9.52977 89.0089Z" fill="#FF9A6C"/>
<path d="M34.9764 115.008C37.8671 122.759 35.7226 129.846 29.791 133.434C23.1055 137.479 17.8309 137.751 12.5398 133.621C6.57524 128.965 34.9764 115.008 34.9764 115.008Z" fill="#455A64"/>
<g opacity="0.3">
<path d="M34.9764 115.008C37.8671 122.759 35.7226 129.846 29.791 133.434C23.1055 137.479 17.8309 137.751 12.5398 133.621C6.57524 128.965 34.9764 115.008 34.9764 115.008Z" fill="black"/>
</g>
<path d="M17.794 136.623C18.7398 136.794 20.1284 136.01 20.987 135.597C21.9018 135.156 22.5511 134.223 23.4795 133.814C24.9321 133.175 27.0456 133.769 27.8179 132.289C28.3557 131.258 27.7917 129.867 28.1639 128.747C28.6939 127.15 29.9721 127.559 30.3597 125.909C30.822 123.94 28.8296 122.855 29.0389 120.824C29.1581 119.662 30.0041 118.395 28.9652 116.843C28.5253 116.185 27.0688 115.697 26.4932 115.177C25.7538 114.51 25.8013 113.766 25.1966 112.953C24.4039 111.887 23.7023 111.469 21.2835 111.931C19.8522 112.205 19.4152 112.32 18.3725 111.157C17.0662 109.699 16.289 109.949 15.6523 110.344C14.8374 110.851 14.6377 111.301 13.8208 111.724C12.5814 112.366 11.4573 111.268 10.3729 112.311C9.20034 113.438 9.66935 114.631 8.91251 115.97C8.48903 116.718 7.66631 117.061 7.15562 117.754C6.50829 118.632 6.09256 119.704 6.01019 120.848C5.84835 123.095 6.15846 124.753 6.96375 126.854C8.96776 132.086 13.1144 135.778 17.794 136.623Z" fill="#455A64"/>
<g opacity="0.3">
<path d="M17.794 136.623C18.7398 136.794 20.1284 136.01 20.987 135.597C21.9018 135.156 22.5511 134.223 23.4795 133.814C24.9321 133.175 27.0456 133.769 27.8179 132.289C28.3557 131.258 27.7917 129.867 28.1639 128.747C28.6939 127.15 29.9721 127.559 30.3597 125.909C30.822 123.94 28.8296 122.855 29.0389 120.824C29.1581 119.662 30.0041 118.395 28.9652 116.843C28.5253 116.185 27.0688 115.697 26.4932 115.177C25.7538 114.51 25.8013 113.766 25.1966 112.953C24.4039 111.887 23.7023 111.469 21.2835 111.931C19.8522 112.205 19.4152 112.32 18.3725 111.157C17.0662 109.699 16.289 109.949 15.6523 110.344C14.8374 110.851 14.6377 111.301 13.8208 111.724C12.5814 112.366 11.4573 111.268 10.3729 112.311C9.20034 113.438 9.66935 114.631 8.91251 115.97C8.48903 116.718 7.66631 117.061 7.15562 117.754C6.50829 118.632 6.09256 119.704 6.01019 120.848C5.84835 123.095 6.15846 124.753 6.96375 126.854C8.96776 132.086 13.1144 135.778 17.794 136.623Z" fill="black"/>
</g>
<path d="M27.2811 106.753C26.3653 106.256 25.3536 105.838 24.3158 105.92C23.2101 106.006 22.2003 106.649 21.0927 106.701C19.359 106.781 17.3899 105.47 16.0545 106.581C15.1242 107.355 15.2028 108.859 14.412 109.775C13.285 111.081 12.1114 110.242 11.1123 111.649C9.91942 113.329 11.5862 115.055 10.6336 116.882C10.089 117.927 8.7546 118.812 9.26529 120.637C9.4814 121.41 10.81 122.387 11.217 123.079C11.7393 123.967 11.4205 124.647 11.7509 125.623C12.1841 126.905 12.7568 127.545 15.4256 127.977C17.0052 128.231 17.4985 128.279 18.1545 129.74C18.9763 131.571 19.8707 131.614 20.6711 131.471C21.6974 131.288 22.0666 130.937 23.0657 130.833C24.5803 130.673 25.3439 132.103 26.843 131.513C28.4652 130.875 28.412 129.591 29.6805 128.608C30.3898 128.057 31.3647 128.03 32.1448 127.563C33.1322 126.972 33.9511 126.117 34.4511 125.074C35.4338 123.027 35.9542 120.77 35.835 118.516C35.5966 114.057 31.8124 109.214 27.2811 106.753Z" fill="#455A64"/>
<path d="M15.6349 118.028C15.6233 118.006 15.8869 117.86 16.3762 117.616C16.6185 117.49 16.9208 117.346 17.2861 117.213C17.6486 117.076 18.0556 116.897 18.5285 116.771C19.4588 116.467 20.6032 116.221 21.8892 116.061C23.1771 115.927 24.6074 115.894 26.0969 116.04C27.5853 116.205 28.9779 116.535 30.2105 116.933C31.4354 117.355 32.5043 117.833 33.3522 118.323C33.7893 118.545 34.1497 118.805 34.4763 119.014C34.8058 119.219 35.0723 119.423 35.2835 119.596C35.7119 119.936 35.9396 120.133 35.9231 120.153C35.8776 120.214 34.9405 119.449 33.2291 118.553C32.3783 118.099 31.3152 117.654 30.1058 117.256C28.8887 116.882 27.5204 116.571 26.0591 116.407C24.5968 116.264 23.1936 116.286 21.926 116.399C20.6614 116.537 19.5305 116.752 18.6031 117.021C16.7415 117.543 15.6659 118.098 15.6349 118.028Z" fill="#263238"/>
<path d="M16.9228 111.06C16.9286 111.018 17.419 111.037 18.1797 111.252C18.9375 111.463 19.955 111.906 20.926 112.629C21.895 113.356 22.6073 114.209 23.024 114.877C23.4446 115.547 23.6025 116.012 23.5647 116.03C23.4649 116.096 22.6005 114.321 20.705 112.925C18.8318 111.501 16.8879 111.174 16.9228 111.06Z" fill="#263238"/>
<path d="M19.6604 125.085C19.642 125.033 20.3164 124.764 21.3921 124.32C22.4561 123.866 23.9591 123.236 25.2935 122.101C26.6056 120.954 27.2579 119.414 27.4497 118.298C27.6581 117.165 27.4739 116.443 27.5437 116.434C27.5641 116.43 27.6319 116.602 27.691 116.93C27.753 117.257 27.7792 117.744 27.7075 118.339C27.5728 119.516 26.9323 121.159 25.5339 122.382C24.1356 123.57 22.5802 124.169 21.4851 124.565C20.3775 124.949 19.6769 125.128 19.6604 125.085Z" fill="#263238"/>
<path d="M27.7966 126.475C27.7772 126.411 28.3335 126.25 29.0874 125.737C29.8481 125.238 30.7658 124.35 31.5672 123.206C32.3648 122.058 32.8919 120.894 33.1662 120.02C33.4492 119.148 33.5073 118.575 33.5693 118.58C33.6081 118.579 33.644 119.172 33.4172 120.092C33.2001 121.01 32.6933 122.233 31.8696 123.417C31.043 124.598 30.0545 125.495 29.225 125.959C28.4003 126.436 27.8005 126.51 27.7966 126.475Z" fill="#263238"/>
<path d="M27.7181 110.953C27.7355 110.915 28.2104 111.075 28.8926 111.508C29.571 111.938 30.4402 112.677 31.135 113.709C31.8279 114.743 32.1758 115.837 32.2921 116.635C32.4113 117.437 32.3512 117.937 32.3105 117.936C32.2494 117.938 32.2155 117.446 32.0362 116.685C31.8589 115.925 31.4897 114.901 30.8288 113.915C29.4954 111.915 27.6425 111.058 27.7181 110.953Z" fill="#263238"/>
<g opacity="0.3">
<path d="M24.0434 115.039C27.7142 115.09 31.2493 116.558 34.0887 118.889C31.1088 117.138 26.5445 115.866 23.2923 116.093C19.8561 116.332 16.5429 117.463 13.3643 118.794C16.3374 116.341 20.1923 114.987 24.0434 115.039Z" fill="black"/>
</g>
<path d="M23.4378 107.046C23.4233 107.037 23.5793 106.822 24.0057 106.667C24.4233 106.504 25.1191 106.489 25.8575 106.785C27.3005 107.388 29.1727 108.519 30.8434 110.228C32.5266 111.925 33.6207 113.827 34.2273 115.257C34.5277 115.975 34.7234 116.574 34.8349 116.995C34.9415 117.416 34.988 117.651 34.9638 117.658C34.9008 117.676 34.643 116.752 33.9899 115.364C33.3319 113.985 32.2272 112.148 30.5808 110.488C28.9508 108.818 27.1299 107.672 25.7607 107.028C25.0717 106.719 24.4495 106.697 24.0463 106.804C23.6413 106.905 23.4572 107.073 23.4378 107.046Z" fill="white"/>
<path d="M16.5196 107.687C16.4818 107.669 16.571 107.393 16.9305 107.128C17.2813 106.864 17.8995 106.677 18.5633 106.778C19.2204 106.882 19.7388 107.173 20.0857 107.391C20.4336 107.616 20.6255 107.785 20.6012 107.829C20.576 107.875 20.3347 107.784 19.9636 107.622C19.5924 107.465 19.0876 107.234 18.5081 107.144C17.9344 107.057 17.4014 107.177 17.0671 107.351C16.727 107.521 16.5671 107.721 16.5196 107.687Z" fill="white"/>
<path d="M11.7955 113.009C11.7597 112.983 11.9128 112.679 12.313 112.311C12.7064 111.945 13.3741 111.536 14.2036 111.393C15.0331 111.25 15.7987 111.412 16.2919 111.626C16.791 111.84 17.0372 112.075 17.012 112.112C16.9742 112.215 15.8055 111.489 14.2666 111.757C12.7258 112.019 11.8653 113.094 11.7955 113.009Z" fill="white"/>
<path d="M10.3342 120.686C10.2886 120.689 10.2188 120.46 10.2392 120.076C10.2576 119.695 10.3933 119.165 10.7063 118.665C11.0202 118.166 11.4379 117.813 11.7722 117.631C12.1075 117.446 12.3449 117.409 12.3614 117.451C12.4089 117.549 11.5804 117.943 11.0183 118.861C10.4369 119.767 10.4427 120.686 10.3342 120.686Z" fill="white"/>
<path d="M62.4628 117.315C44.2493 117.315 26.0339 117.315 7.81851 117.315C6.41241 117.315 5.47239 118.096 5.71756 119.059C7.86597 127.458 10.0144 135.857 12.1628 144.256C12.4089 145.218 13.4681 145.998 14.5292 145.998C28.2705 145.998 42.0117 145.998 55.753 145.998C56.8141 145.998 57.8733 145.218 58.1194 144.256C60.2669 135.856 62.4163 127.457 64.5637 119.059C64.8108 118.096 63.8698 117.315 62.4628 117.315ZM15.7474 141.838C15.7474 141.972 15.6708 142.081 15.5758 142.081H14.4846C14.3897 142.081 14.3141 141.973 14.3141 141.838V133.541H15.7474V141.838ZM15.7474 132.047H14.3141V123.751C14.3141 123.617 14.3897 123.507 14.4846 123.507H15.5758C15.6698 123.507 15.7474 123.616 15.7474 123.751V132.047ZM18.4287 141.838C18.4287 141.972 18.3531 142.081 18.2572 142.081H17.1661C17.0721 142.081 16.9945 141.973 16.9945 141.838V133.541H18.4278L18.4287 141.838ZM18.4287 132.047H16.9955V123.751C16.9955 123.617 17.072 123.507 17.167 123.507H18.2582C18.3541 123.507 18.4297 123.616 18.4297 123.751V132.047H18.4287ZM21.1101 141.838C21.1101 141.972 21.0336 142.081 20.9396 142.081H19.8474C19.7534 142.081 19.6769 141.973 19.6769 141.838V133.541H21.1101V141.838ZM21.1101 132.047H19.6769V123.751C19.6769 123.617 19.7524 123.507 19.8474 123.507H20.9396C21.0336 123.507 21.1101 123.616 21.1101 123.751V132.047ZM26.4729 141.838C26.4729 141.972 26.3963 142.081 26.3023 142.081H25.2102C25.1162 142.081 25.0406 141.973 25.0406 141.838V133.541H26.4729V141.838ZM26.4729 132.047H25.0406V123.751C25.0406 123.617 25.1162 123.507 25.2102 123.507H26.3023C26.3963 123.507 26.4729 123.616 26.4729 123.751V132.047ZM29.1543 141.838C29.1543 141.972 29.0767 142.081 28.9827 142.081H27.8916C27.7966 142.081 27.7201 141.973 27.7201 141.838V133.541H29.1533L29.1543 141.838ZM29.1543 132.047H27.721V123.751C27.721 123.617 27.7966 123.507 27.8925 123.507H28.9837C29.0787 123.507 29.1553 123.616 29.1553 123.751V132.047H29.1543ZM31.8357 141.838C31.8357 141.972 31.7591 142.081 31.6651 142.081H30.572C30.479 142.081 30.4024 141.973 30.4024 141.838V133.541H31.8357V141.838ZM31.8357 132.047H30.4024V123.751C30.4024 123.617 30.478 123.507 30.572 123.507H31.6651C31.7591 123.507 31.8357 123.616 31.8357 123.751V132.047ZM34.518 141.838C34.518 141.972 34.4405 142.081 34.3465 142.081H33.2544C33.1594 142.081 33.0838 141.973 33.0838 141.838V133.541H34.517V141.838H34.518ZM34.518 132.047H33.0848V123.751C33.0848 123.617 33.1613 123.507 33.2553 123.507H34.3475C34.4415 123.507 34.519 123.616 34.519 123.751L34.518 132.047ZM37.1984 141.838C37.1984 141.972 37.1219 142.081 37.0269 142.081H35.9358C35.8418 142.081 35.7652 141.973 35.7652 141.838V133.541H37.1994L37.1984 141.838ZM37.1984 132.047H35.7643V123.751C35.7643 123.617 35.8408 123.507 35.9348 123.507H37.026C37.1209 123.507 37.1975 123.616 37.1975 123.751L37.1984 132.047ZM39.8798 141.838C39.8798 141.972 39.8032 142.081 39.7083 142.081H38.6171C38.5222 142.081 38.4466 141.973 38.4466 141.838V133.541H39.8798V141.838ZM39.8798 132.047H38.4466V123.751C38.4466 123.617 38.5222 123.507 38.6171 123.507H39.7083C39.8032 123.507 39.8798 123.616 39.8798 123.751V132.047ZM42.5612 141.838C42.5612 141.972 42.4847 142.081 42.3897 142.081H41.2985C41.2045 142.081 41.128 141.973 41.128 141.838V133.541H42.5612V141.838ZM42.5612 132.047H41.128V123.751C41.128 123.617 41.2036 123.507 41.2985 123.507H42.3897C42.4847 123.507 42.5612 123.616 42.5612 123.751V132.047ZM45.2416 141.838C45.2416 141.972 45.1651 142.081 45.0711 142.081H43.979C43.884 142.081 43.8084 141.973 43.8084 141.838V133.541H45.2407L45.2416 141.838ZM45.2416 132.047H43.8094V123.751C43.8094 123.617 43.8849 123.507 43.9799 123.507H45.072C45.166 123.507 45.2426 123.616 45.2426 123.751L45.2416 132.047ZM50.6054 141.838C50.6054 141.972 50.5288 142.081 50.4348 142.081H49.3427C49.2487 142.081 49.1731 141.973 49.1731 141.838V133.541H50.6054V141.838ZM50.6054 132.047H49.1731V123.751C49.1731 123.617 49.2487 123.507 49.3427 123.507H50.4348C50.5288 123.507 50.6054 123.616 50.6054 123.751V132.047ZM53.2867 141.838C53.2867 141.972 53.2102 142.081 53.1152 142.081H52.0241C51.9301 142.081 51.8535 141.973 51.8535 141.838V133.541H53.2867V141.838ZM53.2867 132.047H51.8535V123.751C51.8535 123.617 51.9301 123.507 52.0241 123.507H53.1152C53.2092 123.507 53.2867 123.616 53.2867 123.751V132.047ZM55.9672 141.838C55.9672 141.972 55.8906 142.081 55.7966 142.081H54.7045C54.6105 142.081 54.5349 141.973 54.5349 141.838V133.541H55.9672V141.838ZM55.9672 132.047H54.5349V123.751C54.5349 123.617 54.6105 123.507 54.7045 123.507H55.7966C55.8906 123.507 55.9672 123.616 55.9672 123.751V132.047Z" fill="#FF725E"/>
<path d="M67.9563 118.785C67.9563 119.215 67.6365 119.564 67.2421 119.564H3.03903C2.64463 119.564 2.32578 119.215 2.32578 118.785V115.922C2.32578 115.492 2.64463 115.142 3.03903 115.142H67.2421C67.6365 115.142 67.9563 115.492 67.9563 115.922V118.785Z" fill="#FF725E"/>
<path d="M66.6626 119.555C66.6626 119.657 52.6597 119.739 35.3901 119.739C18.1147 119.739 4.11473 119.657 4.11473 119.555C4.11473 119.453 18.1147 119.37 35.3901 119.37C52.6588 119.37 66.6626 119.453 66.6626 119.555Z" fill="#263238"/>
<g opacity="0.3">
<path d="M7.09455 119.555C16.1892 121.135 24.2808 121.854 33.5412 121.939C43.4062 122.028 54.3362 121.525 63.9589 119.555H7.09455Z" fill="black"/>
</g>
<path d="M37.2789 118.275C36.3747 118.275 35.6421 117.541 35.6421 116.635V91.6406C35.6421 90.7346 36.3747 90.0005 37.2789 90.0005C38.183 90.0005 38.9156 90.7346 38.9156 91.6406V116.635C38.9156 117.541 38.183 118.275 37.2789 118.275Z" fill="#455A64"/>
<path d="M37.2788 118.275C37.2759 118.252 37.4978 118.278 37.8622 118.126C38.2101 117.986 38.7392 117.577 38.8303 116.832C38.8196 115.273 38.8041 113.078 38.7857 110.381C38.7741 107.643 38.7605 104.398 38.746 100.8C38.7421 98.9954 38.7392 97.1028 38.7353 95.1412C38.7343 94.1605 38.7334 93.1622 38.7324 92.1484C38.7276 91.8989 38.745 91.627 38.713 91.4153C38.6781 91.1919 38.5929 90.9754 38.4572 90.7919C38.1936 90.418 37.743 90.1859 37.2808 90.1859C36.8185 90.185 36.3669 90.416 36.1033 90.7899C35.9677 90.9734 35.8814 91.19 35.8465 91.4133C35.8146 91.625 35.831 91.8959 35.8262 92.1465C35.8252 93.1603 35.8243 94.1585 35.8233 95.1403C35.8194 97.1018 35.8155 98.9954 35.8126 100.8C35.7981 104.399 35.7845 107.644 35.7729 110.382C35.7545 113.079 35.739 115.274 35.7283 116.833C35.8194 117.577 36.3485 117.987 36.6964 118.127C37.0598 118.278 37.2817 118.252 37.2788 118.275C37.2788 118.275 37.0598 118.33 36.6683 118.195C36.2972 118.072 35.709 117.66 35.5849 116.849C35.5336 115.307 35.5345 113.113 35.5112 110.381C35.4996 107.643 35.4861 104.398 35.4715 100.799C35.4686 98.9944 35.4647 97.1018 35.4608 95.1393C35.4599 94.1575 35.4589 93.1593 35.4579 92.1455C35.4638 91.8901 35.4415 91.6493 35.4812 91.3551C35.5238 91.0744 35.6334 90.8025 35.8029 90.5724C36.1334 90.1043 36.7003 89.813 37.2798 89.815C37.8583 89.814 38.4252 90.1063 38.7547 90.5743C38.9233 90.8045 39.0319 91.0774 39.0755 91.357C39.1152 91.6503 39.0929 91.8911 39.0987 92.1465C39.0977 93.1593 39.0968 94.1585 39.0958 95.1393C39.0919 97.1008 39.0881 98.9934 39.0852 100.798C39.0706 104.396 39.0571 107.641 39.0454 110.379C39.0222 113.111 39.0231 115.305 38.9718 116.847C38.8477 117.657 38.2595 118.07 37.8883 118.193C37.4978 118.33 37.2788 118.275 37.2788 118.275Z" fill="#263238"/>
<path d="M58.0826 101.489C57.9721 103.227 57.3898 104.918 56.5157 106.418C53.9496 110.822 51.1083 112.226 49.9019 114.062C49.6974 114.373 49.7419 114.577 49.4619 114.469C49.2613 114.392 49.395 114.022 49.4483 113.808C49.77 112.519 49.1024 107.571 49.8999 104.297C50.3505 102.446 51.0463 100.656 52.3448 99.244C53.3323 98.169 55.4652 96.5123 56.8655 97.0552C58.3414 97.6271 58.1214 100.887 58.0826 101.489Z" fill="#455A64"/>
<g opacity="0.3">
<path d="M58.0826 101.489C57.9721 103.227 57.3898 104.918 56.5157 106.418C53.9496 110.822 51.1083 112.226 49.9019 114.062C49.6974 114.373 49.7419 114.577 49.4619 114.469C49.2613 114.392 49.395 114.022 49.4483 113.808C49.77 112.519 49.1024 107.571 49.8999 104.297C50.3505 102.446 51.0463 100.656 52.3448 99.244C53.3323 98.169 55.4652 96.5123 56.8655 97.0552C58.3414 97.6271 58.1214 100.887 58.0826 101.489Z" fill="black"/>
</g>
<path d="M62.0266 115.843C60.9384 116.47 59.6699 116.921 58.4189 117.191C57.5864 117.371 54.3372 118.165 52.6684 118.975C52.2362 119.185 55.1473 113.76 56.9905 111.301C58.258 109.609 60.8337 107.286 63.6924 107.343C65.021 107.371 66.1606 107.583 66.7808 108.314C67.5425 109.213 66.6675 113.168 62.0266 115.843Z" fill="#455A64"/>
<g opacity="0.3">
<path d="M62.0266 115.843C60.9384 116.47 59.6699 116.921 58.4189 117.191C57.5864 117.371 54.3372 118.165 52.6684 118.975C52.2362 119.185 55.1473 113.76 56.9905 111.301C58.258 109.609 60.8337 107.286 63.6924 107.343C65.021 107.371 66.1606 107.583 66.7808 108.314C67.5425 109.213 66.6675 113.168 62.0266 115.843Z" fill="black"/>
</g>
<path d="M62.9724 121.527C61.5247 122.436 59.0458 122.933 57.1019 122.712C53.7509 122.33 52.3283 123.154 52.3283 123.154C52.1897 122.942 52.4398 122.327 52.246 122.475C51.7634 122.843 53.6375 121.495 54.842 119.677C55.9409 118.018 57.1716 115.769 61.5702 114.618C62.2873 114.43 66.1936 114.12 66.7459 116.024C67.3187 118.004 64.7555 120.408 62.9724 121.527Z" fill="#455A64"/>
<path d="M45.1504 101.469C43.9789 104.452 44.2512 107.466 44.8568 109.522C45.4121 111.405 47.1041 114.67 47.1041 114.67C47.1506 115.13 49.3678 112.029 50.9871 107.197C51.6383 105.253 51.8544 103.219 51.2352 101.054C51.0123 100.274 50.0975 97.6833 48.4336 97.6969C46.7077 97.7105 45.4082 100.813 45.1504 101.469Z" fill="#455A64"/>
<path d="M38.2585 111.94C38.5192 114.167 39.6491 115.816 40.469 116.817C41.8072 118.449 43.5961 119.926 43.5961 119.926C43.8432 119.92 44.0845 120.177 44.0758 119.952C44.0671 119.726 45.1195 118.159 45.1418 114.538C45.1544 112.469 44.508 110.06 44.1339 109.251C42.8722 106.523 40.8856 105.574 39.8439 106.063C38.3477 106.766 38.0066 109.782 38.2585 111.94Z" fill="#455A64"/>
<path d="M58.6553 103.05C57.1446 103.897 55.6561 105.131 54.7065 106.591C51.8884 110.927 52.1956 114.238 51.2101 116.244C50.9843 116.704 50.9668 118.001 51.4455 117.23C52.7586 115.113 55.1677 114.474 56.38 114.023C58.855 113.101 60.4355 111.584 61.5296 109.854C63.9619 106.006 63.5307 103.329 62.8058 102.685C61.8697 101.853 59.5973 102.52 58.6553 103.05Z" fill="#455A64"/>
<path d="M53.5125 121.785C50.9465 123.099 49.2768 124.462 48.2564 125.479C49.1682 123.752 51.2313 120.405 55.1541 117.052C59.2503 113.551 64.115 110.24 64.115 110.24C64.115 110.24 58.9111 113.004 54.3721 116.949C51.9203 119.081 50.4183 120.546 49.4473 121.625C49.6198 121.197 49.8127 120.729 50.0278 120.216C53.3061 112.409 60.4151 104.845 60.4151 104.845C60.4151 104.845 52.8361 112.404 50.0336 118.471C49.4628 119.707 48.5664 121.765 47.6119 123.835C47.5702 122.978 47.5925 120.074 49.2719 115.684C51.1199 110.851 55.7995 99.2314 55.8363 99.1381C55.8363 99.1381 50.7894 110.138 48.5151 116.026C47.8464 117.757 47.0411 119.888 46.3919 121.799C46.7175 119.866 47.0954 117.262 47.6167 113.852C48.5296 107.878 47.9995 100.396 47.9995 100.396C47.9995 100.396 47.89 107.876 47.1167 113.237C46.4626 117.771 45.5343 121.257 44.9509 123.29C44.7542 122.161 44.4228 120.716 44.0012 118.883C42.7463 113.415 40.3382 108.343 40.3382 108.343C40.3382 108.343 42.3315 113.543 43.3267 118.478C44.446 124.028 44.3917 125.055 43.8742 127.045C43.129 129.914 46.3909 130.93 47.6507 128.382C48.5655 126.532 49.9958 124.239 54.2471 122.073C59.0236 119.639 64.4997 117.578 64.4997 117.578C64.4997 117.578 58.8365 119.059 53.5125 121.785Z" fill="#455A64"/>
<g opacity="0.1">
<path d="M53.5125 121.785C50.9465 123.099 49.2768 124.462 48.2564 125.479C49.1682 123.752 51.2313 120.405 55.1541 117.052C59.2503 113.551 64.115 110.24 64.115 110.24C64.115 110.24 58.9111 113.004 54.3721 116.949C51.9203 119.081 50.4183 120.546 49.4473 121.625C49.6198 121.197 49.8127 120.729 50.0278 120.216C53.3061 112.409 60.4151 104.845 60.4151 104.845C60.4151 104.845 52.8361 112.404 50.0336 118.471C49.4628 119.707 48.5664 121.765 47.6119 123.835C47.5702 122.978 47.5925 120.074 49.2719 115.684C51.1199 110.851 55.7995 99.2314 55.8363 99.1381C55.8363 99.1381 50.7894 110.138 48.5151 116.026C47.8464 117.757 47.0411 119.888 46.3919 121.799C46.7175 119.866 47.0954 117.262 47.6167 113.852C48.5296 107.878 47.9995 100.396 47.9995 100.396C47.9995 100.396 47.89 107.876 47.1167 113.237C46.4626 117.771 45.5343 121.257 44.9509 123.29C44.7542 122.161 44.4228 120.716 44.0012 118.883C42.7463 113.415 40.3382 108.343 40.3382 108.343C40.3382 108.343 42.3315 113.543 43.3267 118.478C44.446 124.028 44.3917 125.055 43.8742 127.045C43.129 129.914 46.3909 130.93 47.6507 128.382C48.5655 126.532 49.9958 124.239 54.2471 122.073C59.0236 119.639 64.4997 117.578 64.4997 117.578C64.4997 117.578 58.8365 119.059 53.5125 121.785Z" fill="black"/>
</g>
<path d="M12.8857 93.707C12.6328 93.6827 5.13904 92.7466 4.27076 92.2018C3.60695 91.7853 1.39361 87.8282 0.379972 85.822C0.0795639 85.2277 0.244301 84.1478 0.788912 83.7662C2.09036 82.8524 4.06434 81.6309 4.98785 81.8814C6.30868 82.2397 8.59568 83.6808 8.59568 83.6808C8.59568 83.6808 8.16346 85.7297 6.37845 85.1461C4.59344 84.5635 3.80267 85.284 3.80267 85.284L6.01896 88.3953H17.2203L12.8857 93.707Z" fill="#FFBF9D"/>
<path d="M1.01466 86.929C1.01466 86.929 3.14271 93.7313 3.94703 93.9303C5.53338 94.3226 14.6522 94.646 14.6522 94.646L15.6765 92.1542L5.54594 90.9152L1.01466 86.929Z" fill="#FFBF9D"/>
<path d="M54.0396 78.9769C54.0396 78.9769 52.2818 97.1338 51.6296 100.057C49.5432 109.404 45.9374 108.69 41.4933 108.296C39.2877 108.1 12.7878 93.9924 12.7878 93.9924L16.603 87.8495L38.9349 93.0068L39.0842 79.6236L54.0396 78.9769Z" fill="#FFBF9D"/>
<path d="M3.32782 82.1864C3.34914 82.2223 2.90533 82.533 2.1485 83.0477C1.77153 83.306 1.31028 83.6119 0.815094 83.978C0.291802 84.2673 0.256907 85.0102 0.441997 85.6763L0.425495 85.6385C0.773387 86.2269 1.14453 86.8562 1.53118 87.5097C2.03509 88.3808 2.5158 89.211 2.96253 89.983C3.4083 90.7365 3.76294 91.46 4.13506 91.9776C4.50911 92.5019 4.9888 92.7428 5.33863 92.7923C5.68943 92.8438 5.88614 92.7544 5.8968 92.7855C5.90843 92.7981 5.7224 92.9447 5.32509 92.935C4.93746 92.9312 4.36085 92.6874 3.93059 92.1388C3.49935 91.5959 3.13402 90.9026 2.66887 90.1549C2.21438 89.3877 1.72501 88.5624 1.21238 87.6962C0.830573 87.0388 0.464291 86.4076 0.121244 85.8162L0.108646 85.7948L0.103796 85.7783C0.00107595 85.3841 -0.0328482 85.0044 0.035955 84.6247C0.0718102 84.4373 0.139648 84.2537 0.245275 84.0945C0.35381 83.9343 0.514643 83.8178 0.637713 83.7323C1.16004 83.374 1.63394 83.0933 2.02932 82.8593C2.82298 82.3971 3.30747 82.1514 3.32782 82.1864Z" fill="#FF9A6C"/>
<path d="M18.4209 88.3952C18.1312 88.2136 16.8384 85.4257 13.6841 84.9917C10.5299 84.5586 7.5742 84.9888 6.97726 84.5469C6.38032 84.1051 2.69015 82.4281 2.16976 84.1197C1.64841 85.8113 3.5953 86.6366 4.41609 87.0396C6.44046 88.034 11.7422 89.4916 11.7422 89.4916L18.4209 88.3952Z" fill="#FFBF9D"/>
<path d="M9.52977 89.0089C9.52105 89.0332 9.1509 88.9166 8.48903 88.6855C7.76708 88.4243 6.829 88.0835 5.69908 87.6747C5.11183 87.4465 4.46834 87.2445 3.77741 86.9298C3.12038 86.5997 2.35194 86.1472 2.01276 85.2752C1.86644 84.8362 1.87612 84.3526 2.07865 83.9021C2.29669 83.4097 2.86941 83.2097 3.33262 83.2058C4.2949 83.1932 5.20972 83.503 6.10222 83.8797C6.32414 83.9788 6.54311 84.0817 6.75727 84.1982C6.86387 84.2565 6.97147 84.3196 7.07903 84.3944C7.1488 84.4371 7.23018 84.4672 7.33484 84.4935C7.75444 84.577 8.22057 84.5789 8.6644 84.5896C9.56078 84.5993 10.4349 84.5944 11.2654 84.6294C12.0968 84.6614 12.8876 84.7265 13.6221 84.8314C14.3683 84.9372 15.0447 85.1712 15.6058 85.48C16.7338 86.1035 17.4111 86.9201 17.821 87.4863C18.0274 87.7727 18.1718 88.0048 18.2697 88.1602C18.3656 88.3185 18.4257 88.3845 18.4209 88.3961C18.3831 88.4359 18.1379 88.1155 17.7067 87.5737C17.2687 87.0415 16.5758 86.2763 15.4837 85.7102C14.4032 85.1091 12.8972 85.0275 11.2537 84.9683C10.43 84.944 9.56465 84.9557 8.65955 84.9508C8.20506 84.9411 7.74673 84.9479 7.25251 84.8518C7.12944 84.8236 6.99081 84.777 6.86096 84.6925C6.77568 84.6342 6.68073 84.5779 6.57995 84.5226C6.37936 84.4129 6.16811 84.3138 5.95394 84.2186C5.0973 83.8535 4.19508 83.5583 3.34812 83.568C2.92852 83.5768 2.54189 83.7292 2.39556 84.0584C2.23857 84.3934 2.21727 84.8197 2.33452 85.1644C2.59423 85.8801 3.2871 86.3346 3.91214 86.656C4.55657 86.9638 5.21938 87.1911 5.79307 87.4319C6.90555 87.8854 7.83005 88.2621 8.54037 88.5525C9.18673 88.8234 9.5385 88.9856 9.52977 89.0089Z" fill="#FF9A6C"/>
<path d="M34.9764 115.008C37.8671 122.759 35.7226 129.846 29.791 133.434C23.1055 137.479 17.8309 137.751 12.5398 133.621C6.57524 128.965 34.9764 115.008 34.9764 115.008Z" fill="#455A64"/>
<g opacity="0.3">
<path d="M34.9764 115.008C37.8671 122.759 35.7226 129.846 29.791 133.434C23.1055 137.479 17.8309 137.751 12.5398 133.621C6.57524 128.965 34.9764 115.008 34.9764 115.008Z" fill="black"/>
</g>
<path d="M17.794 136.623C18.7398 136.794 20.1284 136.01 20.987 135.597C21.9018 135.156 22.5511 134.223 23.4795 133.814C24.9321 133.175 27.0456 133.769 27.8179 132.289C28.3557 131.258 27.7917 129.867 28.1639 128.747C28.6939 127.15 29.9721 127.559 30.3597 125.909C30.822 123.94 28.8296 122.855 29.0389 120.824C29.1581 119.662 30.0041 118.395 28.9652 116.843C28.5253 116.185 27.0688 115.697 26.4932 115.177C25.7538 114.51 25.8013 113.766 25.1966 112.953C24.4039 111.887 23.7023 111.469 21.2835 111.931C19.8522 112.205 19.4152 112.32 18.3725 111.157C17.0662 109.699 16.289 109.949 15.6523 110.344C14.8374 110.851 14.6377 111.301 13.8208 111.724C12.5814 112.366 11.4573 111.268 10.3729 112.311C9.20034 113.438 9.66935 114.631 8.91251 115.97C8.48903 116.718 7.66631 117.061 7.15562 117.754C6.50829 118.632 6.09256 119.704 6.01019 120.848C5.84835 123.095 6.15846 124.753 6.96375 126.854C8.96776 132.086 13.1144 135.778 17.794 136.623Z" fill="#455A64"/>
<g opacity="0.3">
<path d="M17.794 136.623C18.7398 136.794 20.1284 136.01 20.987 135.597C21.9018 135.156 22.5511 134.223 23.4795 133.814C24.9321 133.175 27.0456 133.769 27.8179 132.289C28.3557 131.258 27.7917 129.867 28.1639 128.747C28.6939 127.15 29.9721 127.559 30.3597 125.909C30.822 123.94 28.8296 122.855 29.0389 120.824C29.1581 119.662 30.0041 118.395 28.9652 116.843C28.5253 116.185 27.0688 115.697 26.4932 115.177C25.7538 114.51 25.8013 113.766 25.1966 112.953C24.4039 111.887 23.7023 111.469 21.2835 111.931C19.8522 112.205 19.4152 112.32 18.3725 111.157C17.0662 109.699 16.289 109.949 15.6523 110.344C14.8374 110.851 14.6377 111.301 13.8208 111.724C12.5814 112.366 11.4573 111.268 10.3729 112.311C9.20034 113.438 9.66935 114.631 8.91251 115.97C8.48903 116.718 7.66631 117.061 7.15562 117.754C6.50829 118.632 6.09256 119.704 6.01019 120.848C5.84835 123.095 6.15846 124.753 6.96375 126.854C8.96776 132.086 13.1144 135.778 17.794 136.623Z" fill="black"/>
</g>
<path d="M27.2811 106.753C26.3653 106.256 25.3536 105.838 24.3158 105.92C23.2101 106.006 22.2003 106.649 21.0927 106.701C19.359 106.781 17.3899 105.47 16.0545 106.581C15.1242 107.355 15.2028 108.859 14.412 109.775C13.285 111.081 12.1114 110.242 11.1123 111.649C9.91942 113.329 11.5862 115.055 10.6336 116.882C10.089 117.927 8.7546 118.812 9.26529 120.637C9.4814 121.41 10.81 122.387 11.217 123.079C11.7393 123.967 11.4205 124.647 11.7509 125.623C12.1841 126.905 12.7568 127.545 15.4256 127.977C17.0052 128.231 17.4985 128.279 18.1545 129.74C18.9763 131.571 19.8707 131.614 20.6711 131.471C21.6974 131.288 22.0666 130.937 23.0657 130.833C24.5803 130.673 25.3439 132.103 26.843 131.513C28.4652 130.875 28.412 129.591 29.6805 128.608C30.3898 128.057 31.3647 128.03 32.1448 127.563C33.1322 126.972 33.9511 126.117 34.4511 125.074C35.4338 123.027 35.9542 120.77 35.835 118.516C35.5966 114.057 31.8124 109.214 27.2811 106.753Z" fill="#455A64"/>
<path d="M15.6349 118.028C15.6233 118.006 15.8869 117.86 16.3762 117.616C16.6185 117.49 16.9208 117.346 17.2861 117.213C17.6486 117.076 18.0556 116.897 18.5285 116.771C19.4588 116.467 20.6032 116.221 21.8892 116.061C23.1771 115.927 24.6074 115.894 26.0969 116.04C27.5853 116.205 28.9779 116.535 30.2105 116.933C31.4354 117.355 32.5043 117.833 33.3522 118.323C33.7893 118.545 34.1497 118.805 34.4763 119.014C34.8058 119.219 35.0723 119.423 35.2835 119.596C35.7119 119.936 35.9396 120.133 35.9231 120.153C35.8776 120.214 34.9405 119.449 33.2291 118.553C32.3783 118.099 31.3152 117.654 30.1058 117.256C28.8887 116.882 27.5204 116.571 26.0591 116.407C24.5968 116.264 23.1936 116.286 21.926 116.399C20.6614 116.537 19.5305 116.752 18.6031 117.021C16.7415 117.543 15.6659 118.098 15.6349 118.028Z" fill="#263238"/>
<path d="M16.9228 111.06C16.9286 111.018 17.419 111.037 18.1797 111.252C18.9375 111.463 19.955 111.906 20.926 112.629C21.895 113.356 22.6073 114.209 23.024 114.877C23.4446 115.547 23.6025 116.012 23.5647 116.03C23.4649 116.096 22.6005 114.321 20.705 112.925C18.8318 111.501 16.8879 111.174 16.9228 111.06Z" fill="#263238"/>
<path d="M19.6604 125.085C19.642 125.033 20.3164 124.764 21.3921 124.32C22.4561 123.866 23.9591 123.236 25.2935 122.101C26.6056 120.954 27.2579 119.414 27.4497 118.298C27.6581 117.165 27.4739 116.443 27.5437 116.434C27.5641 116.43 27.6319 116.602 27.691 116.93C27.753 117.257 27.7792 117.744 27.7075 118.339C27.5728 119.516 26.9323 121.159 25.5339 122.382C24.1356 123.57 22.5802 124.169 21.4851 124.565C20.3775 124.949 19.6769 125.128 19.6604 125.085Z" fill="#263238"/>
<path d="M27.7966 126.475C27.7772 126.411 28.3335 126.25 29.0874 125.737C29.8481 125.238 30.7658 124.35 31.5672 123.206C32.3648 122.058 32.8919 120.894 33.1662 120.02C33.4492 119.148 33.5073 118.575 33.5693 118.58C33.6081 118.579 33.644 119.172 33.4172 120.092C33.2001 121.01 32.6933 122.233 31.8696 123.417C31.043 124.598 30.0545 125.495 29.225 125.959C28.4003 126.436 27.8005 126.51 27.7966 126.475Z" fill="#263238"/>
<path d="M27.7181 110.953C27.7355 110.915 28.2104 111.075 28.8926 111.508C29.571 111.938 30.4402 112.677 31.135 113.709C31.8279 114.743 32.1758 115.837 32.2921 116.635C32.4113 117.437 32.3512 117.937 32.3105 117.936C32.2494 117.938 32.2155 117.446 32.0362 116.685C31.8589 115.925 31.4897 114.901 30.8288 113.915C29.4954 111.915 27.6425 111.058 27.7181 110.953Z" fill="#263238"/>
<g opacity="0.3">
<path d="M24.0434 115.039C27.7142 115.09 31.2493 116.558 34.0887 118.889C31.1088 117.138 26.5445 115.866 23.2923 116.093C19.8561 116.332 16.5429 117.463 13.3643 118.794C16.3374 116.341 20.1923 114.987 24.0434 115.039Z" fill="black"/>
</g>
<path d="M23.4378 107.046C23.4233 107.037 23.5793 106.822 24.0057 106.667C24.4233 106.504 25.1191 106.489 25.8575 106.785C27.3005 107.388 29.1727 108.519 30.8434 110.228C32.5266 111.925 33.6207 113.827 34.2273 115.257C34.5277 115.975 34.7234 116.574 34.8349 116.995C34.9415 117.416 34.988 117.651 34.9638 117.658C34.9008 117.676 34.643 116.752 33.9899 115.364C33.3319 113.985 32.2272 112.148 30.5808 110.488C28.9508 108.818 27.1299 107.672 25.7607 107.028C25.0717 106.719 24.4495 106.697 24.0463 106.804C23.6413 106.905 23.4572 107.073 23.4378 107.046Z" fill="white"/>
<path d="M16.5196 107.687C16.4818 107.669 16.571 107.393 16.9305 107.128C17.2813 106.864 17.8995 106.677 18.5633 106.778C19.2204 106.882 19.7388 107.173 20.0857 107.391C20.4336 107.616 20.6255 107.785 20.6012 107.829C20.576 107.875 20.3347 107.784 19.9636 107.622C19.5924 107.465 19.0876 107.234 18.5081 107.144C17.9344 107.057 17.4014 107.177 17.0671 107.351C16.727 107.521 16.5671 107.721 16.5196 107.687Z" fill="white"/>
<path d="M11.7955 113.009C11.7597 112.983 11.9128 112.679 12.313 112.311C12.7064 111.945 13.3741 111.536 14.2036 111.393C15.0331 111.25 15.7987 111.412 16.2919 111.626C16.791 111.84 17.0372 112.075 17.012 112.112C16.9742 112.215 15.8055 111.489 14.2666 111.757C12.7258 112.019 11.8653 113.094 11.7955 113.009Z" fill="white"/>
<path d="M10.3342 120.686C10.2886 120.689 10.2188 120.46 10.2392 120.076C10.2576 119.695 10.3933 119.165 10.7063 118.665C11.0202 118.166 11.4379 117.813 11.7722 117.631C12.1075 117.446 12.3449 117.409 12.3614 117.451C12.4089 117.549 11.5804 117.943 11.0183 118.861C10.4369 119.767 10.4427 120.686 10.3342 120.686Z" fill="white"/>
<path d="M62.4628 117.315C44.2493 117.315 26.0339 117.315 7.81851 117.315C6.41241 117.315 5.47239 118.096 5.71756 119.059C7.86597 127.458 10.0144 135.857 12.1628 144.256C12.4089 145.218 13.4681 145.998 14.5292 145.998C28.2705 145.998 42.0117 145.998 55.753 145.998C56.8141 145.998 57.8733 145.218 58.1194 144.256C60.2669 135.856 62.4163 127.457 64.5637 119.059C64.8108 118.096 63.8698 117.315 62.4628 117.315ZM15.7474 141.838C15.7474 141.972 15.6708 142.081 15.5758 142.081H14.4846C14.3897 142.081 14.3141 141.973 14.3141 141.838V133.541H15.7474V141.838ZM15.7474 132.047H14.3141V123.751C14.3141 123.617 14.3897 123.507 14.4846 123.507H15.5758C15.6698 123.507 15.7474 123.616 15.7474 123.751V132.047ZM18.4287 141.838C18.4287 141.972 18.3531 142.081 18.2572 142.081H17.1661C17.0721 142.081 16.9945 141.973 16.9945 141.838V133.541H18.4278L18.4287 141.838ZM18.4287 132.047H16.9955V123.751C16.9955 123.617 17.072 123.507 17.167 123.507H18.2582C18.3541 123.507 18.4297 123.616 18.4297 123.751V132.047H18.4287ZM21.1101 141.838C21.1101 141.972 21.0336 142.081 20.9396 142.081H19.8474C19.7534 142.081 19.6769 141.973 19.6769 141.838V133.541H21.1101V141.838ZM21.1101 132.047H19.6769V123.751C19.6769 123.617 19.7524 123.507 19.8474 123.507H20.9396C21.0336 123.507 21.1101 123.616 21.1101 123.751V132.047ZM26.4729 141.838C26.4729 141.972 26.3963 142.081 26.3023 142.081H25.2102C25.1162 142.081 25.0406 141.973 25.0406 141.838V133.541H26.4729V141.838ZM26.4729 132.047H25.0406V123.751C25.0406 123.617 25.1162 123.507 25.2102 123.507H26.3023C26.3963 123.507 26.4729 123.616 26.4729 123.751V132.047ZM29.1543 141.838C29.1543 141.972 29.0767 142.081 28.9827 142.081H27.8916C27.7966 142.081 27.7201 141.973 27.7201 141.838V133.541H29.1533L29.1543 141.838ZM29.1543 132.047H27.721V123.751C27.721 123.617 27.7966 123.507 27.8925 123.507H28.9837C29.0787 123.507 29.1553 123.616 29.1553 123.751V132.047H29.1543ZM31.8357 141.838C31.8357 141.972 31.7591 142.081 31.6651 142.081H30.572C30.479 142.081 30.4024 141.973 30.4024 141.838V133.541H31.8357V141.838ZM31.8357 132.047H30.4024V123.751C30.4024 123.617 30.478 123.507 30.572 123.507H31.6651C31.7591 123.507 31.8357 123.616 31.8357 123.751V132.047ZM34.518 141.838C34.518 141.972 34.4405 142.081 34.3465 142.081H33.2544C33.1594 142.081 33.0838 141.973 33.0838 141.838V133.541H34.517V141.838H34.518ZM34.518 132.047H33.0848V123.751C33.0848 123.617 33.1613 123.507 33.2553 123.507H34.3475C34.4415 123.507 34.519 123.616 34.519 123.751L34.518 132.047ZM37.1984 141.838C37.1984 141.972 37.1219 142.081 37.0269 142.081H35.9358C35.8418 142.081 35.7652 141.973 35.7652 141.838V133.541H37.1994L37.1984 141.838ZM37.1984 132.047H35.7643V123.751C35.7643 123.617 35.8408 123.507 35.9348 123.507H37.026C37.1209 123.507 37.1975 123.616 37.1975 123.751L37.1984 132.047ZM39.8798 141.838C39.8798 141.972 39.8032 142.081 39.7083 142.081H38.6171C38.5222 142.081 38.4466 141.973 38.4466 141.838V133.541H39.8798V141.838ZM39.8798 132.047H38.4466V123.751C38.4466 123.617 38.5222 123.507 38.6171 123.507H39.7083C39.8032 123.507 39.8798 123.616 39.8798 123.751V132.047ZM42.5612 141.838C42.5612 141.972 42.4847 142.081 42.3897 142.081H41.2985C41.2045 142.081 41.128 141.973 41.128 141.838V133.541H42.5612V141.838ZM42.5612 132.047H41.128V123.751C41.128 123.617 41.2036 123.507 41.2985 123.507H42.3897C42.4847 123.507 42.5612 123.616 42.5612 123.751V132.047ZM45.2416 141.838C45.2416 141.972 45.1651 142.081 45.0711 142.081H43.979C43.884 142.081 43.8084 141.973 43.8084 141.838V133.541H45.2407L45.2416 141.838ZM45.2416 132.047H43.8094V123.751C43.8094 123.617 43.8849 123.507 43.9799 123.507H45.072C45.166 123.507 45.2426 123.616 45.2426 123.751L45.2416 132.047ZM50.6054 141.838C50.6054 141.972 50.5288 142.081 50.4348 142.081H49.3427C49.2487 142.081 49.1731 141.973 49.1731 141.838V133.541H50.6054V141.838ZM50.6054 132.047H49.1731V123.751C49.1731 123.617 49.2487 123.507 49.3427 123.507H50.4348C50.5288 123.507 50.6054 123.616 50.6054 123.751V132.047ZM53.2867 141.838C53.2867 141.972 53.2102 142.081 53.1152 142.081H52.0241C51.9301 142.081 51.8535 141.973 51.8535 141.838V133.541H53.2867V141.838ZM53.2867 132.047H51.8535V123.751C51.8535 123.617 51.9301 123.507 52.0241 123.507H53.1152C53.2092 123.507 53.2867 123.616 53.2867 123.751V132.047ZM55.9672 141.838C55.9672 141.972 55.8906 142.081 55.7966 142.081H54.7045C54.6105 142.081 54.5349 141.973 54.5349 141.838V133.541H55.9672V141.838ZM55.9672 132.047H54.5349V123.751C54.5349 123.617 54.6105 123.507 54.7045 123.507H55.7966C55.8906 123.507 55.9672 123.616 55.9672 123.751V132.047Z" fill="#FF725E"/>
<path d="M67.9563 118.785C67.9563 119.215 67.6365 119.564 67.2421 119.564H3.03903C2.64463 119.564 2.32578 119.215 2.32578 118.785V115.922C2.32578 115.492 2.64463 115.142 3.03903 115.142H67.2421C67.6365 115.142 67.9563 115.492 67.9563 115.922V118.785Z" fill="#FF725E"/>
<path d="M66.6626 119.555C66.6626 119.657 52.6597 119.739 35.3901 119.739C18.1147 119.739 4.11473 119.657 4.11473 119.555C4.11473 119.453 18.1147 119.37 35.3901 119.37C52.6588 119.37 66.6626 119.453 66.6626 119.555Z" fill="#263238"/>
<g opacity="0.3">
<path d="M7.09455 119.555C16.1892 121.135 24.2808 121.854 33.5412 121.939C43.4062 122.028 54.3362 121.525 63.9589 119.555H7.09455Z" fill="black"/>
</g>
<path d="M37.2789 118.275C36.3747 118.275 35.6421 117.541 35.6421 116.635V91.6406C35.6421 90.7346 36.3747 90.0005 37.2789 90.0005C38.183 90.0005 38.9156 90.7346 38.9156 91.6406V116.635C38.9156 117.541 38.183 118.275 37.2789 118.275Z" fill="#455A64"/>
<path d="M37.2788 118.275C37.2759 118.252 37.4978 118.278 37.8622 118.126C38.2101 117.986 38.7392 117.577 38.8303 116.832C38.8196 115.273 38.8041 113.078 38.7857 110.381C38.7741 107.643 38.7605 104.398 38.746 100.8C38.7421 98.9954 38.7392 97.1028 38.7353 95.1412C38.7343 94.1605 38.7334 93.1622 38.7324 92.1484C38.7276 91.8989 38.745 91.627 38.713 91.4153C38.6781 91.1919 38.5929 90.9754 38.4572 90.7919C38.1936 90.418 37.743 90.1859 37.2808 90.1859C36.8185 90.185 36.3669 90.416 36.1033 90.7899C35.9677 90.9734 35.8814 91.19 35.8465 91.4133C35.8146 91.625 35.831 91.8959 35.8262 92.1465C35.8252 93.1603 35.8243 94.1585 35.8233 95.1403C35.8194 97.1018 35.8155 98.9954 35.8126 100.8C35.7981 104.399 35.7845 107.644 35.7729 110.382C35.7545 113.079 35.739 115.274 35.7283 116.833C35.8194 117.577 36.3485 117.987 36.6964 118.127C37.0598 118.278 37.2817 118.252 37.2788 118.275C37.2788 118.275 37.0598 118.33 36.6683 118.195C36.2972 118.072 35.709 117.66 35.5849 116.849C35.5336 115.307 35.5345 113.113 35.5112 110.381C35.4996 107.643 35.4861 104.398 35.4715 100.799C35.4686 98.9944 35.4647 97.1018 35.4608 95.1393C35.4599 94.1575 35.4589 93.1593 35.4579 92.1455C35.4638 91.8901 35.4415 91.6493 35.4812 91.3551C35.5238 91.0744 35.6334 90.8025 35.8029 90.5724C36.1334 90.1043 36.7003 89.813 37.2798 89.815C37.8583 89.814 38.4252 90.1063 38.7547 90.5743C38.9233 90.8045 39.0319 91.0774 39.0755 91.357C39.1152 91.6503 39.0929 91.8911 39.0987 92.1465C39.0977 93.1593 39.0968 94.1585 39.0958 95.1393C39.0919 97.1008 39.0881 98.9934 39.0852 100.798C39.0706 104.396 39.0571 107.641 39.0454 110.379C39.0222 113.111 39.0231 115.305 38.9718 116.847C38.8477 117.657 38.2595 118.07 37.8883 118.193C37.4978 118.33 37.2788 118.275 37.2788 118.275Z" fill="#263238"/>
<path d="M57.5641 81.4298L35.9066 82.2785C35.9066 82.2785 34.7495 68.034 35.3116 64.243C35.8736 60.4519 43.2007 49.4838 50.0151 53.2243C50.0151 53.2243 52.2934 53.1816 53.7548 56.49C54.343 57.8204 57.5641 81.4298 57.5641 81.4298Z" fill="#FF725E"/>
<path d="M36.5753 62.4524C36.6383 62.463 36.6063 61.2347 37.3554 59.4683C37.7275 58.5914 38.2808 57.5912 39.0415 56.5852C39.7857 55.5695 40.7209 54.512 42.0349 53.9109C43.3461 53.3215 44.7348 53.0758 45.9829 53.1321C47.2398 53.1719 48.3687 53.3632 49.2971 53.5769C50.2283 53.7886 50.96 54.0469 51.4494 54.2566C51.9387 54.4702 52.1878 54.6324 52.2053 54.6072C52.2111 54.5975 52.1538 54.5499 52.0385 54.4664C51.9251 54.377 51.742 54.2731 51.5036 54.142C51.022 53.8925 50.2904 53.5973 49.3523 53.3535C48.4162 53.1088 47.2785 52.8903 45.9936 52.8321C44.7066 52.7592 43.2628 52.9991 41.8973 53.6157C40.5135 54.2479 39.5348 55.3753 38.8012 56.4065C38.0395 57.4417 37.494 58.4749 37.1422 59.3819C36.7885 60.2898 36.6383 61.0705 36.5821 61.6105C36.5578 61.8814 36.5472 62.0911 36.553 62.2348C36.5568 62.3776 36.5636 62.4524 36.5753 62.4524Z" fill="#263238"/>
<path d="M35.3427 69.207C35.333 69.207 35.3281 69.2944 35.3262 69.4614C35.3281 69.6605 35.3291 69.9013 35.332 70.1936C35.3494 70.8753 35.3737 71.7939 35.4037 72.9242C35.4919 75.2955 35.6121 78.5486 35.7506 82.2842L35.7564 82.4406L35.9135 82.4348C37.274 82.3833 38.7237 82.328 40.218 82.2707C44.9896 82.0648 49.3068 81.8793 52.4863 81.7424C54.0213 81.6608 55.2801 81.5938 56.2027 81.5453C56.6116 81.5171 56.9459 81.4938 57.2124 81.4754C57.4431 81.456 57.5642 81.4404 57.5632 81.4288C57.5632 81.4171 57.4411 81.4113 57.2095 81.4093C56.942 81.4113 56.6077 81.4151 56.1978 81.4181C55.2743 81.4414 54.0145 81.4734 52.4776 81.5123C49.2961 81.6249 44.978 81.7774 40.2054 81.9453C38.7111 82.0056 37.2614 82.0638 35.9009 82.1192L36.0636 82.2697C35.8795 78.536 35.7196 75.2848 35.6024 72.9145C35.5345 71.7861 35.4793 70.8684 35.4386 70.1877C35.4154 69.8964 35.397 69.6556 35.3805 69.4585C35.365 69.2934 35.3514 69.207 35.3427 69.207Z" fill="#263238"/>
</svg>
