<svg width="143" height="370" viewBox="0 0 143 370" fill="none" xmlns="http://www.w3.org/2000/svg">
<path d="M50.6371 331.243L53.654 362.959L69.0727 361.024L70.1221 345.129L50.6371 331.243Z" fill="#FFBF9D"/>
<path d="M105.968 357.252C105.658 356.763 102.999 346.109 102.999 346.109L120.886 341.615L123.08 356.934L105.968 357.252Z" fill="#FFBF9D"/>
<path d="M123.032 353.922V355.146C123.032 355.146 142.469 363.62 142.636 367.539L103.869 366.975L104.596 353.334C107.436 354.824 110.562 355.65 113.75 355.752C116.938 355.853 120.108 355.228 123.032 353.922Z" fill="#F06449"/>
<g opacity="0.6">
<path d="M108.424 357.754C108.044 357.876 107.721 358.136 107.514 358.486C107.308 358.835 107.233 359.25 107.303 359.652C107.34 359.852 107.416 360.042 107.525 360.212C107.633 360.382 107.774 360.528 107.938 360.641C108.102 360.755 108.286 360.834 108.48 360.875C108.674 360.915 108.874 360.916 109.068 360.877C109.47 360.747 109.812 360.472 110.031 360.103C110.251 359.733 110.332 359.295 110.261 358.869C110.13 358.466 109.85 358.133 109.482 357.941C109.114 357.748 108.687 357.712 108.293 357.84" fill="white"/>
</g>
<g opacity="0.6">
<path d="M103.869 366.975L104.048 363.693L141.146 365.432C141.146 365.432 142.851 366.253 142.636 367.539L103.869 366.975Z" fill="white"/>
</g>
<path d="M123.163 355.256C123.163 355.452 122.209 355.538 121.267 356.162C120.325 356.787 119.812 357.632 119.645 357.546C119.478 357.46 119.765 356.322 120.921 355.575C122.078 354.828 123.211 355.073 123.163 355.256Z" fill="#263238"/>
<path d="M127.206 357.093C127.206 357.289 126.419 357.62 125.763 358.452C125.107 359.285 124.904 360.191 124.713 360.179C124.523 360.167 124.427 359.028 125.262 358.011C126.097 356.995 127.206 356.909 127.206 357.093Z" fill="#263238"/>
<path d="M129.436 362.285C129.257 362.285 129.018 361.318 129.519 360.228C130.02 359.138 130.914 358.71 130.986 358.881C131.057 359.053 130.509 359.628 130.103 360.534C129.698 361.44 129.626 362.261 129.436 362.285Z" fill="#263238"/>
<path d="M52.1754 356.371V357.595C52.1754 357.595 32.7261 366.069 32.5592 370L71.3265 369.437L70.5991 355.783C67.7609 357.272 64.6369 358.096 61.4514 358.198C58.2659 358.3 55.0981 357.676 52.1754 356.371Z" fill="#F06449"/>
<g opacity="0.6">
<path d="M66.7473 360.179C67.1263 360.298 67.4497 360.556 67.6562 360.904C67.8627 361.251 67.9382 361.664 67.8683 362.065C67.7903 362.464 67.563 362.816 67.2353 363.045C66.9076 363.274 66.5055 363.361 66.1153 363.289C65.7098 363.161 65.3643 362.885 65.1444 362.512C64.9245 362.14 64.8457 361.697 64.9229 361.269C64.985 361.069 65.0851 360.884 65.2174 360.725C65.3497 360.566 65.5115 360.435 65.6935 360.34C65.8755 360.246 66.074 360.189 66.2774 360.174C66.4809 360.159 66.6852 360.186 66.8785 360.252" fill="white"/>
</g>
<g opacity="0.6">
<path d="M71.3384 369.4L71.1715 366.118L34.0736 367.857C34.0736 367.857 32.3565 368.677 32.5711 369.963L71.3384 369.4Z" fill="white"/>
</g>
<path d="M52.0442 357.681C52.0442 357.877 53.0101 357.95 53.9521 358.587C54.8942 359.224 55.395 360.057 55.5739 359.971C55.7528 359.885 55.4427 358.746 54.286 357.987C53.1293 357.228 52.0084 357.497 52.0442 357.681Z" fill="#263238"/>
<path d="M48.0017 359.518C48.0017 359.714 48.7887 360.044 49.4446 360.877C50.1004 361.71 50.3032 362.604 50.494 362.604C50.6848 362.604 50.7802 361.453 49.9454 360.424C49.1107 359.395 48.0136 359.322 48.0017 359.518Z" fill="#263238"/>
<path d="M45.7718 364.698C45.9507 364.698 46.2011 363.73 45.6883 362.64C45.1755 361.551 44.2931 361.134 44.2216 361.293C44.15 361.453 44.6985 362.04 45.104 362.947C45.5094 363.853 45.581 364.685 45.7718 364.698Z" fill="#263238"/>
<path d="M100.494 171.049C101.329 171.624 106.886 210.234 114.1 261.665C120.063 303.936 123.104 346.672 123.104 346.672L103.833 350.028C103.833 350.028 86.9001 297.372 78.1474 259.657C70.0744 224.831 66.2943 200.487 66.2943 200.487L66.8428 175.139L100.494 171.049Z" fill="#263238"/>
<path d="M42.6237 155.608C42.6237 155.608 24.4385 179.266 25.3805 204.405C25.941 219.443 51.8892 346.868 51.8892 346.868L70.8852 346.746L68.8461 207.369L71.5769 174.576L42.6237 155.608Z" fill="#263238"/>
<path d="M71.2072 200.609C71.4368 199.72 71.7154 198.845 72.0419 197.989C72.7276 195.886 73.2734 193.739 73.6756 191.56C74.0773 189.384 74.3402 187.183 74.4627 184.972C74.4691 184.048 74.5208 183.124 74.6177 182.205C74.6962 182.445 74.7326 182.698 74.725 182.952C74.725 183.429 74.725 184.176 74.725 184.984C74.6967 187.224 74.4772 189.457 74.0692 191.658C73.6545 193.853 73.0602 196.007 72.2924 198.099C71.9823 198.895 71.72 199.532 71.5172 199.96C71.4448 200.191 71.3404 200.41 71.2072 200.609Z" fill="#455A64"/>
<path d="M107.792 349.023C107.249 348.307 106.881 347.467 106.719 346.574C106.419 345.716 106.329 344.795 106.457 343.893C106.759 344.724 106.99 345.58 107.148 346.452C107.441 347.287 107.656 348.148 107.792 349.023Z" fill="#455A64"/>
<path d="M114.387 347.799C114.387 347.799 114.303 347.738 114.232 347.591C114.172 347.162 114.112 346.232 113.945 345.142C113.733 344.267 113.574 343.38 113.468 342.484C113.991 343.246 114.304 344.139 114.375 345.068C114.505 345.9 114.505 346.747 114.375 347.579C114.387 347.701 114.387 347.799 114.387 347.799Z" fill="#455A64"/>
<path d="M120.659 346.832C120.528 346.832 120.659 345.46 120.385 343.819C120.111 342.178 119.717 340.905 119.836 340.844C120.413 341.703 120.754 342.705 120.826 343.746C121.036 344.772 120.978 345.836 120.659 346.832Z" fill="#455A64"/>
<path d="M67.4748 347.04C67.3555 347.04 67.761 345.815 67.8802 344.309C67.9995 342.803 67.8086 341.566 67.9398 341.529C68.2717 342.424 68.4022 343.385 68.3217 344.339C68.2411 345.293 67.9516 346.217 67.4748 347.04Z" fill="#455A64"/>
<path d="M61.0831 346.979C60.6945 345.191 60.6057 343.348 60.8208 341.529C61.076 342.407 61.1928 343.32 61.1666 344.236C61.2801 345.149 61.252 346.074 61.0831 346.979Z" fill="#455A64"/>
<path d="M56.0509 346.795C55.2017 345.141 54.8489 343.266 55.0373 341.407C55.2978 342.282 55.4814 343.18 55.5858 344.089C55.8249 344.973 55.9806 345.879 56.0509 346.795Z" fill="#455A64"/>
<path d="M134.79 130.272C134.79 130.272 136.304 128.019 133.895 121.7C131.487 115.382 103.44 80.1271 103.44 80.1271C103.44 80.1271 93.0056 88.6988 93.578 98.7033L98.1452 103.957L115.794 127.088L134.79 130.272Z" fill="#FFBF9D"/>
<path d="M60.153 7.12006C57.5415 3.87503 50.6132 3.9485 48.8961 5.89552C47.7133 5.24667 46.3351 5.08175 45.0388 5.43387C43.7424 5.78599 42.6239 6.62905 41.9082 7.79356L34.5029 9.0181C33.2292 9.111 31.9988 9.53216 30.9255 10.2426C30.4006 10.6035 30.0263 11.153 29.8763 11.783C29.7262 12.4131 29.8112 13.078 30.1146 13.6469C29.4952 13.8177 28.9268 14.1437 28.4603 14.5956C27.9938 15.0475 27.6438 15.6113 27.4417 16.2363C27.2396 16.8613 27.1917 17.5281 27.3024 18.1768C27.413 18.8255 27.6786 19.4359 28.0755 19.9532C27.8144 20.2246 27.611 20.5486 27.4782 20.9049C27.3454 21.2612 27.2861 21.6419 27.304 22.0229C27.3219 22.4039 27.4167 22.777 27.5824 23.1184C27.748 23.4598 27.9809 23.7622 28.2663 24.0065C26.1089 26.3255 24.358 29.01 23.091 31.9415C22.4506 33.1132 22.2432 34.4827 22.5066 35.7988C22.5941 36.1177 22.747 36.4138 22.955 36.6672C23.1629 36.9206 23.4212 37.1254 23.7124 37.268C24.0037 37.4106 24.3213 37.4877 24.6439 37.4941C24.9666 37.5004 25.2868 37.436 25.5832 37.3049C25.197 37.7917 24.9584 38.3842 24.8969 39.0089C24.8355 39.6336 24.9538 40.2631 25.2374 40.8194C24.0449 40.8194 23.5203 42.6929 24.3192 43.6358C24.7759 44.0686 25.3142 44.4005 25.9008 44.6112C26.4874 44.8218 27.1099 44.9066 27.7297 44.8604C28.9765 44.7413 30.2281 45.0283 31.3071 45.6808C31.2881 45.8333 31.2392 45.9803 31.1633 46.1129C31.0875 46.2455 30.9863 46.3609 30.8659 46.4523C29.7816 47.1691 29.0144 48.2939 28.729 49.5853C28.4436 50.8767 28.6628 52.2315 29.3395 53.3587L29.7092 53.9587C30.6694 55.0986 31.8409 56.0311 33.1554 56.7016C35.8743 58.3303 37.5556 58.1466 40.6561 58.7834C39.6902 60.7671 44.5078 65.5428 50.5536 61.4651C60.7744 65.0394 71.4388 67.101 82.2257 67.5878C83.9428 67.698 86.0058 67.5878 86.8525 66.0816C87.5513 66.2547 88.2811 66.2469 88.9763 66.0588C89.6714 65.8707 90.3103 65.5083 90.8353 65.004C91.8616 63.9947 92.709 62.8096 93.3395 61.5018C94.8279 61.1671 96.1787 60.3667 97.2059 59.211C98.2331 58.0554 98.8862 56.6011 99.0753 55.0485C100.116 54.3153 100.997 53.3669 101.66 52.2641C102.323 51.1612 102.755 49.9283 102.927 48.6442C103.636 48.4402 104.296 48.0867 104.864 47.6062C105.432 47.1257 105.897 46.5288 106.228 45.8535C106.559 45.1782 106.749 44.4394 106.787 43.6844C106.824 42.9293 106.708 42.1746 106.445 41.4684C106.013 37.8687 105.001 34.3679 103.452 31.1088C105.443 30.7904 106.326 28.1699 105.622 26.2718C104.918 24.3738 103.237 23.0881 101.568 21.9002C103.022 22.3778 104.406 20.6022 104.131 19.0838C103.906 18.3336 103.536 17.6374 103.045 17.0359C102.553 16.4345 101.95 15.94 101.269 15.5816C99.4087 14.3161 97.407 13.2842 95.3071 12.508C94.7585 9.86304 91.6223 6.71597 89.2732 5.43021C79.7334 0.225916 73.0198 -1.34151 60.0814 7.12006" fill="#263238"/>
<path d="M86.2443 27.3738C85.8508 20.5776 81.4744 12.214 74.6773 12.8997L53.6421 18.153C52.6616 18.2393 51.7488 18.7019 51.0857 19.4486C50.4227 20.1953 50.0581 21.1712 50.0647 22.1817L52.4496 67.5754C52.4496 73.4899 54.8346 78.486 60.5465 79.6004C62.2679 79.9515 64.0425 79.9201 65.7511 79.5083C67.4597 79.0965 69.0626 78.3139 70.4521 77.213C71.8416 76.1121 72.9855 74.7185 73.8068 73.1258C74.6282 71.5332 75.108 69.7784 75.2139 67.9795C75.3689 64.8692 75.4763 62.5425 75.4763 62.5548C75.4763 62.567 84.1217 61.1466 85.9581 49.8196C86.9598 44.1867 86.6855 34.9414 86.2443 27.3738Z" fill="#FFBF9D"/>
<path d="M81.9275 36.3866C81.9276 36.7688 81.7814 37.1358 81.5204 37.4084C81.2594 37.681 80.9045 37.8373 80.5323 37.8438C80.3512 37.8588 80.169 37.8367 79.9963 37.7787C79.8235 37.7208 79.6637 37.6282 79.5261 37.5063C79.3885 37.3843 79.2759 37.2356 79.1948 37.0686C79.1137 36.9016 79.0657 36.7197 79.0537 36.5335C79.0536 36.1501 79.1994 35.7818 79.4601 35.5072C79.7207 35.2327 80.0756 35.0736 80.4489 35.0641C80.6313 35.0473 80.8151 35.0686 80.9893 35.1267C81.1635 35.1847 81.3245 35.2783 81.4626 35.4018C81.6007 35.5253 81.713 35.6762 81.7929 35.8454C81.8728 36.0147 81.9186 36.1987 81.9275 36.3866Z" fill="#263238"/>
<path d="M84.229 32.1742C84.0501 32.3701 82.965 31.5497 81.4148 31.5497C79.8646 31.5497 78.7198 32.3211 78.5409 32.1252C78.362 31.9293 78.6482 31.6966 79.1491 31.3415C79.8231 30.8701 80.6233 30.6262 81.4386 30.6435C82.2463 30.6397 83.0347 30.8967 83.6924 31.3782C84.1575 31.7578 84.3244 32.1007 84.229 32.1742Z" fill="#263238"/>
<path d="M67.5583 36.3865C67.5583 36.7688 67.4121 37.1358 67.1511 37.4083C66.8901 37.6809 66.5353 37.8373 66.163 37.8437C65.9813 37.8588 65.7984 37.8367 65.625 37.779C65.4515 37.7212 65.2909 37.6287 65.1524 37.5069C65.0139 37.3852 64.9001 37.2365 64.8178 37.0694C64.7354 36.9023 64.686 36.7202 64.6725 36.5334C64.6754 36.1489 64.8239 35.7806 65.0865 35.5064C65.3491 35.2322 65.7052 35.0735 66.0796 35.064C66.2616 35.049 66.4448 35.0715 66.6183 35.1302C66.7918 35.1889 66.9521 35.2826 67.0899 35.4058C67.2276 35.529 67.34 35.6792 67.4204 35.8476C67.5008 36.016 67.5477 36.1992 67.5583 36.3865Z" fill="#263238"/>
<path d="M68.9654 32.4068C68.7746 32.5905 67.6894 31.7701 66.1392 31.7701C64.589 31.7701 63.4442 32.5415 63.2653 32.3578C63.0865 32.1742 63.3727 31.9293 63.8735 31.5619C64.5502 31.0963 65.3486 30.8529 66.163 30.8639C66.9721 30.8637 67.7606 31.125 68.4168 31.6109C68.8819 31.9782 69.0727 32.3211 68.9654 32.4068Z" fill="#263238"/>
<path d="M74.5461 44.04C75.3664 43.7784 76.2161 43.6261 77.0742 43.5869C77.4677 43.5869 77.8493 43.4644 77.9208 43.195C77.9565 42.769 77.865 42.3419 77.6585 41.9705L76.466 38.9214C75.3943 36.3436 74.525 33.682 73.8664 30.9619C75.1528 33.4441 76.2338 36.0329 77.098 38.701L78.219 41.7623C78.4596 42.2457 78.5271 42.8005 78.4097 43.3297C78.352 43.4731 78.2628 43.6007 78.149 43.7027C78.0352 43.8047 77.9 43.8782 77.7539 43.9175C77.5353 43.9725 77.3112 44.0013 77.0861 44.0032C76.2441 44.1217 75.3911 44.134 74.5461 44.04Z" fill="#263238"/>
<path d="M75.5359 62.5549C70.2443 62.6184 65.0364 61.1957 60.475 58.4405C60.475 58.4405 64.0524 66.2408 75.3809 65.2367L75.5359 62.5549Z" fill="#FF9A6C"/>
<path d="M69.6689 25.9657C69.5139 26.3943 67.9637 26.1861 66.0915 26.3943C64.2193 26.6025 62.8003 27.1045 62.5141 26.7249C62.4068 26.5413 62.6691 26.1372 63.2654 25.7331C64.0641 25.2278 64.9633 24.9137 65.8964 24.8141C66.8295 24.7144 67.7725 24.8318 68.6553 25.1575C69.4066 25.4269 69.7405 25.7453 69.6689 25.9657Z" fill="#263238"/>
<path d="M83.7162 26.7983C83.4301 27.1412 82.3688 26.7983 81.0809 26.7983C79.793 26.7983 78.6959 27.031 78.4574 26.6514C78.3382 26.4677 78.5171 26.1126 78.9941 25.7819C79.637 25.3805 80.38 25.1805 81.1321 25.2066C81.8841 25.2327 82.6123 25.4837 83.2273 25.9289C83.6805 26.2473 83.8355 26.6146 83.7162 26.7983Z" fill="#263238"/>
<path d="M91.0381 33.0924C91.0749 31.2902 90.497 29.5316 89.4043 28.1208C88.7843 27.386 87.9734 26.7983 87.4249 26.0023C86.2324 24.2635 86.5305 21.9491 86.0893 19.8796C85.7898 18.5418 85.1818 17.2974 84.3165 16.2511C83.4512 15.2048 82.3538 14.3872 81.1167 13.8671C79.0418 13.0099 76.6449 12.9855 74.725 11.8344C73.294 10.9772 72.2566 9.569 70.7779 8.79754C67.916 7.3036 64.434 8.65058 61.584 10.1813C60.9281 12.3609 62.2279 14.3569 63.48 16.3039C64.123 17.2606 64.9579 18.0649 65.9287 18.6626C66.8996 19.2604 67.9838 19.6377 69.1085 19.7694C70.8614 19.9531 72.9244 19.6592 74.1049 20.9939C75.2855 22.3287 74.7131 24.6675 75.7148 26.2717C77.1338 28.5248 80.6397 27.8636 82.8696 29.3208C84.5749 30.4474 85.2545 32.6026 86.0177 34.5006C86.7809 36.3986 88.2476 38.4069 90.2987 38.4069C90.7431 36.6704 90.9912 34.8872 91.0381 33.0924Z" fill="#263238"/>
<path d="M65.7695 14.4183C60.6328 14.0874 55.4816 14.7605 50.5894 16.4021C49.0906 16.7837 47.747 17.6406 46.7496 18.8512C46.0715 20.0231 45.7362 21.3706 45.7837 22.7329C45.6287 26.9821 47.0716 32.2476 48.4787 36.2029L53.5825 39.6316C57.6726 38.8601 56.1582 31.7333 56.1343 28.1944C57.5635 27.6302 58.8085 26.6631 59.7262 25.4045C60.6438 24.1459 61.1968 22.6469 61.3216 21.0798C62.5067 20.3888 63.523 19.43 64.2936 18.2758C65.0643 17.1216 65.569 15.8025 65.7695 14.4183Z" fill="#263238"/>
<path d="M53.5705 38.1009C53.5705 35.6518 50.6013 35.0518 48.4668 36.2029C47.2743 36.8274 46.3799 38.1377 46.4038 40.7214C46.4038 47.6033 53.3082 46.1339 53.3201 45.9257C53.332 45.7175 53.6302 40.9418 53.5705 38.1009Z" fill="#FFBF9D"/>
<path d="M51.1856 43.3418C51.1856 43.3418 51.0663 43.4275 50.8636 43.5255C50.5788 43.6332 50.266 43.6332 49.9812 43.5255C49.539 43.2506 49.1764 42.8592 48.9311 42.392C48.6858 41.9248 48.5666 41.3987 48.586 40.8682C48.5648 40.279 48.6749 39.6926 48.908 39.1538C48.9727 38.936 49.0878 38.7376 49.2436 38.5755C49.3994 38.4134 49.5911 38.2925 49.8023 38.2232C49.9374 38.1873 50.0803 38.1991 50.208 38.2569C50.3356 38.3147 50.4406 38.415 50.5059 38.5416C50.6013 38.7375 50.5059 38.8722 50.5894 38.8844C50.6728 38.8967 50.7325 38.7742 50.6728 38.4926C50.6407 38.3211 50.5471 38.1681 50.4105 38.064C50.3157 37.9916 50.2079 37.9391 50.0933 37.9097C49.9787 37.8802 49.8595 37.8744 49.7427 37.8926C49.4711 37.9532 49.219 38.084 49.0103 38.2725C48.8017 38.4611 48.6433 38.7012 48.5502 38.9702C48.2576 39.565 48.118 40.2268 48.1448 40.8927C48.121 41.5088 48.276 42.1184 48.5902 42.6438C48.9045 43.1693 49.3637 43.587 49.9096 43.8438C50.0926 43.8965 50.2846 43.9074 50.4721 43.8756C50.6596 43.8439 50.838 43.7704 50.9948 43.6602C51.1856 43.5132 51.2452 43.354 51.1856 43.3418Z" fill="#FF9A6C"/>
<path d="M47.6678 47.4809C47.2993 47.4739 46.9321 47.4329 46.5707 47.3584C46.1544 47.2785 45.7523 47.134 45.3783 46.9298H45.4617C45.3476 47.4643 45.1136 47.964 44.7782 48.3892C44.4428 48.8144 44.0154 49.1533 43.5299 49.3789C42.9438 49.6285 42.3037 49.7136 41.675 49.6254C41.0464 49.5371 40.4519 49.2788 39.9525 48.8768H40.0718C39.8489 49.1804 39.5195 49.3826 39.1536 49.4401C38.7817 49.4959 38.402 49.4451 38.0565 49.2932C37.6925 49.1449 37.3894 48.8725 37.1979 48.5217C37.0076 48.1697 36.909 47.7733 36.9117 47.3707C36.9238 46.5401 37.224 45.7412 37.7584 45.1175C38.3155 44.483 38.9485 43.9234 39.6425 43.4522V43.6113C39.3716 43.418 39.1427 43.1691 38.9703 42.8804C38.7979 42.5916 38.6857 42.2693 38.6408 41.9337C38.5431 41.2448 38.6468 40.5415 38.9389 39.9132C39.2527 39.2804 39.6865 38.7183 40.2149 38.2601C40.7445 37.7869 41.3064 37.3531 41.8963 36.9621V37.1213C41.6665 36.8431 41.4968 36.5182 41.3981 36.1678C41.2995 35.8175 41.2741 35.4497 41.3239 35.0886C41.41 34.3479 41.7136 33.6517 42.1944 33.0925C43.1674 32.1161 44.3408 31.3756 45.6287 30.9251L45.569 31.0353C45.4296 30.289 45.4733 29.5188 45.696 28.7941C45.9188 28.0694 46.3136 27.413 46.845 26.8841C47.3645 26.3898 47.9863 26.0228 48.6637 25.8107C49.3412 25.5986 50.0566 25.5469 50.7563 25.6596L50.649 25.7698C50.5661 25.1718 50.6211 24.5622 50.8096 23.9901C50.9981 23.418 51.3148 22.8993 51.7341 22.4758C52.113 22.0695 52.5713 21.7504 53.079 21.5393C53.5867 21.3282 54.1322 21.23 54.6795 21.2513L54.5842 21.3247C54.6401 20.7746 54.8053 20.2422 55.0697 19.7603C55.3341 19.2785 55.692 18.8575 56.1213 18.5235C56.5506 18.1894 57.042 17.9494 57.5653 17.8183C58.0885 17.6872 58.6324 17.6678 59.1632 17.7613L59.0917 17.8225C59.154 17.1969 59.3716 16.5982 59.7237 16.0837C60.0209 15.616 60.3916 15.2022 60.8208 14.8592C61.4975 14.2968 62.3355 13.9784 63.2057 13.953H63.4561H63.6946C63.8496 13.953 63.9928 13.953 64.1239 14.0265C64.3437 14.0831 64.559 14.1568 64.7679 14.2469L65.1375 14.4306L65.2687 14.4918C65.2687 14.4918 65.2687 14.4918 65.1375 14.4918L64.7559 14.3326C64.5467 14.25 64.3313 14.1845 64.112 14.1367C63.973 14.129 63.8336 14.129 63.6946 14.1367H63.4561H63.2057C62.3599 14.1761 61.5489 14.4938 60.8923 15.0428C60.4741 15.3869 60.1153 15.8009 59.831 16.2674C59.4931 16.76 59.2837 17.3334 59.2229 17.9328V18.0185H59.1513C58.6721 17.9297 58.1805 17.9403 57.7054 18.0497C57.2302 18.159 56.7812 18.3649 56.3848 18.6552C55.9247 18.9642 55.5401 19.3779 55.2609 19.8642C54.9817 20.3506 54.8154 20.8964 54.7749 21.4594V21.5452H54.6915C54.1654 21.525 53.6415 21.6242 53.1571 21.8359C52.6727 22.0476 52.2397 22.3664 51.8892 22.7697C51.4915 23.1735 51.1916 23.6675 51.0135 24.2119C50.8354 24.7563 50.784 25.336 50.8636 25.9045V26.0392H50.7205C50.0487 25.9381 49.3632 25.9958 48.7163 26.208C48.0695 26.4202 47.4784 26.7813 46.9881 27.2637C46.4846 27.7717 46.112 28.4003 45.9039 29.0928C45.6957 29.7854 45.6585 30.5202 45.7956 31.2312V31.3047H45.7241C44.4641 31.7461 43.3154 32.4698 42.3613 33.4232C41.9098 33.9533 41.6233 34.6101 41.5385 35.309C41.4906 35.6397 41.5126 35.9772 41.6032 36.2984C41.6937 36.6196 41.8506 36.917 42.0632 37.1703L42.1467 37.2682L42.0393 37.3295C40.8563 38.0177 39.8632 39.0038 39.1536 40.1949C38.8814 40.7858 38.786 41.4463 38.8793 42.0929C38.9145 42.4016 39.0136 42.6989 39.1699 42.965C39.3262 43.2311 39.5361 43.4599 39.7856 43.6358L39.9048 43.7215L39.7975 43.795C39.1175 44.2661 38.4933 44.8167 37.9372 45.4359C37.424 46.0215 37.1358 46.7788 37.1264 47.5666C37.1068 47.932 37.194 48.295 37.3767 48.6092C37.5594 48.9234 37.8293 49.1743 38.1519 49.3299C38.45 49.4885 38.791 49.5409 39.1212 49.4789C39.4515 49.4168 39.7523 49.2438 39.9764 48.9871V48.9136H40.0479C40.4783 49.2784 40.9919 49.5249 41.5405 49.6299C42.0891 49.7349 42.6547 49.6949 43.1841 49.5137C43.7135 49.3325 44.1894 49.016 44.567 48.594C44.9445 48.172 45.2114 47.6583 45.3425 47.1013V47.0278H45.414C45.7867 47.2351 46.1893 47.3798 46.6065 47.4564C46.9595 47.5346 47.3188 47.5796 47.6797 47.5911C48.2507 47.6304 48.8233 47.547 49.3611 47.3462C49.6934 47.2338 49.9819 47.0149 50.1839 46.7217C50.3032 46.5135 50.327 46.3788 50.3389 46.391C50.3358 46.4195 50.3358 46.4483 50.3389 46.4767C50.3389 46.4767 50.3389 46.6359 50.2316 46.7339C50.0379 47.0461 49.7483 47.2831 49.4088 47.4074" fill="#455A64"/>
<path d="M24.7127 37.5497C24.6175 37.4167 24.5375 37.2729 24.4742 37.1211C24.235 36.5545 24.1433 35.9338 24.2081 35.3199C24.273 34.7059 24.492 34.1198 24.8439 33.6189C25.1491 33.2093 25.5332 32.8685 25.9722 32.6178C26.4112 32.3671 26.8958 32.2119 27.3958 32.1618L27.3362 32.2475C27.164 31.0683 27.4417 29.8664 28.1112 28.8922C28.4763 28.3343 28.9568 27.866 29.5184 27.5208C30.1273 27.1947 30.7664 26.9322 31.4263 26.737C31.7509 26.6134 32.0594 26.4489 32.3445 26.2472C32.6233 26.0276 32.8513 25.7475 33.0123 25.4268C33.3462 24.79 33.4774 24.0186 33.8947 23.3206C34.3487 22.6161 34.9942 22.0641 35.751 21.7332C36.5079 21.4023 37.3427 21.307 38.1519 21.4593L38.0207 21.5695C37.954 20.7446 38.0682 19.9149 38.3551 19.1414C38.6419 18.3679 39.0941 17.6703 39.6782 17.0999C40.3009 16.504 41.0477 16.0619 41.8619 15.8073C42.6761 15.5526 43.5362 15.4922 44.3766 15.6305L44.2573 15.7407C44.2162 14.7675 44.4585 13.8037 44.9535 12.9727C45.4484 12.1416 46.1734 11.481 47.0358 11.0752C47.8271 10.7193 48.6949 10.5807 49.5541 10.673C50.4133 10.7653 51.2344 11.0854 51.9369 11.6017H51.8295C52.5426 10.9804 53.3757 10.5214 54.2741 10.2548C55.0796 10.0016 55.9129 9.85345 56.7544 9.81393C58.115 9.72409 59.4801 9.88585 60.785 10.2915C61.6328 10.5297 62.438 10.9059 63.1699 11.4058C63.4203 11.5773 63.5754 11.7487 63.7066 11.8467C63.767 11.8941 63.8229 11.9474 63.8735 12.0058C63.8735 12.0058 63.635 11.7977 63.1342 11.4548C62.3983 10.9739 61.5935 10.6144 60.7492 10.3895C59.456 10.0094 58.1088 9.8603 56.7664 9.94863C55.9553 9.99881 55.1539 10.1552 54.3814 10.4139C53.5035 10.6746 52.6902 11.1256 51.9965 11.7364H51.9369C51.2612 11.2409 50.4712 10.935 49.6451 10.8491C48.819 10.7632 47.9853 10.9002 47.2266 11.2466C46.4046 11.6442 45.7145 12.2808 45.2417 13.0776C44.769 13.8743 44.5345 14.7961 44.5674 15.7285V15.8631H44.4362C43.6282 15.7311 42.8016 15.7892 42.0186 16.0332C41.2357 16.2771 40.517 16.7005 39.9167 17.2714C39.3566 17.8212 38.9226 18.4921 38.6462 19.2356C38.3698 19.979 38.258 20.7762 38.3188 21.5695V21.7164H38.1877C37.4185 21.5723 36.625 21.6638 35.9062 21.9795C35.1873 22.2953 34.5749 22.8213 34.1452 23.492C33.7517 24.1288 33.6086 24.9002 33.2627 25.5737C33.0879 25.92 32.8392 26.2214 32.5353 26.4554C32.2354 26.6674 31.911 26.8402 31.5694 26.9697C30.9201 27.1631 30.2895 27.4173 29.6853 27.7289C29.148 28.0633 28.6849 28.5097 28.3259 29.0392C27.6755 29.9805 27.3984 31.1407 27.5508 32.2842V32.3577H27.4792C26.9951 32.405 26.5255 32.5532 26.099 32.7933C25.6726 33.0333 25.2982 33.3601 24.9989 33.7536C24.5623 34.3455 24.3276 35.0684 24.3311 35.8109C24.3317 36.276 24.4166 36.7369 24.5815 37.1701C24.6292 37.4028 24.7246 37.5497 24.7127 37.5497Z" fill="#455A64"/>
<path d="M103.571 32.7006C103.571 32.7006 103.571 32.7006 103.499 32.5659C103.428 32.4312 103.404 32.3333 103.332 32.1741C103.189 31.8067 102.975 31.2924 102.7 30.6434C102.426 29.9944 102.116 29.1617 101.675 28.2556C101.203 27.205 100.45 26.3134 99.5045 25.684C98.9679 25.3534 98.3121 25.1207 97.7158 24.8024C97.3897 24.6434 97.0851 24.4418 96.8096 24.2023C96.5265 23.9486 96.3059 23.6297 96.1656 23.2717C95.8794 22.5492 95.9033 21.741 95.6887 20.994C95.5811 20.6116 95.3652 20.2706 95.0685 20.0144C94.7424 19.7762 94.3851 19.5866 94.0073 19.4511C93.5927 19.3197 93.1929 19.1432 92.8148 18.9246C92.4271 18.6855 92.1194 18.3311 91.9324 17.9082C91.668 17.0343 91.5156 16.1286 91.4792 15.2142C91.4316 14.7843 91.3019 14.3682 91.0976 13.9897C90.8607 13.6004 90.4835 13.3231 90.0483 13.2182C89.1658 12.9856 88.1761 13.2182 87.1863 13.0468C86.6939 12.9305 86.2483 12.6611 85.9104 12.2753C85.602 11.9004 85.3378 11.4894 85.1233 11.0508C84.9144 10.6301 84.6836 10.2213 84.4317 9.82625C84.1943 9.44234 83.8661 9.12639 83.4777 8.90785C82.6526 8.58954 81.75 8.55093 80.902 8.79764C80.0531 9.02638 79.1654 9.05983 78.3024 8.89561C77.506 8.65621 76.7585 8.27034 76.0963 7.75678C75.4865 7.28166 74.8313 6.87137 74.1407 6.53224C72.8571 6.02153 71.4563 5.90662 70.1101 6.20161C68.9969 6.42815 67.9462 6.90487 67.0336 7.59758C66.363 8.14 65.7726 8.77932 65.2806 9.49562C64.9837 9.95012 64.7245 10.4294 64.5055 10.9283C64.434 11.0998 64.3743 11.2222 64.3266 11.3202C64.2789 11.4182 64.3266 11.4549 64.2551 11.4549C64.2521 11.41 64.2521 11.365 64.2551 11.3202L64.422 10.9161C64.9465 9.57585 65.8062 8.40155 66.9143 7.51188C67.8317 6.79168 68.8956 6.29355 70.0266 6.05467C71.4066 5.74384 72.845 5.85451 74.1645 6.37304C74.8661 6.71263 75.5332 7.12282 76.156 7.59758C76.7978 8.10269 77.5257 8.48058 78.3024 8.71192C79.1393 8.85733 79.9967 8.81978 80.8185 8.60171C81.2586 8.51038 81.7053 8.45712 82.1541 8.44252C82.6267 8.42101 83.0973 8.51767 83.5254 8.72418C83.9422 8.95675 84.295 9.29372 84.551 9.70379C84.8122 10.0952 85.0472 10.5043 85.2545 10.9283C85.463 11.3648 85.719 11.7756 86.0177 12.1529C86.3343 12.5078 86.7514 12.752 87.2102 12.8509C88.1403 13.0468 89.1181 12.7774 90.0721 13.0223C90.5652 13.1404 90.9934 13.4526 91.2646 13.8917C91.4976 14.3086 91.6399 14.7723 91.6819 15.251C91.7141 16.1488 91.8625 17.0383 92.1231 17.896C92.2912 18.2824 92.5699 18.607 92.9221 18.8266C93.3046 19.0327 93.7035 19.2048 94.1146 19.3409C94.5199 19.471 94.8995 19.6742 95.2355 19.9409C95.5596 20.2119 95.7931 20.5801 95.9033 20.994C96.1299 21.79 96.106 22.5859 96.3684 23.2717C96.661 23.927 97.1853 24.4436 97.8351 24.7166C98.4552 25.035 99.0872 25.2677 99.6357 25.6106C100.594 26.2654 101.351 27.1871 101.818 28.2678C102.271 29.1862 102.557 30.0066 102.832 30.7169L103.416 32.2476C103.487 32.419 103.535 32.5537 103.571 32.6517C103.571 32.668 103.571 32.6843 103.571 32.7006Z" fill="#455A64"/>
<path d="M96.6665 25.1453H96.7857C96.9142 25.1513 97.0401 25.1847 97.1554 25.2432C97.347 25.3802 97.5029 25.5637 97.6089 25.7773C97.715 25.9909 97.7681 26.228 97.7636 26.4678C97.7548 26.819 97.6904 27.1664 97.5728 27.4964C97.4302 27.8889 97.3497 28.3023 97.3343 28.7209C97.3718 29.1585 97.5152 29.5794 97.7516 29.9455C98.002 30.3741 98.3121 30.8026 98.5625 31.3047C98.7087 31.5674 98.7924 31.8617 98.8069 32.1639C98.8214 32.466 98.7663 32.7674 98.646 33.0436C98.4075 33.6191 97.9544 34.0844 97.7278 34.6722C97.6179 34.9783 97.5687 35.3039 97.583 35.6299C97.5973 35.9558 97.6749 36.2755 97.8113 36.5702C98.0498 37.207 98.3956 37.7948 98.6221 38.5417C98.7497 38.9022 98.8065 39.2851 98.7891 39.6683C98.7634 40.0619 98.6578 40.4457 98.4791 40.7949C98.0688 41.4643 97.6019 42.0954 97.0838 42.6807C96.5516 43.2598 96.2569 44.0273 96.261 44.8236C96.4037 45.6333 96.6399 46.4225 96.9646 47.1747C97.0982 47.5681 97.1627 47.9827 97.1554 48.3993C97.1272 48.8333 96.9963 49.2537 96.7738 49.6238C96.3277 50.3101 95.8033 50.939 95.2117 51.4974C94.6616 52.0243 94.2231 52.6621 93.9238 53.3709C93.7033 54.0921 93.4323 54.796 93.1129 55.4771C92.9355 55.8118 92.6818 56.0975 92.3736 56.3098C92.0745 56.5101 91.7435 56.6551 91.3958 56.7384C91.0681 56.8103 90.7454 56.9044 90.4299 57.02C90.1395 57.1506 89.867 57.3194 89.619 57.5221C89.1584 57.9356 88.7569 58.4138 88.4265 58.9426C88.0926 59.4324 87.7707 59.9222 87.4248 60.363C86.794 61.1611 85.9345 61.7352 84.9683 62.0039C84.2368 62.203 83.4719 62.2364 82.7265 62.1019C82.2598 62.0217 81.8088 61.8646 81.3909 61.6365C81.2446 61.559 81.105 61.4689 80.9736 61.3671C81.5209 61.6865 82.118 61.9061 82.7384 62.0161C83.4703 62.1428 84.2206 62.0968 84.9326 61.8814C85.8783 61.625 86.7161 61.0572 87.3175 60.2651C87.6633 59.8365 87.9734 59.3466 88.3073 58.8446C88.637 58.3044 89.0383 57.8139 89.4997 57.3874C89.7568 57.1724 90.0418 56.9952 90.3464 56.8608C90.6706 56.7403 91.0011 56.6381 91.3362 56.5547C91.6637 56.4732 91.9774 56.3411 92.2663 56.1628C92.5457 55.9591 92.7745 55.6906 92.9341 55.3791C93.2442 54.7038 93.5111 54.0085 93.733 53.2974C94.0529 52.5989 94.5072 51.974 95.0686 51.4606C95.6434 50.9141 96.1555 50.302 96.5949 49.6361C96.8006 49.291 96.9232 48.9006 96.9527 48.4972C96.9678 48.0812 96.9072 47.6659 96.7738 47.2727C96.434 46.4902 96.1897 45.6676 96.0464 44.8236C96.0319 44.4032 96.1093 43.9848 96.273 43.5991C96.4523 43.2304 96.6681 42.8816 96.9169 42.5582C97.4309 41.9812 97.8939 41.3583 98.3002 40.6969C98.4676 40.3745 98.569 40.0203 98.5983 39.6561C98.6062 39.2985 98.5538 38.9422 98.4433 38.603C98.2286 37.9172 97.8828 37.2927 97.6443 36.6315C97.3613 35.9905 97.3314 35.2618 97.5609 34.5987C97.8232 33.9742 98.2763 33.5211 98.5029 32.9823C98.6128 32.7254 98.6636 32.4459 98.6511 32.1655C98.6387 31.8852 98.5635 31.6116 98.4313 31.3659C98.1929 30.8761 97.8828 30.4598 97.6443 30.019C97.3867 29.6136 97.2423 29.1435 97.2269 28.6597C97.2476 28.2406 97.3321 27.8274 97.4774 27.4352C97.5892 27.1151 97.6613 26.7819 97.692 26.4433C97.701 26.208 97.6547 25.9739 97.5572 25.7608C97.4597 25.5477 97.3137 25.3618 97.1316 25.2188C96.9837 25.1592 96.8249 25.1341 96.6665 25.1453Z" fill="#455A64"/>
<path d="M24.9512 37.3416C24.77 37.3319 24.5902 37.3031 24.4146 37.2559C23.9055 37.1265 23.427 36.8933 23.0075 36.5702C22.3373 36.0543 21.8647 35.3132 21.6719 34.4762C21.5507 33.9186 21.552 33.3401 21.6757 32.783C21.7995 32.2259 22.0426 31.7042 22.3874 31.2557C22.8186 30.7616 23.2981 30.3144 23.8184 29.9209C24.3789 29.5067 24.8398 28.9664 25.1659 28.3413C25.4404 27.6421 25.4404 26.8608 25.1659 26.1616C24.9393 25.4146 24.5815 24.6677 24.3669 23.8472C24.1511 22.9746 24.1085 22.0663 24.2417 21.1764C24.3749 20.2865 24.681 19.4333 25.142 18.6674C25.6582 17.8315 26.3423 17.1184 27.1484 16.5756C27.9545 16.0329 28.8641 15.6731 29.8165 15.5204L29.745 15.6796C29.4533 15.2198 29.2734 14.6949 29.2203 14.1489C29.1838 13.5994 29.2444 13.0476 29.3991 12.5202C29.5643 11.9831 29.8229 11.4811 30.1623 11.0386C30.5042 10.5983 30.9058 10.2107 31.3548 9.88749C32.7388 9.00359 34.3007 8.455 35.922 8.28334C37.4447 8.06257 38.9902 8.06257 40.513 8.28334L40.4057 8.36905C40.4838 7.47708 40.7986 6.62418 41.3158 5.90308C41.833 5.18199 42.5328 4.62029 43.3391 4.2791C44.0951 3.96732 44.9138 3.84963 45.7241 3.93623C46.4882 4.05917 47.2312 4.29423 47.9302 4.63421C48.2623 4.77735 48.611 4.87612 48.9676 4.9281C49.3059 5.00005 49.6549 5.00005 49.9931 4.9281C50.6387 4.74159 51.2595 4.47427 51.8415 4.13216C52.3932 3.81811 52.9825 3.57935 53.5944 3.42192C54.1652 3.28947 54.7512 3.23999 55.3354 3.27497C56.1963 3.32318 57.036 3.56806 57.7931 3.99174C58.5502 4.41542 59.2057 5.00723 59.7118 5.72404C59.9851 6.10081 60.2095 6.51243 60.3796 6.94858C60.4359 7.09659 60.4837 7.24789 60.5226 7.40168C60.5226 7.40168 60.5227 7.25473 60.3438 6.96084C60.1662 6.52598 59.9379 6.11481 59.6641 5.7363C59.2269 5.14805 58.6896 4.64603 58.0781 4.2546C57.2485 3.72526 56.2994 3.42573 55.3235 3.38519C54.7551 3.3509 54.1849 3.40038 53.6302 3.53213C53.0321 3.69736 52.4556 3.93581 51.913 4.24236C51.3201 4.59417 50.6873 4.86971 50.0289 5.0628C49.6745 5.15486 49.3068 5.17976 48.9438 5.13627C48.5717 5.07756 48.2076 4.97484 47.8586 4.83014C47.1683 4.5028 46.4384 4.27216 45.6883 4.1444C44.878 4.06025 44.06 4.17786 43.3034 4.48727C42.5305 4.81772 41.8601 5.35835 41.3642 6.05098C40.8683 6.7436 40.5658 7.56199 40.4891 8.41804V8.52825H40.4534C38.9465 8.30769 37.4169 8.30769 35.91 8.52825C34.3226 8.69398 32.7931 9.2301 31.4383 10.0957C30.9855 10.3995 30.583 10.7757 30.2458 11.21C29.9185 11.6277 29.6716 12.1056 29.5184 12.6182C29.3644 13.1163 29.3037 13.6398 29.3395 14.1611C29.3899 14.6717 29.5574 15.1627 29.8284 15.5938L29.9119 15.7285H29.7569C28.8334 15.8804 27.9515 16.2304 27.1687 16.7558C26.3859 17.2811 25.7197 17.9701 25.2136 18.7776C24.7676 19.5226 24.4713 20.3517 24.3423 21.216C24.2133 22.0804 24.2541 22.9626 24.4623 23.8105C24.6531 24.6187 25.0228 25.3534 25.2493 26.1249C25.5301 26.8652 25.5301 27.6867 25.2493 28.427C24.9092 29.0671 24.4322 29.6198 23.8541 30.0434C23.3385 30.4289 22.863 30.868 22.4351 31.3536C22.0954 31.7833 21.8546 32.2862 21.7307 32.8247C21.6068 33.3633 21.603 33.9237 21.7196 34.464C21.8921 35.2841 22.3447 36.0139 22.9956 36.5212C23.403 36.8479 23.8689 37.0892 24.3669 37.2314C24.7127 37.3172 24.9512 37.3294 24.9512 37.3416Z" fill="#263238"/>
<path d="M99.2899 20.5532C99.2927 20.5083 99.2927 20.4634 99.2899 20.4185V20.0267C99.2899 19.6715 99.2899 19.1817 99.2184 18.545C99.1468 17.9082 99.1349 17.1 99.0038 16.1938C98.8713 15.1652 98.615 14.1575 98.2406 13.1937C97.7905 12.0157 97.0992 10.9508 96.2134 10.0712C95.7113 9.59533 95.1399 9.20285 94.52 8.90785C93.8403 8.62129 93.1432 8.37997 92.4332 8.18537C91.6738 7.97117 90.9614 7.60952 90.3345 7.12001C89.7074 6.58805 89.1502 5.97475 88.6769 5.29546C88.1761 4.63421 87.711 3.92398 87.1506 3.28722C86.5936 2.62428 85.9226 2.07221 85.1711 1.65858C83.6516 0.893957 81.9959 0.456406 80.3058 0.372809C78.7178 0.256536 77.1239 0.256536 75.5359 0.372809C72.8545 0.533735 70.2164 1.14171 67.7252 2.17288C66.0564 2.83845 64.4992 3.7681 63.1103 4.92809L62.4664 5.50363L62.0371 5.9567L61.7628 6.2261L61.6674 6.32407C61.6674 6.32407 61.6674 6.32407 61.7509 6.21386L62.0013 5.91997L62.4306 5.45464C62.5976 5.2832 62.8122 5.08728 63.0507 4.86686C64.4161 3.64177 65.9668 2.65328 67.6417 1.94022C70.1431 0.880195 72.7989 0.255304 75.5001 0.0911699C77.0879 -0.03039 78.6823 -0.03039 80.27 0.0911699C81.9925 0.181444 83.6796 0.627048 85.2307 1.40142C86.0006 1.8286 86.6878 2.39723 87.2579 3.07905C87.8303 3.72805 88.2953 4.43828 88.7843 5.09953C89.2525 5.76058 89.7971 6.36091 90.406 6.88736C91.0127 7.36828 91.7055 7.72194 92.4452 7.92821C93.1615 8.13252 93.8661 8.37781 94.5558 8.66294C95.192 8.974 95.7757 9.38738 96.2849 9.88748C97.1847 10.784 97.8845 11.8702 98.336 13.0713C98.7027 14.0528 98.9509 15.0768 99.0753 16.1204C99.1945 17.0388 99.2303 17.8225 99.2542 18.4715C99.278 19.1205 99.2542 19.6226 99.2542 19.9654V20.3573C99.3019 20.5042 99.3019 20.5532 99.2899 20.5532Z" fill="#263238"/>
<path d="M67.6536 47.1992C67.7129 46.7332 67.8954 46.2927 68.1813 45.9257C68.4672 45.5587 68.8457 45.2792 69.2754 45.1175C69.7115 44.9665 70.1819 44.9547 70.6247 45.0837C71.0675 45.2126 71.4618 45.4763 71.7557 45.84C72.0188 46.1911 72.1614 46.6216 72.1614 47.0645C72.1614 47.5075 72.0188 47.938 71.7557 48.2891C71.5017 48.6563 71.1436 48.9342 70.7302 49.085C70.1934 49.2802 69.6119 49.3058 69.0607 49.1585C68.5898 49.0697 68.1662 48.8087 67.8683 48.4238C67.6532 48.0563 67.5768 47.6206 67.6536 47.1992Z" fill="#FF9A6C"/>
<path d="M68.7388 43.9173C68.9892 43.9173 68.7388 45.6439 70.0028 47.0766C71.2668 48.5093 73.1032 48.5951 73.0794 48.8277C73.0555 49.0604 72.6382 49.0971 71.8869 49.0114C70.8993 48.8751 69.9888 48.3902 69.3112 47.6399C68.9896 47.2878 68.7388 46.874 68.5731 46.4223C68.4073 45.9705 68.33 45.4896 68.3453 45.0072C68.3692 44.2847 68.6196 43.8928 68.7388 43.9173Z" fill="#263238"/>
<path d="M52.2827 50.138C51.7632 48.3027 50.9578 46.5658 49.8977 44.9949L49.4565 44.7622C48.3897 45.9704 47.5778 47.3921 47.0716 48.9379C46.8482 49.7168 46.8621 50.5471 47.1115 51.3176C47.3609 52.088 47.8338 52.7618 48.4668 53.2483C49.1065 53.646 49.8628 53.7979 50.6013 53.6769C51.1646 53.6117 51.6837 53.3321 52.0561 52.8932C52.2965 52.4823 52.4419 52.0202 52.4812 51.5426C52.5205 51.065 52.4526 50.5844 52.2827 50.138Z" fill="#E0E0E0"/>
<path d="M56.194 12.863C49.7546 16.7081 48.741 18.6183 47.1789 26.0513C46.3811 29.5301 46.7465 33.1835 48.2163 36.4231C49.2061 36.1537 50.2078 35.9211 51.2214 35.7007C51.2214 35.7007 48.6814 28.1085 52.6404 21.6307C57.148 14.2835 65.7576 14.4182 65.7576 14.4182C67.0693 12.8875 67.761 11.6752 69.4423 11.0017C69.4543 11.0507 61.8224 9.48329 56.194 12.863Z" fill="#F06449"/>
<path d="M88.2238 18.6184C88.2238 18.6184 90.3703 20.3206 91.038 26.8596C92.159 37.8804 86.6378 43.697 86.6378 43.697L85.4454 21.5328L88.2238 18.6184Z" fill="#F06449"/>
<path d="M65.2091 14.9694C66.8189 12.5203 69.0965 10.4141 71.9704 10.4509C73.4018 10.4841 74.7927 10.9456 75.9725 11.7787C77.1523 12.6117 78.0698 13.7802 78.6125 15.1408C79.9818 14.4268 81.5385 14.1842 83.0524 14.4488C84.5664 14.7135 85.9572 15.4713 87.0194 16.6103C88.0137 17.7813 88.6021 19.2576 88.6927 20.8085C88.7833 22.3593 88.371 23.8973 87.5202 25.182C88.9356 25.7809 90.0847 26.8972 90.7454 28.3152C91.4061 29.7332 91.5316 31.3524 91.0977 32.8599C90.7995 33.7661 90.2868 34.5988 89.9052 35.4804C89.4773 36.3436 89.3836 37.3411 89.6428 38.2724C89.7934 38.7342 90.1032 39.1236 90.5139 39.3672C90.9247 39.6108 91.4079 39.6918 91.8728 39.5949C91.1765 40.3707 90.2403 40.8752 89.223 41.0225C88.2056 41.1698 87.17 40.951 86.292 40.4031L85.9819 34.4273C85.9819 34.4273 84.3363 30.3374 82.8338 29.2475C81.3313 28.1577 76.7522 29.1006 74.9993 25.1576C73.2463 21.2146 75.1424 20.3819 72.1135 20.039C69.0846 19.6961 62.5976 18.8879 65.2091 14.9694Z" fill="#263238"/>
<path d="M65.2091 14.9692C65.0875 15.1376 64.976 15.3135 64.8752 15.4958C64.715 15.7574 64.6118 16.0516 64.5727 16.3581C64.5335 16.6646 64.5595 16.9761 64.6486 17.2714C64.8719 17.7168 65.1836 18.1093 65.5635 18.4235C65.9435 18.7378 66.3833 18.9668 66.8547 19.0959C68.0689 19.5472 69.3291 19.8553 70.611 20.0143C71.3265 20.1245 72.0897 20.1858 72.8409 20.3327C73.0149 20.3404 73.1851 20.3872 73.3397 20.4697C73.4942 20.5522 73.6292 20.6684 73.7353 20.8103C73.8609 21.2065 73.9331 21.6185 73.9499 22.0348C74.0457 22.9465 74.2623 23.8406 74.5939 24.6921C74.9084 25.638 75.4594 26.4826 76.1918 27.1411C77.0067 27.8154 77.9612 28.2887 78.9821 28.5249C80.0077 28.7943 81.0928 28.8922 82.0945 29.1739C82.5679 29.3407 82.9828 29.6474 83.287 30.0555C83.6333 30.4856 83.9444 30.9443 84.2171 31.427C84.7944 32.431 85.3044 33.4743 85.7435 34.5496V34.4639C85.8389 36.3619 85.9462 38.3702 86.0535 40.4396V40.5743L86.1727 40.6478C87.1098 41.232 88.2142 41.4668 89.3001 41.313C90.386 41.1591 91.3872 40.6258 92.1351 39.8029L92.7671 39.0559L91.8489 39.362C91.5552 39.4274 91.2494 39.4045 90.9681 39.2959C90.6868 39.1873 90.4419 38.9977 90.2629 38.7498C90.0744 38.4801 89.9413 38.1738 89.8716 37.8496C89.8019 37.5255 89.7971 37.1901 89.8575 36.864C90.1059 35.7578 90.5075 34.6938 91.05 33.7047C91.5613 32.6216 91.7401 31.4045 91.5627 30.2147C91.4081 29.0599 90.9611 27.967 90.2664 27.0452C89.5717 26.1234 88.6535 25.4048 87.6037 24.9615L87.723 25.3533C88.6665 23.9284 89.084 22.2047 88.9004 20.492C88.7167 18.7793 87.944 17.19 86.7213 16.0101C85.6041 15.024 84.2274 14.4 82.7651 14.2169C81.3027 14.0338 79.8203 14.2999 78.5052 14.9815L78.7913 15.0917C78.3307 13.9451 77.608 12.9292 76.6844 12.13C75.7608 11.3307 74.6633 10.7715 73.4849 10.4997C72.5128 10.2604 71.4995 10.2604 70.5275 10.4997C69.7171 10.7043 68.9521 11.0659 68.2737 11.565C67.3592 12.2486 66.5545 13.0749 65.8888 14.0141C65.6582 14.3325 65.4913 14.5774 65.388 14.7488C65.2806 14.9202 65.2329 15.0182 65.2329 15.0182C65.4984 14.7211 65.7491 14.4105 65.9842 14.0875C66.6954 13.2036 67.522 12.4248 68.4407 11.7732C69.1632 11.2616 69.9836 10.914 70.8472 10.7535C71.7108 10.593 72.5978 10.6234 73.4491 10.8425C74.5641 11.1185 75.5991 11.6634 76.468 12.4322C77.337 13.201 78.0149 14.1715 78.4455 15.2631L78.529 15.4835L78.7436 15.3733C79.9805 14.7454 81.3705 14.5069 82.739 14.6878C84.1074 14.8686 85.3933 15.4607 86.4351 16.3897C87.5627 17.4954 88.2715 18.9762 88.4353 20.5683C88.5991 22.1605 88.2072 23.7607 87.3294 25.0839L87.1506 25.3533L87.4487 25.4758C88.4032 25.8928 89.2353 26.5583 89.8627 27.4066C90.49 28.2549 90.8911 29.2565 91.0261 30.3127C91.1783 31.403 91.0123 32.5152 90.5491 33.5087C89.9933 34.5275 89.5874 35.6252 89.3447 36.766C89.2661 37.1659 89.2722 37.5785 89.3628 37.9758C89.4533 38.373 89.6261 38.7456 89.8694 39.0681C90.1147 39.4018 90.45 39.654 90.8338 39.7933C91.2176 39.9327 91.6328 39.953 92.0278 39.8519L91.7416 39.4233C91.089 40.1481 90.2121 40.6185 89.26 40.7547C88.3079 40.8908 87.3392 40.6843 86.5186 40.1702L86.6378 40.3784C86.5305 38.3212 86.4232 36.3129 86.3158 34.4149V34.3169C85.8536 33.2243 85.328 32.1611 84.7418 31.1331C84.4515 30.628 84.1204 30.1487 83.752 29.7004C83.5621 29.4749 83.3503 29.2698 83.12 29.0881C82.8752 28.9051 82.6007 28.7683 82.3091 28.684C81.2121 28.3779 80.1508 28.2922 79.161 28.035C78.2104 27.8384 77.3168 27.4194 76.5495 26.8105C75.8544 26.2 75.3314 25.4092 75.0351 24.5206C74.7074 23.7052 74.4869 22.8487 74.3792 21.9736C74.3587 21.5255 74.2702 21.0834 74.1169 20.6633C73.9799 20.4685 73.801 20.3087 73.5943 20.1961C73.3875 20.0836 73.1583 20.0214 72.9244 20.0143C72.1254 19.8674 71.3861 19.8306 70.6706 19.7204C69.4082 19.5846 68.1644 19.3053 66.962 18.8877C66.5124 18.7796 66.0895 18.5769 65.72 18.2923C65.3505 18.0078 65.0426 17.6476 64.8156 17.2346C64.7276 16.9591 64.6959 16.6679 64.7226 16.3792C64.7493 16.0905 64.8337 15.8106 64.9706 15.557C65.0718 15.3711 65.1519 15.1739 65.2091 14.9692Z" fill="#455A64"/>
<path d="M39.869 72.9145L52.4735 68.0163C53.5863 70.284 55.2903 72.1899 57.3957 73.5218C59.5012 74.8536 61.9253 75.559 64.3982 75.5595C69.7643 75.5595 72.662 72.5471 75.2736 67.7347L77.7897 68.0163L92.9221 70.3184L92.5286 145.113H39.4994L33.537 75.3146L39.869 72.9145Z" fill="#F06449"/>
<path d="M92.0516 70.3185C92.0516 70.3185 96.8215 69.596 104.298 78.3514C107.697 82.3067 119.872 98.0788 119.872 98.0788L99.6 108.622L94.6393 104.042L92.6002 126.745V93.5969L92.0516 70.3185Z" fill="#F06449"/>
<path d="M34.6937 75.7432L33.5012 75.3146C33.5012 75.3146 25.5117 79.2821 21.338 93.3031C17.1644 107.324 14.684 116.496 14.684 116.496L34.3837 120.843L39.1536 96.0705L34.6937 75.7432Z" fill="#F06449"/>
<path d="M34.5745 86.0784C34.6653 86.426 34.7134 86.7838 34.7176 87.1437C34.7772 87.9152 34.8487 88.8948 34.9322 90.0459C35.123 92.6051 35.3615 95.9481 35.6358 99.6463C35.91 103.344 36.2201 106.675 36.4228 109.234C36.5182 110.385 36.5898 111.365 36.6613 112.137C36.6901 112.495 36.6901 112.856 36.6613 113.214C36.549 112.874 36.4808 112.52 36.4586 112.161C36.3512 111.475 36.232 110.483 36.0889 109.259C35.8027 106.81 35.4569 103.43 35.1707 99.683C34.8845 95.9359 34.6937 92.5317 34.5983 90.0704C34.5983 88.8458 34.5268 87.8417 34.5148 87.1437C34.5045 86.7875 34.5244 86.431 34.5745 86.0784Z" fill="#263238"/>
<path d="M42.5402 71.8492C42.5402 71.8492 41.4431 90.3765 40.3937 95.9849C39.3801 101.397 36.6851 114.059 36.6851 114.059V149.571C36.6851 149.571 26.2152 175.213 24.2357 190.091C22.2562 204.969 24.2357 291.666 24.2357 291.666L119.562 291.85C119.562 291.85 113.135 229.398 112.085 217.337C111.036 205.275 107.649 187.176 105.372 175.923C104.032 169.289 102.054 162.808 99.4688 156.575L95.5814 147.207L94.0311 107.067C94.0311 107.067 88.8081 76.9066 86.1012 69.2532L83.0008 68.7879L85.3142 97.5401L45.7718 99.0217L46.5946 70.1961L42.5402 71.8492Z" fill="#E0E0E0"/>
<path d="M42.5402 71.8492L43.5418 71.4206L46.5827 70.1961H46.6542V70.2695C46.523 75.4861 46.2726 85.2946 45.9149 99.0952L45.7718 98.9482L85.3261 97.4176L85.1353 97.638C84.4198 88.9193 83.6328 79.2699 82.7503 68.8736V68.5797H83.0365L86.137 69.045H86.28V69.1797C87.2221 72.0206 87.9018 74.984 88.5934 78.0086C89.2851 81.0332 89.929 84.1313 90.561 87.3151C91.825 93.6582 93.0533 100.234 94.2458 107.042C94.7466 119.79 95.2713 133.211 95.8198 147.183V147.085C96.8215 149.534 97.847 151.983 98.8725 154.432C99.8981 156.881 100.936 159.416 101.83 162C103.66 167.24 105.083 172.62 106.087 178.09C108.257 189.111 110.392 200.524 111.847 212.292C114.232 235.864 116.7 260.502 119.252 285.825C119.455 287.821 119.657 289.817 119.848 291.789V292.144H119.502L24.1761 291.936H23.8899V291.642C23.2937 263.098 22.9121 236.378 23.091 212.132C23.1864 206.071 23.2221 200.169 23.5679 194.426C23.6395 192.981 23.8184 191.56 23.9257 190.14C24.033 188.719 24.3431 187.335 24.6412 185.976C25.1778 183.233 25.8336 180.576 26.5849 177.98C29.3633 168.3 32.6555 158.783 36.4466 149.473V149.546C36.4466 135.746 36.4466 124.002 36.4466 114.035C37.8538 107.275 39.0979 101.295 40.1791 96.0951C40.6441 93.499 40.8588 91.0622 41.0854 88.8458C41.3119 86.6294 41.4669 84.6089 41.622 82.8088C41.8962 79.2209 42.099 76.4902 42.2421 74.6411C42.3852 72.7921 42.4567 71.8615 42.4567 71.8615C42.4567 71.8615 42.4567 72.8043 42.3255 74.6411C42.1944 76.478 42.0513 79.2209 41.777 82.8211C41.6458 84.6211 41.4908 86.6416 41.2881 88.858C41.0854 91.0745 40.8588 93.5235 40.4057 96.1441C39.3444 101.336 38.128 107.336 36.7448 114.108C36.7448 124.113 36.7448 135.856 36.8044 149.62V149.705C33.0489 159.009 29.7808 168.513 27.0142 178.176C26.3225 180.772 25.619 183.429 25.0943 186.148C24.7962 187.507 24.6173 188.891 24.3907 190.287C24.1642 191.683 24.1046 193.091 24.0449 194.523C23.711 200.242 23.6753 206.157 23.5918 212.218C23.4368 236.452 23.8541 263.171 24.4623 291.703L24.1642 291.409L119.49 291.58L119.192 291.936L118.584 285.96C116.044 260.649 113.564 236.011 111.191 212.487C109.748 200.756 107.613 189.368 105.467 178.335C104.466 172.892 103.054 167.537 101.246 162.318C100.363 159.747 99.3376 157.261 98.3002 154.787C97.2627 152.314 96.2611 149.889 95.2475 147.44V147.33C94.7108 133.346 94.1981 119.925 93.7092 107.189C92.5167 100.405 91.3242 93.8174 90.0483 87.4743C89.4123 84.3068 88.7644 81.2088 88.1045 78.1801C87.4129 75.1555 86.7332 72.1921 85.815 69.4001L85.9939 69.5593L82.8934 69.0817L83.1558 68.8368C83.9786 79.1842 84.7537 88.8825 85.4453 97.6012V97.8094H85.2426L45.7837 99.2176H45.6406V99.0584C46.0818 85.2701 46.3919 75.4493 46.5588 70.2451L43.518 71.4696C42.8979 71.7267 42.5402 71.8492 42.5402 71.8492Z" fill="#263238"/>
<path d="M95.7363 198.124L95.3071 198.405L94.1146 199.042C93.0891 199.593 91.5746 200.352 89.7024 201.246C85.9342 203.046 80.6397 205.336 74.6415 207.467C68.6434 209.598 63.0865 211.141 59.044 212.108C57.0168 212.598 55.3712 212.953 54.2741 213.173L52.9505 213.43C52.7958 213.445 52.6401 213.445 52.4854 213.43C52.6314 213.369 52.7833 213.324 52.9385 213.296L54.2383 212.977C55.3712 212.72 57.0168 212.316 59.0082 211.753C63.0388 210.724 68.548 209.132 74.5104 207.014C80.4727 204.895 85.7912 202.642 89.5832 200.891C91.4673 200.022 92.9937 199.299 94.0431 198.797L95.2355 198.222C95.3986 198.171 95.5665 198.138 95.7363 198.124Z" fill="#263238"/>
<path d="M85.8508 224.573C85.8508 224.573 85.7434 224.635 85.5288 224.696L84.5987 224.965C83.7878 225.198 82.6072 225.504 81.1405 225.872C78.207 226.606 74.1526 227.549 69.6332 228.468C65.1137 229.386 61.0116 230.108 58.0304 230.574C56.5398 230.806 55.3235 230.99 54.453 231.088L53.4871 231.211C53.3765 231.229 53.2637 231.229 53.1532 231.211L53.4752 231.125L54.4291 230.941L57.9469 230.304C60.9162 229.766 65.0183 229.019 69.5258 228.1C74.0334 227.182 78.0997 226.276 81.0451 225.651L84.5271 224.867L85.4811 224.659L85.8508 224.573Z" fill="#263238"/>
<path d="M85.493 121.933C85.4882 121.888 85.4882 121.843 85.493 121.798V121.418C85.493 121.063 85.493 120.573 85.493 119.961C85.493 118.675 85.493 116.839 85.493 114.537L85.5884 114.634L49.5519 114.72L49.7308 114.537V121.884L49.5519 121.7L75.1901 121.786H82.7981H84.861H82.8457H75.2736L49.5162 121.872H49.3373V121.688C49.3373 120.463 49.3373 119.239 49.3373 118.014V114.279L49.5281 114.096L85.5646 114.181H85.6719V114.279C85.6719 116.606 85.6719 118.467 85.6719 119.765C85.6719 120.365 85.6719 120.843 85.6719 121.198V121.553C85.6754 121.627 85.6608 121.7 85.6295 121.766C85.5983 121.833 85.5514 121.89 85.493 121.933Z" fill="#263238"/>
<path d="M77.1457 146.35C77.8021 146.304 78.4507 146.176 79.0775 145.971C79.83 145.706 80.5233 145.29 81.1167 144.746C81.913 144.044 82.5172 143.141 82.8696 142.126C83.2131 140.839 83.3263 139.499 83.2035 138.17C83.2035 136.701 83.2035 135.121 83.2035 133.431C83.2035 130.052 83.2035 126.243 83.2035 122.104L83.3704 122.264H51.5553L51.7341 122.092C51.7341 128.741 51.7341 135.06 51.7341 140.705C51.8838 142.063 52.4715 143.33 53.4036 144.305C54.2986 145.221 55.4487 145.829 56.6948 146.044C57.2904 146.138 57.8936 146.171 58.4955 146.142H63.5754H73.5206H76.2037H76.8953H77.1338H76.2275H73.5445H63.5992H58.5193C57.9016 146.17 57.2827 146.137 56.671 146.044C55.3775 145.851 54.1755 145.246 53.2343 144.315C52.293 143.383 51.6599 142.172 51.4241 140.852C51.3406 135.133 51.4241 128.876 51.4241 122.202V122.019H83.5374V122.19C83.5374 126.329 83.5374 130.137 83.5374 133.517C83.5374 135.207 83.5374 136.787 83.5374 138.256C83.5374 138.991 83.5374 139.689 83.5374 140.362C83.5034 141.243 83.2882 142.107 82.9059 142.896C82.5236 143.685 81.9829 144.383 81.3194 144.942C80.7082 145.472 79.9981 145.868 79.2325 146.105C78.7598 146.256 78.2716 146.351 77.7777 146.387H77.265L77.1457 146.35Z" fill="#263238"/>
<g opacity="0.3">
<path d="M79.1491 146.02C75.6663 147.777 71.8453 148.715 67.9649 148.763C64.0844 148.812 60.2423 147.971 56.7187 146.301L79.1491 146.02Z" fill="black"/>
</g>
<path d="M93.101 83.5803C93.4508 84.5698 93.6909 85.5968 93.8165 86.6416C94.1504 88.5519 94.5201 91.2091 94.7585 94.1603C94.997 97.1114 95.0328 99.8054 94.997 101.74C95.0409 102.791 94.9649 103.843 94.7704 104.875C94.6083 103.843 94.5364 102.798 94.5558 101.752C94.4843 99.8177 94.365 97.1482 94.1384 94.2093C93.9119 91.2704 93.6018 88.6254 93.3753 86.7028C93.1862 85.6735 93.0943 84.6278 93.101 83.5803Z" fill="#263238"/>
<path d="M8.57856 100.993C8.57856 100.993 0.81557 125.104 0.231259 129.598C-0.746568 136.517 1.48335 139.688 4.90575 140.913C6.83477 141.551 8.87262 141.766 10.8876 141.544C12.9026 141.323 14.85 140.67 16.6039 139.627C20.4079 136.921 25.0108 127.847 26.7995 123.525L28.5525 119.557L19.0127 117.426L8.63819 101.018" fill="#FFBF9D"/>
<path d="M101.854 151.726L118.477 122.116C118.477 122.116 134.432 129.978 134.79 130.272C135.148 130.566 118.095 151.273 106.612 159.82L102.462 157.677L101.854 151.726Z" fill="#FFBF9D"/>
<path d="M81.9752 144.734C81.9752 144.734 88.9631 142.823 89.6667 143.227C90.3702 143.632 95.629 146.399 95.629 146.399C96.3928 147.352 97.2174 148.252 98.0975 149.093C98.9445 149.936 99.987 150.543 101.126 150.856C101.785 150.908 102.448 150.838 103.082 150.648L107.232 159.22C107.232 159.22 105.073 162.024 103.559 162C102.045 161.975 93.6137 158.399 93.6137 158.399L91.5746 157.959C91.5746 157.959 83.9428 159.073 83.3108 156.734L83.2393 156.073L90.7518 154.591L93.6018 154.763L88.5457 153.44C88.5457 153.44 81.3909 153.795 80.7112 153.673C80.0315 153.55 79.1849 152.607 79.3995 152.007L80.8782 151.652C80.8782 151.652 79.1371 150.709 79.0894 149.669L85.7077 147.856C85.7077 147.856 81.379 146.228 81.9752 144.734Z" fill="#FFBF9D"/>
<path d="M80.0315 151.591C80.2396 151.57 80.4441 151.52 80.6397 151.444L82.2734 150.991C83.6686 150.636 85.6003 150.171 87.7349 149.693C87.9892 149.624 88.2483 149.575 88.51 149.546C88.7546 149.503 89.0047 149.503 89.2493 149.546C89.7263 149.681 90.2152 149.84 90.6564 149.999C91.5508 150.305 92.3498 150.612 93.0414 150.893C93.5589 151.114 94.0644 151.364 94.5558 151.64C94.9136 151.836 95.0924 151.959 95.1043 151.946C94.9732 151.78 94.811 151.643 94.6274 151.542C94.1499 151.219 93.6474 150.936 93.1249 150.697C92.4809 150.379 91.682 150.048 90.7399 149.718C90.2868 149.558 89.8217 149.387 89.3089 149.24C89.0353 149.177 88.7539 149.156 88.4742 149.179C88.1968 149.213 87.9219 149.266 87.6514 149.338C85.5169 149.816 83.5851 150.305 82.2018 150.734C81.5221 150.942 81.0093 151.126 80.592 151.273C80.393 151.355 80.2047 151.462 80.0315 151.591Z" fill="#FF9A6C"/>
<path d="M85.4811 148.199C85.4811 148.199 86.0058 147.954 86.8882 147.685C88.0457 147.32 89.2676 147.224 90.4657 147.403C91.6449 147.586 92.7717 148.029 93.7688 148.701C94.532 149.216 94.9613 149.644 94.9613 149.607C94.6801 149.172 94.3148 148.801 93.888 148.518C92.8893 147.758 91.7224 147.265 90.4922 147.084C89.2621 146.902 88.0073 147.037 86.8405 147.477C86.3443 147.62 85.8817 147.866 85.4811 148.199Z" fill="#FF9A6C"/>
<path d="M34.0378 71.3227C31.8199 72.5472 31.4144 75.829 31.4144 75.829L29.1845 78.1678L28.9818 75.2902L31.9033 66.6082C31.9033 66.6082 34.1452 60.412 32.9408 60.4855C31.7364 60.559 30.5558 62.0529 29.578 64.7224L27.3362 70.7839C27.3362 70.7839 26.895 71.8125 26.9307 69.6818C26.9665 67.5511 29.9119 60.2039 30.1027 59.0895C30.2935 57.9752 31.5575 55.4894 30.1027 54.8159C28.6479 54.1424 27.6581 57.6813 27.6581 57.6813L23.1744 68.4573C23.1744 68.4573 24.2238 63.6815 24.3669 62.8489C24.51 62.0162 25.4163 59.6038 25.6548 58.1344C25.8933 56.6649 25.5475 55.6853 24.9035 55.3547C24.6035 55.2 24.2577 55.1671 23.9351 55.2624C23.6125 55.3577 23.3366 55.5743 23.1625 55.869L20.229 65.6653C20.229 65.6653 19.0962 70.2206 18.8815 70.4288C18.6669 70.6369 18.3211 67.9185 18.3211 67.9185L18.8338 64.502C18.8338 64.502 20.2171 60.0447 19.2273 59.3099C18.2376 58.5752 17.7487 59.3099 17.7487 59.3099L15.4114 67.4899L13.8493 77.4821L13.265 85.3926L12.8715 86.6172L11.0589 92.5317L8.5905 100.944L1.76955 124.211L16.6039 131.325L21.6004 102.622L23.9853 89.7887C23.9853 89.7887 30.3293 86.2988 31.4621 84.2905L36.6613 71.7757C36.6613 71.7757 36.2797 70.1349 34.0378 71.3227Z" fill="#FFBF9D"/>
<path d="M18.3091 81.2168C18.9754 80.833 19.6131 80.3992 20.2171 79.9188C21.6544 78.8023 23.4408 78.2663 25.2374 78.4126C26.0976 78.5171 26.8992 78.9136 27.515 79.5392L27.7178 79.7474L27.9324 79.5147C28.8983 78.4861 29.9 77.6044 30.5081 76.9554C31.1163 76.3064 31.474 75.8778 31.4144 75.8288C31.0134 76.0896 30.6345 76.3845 30.2816 76.7105C29.3155 77.4779 28.3882 78.2953 27.5031 79.1596H27.9205C27.2262 78.4273 26.3089 77.9606 25.3209 77.8371C24.2541 77.6855 23.1673 77.8292 22.1728 78.2534C21.3884 78.5943 20.6508 79.0389 19.9786 79.5759C19.3295 80.014 18.7637 80.5701 18.3091 81.2168Z" fill="#FF9A6C"/>
<path d="M23.9495 90.0214C23.91 90.5987 23.8263 91.1719 23.6991 91.7357C23.4606 92.9602 23.1744 94.4787 22.8167 96.3277C22.0774 100.21 21.0876 105.585 20.1336 111.536C19.1797 117.488 18.4284 122.912 17.9156 126.831C17.6652 128.705 17.4625 130.26 17.2955 131.472C17.2502 132.048 17.1504 132.618 16.9974 133.174C16.9448 132.6 16.9448 132.022 16.9974 131.448C17.069 130.345 17.2121 128.754 17.4148 126.782C17.8202 122.839 18.4999 117.402 19.4539 111.439C20.4079 105.475 21.4811 100.099 22.3278 96.242C22.7571 94.3072 23.1267 92.7521 23.401 91.6745C23.5307 91.1063 23.7144 90.5526 23.9495 90.0214Z" fill="#FF9A6C"/>
</svg>
