<svg width="27" height="22" viewBox="0 0 27 22" fill="none" xmlns="http://www.w3.org/2000/svg">
<path d="M13.4423 0.0601671L12.9194 13.5011C12.9194 13.5011 26.8352 18.5309 26.9881 21.0235L0.0716558 20.9759L0 0L13.4423 0.0601671Z" fill="#455A64"/>
<path d="M4.59829 12.3562C4.07736 12.493 3.7162 13.0605 3.83627 13.5709C3.95633 14.0812 4.54793 14.4422 5.07176 14.3141C5.59559 14.1861 6.0497 13.5175 5.87154 13.0237C5.69338 12.5298 4.97494 12.1427 4.49856 12.3891" fill="#E0E0E0"/>
<path d="M0.0716741 20.9768L0.150096 18.8626L25.9289 19.699C25.9289 19.699 27.1256 20.2064 26.9891 21.0243L0.0716741 20.9768Z" fill="#263238"/>
<path d="M13.356 13.3701C13.3512 13.4972 12.6938 13.5544 12.047 13.9629C11.3886 14.3549 11.0545 14.9069 10.9335 14.8555C10.8124 14.8303 11.01 14.0696 11.803 13.5874C12.5902 13.0994 13.3851 13.2527 13.356 13.3701Z" fill="white"/>
<path d="M16.1775 14.5062C16.2075 14.6294 15.6382 14.8458 15.1899 15.3833C14.7261 15.9082 14.6128 16.4913 14.4811 16.4855C14.3572 16.5059 14.2681 15.7588 14.8375 15.1C15.401 14.4373 16.1746 14.3849 16.1775 14.5062Z" fill="white"/>
<path d="M17.7743 17.7857C17.6552 17.8128 17.4732 17.1754 17.812 16.4787C18.1461 15.7792 18.7658 15.5046 18.821 15.6113C18.8955 15.7161 18.4956 16.0897 18.2265 16.667C17.9437 17.2355 17.905 17.7731 17.7743 17.7857Z" fill="white"/>
<path d="M13.1246 10.2935C13.0694 10.4099 12.4662 10.2324 11.7236 10.2809C10.98 10.3139 10.401 10.5545 10.3322 10.4448C10.2567 10.3527 10.8221 9.88209 11.6974 9.83746C12.5737 9.78701 13.1895 10.1935 13.1246 10.2935Z" fill="white"/>
</svg>
