<svg width="18" height="14" viewBox="0 0 18 14" fill="none" xmlns="http://www.w3.org/2000/svg">
<path d="M17.9035 0.332714C17.9747 0.647555 18.003 0.971036 17.9875 1.29387C18.0175 2.20229 17.9935 3.11174 17.9155 4.01714C17.8111 5.43523 17.5862 6.84124 17.2435 8.21914C16.8406 10.0638 15.9667 11.7651 14.7115 13.1482L14.6396 13.2221H14.5315H7.94361H7.64361V12.914L7.94361 13.2221H3.55165L3.46765 13.1358C2.64265 12.2861 1.99008 11.2767 1.5477 10.1661C0.895531 8.55493 0.463435 6.8589 0.263704 5.12618C0.0510726 3.52584 -0.0331995 1.91026 0.0117167 0.295748V0H0.299702H7.4036L13.0315 0.0739323L16.6315 0.172515C17.0328 0.164925 17.434 0.189643 17.8315 0.246447C17.3774 0.299743 16.9206 0.324431 16.4635 0.320379L12.8636 0.418962L7.3676 0.505229H0.263704L0.551689 0.221816C0.43529 3.48964 0.953369 6.74858 2.07569 9.80876C2.49162 10.8363 3.09433 11.7731 3.85165 12.569L3.64767 12.4827H8.20761V12.7908L7.90761 12.4827H14.4955L14.3155 12.5567C15.5133 11.2511 16.3645 9.65142 16.7875 7.91107C17.1583 6.56732 17.4232 5.19508 17.5795 3.80766C17.7115 2.64934 17.7595 1.73747 17.7955 1.10902C17.8119 0.847776 17.848 0.588241 17.9035 0.332714Z" fill="#263238"/>
</svg>
