<svg width="99" height="95" viewBox="0 0 99 95" fill="none" xmlns="http://www.w3.org/2000/svg">
<path fill-rule="evenodd" clip-rule="evenodd" d="M8.19238 47.5003C8.19238 25.6503 26.5034 7.91699 49.1156 7.91699C71.7687 7.91699 90.1207 25.6503 90.1207 47.5003C90.1207 69.3503 71.7687 87.0837 49.1156 87.0837C26.5034 87.0837 8.19238 69.3503 8.19238 47.5003ZM65.4193 31.667H77.5037C73.5712 25.1357 67.3036 20.0691 59.7662 17.5753C62.2241 21.9691 64.1084 26.7191 65.4193 31.667ZM49.1565 15.992C52.5566 20.742 55.2192 26.0066 56.9807 31.667H41.3324C43.0938 26.0066 45.7565 20.742 49.1565 15.992ZM16.3852 47.5003C16.3852 50.2316 16.7949 52.8837 17.4503 55.417H31.2962C30.9684 52.8045 30.7227 50.192 30.7227 47.5003C30.7227 44.8087 30.9684 42.1962 31.2962 39.5837H17.4503C16.7949 42.117 16.3852 44.7691 16.3852 47.5003ZM20.8093 63.3337H32.8938C34.2046 68.2816 36.089 73.0316 38.5468 77.4253C31.0094 74.9316 24.7419 69.9045 20.8093 63.3337ZM20.8093 31.667H32.8938C34.2046 26.7191 36.089 21.9691 38.5468 17.5753C31.0094 20.0691 24.7419 25.0962 20.8093 31.667ZM49.1565 79.0087C45.7565 74.2587 43.0938 68.9941 41.3324 63.3337H56.9807C55.2192 68.9941 52.5566 74.2587 49.1565 79.0087ZM38.9155 47.5003C38.9155 50.192 39.2022 52.8045 39.5709 55.417H58.7421C59.1108 52.8045 59.3976 50.192 59.3976 47.5003C59.3976 44.8087 59.1108 42.1566 58.7421 39.5837H39.5709C39.2022 42.1566 38.9155 44.8087 38.9155 47.5003ZM59.7662 77.4253C62.2241 73.0316 64.1084 68.2816 65.4193 63.3337H77.5037C73.5712 69.8649 67.3036 74.9316 59.7662 77.4253ZM67.5904 47.5003C67.5904 50.192 67.3446 52.8045 67.0169 55.417H80.8628C81.5182 52.8837 81.9278 50.2316 81.9278 47.5003C81.9278 44.7691 81.5182 42.117 80.8628 39.5837H67.0169C67.3446 42.1962 67.5904 44.8087 67.5904 47.5003Z" fill="black"/>
</svg>
