<svg width="40" height="76" viewBox="0 0 40 76" fill="none" xmlns="http://www.w3.org/2000/svg">
<path d="M12.746 3.08412C12.746 3.08412 8.10944 8.41476 7.48474 10.4058C6.86004 12.3969 3.84554 43.0254 3.37653 46.876C2.9085 50.7255 2.56112 56.8771 5.52794 59.2241C8.49476 61.5711 15.2633 63.3671 15.2633 63.3671L21.5755 53.9919L17.26 47.8929L20.69 20.9882L12.746 3.08412Z" fill="#FFBF9D"/>
<path d="M25.6633 57.2536C25.6633 57.2536 27.6658 55.7004 29.1516 55.636C30.6375 55.5717 32.5748 56.1538 32.9621 55.9597C33.3494 55.7657 34.2543 54.9145 34.8352 55.6311C35.4161 56.3478 36.1274 58.9376 33.0263 59.6493H30.8944C30.8944 59.6493 31.1532 61.7857 31.6699 62.6272C32.1866 63.4686 39.4212 72.5952 39.4212 72.5952C39.4212 72.5952 40.3251 73.501 39.8736 74.4078C39.4212 75.3137 37.4838 74.7959 37.4838 74.7959C37.4838 74.7959 36.1274 76.0255 34.5773 75.4433C33.0273 74.8612 32.3812 74.4078 32.3812 74.4078C32.3812 74.4078 30.7017 75.7671 28.8928 74.4078C27.0839 73.0486 21.0529 65.4753 21.0529 65.4753L23.2082 56.9972L25.6633 57.2536Z" fill="#FFBF9D"/>
<path d="M17.26 47.893L25.6632 57.2536L21.5754 65.7951L11.338 62.1133C11.338 62.1133 9.9991 48.0685 17.26 47.893Z" fill="#FFBF9D"/>
<path d="M19.46 0L16.7325 0.0419268C16.7325 0.0419268 9.00362 2.54393 5.53081 13.9141C2.058 25.2842 0 32.7425 0 32.7425L20.3591 38.195L22.3353 16.771L19.46 0Z" fill="#FF725E"/>
</svg>
