<svg width="120" height="118" viewBox="0 0 120 118" fill="none" xmlns="http://www.w3.org/2000/svg">
<path d="M119.154 37.9149H0V118H119.154V37.9149Z" fill="#6F4439"/>
<path d="M59.739 54.5994C26.7412 54.5994 0 54.5207 0 54.4245C0 54.3283 26.7412 54.2496 59.739 54.2496C92.7252 54.2496 119.472 54.3283 119.472 54.4245" fill="#263238"/>
<path d="M119.472 74.0175C119.472 74.1146 92.7252 74.1924 59.739 74.1924C26.7412 74.1924 0 74.1137 0 74.0175C0 73.9213 26.7412 73.8426 59.739 73.8426C92.7252 73.8426 119.472 73.9213 119.472 74.0175Z" fill="#263238"/>
<path d="M119.472 93.6104C119.472 93.7066 92.7252 93.7853 59.739 93.7853C26.7412 93.7853 0 93.7066 0 93.6104C0 93.5142 26.7412 93.4355 59.739 93.4355C92.7252 93.4355 119.472 93.5142 119.472 93.6104Z" fill="#263238"/>
<path d="M119.472 114.034C119.472 114.13 92.7252 114.209 59.739 114.209C26.7412 114.209 0 114.13 0 114.034C0 113.938 26.7412 113.859 59.739 113.859C92.7252 113.859 119.472 113.937 119.472 114.034Z" fill="#263238"/>
<path d="M12.0479 12.9599C12.0479 12.9599 2.39815 16.4834 3.95165 22.2205C5.50515 27.9566 9.75837 37.7089 9.75837 37.7089H20.3895V11.239H12.0857L12.0479 12.9599Z" fill="#E0E0E0"/>
<path d="M27.4122 12.9599C27.4122 12.9599 37.062 16.4834 35.5085 22.2205C33.955 27.9566 29.7018 37.7089 29.7018 37.7089H19.0707V11.239H27.3744L27.4122 12.9599Z" fill="#E0E0E0"/>
<path d="M28.51 8.08763H11.0782V11.8783H28.51V8.08763Z" fill="#263238"/>
<path d="M11.0781 35.8061L6.53396 23.5399C6.53396 23.5399 9.76217 20.3662 14.9386 21.7092C20.115 23.0521 19.0725 24.4155 23.8911 23.3572C31.6431 21.6538 34.0616 22.8082 34.0616 22.8082L28.7766 35.8673L11.3457 35.807" fill="#FFBF9D"/>
<g opacity="0.3">
<path d="M30.1081 14.2231L6.087 28.6231L7.21381 31.5519L32.3152 15.6408C32.3152 15.6408 30.6211 14.4971 30.1081 14.2231Z" fill="white"/>
</g>
<path d="M66.1305 37.7293V8.18681L70.2964 3.02497V0H82.6119V3.3816L86.6867 7.38512V37.7293H66.1305Z" fill="#FF725E"/>
<path d="M78.0173 14.4874H67.7451V28.9662H78.0173V14.4874Z" fill="white"/>
<path d="M80.206 37.7294C80.1934 37.7294 80.1808 37.607 80.1682 37.3747C80.1585 37.0997 80.1469 36.7645 80.1333 36.3583C80.1187 35.4196 80.0984 34.1554 80.0741 32.6201C80.0402 29.4629 80.0198 25.1028 80.0198 20.2859C80.0402 15.6459 80.0577 11.4344 80.0712 8.28215V8.25009L80.0848 8.22385C80.8315 6.75945 81.4453 5.55549 81.8991 4.66441C82.1038 4.27961 82.2725 3.96282 82.4102 3.70434C82.5304 3.48667 82.6003 3.37491 82.6119 3.38074C82.6235 3.38657 82.578 3.50902 82.48 3.73737C82.3598 4.00363 82.2124 4.33014 82.0339 4.72758C81.6073 5.63226 81.0303 6.85275 80.3292 8.33852L80.3427 8.28117C80.3563 11.4335 80.3748 15.645 80.3942 20.285C80.3942 25.1009 80.3738 29.462 80.3398 32.6191C80.3156 34.1554 80.2952 35.4187 80.2807 36.3573C80.2671 36.7635 80.2555 37.0988 80.2458 37.3738C80.2322 37.607 80.2196 37.7294 80.206 37.7294Z" fill="#263238"/>
<path d="M80.0383 8.28205C80.0383 8.38311 76.8711 8.4657 72.9661 8.4657C69.059 8.4657 65.8929 8.38311 65.8929 8.28205C65.8929 8.18099 69.059 8.09839 72.9661 8.09839C76.8711 8.09839 80.0383 8.18099 80.0383 8.28205Z" fill="#263238"/>
<path d="M82.612 2.90358C82.612 3.00464 79.7736 3.08723 76.2738 3.08723C72.7721 3.08723 69.9347 3.00464 69.9347 2.90358C69.9347 2.80155 72.7721 2.71993 76.2738 2.71993C79.7736 2.7209 82.612 2.80252 82.612 2.90358Z" fill="#263238"/>
<path d="M43.3332 37.7293V8.18681L47.4982 3.02497V0H59.8137V3.3816L63.8885 7.38512V37.7293H43.3332Z" fill="#455A64"/>
<path d="M55.2201 14.4874H44.9478V28.9662H55.2201V14.4874Z" fill="white"/>
<path d="M57.4087 37.7294C57.3961 37.7294 57.3835 37.607 57.3709 37.3747C57.3612 37.0997 57.3496 36.7645 57.336 36.3583C57.3215 35.4196 57.3011 34.1554 57.2768 32.6201C57.2429 29.4629 57.2225 25.1028 57.2225 20.2859C57.2429 15.6459 57.2604 11.4344 57.2739 8.28215V8.25009L57.2875 8.22385C58.0342 6.75945 58.6481 5.55549 59.1019 4.66441C59.3065 4.27961 59.4752 3.96282 59.6129 3.70434C59.7332 3.48667 59.803 3.37491 59.8146 3.38074C59.8263 3.38657 59.7807 3.50902 59.6828 3.73737C59.5625 4.00363 59.4151 4.33014 59.2367 4.72758C58.81 5.63226 58.233 6.85275 57.5309 8.33852L57.5445 8.28117C57.5581 11.4335 57.5765 15.645 57.5959 20.285C57.5959 25.1009 57.5755 29.462 57.5416 32.6191C57.5174 34.1554 57.497 35.4187 57.4824 36.3573C57.4689 36.7635 57.4572 37.0988 57.4475 37.3738C57.4339 37.607 57.4214 37.7294 57.4087 37.7294Z" fill="#263238"/>
<path d="M57.24 8.28205C57.24 8.38311 54.0729 8.4657 50.1678 8.4657C46.2608 8.4657 43.0946 8.38311 43.0946 8.28205C43.0946 8.18099 46.2608 8.09839 50.1678 8.09839C54.0739 8.09839 57.24 8.18099 57.24 8.28205Z" fill="#263238"/>
<path d="M59.8137 2.90358C59.8137 3.00464 56.9753 3.08723 53.4756 3.08723C49.9739 3.08723 47.1365 3.00464 47.1365 2.90358C47.1365 2.80155 49.9739 2.71993 53.4756 2.71993C56.9753 2.7209 59.8137 2.80252 59.8137 2.90358Z" fill="#263238"/>
<path d="M88.2208 37.7293V8.18681L92.3858 3.02497V0H104.701V3.3816L108.776 7.38512V37.7293H88.2208Z" fill="#E0E0E0"/>
<path d="M100.108 14.4874H89.8354V28.9662H100.108V14.4874Z" fill="white"/>
<path d="M102.296 37.7294C102.284 37.7294 102.271 37.607 102.259 37.3747C102.249 37.0997 102.237 36.7645 102.224 36.3583C102.208 35.4196 102.189 34.1554 102.164 32.6201C102.131 29.4629 102.11 25.1028 102.11 20.2859C102.131 15.6459 102.148 11.4344 102.162 8.28215V8.25009L102.175 8.22385C102.922 6.75945 103.535 5.55549 103.99 4.66441C104.194 4.27961 104.363 3.96282 104.501 3.70434C104.621 3.48667 104.691 3.37491 104.702 3.38074C104.714 3.38657 104.668 3.50902 104.57 3.73737C104.45 4.00363 104.303 4.33014 104.124 4.72758C103.698 5.63226 103.121 6.85275 102.419 8.33852L102.432 8.28117C102.446 11.4335 102.464 15.645 102.484 20.285C102.484 25.1009 102.462 29.462 102.428 32.6191C102.404 34.1554 102.384 35.4187 102.369 36.3573C102.355 36.7635 102.344 37.0988 102.334 37.3738C102.322 37.607 102.309 37.7294 102.296 37.7294Z" fill="#263238"/>
<path d="M102.128 8.28205C102.128 8.38311 98.9605 8.4657 95.0554 8.4657C91.1484 8.4657 87.9822 8.38311 87.9822 8.28205C87.9822 8.18099 91.1484 8.09839 95.0554 8.09839C98.9605 8.09839 102.128 8.18099 102.128 8.28205Z" fill="#263238"/>
<path d="M104.701 2.90358C104.701 3.00464 101.863 3.08723 98.3632 3.08723C94.8615 3.08723 92.0241 3.00464 92.0241 2.90358C92.0241 2.80155 94.8615 2.71993 98.3632 2.71993C101.863 2.7209 104.701 2.80252 104.701 2.90358Z" fill="#263238"/>
</svg>
