<svg width="39" height="50" viewBox="0 0 39 50" fill="none" xmlns="http://www.w3.org/2000/svg">
<path d="M29.8 31.2772C29.7455 28.1045 29.0845 21.581 28.4157 15.6839C27.6974 9.34452 22.0758 4.60558 15.5016 4.78968L14.8484 4.80819C7.81537 5.4053 4.40919 11.5304 5.21991 18.3305L5.39974 44.2316L8.54248 48.3023C10.7851 50.1375 16.4893 50.4443 19.2266 49.4186C22.346 48.2497 23.2267 45.2076 23.1976 41.9649L23.1713 39.0562C23.1713 39.0562 29.9127 37.8454 29.8 31.2772Z" fill="#FFBF9D"/>
<path d="M23.1781 39.0524C23.1781 39.0524 18.9087 39.5102 14.2767 36.8684C14.2767 36.8684 16.5048 41.5343 23.2442 40.7531L23.1781 39.0524Z" fill="#FF9A6C"/>
<path d="M26.4862 21.6346C26.5192 22.1295 26.1138 22.5639 25.5821 22.6068C25.0504 22.6496 24.5925 22.2844 24.5605 21.7895C24.5274 21.2947 24.9318 20.8593 25.4635 20.8164C25.9943 20.7735 26.4531 21.1398 26.4862 21.6346Z" fill="#263238"/>
<path d="M27.1472 18.5915C27.0315 18.7172 26.283 18.2116 25.2419 18.2438C24.2018 18.2613 23.4543 18.8019 23.3376 18.6811C23.2803 18.6276 23.3959 18.4035 23.7216 18.16C24.0424 17.9175 24.5936 17.6739 25.2419 17.6583C25.8903 17.6437 26.4424 17.859 26.7632 18.0879C27.0898 18.3168 27.2046 18.535 27.1472 18.5915Z" fill="#263238"/>
<path d="M17.2047 21.6346C17.2378 22.1295 16.8324 22.5639 16.3007 22.6068C15.7699 22.6496 15.3111 22.2844 15.2791 21.7895C15.246 21.2947 15.6514 20.8593 16.1821 20.8164C16.7138 20.7735 17.1717 21.1398 17.2047 21.6346Z" fill="#263238"/>
<path d="M16.7692 18.5994C16.6672 18.7368 15.8662 18.313 14.8358 18.4543C13.8044 18.5809 13.121 19.1965 12.9907 19.0894C12.9285 19.0426 13.017 18.8079 13.3144 18.5312C13.6061 18.2556 14.1271 17.9565 14.7696 17.8727C15.4122 17.7899 15.9857 17.9468 16.3298 18.1396C16.6798 18.3325 16.8198 18.5371 16.7692 18.5994Z" fill="#263238"/>
<path d="M20.8335 26.7915C20.8267 26.734 21.4702 26.6074 22.5152 26.4486C22.7806 26.4145 23.0304 26.3561 23.0693 26.1788C23.1266 25.9908 23.0071 25.7161 22.869 25.42C22.6007 24.8034 22.3198 24.1575 22.0243 23.4806C20.849 20.718 19.9907 18.4435 20.1054 18.3987C20.2211 18.3539 21.267 20.5563 22.4413 23.3189C22.7242 23.9997 22.9954 24.6495 23.253 25.2709C23.3619 25.5612 23.5456 25.8885 23.4212 26.2782C23.3551 26.473 23.1646 26.6181 22.9954 26.6668C22.8272 26.7223 22.6775 26.7291 22.5463 26.7408C21.4935 26.8256 20.8393 26.848 20.8335 26.7915Z" fill="#263238"/>
<path d="M16.7818 14.2423C16.6875 14.52 15.6445 14.4187 14.4284 14.5959C13.2085 14.7498 12.2344 15.1239 12.0643 14.8823C11.9885 14.7664 12.1528 14.5034 12.5426 14.2267C12.9295 13.9511 13.5516 13.6803 14.2816 13.5809C15.0126 13.4825 15.6863 13.5761 16.1364 13.7397C16.5894 13.9024 16.8217 14.1108 16.7818 14.2423Z" fill="#263238"/>
<path d="M26.8604 14.6942C26.6845 14.9289 25.9603 14.7107 25.098 14.7244C24.2358 14.7078 23.5106 14.9231 23.3357 14.6883C23.2589 14.5744 23.3668 14.3415 23.6788 14.1156C23.987 13.8905 24.507 13.6996 25.1 13.6996C25.693 13.7016 26.2121 13.8944 26.5192 14.1204C26.8313 14.3464 26.9382 14.5802 26.8604 14.6942Z" fill="#263238"/>
<path d="M5.91788 23.1775C5.80123 23.1327 1.22565 21.9745 1.50756 26.4583C1.78946 30.943 6.37476 29.7429 6.37476 29.6143C6.37476 29.4848 5.91788 23.1775 5.91788 23.1775Z" fill="#FFBF9D"/>
<path d="M4.85446 27.9985C4.83307 27.9848 4.77766 28.0579 4.64449 28.1261C4.5152 28.1923 4.28967 28.2469 4.04277 28.1738C3.54312 28.0287 3.0843 27.301 3.0114 26.4945C2.97349 26.0873 3.03765 25.6928 3.16693 25.3626C3.28747 25.0255 3.4916 24.784 3.73559 24.7275C3.97667 24.6583 4.1604 24.7908 4.22456 24.9135C4.29455 25.0353 4.27121 25.1268 4.29552 25.1327C4.30913 25.1434 4.38981 25.0518 4.3412 24.8687C4.31593 24.781 4.25566 24.6788 4.14192 24.5989C4.02527 24.518 3.85904 24.483 3.68893 24.5112C3.33412 24.556 3.03277 24.8931 2.89085 25.2564C2.72948 25.6217 2.64784 26.0649 2.69061 26.5227C2.77712 27.4247 3.3069 28.242 3.98833 28.39C4.31884 28.4534 4.58422 28.3423 4.71739 28.2274C4.85348 28.1076 4.87196 28.0053 4.85446 27.9985Z" fill="#FF9A6C"/>
<path d="M28.9377 8.00613C28.7083 7.14211 28.0191 6.32972 27.1063 6.22354C27.1511 6.08814 26.1556 5.62448 25.3809 5.09847C24.6061 4.57246 24.4419 3.32269 23.741 3.93832C23.7565 2.56777 21.9903 1.5138 20.7353 2.14501C20.7616 1.35016 19.5552 1.08424 18.762 0.884549C17.9678 0.683887 17.6665 0.568945 17.2893 1.27516C16.2735 -0.308711 13.5565 -0.446054 12.3754 1.0258C10.509 0.437446 8.25961 1.47679 7.5568 3.25353C6.04716 3.37334 4.67263 4.47699 4.26921 5.89234C3.30102 5.99754 3.07162 6.73591 2.68085 7.60091C2.29007 8.46687 1.75153 9.42634 2.32797 10.1881C1.17217 10.7686 0.983588 12.5727 1.99553 13.3656C1.73598 13.498 1.51336 13.689 1.33645 13.9159C0.364363 14.5101 0.0795513 15.9674 0.795004 16.8499C0.0931604 17.3954 -0.187777 18.3948 0.130094 19.2101C0.447965 20.0254 1.34131 20.5943 2.23951 20.5524C1.4949 21.6054 2.46212 23.013 3.02593 23.3159C3.02593 23.3159 4.91857 22.5337 5.23839 23.8877C5.21895 23.9111 5.22867 23.8994 5.23839 23.8877C5.13438 24.4663 5.85664 24.9767 6.40781 24.7332C6.95898 24.4897 7.26032 23.9218 7.56749 23.4162C7.91939 22.8366 8.33641 22.2727 8.48514 21.6151C8.63387 20.9576 8.42099 20.1608 7.79691 19.8676C8.58916 19.589 9.08103 18.7844 9.20837 17.9769C9.33571 17.1694 9.16365 16.3492 8.99159 15.5495C8.73788 14.3689 8.48417 13.1893 8.23142 12.0087C9.90827 11.922 11.4908 10.8505 12.1518 9.35329C13.3776 10.2173 15.3733 9.68351 15.9682 8.33342C16.5524 9.92703 18.5841 10.8583 20.2259 10.2835C20.0704 11.2177 21.8153 12.033 22.765 12.2512C23.7148 12.4694 24.8774 11.7914 24.8774 11.7914C24.8774 11.7914 26.526 12.6759 27.4028 12.3077C28.2641 11.9463 29.4053 10.831 28.8065 9.95917C28.8046 9.96112 29.1671 8.86917 28.9377 8.00613Z" fill="#263238"/>
<path d="M20.1238 2.03402C20.1044 2.0574 19.9702 1.85966 19.5931 1.75738C19.4093 1.71063 19.1605 1.69895 18.9184 1.81291C18.6793 1.92201 18.4431 2.15968 18.375 2.47724L18.3206 2.73537L18.1748 2.50939C17.9143 2.10514 17.3651 1.75544 16.7254 1.772C16.1014 1.77881 15.4151 2.24833 15.2294 2.94188L15.1497 3.23995L14.9485 3.00032C14.581 2.56198 13.9628 2.28242 13.326 2.29898C12.6903 2.30385 12.0604 2.67401 11.7104 3.23606C11.5666 3.46205 11.4762 3.7153 11.4392 3.96954L11.413 4.15171L11.2293 4.11273C10.3291 3.92084 9.36579 4.43711 9.05084 5.17547C8.71741 5.92162 8.94974 6.78564 9.43966 7.26392L9.6234 7.44316L9.36968 7.49381C8.76116 7.6146 8.28094 7.9867 8.00682 8.39192C7.72491 8.80006 7.64715 9.24132 7.65492 9.59199C7.68117 10.3089 7.9728 10.6576 7.93003 10.6732C7.92031 10.6801 7.84449 10.6041 7.74437 10.4297C7.64716 10.2563 7.52758 9.9787 7.4955 9.59978C7.46245 9.2267 7.52078 8.73771 7.81629 8.27307C8.10403 7.8133 8.62117 7.38276 9.31233 7.22691L9.24234 7.45678C8.66104 6.91032 8.37427 5.93818 8.75144 5.05078C9.12569 4.16631 10.2212 3.56335 11.3061 3.78349L11.0961 3.92669C11.1389 3.6218 11.2458 3.3247 11.414 3.05975C11.8184 2.40516 12.5649 1.96876 13.3193 1.96681C14.0658 1.95415 14.7725 2.28242 15.2002 2.80453L14.9203 2.86297C15.1633 2.02233 15.974 1.49828 16.7215 1.50218C17.4749 1.50315 18.0825 1.92395 18.3634 2.39931L18.1631 2.43146C18.2662 2.03792 18.5617 1.77492 18.8514 1.66095C19.1479 1.54211 19.4327 1.57816 19.63 1.64732C19.8322 1.71746 19.9605 1.82264 20.0354 1.8996C20.1073 1.97752 20.1316 2.02818 20.1238 2.03402Z" fill="#455A64"/>
<path d="M29.6094 27.6914C28.9008 27.1898 27.7304 27.5648 27.4708 28.3772C27.0781 27.8463 26.3607 27.5618 25.6968 27.6729C25.0329 27.7839 24.4564 28.2866 24.2707 28.9139C23.9655 27.9602 22.416 27.706 21.8046 28.5096C21.5528 28.1093 21.0152 27.8999 20.5477 28.0207C20.6021 27.5833 20.3581 27.1245 19.9586 26.9141C19.5591 26.7037 19.0293 26.7543 18.6803 27.0368C18.1632 26.129 16.7186 25.8961 15.9264 26.5936C15.7932 26.1767 15.3519 25.8718 14.9018 25.8884C14.4517 25.9039 14.0338 26.239 13.9327 26.6647C13.4952 26.1144 12.6573 25.903 11.9982 26.1777C12.005 25.526 11.2468 24.9844 10.6072 25.1831C10.7676 24.6289 9.92865 24.3795 9.49899 23.9821C9.30652 23.8048 9.18403 23.5613 8.97698 23.4005C8.76992 23.2388 8.41123 23.2038 8.27513 23.4259C8.38498 22.9826 8.10211 22.482 7.65787 22.3329C7.21363 22.1839 6.67217 22.4079 6.47581 22.8219C6.35916 23.0664 6.35917 23.346 6.31931 23.6129C6.191 24.474 5.69328 25.4958 6.3368 26.1017C6.45053 26.2088 6.5983 26.2965 6.64593 26.4426C6.72856 26.692 6.47678 26.9297 6.45831 27.1907C6.43692 27.4946 6.72467 27.7265 6.85298 28.0041C7.04254 28.4161 6.8695 28.8895 6.83548 29.3396C6.80243 29.7896 7.06587 30.3604 7.52955 30.3156C7.18349 30.9702 7.41484 31.8576 8.04086 32.2725C7.68119 33.0323 8.14877 34.0493 8.97213 34.2977C8.66398 34.5373 8.68633 35.0244 8.91283 35.339C9.13932 35.6527 9.50774 35.8348 9.86255 36.0043C9.5408 36.166 9.49996 36.6326 9.70021 36.9258C9.90046 37.219 10.2592 37.369 10.6081 37.4635C10.7578 37.5044 10.9241 37.5463 11.0115 37.671C11.1778 37.9047 10.9552 38.2213 11.0009 38.5009C11.0708 38.9295 11.692 39.0522 11.8786 39.4467C12.0449 39.7974 11.8281 40.2893 12.1188 40.5543C12.3064 40.7257 12.6048 40.6936 12.8478 40.7764C13.2814 40.9244 13.4748 41.3978 13.7509 41.7544C14.2719 42.4265 15.1555 42.7207 15.9964 42.9262C16.4251 43.0314 16.8567 43.1229 17.2902 43.2009C18.1563 43.3567 19.0312 43.459 19.9061 43.5613C20.3396 43.6119 20.8743 43.6188 21.1027 43.2574C21.7103 43.9782 23.0887 43.8204 23.5067 42.9817C24.2882 43.1843 25.1029 42.8648 25.8445 42.5512C26.1012 42.443 26.3568 42.3349 26.6135 42.2258C27.3775 41.9034 28.2291 41.4884 28.4536 40.7092C29.4549 40.5708 30.113 39.3532 29.6609 38.4765C30.0099 38.573 30.3472 38.232 30.4026 37.8843C30.458 37.5365 30.3307 37.1907 30.2656 36.8449C30.0012 35.4383 30.7701 34.0055 30.5698 32.5882C30.4299 31.5965 29.8204 30.6156 30.113 29.6561C30.1732 29.4584 30.2714 29.2646 30.2568 29.059C30.2422 28.8535 30.0469 28.6402 29.8437 28.7015C30.1052 28.1346 29.5229 27.3933 28.8901 27.4878" fill="#263238"/>
<path d="M17.3933 27.8017C17.5624 27.7871 17.5974 28.882 18.587 29.633C19.5756 30.386 20.7761 30.2291 20.7898 30.3821C20.8073 30.4503 20.5283 30.6022 20.0199 30.6305C19.5222 30.6607 18.7892 30.5262 18.1836 30.0674C17.579 29.6077 17.3068 28.9784 17.2553 28.5303C17.1979 28.0725 17.3165 27.7968 17.3933 27.8017Z" fill="white"/>
<path d="M11.1866 35.2903C11.2439 35.2718 10.7705 34.2812 10.751 32.9691C10.7141 31.657 11.1428 30.6488 11.0845 30.6322C11.065 30.6244 10.9319 30.8631 10.8006 31.2819C10.6684 31.6998 10.5547 32.3018 10.5683 32.973C10.5839 33.6431 10.7238 34.2412 10.8735 34.6523C11.0242 35.0663 11.1681 35.2991 11.1866 35.2903Z" fill="#455A64"/>
<path d="M10.1221 33.7074C10.1464 33.686 9.9802 33.5311 9.86452 33.2096C9.74398 32.8901 9.70217 32.4119 9.75175 31.8849C9.83535 30.8241 10.1377 30 10.0852 29.9835C10.0443 29.963 9.65649 30.7793 9.56997 31.8703C9.51845 32.4109 9.58262 32.9233 9.74495 33.2564C9.90438 33.5925 10.1134 33.722 10.1221 33.7074Z" fill="#455A64"/>
<path d="M8.98481 32.7978C9.03924 32.7754 8.5357 31.9659 8.49584 30.8428C8.43752 29.7197 8.86913 28.8722 8.81274 28.8547C8.79428 28.8449 8.66013 29.0407 8.52987 29.3963C8.39864 29.7508 8.28976 30.271 8.31309 30.8506C8.33933 31.4292 8.49293 31.9396 8.65526 32.2815C8.81663 32.6244 8.96731 32.8085 8.98481 32.7978Z" fill="#455A64"/>
<path d="M27.8285 39.5072C27.8315 39.5247 28.1367 39.4487 28.473 39.1078C28.8113 38.7727 29.1127 38.1815 29.2818 37.5035C29.4587 36.8226 29.4762 36.1807 29.4354 35.7258C29.3936 35.2699 29.309 34.9972 29.2876 35.002C29.2293 35.004 29.4558 36.13 29.1049 37.4606C28.9396 38.123 28.6713 38.689 28.3768 39.025C28.0861 39.366 27.813 39.4799 27.8285 39.5072Z" fill="#455A64"/>
<path d="M26.842 39.2686C26.8527 39.2852 27.0733 39.1761 27.363 38.9141C27.6527 38.654 27.9939 38.2225 28.2184 37.6731C28.4401 37.1227 28.4935 36.5811 28.4644 36.1993C28.4362 35.8155 28.3507 35.5905 28.3322 35.5954C28.302 35.6012 28.3409 35.8321 28.3351 36.2022C28.3302 36.5714 28.2602 37.0828 28.0483 37.6078C27.8345 38.1319 27.5273 38.5527 27.2707 38.8264C27.015 39.1011 26.8245 39.2443 26.842 39.2686Z" fill="#455A64"/>
<path d="M28.5665 11.7407C28.5665 11.7407 27.0063 9.39118 23.9928 8.52522C18.3936 6.91504 10.5304 6.30137 2.23276 14.2344L1.02252 14.7652C1.02252 14.7652 0.772702 12.0621 1.1975 10.0633C1.48135 8.72784 3.9932 0.940953 12.9636 0.124665C12.9636 0.124665 26.6748 -2.04171 28.5665 11.7407Z" fill="#455A64"/>
<g opacity="0.3">
<path d="M28.5665 11.7407C28.5665 11.7407 27.0063 9.39118 23.9928 8.52522C18.3936 6.91504 10.5304 6.30137 2.23276 14.2344L1.02252 14.7652C1.02252 14.7652 0.772702 12.0621 1.1975 10.0633C1.48135 8.72784 3.9932 0.940953 12.9636 0.124665C12.9636 0.124665 26.6748 -2.04171 28.5665 11.7407Z" fill="black"/>
</g>
<path d="M2.23277 14.2344C5.63797 10.6157 10.025 8.53695 14.6336 6.87904C19.2423 5.22114 26.5144 4.12237 31.4224 3.8545C32.8961 3.77365 34.4194 3.75028 35.7929 4.27336C37.1665 4.79645 38.3651 5.99458 38.4302 7.42357C38.5109 9.21297 34.8403 11.2167 33.1576 11.956C31.4749 12.6963 28.0406 13.9948 28.0406 13.9948C28.0406 13.9948 27.121 9.9299 23.8091 8.77755C16.9297 6.38324 1.97905 14.3679 2.23277 14.2344Z" fill="#455A64"/>
<path d="M28.9845 9.10687C28.5801 8.02173 27.3144 7.30967 26.1421 7.50741C26.422 7.18791 26.3754 6.67944 26.1188 6.3424C25.8621 6.00537 25.4432 5.8164 25.0213 5.72386C23.5408 5.39949 21.8805 6.2372 21.306 7.59995C20.6139 6.93952 19.6029 6.55475 18.3022 6.80412C17.0103 7.05251 16.2424 8.12401 16.2424 8.88673C16.2473 9.74295 16.6915 10.2397 17.4517 10.6742C18.2128 11.1086 19.4026 10.7989 20.1774 10.3878C20.4855 11.2051 21.2224 11.8567 22.0895 12.0808C22.9566 12.3048 23.9306 12.0934 24.6169 11.5333C25.378 12.4197 26.8187 12.672 27.851 12.0983C28.8834 11.5246 29.3879 10.192 28.9845 9.10687Z" fill="#263238"/>
</svg>
