<svg width="209" height="71" viewBox="0 0 209 71" fill="none" xmlns="http://www.w3.org/2000/svg">
<path d="M209 67.9026L0.502028 70.6276L1.33876 3.54725H23.954L29.823 12.0167L30.1816 3.54725H209V31.2509L198.565 34.6386L209 39.4994V67.9026Z" fill="#7F473D"/>
<path d="M209 64.5886L0.502028 67.3135L1.33876 0.245475H23.954L29.823 8.70263L30.1816 0.245475H209V27.9368L198.565 31.3246L209 36.1853V64.5886Z" fill="#BF654E"/>
<path d="M138.166 0C138.095 0.0982726 138.011 0.185151 137.915 0.257764C137.712 0.441882 137.437 0.675093 137.114 0.981957L135.787 2.13577L133.899 3.59644C129.803 6.62505 125.318 9.05412 120.571 10.8139C117.298 12.0397 113.926 12.9679 110.495 13.5879C106.546 14.2611 102.541 14.5161 98.5414 14.3489C94.1245 14.1199 89.7444 13.4038 85.4766 12.2132C80.948 10.8938 76.3508 9.8365 71.7067 9.04632C67.0322 8.48775 62.3066 8.5579 57.6498 9.255C53.1196 9.8319 48.7687 10.6297 44.5851 11.1084C37.1558 11.9531 29.6616 12.0107 22.2208 11.2803C17.2146 10.7867 12.2494 9.92524 7.36312 8.70264C5.62992 8.24848 4.30312 7.88024 3.40664 7.59793L2.39062 7.26652C2.27079 7.23969 2.15446 7.19849 2.04399 7.14378C2.16317 7.13059 2.2834 7.13059 2.40259 7.14378L3.4425 7.40154C4.33898 7.65931 5.68967 7.97844 7.41092 8.39577C12.3059 9.53886 17.2694 10.3467 22.2686 10.8139C29.6745 11.487 37.1278 11.3842 44.5134 10.507C48.685 10.0283 53.024 9.2059 57.5781 8.62899C62.2794 7.89856 67.054 7.80776 71.7784 8.35895C76.4525 9.15202 81.0781 10.2217 85.632 11.5626C89.8565 12.7488 94.1921 13.4689 98.5653 13.7106C102.527 13.9031 106.497 13.6686 110.411 13.011C113.838 12.4385 117.209 11.5596 120.487 10.3843C125.19 8.68628 129.651 6.35416 133.755 3.44914L135.68 2.04984L137.03 0.945135L137.867 0.270041C137.955 0.167148 138.055 0.0763768 138.166 0Z" fill="#7F473D"/>
<path d="M208.534 16.1532C208.352 16.1243 208.172 16.0833 207.996 16.0304C207.477 15.8666 206.945 15.7476 206.406 15.6745C204.35 15.361 202.254 15.4695 200.238 15.9936C197.055 16.8764 193.995 18.1715 191.13 19.8478C187.325 22.074 183.407 24.0899 179.392 25.8869C168.825 30.4286 157.498 32.8133 146.043 32.9079C139.288 32.9939 132.547 32.2564 125.962 30.7108C124.253 30.2935 122.531 29.8884 120.834 29.3238C119.137 28.7591 117.391 28.2682 115.694 27.6176C112.287 26.3902 108.893 24.9295 105.45 23.5179C102.008 22.1063 98.6011 20.7439 95.1467 19.676C91.7643 18.593 88.2969 17.8127 84.7834 17.3438C78.1179 16.5591 71.3975 16.3865 64.7022 16.8283C53.3329 17.3368 41.9977 18.4594 30.7434 20.1915C23.1613 21.3995 15.6571 23.076 8.27155 25.2118C5.66577 25.9974 3.6457 26.6234 2.295 27.1021L0.741108 27.6053L0.203204 27.7649L0.717197 27.544L2.25914 26.9793C3.59789 26.4638 5.60601 25.7519 8.23569 24.9786C15.6045 22.7393 23.1068 20.9927 30.6956 19.7496C41.9611 17.9501 53.3132 16.7782 64.7022 16.2391C71.4324 15.777 78.1896 15.9413 84.8909 16.7301C88.4405 17.194 91.9441 17.9744 95.3619 19.0623C98.8283 20.1424 102.259 21.5172 105.713 22.9165C109.168 24.3158 112.538 25.7764 115.933 27.0284C117.619 27.6667 119.328 28.2559 121.025 28.7223C122.723 29.1887 124.432 29.6797 126.129 30.0971C132.662 31.6446 139.351 32.3904 146.055 32.3187C157.443 32.2592 168.713 29.9462 179.249 25.5064C183.267 23.723 187.193 21.7278 191.011 19.5287C193.908 17.8676 197.001 16.597 200.214 15.7481C202.263 15.2452 204.391 15.1783 206.466 15.5517C207.003 15.6434 207.531 15.783 208.044 15.9691L208.534 16.1532Z" fill="#7F473D"/>
<path d="M209 7.13153C208.864 7.16993 208.723 7.19055 208.582 7.19291L207.386 7.34019C206.323 7.47521 204.733 7.54887 202.713 7.89255C196.989 8.70672 191.323 9.90398 185.751 11.4767C178.675 13.3915 170.38 16.141 161.056 18.8414C156.394 20.1794 151.494 21.5173 146.282 22.5238C144.991 22.8184 143.664 22.9902 142.338 23.2234C141.011 23.4567 139.672 23.6408 138.321 23.7881C136.971 23.9354 135.608 24.1318 134.198 24.1809C132.764 24.2828 131.325 24.0694 129.978 23.5548C129.28 23.3001 128.645 22.8894 128.12 22.3524C127.595 21.8154 127.193 21.1654 126.942 20.4494C126.733 19.7077 126.733 18.9203 126.942 18.1786C127.148 17.4527 127.525 16.7905 128.042 16.2515C130.133 14.1771 132.942 13.5879 135.417 12.7901C140.473 11.2558 145.374 9.83192 150.107 8.73949C154.582 7.65492 159.128 6.91233 163.71 6.5178C164.26 6.5178 164.75 6.40733 165.335 6.4196C165.631 6.42716 165.923 6.49634 166.192 6.62293C166.461 6.74952 166.702 6.93089 166.901 7.15607C167.284 7.59897 167.486 8.17597 167.466 8.76771C167.446 9.35944 167.205 9.92063 166.794 10.3352C166.384 10.6726 165.918 10.9305 165.419 11.0962C164.965 11.3049 164.523 11.5135 164.08 11.6854C163.196 12.0659 162.311 12.4096 161.451 12.7287C155.995 14.7615 150.306 16.0571 144.525 16.5829C142.481 16.7793 140.939 16.8161 139.804 16.8284H138.608C138.469 16.8471 138.329 16.8471 138.19 16.8284C138.329 16.8127 138.469 16.8127 138.608 16.8284H139.804C140.879 16.767 142.469 16.6934 144.501 16.4602C150.242 15.8445 155.885 14.4877 161.295 12.4218C162.156 12.1027 163.028 11.7467 163.901 11.3662C164.343 11.1944 164.785 10.9857 165.228 10.7771C165.66 10.6215 166.064 10.3934 166.423 10.102C166.737 9.77909 166.92 9.3453 166.933 8.88911C166.946 8.43292 166.789 7.98869 166.495 7.64706C166.343 7.47544 166.158 7.33702 165.953 7.24002C165.748 7.14302 165.525 7.08943 165.299 7.08243C164.821 7.08243 164.26 7.15608 163.734 7.19291C159.18 7.60871 154.662 8.36352 150.215 9.45141C145.505 10.5684 140.652 11.9922 135.584 13.5388C134.317 13.9439 133.026 14.2876 131.807 14.7663C130.574 15.2131 129.443 15.9149 128.484 16.8284C128.022 17.2743 127.691 17.8441 127.529 18.4732C127.366 19.1023 127.378 19.7656 127.564 20.388C127.788 21.0166 128.146 21.5861 128.611 22.0552C129.076 22.5244 129.637 22.8815 130.253 23.1007C132.775 24.1318 135.62 23.5671 138.285 23.2848C139.624 23.1375 140.963 22.9779 142.278 22.7325C143.593 22.487 144.919 22.3397 146.198 22.0451C151.362 21.0631 156.275 19.7375 160.937 18.3627C170.26 15.6869 178.579 12.9742 185.68 11.1208C191.271 9.57375 196.964 8.43753 202.713 7.72071C204.745 7.41385 206.299 7.37702 207.41 7.27883L208.606 7.20517L209 7.13153Z" fill="#7F473D"/>
<path d="M70.2842 33.8776H69.6866L67.8936 33.804C65.705 33.7416 63.5147 33.7948 61.3314 33.9636C53.4774 34.5594 45.8198 36.7674 38.8117 40.4568L38.9552 40.2481C38.9178 40.9396 39.0778 41.6273 39.4153 42.2268C39.7529 42.8264 40.2535 43.3118 40.8557 43.6236C42.1755 44.2884 43.6462 44.5726 45.111 44.446C48.3104 44.3372 51.5021 44.0586 54.6735 43.6113C61.5714 42.6442 68.3428 40.8904 74.8623 38.3824C77.1453 37.4372 79.5718 36.7008 81.3409 35.1419C81.807 34.8274 82.1841 34.3921 82.4338 33.88C82.6836 33.3678 82.7973 32.797 82.7633 32.2253C82.7293 31.6536 82.549 31.1013 82.2404 30.6241C81.9319 30.1469 81.5061 29.7619 81.0062 29.5079C79.1176 28.2068 76.7748 27.9245 74.5993 27.409C73.4996 27.2003 72.3999 27.053 71.3122 26.8689C70.2245 26.6848 69.1487 26.6357 68.0729 26.5129C60.4831 25.9704 52.8567 26.5365 45.4218 28.1945C40.3969 29.2753 35.4427 30.6774 30.588 32.3924C28.8548 32.9816 27.528 33.4726 26.6315 33.804L25.6035 34.1722L25.245 34.2827C25.245 34.2827 25.3525 34.2091 25.5797 34.1109L26.5837 33.6935C27.4682 33.313 28.795 32.7852 30.5043 32.1592C35.3424 30.3483 40.2943 28.8761 45.3262 27.7526C52.8001 26.0266 60.4765 25.4107 68.1207 25.9237C69.1965 26.0342 70.2962 26.1324 71.3839 26.2674C72.4717 26.4024 73.5953 26.5988 74.7069 26.8075C75.8185 27.0162 76.9302 27.2862 78.0657 27.5563C79.2286 27.8531 80.3381 28.3378 81.3528 28.9924C81.9069 29.3216 82.3782 29.7796 82.729 30.3295C83.0798 30.8794 83.3003 31.506 83.3729 32.1592C83.3855 32.8254 83.2461 33.4854 82.9659 34.0865C82.6857 34.6875 82.2725 35.2129 81.7592 35.6206C80.7936 36.4432 79.7087 37.1058 78.5438 37.5845C77.3485 38.0632 76.2489 38.542 75.0894 38.9838C68.5281 41.5057 61.7121 43.2638 54.7691 44.2251C51.4701 44.6792 48.2666 44.9247 45.2066 45.0352C43.6385 45.1489 42.0694 44.8267 40.6645 44.1023C39.9716 43.7357 39.3992 43.1677 39.0187 42.4692C38.6382 41.7707 38.4665 40.9726 38.5248 40.1745V40.0394H38.6444C45.7151 36.3605 53.4437 34.2052 61.3553 33.7058C64.3298 33.4588 67.3208 33.5164 70.2842 33.8776Z" fill="#7F473D"/>
<path d="M127.456 36.4923C127.345 36.5108 127.232 36.5108 127.121 36.4923L126.165 36.3573C125.328 36.2591 124.109 36.0013 122.507 35.9154C117.996 35.5356 113.457 35.6797 108.976 36.345C106.132 36.6887 103 37.3392 99.7606 38.0634C96.5213 38.7876 92.9832 39.7941 89.3375 40.8497C82.0342 42.961 74.0614 45.5632 65.4313 47.3552C57.3425 49.066 49.1391 50.1452 40.8916 50.5835C34.1639 50.9332 27.4217 50.8594 20.7028 50.3625C14.9653 49.9329 10.3514 49.2701 7.17186 48.7545C5.59405 48.4845 4.36288 48.2267 3.58593 48.0672L2.64165 47.8708C2.52991 47.8623 2.42058 47.8332 2.31891 47.7849C2.43007 47.7711 2.54243 47.7711 2.65359 47.7849L3.60984 47.9199L7.26749 48.4722C10.447 48.9264 15.049 49.5156 20.7745 49.8961C27.4812 50.3188 34.206 50.3434 40.9155 49.9697C49.1266 49.4996 57.2928 48.4083 65.3476 46.7047C73.9299 44.9249 81.9027 42.3472 89.2538 40.2606C92.9115 39.2172 96.4257 38.2844 99.7128 37.5234C103 36.7623 106.12 36.1854 108.988 35.8663C113.502 35.2443 118.072 35.1701 122.603 35.6453C123.832 35.762 125.053 35.9505 126.261 36.21L127.205 36.3941L127.456 36.4923Z" fill="#7F473D"/>
<path d="M205.462 46.7906C205.218 46.7678 204.978 46.7184 204.745 46.6433L202.737 46.0787C201.003 45.5755 198.481 44.8512 195.362 44.1148C192.242 43.3783 188.477 42.5068 184.293 41.6599C180.109 40.8129 175.472 40.2729 170.595 39.6468C162.259 38.7313 153.875 38.3582 145.493 38.5299C142.266 38.6035 139.66 38.714 137.867 38.8245L135.787 38.9104C135.549 38.9345 135.309 38.9345 135.07 38.9104C135.304 38.8407 135.544 38.7995 135.787 38.7876L137.855 38.5667C139.648 38.3826 142.254 38.2107 145.481 38.0757C148.709 37.9407 152.546 37.9161 156.813 38.0757C161.08 38.2353 165.778 38.5176 170.678 39.0577C175.579 39.5978 180.241 40.3588 184.412 41.1566C188.584 41.9545 192.361 42.8628 195.481 43.7097C198.601 44.5567 201.111 45.3054 202.82 45.8823L204.793 46.5574C205.023 46.6107 205.247 46.6888 205.462 46.7906Z" fill="#7F473D"/>
<path d="M173.75 44.8634C173.633 44.9655 173.509 45.0599 173.38 45.1457L172.268 45.9067C170.806 46.8298 169.284 47.65 167.714 48.3616C161.884 50.956 155.676 52.5405 149.342 53.0505C144.971 53.4662 140.583 53.6505 136.194 53.6028C131.484 53.6028 126.452 53.4801 121.169 53.6028C115.646 53.6313 110.138 54.1694 104.709 55.2108C99.0673 56.3401 93.3657 58.1444 87.4848 59.8138C81.7705 61.5933 75.9021 62.8018 69.9615 63.4225C64.4093 63.7986 58.8336 63.5475 53.3348 62.6737C48.0754 61.9127 43.1507 60.8694 38.5248 59.9488C33.899 59.0282 29.5959 58.2181 25.6275 57.7025C19.3818 56.7543 13.0385 56.6965 6.77741 57.5307C4.56608 57.8744 2.88069 58.2794 1.7332 58.574L0.442277 58.9423C0.298211 58.9893 0.150113 59.0222 0 59.0405C2.18152 58.2159 4.44097 57.6276 6.74155 57.2852C13.0247 56.3615 19.404 56.3615 25.6872 57.2852C29.6676 57.7762 34.0544 58.5127 38.6205 59.4701C43.1866 60.4275 48.183 61.3849 53.4184 62.1214C58.8753 62.9731 64.4059 63.2159 69.9137 62.8456C75.8116 62.2008 81.638 60.9926 87.3174 59.2368C93.1864 57.5675 98.9119 55.7632 104.59 54.6339C110.054 53.5957 115.599 53.0657 121.157 53.0505C126.464 52.9768 131.496 53.1241 136.194 53.1364C140.55 53.2052 144.906 53.0454 149.246 52.6577C155.55 52.1955 161.738 50.6866 167.571 48.1898C169.146 47.4715 170.675 46.6516 172.149 45.7349L173.344 45.0229C173.472 44.9528 173.609 44.8992 173.75 44.8634Z" fill="#7F473D"/>
<path d="M183.086 55.0022C183.086 55.0022 183.193 55.0022 183.432 54.904C183.671 54.8058 184.018 54.7812 184.484 54.7199C185.828 54.5385 187.181 54.4524 188.536 54.4621C193.432 54.5012 198.244 55.7652 202.557 58.1445L202.964 58.3654L202.569 58.6109C195.115 62.9049 186.423 64.3528 178.03 62.6983C176.502 62.3961 174.996 61.986 173.523 61.4709C172.006 61.0001 170.696 60.002 169.818 58.6477C169.62 58.2758 169.497 57.8668 169.456 57.4452C169.415 57.0235 169.457 56.5976 169.579 56.1928C169.815 55.4275 170.279 54.7577 170.905 54.278C172.064 53.4452 173.372 52.8569 174.754 52.5473C179.379 51.1814 184.156 50.4306 188.967 50.3133C192.205 50.2241 195.444 50.4254 198.649 50.9148C199.772 51.1112 200.657 51.2707 201.242 51.418C201.544 51.4666 201.84 51.5447 202.127 51.6512C201.821 51.6473 201.517 51.6103 201.219 51.5408L198.613 51.1603C195.416 50.7678 192.195 50.6324 188.979 50.7552C184.212 50.9432 179.487 51.7348 174.91 53.1119C173.616 53.4428 172.398 54.0307 171.324 54.8426C170.797 55.2469 170.404 55.8085 170.2 56.4506C170.022 57.0998 170.095 57.7946 170.403 58.39C171.219 59.6026 172.412 60.4943 173.786 60.9185C175.228 61.427 176.702 61.8371 178.197 62.146C186.449 63.7684 194.994 62.3791 202.354 58.2181V58.6845C198.124 56.3019 193.406 54.9773 188.584 54.8181C187.24 54.7742 185.895 54.8111 184.556 54.9285C184.068 54.9826 183.577 55.0072 183.086 55.0022Z" fill="#7F473D"/>
<path d="M163.028 63.8521C162.81 63.8498 162.593 63.8167 162.383 63.7539L160.566 63.3243C159.777 63.1156 158.821 62.8824 157.697 62.6614C156.574 62.4405 155.307 62.1214 153.86 61.9004C151.027 61.3726 147.609 60.9185 143.808 60.5993C135.549 59.9349 127.242 60.2893 119.065 61.6549C115.3 62.2932 111.893 63.0419 109.144 63.803C107.733 64.1467 106.49 64.564 105.391 64.8831C104.291 65.2023 103.347 65.5214 102.582 65.7914L100.801 66.3684C100.6 66.4582 100.385 66.5121 100.167 66.5279C100.36 66.4195 100.559 66.3252 100.765 66.2456L102.498 65.5582C103.251 65.2514 104.183 64.8954 105.283 64.5517C106.383 64.208 107.674 63.7416 109.024 63.3243C112.297 62.3752 115.617 61.6049 118.969 61.0167C123.076 60.3185 127.219 59.8717 131.377 59.6787C135.538 59.5263 139.705 59.6206 143.856 59.961C147.241 60.2592 150.609 60.7427 153.944 61.4094C155.378 61.6672 156.645 61.9986 157.769 62.2687C158.893 62.5387 159.849 62.7965 160.626 63.0297L162.419 63.5698C162.63 63.6442 162.834 63.7387 163.028 63.8521Z" fill="#7F473D"/>
<path d="M46.1988 42.5067V33.0308L41.5968 40.8374H39.9234L35.3334 33.2272V42.5067H31.9267V26.7708H34.927L40.7959 36.5904L46.5812 26.7708H49.5695V42.5681L46.1988 42.5067Z" fill="#7F473D"/>
<path d="M62.2518 31.521C62.7782 32.0403 63.1862 32.6728 63.4466 33.3731C63.707 34.0733 63.8133 34.8241 63.7578 35.5716V42.5067H60.4827V40.9969C60.0752 41.5944 59.5178 42.0673 58.8696 42.3656C58.2213 42.6638 57.5066 42.7762 56.8012 42.6908C55.9801 42.7084 55.165 42.5452 54.4105 42.2121C53.7767 41.9376 53.2332 41.4817 52.8447 40.8987C52.5087 40.3432 52.3384 39.699 52.3546 39.0453C52.324 38.5291 52.417 38.0132 52.6253 37.5425C52.8337 37.0717 53.1511 36.6606 53.5499 36.3449C54.7253 35.6071 56.0969 35.2678 57.4705 35.3752H60.2437C60.2648 35.0442 60.2135 34.7125 60.0935 34.4045C59.9736 34.0966 59.788 33.8201 59.5504 33.5954C58.9492 33.1455 58.2126 32.9281 57.4705 32.9816C56.8252 32.9796 56.1836 33.0832 55.57 33.2885C54.9998 33.4621 54.4652 33.7407 53.9922 34.1109L52.7969 31.656C53.5279 31.1585 54.3364 30.7932 55.1875 30.5758C56.1111 30.3202 57.0638 30.1923 58.0204 30.1953C59.5399 30.1029 61.0413 30.5733 62.2518 31.521ZM59.2754 39.8922C59.7346 39.6166 60.0824 39.1811 60.2556 38.6648V37.4373H57.865C56.4306 37.4373 55.7134 37.916 55.7134 38.8611C55.7051 39.0704 55.749 39.2784 55.8411 39.4654C55.9331 39.6523 56.0702 39.8119 56.2394 39.929C56.6681 40.2155 57.1751 40.3532 57.6857 40.3218C58.2436 40.3283 58.7929 40.1799 59.2754 39.8922Z" fill="#7F473D"/>
<path d="M71.9457 30.6373C72.7247 30.3191 73.558 30.1646 74.3961 30.1832V33.4359C74.0136 33.4359 73.7506 33.4359 73.6192 33.4359C73.1857 33.4046 72.7505 33.4634 72.3397 33.6089C71.9289 33.7545 71.551 33.9837 71.2285 34.2829C70.9247 34.6238 70.6925 35.0254 70.5465 35.4625C70.4005 35.8997 70.3437 36.363 70.3799 36.8237V42.5559H66.8776V30.3673H70.2843V31.963C70.7074 31.3712 71.2828 30.9122 71.9457 30.6373Z" fill="#7F473D"/>
<path d="M81.6636 37.7441L79.9782 39.4134V42.5066H76.4879V25.7519H79.9782V35.2401L85.0941 30.3303H89.2658L84.2455 35.4733L89.708 42.4698H85.4766L81.6636 37.7441Z" fill="#7F473D"/>
<path d="M102.558 37.4252H93.4374C93.5124 37.7882 93.6566 38.1323 93.8617 38.4378C94.0669 38.7433 94.3289 39.004 94.6327 39.205C95.3075 39.6657 96.106 39.8976 96.9158 39.8678C97.4855 39.8768 98.0522 39.7812 98.5892 39.5855C99.0957 39.3804 99.5586 39.0761 99.9519 38.6894L101.805 40.727C101.164 41.4048 100.387 41.9315 99.5287 42.2707C98.6701 42.6098 97.75 42.7532 96.8321 42.6909C95.5914 42.7138 94.3629 42.4363 93.2461 41.8808C92.2604 41.3878 91.4313 40.6174 90.8555 39.6591C90.3 38.6811 90.0073 37.5692 90.0073 36.4371C90.0073 35.3049 90.3 34.193 90.8555 33.215C91.3612 32.2871 92.1001 31.5156 92.9951 30.981C94.002 30.4683 95.1106 30.2016 96.2344 30.2016C97.3583 30.2016 98.4669 30.4683 99.4737 30.981C100.416 31.4826 101.199 32.2489 101.733 33.1904C102.294 34.2023 102.575 35.3527 102.546 36.5168C102.546 36.5168 102.558 36.836 102.558 37.4252ZM94.3697 33.5219C93.825 33.9889 93.4744 34.6518 93.3896 35.3753H99.3661C99.273 34.6552 98.9187 33.9977 98.374 33.5341C97.8203 33.0656 97.1189 32.8211 96.4018 32.8468C95.6511 32.8006 94.9104 33.0411 94.3219 33.5219H94.3697Z" fill="#7F473D"/>
<path d="M112.682 41.9176C112.298 42.1892 111.869 42.3849 111.415 42.4945C110.898 42.6231 110.369 42.6891 109.837 42.6909C108.628 42.7659 107.436 42.3666 106.502 41.5739C106.09 41.1522 105.77 40.645 105.564 40.0862C105.358 39.5274 105.27 38.9298 105.307 38.3334V33.3377H103.442V30.6373H105.307V27.6791H108.809V30.6373H111.809V33.3377H108.809V38.2475C108.774 38.6924 108.912 39.1335 109.192 39.4749C109.341 39.6158 109.516 39.7243 109.707 39.7939C109.898 39.8635 110.101 39.8928 110.303 39.88C110.808 39.8961 111.304 39.7407 111.714 39.4381L112.682 41.9176Z" fill="#7F473D"/>
<path d="M124.838 30.9564C125.747 31.4641 126.497 32.2259 127.002 33.1535C127.545 34.1541 127.817 35.2857 127.791 36.4308C127.815 37.5796 127.543 38.7147 127.002 39.7204C126.496 40.6443 125.746 41.4019 124.838 41.9053C123.9 42.4314 122.847 42.7019 121.778 42.6908C121.113 42.7219 120.449 42.6066 119.83 42.3525C119.212 42.0985 118.653 41.7116 118.192 41.2179V46.8887H114.69V30.3672H118.037V31.7665C118.508 31.2258 119.093 30.8023 119.748 30.5279C120.402 30.2536 121.109 30.1357 121.814 30.1831C122.87 30.174 123.91 30.4401 124.838 30.9564ZM123.392 38.8857C123.952 38.197 124.259 37.3282 124.259 36.4308C124.259 35.5335 123.952 34.6646 123.392 33.9759C122.799 33.3865 122.006 33.0569 121.181 33.0569C120.355 33.0569 119.562 33.3865 118.969 33.9759C118.409 34.6646 118.102 35.5335 118.102 36.4308C118.102 37.3282 118.409 38.197 118.969 38.8857C119.565 39.4695 120.357 39.7952 121.181 39.7952C122.004 39.7952 122.796 39.4695 123.392 38.8857Z" fill="#7F473D"/>
<path d="M130.121 25.7519H133.636V42.5066H130.145L130.121 25.7519Z" fill="#7F473D"/>
<path d="M146.031 31.521C146.557 32.0403 146.966 32.6727 147.226 33.373C147.486 34.0733 147.593 34.8241 147.537 35.5716V42.5067H144.262V40.9969C143.857 41.5943 143.302 42.0675 142.656 42.3659C142.009 42.6643 141.296 42.7766 140.592 42.6908C139.771 42.708 138.956 42.5448 138.202 42.2121C137.572 41.9356 137.033 41.4798 136.648 40.8987C136.288 40.3382 136.101 39.6796 136.11 39.0084C136.09 38.4915 136.196 37.9777 136.417 37.5128C136.638 37.048 136.968 36.6467 137.377 36.3449C138.547 35.6049 139.916 35.2653 141.286 35.3752H144.059C144.08 35.0442 144.029 34.7125 143.909 34.4045C143.789 34.0965 143.603 33.8201 143.366 33.5954C142.765 33.1435 142.028 32.9259 141.286 32.9816C140.644 32.9792 140.007 33.0828 139.397 33.2885C138.824 33.4646 138.286 33.743 137.807 34.1109L136.552 31.656C137.283 31.1585 138.092 30.7932 138.943 30.5758C139.867 30.3202 140.819 30.1922 141.776 30.1953C143.304 30.0936 144.816 30.5646 146.031 31.521ZM143.055 39.8922C143.517 39.6201 143.866 39.1833 144.035 38.6647V37.4373H141.644C140.21 37.4373 139.493 37.916 139.493 38.8611C139.484 39.0704 139.528 39.2784 139.62 39.4653C139.712 39.6523 139.85 39.8119 140.019 39.929C140.447 40.2155 140.954 40.3531 141.465 40.3218C142.023 40.3302 142.573 40.1816 143.055 39.8922Z" fill="#7F473D"/>
<path d="M153.191 41.8808C152.209 41.3823 151.381 40.613 150.8 39.6591C150.237 38.6818 149.939 37.5668 149.939 36.4309C149.939 35.295 150.237 34.18 150.8 33.2027C151.384 32.2512 152.211 31.4827 153.191 30.981C154.27 30.4399 155.457 30.1666 156.657 30.1831C157.816 30.1591 158.963 30.4334 159.992 30.981C160.911 31.4884 161.639 32.2961 162.06 33.2763L159.347 34.737C159.093 34.225 158.704 33.7968 158.224 33.5016C157.744 33.2063 157.193 33.0559 156.633 33.0677C156.217 33.0551 155.802 33.129 155.414 33.2851C155.025 33.4412 154.672 33.6762 154.374 33.976C153.801 34.6582 153.485 35.5295 153.485 36.4309C153.485 37.3323 153.801 38.2036 154.374 38.8858C154.673 39.1834 155.027 39.4161 155.415 39.5701C155.803 39.724 156.218 39.796 156.633 39.7818C157.194 39.7995 157.748 39.6516 158.228 39.3557C158.709 39.0598 159.098 38.6283 159.347 38.1125L162.06 39.5977C161.626 40.5601 160.901 41.3525 159.992 41.8562C158.967 42.4179 157.819 42.701 156.657 42.6786C155.456 42.7013 154.268 42.4277 153.191 41.8808Z" fill="#7F473D"/>
<path d="M175.663 37.425H166.543C166.618 37.7878 166.763 38.1317 166.968 38.437C167.173 38.7424 167.435 39.0033 167.738 39.2048C168.413 39.6656 169.211 39.8974 170.021 39.8676C170.591 39.8749 171.157 39.7793 171.694 39.5853C172.196 39.377 172.654 39.0729 173.045 38.6893L174.91 40.7268C174.267 41.4056 173.489 41.9329 172.628 42.272C171.767 42.6111 170.845 42.754 169.925 42.6908C168.685 42.7109 167.457 42.4335 166.339 41.8806C165.352 41.3894 164.523 40.6185 163.949 39.659C163.373 38.6877 163.078 37.5678 163.1 36.4308C163.085 35.3001 163.375 34.1872 163.937 33.2148C164.491 32.2665 165.289 31.4935 166.244 30.9809C167.259 30.4426 168.388 30.1686 169.531 30.183C170.643 30.1683 171.742 30.4293 172.734 30.944C173.675 31.4424 174.456 32.2098 174.981 33.1535C175.547 34.1641 175.832 35.3145 175.806 36.4799C175.806 36.4799 175.711 36.8358 175.663 37.425ZM167.487 33.5217C166.94 33.9882 166.585 34.6506 166.495 35.3752H172.471C172.382 34.6564 172.032 33.9988 171.491 33.534C170.923 33.0817 170.213 32.859 169.495 32.908C168.776 32.8603 168.064 33.0779 167.487 33.5217Z" fill="#7F473D"/>
<path d="M46.1988 40.5428V31.0668L41.5968 38.8734H39.9234L35.3334 31.2632V40.5428H31.9267V24.7454H34.927L40.7959 34.5651L46.5812 24.7454H49.5695V40.5428H46.1988Z" fill="white"/>
<path d="M62.2518 29.5571C62.7782 30.0764 63.1862 30.7088 63.4466 31.4091C63.707 32.1094 63.8133 32.8602 63.7578 33.6077V40.5428H60.4827V39.0453C60.0752 39.6427 59.5178 40.1157 58.8696 40.4139C58.2213 40.7122 57.5066 40.8246 56.8011 40.7392C55.9801 40.7567 55.165 40.5935 54.4105 40.2605C53.7767 39.986 53.2332 39.53 52.8447 38.9471C52.483 38.3875 52.2954 37.7283 52.3068 37.0568C52.2857 36.5405 52.3879 36.0267 52.6046 35.5603C52.8213 35.0939 53.1458 34.689 53.5499 34.381C54.7253 33.6432 56.0969 33.3039 57.4705 33.4113H60.2436C60.2572 33.0862 60.1998 32.762 60.0757 32.4626C59.9516 32.1632 59.764 31.896 59.5265 31.6806C58.9298 31.2204 58.1908 30.9979 57.4466 31.0546C56.8012 31.0525 56.1597 31.1561 55.5461 31.3614C54.9759 31.535 54.4413 31.8137 53.9683 32.1838L52.773 29.7289C53.504 29.2314 54.3125 28.8661 55.1636 28.6488C56.0872 28.3931 57.0399 28.2652 57.9965 28.2682C59.5196 28.1593 61.03 28.6168 62.2518 29.5571ZM59.2754 37.9406C59.7305 37.6601 60.0769 37.2264 60.2556 36.7131V35.4857H57.865C56.4306 35.4857 55.7134 35.9644 55.7134 36.9095C55.7051 37.1188 55.749 37.3268 55.8411 37.5137C55.9331 37.7007 56.0702 37.8603 56.2394 37.9774C56.6667 38.2682 57.1738 38.4102 57.6857 38.3825C58.244 38.3794 58.7919 38.2271 59.2754 37.9406Z" fill="white"/>
<path d="M71.9457 28.6733C72.7247 28.355 73.558 28.2006 74.3961 28.2191V31.4719C74.0136 31.4719 73.7506 31.4719 73.6192 31.4719C73.1857 31.4405 72.7505 31.4994 72.3397 31.6449C71.9289 31.7904 71.551 32.0197 71.2285 32.3188C70.9247 32.6597 70.6925 33.0613 70.5465 33.4985C70.4005 33.9356 70.3437 34.399 70.3799 34.8597V40.5919H66.8776V28.4033H70.2843V29.9989C70.7074 29.4072 71.2828 28.9481 71.9457 28.6733Z" fill="white"/>
<path d="M81.6636 35.7802L79.9782 37.4496V40.5428H76.4879V23.8003H79.9782V33.2763L85.0941 28.3664H89.2658L84.2455 33.5095L89.708 40.506H85.4766L81.6636 35.7802Z" fill="white"/>
<path d="M102.558 35.4611H93.4374C93.5105 35.8248 93.6539 36.1698 93.8593 36.4755C94.0646 36.7812 94.3276 37.0415 94.6327 37.2409C95.3075 37.7017 96.106 37.9335 96.9158 37.9037C97.4855 37.9128 98.0522 37.8172 98.5892 37.6214C99.0957 37.4164 99.5586 37.112 99.9519 36.7254L101.805 38.763C101.164 39.4408 100.387 39.9675 99.5287 40.3066C98.6701 40.6457 97.75 40.7891 96.8321 40.7269C95.5914 40.7498 94.3629 40.4722 93.2461 39.9168C92.2577 39.4278 91.4277 38.6564 90.8555 37.6951C90.3 36.7171 90.0073 35.6052 90.0073 34.473C90.0073 33.3408 90.3 32.2289 90.8555 31.2509C91.3612 30.3231 92.1001 29.5516 92.9951 29.017C94.002 28.5043 95.1106 28.2375 96.2344 28.2375C97.3583 28.2375 98.4669 28.5043 99.4737 29.017C100.416 29.5186 101.199 30.2848 101.733 31.2264C102.293 32.2387 102.574 33.3887 102.546 34.5528C102.546 34.5528 102.558 34.8719 102.558 35.4611ZM94.3697 31.5578C93.825 32.0248 93.4744 32.6878 93.3896 33.4113H99.3661C99.273 32.6911 98.9187 32.0336 98.374 31.5701C97.8171 31.1074 97.1179 30.8637 96.4018 30.8827C95.6511 30.8366 94.9104 31.077 94.3219 31.5578H94.3697Z" fill="white"/>
<path d="M112.682 39.9535C112.3 40.2286 111.87 40.4246 111.415 40.5304C110.898 40.6591 110.369 40.725 109.837 40.7268C108.629 40.8052 107.438 40.4105 106.502 39.6221C106.089 39.1981 105.769 38.6888 105.563 38.1279C105.357 37.5671 105.27 36.9676 105.307 36.3694V31.3736H103.442V28.6732H105.307V25.7151H108.809V28.6732H111.809V31.3736H108.809V36.2834C108.774 36.7284 108.912 37.1695 109.192 37.5109C109.34 37.6539 109.515 37.7647 109.706 37.8364C109.897 37.9081 110.1 37.9394 110.303 37.9282C110.809 37.9398 111.305 37.7802 111.714 37.4741L112.682 39.9535Z" fill="white"/>
<path d="M124.838 28.9923C125.747 29.5 126.497 30.2619 127.002 31.1895C127.52 32.2021 127.791 33.3289 127.791 34.4729C127.791 35.6169 127.52 36.7437 127.002 37.7563C126.496 38.6802 125.746 39.4379 124.838 39.9412C123.903 40.4731 122.848 40.744 121.778 40.7268C121.113 40.7578 120.449 40.6425 119.83 40.3885C119.212 40.1344 118.653 39.7476 118.192 39.2538V44.9247H114.69V28.4031H118.037V29.8024C118.508 29.2617 119.093 28.8382 119.748 28.5639C120.402 28.2896 121.109 28.1716 121.814 28.219C122.87 28.21 123.91 28.476 124.838 28.9923ZM123.392 36.9217C123.952 36.2329 124.259 35.3641 124.259 34.4668C124.259 33.5694 123.952 32.7006 123.392 32.0119C122.799 31.4224 122.006 31.0929 121.181 31.0929C120.355 31.0929 119.562 31.4224 118.969 32.0119C118.409 32.7006 118.102 33.5694 118.102 34.4668C118.102 35.3641 118.409 36.2329 118.969 36.9217C119.565 37.5054 120.357 37.8312 121.181 37.8312C122.004 37.8312 122.796 37.5054 123.392 36.9217Z" fill="white"/>
<path d="M130.121 23.8003H133.636V40.5428H130.145L130.121 23.8003Z" fill="white"/>
<path d="M146.031 29.5571C146.557 30.0764 146.966 30.7089 147.226 31.4092C147.486 32.1095 147.593 32.8603 147.537 33.6077V40.5429H144.262V39.0454C143.857 39.6428 143.302 40.116 142.656 40.4144C142.009 40.7127 141.296 40.825 140.592 40.7392C139.771 40.7564 138.956 40.5932 138.202 40.2605C137.572 39.984 137.033 39.5283 136.648 38.9472C136.286 38.3876 136.099 37.7284 136.11 37.0569C136.09 36.54 136.196 36.0261 136.417 35.5613C136.638 35.0965 136.968 34.6952 137.377 34.3933C138.547 33.6533 139.916 33.3138 141.286 33.4236H144.059C144.081 33.0944 144.03 32.7643 143.91 32.4582C143.79 32.152 143.604 31.8778 143.366 31.6561C142.77 31.1939 142.03 30.9712 141.286 31.0301C140.644 31.0276 140.007 31.1312 139.397 31.337C138.824 31.5131 138.286 31.7915 137.807 32.1593L136.552 29.7044C137.283 29.207 138.092 28.8416 138.943 28.6243C139.867 28.3687 140.819 28.2407 141.776 28.2438C143.302 28.1385 144.814 28.6051 146.031 29.5571ZM143.055 37.9406C143.513 37.6642 143.861 37.229 144.035 36.7132V35.4857H141.644C140.21 35.4857 139.493 35.9645 139.493 36.9096C139.484 37.1189 139.528 37.3269 139.62 37.5138C139.712 37.7007 139.85 37.8603 140.019 37.9775C140.446 38.2682 140.953 38.4102 141.465 38.3825C142.023 38.3812 142.572 38.2288 143.055 37.9406Z" fill="white"/>
<path d="M153.191 39.9167C152.455 39.5332 151.805 38.9974 151.281 38.3431C150.757 37.6888 150.37 36.9302 150.146 36.115C149.921 35.2998 149.864 34.4457 149.976 33.6065C150.089 32.7673 150.369 31.961 150.8 31.2386C151.384 30.2872 152.211 29.5186 153.191 29.0169C154.27 28.4758 155.457 28.2025 156.657 28.2191C157.816 28.195 158.963 28.4693 159.992 29.0169C160.911 29.5243 161.639 30.3321 162.06 31.3123L159.347 32.773C159.093 32.261 158.704 31.8328 158.224 31.5375C157.744 31.2422 157.193 31.0919 156.633 31.1036C156.217 31.091 155.802 31.165 155.414 31.3211C155.025 31.4771 154.672 31.7121 154.374 32.0119C153.801 32.6941 153.485 33.5655 153.485 34.4668C153.485 35.3682 153.801 36.2395 154.374 36.9217C154.673 37.2193 155.027 37.4521 155.415 37.606C155.803 37.76 156.218 37.832 156.633 37.8178C157.194 37.8355 157.748 37.6876 158.228 37.3917C158.709 37.0957 159.098 36.6642 159.347 36.1484L162.06 37.6459C161.624 38.6038 160.899 39.3916 159.992 39.8922C158.969 40.4596 157.82 40.7431 156.657 40.7146C155.456 40.7373 154.268 40.4636 153.191 39.9167Z" fill="white"/>
<path d="M175.663 35.4612H166.543C166.617 35.8244 166.761 36.1689 166.966 36.4744C167.171 36.78 167.434 37.0406 167.738 37.241C168.413 37.7018 169.211 37.9336 170.021 37.9038C170.591 37.9111 171.157 37.8155 171.694 37.6215C172.196 37.4132 172.654 37.1091 173.045 36.7255L174.91 38.763C174.267 39.4418 173.489 39.9691 172.628 40.3082C171.767 40.6473 170.845 40.7902 169.925 40.727C168.685 40.7471 167.457 40.4697 166.339 39.9168C165.35 39.4291 164.52 38.6574 163.949 37.6952C163.373 36.7239 163.078 35.604 163.1 34.4669C163.085 33.3363 163.375 32.2234 163.937 31.251C164.491 30.3027 165.289 29.5297 166.244 29.0171C167.259 28.4788 168.388 28.2048 169.531 28.2192C170.643 28.2045 171.742 28.4655 172.734 28.9802C173.675 29.4786 174.456 30.2459 174.981 31.1897C175.545 32.201 175.83 33.3509 175.806 34.516C175.806 34.516 175.711 34.872 175.663 35.4612ZM167.487 31.5579C166.94 32.0244 166.585 32.6868 166.495 33.4113H172.471C172.382 32.6926 172.032 32.035 171.491 31.5702C170.919 31.128 170.223 30.8889 169.507 30.8889C168.791 30.8889 168.095 31.128 167.523 31.5702L167.487 31.5579Z" fill="white"/>
</svg>
