<svg width="117" height="58" viewBox="0 0 117 58" fill="none" xmlns="http://www.w3.org/2000/svg">
<path d="M71.7427 1.23966C70.5523 -0.361641 68.0288 -0.251629 66.2433 0.665144C64.0736 1.96617 62.2501 3.79678 60.9343 5.99467C55.8524 13.3551 51.9837 21.5235 49.4831 30.173L64.6363 33.4245C67.6564 24.4771 70.1604 15.3546 72.1355 6.10468C72.4807 4.45449 72.7545 2.57203 71.7427 1.23966Z" fill="#BF654E"/>
<path d="M52.5185 36.4805C52.5185 36.4805 65.8862 19.7096 80.1347 12.131C94.3833 4.55232 97.5734 5.61578 98.1805 6.78925C98.7876 7.96272 98.1091 11.4831 93.0381 16.1281C87.9672 20.7731 70.4214 36.7983 70.4214 36.7983L52.5185 36.4805Z" fill="#FF9A6C"/>
<path d="M58.8154 50.122C58.8154 50.122 70.719 32.1899 84.1819 23.3767C97.6448 14.5634 100.978 15.2968 101.68 16.3969C102.382 17.497 102.037 21.0908 97.4068 26.1758C92.7763 31.2609 76.6827 48.8018 76.6827 48.8018L58.8154 50.122Z" fill="#FF9A6C"/>
<path d="M68.4692 20.003C68.6359 20.0764 67.9574 22.0688 67.7669 24.6113C67.5765 27.1539 67.9217 29.2441 67.7669 29.2808C67.1438 27.7958 66.9376 26.1615 67.1717 24.5625C67.1903 22.9495 67.6391 21.3725 68.4692 20.003Z" fill="#BF654E"/>
<path d="M80.5513 20.7974C79.9601 19.2732 79.7872 17.6117 80.0514 15.9935C80.1167 14.3537 80.6101 12.7621 81.4798 11.3852C81.6584 11.4586 80.9084 13.4632 80.6704 16.0546C80.4323 18.646 80.7299 20.773 80.5513 20.7974Z" fill="#BF654E"/>
<path d="M74.1234 24.4768C73.5409 22.9502 73.3722 21.2901 73.6354 19.6729C73.6881 18.0308 74.1825 16.4358 75.0638 15.0646C75.2304 15.1379 74.4924 17.1426 74.2424 19.734C73.9925 22.3254 74.3139 24.4401 74.1234 24.4768Z" fill="#BF654E"/>
<path d="M95.7403 13.5733C95.8593 13.7078 90.7289 18.5606 84.3009 24.4035C77.873 30.2464 72.564 34.8791 72.4569 34.7569C72.3498 34.6347 77.4564 29.7696 83.8962 23.9267C90.336 18.0838 95.6212 13.4511 95.7403 13.5733Z" fill="#BF654E"/>
<path d="M32.4967 25.0636C32.4967 25.0636 49.5783 12.7299 58.9107 9.40509C68.2431 6.08025 69.9453 7.57156 69.9572 9.80849C69.9691 12.0454 67.3741 16.2259 61.8032 20.5042C56.2324 24.7825 42.8409 34.3169 42.8409 34.3169L23.6405 35.3559L32.4967 25.0636Z" fill="#FF9A6C"/>
<path d="M7.99919 32.3856C7.99919 32.3856 21.4264 15.6148 35.675 8.07279C49.9235 0.530804 53.1256 1.54536 53.7326 2.71883C54.3397 3.8923 53.6493 7.42496 48.5784 12.0699C43.5075 16.7149 25.9616 32.7279 25.9616 32.7279L7.99919 32.3856Z" fill="#FF9A6C"/>
<path d="M24.0095 15.9203C24.188 15.9203 23.4976 17.9738 23.3072 20.5286C23.1167 23.0833 23.4619 25.1491 23.3072 25.1858C22.6889 23.6994 22.4829 22.0665 22.712 20.4675C22.7357 18.8591 23.1842 17.2875 24.0095 15.9203Z" fill="#BF654E"/>
<path d="M36.0916 16.7147C35.5982 15.1548 35.428 13.5061 35.592 11.8746C35.756 10.2432 36.2505 8.66495 37.0439 7.24142C37.2224 7.31476 36.4844 9.31942 36.2344 11.9231C35.9845 14.5267 36.282 16.6781 36.0916 16.7147Z" fill="#BF654E"/>
<path d="M29.6755 20.3943C29.0851 18.8656 28.9122 17.2003 29.1756 15.5782C29.2438 13.9389 29.7369 12.348 30.604 10.9698C30.7826 11.0432 30.0327 13.0479 29.7946 15.6515C29.5565 18.2551 29.9017 20.3576 29.6755 20.3943Z" fill="#BF654E"/>
<path d="M51.3281 9.49055C51.4472 9.61279 46.3286 14.4656 39.9007 20.3085C33.4728 26.1514 28.1638 30.7964 27.9972 30.6619C27.8305 30.5275 33.0085 25.6869 39.4365 19.8317C45.8644 13.9766 51.1734 9.35609 51.3281 9.49055Z" fill="#BF654E"/>
<path d="M46.4834 28.1807C45.703 26.95 45.2025 25.5545 45.0192 24.098C44.64 22.6752 44.5871 21.1815 44.8645 19.7342C45.2005 21.127 45.4549 22.5394 45.6263 23.9635C45.9977 25.3494 46.2839 26.7579 46.4834 28.1807Z" fill="#BF654E"/>
<path d="M39.3531 33.559C37.9536 30.996 37.3865 28.0414 37.7343 25.1247C38.0703 26.5176 38.3247 27.9299 38.4961 29.3541C38.8736 30.7343 39.16 32.1391 39.3531 33.559Z" fill="#BF654E"/>
<path d="M53.3874 23.4501C52.6892 22.3356 52.2156 21.0887 51.9947 19.783C51.5797 18.5342 51.4177 17.2113 51.5186 15.8959C52.032 17.0907 52.396 18.3475 52.6018 19.6363C53.0151 20.8697 53.279 22.1505 53.3874 23.4501Z" fill="#BF654E"/>
<path d="M59.1488 19.0985C58.7834 17.9974 58.6102 16.8387 58.6369 15.6758C58.4667 14.5221 58.4989 13.3464 58.7321 12.2043C59.111 13.3064 59.2886 14.4709 59.2559 15.6392C59.4344 16.7888 59.398 17.9628 59.1488 19.0985Z" fill="#BF654E"/>
<path d="M116.869 27.4716H0.178554V57.8473H116.869V27.4716Z" fill="#BF654E"/>
<path d="M116.869 57.8474C116.869 57.8474 116.869 57.664 116.869 57.3096C116.869 56.9551 116.869 56.4295 116.869 55.7694C116.869 54.3881 116.869 52.3957 116.869 49.8043C116.869 44.6092 116.81 37.0428 116.762 27.4716L116.952 27.655L0.297589 27.7895L0.607084 27.4716C0.607084 37.874 0.607084 48.0318 0.607084 57.8474L0.309495 57.5296L83.5272 57.6763L108.06 57.7618H114.679H116.405H117H116.441H114.75H108.203L83.7415 57.8596L0.309495 57.9941H0V27.1539H0.142846L116.798 27.2761H116.988V27.4716C116.988 37.0916 116.905 44.6948 116.881 49.9265C116.881 52.4935 116.881 54.4737 116.881 55.8427C116.881 56.4906 116.881 56.9917 116.881 57.3462C116.881 57.7007 116.869 57.8474 116.869 57.8474Z" fill="#263238"/>
<path d="M116.869 42.1645C116.869 42.3357 90.6812 42.4823 58.4702 42.4823C26.2592 42.4823 0.0595194 42.3357 0.0595194 42.1645C0.0595194 41.9934 26.2473 41.8467 58.4702 41.8467C90.6932 41.8467 116.869 41.9812 116.869 42.1645Z" fill="#263238"/>
<path d="M59.5773 42.1645C59.1646 37.5415 59.1646 32.8893 59.5773 28.2662C60.0057 32.8886 60.0057 37.5422 59.5773 42.1645Z" fill="#263238"/>
<path d="M29.5565 57.6884C29.2432 55.1145 29.1396 52.5181 29.247 49.9265C29.1396 47.3348 29.2432 44.7384 29.5565 42.1644C29.8628 44.739 29.9663 47.3348 29.866 49.9265C29.9663 52.5181 29.8628 55.1139 29.5565 57.6884Z" fill="#263238"/>
<path d="M95.0261 57.9573C94.7198 55.3827 94.6163 52.787 94.7166 50.1953C94.6163 47.6037 94.7198 45.0079 95.0261 42.4333C95.3323 45.0079 95.4358 47.6037 95.3355 50.1953C95.4358 52.787 95.3323 55.3827 95.0261 57.9573Z" fill="#263238"/>
</svg>
