<svg width="118" height="253" viewBox="0 0 118 253" fill="none" xmlns="http://www.w3.org/2000/svg">
<path d="M82.7574 2.41377C83.5774 1.58522 84.8017 1.17921 85.9532 1.3521C86.4214 1.42301 86.9323 1.57551 87.3442 1.34142C87.6389 1.17338 87.8008 0.847986 88.0237 0.592526C88.7081 -0.193279 90.0942 -0.198137 90.7844 0.58184C90.954 0.774163 91.0907 1.00728 91.3146 1.13161C92.2209 1.63378 93.2716 -0.0660361 94.1731 0.445854C93.7679 0.61778 93.3666 0.851871 93.134 1.2268C92.9014 1.60077 92.8936 2.14471 93.2174 2.44291C94.0568 3.21706 95.505 1.56288 96.4452 2.20978C96.9522 2.55849 97.0026 3.43754 97.5978 3.59587C97.8275 3.65707 98.0688 3.58131 98.3054 3.56091C99.1021 3.49194 99.8883 4.16021 99.9503 4.95865C100.004 5.64149 99.6421 6.46518 100.141 6.93239C100.45 7.22184 100.931 7.18687 101.35 7.13345C101.328 7.75899 101.159 8.37773 100.862 8.92847C101.956 9.58995 102.319 11.214 101.615 12.2805C102.144 12.7166 102.683 13.1712 103.007 13.7764C103.33 14.3815 103.391 15.178 102.976 15.7239C102.881 15.8482 102.763 15.9589 102.706 16.1037C102.645 16.261 102.663 16.4368 102.694 16.6039C102.809 17.245 103.073 17.8696 103.04 18.5204C103.005 19.1711 102.506 19.8734 101.861 19.8025C101.711 19.786 101.545 19.7316 101.416 19.8112C101.319 19.8715 101.276 19.9909 101.253 20.1026C101.157 20.5611 101.262 21.0342 101.314 21.4994C101.366 21.9647 101.356 22.4746 101.074 22.8486C100.792 23.2216 100.152 23.3381 99.8679 22.9661C100.037 23.6946 100.204 24.4241 100.373 25.1526C100.473 25.5858 100.548 26.1084 100.229 26.4172C99.8088 26.8213 99.076 26.4775 98.7765 25.9782C98.4769 25.478 98.4072 24.8641 98.095 24.3726C97.9671 24.1715 97.7994 23.9928 97.716 23.7704C97.6491 23.5946 97.6307 23.3857 97.4892 23.2624C97.2033 23.0147 96.7457 23.411 96.7767 23.7888C96.8078 24.1657 97.0995 24.459 97.3293 24.7592C97.56 25.0593 97.7422 25.4809 97.5415 25.8014C97.4446 25.9559 97.274 26.0549 97.1819 26.2123C96.862 26.7572 97.6569 27.3128 97.7373 27.9393C97.7965 28.4026 97.4514 28.8116 97.1141 29.1331C96.7011 29.5255 95.915 29.8324 95.6736 29.3157C95.5903 29.137 95.6262 28.9233 95.5632 28.7348C95.4895 28.5153 95.2956 28.3638 95.1279 28.2045C94.7111 27.8082 94.4145 27.2885 94.2865 26.7271C94.7518 27.3313 95.2384 28.1278 94.8827 28.8019C94.7344 29.0835 94.463 29.2759 94.2371 29.5003C93.7932 29.9412 93.5101 30.5221 93.073 30.9689C92.6348 31.4157 91.9253 31.711 91.3873 31.3924C91.5627 31.9975 91.2739 32.7047 90.7262 33.0135C90.1785 33.3224 89.4254 33.202 89.0008 32.7367C88.8845 32.6095 88.7837 32.455 88.6257 32.387C88.4551 32.3132 88.2593 32.3589 88.0761 32.388C86.9749 32.5628 85.7943 32.0558 85.1613 31.136C85.3493 31.0748 85.5364 31.0136 85.7245 30.9514C84.6311 30.7834 83.4931 30.5969 82.5955 29.949C81.6979 29.3011 81.1357 28.0413 81.6339 27.0525C81.8501 26.6241 82.2543 26.188 82.0856 25.7383C81.9703 25.4284 81.6271 25.2788 81.3179 25.1613C80.0248 24.6708 78.7318 24.1813 77.4387 23.6907C76.8106 23.4528 76.1504 23.1905 75.7414 22.6582C75.3323 22.1249 75.3159 21.2313 75.8829 20.8719C75.596 20.26 75.1317 19.7326 74.5617 19.3703C73.921 18.9633 73.1659 18.771 72.5077 18.3931C71.8486 18.0162 71.2563 17.3499 71.3213 16.5932C71.3872 15.8356 72.4447 15.2732 72.9526 15.8385C72.8751 14.6933 70.8453 14.5758 70.698 13.4374C70.5778 12.5127 71.7642 12.062 72.3866 11.3684C72.2702 11.046 71.9484 10.8332 71.8234 10.5137C71.5597 9.84443 72.2625 9.19753 72.9178 8.90322C73.573 8.60891 74.3708 8.31362 74.5452 7.61523C74.7226 6.90033 74.1265 6.07373 74.522 5.45306C74.7411 5.10921 75.2519 4.99458 75.5969 5.21119C76.1495 3.90669 78.5999 4.95476 79.3492 3.75323C79.4083 3.65804 79.4529 3.54731 79.4413 3.43561C79.4306 3.33945 79.3793 3.25202 79.3211 3.17431C79.0449 2.80715 78.6077 2.60318 78.251 2.31372C77.8943 2.0233 77.6005 1.54442 77.7741 1.11898C77.9485 0.693537 78.7618 0.726562 78.7415 1.186C79.2174 0.778043 80.0772 1.01603 80.2769 1.61048C80.6026 1.23264 81.2239 1.25205 81.6465 1.51723C82.0692 1.7824 82.3406 2.22727 82.5965 2.65562" fill="#263238"/>
<path d="M88.6469 17.1031C88.2388 15.212 86.8478 13.6811 85.3114 12.5087C84.6678 12.0172 83.9612 11.5607 83.1615 11.4345C82.3618 11.3082 81.4497 11.5908 81.0445 12.2931L81.155 13.6462C80.9853 15.7957 82.6419 17.6024 83.4319 19.6082C83.7751 20.4804 84.0552 21.5285 84.915 21.8995C85.3657 22.0948 85.8901 22.0462 86.3535 21.885C88.1778 21.2526 89.055 18.9943 88.6469 17.1031Z" fill="#FF725E"/>
<path d="M88.8447 27.0429C90.0505 25.4227 89.8382 22.9118 88.3784 21.518C89.152 20.5126 88.8457 18.9857 88.0295 18.0153C87.2133 17.045 86.0143 16.4991 84.8559 15.9843C84.1813 13.0888 80.8952 11.0956 78.0222 11.8367C76.4858 9.64638 73.2802 9.34817 70.727 10.1359C70.1037 10.3282 69.4814 10.574 68.8291 10.5818C68.3502 10.5866 67.8811 10.4633 67.4051 10.4059C64.7909 10.0942 62.2289 11.9737 61.249 14.4224C61.0919 14.8138 60.9649 15.2257 60.7119 15.5627C60.3804 16.0057 59.8706 16.2699 59.4382 16.6147C58.5038 17.3597 57.9213 18.5292 57.8893 19.7259C57.8621 20.7419 58.2014 21.8142 57.7885 22.7428C57.582 23.2081 57.201 23.5869 57.0421 24.0716C56.5807 25.4742 58.1452 26.8758 57.8815 28.3289C57.8272 28.6252 57.6993 28.902 57.6217 29.1934C57.4637 29.7888 57.5306 30.4406 57.8059 30.9923C58.0182 31.4177 58.3565 31.8043 58.3914 32.2783C58.4185 32.6377 58.2634 32.9835 58.1965 33.3381C58.0327 34.2054 59.9452 37.5109 60.6974 37.9694L82.9764 37.8304C84.6572 37.4604 86.0065 35.9092 86.1432 34.1899C86.1655 33.9043 86.1655 33.5945 86.338 33.3662C86.4854 33.172 86.7267 33.0797 86.94 32.9612C88.363 32.1676 88.5064 30.1909 88.33 28.5698C88.3058 28.3425 88.2786 28.1104 88.3319 27.8879C88.4104 27.5645 88.647 27.309 88.8447 27.0429Z" fill="#263238"/>
<path d="M82.4627 27.2167C82.4685 23.2653 79.9279 18.7632 75.9817 16.8905C73.4944 15.7103 71.5684 15.7317 70.2685 15.5996C67.3557 15.3043 65.0313 16.7836 65.0313 16.7836C63.808 17.0915 59.3704 21.2877 59.2046 25.7713C59.0205 30.7523 58.9914 36.8406 59.6757 40.5355C61.0512 47.9652 66.7819 48.7676 66.7819 48.7676C66.7819 48.7559 66.5657 56.2419 66.5657 56.2419L66.7373 63.3132L79.9667 56.6324L82.1253 55.3386L82.4627 27.2167Z" fill="#EC9A7D"/>
<path d="M70.2288 39.0466C70.192 38.6833 70 38.3569 69.75 38.1296C69.2498 37.6751 68.5024 37.61 67.9431 37.9733C67.3838 38.3365 67.2947 38.9786 67.378 39.7042C67.6737 40.1374 67.8888 40.5638 68.4084 40.624C68.4889 40.6337 68.5703 40.6386 68.6527 40.6386C69.0482 40.6396 69.4543 40.5172 69.7645 40.2345C70.0747 39.9519 70.2753 39.4953 70.2288 39.0466Z" fill="#AE7461"/>
<path d="M61.7695 31.8539C61.7647 32.3599 62.1883 32.7805 62.7156 32.7951C63.2419 32.8097 63.6723 32.4124 63.6771 31.9073C63.682 31.4012 63.2584 30.9797 62.733 30.9651C62.2057 30.9506 61.7743 31.3488 61.7695 31.8539Z" fill="#263238"/>
<path d="M60.9892 28.5463C61.1103 28.6678 61.8199 28.1131 62.8483 28.0888C63.8739 28.05 64.6426 28.5599 64.7502 28.4317C64.8035 28.3744 64.6765 28.152 64.343 27.9218C64.0135 27.6916 63.4561 27.474 62.8163 27.4934C62.1766 27.5138 61.6444 27.7635 61.341 28.0131C61.0308 28.2627 60.9291 28.4919 60.9892 28.5463Z" fill="#263238"/>
<path d="M67.2113 36.521C67.2151 36.4627 66.5734 36.3685 65.5343 36.2626C65.2716 36.2422 65.0215 36.1966 64.9731 36.0178C64.9062 35.8294 65.0089 35.5429 65.1282 35.234C65.3589 34.591 65.5993 33.9178 65.8523 33.2117C66.8565 30.3336 67.5757 27.9694 67.4594 27.9296C67.3431 27.8898 66.4348 30.1908 65.4316 33.0699C65.1902 33.7789 64.9595 34.4559 64.7404 35.1029C64.6484 35.404 64.4865 35.7478 64.6309 36.1383C64.7065 36.3335 64.9033 36.4705 65.0729 36.5113C65.2425 36.5579 65.3899 36.5569 65.5198 36.5618C66.5628 36.5919 67.2084 36.5793 67.2113 36.521Z" fill="#263238"/>
<path d="M66.7828 48.723C66.7828 48.723 71.833 48.9172 76.7184 45.8002C76.7184 45.8002 74.2001 51.128 66.7295 50.6229L66.7828 48.723Z" fill="#AE7461"/>
<path d="M61.3527 25.7111C61.5533 25.9403 62.3152 25.681 63.238 25.6479C64.1589 25.5858 64.945 25.7664 65.1195 25.5178C65.1961 25.3973 65.0672 25.1661 64.7211 24.9525C64.3799 24.7397 63.8128 24.5717 63.1799 24.6047C62.5459 24.6377 62.0021 24.8621 61.6871 25.1088C61.3653 25.3556 61.2635 25.5994 61.3527 25.7111Z" fill="#263238"/>
<path d="M72.5503 31.8401C72.562 32.3461 72.1451 32.7735 71.6178 32.7949C71.0925 32.8172 70.6553 32.4268 70.6437 31.9207C70.632 31.4146 71.0488 30.9872 71.5742 30.9649C72.1015 30.9426 72.5377 31.335 72.5503 31.8401Z" fill="#263238"/>
<path d="M75.0579 28.5852C74.9377 28.7086 74.2204 28.1637 73.193 28.1549C72.1664 28.1306 71.4055 28.6522 71.296 28.525C71.2417 28.4687 71.3658 28.2443 71.6963 28.0092C72.022 27.7742 72.5765 27.5488 73.2172 27.5585C73.8579 27.5692 74.393 27.812 74.7003 28.0568C75.0124 28.3035 75.1171 28.5299 75.0579 28.5852Z" fill="#263238"/>
<path d="M75.2393 25.475C75.027 25.7004 74.2447 25.4245 73.2929 25.373C72.3429 25.2924 71.5268 25.4566 71.3513 25.204C71.2747 25.0816 71.4114 24.8534 71.773 24.6465C72.1297 24.4405 72.7181 24.2842 73.3724 24.3298C74.0257 24.3755 74.585 24.6115 74.9058 24.864C75.2325 25.1195 75.3333 25.3643 75.2393 25.475Z" fill="#263238"/>
<path d="M81.4467 34.2734C81.4341 33.7178 82.0409 32.3909 82.5857 32.2909C84.0426 32.0248 86.6811 32.0743 86.8013 35.7945C86.9661 40.8804 81.8364 39.9974 81.8228 39.8517C81.8131 39.7381 81.4923 36.1918 81.4467 34.2734Z" fill="#EC9A7D"/>
<path d="M83.1635 37.9489C83.1848 37.9314 83.2537 38.0081 83.4059 38.0713C83.5542 38.1334 83.8062 38.1713 84.0679 38.0635C84.5981 37.8488 85.0217 36.9814 85.0159 36.0635C85.0139 35.6002 84.9025 35.1622 84.727 34.8028C84.5603 34.4356 84.3112 34.184 84.0398 34.1442C83.7693 34.0908 83.5832 34.2588 83.526 34.4035C83.4621 34.5483 83.4979 34.6493 83.4718 34.658C83.4582 34.6716 83.3603 34.5764 83.3942 34.3657C83.4116 34.2637 83.4679 34.1413 83.5842 34.0403C83.7025 33.9373 83.8798 33.881 84.0689 33.8946C84.4614 33.9091 84.8249 34.2588 85.0178 34.6532C85.2321 35.0495 85.3677 35.54 85.3697 36.0606C85.3706 37.0864 84.8782 38.0625 84.1512 38.2995C83.7974 38.4044 83.496 38.3063 83.338 38.1908C83.1771 38.0713 83.1461 37.9586 83.1635 37.9489Z" fill="#AE7461"/>
<path d="M58.0812 25.8267C59.0903 25.1585 59.7232 24.2677 59.6292 23.0594C60.3145 23.2449 60.9824 22.3503 61.3643 21.7501C61.7462 21.1508 62.2241 20.8409 62.1766 20.1308C62.1669 19.991 62.1543 19.8424 62.2173 19.7171C62.3152 19.5199 62.5546 19.45 62.764 19.3791C63.838 19.0138 64.6929 18.0629 64.944 16.9546C66.0442 17.4043 67.2568 17.5733 68.4375 17.4422C68.9822 18.1931 69.9254 18.6331 70.8501 18.5699C71.7739 18.5058 72.6482 17.9395 73.0854 17.1217C73.4082 17.7501 74.078 18.1426 74.7652 18.2989C75.4535 18.4553 76.1698 18.4087 76.8735 18.3611C76.6031 19.7355 77.5268 21.2391 78.8732 21.617C79.0555 21.6685 79.2658 21.718 79.353 21.8851C79.4441 22.0599 79.354 22.2688 79.2891 22.4543C78.8752 23.6286 79.6816 25.0769 80.8972 25.3391C80.0829 26.0054 80.2061 27.4955 81.1192 28.0181C81.3062 28.1249 81.5505 28.2541 81.5282 28.4687C81.5195 28.5503 81.47 28.6212 81.4226 28.6883C81.0571 29.2011 80.6946 29.7596 80.6646 30.3891C80.6345 31.0185 81.0755 31.713 81.7046 31.7246C81.3819 32.0267 81.0842 32.4123 81.0872 32.8553C81.091 33.2972 81.5486 33.7372 81.9557 33.5673C82.1292 33.4954 84.6446 32.933 84.7522 32.7795C86.1393 30.7892 84.2782 28.6756 84.0756 26.257C83.873 23.8384 82.9696 21.5131 81.7085 19.4402C81.1793 18.5709 80.5822 17.7346 79.8445 17.0343C79.0031 16.2358 78.0008 15.6336 77.0014 15.045C75.6987 14.2776 74.3591 13.5132 72.8799 13.2024C70.1241 12.6234 67.3024 13.6929 64.7773 14.9401C63.8167 15.4141 62.86 15.925 62.0612 16.6389C61.1045 17.4927 60.4124 18.6029 59.8143 19.7375C58.9497 21.378 58.2411 23.141 58.1073 24.9914" fill="#263238"/>
<path d="M57.0411 24.0715C57.0411 24.0715 57.0866 23.8607 57.3008 23.5188C57.4045 23.3469 57.5519 23.1458 57.6886 22.8903C57.8223 22.6339 57.927 22.3105 57.9503 21.9326C57.9813 21.5567 57.9406 21.1351 57.898 20.6747C57.8543 20.2153 57.8088 19.7044 57.9018 19.1633C57.99 18.6252 58.1926 18.0648 58.5309 17.5451C58.6996 17.2858 58.9022 17.0361 59.1377 16.8098C59.3723 16.5806 59.6485 16.3863 59.9258 16.193C60.2001 15.9978 60.4783 15.788 60.6809 15.5073C60.8844 15.2265 61.0066 14.8846 61.1394 14.5379C61.405 13.8385 61.7966 13.1518 62.3258 12.5418C62.8512 11.9328 63.4939 11.3772 64.2567 10.978C64.6309 10.7652 65.0458 10.6186 65.4674 10.4884C65.8968 10.3845 66.3417 10.3009 66.7983 10.3048C67.0251 10.298 67.2548 10.3242 67.4836 10.3427C67.7114 10.3728 67.9363 10.4155 68.1621 10.4495C68.6129 10.5282 69.0675 10.5302 69.5192 10.4185C69.9719 10.3174 70.4129 10.1426 70.8801 10.0144C71.3435 9.87452 71.8252 9.78807 72.3128 9.72493C72.8013 9.66277 73.2996 9.655 73.8007 9.6754C74.3009 9.70454 74.803 9.78612 75.2964 9.91531C76.2744 10.1892 77.2311 10.7128 77.8922 11.5442C77.9572 11.6268 78.0221 11.7094 78.0861 11.79L78.0047 11.7599C79.5323 11.3684 81.1443 11.7453 82.3967 12.5408C83.6578 13.3334 84.6068 14.5787 84.9286 15.9648L84.8869 15.9152C85.5073 16.192 86.1209 16.4699 86.6889 16.8147C87.255 17.1576 87.7765 17.5713 88.1719 18.0823C88.5645 18.5961 88.8088 19.2041 88.8737 19.8229C88.9416 20.4387 88.7991 21.0788 88.4288 21.5538L88.422 21.4693C89.1636 22.1803 89.5522 23.139 89.6521 24.053C89.7529 24.9719 89.5814 25.8723 89.1839 26.593C89.0938 26.7786 88.9697 26.9408 88.8582 27.1049C88.738 27.2623 88.6149 27.409 88.519 27.5673C88.423 27.7246 88.36 27.8937 88.3503 28.0704C88.3367 28.2462 88.36 28.423 88.3765 28.5979C88.4463 29.2992 88.4463 29.95 88.3677 30.5298C88.2883 31.1087 88.1332 31.6177 87.9025 32.0111C87.6776 32.4084 87.3906 32.6823 87.1328 32.8552C86.875 33.0349 86.6443 33.1068 86.5183 33.2049C86.3865 33.2942 86.3419 33.3671 86.337 33.3632C86.337 33.3632 86.3767 33.2865 86.5066 33.1893C86.6317 33.0854 86.8624 33.0058 87.1115 32.8241C87.3626 32.6483 87.6388 32.3754 87.854 31.9839C88.075 31.5954 88.2223 31.0932 88.296 30.5211C88.3687 29.948 88.3629 29.3021 88.2892 28.6076C88.2718 28.4337 88.2456 28.253 88.2582 28.0636C88.2669 27.8742 88.3367 27.6829 88.4375 27.5177C88.5374 27.3507 88.6624 27.2001 88.7797 27.0447C88.8873 26.8835 89.0075 26.7261 89.0938 26.5445C89.4776 25.8403 89.6405 24.9612 89.5377 24.0666C89.4369 23.1759 89.054 22.2454 88.3348 21.5616L88.2931 21.5217L88.328 21.4761C88.674 21.0283 88.8069 20.4251 88.7409 19.8365C88.677 19.2459 88.4395 18.6583 88.0614 18.1668C87.6785 17.6743 87.1706 17.2722 86.6133 16.9361C86.0549 16.599 85.4462 16.3242 84.8258 16.0483L84.7929 16.0337L84.7842 15.9978C84.4701 14.6544 83.5463 13.4422 82.3143 12.669C81.091 11.8929 79.5197 11.5287 78.0406 11.9085L77.9921 11.9211L77.9581 11.8784C77.8961 11.7997 77.8331 11.721 77.7701 11.6414C77.1323 10.8391 76.2075 10.331 75.2528 10.063C74.771 9.93669 74.2795 9.85703 73.7891 9.82789C73.2976 9.8075 72.8081 9.81429 72.3273 9.87549C71.8475 9.93668 71.3735 10.0212 70.9179 10.1581C70.4604 10.2834 70.0145 10.4583 69.5483 10.5622C69.3156 10.6147 69.0782 10.6487 68.8397 10.6526C68.6012 10.6564 68.3667 10.6283 68.1379 10.5923C67.9091 10.5564 67.6852 10.5136 67.4623 10.4845C67.2393 10.4661 67.0174 10.4398 66.7964 10.4466C66.3534 10.4418 65.9201 10.5214 65.5013 10.6215C65.0894 10.7477 64.6842 10.8896 64.3168 11.0964C63.5685 11.484 62.9365 12.027 62.4189 12.6234C61.8974 13.2208 61.5106 13.8919 61.247 14.5796C61.1142 14.9235 60.9881 15.2761 60.77 15.5733C60.5519 15.8705 60.2621 16.0852 59.9859 16.2804C59.7057 16.4747 59.4362 16.6622 59.2065 16.8836C58.9748 17.1032 58.7761 17.345 58.6094 17.5976C58.276 18.1036 58.0734 18.6514 57.9832 19.1769C57.8882 19.7044 57.929 20.2075 57.9677 20.6679C58.0065 21.1283 58.0434 21.5538 58.0065 21.9375C57.9784 22.3211 57.8669 22.6533 57.7254 22.9117C57.5819 23.1701 57.4307 23.3663 57.3231 23.5353C57.2126 23.7024 57.1419 23.8364 57.0992 23.9297C57.0604 24.0229 57.0449 24.0734 57.0411 24.0715Z" fill="#455A64"/>
<path d="M75.6134 10.7749C75.6056 10.7866 75.4777 10.7011 75.2276 10.5855C74.9785 10.4719 74.6004 10.332 74.1129 10.2873C73.6292 10.2407 73.0321 10.2951 72.4495 10.57C71.8708 10.8429 71.3134 11.3295 70.9625 11.9832C70.8617 12.1707 70.7764 12.3708 70.7231 12.5651C70.6727 12.7584 70.6688 12.9633 70.7725 13.1003L70.9005 13.2703L70.694 13.2168C70.127 13.0702 69.5502 13.1916 69.1286 13.4402C68.6992 13.6889 68.4326 14.0658 68.2891 14.4019C68.1437 14.7418 68.1137 15.0429 68.1098 15.245C68.1079 15.4489 68.1263 15.5607 68.1146 15.5616C68.1098 15.5626 68.102 15.5354 68.0894 15.483C68.0768 15.4305 68.0643 15.3499 68.0584 15.2459C68.0458 15.0391 68.0613 14.7253 68.2 14.3659C68.3366 14.0104 68.609 13.6025 69.0617 13.3295C69.5056 13.0566 70.1182 12.9186 70.7309 13.0721L70.6524 13.1887C70.507 12.9925 70.5215 12.737 70.5748 12.5272C70.6329 12.3116 70.7202 12.1095 70.8268 11.9104C71.1942 11.2246 71.7816 10.7196 72.3894 10.4418C73.003 10.161 73.6262 10.1173 74.1235 10.1795C74.6256 10.2397 75.0075 10.4 75.2528 10.5321C75.3759 10.5991 75.467 10.6574 75.5261 10.7021C75.5862 10.7458 75.6163 10.771 75.6134 10.7749Z" fill="#455A64"/>
<path d="M83.9845 16.4252C83.9904 16.432 83.9322 16.5 83.811 16.6107C83.6899 16.7205 83.5047 16.8739 83.2459 17.0235C82.9881 17.1712 82.6479 17.3178 82.2398 17.3518C81.8385 17.3858 81.3586 17.3042 80.9709 16.9992L81.0833 16.9788C81.0368 17.0478 80.9884 17.1187 80.9389 17.1916C80.8866 17.2605 80.8274 17.3266 80.7702 17.3955C80.4058 17.7918 79.957 18.0667 79.5198 18.2153C79.0827 18.3698 78.661 18.4154 78.314 18.396C77.965 18.3766 77.6917 18.2979 77.5095 18.2319C77.3301 18.1571 77.2371 18.1046 77.2409 18.0959C77.2506 18.0638 77.6384 18.2736 78.3169 18.2872C78.6533 18.2921 79.0555 18.2377 79.4714 18.0823C79.8882 17.9327 80.3108 17.6666 80.6568 17.2916C80.7101 17.2265 80.7664 17.1644 80.8168 17.0983C80.8633 17.0303 80.9089 16.9643 80.9534 16.8992L81.0019 16.8283L81.0659 16.8788C81.4129 17.1556 81.854 17.2392 82.231 17.2159C82.613 17.1935 82.9415 17.0643 83.1974 16.9332C83.7102 16.6603 83.9681 16.4029 83.9845 16.4252Z" fill="#455A64"/>
<path d="M86.7761 21.0808C86.781 21.0818 86.778 21.1138 86.7664 21.175C86.7499 21.2343 86.7228 21.3236 86.6588 21.4237C86.5386 21.6257 86.2672 21.8744 85.8533 21.987C85.4375 22.1056 84.9189 22.0337 84.3993 21.8627C84.1386 21.7763 83.8681 21.6898 83.5909 21.5645C83.3205 21.4392 83.0258 21.2576 82.8746 20.9409C82.863 20.9127 82.8513 20.8856 82.8407 20.8603L82.9608 20.8943C82.481 21.2887 81.9847 21.6335 81.4758 21.8346C80.9708 22.0434 80.459 22.0871 80.0538 22.0152C79.6448 21.9482 79.3414 21.7821 79.1659 21.6354C79.0767 21.5636 79.0147 21.4985 78.9779 21.4518C78.9401 21.4042 78.9226 21.379 78.9265 21.3751C78.9372 21.3654 79.0186 21.4616 79.2008 21.5888C79.3811 21.716 79.6768 21.8588 80.0684 21.9093C80.459 21.9637 80.9388 21.9132 81.4225 21.7054C81.9082 21.5043 82.3889 21.1663 82.8639 20.7758L82.9434 20.7107L82.9841 20.8098C82.9928 20.8312 83.0025 20.8545 83.0122 20.8778C83.1353 21.1401 83.3941 21.3091 83.6529 21.4305C83.9137 21.5509 84.188 21.6422 84.442 21.7306C84.9489 21.9055 85.4375 21.9812 85.8252 21.8841C86.2158 21.7918 86.4795 21.5723 86.6084 21.3916C86.7422 21.208 86.7606 21.0759 86.7761 21.0808Z" fill="#455A64"/>
<path d="M91.7924 2.78873C91.7924 2.79942 91.7052 2.79455 91.5521 2.83729C91.4018 2.881 91.1847 2.98785 90.9947 3.21708C90.8037 3.44243 90.6467 3.78142 90.6351 4.19812C90.6137 4.61385 90.7213 5.07913 90.8571 5.5813L90.8794 5.6629L90.794 5.66192C90.2241 5.65803 89.5853 5.83579 89.0512 6.24084C88.5161 6.63811 88.1207 7.30444 88.1303 8.04459C88.1226 8.71675 88.427 9.36269 88.9077 9.72208L89.0812 9.85223L88.8641 9.85515C88.0799 9.8668 87.3859 10.2553 86.9594 10.7478C86.5222 11.2442 86.3633 11.8415 86.3468 12.3243C86.3303 12.8129 86.4447 13.1965 86.5436 13.4442C86.6453 13.6929 86.7277 13.8162 86.7171 13.8221C86.7132 13.825 86.6909 13.7958 86.6502 13.7366C86.6085 13.6783 86.5552 13.587 86.497 13.4636C86.3817 13.2179 86.2489 12.8284 86.2527 12.3214C86.2566 11.8221 86.4088 11.1917 86.8625 10.6633C87.3045 10.1397 88.0276 9.72305 88.8622 9.70557L88.8186 9.83864C88.2932 9.4501 87.9675 8.75657 87.9753 8.04167C87.9733 7.65314 88.0702 7.26753 88.2505 6.93922C88.4279 6.608 88.6819 6.33602 88.9611 6.12233C89.5281 5.69786 90.1979 5.5201 90.795 5.53176L90.732 5.61239C90.6021 5.10729 90.4994 4.62552 90.5304 4.19133C90.5507 3.75618 90.7301 3.39387 90.9385 3.16755C91.1469 2.93443 91.3824 2.83147 91.5424 2.79844C91.6228 2.78193 91.6858 2.77708 91.7285 2.77999C91.7711 2.7829 91.7924 2.78485 91.7924 2.78873Z" fill="#455A64"/>
<path d="M101.11 13.5997C101.112 13.6035 101.083 13.6201 101.028 13.6502C100.972 13.6783 100.891 13.7279 100.777 13.7726C100.553 13.8677 100.209 13.9804 99.7603 14.029C99.3125 14.0756 98.7561 14.0591 98.1609 13.8745C97.5657 13.7016 96.9347 13.349 96.4219 12.7915L96.5373 12.7799C96.1069 13.5385 95.3092 14.2456 94.2885 14.403C93.2086 14.5681 92.1259 13.9862 91.7285 13.115L91.8603 13.1062C91.743 13.4627 91.523 13.7599 91.27 13.9843C91.016 14.2097 90.7301 14.367 90.449 14.4758C89.879 14.6895 89.3381 14.6982 88.9068 14.6749C88.4725 14.6468 88.1352 14.5817 87.9054 14.537C87.6757 14.4894 87.5536 14.4573 87.5555 14.4496C87.5574 14.4418 87.6825 14.4583 87.9132 14.4913C88.1439 14.5224 88.4822 14.5739 88.9106 14.5885C89.3352 14.5992 89.8635 14.5788 90.4053 14.3651C90.9355 14.1553 91.5084 13.7288 91.7255 13.0625L91.7818 12.8906L91.8574 13.0538C92.2286 13.859 93.2542 14.4068 94.2661 14.2504C95.2277 14.1038 95.9954 13.4316 96.4132 12.708L96.4626 12.6225L96.5286 12.6953C97.0161 13.2335 97.621 13.5822 98.1958 13.758C98.7706 13.9455 99.3125 13.9736 99.7516 13.9406C100.638 13.8668 101.099 13.5666 101.11 13.5997Z" fill="#455A64"/>
<path d="M95.9596 21.1663C95.9625 21.1673 95.9528 21.2061 95.9024 21.2605C95.853 21.3139 95.7541 21.3722 95.6184 21.3955C95.346 21.4373 94.9486 21.4043 94.492 21.2352C94.0413 21.0653 93.5334 20.7292 93.1757 20.1843C92.8199 19.6471 92.6261 18.9118 92.754 18.1697L92.756 18.1542L92.8674 18.2358C92.2073 18.5884 91.4687 18.6602 90.8396 18.5651C90.2037 18.4718 89.6735 18.2086 89.2819 17.9347C88.8874 17.6588 88.6189 17.3723 88.4512 17.1654C88.2825 16.9575 88.2088 16.8283 88.2166 16.8235C88.2418 16.7982 88.5607 17.3189 89.343 17.8443C89.7326 18.0998 90.2493 18.3436 90.8609 18.4252C91.4667 18.5097 92.1705 18.4349 92.7967 18.1008L92.9314 18.0289L92.9081 18.1824L92.9062 18.1969C92.785 18.8963 92.9644 19.5947 93.2949 20.1075C93.6274 20.6272 94.1043 20.9574 94.5337 21.1342C94.965 21.31 95.3566 21.3586 95.6106 21.3363C95.8743 21.31 95.9509 21.1546 95.9596 21.1663Z" fill="#455A64"/>
<path d="M80.7004 3.23351C80.7383 3.23934 80.4358 3.8163 80.5075 4.80123C80.5463 5.28592 80.6946 5.86484 81.0397 6.40878C81.3848 6.94787 81.9334 7.43742 82.6149 7.72785C82.9978 7.89103 83.399 7.9804 83.7819 8.0008L83.876 8.00566L83.8498 8.09598C83.685 8.67198 83.655 9.24117 83.7025 9.74335C83.7538 10.2455 83.8779 10.6826 84.0214 11.0275C84.0921 11.1994 84.1648 11.3558 84.2395 11.4772C84.3151 11.5967 84.4169 11.6734 84.5128 11.6782C84.6088 11.685 84.6815 11.6481 84.7154 11.6112C84.7503 11.5743 84.7561 11.5442 84.7619 11.5461C84.7648 11.5461 84.7687 11.5792 84.7357 11.6277C84.7038 11.6763 84.6243 11.7297 84.5109 11.7297C84.3936 11.7336 84.2656 11.6462 84.1774 11.5199C84.0902 11.3917 84.0126 11.2402 83.9331 11.0663C83.7732 10.7186 83.6356 10.2737 83.5735 9.75792C83.5144 9.24312 83.5386 8.65352 83.7063 8.05615L83.7742 8.15135C83.3729 8.13192 82.9541 8.04063 82.5538 7.86967C81.8423 7.56662 81.2724 7.05277 80.9195 6.48455C80.5667 5.91243 80.4252 5.30925 80.399 4.80901C80.3699 4.30489 80.4562 3.90081 80.5337 3.6337C80.5773 3.50063 80.6132 3.39864 80.6462 3.33259C80.6772 3.26557 80.6956 3.23156 80.7004 3.23351Z" fill="#455A64"/>
<path d="M70.192 37.6224C70.0495 37.5884 69.875 38.5529 68.9289 39.0911C67.9838 39.6311 66.9758 39.3397 66.9447 39.4728C66.9205 39.5311 67.1396 39.7011 67.5709 39.7904C67.9935 39.8817 68.6391 39.8555 69.2178 39.5262C69.7955 39.196 70.1115 38.6744 70.2153 38.2839C70.3229 37.8866 70.2589 37.6283 70.192 37.6224Z" fill="#263238"/>
<path d="M13.4593 111.881C13.4593 111.881 14.0719 111.153 14.952 110.969C15.8322 110.786 18.0325 110.345 18.6917 109.574C19.3518 108.802 20.2319 107.81 20.2319 107.81L17.8561 100.901L8.13185 102.99L5.93146 108.434L13.4593 111.881Z" fill="#EC9A7D"/>
<path d="M17.8416 101.941C17.8416 101.941 18.146 100.566 15.8613 98.785C13.5756 97.0036 12.4075 96.6471 12.4075 96.6471C12.4075 96.6471 11.2899 93.6447 9.66535 93.8477C8.03979 94.0517 8.34513 95.4252 8.39553 95.9856C8.44594 96.5451 11.2899 101.33 11.2899 101.33C11.2899 101.33 12.1022 104.282 14.7436 104.486C17.385 104.689 17.8416 101.941 17.8416 101.941Z" fill="#EC9A7D"/>
<path d="M12.7506 91.5876C12.0876 90.9562 11.2618 90.4968 10.3089 90.5531C9.33764 90.6104 8.39836 91.7343 8.39836 91.7343C8.39836 91.7343 7.66943 91.5866 7.14502 91.6469C5.92173 91.7877 4.42993 93.2952 4.55303 94.4802C3.39081 94.2296 1.73424 95.5535 1.46283 96.757C1.34651 97.2738 1.41435 98.0149 1.41435 98.0149C1.41435 98.0149 0.19785 98.8298 0.0369422 99.7914C-0.121058 100.735 0.245342 101.607 0.800766 102.335C1.03437 102.642 1.28544 102.943 1.55007 103.238C3.38985 105.29 5.89071 107.008 7.97185 107.964C8.07848 108.014 8.18221 108.054 8.28302 108.087C9.64686 108.535 10.4349 107.571 10.7693 106.867C11.3257 107.162 11.9984 107.354 12.5616 107.076C13.5338 106.597 13.9177 105.818 14.3743 105.447L14.3665 105.438L14.3752 105.446C14.793 105.031 15.6072 104.732 16.1879 103.816C16.5242 103.285 16.406 102.595 16.1733 102.008C16.9081 101.75 17.9501 101.069 17.6515 99.6622C17.6292 99.5583 17.6011 99.4515 17.5643 99.3398C16.8392 97.163 15.4046 94.486 13.5668 92.4327C13.3012 92.1364 13.0298 91.8537 12.7506 91.5876Z" fill="#FF725E"/>
<g opacity="0.3">
<path d="M10.3185 90.5639C9.34722 90.6212 8.40796 91.745 8.40796 91.745C8.40796 91.745 7.67998 91.5984 7.15557 91.6586C5.93228 91.7994 4.44051 93.3069 4.56361 94.491C3.40236 94.2414 1.74577 95.5653 1.47436 96.7678C1.35804 97.2836 1.42492 98.0247 1.42492 98.0247C1.42492 98.0247 0.208423 98.8396 0.0465456 99.8012C0.0368524 99.8605 0.0349085 99.9178 0.0290925 99.9761C0.524418 99.3729 1.63332 98.8591 3.31607 98.8513C3.31607 98.8513 3.1193 97.37 5.13453 96.4793C5.68511 96.2365 6.17657 95.8538 6.51972 95.3565C7.55205 93.8577 8.66772 93.7674 9.77081 94.1928C10.7198 94.559 14.2035 98.4715 16.1722 102.006C16.9603 101.728 18.1041 100.964 17.5632 99.3379C16.7354 96.8513 14.9809 93.7139 12.7593 91.5964C12.0962 90.966 11.2713 90.5076 10.3185 90.5639Z" fill="black"/>
</g>
<path d="M3.73588 94.5949C4.47451 95.5536 4.58405 96.3627 4.58115 96.7755C4.74496 96.6726 4.92524 96.5725 5.13462 96.4802C5.68519 96.2374 6.17666 95.8547 6.5198 95.3574C6.64678 95.1729 6.7747 95.0106 6.90459 94.8669C6.58084 94.7212 5.94594 94.4142 5.27711 93.9752C5.10748 93.8635 4.94559 93.744 4.79535 93.6158C4.09743 93.0184 3.64284 92.2142 3.76206 90.9932C2.03375 90.0724 1.42016 91.6557 1.42016 91.6557C1.42016 91.6557 1.73326 92.5231 3.22699 94.016C3.4228 94.2132 3.59049 94.4065 3.73588 94.5949Z" fill="#263238"/>
<path d="M3.31522 98.8521C3.3569 98.8375 3.52457 99.4494 4.03056 100.319C4.52492 101.196 5.43126 102.259 6.55277 103.317C7.66362 104.386 8.75216 105.263 9.55088 105.883C10.3506 106.502 10.8566 106.872 10.8372 106.901C10.8285 106.915 10.6898 106.839 10.4494 106.689C10.2091 106.538 9.86687 106.311 9.45297 106.017C8.62516 105.429 7.51141 104.565 6.39087 103.488C5.26354 102.425 4.35336 101.318 3.88614 100.401C3.64769 99.9477 3.49744 99.5602 3.41408 99.2862C3.33072 99.0114 3.30165 98.856 3.31522 98.8521Z" fill="#263238"/>
<path d="M14.0961 105.249C14.0476 105.293 12.3009 103.42 10.1936 101.068C8.08626 98.7142 6.4171 96.7725 6.46556 96.7298C6.51403 96.6861 8.26073 98.5578 10.368 100.911C12.4754 103.264 14.1445 105.207 14.0961 105.249Z" fill="#263238"/>
<path d="M7.9021 94.1285C7.89628 94.1198 8.03878 94.0052 8.35381 93.9265C8.66496 93.8459 9.16415 93.8614 9.68953 94.1071C10.2188 94.3306 10.7742 94.7628 11.2899 95.2999C11.8201 95.8254 12.3813 96.4257 12.9397 97.0823C14.0573 98.3965 14.9375 99.6923 15.5171 100.661C15.8089 101.144 16.027 101.546 16.1714 101.826C16.3129 102.108 16.3847 102.267 16.3711 102.275C16.3381 102.294 15.993 101.688 15.3775 100.749C14.7649 99.8089 13.8712 98.5393 12.7623 97.2348C12.2088 96.5831 11.6563 95.9828 11.1387 95.4524C10.6317 94.9095 10.1228 94.4937 9.61975 94.2577C9.13024 94.0061 8.67367 93.9673 8.37221 94.0158C8.06784 94.0634 7.91082 94.1479 7.9021 94.1285Z" fill="#263238"/>
<path d="M7.69464 94.2715C7.70433 94.3026 7.38931 94.4162 7.05586 94.8349C6.88332 95.0359 6.70594 95.2992 6.48396 95.5867C6.26101 95.883 5.93825 96.1501 5.57959 96.3657C5.22482 96.5862 4.85066 96.7445 4.55986 96.9193C4.26325 97.099 4.02188 97.3021 3.84449 97.4934C3.47809 97.8771 3.43059 98.22 3.39376 98.2112C3.36565 98.219 3.35789 97.8295 3.71847 97.3856C3.89198 97.1661 4.13625 96.9368 4.44449 96.7358C4.76049 96.5328 5.11237 96.3803 5.45745 96.1646C5.8035 95.9558 6.09913 95.7188 6.31626 95.4497C6.54018 95.1787 6.73791 94.9174 6.93372 94.7222C7.31757 94.3094 7.69367 94.2356 7.69464 94.2715Z" fill="#263238"/>
<path d="M8.38577 92.1423C8.42552 92.1986 8.01548 92.5056 7.76927 93.0563C7.51046 93.6022 7.54343 94.1131 7.47461 94.1199C7.41645 94.1423 7.26718 93.577 7.55604 92.9582C7.83812 92.3366 8.36445 92.084 8.38577 92.1423Z" fill="#263238"/>
<path d="M1.72161 97.6826C1.67605 97.6428 2.12097 97.1387 2.87026 96.8278C3.61761 96.5112 4.28743 96.5491 4.28452 96.6093C4.28937 96.6792 3.66219 96.7463 2.96137 97.0445C2.2557 97.3359 1.76717 97.7351 1.72161 97.6826Z" fill="#263238"/>
<path d="M17.8551 100.902L36.3712 91.5749C36.3712 91.5749 46.8399 69.2431 49.1285 65.8531C51.417 62.4632 54.1166 60.4069 54.1166 60.4069L56.256 78.7611C56.256 78.7611 48.8736 96.6365 46.4861 99.5281C44.0977 102.42 39.5767 103.4 39.2782 103.5C38.9796 103.6 19.0193 108.667 19.0193 108.667L17.8551 100.902Z" fill="#EC9A7D"/>
<path d="M18.016 103.598C18.0112 103.65 17.6312 103.583 17.0748 103.752C16.8005 103.838 16.4855 103.987 16.2063 104.236C15.9242 104.485 15.6829 104.832 15.4783 105.231C15.077 106.032 14.7969 106.848 14.415 107.348C14.0554 107.867 13.6783 108.035 13.6677 108.007C13.6328 107.962 13.941 107.743 14.2289 107.227C14.5429 106.728 14.7775 105.934 15.1992 105.086C15.4153 104.666 15.6887 104.283 16.0192 104.015C16.3488 103.744 16.7123 103.602 17.0196 103.537C17.6467 103.41 18.0286 103.566 18.016 103.598Z" fill="#AE7461"/>
<path d="M7.40872 105.975C7.40872 105.975 6.87848 105.781 6.41999 105.975C5.9615 106.168 4.20218 108.85 4.10621 109.067C4.00928 109.284 3.98601 110.468 4.85356 110.589C5.72111 110.709 6.37251 110.129 6.37251 110.129L7.40872 109.622C7.40872 109.622 7.31276 111.409 7.69758 111.845C8.08338 112.28 8.75801 112.376 9.11957 112.086C9.48112 111.797 10.8314 110.782 10.8314 110.782C10.8314 110.782 10.9516 112.545 11.6757 112.738C12.3988 112.931 13.1461 112.618 13.339 112.352C13.5319 112.085 13.6522 108.873 13.4593 108.462C13.2664 108.051 12.1575 108.003 11.7959 108.656C11.4343 109.307 11.1813 110.636 11.1813 110.636L10.1325 109.694C10.1325 109.694 10.4941 106.626 10.084 106.167C9.67401 105.708 8.73862 105.442 8.33829 106.167C7.93796 106.892 7.72083 108.293 7.72083 108.293L7.38352 108.173C7.38546 108.173 8.27724 106.796 7.40872 105.975Z" fill="#EC9A7D"/>
<path d="M6.43544 109.579C6.3957 109.542 6.76112 109.197 7.10135 108.495C7.26904 108.147 7.42416 107.708 7.4891 107.203C7.52497 106.954 7.52981 106.69 7.4513 106.457C7.37569 106.224 7.18376 106.069 6.93658 106.079C6.42187 106.112 5.97307 106.555 5.63284 106.909C5.29163 107.289 5.03669 107.682 4.83411 108.02C4.43474 108.699 4.20599 109.14 4.16237 109.119C4.12844 109.103 4.28257 108.633 4.63928 107.912C4.82151 107.553 5.06481 107.133 5.41571 106.717C5.59116 106.51 5.79763 106.309 6.03511 106.128C6.27551 105.947 6.56726 105.779 6.93075 105.763C7.30588 105.734 7.66161 106.035 7.74401 106.356C7.84385 106.67 7.82253 106.976 7.77794 107.244C7.69167 107.784 7.50364 108.245 7.30008 108.598C6.88521 109.312 6.45483 109.605 6.43544 109.579Z" fill="#AE7461"/>
<path d="M7.34465 110.544C7.302 110.536 7.36888 109.915 7.51137 108.919C7.59279 108.386 7.68197 107.8 7.77793 107.169C7.83318 106.84 7.89815 106.473 8.09395 106.125C8.28975 105.784 8.63871 105.464 9.10981 105.44C9.58672 105.427 9.95795 105.755 10.1441 106.102C10.335 106.463 10.367 106.846 10.3699 107.186C10.368 107.866 10.2875 108.47 10.1799 108.969C9.95891 109.969 9.65262 110.528 9.6216 110.513C9.57313 110.495 9.8019 109.912 9.96184 108.928C10.0404 108.437 10.0946 107.844 10.0811 107.191C10.0714 106.87 10.0297 106.533 9.87461 106.251C9.72339 105.973 9.43162 105.741 9.12143 105.754C8.80931 105.765 8.52045 106.004 8.36148 106.279C8.19573 106.563 8.12593 106.898 8.06389 107.22C7.9437 107.847 7.83223 108.427 7.73045 108.957C7.53271 109.944 7.38827 110.552 7.34465 110.544Z" fill="#AE7461"/>
<path d="M13.3846 112.189C13.3352 112.177 13.4515 111.713 13.4748 110.957C13.4835 110.58 13.467 110.129 13.3856 109.64C13.3032 109.162 13.1878 108.58 12.7517 108.317C12.5365 108.185 12.2893 108.168 12.1022 108.286C11.9103 108.399 11.7765 108.619 11.6738 108.834C11.4673 109.28 11.3461 109.714 11.2744 110.082C11.1348 110.824 11.1726 111.302 11.1222 111.305C11.0873 111.311 10.9671 110.832 11.0553 110.049C11.1019 109.659 11.2056 109.198 11.4111 108.714C11.5187 108.475 11.6592 108.203 11.9432 108.021C12.2292 107.832 12.6353 107.866 12.9135 108.046C13.2092 108.219 13.3895 108.515 13.4903 108.789C13.594 109.068 13.6367 109.34 13.6725 109.596C13.7423 110.112 13.7355 110.582 13.6968 110.97C13.6144 111.752 13.4195 112.201 13.3846 112.189Z" fill="#AE7461"/>
<path d="M3.32491 103.365C3.32491 103.365 2.722 102.178 1.85542 102.861C1.38239 103.233 1.14298 104.418 1.28837 104.988C1.43377 105.558 1.87576 106.709 2.50485 107.075C3.13395 107.442 5.02123 106.259 5.02123 106.259L3.32491 103.365Z" fill="#EC9A7D"/>
<path d="M81.9169 217.902L98.8161 231.791L81.6794 252.948C79.763 251.184 84.5787 236.945 84.5787 236.945L73.3868 228.492L81.9169 217.902Z" fill="#455A64"/>
<g opacity="0.6">
<path d="M88.9629 229.658C89.4059 229.34 90.0951 229.43 90.4305 229.861C90.7659 230.292 90.6806 230.995 90.2424 231.321C89.8053 231.647 88.9746 231.564 88.6896 231.098C88.4036 230.632 88.55 229.813 89.0531 229.601" fill="white"/>
</g>
<g opacity="0.6">
<path d="M98.7493 231.733L97.0491 230.322L81.3451 251.296C81.3451 251.296 80.999 252.574 81.7502 253L98.7493 231.733Z" fill="white"/>
</g>
<path d="M84.1929 237.2C84.2985 237.28 84.7638 236.801 85.5073 236.562C86.244 236.304 86.9031 236.406 86.939 236.277C86.9962 236.165 86.2547 235.818 85.36 236.123C84.4633 236.421 84.0804 237.145 84.1929 237.2Z" fill="#263238"/>
<path d="M83.3118 240.164C83.3923 240.269 83.9303 239.964 84.6505 239.968C85.3707 239.95 85.9145 240.246 85.993 240.139C86.088 240.055 85.5423 239.492 84.6466 239.504C83.7509 239.509 83.2159 240.081 83.3118 240.164Z" fill="#263238"/>
<path d="M84.9412 243.58C85.0391 243.505 84.6407 242.941 83.8614 242.748C83.083 242.548 82.4655 242.855 82.5159 242.967C82.5537 243.095 83.1102 243.028 83.748 243.197C84.3897 243.35 84.8481 243.674 84.9412 243.58Z" fill="#263238"/>
<path d="M81.8558 234.99C81.9847 235.023 82.2271 234.433 82.7389 233.881C83.24 233.319 83.8042 233.024 83.7596 232.898C83.7334 232.778 82.9919 232.911 82.3977 233.57C81.7986 234.223 81.7337 234.975 81.8558 234.99Z" fill="#263238"/>
<path d="M79.7592 232.449C79.8009 232.485 80.1954 232.128 80.6122 231.385C80.8197 231.015 81.0232 230.546 81.1705 230C81.2442 229.727 81.3034 229.436 81.3412 229.13C81.3576 228.981 81.3877 228.815 81.3518 228.608C81.3373 228.406 81.1163 228.119 80.842 228.115C80.5919 228.092 80.367 228.226 80.24 228.375C80.1082 228.527 80.0374 228.679 79.9725 228.817C79.8387 229.099 79.7379 229.383 79.6642 229.659C79.5208 230.213 79.4868 230.73 79.513 231.157C79.5692 232.017 79.8184 232.497 79.8668 232.479C79.9386 232.46 79.8096 231.958 79.8397 231.154C79.8552 230.754 79.9201 230.279 80.0743 229.777C80.1528 229.526 80.2526 229.27 80.3796 229.016C80.5027 228.744 80.6549 228.552 80.8012 228.576C80.8565 228.586 80.873 228.596 80.9011 228.696C80.9224 228.793 80.9079 228.932 80.8924 229.078C80.8623 229.365 80.8158 229.639 80.7586 229.898C80.6423 230.416 80.4814 230.87 80.3205 231.242C79.9967 231.983 79.702 232.405 79.7592 232.449Z" fill="#263238"/>
<path d="M80.0161 232.434C80.0617 232.411 79.8581 231.905 79.2213 231.324C78.9043 231.038 78.4749 230.745 77.9466 230.527C77.682 230.419 77.3931 230.331 77.0858 230.274C76.7766 230.228 76.3753 230.153 76.0041 230.516C75.8267 230.719 75.849 231.026 75.9401 231.199C76.0264 231.384 76.1379 231.499 76.2396 231.623C76.4548 231.863 76.7 232.055 76.9511 232.203C77.4542 232.502 77.9776 232.622 78.4099 232.639C79.292 232.671 79.7641 232.34 79.736 232.303C79.7127 232.226 79.2213 232.425 78.44 232.313C78.0542 232.258 77.6006 232.119 77.175 231.84C76.9628 231.702 76.7582 231.53 76.5799 231.323C76.3821 231.107 76.2697 230.876 76.3608 230.81C76.4442 230.703 76.7582 230.663 77.0073 230.721C77.2846 230.767 77.5482 230.837 77.7935 230.925C78.282 231.103 78.6949 231.342 79.0148 231.578C79.6584 232.054 79.9551 232.478 80.0161 232.434Z" fill="#263238"/>
<path d="M89.5736 229.246L89.369 251.146L62.1775 251.03C62.3481 248.428 76.4372 243.262 76.4372 243.262L75.9943 229.225L89.5736 229.246Z" fill="#455A64"/>
<g opacity="0.6">
<path d="M84.8491 242.117C85.3745 242.264 85.7361 242.859 85.611 243.391C85.487 243.923 84.8869 244.296 84.3587 244.159C83.8304 244.022 83.3748 243.322 83.558 242.807C83.7412 242.292 84.4701 241.892 84.949 242.152" fill="white"/>
</g>
<g opacity="0.6">
<path d="M89.372 251.059L89.403 248.847L63.2516 249.736C63.2516 249.736 62.0419 250.266 62.1805 251.121L89.372 251.059Z" fill="white"/>
</g>
<path d="M75.9963 243.122C76.0002 243.255 76.6632 243.318 77.3156 243.748C77.9786 244.162 78.313 244.74 78.4351 244.687C78.5573 244.662 78.3634 243.866 77.5647 243.359C76.7718 242.844 75.9682 242.999 75.9963 243.122Z" fill="#263238"/>
<path d="M73.1397 244.291C73.1087 244.42 73.6825 244.649 74.1313 245.214C74.5966 245.766 74.7081 246.375 74.8399 246.369C74.965 246.39 75.06 245.611 74.489 244.92C73.9239 244.224 73.1426 244.165 73.1397 244.291Z" fill="#263238"/>
<path d="M71.5054 247.706C71.6256 247.735 71.8136 247.07 71.4753 246.341C71.1429 245.607 70.5177 245.318 70.4614 245.429C70.3858 245.538 70.7871 245.931 71.0556 246.534C71.3377 247.131 71.3736 247.692 71.5054 247.706Z" fill="#263238"/>
<path d="M76.2492 239.911C76.3045 240.033 76.9142 239.852 77.6645 239.907C78.4157 239.945 78.9992 240.201 79.068 240.086C79.1456 239.99 78.5776 239.496 77.6926 239.444C76.8095 239.386 76.1843 239.807 76.2492 239.911Z" fill="#263238"/>
<path d="M76.9103 236.682C76.9084 236.736 77.4328 236.821 78.2722 236.681C78.69 236.61 79.1824 236.476 79.6991 236.249C79.9569 236.135 80.2215 235.998 80.4832 235.836C80.6093 235.755 80.7576 235.675 80.8962 235.516C81.0435 235.378 81.1288 235.026 80.9602 234.809C80.8215 234.599 80.5763 234.508 80.3795 234.502C80.1789 234.495 80.017 234.534 79.8687 234.57C79.5653 234.642 79.2813 234.742 79.0205 234.858C78.5 235.092 78.0764 235.39 77.7614 235.679C77.1274 236.261 76.9103 236.758 76.9559 236.783C77.016 236.827 77.3252 236.412 77.9688 235.931C78.2897 235.692 78.6997 235.445 79.1863 235.25C79.4296 235.154 79.6923 235.071 79.9695 235.012C80.2574 234.937 80.5026 234.936 80.5763 235.066C80.6025 235.115 80.6063 235.135 80.5453 235.218C80.4823 235.296 80.366 235.372 80.2419 235.451C80.0005 235.608 79.7582 235.743 79.5207 235.86C79.0457 236.094 78.5911 236.253 78.2014 236.36C77.4211 236.575 76.9093 236.609 76.9103 236.682Z" fill="#263238"/>
<path d="M77.0829 236.873C77.1294 236.894 77.395 236.419 77.4473 235.557C77.4716 235.13 77.4299 234.611 77.268 234.062C77.1856 233.788 77.0732 233.508 76.9249 233.233C76.7669 232.963 76.574 232.601 76.0592 232.54C75.7898 232.528 75.5658 232.738 75.4883 232.918C75.3972 233.102 75.3788 233.26 75.3468 233.417C75.2954 233.736 75.3003 234.048 75.342 234.336C75.4253 234.916 75.6599 235.4 75.9177 235.748C76.446 236.456 76.9995 236.619 77.0111 236.573C77.0557 236.506 76.5943 236.248 76.1901 235.567C75.9914 235.232 75.815 234.79 75.7646 234.283C75.7384 234.03 75.7442 233.763 75.7927 233.494C75.8363 233.204 75.9458 232.971 76.0544 233.001C76.1891 233 76.4179 233.219 76.5284 233.45C76.667 233.695 76.7766 233.946 76.8628 234.191C77.0315 234.685 77.1032 235.156 77.1207 235.554C77.1546 236.355 77.0111 236.853 77.0829 236.873Z" fill="#263238"/>
<path d="M87.2434 102.384C87.2434 102.384 91.2729 105.416 93.1446 109.334C95.0164 113.252 98.6737 123.009 98.6737 123.009C98.6737 123.009 101.256 135.403 100.456 141.412C99.6566 147.422 94.2972 188.518 94.2972 188.518C94.2972 188.518 94.5618 228.469 90.7659 235.592L89.9187 239.437L74.5898 236.71L74.6858 234.404L71.0653 156.068L61.8402 102.739L87.2434 102.384Z" fill="#263238"/>
<path d="M53.4148 114.032C53.4148 114.032 44.2499 164.596 43.4414 173.375C42.633 182.153 73.8298 228.424 73.8298 228.424L88.0954 213.538L67.6213 175.401L74.2757 136.966L65.0186 103.007L57.7051 100.903L53.4148 114.032Z" fill="#263238"/>
<path d="M93.1446 223.153C93.1446 223.153 93.1369 223.54 93.0351 224.271C92.9411 225.004 92.7617 226.082 92.5078 227.473C91.9979 230.256 91.1711 234.291 90.0602 239.331L90.037 239.436L89.9304 239.417C85.5975 238.657 80.397 237.743 74.5956 236.725L74.4793 236.704L74.4744 236.586C74.0479 226.043 73.5381 213.442 72.9923 199.928C72.4263 185.387 71.9018 171.905 71.4715 160.843L71.4724 160.856C70.3228 151.97 69.3729 144.622 68.7079 139.48C68.3871 136.925 68.135 134.921 67.9615 133.538C67.882 132.865 67.82 132.344 67.7764 131.978C67.7366 131.624 67.7279 131.441 67.7279 131.441C67.7279 131.441 67.7667 131.621 67.82 131.972C67.8733 132.338 67.9489 132.857 68.0468 133.528C68.2388 134.908 68.516 136.91 68.8708 139.46C69.5648 144.598 70.5564 151.94 71.7565 160.82L71.7574 160.826V160.833C72.2052 171.893 72.751 185.374 73.3394 199.915C73.8657 213.429 74.3572 226.031 74.7681 236.575L74.647 236.436C80.4436 237.48 85.6411 238.417 89.9701 239.197L89.8412 239.283C90.9811 234.252 91.8409 230.225 92.3876 227.451C92.66 226.064 92.8597 224.992 92.9731 224.263C93.0361 223.9 93.071 223.622 93.0971 223.436C93.1233 223.248 93.1446 223.153 93.1446 223.153Z" fill="#455A64"/>
<path d="M94.0423 70.0095L92.5146 99.2407L100.022 117.375L52.8169 115.935L56.8803 99.9818L55.276 90.8668C50.8801 82.4726 54.3261 71.515 54.3261 71.515L52.3283 56.4488L66.4805 51.6698C66.4805 51.6698 67.2414 57.694 73.0738 57.221C80.5793 56.6119 82.1108 50.6567 82.1108 50.6567L95.4924 55.2385L94.0423 70.0095Z" fill="#455A64"/>
<path d="M95.4933 55.2384C95.4933 55.2384 102.094 57.2471 103.591 64.0251C105.163 71.1459 107.501 81.0865 107.501 81.0865L92.5049 83.3409L93.6332 59.4103L95.4933 55.2384Z" fill="#455A64"/>
<path d="M52.3273 56.4488C52.3273 56.4488 49.2458 58.9529 45.5837 67.4181C43.1972 72.9333 40.4637 79.8093 40.4637 79.8093L53.852 87.1584L56.5565 77.4732L52.3273 56.4488Z" fill="#455A64"/>
<path d="M55.5804 69.7355C55.6007 69.7433 55.5232 70.0055 55.3671 70.4718C55.1888 70.9982 54.9658 71.6578 54.6993 72.4426C54.4317 73.2789 54.1099 74.2726 53.8317 75.3964C53.5458 76.5173 53.2937 77.7665 53.19 79.0943C52.9709 81.7547 53.3713 84.1675 53.6892 85.8868C53.856 86.6978 53.9965 87.3807 54.1089 87.9246C54.2097 88.4064 54.2553 88.6754 54.234 88.6803C54.2127 88.6861 54.1274 88.4268 53.9897 87.9538C53.8472 87.4817 53.6727 86.7901 53.4711 85.9324C53.097 84.218 52.653 81.778 52.876 79.068C52.9816 77.7169 53.2462 76.4513 53.5506 75.3236C53.8463 74.192 54.1933 73.1993 54.488 72.3697C54.7962 71.5441 55.054 70.8797 55.2508 70.4281C55.4437 69.9745 55.56 69.7277 55.5804 69.7355Z" fill="#263238"/>
<path d="M93.8853 69.318C93.9066 69.319 93.9047 69.6832 93.8824 70.3418C93.8504 71.0537 93.8077 71.993 93.7564 73.1285C93.6362 75.4811 93.4491 78.7302 93.2223 82.3173C92.9954 85.9064 92.7725 89.1535 92.5961 91.5022C92.504 92.6357 92.4284 93.5731 92.3702 94.2831C92.3101 94.9387 92.2665 95.301 92.2442 95.2991C92.2229 95.2972 92.2248 94.9319 92.2481 94.2734C92.2801 93.5614 92.3227 92.6221 92.3741 91.4857C92.4943 89.1331 92.6814 85.885 92.9082 82.2969C93.135 78.7107 93.357 75.4646 93.5344 73.1159C93.6265 71.9824 93.7021 71.045 93.7602 70.335C93.8194 69.6793 93.863 69.317 93.8853 69.318Z" fill="#263238"/>
<path d="M99.8805 60.1146C99.9474 60.17 98.9733 61.4754 97.7044 63.0305C96.4346 64.5866 95.3519 65.8017 95.284 65.7473C95.2171 65.692 96.1913 64.3865 97.4601 62.8314C98.73 61.2753 99.8137 60.0592 99.8805 60.1146Z" fill="#263238"/>
<path d="M54.8708 69.4422C54.7923 69.4869 53.8249 67.9124 52.5667 66.0173C51.3115 64.1193 50.2384 62.6157 50.3102 62.5603C50.3761 62.5089 51.5664 63.9338 52.8285 65.8434C54.0944 67.7492 54.9445 69.4014 54.8708 69.4422Z" fill="#263238"/>
<path d="M69.6375 94.4629C69.4213 94.4425 63.0286 93.644 62.288 93.1788C61.7219 92.8233 59.8337 89.4479 58.969 87.7364C58.7131 87.2294 58.8537 86.3086 59.318 85.9822C60.4289 85.2022 62.1126 84.16 62.8997 84.3737C64.026 84.6796 65.9773 85.9084 65.9773 85.9084C65.9773 85.9084 65.608 87.6558 64.0861 87.1585C62.5633 86.6612 61.8886 87.276 61.8886 87.276L63.7788 89.9307H73.3345L69.6375 94.4629Z" fill="#EC9A7D"/>
<path d="M59.51 88.6804C59.51 88.6804 61.3256 94.4832 62.0118 94.6531C63.365 94.9883 71.1439 95.2641 71.1439 95.2641L72.0172 93.1388L63.3747 92.082L59.51 88.6804Z" fill="#EC9A7D"/>
<path d="M104.572 81.5276C104.572 81.5276 103.246 97.3864 102.69 99.8798C100.91 107.854 97.8333 107.245 94.0423 106.909C92.1608 106.742 69.5542 94.7075 69.5542 94.7075L72.8092 89.4672L92.3411 93.9781L93.0652 83.2585L104.572 81.5276Z" fill="#EC9A7D"/>
<path d="M61.4845 84.6348C61.5029 84.6649 61.1239 84.931 60.4784 85.3691C60.1575 85.5896 59.763 85.8499 59.3413 86.1627C58.8945 86.4094 58.8654 87.0436 59.0224 87.6119L59.0089 87.5798C59.3055 88.082 59.6224 88.6182 59.952 89.1767C60.3824 89.9198 60.7924 90.6279 61.1734 91.2864C61.5533 91.9294 61.8558 92.5462 62.1737 92.9872C62.4926 93.435 62.9027 93.6399 63.2002 93.6827C63.4998 93.7274 63.6674 93.6497 63.6762 93.6769C63.6859 93.6875 63.5278 93.8128 63.1886 93.8041C62.858 93.8012 62.3666 93.5933 61.9992 93.1252C61.6309 92.6618 61.3197 92.0703 60.9233 91.4331C60.5356 90.7784 60.1187 90.0752 59.6806 89.336C59.3549 88.7755 59.0418 88.2365 58.7501 87.7323L58.7394 87.7139L58.7355 87.6993C58.6483 87.3623 58.6182 87.0388 58.6773 86.7154C58.7084 86.5561 58.7655 86.3997 58.8567 86.2627C58.9497 86.1267 59.0864 86.0267 59.1911 85.9538C59.637 85.6479 60.0412 85.4089 60.3785 85.2098C61.0532 84.8144 61.4661 84.6047 61.4845 84.6348Z" fill="#AE7461"/>
<path d="M74.3591 89.9307C74.1119 89.7753 73.0088 87.3974 70.318 87.0273C67.6271 86.6573 65.1059 87.0254 64.597 86.6485C64.0881 86.2717 60.9398 84.8409 60.4958 86.2843C60.0509 87.7277 61.7113 88.4309 62.4122 88.7748C64.1395 89.6237 68.6624 90.866 68.6624 90.866L74.3591 89.9307Z" fill="#EC9A7D"/>
<path d="M66.7742 90.4551C66.7664 90.4755 66.4504 90.3765 65.8863 90.1793C65.2708 89.9559 64.4701 89.6664 63.5066 89.3167C63.0064 89.1215 62.4568 88.9496 61.8675 88.6815C61.3072 88.3998 60.6519 88.0132 60.3621 87.2692C60.237 86.8952 60.2448 86.4824 60.4183 86.0978C60.6044 85.6781 61.0929 85.5072 61.4875 85.5033C62.3085 85.4926 63.0888 85.7568 63.8497 86.0783C64.0397 86.1628 64.2258 86.2503 64.409 86.3503C64.5001 86.3998 64.5913 86.4533 64.6833 86.5174C64.7425 86.5543 64.8122 86.5795 64.9014 86.6019C65.2601 86.6738 65.6565 86.6747 66.0355 86.6835C66.8003 86.6912 67.5458 86.6883 68.2543 86.7175C68.9639 86.7447 69.6385 86.8 70.2647 86.8904C70.9006 86.9797 71.4783 87.1808 71.9562 87.4431C72.9178 87.9744 73.4964 88.6718 73.8464 89.1545C74.0228 89.3983 74.1459 89.5975 74.2293 89.7296C74.3117 89.8646 74.363 89.9209 74.3582 89.9306C74.3262 89.9646 74.1168 89.6917 73.7495 89.2293C73.3753 88.7747 72.785 88.122 71.8534 87.6402C70.9316 87.1274 69.6472 87.0574 68.2446 87.0079C67.5419 86.9865 66.8042 86.9962 66.0317 86.9923C65.6439 86.9846 65.2533 86.9894 64.8307 86.9079C64.726 86.8836 64.6077 86.8437 64.4972 86.7719C64.4245 86.7223 64.3431 86.6738 64.2568 86.6271C64.0862 86.5339 63.9059 86.4494 63.7227 86.3678C62.9918 86.056 62.2222 85.8044 61.5001 85.8132C61.1424 85.8209 60.8118 85.9501 60.6868 86.2308C60.553 86.5164 60.5346 86.8806 60.6345 87.175C60.8564 87.785 61.4477 88.1735 61.9799 88.4474C62.5295 88.7106 63.0956 88.9039 63.5851 89.1099C64.534 89.4964 65.3221 89.8189 65.9289 90.0656C66.4814 90.2968 66.7819 90.4347 66.7742 90.4551Z" fill="#AE7461"/>
<path d="M112.938 114.5C97.401 114.5 81.8617 114.5 66.3225 114.5C65.1224 114.5 64.3208 115.166 64.5302 115.988C66.3632 123.152 68.1962 130.317 70.0292 137.482C70.2395 138.303 71.1429 138.968 72.0473 138.968C83.7694 138.968 95.4924 138.968 107.214 138.968C108.12 138.968 109.023 138.303 109.233 137.482C111.065 130.317 112.898 123.152 114.73 115.988C114.941 115.166 114.138 114.5 112.938 114.5ZM73.0864 135.42C73.0864 135.535 73.0205 135.628 72.9401 135.628H72.0095C71.9281 135.628 71.8641 135.535 71.8641 135.42V128.342H73.0864V135.42ZM73.0864 127.068H71.8641V119.989C71.8641 119.875 71.9291 119.782 72.0095 119.782H72.9401C73.0205 119.782 73.0864 119.875 73.0864 119.989V127.068ZM75.374 135.42C75.374 135.535 75.3091 135.628 75.2277 135.628H74.2971C74.2167 135.628 74.1508 135.535 74.1508 135.42V128.342H75.374V135.42ZM75.374 127.068H74.1508V119.989C74.1508 119.875 74.2167 119.782 74.2971 119.782H75.2277C75.3091 119.782 75.374 119.875 75.374 119.989V127.068ZM77.6607 135.42C77.6607 135.535 77.5948 135.628 77.5153 135.628H76.5838C76.5033 135.628 76.4384 135.535 76.4384 135.42V128.342H77.6607V135.42ZM77.6607 127.068H76.4384V119.989C76.4384 119.875 76.5033 119.782 76.5838 119.782H77.5153C77.5957 119.782 77.6607 119.875 77.6607 119.989V127.068ZM82.2359 135.42C82.2359 135.535 82.1709 135.628 82.0905 135.628H81.159C81.0785 135.628 81.0136 135.535 81.0136 135.42V128.342H82.2359V135.42ZM82.2359 127.068H81.0136V119.989C81.0136 119.875 81.0785 119.782 81.159 119.782H82.0905C82.1709 119.782 82.2359 119.875 82.2359 119.989V127.068ZM84.5235 135.42C84.5235 135.535 84.4576 135.628 84.3771 135.628H83.4466C83.3652 135.628 83.3002 135.535 83.3002 135.42V128.342H84.5235V135.42ZM84.5235 127.068H83.3002V119.989C83.3002 119.875 83.3652 119.782 83.4466 119.782H84.3771C84.4576 119.782 84.5235 119.875 84.5235 119.989V127.068ZM86.8111 135.42C86.8111 135.535 86.7452 135.628 86.6657 135.628H85.7332C85.6537 135.628 85.5888 135.535 85.5888 135.42V128.342H86.8111V135.42ZM86.8111 127.068H85.5888V119.989C85.5888 119.875 85.6537 119.782 85.7332 119.782H86.6657C86.7452 119.782 86.8111 119.875 86.8111 119.989V127.068ZM89.0987 135.42C89.0987 135.535 89.0328 135.628 88.9524 135.628H88.0208C87.9404 135.628 87.8755 135.535 87.8755 135.42V128.342H89.0987V135.42ZM89.0987 127.068H87.8755V119.989C87.8755 119.875 87.9404 119.782 88.0208 119.782H88.9524C89.0319 119.782 89.0987 119.875 89.0987 119.989V127.068ZM91.3863 135.42C91.3863 135.535 91.3204 135.628 91.24 135.628H90.3094C90.229 135.628 90.164 135.535 90.164 135.42V128.342H91.3873V135.42H91.3863ZM91.3863 127.068H90.163V119.989C90.163 119.875 90.228 119.782 90.3084 119.782H91.239C91.3195 119.782 91.3854 119.875 91.3854 119.989L91.3863 127.068ZM93.673 135.42C93.673 135.535 93.6071 135.628 93.5266 135.628H92.5961C92.5156 135.628 92.4507 135.535 92.4507 135.42V128.342H93.674V135.42H93.673ZM93.673 127.068H92.4497V119.989C92.4497 119.875 92.5146 119.782 92.5951 119.782H93.5256C93.6061 119.782 93.672 119.875 93.672 119.989V127.068H93.673ZM95.9606 135.42C95.9606 135.535 95.8957 135.628 95.8142 135.628H94.8827C94.8023 135.628 94.7373 135.535 94.7373 135.42V128.342H95.9606V135.42ZM95.9606 127.068H94.7373V119.989C94.7373 119.875 94.8023 119.782 94.8827 119.782H95.8142C95.8947 119.782 95.9606 119.875 95.9606 119.989V127.068ZM98.2472 135.42C98.2472 135.535 98.1823 135.628 98.1018 135.628H97.1703C97.0899 135.628 97.0249 135.535 97.0249 135.42V128.342H98.2472V135.42ZM98.2472 127.068H97.0249V119.989C97.0249 119.875 97.0899 119.782 97.1703 119.782H98.1018C98.1823 119.782 98.2472 119.875 98.2472 119.989V127.068ZM102.822 135.42C102.822 135.535 102.758 135.628 102.677 135.628H101.746C101.665 135.628 101.601 135.535 101.601 135.42V128.342H102.823V135.42H102.822ZM102.822 127.068H101.6V119.989C101.6 119.875 101.665 119.782 101.745 119.782H102.676C102.757 119.782 102.822 119.875 102.822 119.989L102.822 127.068ZM105.11 135.42C105.11 135.535 105.044 135.628 104.964 135.628H104.033C103.953 135.628 103.888 135.535 103.888 135.42V128.342H105.11V135.42ZM105.11 127.068H103.888V119.989C103.888 119.875 103.953 119.782 104.033 119.782H104.964C105.044 119.782 105.11 119.875 105.11 119.989V127.068ZM107.398 135.42C107.398 135.535 107.333 135.628 107.252 135.628H106.321C106.24 135.628 106.175 135.535 106.175 135.42V128.342H107.398V135.42ZM107.398 127.068H106.175V119.989C106.175 119.875 106.24 119.782 106.321 119.782H107.252C107.333 119.782 107.398 119.875 107.398 119.989V127.068Z" fill="#FF725E"/>
<path d="M117.625 115.753C117.625 116.121 117.352 116.419 117.015 116.419H62.2445C61.9081 116.419 61.6357 116.121 61.6357 115.753V113.311C61.6357 112.944 61.9081 112.646 62.2445 112.646H117.015C117.352 112.646 117.625 112.944 117.625 113.311V115.753Z" fill="#FF725E"/>
<path d="M116.521 116.411C116.521 116.498 104.575 116.568 89.8422 116.568C75.1046 116.568 63.1615 116.497 63.1615 116.411C63.1615 116.324 75.1046 116.254 89.8422 116.254C104.575 116.253 116.521 116.324 116.521 116.411Z" fill="#263238"/>
<g opacity="0.3">
<path d="M65.704 116.411C73.4625 117.759 80.3651 118.373 88.2651 118.444C96.6808 118.52 106.006 118.091 114.214 116.411H65.704Z" fill="black"/>
</g>
<path d="M91.4541 115.318C90.6825 115.318 90.0583 114.692 90.0583 113.92V92.598C90.0583 91.8248 90.6835 91.1993 91.4541 91.1993C92.2257 91.1993 92.85 91.8258 92.85 92.598V113.92C92.85 114.692 92.2247 115.318 91.4541 115.318Z" fill="#455A64"/>
<path d="M91.4542 115.318C91.4513 115.298 91.6413 115.321 91.9514 115.191C92.2481 115.072 92.6998 114.722 92.7773 114.087C92.7676 112.757 92.755 110.884 92.7386 108.584C92.7289 106.248 92.7172 103.481 92.7046 100.41C92.7017 98.8707 92.6988 97.2564 92.6959 95.5837C92.6949 94.7464 92.694 93.8946 92.693 93.0311C92.6891 92.8184 92.7037 92.5862 92.6765 92.4056C92.6474 92.2152 92.5738 92.0297 92.4584 91.8733C92.2335 91.5537 91.8487 91.3565 91.4552 91.3565C91.0606 91.3555 90.6758 91.5527 90.4509 91.8723C90.3346 92.0287 90.261 92.2142 90.2319 92.4046C90.2038 92.5853 90.2183 92.8164 90.2144 93.0301C90.2135 93.8946 90.2125 94.7464 90.2115 95.5837C90.2086 97.2573 90.2057 98.8717 90.2028 100.411C90.1902 103.482 90.1786 106.249 90.1689 108.586C90.1534 110.887 90.1398 112.759 90.1311 114.089C90.2086 114.724 90.6603 115.073 90.9569 115.193C91.2681 115.321 91.4571 115.299 91.4542 115.318C91.4542 115.318 91.2671 115.366 90.9337 115.25C90.6167 115.145 90.1156 114.794 90.0099 114.102C89.9653 112.787 89.9672 110.914 89.9469 108.584C89.9372 106.248 89.9256 103.48 89.913 100.409C89.9101 98.8697 89.9071 97.2554 89.9042 95.5818C89.9033 94.7445 89.9023 93.8927 89.9023 93.0282C89.9072 92.8096 89.8878 92.6047 89.9227 92.3541C89.9595 92.1151 90.0525 91.882 90.197 91.6858C90.4781 91.2866 90.9627 91.0379 91.4561 91.0399C91.9495 91.0389 92.4332 91.2885 92.7143 91.6877C92.8588 91.8839 92.9508 92.1161 92.9877 92.356C93.0216 92.6066 93.0022 92.8116 93.008 93.0301C93.007 93.8946 93.0061 94.7465 93.0051 95.5828C93.0022 97.2564 92.9993 98.8707 92.9964 100.409C92.9838 103.48 92.9721 106.247 92.9625 108.583C92.9421 110.913 92.944 112.786 92.8994 114.101C92.7938 114.793 92.2917 115.143 91.9757 115.249C91.6413 115.366 91.4542 115.318 91.4542 115.318Z" fill="#263238"/>
</svg>
