<svg width="554" height="501" viewBox="0 0 554 501" fill="none" xmlns="http://www.w3.org/2000/svg">
<path d="M551.191 243.339H455.343V500.96H551.191V243.339Z" fill="#EBEBEB"/>
<path d="M551.191 243.339H503.273V500.96H551.191V243.339Z" fill="#E0E0E0"/>
<path d="M500.142 212.723H466.293V243.352H500.142V212.723Z" fill="#EBEBEB"/>
<path d="M500.143 212.723H492.073V243.352H500.143V212.723Z" fill="#E0E0E0"/>
<path d="M554 241.555H447.356V243.339H554V241.555Z" fill="#E0E0E0"/>
<path d="M482.384 256.698H474.267V274.262H482.384V256.698Z" fill="white"/>
<path d="M503.273 281.167C503.273 281.351 492.561 281.497 479.302 281.497C466.043 281.497 455.343 281.351 455.343 281.167C455.343 280.984 466.055 280.825 479.302 280.825C492.549 280.825 503.273 280.972 503.273 281.167Z" fill="#E0E0E0"/>
<path d="M530.719 256.698H522.602V274.262H530.719V256.698Z" fill="#F5F5F5"/>
<path d="M551.608 281.167C551.608 281.351 540.896 281.497 527.649 281.497C514.401 281.497 503.689 281.351 503.689 281.167C503.689 280.984 514.401 280.825 527.649 280.825C540.896 280.825 551.608 280.972 551.608 281.167Z" fill="#EBEBEB"/>
<path d="M530.719 291.581H522.602V309.144H530.719V291.581Z" fill="#F5F5F5"/>
<path d="M551.608 316.037C551.608 316.221 540.896 316.38 527.649 316.38C514.401 316.38 503.689 316.221 503.689 316.037C503.689 315.854 514.401 315.707 527.649 315.707C540.896 315.707 551.608 315.854 551.608 316.037Z" fill="#EBEBEB"/>
<path d="M530.719 327.514H522.602V345.077H530.719V327.514Z" fill="#F5F5F5"/>
<path d="M551.608 351.971C551.608 352.154 540.896 352.301 527.649 352.301C514.401 352.301 503.689 352.154 503.689 351.971C503.689 351.787 514.401 351.641 527.649 351.641C540.896 351.641 551.608 351.787 551.608 351.971Z" fill="#EBEBEB"/>
<path d="M530.719 363.435H522.602V380.999H530.719V363.435Z" fill="#F5F5F5"/>
<path d="M551.608 387.892C551.608 388.075 540.896 388.222 527.649 388.222C514.401 388.222 503.689 388.075 503.689 387.892C503.689 387.709 514.401 387.55 527.649 387.55C540.896 387.55 551.608 387.721 551.608 387.892Z" fill="#EBEBEB"/>
<path d="M530.719 398.342H522.602V415.906H530.719V398.342Z" fill="#F5F5F5"/>
<path d="M551.608 422.799C551.608 422.994 540.896 423.141 527.649 423.141C514.401 423.141 503.689 422.994 503.689 422.799C503.689 422.603 514.401 422.469 527.649 422.469C540.896 422.469 551.608 422.616 551.608 422.799Z" fill="#EBEBEB"/>
<path d="M530.719 433.383H522.602V450.947H530.719V433.383Z" fill="#F5F5F5"/>
<path d="M530.719 468.889H522.602V486.452H530.719V468.889Z" fill="#F5F5F5"/>
<path d="M551.608 457.852C551.608 458.036 540.896 458.182 527.649 458.182C514.401 458.182 503.689 458.036 503.689 457.852C503.689 457.669 514.401 457.51 527.649 457.51C540.896 457.51 551.608 457.657 551.608 457.852Z" fill="#EBEBEB"/>
<path d="M482.384 292.106H474.267V309.669H482.384V292.106Z" fill="white"/>
<path d="M503.273 316.575C503.273 316.758 492.561 316.905 479.302 316.905C466.043 316.905 455.343 316.758 455.343 316.575C455.343 316.392 466.055 316.233 479.302 316.233C492.549 316.233 503.273 316.392 503.273 316.575Z" fill="#E0E0E0"/>
<path d="M482.384 327.526H474.267V345.09H482.384V327.526Z" fill="white"/>
<path d="M503.273 351.983C503.273 352.166 492.561 352.313 479.302 352.313C466.043 352.313 455.343 352.166 455.343 351.983C455.343 351.8 466.055 351.653 479.302 351.653C492.549 351.653 503.273 351.8 503.273 351.983Z" fill="#E0E0E0"/>
<path d="M482.384 362.934H474.267V380.498H482.384V362.934Z" fill="white"/>
<path d="M503.273 387.391C503.273 387.574 492.561 387.733 479.302 387.733C466.043 387.733 455.343 387.574 455.343 387.391C455.343 387.208 466.055 387.061 479.302 387.061C492.549 387.061 503.273 387.208 503.273 387.391Z" fill="#E0E0E0"/>
<path d="M482.384 398.342H474.267V415.906H482.384V398.342Z" fill="white"/>
<path d="M503.273 422.799C503.273 422.994 492.561 423.141 479.302 423.141C466.043 423.141 455.343 422.994 455.343 422.799C455.343 422.603 466.055 422.469 479.302 422.469C492.549 422.469 503.273 422.616 503.273 422.799Z" fill="#E0E0E0"/>
<path d="M482.384 433.75H474.267V451.313H482.384V433.75Z" fill="white"/>
<path d="M503.273 458.219C503.273 458.402 492.561 458.549 479.302 458.549C466.043 458.549 455.343 458.402 455.343 458.219C455.343 458.036 466.055 457.877 479.302 457.877C492.549 457.877 503.273 458.023 503.273 458.219Z" fill="#E0E0E0"/>
<path d="M482.384 469.158H474.267V486.721H482.384V469.158Z" fill="white"/>
<path d="M173.629 59.0886H74.5792V381.451H173.629V59.0886Z" fill="#F5F5F5"/>
<path d="M173.629 59.0886H124.104V380.571H173.629V59.0886Z" fill="#EBEBEB"/>
<path d="M120.867 27.4453H85.8863V59.0887H120.867V27.4453Z" fill="#F5F5F5"/>
<path d="M120.855 27.4453H112.523V59.0887H120.855V27.4453Z" fill="#EBEBEB"/>
<path d="M66.3191 59.0886V57.243H176.534V59.0886" fill="#E0E0E0"/>
<path d="M102.514 72.8997H94.1345V91.0498H102.514V72.8997Z" fill="#FAFAFA"/>
<path d="M124.104 98.2244C124.104 98.4199 113.011 98.5666 99.3358 98.5666C85.6602 98.5666 74.5792 98.4199 74.5792 98.2244C74.5792 98.0288 85.6602 97.8821 99.3358 97.8821C113.011 97.8821 124.104 97.9799 124.104 98.2244Z" fill="#E0E0E0"/>
<path d="M152.467 72.8997H144.088V91.0498H152.467V72.8997Z" fill="#E0E0E0"/>
<path d="M174.058 98.2244C174.058 98.4199 162.977 98.5666 149.301 98.5666C135.626 98.5666 124.533 98.4199 124.533 98.2244C124.533 98.0288 135.626 97.8821 149.301 97.8821C162.977 97.8821 174.058 97.9799 174.058 98.2244Z" fill="#E0E0E0"/>
<path d="M152.467 108.943H144.088V127.093H152.467V108.943Z" fill="#E0E0E0"/>
<path d="M174.058 134.219C174.058 134.414 162.977 134.561 149.301 134.561C135.626 134.561 124.533 134.414 124.533 134.219C124.533 134.023 135.626 133.877 149.301 133.877C162.977 133.877 174.058 134.023 174.058 134.219Z" fill="#E0E0E0"/>
<path d="M152.467 146.074H144.088V164.224H152.467V146.074Z" fill="#E0E0E0"/>
<path d="M174.058 171.35C174.058 171.546 162.977 171.692 149.301 171.692C135.626 171.692 124.533 171.546 124.533 171.35C124.533 171.155 135.626 171.008 149.301 171.008C162.977 171.008 174.058 171.155 174.058 171.35Z" fill="#E0E0E0"/>
<path d="M152.467 183.206H144.088V201.356H152.467V183.206Z" fill="#E0E0E0"/>
<path d="M174.058 208.481C174.058 208.677 162.977 208.836 149.301 208.836C135.626 208.836 124.533 208.677 124.533 208.481C124.533 208.286 135.626 208.139 149.301 208.139C162.977 208.139 174.058 208.286 174.058 208.481Z" fill="#E0E0E0"/>
<path d="M152.467 219.274H144.088V237.424H152.467V219.274Z" fill="#E0E0E0"/>
<path d="M174.058 244.549C174.058 244.745 162.977 244.904 149.301 244.904C135.626 244.904 124.533 244.745 124.533 244.549C124.533 244.354 135.626 244.207 149.301 244.207C162.977 244.207 174.058 244.366 174.058 244.549Z" fill="#E0E0E0"/>
<path d="M152.467 255.488H144.088V273.638H152.467V255.488Z" fill="#E0E0E0"/>
<path d="M152.467 292.179H144.088V310.329H152.467V292.179Z" fill="#E0E0E0"/>
<path d="M174.058 280.764C174.058 280.959 162.977 281.118 149.301 281.118C135.626 281.118 124.533 280.959 124.533 280.764C124.533 280.568 135.626 280.422 149.301 280.422C162.977 280.422 174.058 280.58 174.058 280.764Z" fill="#E0E0E0"/>
<path d="M102.514 109.493H94.1345V127.643H102.514V109.493Z" fill="#FAFAFA"/>
<path d="M124.104 134.769C124.104 134.965 113.011 135.111 99.3358 135.111C85.6602 135.111 74.5792 134.965 74.5792 134.769C74.5792 134.573 85.6602 134.427 99.3358 134.427C113.011 134.427 124.104 134.573 124.104 134.769Z" fill="#E0E0E0"/>
<path d="M102.514 146.087H94.1345V164.237H102.514V146.087Z" fill="#FAFAFA"/>
<path d="M124.104 171.362C124.104 171.558 113.011 171.705 99.3358 171.705C85.6602 171.705 74.5792 171.558 74.5792 171.362C74.5792 171.167 85.6602 171.02 99.3358 171.02C113.011 171.02 124.104 171.167 124.104 171.362Z" fill="#E0E0E0"/>
<path d="M102.514 182.68H94.1345V200.83H102.514V182.68Z" fill="#FAFAFA"/>
<path d="M124.104 207.956C124.104 208.151 113.011 208.31 99.3358 208.31C85.6602 208.31 74.5792 208.151 74.5792 207.956C74.5792 207.76 85.6602 207.614 99.3358 207.614C113.011 207.614 124.104 207.773 124.104 207.956Z" fill="#E0E0E0"/>
<path d="M102.514 219.274H94.1345V237.424H102.514V219.274Z" fill="#FAFAFA"/>
<path d="M124.104 244.549C124.104 244.745 113.011 244.904 99.3358 244.904C85.6602 244.904 74.5792 244.745 74.5792 244.549C74.5792 244.354 85.6602 244.207 99.3358 244.207C113.011 244.207 124.104 244.366 124.104 244.549Z" fill="#E0E0E0"/>
<path d="M102.514 255.867H94.1345V274.017H102.514V255.867Z" fill="#FAFAFA"/>
<path d="M124.104 281.143C124.104 281.338 113.011 281.497 99.3358 281.497C85.6602 281.497 74.5792 281.338 74.5792 281.143C74.5792 280.947 85.6602 280.801 99.3358 280.801C113.011 280.801 124.104 280.959 124.104 281.143Z" fill="#E0E0E0"/>
<path d="M102.514 292.461H94.1345V310.611H102.514V292.461Z" fill="#FAFAFA"/>
<path d="M306.208 245.454H161.596V441.315H306.208V245.454Z" fill="#EBEBEB"/>
<path d="M306.208 245.454H238.401V441.315H306.208V245.454Z" fill="#E0E0E0"/>
<path d="M204.908 271.976H191.911V304.414H204.908V271.976Z" fill="#F5F5F5"/>
<path d="M204.908 398.929H191.911V431.367H204.908V398.929Z" fill="#F5F5F5"/>
<path d="M238.401 317.15C238.401 317.504 221.202 317.81 199.993 317.81C178.783 317.81 161.596 317.504 161.596 317.15C161.596 316.795 178.783 316.49 199.993 316.49C221.202 316.49 238.401 316.783 238.401 317.15Z" fill="#F5F5F5"/>
<path d="M204.908 335.935H191.911V368.373H204.908V335.935Z" fill="#F5F5F5"/>
<path d="M238.401 381.109C238.401 381.475 221.202 381.769 199.993 381.769C178.783 381.769 161.596 381.475 161.596 381.109C161.596 380.742 178.783 380.449 199.993 380.449C221.202 380.449 238.401 380.742 238.401 381.109Z" fill="#F5F5F5"/>
<path d="M265.788 271.976H252.791V304.414H265.788V271.976Z" fill="#F5F5F5"/>
<path d="M293.996 271.976H280.999V304.414H293.996V271.976Z" fill="#F5F5F5"/>
<path d="M265.788 333.527H252.791V365.965H265.788V333.527Z" fill="#F5F5F5"/>
<path d="M293.996 333.527H280.999V365.965H293.996V333.527Z" fill="#F5F5F5"/>
<path d="M265.788 395.079H252.791V427.516H265.788V395.079Z" fill="#F5F5F5"/>
<path d="M293.996 395.079H280.999V427.516H293.996V395.079Z" fill="#F5F5F5"/>
<path d="M317.063 238.634H150.718V245.698H317.063V238.634Z" fill="#E0E0E0"/>
<path d="M307.208 246.37C307.208 246.737 274.893 247.03 235.033 247.03C195.172 247.03 162.834 246.737 162.834 246.37C162.834 246.004 195.149 245.71 235.033 245.71C274.917 245.71 307.208 246.004 307.208 246.37Z" fill="#EBEBEB"/>
<path d="M158.537 441.352H12.783L12.1402 204.79H157.907L158.537 441.352Z" fill="#EBEBEB"/>
<path d="M157.907 204.79H85.0294V441.352H157.907V204.79Z" fill="#E0E0E0"/>
<path d="M80.2685 158.223H28.7914V204.79H80.2685V158.223Z" fill="#EBEBEB"/>
<path d="M80.2685 158.223H67.9973V204.79H80.2685V158.223Z" fill="#E0E0E0"/>
<path d="M162.168 202.077H0V204.79H162.168V202.077Z" fill="#E0E0E0"/>
<path d="M53.2624 225.104H40.9198V251.822H53.2624V225.104Z" fill="white"/>
<path d="M85.0294 262.308C85.0294 262.589 68.7114 262.809 48.5848 262.809C28.4582 262.809 12.1522 262.589 12.1522 262.308C12.1522 262.027 28.4582 261.795 48.5848 261.795C68.7114 261.795 85.0294 262.003 85.0294 262.308Z" fill="#E0E0E0"/>
<path d="M126.77 225.104H114.428V251.822H126.77V225.104Z" fill="#F5F5F5"/>
<path d="M158.537 262.308C158.537 262.589 142.219 262.809 122.105 262.809C101.99 262.809 85.6602 262.589 85.6602 262.308C85.6602 262.027 101.978 261.795 122.105 261.795C142.231 261.795 158.537 262.003 158.537 262.308Z" fill="#EBEBEB"/>
<path d="M126.77 278.148H114.428V304.866H126.77V278.148Z" fill="#F5F5F5"/>
<path d="M158.537 315.341C158.537 315.622 142.219 315.854 122.105 315.854C101.99 315.854 85.6602 315.622 85.6602 315.341C85.6602 315.06 101.978 314.827 122.105 314.827C142.231 314.827 158.537 315.06 158.537 315.341Z" fill="#EBEBEB"/>
<path d="M126.77 332.782H114.428V359.5H126.77V332.782Z" fill="#F5F5F5"/>
<path d="M158.537 369.986C158.537 370.267 142.219 370.487 122.105 370.487C101.99 370.487 85.6602 370.267 85.6602 369.986C85.6602 369.705 101.978 369.473 122.105 369.473C142.231 369.473 158.537 369.705 158.537 369.986Z" fill="#EBEBEB"/>
<path d="M126.77 387.427H114.428V414.145H126.77V387.427Z" fill="#F5F5F5"/>
<path d="M158.537 424.62C158.537 424.901 142.219 425.133 122.105 425.133C101.99 425.133 85.6602 424.901 85.6602 424.62C85.6602 424.339 101.978 424.119 122.105 424.119C142.231 424.119 158.537 424.339 158.537 424.62Z" fill="#EBEBEB"/>
<path d="M53.2624 278.955H40.9198V305.673H53.2624V278.955Z" fill="white"/>
<path d="M85.0294 316.147C85.0294 316.428 68.7114 316.661 48.5848 316.661C28.4582 316.661 12.1522 316.428 12.1522 316.147C12.1522 315.866 28.4582 315.646 48.5848 315.646C68.7114 315.646 85.0294 315.866 85.0294 316.147Z" fill="#E0E0E0"/>
<path d="M53.2624 332.806H40.9198V359.524H53.2624V332.806Z" fill="white"/>
<path d="M85.0294 369.999C85.0294 370.28 68.7114 370.512 48.5848 370.512C28.4582 370.512 12.1522 370.28 12.1522 369.999C12.1522 369.718 28.4582 369.559 48.5848 369.559C68.7114 369.559 85.0294 369.718 85.0294 369.999Z" fill="#E0E0E0"/>
<path d="M53.2624 386.658H40.9198V413.375H53.2624V386.658Z" fill="white"/>
<path d="M85.0294 423.85C85.0294 424.131 68.7114 424.363 48.5848 424.363C28.4582 424.363 12.1522 424.131 12.1522 423.85C12.1522 423.569 28.4582 423.336 48.5848 423.336C68.7114 423.336 85.0294 423.569 85.0294 423.85Z" fill="#E0E0E0"/>
<path d="M245.174 18.4252C245.757 14.1474 239.877 10.6274 235.449 10.2607C233.355 10.0896 231.165 10.4196 229.165 9.69847C224.845 8.15847 223.119 2.36511 218.893 0.592886C215.739 -0.776007 212.109 0.446219 209.05 2.02289C205.991 3.59956 202.968 5.59179 199.529 5.81179C196.565 6.00735 193.328 4.8829 190.733 6.37402C188.793 7.48624 187.781 9.77181 185.972 11.1285C184.114 12.3029 181.964 12.9013 179.783 12.8518C177.624 12.7931 175.473 13.1453 173.439 13.8907C171.463 14.8074 169.868 16.9585 170.249 19.1463L245.174 18.4252Z" fill="#F5F5F5"/>
<path d="M549.549 133.351C550.084 129.379 544.621 126.116 540.527 125.773C538.563 125.614 536.539 125.92 534.683 125.26C530.672 123.818 529.065 118.501 525.161 116.802C522.233 115.58 518.853 116.668 516.02 118.134C513.187 119.601 510.378 121.447 507.212 121.654C504.451 121.826 501.452 120.787 499.048 122.168C497.25 123.194 496.298 125.321 494.644 126.58C492.918 127.672 490.921 128.228 488.895 128.181C486.869 128.128 484.85 128.463 482.944 129.171C481.123 130.039 479.599 132.019 479.98 134.06L549.549 133.351Z" fill="#F5F5F5"/>
<path d="M499.631 39.7042C500.428 33.7641 492.263 28.8874 486.122 28.3741C483.194 28.1297 480.171 28.5941 477.386 27.6041C471.434 25.453 468.983 17.4841 463.103 14.9418C458.723 13.0474 453.676 14.7341 449.427 16.9341C445.178 19.1341 440.989 21.8841 436.24 22.2019C432.11 22.4708 427.634 20.9063 424.016 22.9719C421.326 24.5119 419.922 27.7019 417.446 29.5719C414.97 31.4419 411.852 31.8086 408.841 32.0164C405.829 32.2241 402.711 32.2241 399.974 33.5075C397.236 34.7908 394.963 37.773 395.534 40.8408L499.631 39.7042Z" fill="#F5F5F5"/>
</svg>
