<svg width="84" height="106" viewBox="0 0 84 106" fill="none" xmlns="http://www.w3.org/2000/svg">
<path d="M33.2798 25.3012L41.6763 105.479H35.2217L28.0168 33.7337L33.2798 25.3012Z" fill="#455A64"/>
<path d="M69.3117 91.8581L1.17329 91.4584L8.10153 0H76.27L69.3117 91.8581Z" fill="#455A64"/>
<path d="M63.6441 87.6181H5.67246L11.9029 4.24204H69.8746L63.6441 87.6181Z" fill="#263238"/>
<path d="M1.1733 91.4584L0 105.196H4.60783L6.15086 91.4555L1.1733 91.4584Z" fill="#455A64"/>
<path d="M63.6334 91.8581L63.0356 105.196H67.6435L68.7314 91.4555L63.6334 91.8581Z" fill="#455A64"/>
<path d="M22.5568 28.8791L22.6839 25.3966V24.993C22.6839 24.8656 22.7043 24.3142 22.7043 24.1858C22.747 24.1226 22.8101 24.1226 22.8741 24.0808C23.6369 23.9524 24.3997 23.932 25.1839 23.932H25.7565C25.9894 23.932 27.8333 23.9748 28.0663 23.9748C28.1934 23.9748 28.3215 24.0176 28.4059 24.0808C28.4059 24.1226 28.4263 24.2082 28.4263 24.2286C28.4263 24.2714 28.4059 24.3774 28.4059 24.3774C28.4059 24.462 28.3215 25.0562 28.3215 25.1418C28.3215 25.2468 28.2788 25.8206 28.2788 25.948C27.9605 26.1182 27.7489 26.1814 27.3665 26.2038H26.0108L25.969 26.2251C25.969 26.2456 25.9263 28.2849 25.906 29.1552V30.5994C25.969 30.5994 26.266 30.6422 26.3077 30.6422C26.4776 30.6626 27.1133 30.7054 27.2617 30.7054C27.4306 30.7472 27.4733 30.7686 27.4733 30.9174C27.4733 31.321 27.3035 31.958 27.2617 32.3615L27.0705 32.4675H25.7138V33.6569C25.7138 33.7201 25.7565 34.2929 25.7565 34.3785C25.7779 34.5487 25.8205 36.0346 25.8205 36.2252C25.8205 36.3108 25.8632 36.7134 25.8836 36.8194H28.3846L28.469 36.905C28.469 36.9254 28.4894 37.223 28.4894 37.3076C28.4894 37.4564 28.469 37.8814 28.469 37.9242C28.4476 38.3696 28.2564 38.2849 27.9187 38.3909C27.8974 38.3909 27.6431 38.4755 27.6218 38.4755C27.2404 38.5388 26.8162 38.5388 26.4348 38.5388C26.2864 38.5388 25.8409 38.5174 25.8196 38.5174C25.7769 38.5174 25.4596 38.4746 25.4169 38.4746C25.2693 38.4532 23.9767 38.4328 23.8272 38.4114C23.7855 38.4114 23.2129 38.3054 23.0226 38.2635C22.9169 38.2422 22.8101 38.2207 22.7674 38.1147V38.0302C22.5976 35.9276 22.5558 33.8465 22.5558 31.744V28.8791H22.5568Z" fill="#455A64"/>
<path d="M28.7649 30.9601C28.7649 30.79 28.8494 29.6434 28.8494 29.2826C28.9552 28.1146 29.1677 26.8193 29.782 25.8001C29.782 25.7787 29.8878 25.63 29.9305 25.5872C30.1625 25.311 30.4381 24.9288 30.735 24.675C31.0107 24.4192 31.4978 24.1858 31.8802 24.038H32.4101C32.94 24.038 33.237 24.1012 33.7872 24.2286C35.2497 24.4192 35.3555 25.9703 35.4399 28.6456C35.4399 28.667 35.3555 28.8363 35.3342 28.879C35.3342 28.8995 35.2915 28.9218 35.2915 28.9423C35.2497 28.9627 35.1226 29.0482 35.0799 29.0482C34.3802 29.2602 33.9774 29.2184 33.2146 29.2184L32.9817 29.1542C32.9186 28.3685 33.1729 25.6932 32.5789 25.8847C32.3887 26.0121 32.3043 26.3515 32.2616 26.5431C32.2616 26.5859 32.1985 26.9681 32.1771 27.0955C32.1558 27.1597 32.1141 27.4563 32.1141 27.4981C32.0928 27.8803 32.0287 29.1124 32.0287 29.2612C32.0287 29.3244 32.0073 30.5352 32.0073 30.9601C32.0073 31.3637 32.0287 32.4889 32.0287 32.5531C32.0287 32.7437 32.1344 34.3998 32.1771 34.9104C32.1771 34.995 32.2616 35.6534 32.2616 35.8236C32.2616 35.8449 32.3043 36.0151 32.3247 36.0793C32.347 36.1843 32.4945 36.6949 32.643 36.6949L32.6634 36.6745C32.8332 36.5471 32.9807 36.2709 33.0234 36.0803L33.1292 35.5697C33.1496 35.3567 33.2137 34.2948 33.2137 34.0614C33.235 33.934 33.3194 33.722 33.4689 33.7006C33.9134 33.6802 34.1889 33.6588 34.5703 33.6588H34.6334C34.8887 33.6588 35.2905 33.6588 35.4186 33.8494C35.4186 33.934 35.4389 34.2734 35.4389 34.3376C35.4389 35.5055 35.206 37.0343 34.4636 37.9902C34.2093 38.2878 33.3408 38.7974 32.9167 38.7974H31.4765C31.4765 38.7974 31.0737 38.669 30.9252 38.6272C30.2265 38.4143 29.6122 37.8628 29.3152 37.2259C29.2948 37.1627 29.1454 36.6949 29.125 36.5675C29.0823 36.4615 28.9979 35.8663 28.9765 35.7185C28.829 34.5078 28.7649 33.3826 28.7649 32.1719V30.9601Z" fill="#455A64"/>
<path d="M36.3522 28.1147C36.4794 27.2434 36.5852 25.7788 37.1791 25.1836C37.5605 24.5681 38.7047 24.1645 39.023 24.0167C39.0647 24.0167 39.2773 24.0371 39.4462 24.0371C39.615 24.0371 39.7431 23.9739 39.8702 23.9739C41.2473 23.9739 43.0485 24.3561 43.5571 26.2456C43.8327 27.6042 43.8968 28.9851 43.8968 30.365C43.8968 32.8925 43.9599 34.2083 43.4523 36.7358C43.1126 38.3492 41.7569 38.8374 40.3584 38.8374C39.0871 38.8374 37.6886 38.6895 36.9045 37.224C36.2892 36.0988 36.3319 35.3977 36.2047 32.1914V31.851C36.2251 31.8092 36.2882 28.4755 36.3522 28.1147ZM39.9333 36.8632C40.1031 36.8632 40.4205 35.7808 40.4205 34.9095C40.7805 31.3628 40.7806 30.047 40.7806 27.4563C40.7806 27.0528 40.7602 26.7348 40.633 26.3944C40.4428 26.3944 40.3574 26.373 40.2303 26.4576C40.1672 26.6482 39.8702 28.4541 39.8702 28.7079L39.616 35.4599V35.8207C39.616 36.0988 39.6373 36.8632 39.9333 36.8632Z" fill="#455A64"/>
<path d="M59.3828 15.3234C59.407 15.3137 59.6031 15.7367 59.7234 16.5604C59.8311 17.3754 59.9185 18.6056 59.4895 20.0594C59.0722 21.4997 57.6971 23.0848 55.6367 23.4057C54.6177 23.5575 53.4929 23.2579 52.6078 22.5908C51.716 21.9344 51.0153 20.96 50.6785 19.8367C50.0176 17.564 50.6737 15.2242 51.88 13.6352C52.4972 12.8446 53.2591 12.2193 54.0917 11.8672C54.9167 11.5045 55.8279 11.4636 56.5509 11.6727L56.5636 11.6756C57.2914 11.9042 57.8785 12.3243 58.2628 12.7852C58.653 13.2452 58.8781 13.712 59.0373 14.0923C59.3401 14.8644 59.409 15.3157 59.3828 15.3234C59.342 15.3371 59.2081 14.9004 58.8597 14.174C58.5161 13.4738 57.8455 12.3914 56.4636 12.0189L56.4762 12.0218C55.0981 11.6241 53.36 12.4099 52.2507 13.9182C51.1502 15.3983 50.5524 17.6204 51.1628 19.6889C51.7577 21.7341 53.7433 23.2278 55.5765 22.9429C57.4127 22.6881 58.7306 21.2643 59.1499 19.9476C59.5982 18.589 59.5749 17.3822 59.5274 16.5828C59.4711 15.7717 59.342 15.3351 59.3828 15.3234Z" fill="#455A64"/>
<path d="M47.963 12.7892C47.9834 12.7707 48.2764 13.0547 48.6297 13.6907C48.9703 14.3238 49.4206 15.3041 49.5167 16.6286C49.6176 17.9414 48.9762 19.6695 47.3778 20.572C46.5849 21.0126 45.564 21.1137 44.6294 20.8375C43.6929 20.572 42.8175 19.9866 42.1944 19.1648C40.9542 17.498 40.7776 15.3741 41.2832 13.6975C41.5491 12.8583 41.9838 12.1104 42.5632 11.5639C43.131 11.0115 43.8724 10.6974 44.5304 10.6488L44.544 10.6478C45.2136 10.6128 45.826 10.7791 46.2821 11.0417C46.7431 11.3013 47.0692 11.6164 47.3147 11.8809C47.7951 12.4216 47.9853 12.7727 47.963 12.7892C47.931 12.8155 47.6844 12.5023 47.1759 12.018C46.68 11.5542 45.8037 10.8822 44.5692 11.0028L44.5818 11.0018C43.3435 11.101 42.1741 12.267 41.7296 13.8327C41.2851 15.3712 41.4743 17.3638 42.5972 18.8566C43.6996 20.3357 45.7619 20.9445 47.1604 20.1597C48.5724 19.3973 49.2158 17.8403 49.1605 16.6422C49.1159 15.3994 48.7336 14.4191 48.4541 13.7792C48.1648 13.1345 47.929 12.8145 47.963 12.7892Z" fill="#455A64"/>
<path d="M54.3227 22.3973C54.2819 22.4488 53.9335 22.2728 53.4473 21.8702C52.9669 21.4695 52.339 20.817 51.9323 19.9058C51.5257 18.9906 51.5083 18.0405 51.681 17.4133C51.8489 16.7773 52.1381 16.4739 52.1866 16.5079C52.2565 16.5458 52.0954 16.8949 52.0323 17.4794C51.9634 18.058 52.0333 18.8856 52.3943 19.7015C53.1561 21.3353 54.4488 22.2679 54.3227 22.3973Z" fill="#455A64"/>
<path d="M58.551 44.3774C58.551 44.5962 58.7277 44.7741 58.947 44.7741C59.1654 44.7741 59.3429 44.5962 59.3429 44.3774C59.3429 44.1585 59.1654 43.9806 58.947 43.9806C58.7287 43.9816 58.551 44.1585 58.551 44.3774Z" fill="#455A64"/>
<path d="M42.2421 74.9329C42.2402 74.9076 42.3605 74.8707 42.5915 74.8113C42.8215 74.7686 43.1689 74.6392 43.6619 74.7618L43.4853 74.9271C43.1738 74.01 42.8147 72.9549 42.4119 71.7704L42.5769 71.926C41.9354 71.784 41.36 71.3133 41.0261 70.6831C40.6855 70.0588 40.5632 69.3411 40.4535 68.6458L40.6379 68.851C40.6224 68.849 40.6088 68.8471 40.5991 68.8471C40.5079 68.8345 40.3031 69.1593 40.14 69.4413C39.9391 69.7758 39.5781 70.0024 39.2326 70.0812L39.4102 69.7807C39.5704 70.8076 39.6693 71.6469 39.8799 72.4492C39.976 72.843 40.0799 73.2116 40.1867 73.552C40.242 73.7183 40.2953 73.8817 40.3477 74.0411C40.4059 74.2055 40.4497 74.3494 40.505 74.4146C41.4318 75.0583 42.2586 74.8395 42.2421 74.9329C42.2441 74.9592 42.0723 75.0204 41.7287 75.0535C41.3629 75.0827 40.8892 74.998 40.2817 74.6411C40.208 74.5828 40.1634 74.4729 40.1187 74.3941L40.0216 74.1666C39.9585 74.0061 39.8945 73.8428 39.8295 73.6765C39.7023 73.3341 39.5791 72.9607 39.4655 72.56C39.2258 71.7791 39.0812 70.8028 38.9318 69.9042L38.891 69.6611L39.1094 69.6027C39.3627 69.5356 39.5791 69.3975 39.714 69.1709C39.7936 69.0455 39.8712 68.8967 39.978 68.744C40.0857 68.603 40.2264 68.3929 40.5399 68.3443C40.6214 68.3365 40.698 68.3453 40.765 68.3618L40.9242 68.3997L40.9494 68.567C41.0562 69.2594 41.1717 69.9178 41.4541 70.4517C41.72 70.9797 42.1897 71.3668 42.673 71.4884L42.8002 71.5204L42.838 71.6439C43.233 72.9257 43.5358 74.0674 43.7434 74.8532L43.8104 75.1079L43.5668 75.0194C43.2029 74.8872 42.838 74.9504 42.608 74.9543C42.3761 74.9689 42.2441 74.9582 42.2421 74.9329Z" fill="#455A64"/>
<path d="M61.7934 44.956C61.7934 44.956 61.9225 45.0036 62.102 45.201C62.2689 45.3936 62.5038 45.769 62.4436 46.3097L62.4184 46.5324L62.3466 46.3184C62.2427 46.0072 61.8972 45.7495 61.4556 45.6639C61.0121 45.5628 60.4832 45.6007 59.9165 45.5609L59.9456 45.4024C60.6424 45.6834 61.3887 46.2134 61.9244 47.0313L62.1913 47.4387L61.7808 47.1732C61.3625 46.9019 60.8346 46.7181 60.2668 46.6841L60.3872 46.5509C60.4144 47.0527 60.1785 47.4309 59.9698 47.8355C59.8543 48.0271 59.737 48.243 59.5205 48.4054C59.4138 48.4851 59.2633 48.5454 59.108 48.5269C58.9382 48.524 58.8063 48.382 58.7432 48.2352L58.8654 48.3188C58.5743 48.3276 58.2424 48.1963 58.0163 47.9347H58.221C57.0914 49.2709 56.5208 51.1847 56.2762 53.2639C56.0006 55.3431 56.0588 57.6693 55.3611 60.0548C55.0127 61.2344 54.4449 62.4325 53.5084 63.3875C52.5603 64.3357 51.385 64.9775 50.2699 65.7429C49.7031 66.1163 49.1296 66.4946 48.5483 66.8768C48.2629 67.0693 47.9495 67.257 47.702 67.4612C47.4157 67.647 47.2168 67.8736 47.0401 68.1838C46.2773 69.4121 45.3398 70.5635 44.1413 71.5262L44.2238 71.288C44.3034 71.6458 44.3859 72.0125 44.4693 72.3849C44.5518 72.7584 44.7284 73.1085 44.8565 73.4799C45.136 74.2151 45.4233 74.9708 45.7125 75.7332L45.531 75.599C46.3113 75.7089 47.1149 75.1682 48.1698 75.1487C48.3173 75.1604 48.4706 75.1808 48.6337 75.3053C48.8152 75.4269 48.8715 75.7488 48.7414 75.9258C48.493 76.2525 48.2309 76.2729 47.997 76.3643C47.5399 76.5384 46.8325 76.4363 46.7684 76.6036L46.5918 76.237C47.0887 76.2827 47.5885 76.3294 48.0902 76.376C48.3522 76.4091 48.5647 76.3994 48.885 76.4713C49.0277 76.5122 49.2422 76.5929 49.3402 76.8399C49.4295 77.0869 49.3043 77.3281 49.1558 77.4467C48.8006 77.6976 48.5143 77.6169 48.2562 77.6354C47.9874 77.6296 47.7224 77.6033 47.4633 77.5702C46.945 77.5041 46.4414 77.4156 45.9493 77.4117C45.7038 77.4098 45.4612 77.4283 45.2292 77.4827C44.9992 77.5226 44.6848 77.6753 44.2947 77.4973C44.1103 77.3971 44.0249 77.2688 43.9531 77.2162C43.8754 77.1686 43.9123 77.1764 43.8453 77.1958C43.725 77.2697 43.394 77.5391 43.0942 77.5761C42.934 77.6082 42.7895 77.6208 42.608 77.5955C42.4401 77.5557 42.2072 77.507 42.1004 77.1948C42.0596 77.0451 42.1198 76.8895 42.1751 76.8117C42.2333 76.7252 42.2789 76.6814 42.3216 76.6298L42.5827 76.3264L43.1068 75.7186L43.3688 75.4152C43.4581 75.3131 43.4484 75.2975 43.4474 75.2421L43.8628 75.3938C43.397 75.8188 42.7399 75.8703 42.1994 75.8898L42.247 75.3977C42.4527 75.456 42.7487 75.5017 42.9641 75.8061C43.0661 75.9773 43.0825 76.1582 43.0253 76.341C42.9942 76.4315 42.935 76.5297 42.8351 76.5997C42.7254 76.6785 42.6118 76.6814 42.5381 76.6765C42.0189 76.6298 41.622 76.5637 41.1503 76.5073C40.9252 76.4762 40.6719 76.4528 40.4089 76.341C40.1439 76.2545 39.8703 75.8898 39.8984 75.9462C39.9547 75.9277 39.8566 75.9773 39.6703 76.0298C39.5073 76.0639 39.3413 76.0522 39.1928 76.0016C38.8988 75.9053 38.6368 75.668 38.5562 75.3296L38.9279 75.492C38.8678 75.5231 38.793 75.6243 38.6775 75.7585C38.5475 75.8966 38.3631 76.0531 38.0613 76.0211C37.9099 76.0016 37.7604 75.884 37.7022 75.7507C37.6411 75.6185 37.6362 75.491 37.6614 75.3666C37.7206 75.1273 37.8506 74.998 37.9292 74.8813C38.2961 74.3951 38.5533 73.9292 38.5048 73.3516C38.43 72.1739 37.9555 70.9836 37.6585 69.7271L37.7827 69.8915C37.7487 69.8691 37.7128 69.8448 37.676 69.8195C36.7462 69.203 36.4978 68.0943 36.4415 67.1559L36.7307 67.3932C35.6981 67.5429 34.583 67.7122 33.501 67.3416C32.972 67.1539 32.4829 66.835 32.1238 66.3828C31.9462 66.1572 31.8026 65.8956 31.724 65.6116C31.6396 65.3228 31.6377 65.0436 31.6066 64.8083C31.5765 64.5642 31.5251 64.3892 31.3873 64.2297C31.2533 64.0673 31.0166 63.8699 30.8739 63.5985C30.5992 63.0637 30.5546 62.5512 30.4546 62.0445C30.2877 61.0234 30.2285 59.9916 30.2722 58.9734L30.375 59.1854C29.3221 58.3987 29.0309 57.0625 29.0649 55.9159C29.0998 54.7431 29.3716 53.6539 29.3793 52.5715C29.4016 51.4862 29.2629 50.4097 28.9766 49.3856C28.8378 48.8761 28.6359 48.312 28.7417 47.6906C28.8019 47.3726 28.9552 47.0877 29.1862 46.865C29.4104 46.6442 29.7617 46.4847 30.1149 46.5509L29.8549 46.8669C29.6482 46.2999 29.4531 45.5686 29.8675 44.9268C30.1004 44.5864 30.5109 44.4688 30.8622 44.5057C31.0427 44.5252 31.2281 44.5835 31.3892 44.7128C31.5523 44.8373 31.6658 45.0688 31.6551 45.2788L31.2446 45.1301C31.5998 44.7294 32.1423 44.7965 32.4829 45.0347C32.8255 45.2808 32.9934 45.6309 33.1419 45.9314C33.4408 46.5479 33.6776 47.1859 33.8523 47.8345L33.6698 47.6711C35.1488 47.9211 36.1368 49.02 37.0568 49.8826C37.5246 50.326 37.9914 50.753 38.5067 51.0788C39.0201 51.4045 39.5888 51.6146 40.1759 51.7264C41.356 51.9501 42.5604 51.8353 43.7172 51.6885C44.877 51.5115 46.0066 51.3384 47.1042 51.1711L47.1556 51.5504C46.7868 51.5844 46.4569 51.6146 46.1289 51.6457L46.0813 51.2723C46.518 51.2032 46.9082 51.141 47.2944 51.0797L47.1983 51.1264C49.2946 49.1629 50.8017 46.9321 52.6078 45.3265C53.4987 44.5174 54.4381 43.8483 55.4096 43.3844C56.3694 42.9244 57.3855 42.621 58.3414 42.7475L58.2783 42.9847C57.9891 42.8505 57.6756 42.6512 57.6261 42.2709C57.6174 42.0852 57.7009 41.9335 57.7834 41.8178C57.8862 41.7088 57.9085 41.5892 58.1347 41.5046C58.3064 41.4784 58.3501 41.6447 58.387 41.6875L58.4734 41.8372C58.5219 41.9422 58.6112 42.0492 58.5889 42.0336C58.5889 42.0443 58.6597 41.9432 58.6559 41.8362C58.6665 41.7682 58.6849 41.704 58.7257 41.6369C58.7529 41.5737 58.8742 41.4842 58.9829 41.5251L59.0586 41.5532L59.0576 41.6281C59.0508 41.9529 59.1217 42.1708 59.2071 42.3643L59.1188 42.3079C59.2905 42.2914 59.1683 41.9014 59.4546 41.7351L59.506 41.705L59.5545 41.7497C59.8631 42.0337 59.9854 42.2855 60.0747 42.5238L60.0203 42.4713C60.063 42.4898 60.1465 42.4061 60.1776 42.2855C60.2096 42.1708 60.3358 41.9821 60.5337 42.0366C60.6463 42.0755 60.6405 42.1698 60.6706 42.2359L60.6948 42.3983C60.7093 42.5034 60.7239 42.6035 60.7375 42.7008C60.7472 42.9449 60.8093 42.939 60.9384 42.8194C61.019 42.7319 61.1306 42.4625 61.379 42.5734L61.4033 42.5841L61.4062 42.6162C61.446 43.0489 61.4663 43.2726 61.4857 43.4807L61.3897 43.4554C61.5168 43.2979 61.709 43.3922 61.7827 43.4807C61.8769 43.5877 61.8613 43.7277 61.8332 43.823C61.7614 44.0205 61.6653 44.1517 61.6294 44.2879C61.5391 44.5155 61.477 44.671 61.4295 44.7907L61.4208 44.7732C61.7662 44.9326 61.7934 44.956 61.7934 44.956C61.7934 44.956 61.7546 44.9482 61.4168 44.7994L61.4042 44.7936L61.4081 44.7809C61.4479 44.6564 61.4984 44.495 61.5741 44.2587C61.6041 44.1206 61.6993 43.9738 61.7546 43.8007C61.7759 43.7141 61.7808 43.611 61.7157 43.5449C61.6556 43.4759 61.5236 43.4389 61.4799 43.5138L61.4023 43.647L61.3839 43.4875C61.3606 43.2823 61.3343 43.0606 61.2858 42.6337L61.313 42.6765C61.2461 42.6308 61.1403 42.7582 61.0423 42.9108C60.9782 42.9721 60.8977 43.0723 60.7366 43.0275C60.5842 42.941 60.6191 42.8009 60.5929 42.7222C60.5774 42.6249 60.5619 42.5248 60.5444 42.4207C60.5308 42.3118 60.5056 42.1931 60.4871 42.1892C60.4386 42.1776 60.3677 42.2272 60.3357 42.3448C60.2998 42.4411 60.2261 42.6784 59.9708 42.6356L59.9349 42.6298L59.9165 42.5831C59.8311 42.3692 59.7156 42.1426 59.4351 41.8907L59.5351 41.9053C59.4904 41.9228 59.4574 42.0006 59.438 42.1144C59.407 42.2126 59.4147 42.4528 59.1197 42.5053L59.0624 42.516L59.0314 42.4499C58.9314 42.234 58.848 41.9909 58.8519 41.6233L58.9266 41.7264C58.946 41.7011 58.8761 41.7721 58.8703 41.8693C58.848 41.9743 58.8664 42.1552 58.6345 42.2505C58.4928 42.2719 58.4326 42.1679 58.3841 42.1183L58.2851 41.952L58.1851 41.7818C58.1638 41.7419 58.1628 41.7565 58.1599 41.74L58.159 41.7302V41.7273L58.1725 41.7059L58.1754 41.7011C58.1754 41.7011 58.1735 41.7049 58.1774 41.7273C58.158 41.7351 58.0415 41.8625 57.9794 41.9549C57.9095 42.0541 57.8619 42.1611 57.8697 42.2593C57.8862 42.4567 58.125 42.656 58.3831 42.7601L59.2565 43.1112L58.321 42.9974C57.4282 42.8885 56.4723 43.1822 55.5377 43.6402C54.6012 44.0992 53.6918 44.7586 52.8242 45.5599C51.0647 47.148 49.5828 49.3788 47.4545 51.4006L47.4148 51.4386L47.3584 51.4473C46.9722 51.5105 46.5821 51.5747 46.1463 51.6467L46.0988 51.2732C46.4268 51.2411 46.7568 51.2091 47.1246 51.1721L47.176 51.5514C46.0735 51.7264 44.9391 51.9063 43.7735 52.0911C42.606 52.2438 41.3667 52.3741 40.1012 52.1417C39.4723 52.025 38.8454 51.7974 38.2835 51.4444C37.7236 51.0933 37.2363 50.6489 36.7608 50.2025C35.8272 49.3215 34.8771 48.3198 33.6048 48.1195L33.4602 48.0971L33.4214 47.9561C33.2525 47.3347 33.0235 46.724 32.7352 46.1346C32.5926 45.84 32.4403 45.5638 32.2229 45.415C32.0297 45.2691 31.7085 45.2769 31.6056 45.4238L31.0389 46.229L31.1961 45.2749C31.2504 44.9433 30.444 44.8383 30.2547 45.1942C29.9869 45.5822 30.0956 46.1794 30.2974 46.7035L30.4536 47.1081L30.0373 47.0196C29.6812 46.9437 29.2794 47.3551 29.2124 47.7781C29.1309 48.2323 29.2901 48.735 29.4405 49.2602C29.7423 50.328 29.8898 51.4522 29.8675 52.5861C29.8578 53.7288 29.586 54.8394 29.5589 55.9315C29.5239 56.9973 29.8199 58.1662 30.6672 58.7867L30.7759 58.8664L30.7701 58.9996C30.7293 59.9848 30.7875 60.9816 30.9496 61.9687C31.0408 62.4549 31.1107 62.982 31.3145 63.3612C31.4105 63.5499 31.5794 63.686 31.7754 63.9146C31.9831 64.1441 32.0821 64.4864 32.1074 64.7519C32.1442 65.3043 32.2131 65.703 32.5208 66.0764C32.8071 66.4372 33.2205 66.7124 33.6708 66.8709C34.5869 67.1889 35.6292 67.0518 36.6589 66.8972L36.9335 66.8564L36.9481 67.1345C36.9927 68.0049 37.2538 68.955 37.9516 69.3984L38.0283 69.4519L38.1321 69.5249L38.1534 69.6163C38.4349 70.829 38.924 72.0203 39.0123 73.336C39.0288 73.6667 38.9832 74.0333 38.8435 74.3513C38.7086 74.6683 38.5203 74.9348 38.3398 75.1838C38.2437 75.3131 38.1661 75.4191 38.1574 75.4794C38.1515 75.5017 38.1564 75.5329 38.1603 75.5368C38.136 75.5494 38.1302 75.5796 38.1447 75.5319C38.1447 75.5319 38.2466 75.5076 38.3077 75.4249C38.3902 75.3393 38.4805 75.1818 38.6785 75.0612L38.9774 74.8784L39.0511 75.2236C39.0783 75.352 39.2026 75.4794 39.353 75.527C39.4267 75.5533 39.5034 75.5553 39.5684 75.5416C39.6034 75.5339 39.6208 75.528 39.6917 75.4969C39.7518 75.4697 39.8839 75.4278 40.012 75.459C40.2653 75.5338 40.3351 75.6836 40.4079 75.7449C40.4651 75.8052 40.5282 75.847 40.6117 75.8839C40.7767 75.9559 40.9902 75.9841 41.2182 76.0133C41.6618 76.0697 42.1004 76.1251 42.5323 76.1805C42.5614 76.1669 42.5905 76.2525 42.574 76.2204C42.5517 76.1951 42.5449 76.1961 42.5556 76.1844C42.5682 76.1562 42.5594 76.095 42.5458 76.0785C42.5051 76.0045 42.3352 75.9306 42.1314 75.8869L40.0789 75.4434L42.179 75.3948C42.7225 75.3821 43.2368 75.3053 43.527 75.033L43.8628 74.7179L43.9424 75.1847C43.9802 75.4055 43.8482 75.6486 43.7483 75.74L43.4833 76.0463L42.9583 76.6532L42.6963 76.9556C42.5886 77.0811 42.5789 77.1161 42.5274 77.0918C42.5274 77.0918 42.5575 77.0782 42.574 77.0636C42.574 77.0636 42.5817 77.0704 42.5915 77.0772C42.6128 77.0908 42.6526 77.1054 42.6904 77.1112C42.772 77.1229 42.8953 77.118 42.9942 77.0957C43.233 77.049 43.3135 76.9517 43.6376 76.7524C43.8084 76.6386 44.1462 76.7038 44.2636 76.836C44.3946 76.9488 44.4703 77.0422 44.5218 77.0626C44.6227 77.1278 44.8566 77.0743 45.1215 77.0072C45.399 76.943 45.6805 76.9226 45.9542 76.9245C46.5035 76.9313 47.0227 77.0256 47.5254 77.0898C47.7767 77.1219 48.0242 77.1472 48.2678 77.153C48.5065 77.1579 48.7831 77.153 48.8472 77.0791C48.8928 77.0393 48.8899 77.0052 48.8899 77.0052C48.8957 77.0042 48.854 76.9595 48.7579 76.9352C48.5832 76.8914 48.2843 76.8817 48.0466 76.8535C47.5448 76.8059 47.045 76.7582 46.5481 76.7115L46.1269 76.6717L46.3715 76.3449C46.6364 75.9919 46.9984 76.0395 47.2158 76.0162C47.44 76.0084 47.6544 75.9744 47.8641 75.9121C48.0688 75.8538 48.3105 75.7527 48.3406 75.6817C48.3416 75.6612 48.3561 75.6856 48.3386 75.67C48.3163 75.6476 48.228 75.6185 48.1465 75.6165C47.3274 75.6039 46.4685 76.165 45.4757 76.0561L45.3389 76.0415L45.2943 75.9229C45.0022 75.1468 44.712 74.3785 44.4305 73.6297C44.3015 73.2524 44.1239 72.8935 44.0414 72.5162C43.9579 72.1389 43.8764 71.7694 43.7968 71.4076L43.7647 71.2607L43.8793 71.1693C44.9992 70.2747 45.9406 69.1436 46.6792 67.9572C46.8548 67.6441 47.1265 67.33 47.4381 67.1326C47.737 66.8914 48.0281 66.7241 48.3202 66.5277C48.9025 66.1474 49.478 65.772 50.0467 65.4015C51.1695 64.642 52.3467 63.9963 53.2318 63.1142C54.1149 62.2234 54.6652 61.0905 55.0087 59.9488C55.7017 57.642 55.6648 55.3305 55.9579 53.2231C56.2219 51.1215 56.8226 49.1435 58.0153 47.7616L58.1191 47.641L58.2201 47.7616C58.3831 47.9571 58.6461 48.067 58.8616 48.0592L58.9645 48.0553L58.9848 48.1428C59.0208 48.3013 59.2235 48.312 59.373 48.2002C59.5312 48.0874 59.6457 47.8987 59.7583 47.712C59.965 47.3464 60.1814 46.9272 60.161 46.5888L60.1523 46.4458L60.2814 46.4555C60.888 46.5003 61.4489 46.7035 61.8924 47.0002L61.7497 47.1421C61.2519 46.3573 60.5454 45.8361 59.8816 45.5541L59.4031 45.3508L59.9107 45.3946C60.4929 45.4451 61.0209 45.4169 61.4848 45.5336C61.9497 45.6338 62.3339 45.9275 62.4407 46.2863L62.3437 46.2951C62.4165 45.7972 62.2107 45.4286 62.0612 45.2331C61.9031 45.0328 61.7856 44.9657 61.7934 44.956Z" fill="#455A64"/>
<path d="M39.9304 60.4592C39.9265 60.467 39.8101 60.4242 39.5976 60.3241C39.3851 60.2239 39.0784 60.0605 38.7009 59.8242C38.3253 59.585 37.875 59.2738 37.4023 58.8498C36.9462 58.419 36.4047 57.8958 36.132 57.108L36.0874 56.9787L36.2261 56.9826C37.0491 57.003 37.9555 57.144 38.9202 57.18L38.8842 57.4017C38.2263 57.1985 37.6595 56.615 37.5081 55.872L37.4849 55.7573L37.6003 55.731C39.0968 55.3868 40.7301 55.0124 42.4333 54.6204C44.4267 54.1848 46.322 53.6538 48.1213 53.5906C49.9109 53.5118 51.5597 53.9679 52.6515 54.8013C53.753 55.6357 54.2324 56.7161 54.3722 57.4533C54.446 57.8277 54.444 58.1253 54.4323 58.3236C54.4129 58.522 54.3926 58.6251 54.3848 58.6232C54.3538 58.6232 54.4411 58.2011 54.2742 57.4747C54.1092 56.7638 53.6171 55.731 52.5438 54.9481C51.4782 54.1643 49.8798 53.7384 48.1301 53.8279C46.3735 53.9018 44.4859 54.4347 42.4896 54.8723C40.7854 55.2584 39.1502 55.6289 37.6527 55.9683L37.7449 55.8273C37.8701 56.4759 38.3748 57.0059 38.9512 57.1868L39.7868 57.4503L38.9153 57.4085C37.9235 57.3609 37.0239 57.2101 36.2222 57.1781L36.3164 57.0526C36.5522 57.7771 37.0685 58.3081 37.5062 58.737C37.9604 59.1639 38.3961 59.4848 38.7591 59.7347C39.124 59.9827 39.419 60.1607 39.6228 60.2764C39.8276 60.3892 39.9353 60.4495 39.9304 60.4592Z" fill="#455A64"/>
<path d="M50.2874 60.5994C50.2904 60.6227 49.8527 60.6996 49.1103 60.6665C48.3708 60.6344 47.3197 60.4642 46.2076 59.9751L45.9028 59.8409L46.2231 59.7427C46.6656 59.6075 47.1353 59.4636 47.6215 59.3148C47.6749 59.2992 47.7273 59.2827 47.7768 59.2681L47.8059 59.52C47.4148 59.4927 47.0393 59.4003 46.6996 59.2593C46.5298 59.1883 46.3687 59.1057 46.2182 59.0133C46.0668 58.9073 45.931 58.8509 45.7874 58.6719C45.7117 58.5776 45.7184 58.3948 45.8135 58.3073C45.8999 58.2207 45.9912 58.1935 46.0756 58.1711C46.2493 58.1371 46.3823 58.1264 46.5307 58.105C46.8112 58.069 47.0771 58.034 47.3275 58.0019C48.3019 57.8794 48.9036 57.822 48.9094 57.856C48.9142 57.8901 48.3213 58.0116 47.3547 58.1799C47.1053 58.2217 46.8413 58.2664 46.5628 58.3141C46.426 58.3384 46.2609 58.3598 46.1328 58.389C46.0697 58.4055 46.0086 58.4347 45.9834 58.4648C45.964 58.492 45.9611 58.5066 45.9844 58.5436C46.0436 58.6224 46.2143 58.7244 46.3453 58.8052C46.487 58.8888 46.6375 58.9637 46.7966 59.0279C47.114 59.1553 47.4634 59.2389 47.8254 59.2632L48.5289 59.3109L47.8545 59.5151C47.806 59.5297 47.7526 59.5462 47.6992 59.5618C47.212 59.7076 46.7413 59.8487 46.2988 59.9809L46.3134 59.7485C47.3867 60.2376 48.4038 60.4351 49.1258 60.51C49.8479 60.5858 50.2865 60.5644 50.2874 60.5994Z" fill="#455A64"/>
<path d="M54.5119 49.7757C54.5303 49.7854 54.4527 49.9945 54.2256 50.3067C53.9995 50.6159 53.6074 51.0273 53.0144 51.3394L52.8038 51.4503L52.8552 51.214C52.9668 50.6976 53.0901 50.1316 53.2202 49.5335L53.4492 49.6357C53.3803 49.731 53.3007 49.8282 53.2114 49.9167C52.7941 50.331 52.2419 50.5479 51.7344 50.5634L51.5034 50.5702L51.6276 50.3796C52.4817 49.0687 53.1124 48.1623 53.158 48.1915C53.2037 48.2207 52.6515 49.1776 51.8285 50.508L51.7227 50.3242C52.1711 50.2999 52.6602 50.1005 53.029 49.7339C53.1076 49.6551 53.1775 49.5695 53.2386 49.4868L53.6122 48.9783L53.4677 49.589C53.3269 50.1851 53.193 50.7482 53.0717 51.2616L52.9125 51.1362C53.4783 50.8629 53.8742 50.4953 54.1217 50.2211C54.3721 49.9459 54.4886 49.7621 54.5119 49.7757Z" fill="#455A64"/>
<path d="M53.2725 26.2135L53.3152 25.0407V24.9045C53.3152 24.8617 53.323 24.676 53.323 24.6332C53.3376 24.6118 53.358 24.6118 53.3803 24.5972C53.6375 24.5544 53.8937 24.5476 54.1586 24.5476H54.3508C54.4294 24.5476 55.0505 24.5622 55.1291 24.5622C55.1718 24.5622 55.2145 24.5768 55.2436 24.5972C55.2436 24.6118 55.2504 24.641 55.2504 24.6478C55.2504 24.6624 55.2436 24.6983 55.2436 24.6983C55.2436 24.7265 55.2145 24.9269 55.2145 24.9561C55.2145 24.9921 55.1999 25.1846 55.1999 25.2274C55.0932 25.2848 55.0214 25.3061 54.8942 25.3129H54.4371L54.4216 25.3208C54.4216 25.3276 54.407 26.0151 54.4012 26.3078V26.7941C54.4216 26.7941 54.5225 26.8087 54.5371 26.8087C54.5944 26.8164 54.8079 26.83 54.8583 26.83C54.9156 26.8446 54.9292 26.8514 54.9292 26.901C54.9292 27.0372 54.8719 27.2511 54.8583 27.3882L54.7943 27.4233H54.3372V27.8239C54.3372 27.8453 54.3517 28.0388 54.3517 28.067C54.3595 28.1244 54.374 28.6243 54.374 28.6894C54.374 28.7176 54.3886 28.8538 54.3944 28.8898H55.2368L55.265 28.918C55.265 28.9257 55.2727 29.0249 55.2727 29.0541C55.2727 29.1047 55.265 29.2476 55.265 29.2622C55.2582 29.412 55.1941 29.3838 55.0796 29.4188C55.0728 29.4188 54.9864 29.447 54.9806 29.447C54.8515 29.4684 54.7098 29.4684 54.5808 29.4684C54.5303 29.4684 54.3808 29.4616 54.374 29.4616C54.3595 29.4616 54.2528 29.446 54.2382 29.446C54.1877 29.4392 53.753 29.4315 53.7025 29.4246C53.6879 29.4246 53.4948 29.3887 53.4317 29.3741C53.3958 29.3673 53.3599 29.3595 53.3453 29.3235V29.2953C53.2881 28.5873 53.2745 27.8871 53.2745 27.1782V26.2135H53.2725Z" fill="#455A64"/>
<path d="M55.7075 25.0192C55.821 24.8393 56.185 24.5329 56.8847 24.5329C57.5417 24.5329 57.8707 24.9326 57.8707 25.4266C57.8707 26.2776 57.8707 26.3136 57.6989 26.3136C57.6135 26.3136 57.4922 26.2776 57.3631 26.2776H57.1991C57.07 26.2776 56.9419 26.2708 56.9419 26.227C56.9419 26.1842 56.9565 26.085 56.9565 25.8701C56.9565 25.6338 56.942 25.3615 56.842 25.3615C56.4635 25.3615 56.2927 26.3418 56.2927 27.2861C56.2927 28.1652 56.4421 29.0171 56.7071 29.0171C56.907 29.0171 56.9215 28.2654 56.9215 28.1078L56.9002 28.0932C56.8934 28.0786 56.8798 28.0786 56.8507 28.0786C56.7789 28.0786 56.6576 28.1068 56.5857 28.1068C56.5576 28.1068 56.5431 28.1 56.5431 28.0854C56.5431 27.8345 56.5576 27.3697 56.5576 27.0692C56.9002 27.077 57.3 27.1266 57.6494 27.1266C57.7639 27.1266 57.7853 27.3269 57.7853 27.5846C57.7853 28.064 57.828 28.7078 57.6494 29.1377C57.464 29.5957 56.6285 29.6015 56.4431 29.6015C55.4299 29.6015 55.3086 28.5649 55.3086 27.642C55.3086 27.3347 55.3232 27.041 55.3232 26.7979C55.3222 26.0996 55.3717 25.5404 55.7075 25.0192Z" fill="#455A64"/>
<path d="M58.5859 25.0192C58.6995 24.8393 59.0634 24.5329 59.7632 24.5329C60.4202 24.5329 60.7492 24.9326 60.7492 25.4266C60.7492 26.2776 60.7491 26.3136 60.5774 26.3136C60.492 26.3136 60.3697 26.2776 60.2416 26.2776H60.0776C59.9485 26.2776 59.8204 26.2708 59.8204 26.227C59.8204 26.1842 59.8349 26.085 59.8349 25.8701C59.8349 25.6338 59.8204 25.3615 59.7204 25.3615C59.342 25.3615 59.1711 26.3418 59.1711 27.2861C59.1711 28.1652 59.3206 29.0171 59.5855 29.0171C59.7854 29.0171 59.8 28.2654 59.8 28.1078L59.7777 28.0932C59.7709 28.0786 59.7573 28.0786 59.7282 28.0786C59.6564 28.0786 59.535 28.1068 59.4642 28.1068C59.4361 28.1068 59.4216 28.1 59.4216 28.0854C59.4216 27.8345 59.4361 27.3697 59.4361 27.0692C59.7777 27.077 60.1785 27.1266 60.5279 27.1266C60.6424 27.1266 60.6637 27.3269 60.6637 27.5846C60.6637 28.064 60.7064 28.7078 60.5279 29.1377C60.3425 29.5957 59.5069 29.6015 59.3216 29.6015C58.3084 29.6015 58.1871 28.5649 58.1871 27.642C58.1871 27.3347 58.2016 27.041 58.2016 26.7979C58.1997 26.0996 58.2502 25.5404 58.5859 25.0192Z" fill="#455A64"/>
<path d="M11.2012 74.4067C11.2012 74.3134 11.208 73.9633 11.2158 73.9127C11.2158 73.8923 11.2662 73.5198 11.2866 73.3837C11.3225 73.1045 11.4584 72.6397 11.7292 72.49C11.8359 72.4316 11.8864 72.4462 11.9863 72.4112L12.0873 72.3528C12.094 72.3528 12.1581 72.3382 12.1727 72.3382C12.2154 72.3382 12.4007 72.3314 12.4434 72.3314C12.6084 72.3314 12.7792 72.3237 12.9364 72.3674C12.951 72.3674 13.0432 72.417 13.0723 72.4384L13.1296 72.4734L13.28 72.6242C13.3576 72.7175 13.3799 72.8741 13.4013 72.9888C13.4013 73.0384 13.4081 73.2893 13.4081 73.3389C13.4081 73.4391 13.4013 73.6822 13.4013 73.7036C13.4013 73.761 13.3858 74.0255 13.3858 74.0761C13.3654 74.1043 13.3081 74.1471 13.28 74.1471H12.6298C12.6298 74.1471 12.6094 74.1325 12.6016 74.1247C12.5871 74.1247 12.5589 74.0965 12.5589 74.0965V73.2602C12.5589 73.2456 12.5366 73.16 12.5308 73.1386C12.523 73.1308 12.5026 73.0676 12.4803 73.053C12.4299 73.0958 12.4163 73.195 12.3949 73.2456C12.3309 73.4245 12.3231 73.6316 12.3086 73.8252C12.3018 73.8894 12.2882 74.1684 12.2882 74.218V75.3053C12.3027 76.6784 12.4658 76.6784 12.5308 76.6784C12.6375 76.6784 12.687 76.4567 12.7026 76.3711C12.7094 76.3429 12.7229 76.2496 12.7229 76.235C12.7229 76.1494 12.7511 75.7692 12.7511 75.6914L12.787 75.6476H13.4013C13.4362 75.6476 13.4644 75.6758 13.4867 75.6982V75.8907C13.4867 75.9491 13.4586 76.2272 13.4586 76.2846L13.4013 76.6415C13.4013 76.6639 13.3722 76.7563 13.3654 76.7776C13.3576 76.8136 13.3227 76.9206 13.3149 76.9352C13.3081 76.9712 13.2587 77.0645 13.2509 77.0713C13.2363 77.0859 13.0946 77.2289 13.0442 77.2717C13.0218 77.2931 12.9791 77.3144 12.9588 77.329L12.6802 77.4506C12.5735 77.4934 12.4444 77.4866 12.3309 77.4866C12.295 77.4866 12.1523 77.4788 12.1231 77.4788C11.6457 77.3854 11.3167 77.1219 11.2458 76.6279C11.2177 76.4061 11.2313 76.1844 11.2031 75.9559V74.4067H11.2012Z" fill="#455A64"/>
<path d="M13.9361 72.6038C13.9361 72.6038 13.9574 72.5396 13.9642 72.525C13.971 72.5182 13.9992 72.5104 14.0069 72.5104C14.0137 72.5036 14.1069 72.4958 14.1205 72.489C14.135 72.489 14.2272 72.4598 14.2418 72.4598C14.2854 72.4453 14.399 72.417 14.4136 72.417H14.8784C14.8988 72.4316 14.9347 72.4384 14.956 72.4598V72.6679C14.956 73.1114 14.9211 73.5471 14.9211 73.9905C14.9211 74.0333 14.9279 74.2268 14.9279 74.2696C15.021 74.2764 15.2142 74.2842 15.2996 74.2842H15.3423L15.3568 74.2696C15.3568 74.1909 15.3714 73.833 15.3782 73.7552C15.385 73.5753 15.4491 72.739 15.4568 72.5532C15.4636 72.4958 15.4714 72.4598 15.5277 72.4394H15.6267C15.812 72.4394 16.0129 72.4462 16.1905 72.4598C16.2051 72.4598 16.2836 72.4676 16.2972 72.4744C16.3118 72.4744 16.3477 72.4958 16.3477 72.5104V72.525C16.3477 72.5678 16.3331 72.7895 16.3331 72.8323V77.331C16.3331 77.367 16.2904 77.367 16.2623 77.3816C16.04 77.4526 15.7974 77.4322 15.5694 77.4322H15.3549L15.3268 77.4176L15.2909 77.0237L15.2559 75.2071H14.9706V77.4039C14.9706 77.4253 14.8842 77.4535 14.8774 77.4535C14.8493 77.4535 14.7707 77.4681 14.7483 77.4681H14.5843C14.563 77.4681 14.4417 77.4535 14.4271 77.4535C14.3922 77.4535 14.1205 77.439 14.0846 77.4322C14.0409 77.4244 13.9351 77.3884 13.9351 77.3816L13.9137 76.7164L13.9361 72.6038Z" fill="#455A64"/>
<path d="M16.7844 76.5804C16.7844 76.4375 16.7776 75.8083 16.7776 75.6721C16.7776 75.4436 16.7844 74.8134 16.7844 74.7628C16.7922 74.4273 16.8349 72.8538 16.8562 72.5242C16.8844 72.4814 16.9349 72.4386 16.9921 72.4172C17.028 72.4172 17.2202 72.4104 17.2629 72.4104C17.2706 72.4104 17.3483 72.4026 17.3774 72.4026C17.5055 72.4026 17.7762 72.4104 17.8772 72.4892V73.9401C17.8772 74.4196 17.8626 76.6796 17.8548 77.1591C17.8199 77.231 17.655 77.266 17.5909 77.2962H16.9213C16.8922 77.2962 16.8349 77.2524 16.8145 77.2242C16.8058 77.0093 16.799 76.7953 16.7844 76.5804Z" fill="#455A64"/>
<path d="M18.3061 74.4067C18.3061 74.3134 18.3129 73.9633 18.3206 73.9127C18.3206 73.8923 18.3711 73.5198 18.3915 73.3837C18.4274 73.1045 18.5633 72.6397 18.834 72.49C18.9408 72.4316 18.9913 72.4462 19.0912 72.4112L19.1911 72.3528C19.1979 72.3528 19.262 72.3382 19.2766 72.3382C19.3193 72.3382 19.5046 72.3314 19.5473 72.3314C19.7123 72.3314 19.8831 72.3237 20.0403 72.3674C20.0549 72.3674 20.1471 72.417 20.1762 72.4384L20.2335 72.4734L20.3839 72.6242C20.4615 72.7175 20.4829 72.8741 20.5052 72.9888C20.5052 73.0384 20.512 73.2893 20.512 73.3389C20.512 73.4391 20.5052 73.6822 20.5052 73.7036C20.5052 73.761 20.4906 74.0255 20.4906 74.0761C20.4683 74.1043 20.412 74.1471 20.3839 74.1471H19.7337C19.7337 74.1471 19.7133 74.1325 19.7055 74.1247C19.691 74.1247 19.6628 74.0965 19.6628 74.0965V73.2602C19.6628 73.2456 19.6415 73.16 19.6347 73.1386C19.6269 73.1308 19.6065 73.0676 19.5842 73.053C19.5337 73.0958 19.5201 73.195 19.4988 73.2456C19.4347 73.4245 19.427 73.6316 19.4124 73.8252C19.4056 73.8894 19.3911 74.1684 19.3911 74.218V75.3053C19.4056 76.6784 19.5696 76.6784 19.6337 76.6784C19.7404 76.6784 19.7899 76.4567 19.8045 76.3711C19.8123 76.3429 19.8258 76.2496 19.8258 76.235C19.8258 76.1494 19.854 75.7692 19.854 75.6914L19.8899 75.6476H20.5042C20.5392 75.6476 20.5673 75.6758 20.5896 75.6982V75.8907C20.5896 75.9491 20.5614 76.2272 20.5614 76.2846L20.5042 76.6415C20.5042 76.6639 20.4751 76.7563 20.4683 76.7776C20.4606 76.8136 20.4256 76.9206 20.4179 76.9352C20.4111 76.9712 20.3606 77.0645 20.3538 77.0713C20.3392 77.0859 20.1975 77.2289 20.147 77.2717C20.1257 77.2931 20.083 77.3144 20.0617 77.329L19.7831 77.4506C19.6764 77.4934 19.5473 77.4866 19.4338 77.4866C19.3979 77.4866 19.2552 77.4788 19.2261 77.4788C18.7486 77.3854 18.4196 77.1219 18.3488 76.6279C18.3206 76.4061 18.3342 76.1844 18.3061 75.9559V74.4067Z" fill="#455A64"/>
<path d="M21.0196 77.3175V74.6782C21.0196 74.5712 21.0554 73.7057 21.0554 73.5987V72.8839C21.0554 72.8411 21.07 72.6194 21.07 72.5766C21.1273 72.3977 21.298 72.4337 21.4485 72.3909H21.9259C21.9551 72.3909 22.0977 72.4055 22.1259 72.4123C22.1686 72.4123 22.1977 72.4473 22.1977 72.4833V72.526C22.1686 72.8761 22.1618 73.2272 22.1618 73.5773V74.0139C22.319 73.4985 22.5335 73.0201 22.7257 72.526C22.7538 72.4551 22.7683 72.3471 22.8615 72.3189H22.9683C23.0682 72.3189 23.1536 72.3471 23.2536 72.3539C23.2895 72.3617 23.468 72.3695 23.5107 72.3695C23.5185 72.3695 23.5389 72.3841 23.5467 72.3909V72.4123C23.5467 72.4833 23.504 72.5484 23.4758 72.6048C23.4535 72.6758 23.2477 73.198 23.2254 73.2632C23.2108 73.2914 23.1187 73.5997 23.1041 73.6356C23.076 73.7212 22.8333 74.365 22.811 74.4438C22.7964 74.472 22.747 74.6431 22.7402 74.6791V74.6937H22.7257C22.847 74.7725 23.0187 74.8085 23.1604 75.0234C23.3099 75.1731 23.34 75.7246 23.3681 76.768C23.3681 76.8186 23.3962 76.9324 23.4176 76.9761C23.4467 77.0393 23.7185 77.2835 23.7185 77.298C23.7185 77.3904 23.3749 77.3904 23.2759 77.3904H23.2614C23.0614 77.3904 22.8693 77.37 22.647 77.37C22.091 77.37 22.3685 75.0526 22.055 74.9738C22.055 74.9592 22.0337 74.9524 22.0191 74.9524V75.5456L22.0045 75.5028V76.7194C21.99 76.8984 21.99 77.0841 21.9978 77.2689C21.9696 77.3331 21.891 77.37 21.8183 77.3836H21.1903C21.169 77.3836 21.069 77.369 21.0544 77.369C21.0341 77.3535 21.0196 77.3311 21.0196 77.3175Z" fill="#455A64"/>
<path d="M23.8116 76.5804V74.9359C23.8116 74.5713 23.8398 72.847 23.8476 72.4756C23.8903 72.4405 23.961 72.426 24.0115 72.4182C24.226 72.4182 25.2179 72.4114 25.4246 72.4114H25.5245C25.5604 72.4114 25.6895 72.3968 25.704 72.4396C25.704 72.4542 25.7109 72.5106 25.7109 72.5251C25.7109 72.5465 25.704 72.6039 25.704 72.6039C25.704 72.6895 25.6759 73.062 25.6759 73.1407C25.6536 73.1621 25.5973 73.1913 25.5827 73.1981H25.4401C25.2547 73.1981 25.0761 73.1475 24.8908 73.1475V73.5706C24.8908 73.6844 24.8986 74.2494 24.9053 74.3709C24.9772 74.3709 25.2974 74.3991 25.3693 74.4069H25.3838C25.4342 74.4137 25.5051 74.4283 25.5333 74.4711V74.5421C25.5333 74.7142 25.5119 74.8854 25.4973 75.0565C25.4478 75.0993 25.3615 75.0925 25.2907 75.0925C25.1761 75.0925 25.048 75.0565 24.9335 75.0565C24.9335 75.1431 24.919 75.536 24.919 75.6216L24.9694 76.6952C24.9772 76.7234 25.0199 76.7166 25.0335 76.7166C25.1829 76.7166 25.3334 76.6806 25.4828 76.6806C25.5187 76.6806 25.704 76.6806 25.704 76.7312V77.267L25.6041 77.3176C25.4042 77.3886 25.1829 77.3604 24.9908 77.4187H24.391C24.2416 77.3604 24.0698 77.3681 23.9125 77.3321C23.8912 77.3253 23.863 77.3039 23.8495 77.2748C23.833 77.1746 23.8116 76.6806 23.8116 76.5804Z" fill="#455A64"/>
<path d="M26.1388 75.7294C26.1388 75.3725 26.167 74.7063 26.1747 74.6713C26.1747 73.9128 26.1602 73.305 26.1602 72.597L26.1951 72.561C26.5804 72.5328 26.8298 72.4317 27.0657 72.4317C27.1297 72.4317 27.251 72.4113 27.251 72.561C27.5082 73.305 27.9216 74.7209 28.007 75.2509C28.007 75.036 27.9565 73.3624 27.9565 73.1474V73.09L27.9925 72.525C28.0565 72.4317 28.4632 72.4317 28.6631 72.4317H28.7203C28.8067 72.4317 28.9348 72.4317 28.9348 72.49C28.9348 72.705 28.9144 72.7545 28.9144 72.8615C28.9144 74.1559 28.8785 75.4581 28.8077 76.7524C28.8077 76.8098 28.7931 77.0743 28.7863 77.1317C28.7863 77.1823 28.7941 77.2182 28.7941 77.2533C28.7941 77.3116 28.7718 77.3466 28.6874 77.3466L27.8518 77.3748C27.7887 77.3748 26.9822 74.507 26.9822 74.2065L26.9531 74.964C26.9531 75.0146 26.9608 75.0642 26.9608 75.1148V75.9297C26.9608 76.4091 26.989 76.7952 26.989 77.2747C26.989 77.3602 26.8754 77.368 26.8104 77.368C26.6105 77.368 26.5824 77.3456 26.4533 77.3456C26.3679 77.3456 26.332 77.404 26.2534 77.404C26.2107 77.404 26.168 77.404 26.1398 77.368V75.7294H26.1388Z" fill="#455A64"/>
<path d="M52.1012 27.5223C52.0866 27.5826 51.7266 27.568 51.1928 27.3541C50.661 27.144 49.9729 26.6976 49.4091 26.015C48.8481 25.3303 48.5424 24.5679 48.4376 24.0048C48.3298 23.4379 48.3852 23.0819 48.4463 23.079C48.5948 23.0576 48.7462 24.4434 49.7982 25.6931C50.8221 26.9661 52.1507 27.3813 52.1012 27.5223Z" fill="#455A64"/>
<path d="M50.5727 24.2451C50.5038 24.3686 49.5537 23.8969 48.5027 23.2424C48.1388 22.9798 47.933 23.5624 47.8554 23.9737C47.7564 24.423 47.4585 24.6263 47.4197 24.5543C47.3799 24.4959 47.5002 24.3141 47.5031 23.9134C47.5157 23.7238 47.506 23.4311 47.6661 23.1238C47.7438 22.9769 47.87 22.8048 48.0971 22.7182C48.3251 22.6278 48.59 22.7037 48.7433 22.7961C49.8507 23.4855 50.6397 24.1245 50.5727 24.2451Z" fill="#455A64"/>
<path d="M24.1388 58.7295C24.2397 58.8627 21.5864 60.2329 19.6658 63.2204C17.6967 66.1768 17.4997 69.1603 17.3376 69.1205C17.2813 69.1176 17.2454 68.3795 17.4734 67.2125C17.6976 66.0484 18.2479 64.4691 19.2436 62.9423C20.2442 61.4194 21.4709 60.2845 22.4472 59.6154C23.4235 58.9395 24.1135 58.6789 24.1388 58.7295Z" fill="#455A64"/>
<path d="M24.6783 61.6302C24.5599 61.6438 24.3251 60.438 24.1174 58.8022L24.4386 59.0094C24.1727 59.0989 23.9059 59.1883 23.6302 59.2817C21.6776 59.9216 20.0598 60.332 20.0162 60.1997C19.9725 60.0665 21.5204 59.4402 23.473 58.8003C23.7486 58.7118 24.0175 58.6262 24.2853 58.5416L24.5774 58.4482L24.6056 58.7488C24.7618 60.3884 24.7977 61.6166 24.6783 61.6302Z" fill="#455A64"/>
<path d="M71.9466 25.3012L84 105.196H77.5453L69.8747 49.8215L71.9466 25.3012Z" fill="#455A64"/>
<path d="M75.65 0C75.6587 0.000972486 75.6577 0.141005 75.646 0.414274C75.6305 0.710882 75.6102 1.11252 75.584 1.62599C75.517 2.71712 75.4209 4.28088 75.2986 6.28323C75.0269 10.3521 74.6358 16.1948 74.1535 23.4048C73.1364 37.8803 71.735 57.8357 70.1861 79.878C69.8911 83.9878 69.6009 88.0246 69.3244 91.8756L69.3078 92.11L69.074 92.108C49.8439 91.9612 32.8779 91.8319 20.6897 91.7385C14.6271 91.6704 9.75431 91.6159 6.36927 91.578C4.70975 91.5498 3.41703 91.5275 2.51158 91.5119C2.09039 91.5002 1.75948 91.4905 1.51201 91.4827C1.28686 91.474 1.17231 91.4652 1.17231 91.4574C1.17231 91.4497 1.28686 91.4419 1.51201 91.436C1.75948 91.4322 2.09039 91.4263 2.51158 91.4185C3.41703 91.4137 4.7107 91.4069 6.37022 91.3981C9.75526 91.4001 14.6281 91.403 20.6916 91.4069C32.8799 91.4574 49.8458 91.5275 69.0769 91.6072L68.8265 91.8396C69.1011 87.9886 69.3894 83.9518 69.6825 79.8421C71.2886 57.8046 72.7424 37.8521 73.7973 23.3795C74.3466 16.1744 74.792 10.3356 75.1026 6.26961C75.2666 4.27018 75.3937 2.70838 75.483 1.6192C75.5306 1.1067 75.5675 0.706022 75.5946 0.410386C75.6228 0.139063 75.6412 0 75.65 0Z" fill="#263238"/>
</svg>
