<svg width="9" height="12" viewBox="0 0 9 12" fill="none" xmlns="http://www.w3.org/2000/svg">
<path d="M1.28835 1.66691C1.28835 1.66691 1.6222 -0.614051 6.41343 0.160455C9.41604 0.646043 7.84594 2.59754 7.84594 2.59754C7.84594 2.59754 9.52834 4.21852 7.52019 5.60634L7.83178 5.84054C7.83178 5.84054 10.2244 7.0408 8.16158 9.17576C8.16158 9.17576 8.9173 10.5535 7.88642 11.5865C6.85553 12.6195 4.2768 11.2418 4.2768 11.2418C4.2768 11.2418 0.630769 11.183 0.42439 10.2179C0.218011 9.25383 0.942357 8.86454 1.14772 8.72667C1.3541 8.5888 3.69205 8.41749 3.69205 8.41749C3.69205 8.41749 0.505329 8.38402 0.215994 7.75549C-0.297931 6.64036 -0.164402 5.50092 3.69205 5.64183C3.69205 5.64183 0.823989 5.58404 0.493176 4.98085C0.112791 4.28745 0.570063 3.45112 1.60095 2.96959C2.63183 2.48704 3.55447 2.56205 3.55447 2.56205C3.55447 2.56205 0.875595 3.11455 1.28835 1.66691Z" fill="#FFBF9D"/>
</svg>
