<svg width="5" height="5" viewBox="0 0 5 5" fill="none" xmlns="http://www.w3.org/2000/svg">
<path d="M4.86867 2.45777C4.87686 2.95394 4.74107 3.44137 4.47859 3.85803C4.21612 4.27468 3.83883 4.60169 3.39477 4.79742C2.9507 4.99316 2.45994 5.04875 1.985 4.95712C1.51007 4.8655 1.07243 4.6308 0.727818 4.28292C0.383206 3.93504 0.147213 3.48972 0.0498841 3.00365C-0.047445 2.51759 -0.0016802 2.01276 0.181307 1.55348C0.364294 1.0942 0.676227 0.701221 1.07743 0.424601C1.47862 0.147982 1.95093 0.000233181 2.43417 0.000161898C2.75142 -0.00356669 3.06624 0.0571419 3.36056 0.178804C3.65487 0.300466 3.92284 0.480688 4.14909 0.709084C4.37534 0.93748 4.55541 1.20954 4.6789 1.50964C4.80239 1.80975 4.86687 2.13198 4.86867 2.45777Z" fill="#F06449"/>
</svg>
