<svg width="18" height="14" viewBox="0 0 18 14" fill="none" xmlns="http://www.w3.org/2000/svg">
<path d="M17.9077 0.33277C17.9789 0.647681 18.0072 0.971235 17.9917 1.29414C18.0502 3.62704 17.7998 5.95729 17.2475 8.22099C16.8419 10.0651 15.9681 11.7661 14.715 13.1511L14.643 13.2251H14.535H7.94554H7.65749V12.9169L7.95755 13.2251H3.56461L3.46861 13.1388C2.6473 12.2856 1.99509 11.2768 1.54819 10.1684C0.897327 8.55635 0.465187 6.86013 0.263907 5.12732C0.0508946 3.52251 -0.0333964 1.90246 0.0118634 0.283477V0H0.299913H7.40544L13.0346 0.0739489L16.6354 0.172554C17.0368 0.164962 17.4381 0.189686 17.8357 0.246503C17.3855 0.299585 16.9325 0.324279 16.4794 0.320452L12.8786 0.419056L7.38142 0.505324H0.275921L0.563971 0.209528C0.453576 3.48171 0.971518 6.7442 2.08828 9.81094C2.50497 10.8413 3.11233 11.7789 3.87669 12.5718L3.66062 12.4855H8.23362V12.7937L7.93356 12.4855H14.523L14.3429 12.5595C15.541 11.2536 16.3923 9.65359 16.8154 7.91285C17.1876 6.56491 17.4525 5.18816 17.6076 3.79618C17.7397 2.64993 17.7877 1.72554 17.8237 1.10927C17.8316 0.848565 17.8597 0.588912 17.9077 0.33277Z" fill="#263238"/>
</svg>
