<svg width="66" height="156" viewBox="0 0 66 156" fill="none" xmlns="http://www.w3.org/2000/svg">
<path d="M6.98908 3.98424L15.8377 0L16.3805 0.714877C18.0661 3.76959 21.4906 5.79861 25.2602 5.76753C29.2565 5.7345 31.4142 3.75112 33.3605 0.520607L35.2283 0.714877L46.4943 2.24466L48.0365 83.4523L0.473523 82.548C-0.488011 79.9207 0.00148595 79.3311 2.06413 77.948L4.98071 57.9015L2.27834 5.59561L6.98908 3.98424Z" fill="#FF725E"/>
<path d="M54.301 7.62952C51.554 2.23692 45.8963 2.24664 45.8963 2.24664L46.3179 17.8359L46.2927 40.0386L46.3936 37.2986L47.2727 37.1004L65.2239 32.3965C65.2239 32.3965 55.9023 10.7746 54.301 7.62952Z" fill="#FF725E"/>
<path d="M53.5604 80.2452L48.3234 53.7717L47.2581 26.8863C47.2581 26.8863 43.6727 6.68156 41.8175 1.55509L38.5762 0.984951L40.8056 20.5244L14.1327 21.4947L12.5382 1.48613L7.85946 3.50836C7.85946 7.39935 7.85946 19.7911 7.85946 24.0395C7.85946 27.7323 7.89243 38.4272 7.89243 38.4272L7.90405 62.2394C7.90405 62.2394 7.08986 73.4869 5.72994 83.4534C4.36906 93.4198 2.94324 154.693 2.94324 154.693L56.636 156C56.636 156 57.8466 105.565 53.5604 80.2452Z" fill="#E0E0E0"/>
<path d="M48.4233 87.8445C48.4271 87.8522 48.3322 87.9076 48.148 88.0076C47.9396 88.1164 47.6701 88.2582 47.3357 88.433C46.6291 88.8012 45.593 89.3062 44.3009 89.9075C41.7177 91.1109 38.0849 92.6455 33.9693 94.0714C29.8508 95.4924 26.0395 96.5317 23.2586 97.1824C21.8687 97.5088 20.7385 97.7516 19.9533 97.9002C19.5811 97.9692 19.2816 98.0255 19.049 98.0683C18.8416 98.1042 18.7321 98.1187 18.7301 98.111C18.7282 98.1032 18.8348 98.0721 19.0383 98.0207C19.2681 97.9663 19.5637 97.8954 19.932 97.808C20.7104 97.6321 21.8328 97.3631 23.215 97.0154C25.9804 96.3228 29.7761 95.2602 33.8859 93.8422C37.9928 92.4202 41.6286 90.9137 44.2263 89.7521C45.5261 89.1722 46.5719 88.6914 47.2911 88.3495C47.6343 88.1912 47.9105 88.064 48.1238 87.9659C48.3167 87.8775 48.4194 87.8367 48.4233 87.8445Z" fill="#263238"/>
<path d="M41.6381 105.567C41.6401 105.574 41.5645 105.602 41.4181 105.645C41.2436 105.694 41.0323 105.754 40.7764 105.825C40.2181 105.976 39.4068 106.184 38.4017 106.429C36.3914 106.921 33.6027 107.553 30.5049 108.169C27.4061 108.783 24.5855 109.265 22.5393 109.58C21.5157 109.737 20.687 109.856 20.1122 109.929C19.8486 109.96 19.6305 109.986 19.4502 110.007C19.298 110.023 19.2176 110.027 19.2166 110.018C19.2156 110.009 19.2932 109.989 19.4424 109.958C19.6208 109.924 19.8369 109.883 20.0977 109.833C20.7064 109.727 21.5206 109.583 22.5112 109.408C24.5486 109.051 27.3605 108.543 30.4574 107.928C33.5524 107.312 36.3439 106.708 38.3629 106.259C39.3438 106.042 40.1522 105.864 40.7551 105.731C41.0149 105.677 41.2301 105.633 41.4075 105.596C41.5567 105.569 41.6362 105.559 41.6381 105.567Z" fill="#263238"/>
<path d="M41.3911 36.8159C41.3891 36.8139 41.3862 36.7829 41.3843 36.7246C41.3824 36.6556 41.3804 36.5731 41.3775 36.4691C41.3736 36.2321 41.3678 35.9067 41.361 35.493C41.3523 34.6344 41.3387 33.4067 41.3223 31.8613L41.392 31.9293C36.0212 31.941 26.9516 31.9614 16.6558 31.9837H16.6549C16.903 31.7389 16.7237 31.9167 16.7789 31.8623V31.8652V31.8701V31.8798V31.8992V31.939V32.0187V32.177V32.4936V33.125C16.7789 33.5446 16.7789 33.9613 16.7789 34.375C16.7789 35.2026 16.778 36.0165 16.778 36.8139L16.6549 36.6935C23.658 36.7149 29.8217 36.7333 34.2533 36.7469C36.4603 36.7615 38.2351 36.7731 39.4758 36.7819C40.0787 36.7887 40.5526 36.7945 40.8909 36.7984C41.0431 36.8023 41.1652 36.8042 41.2612 36.8062C41.3436 36.8101 41.3882 36.813 41.3911 36.8159C41.394 36.8188 41.3543 36.8207 41.2757 36.8236C41.1837 36.8256 41.0664 36.8285 40.92 36.8314C40.5875 36.8353 40.1233 36.8402 39.532 36.847C38.2981 36.8557 36.533 36.8674 34.3376 36.8819C29.8847 36.8955 23.6909 36.914 16.6529 36.9354H16.5298V36.8139C16.5298 36.0165 16.5288 35.2026 16.5288 34.375C16.5288 33.9613 16.5289 33.5446 16.5279 33.125V32.4936V32.177V32.0187V31.939V31.8992V31.8798V31.8701V31.8652V31.8623C16.5831 31.8069 16.4038 31.9837 16.6529 31.7389H16.6539C26.9497 31.7613 36.0193 31.7817 41.3901 31.7933H41.4599L41.4589 31.8613C41.4425 33.4232 41.4299 34.6645 41.4202 35.5328C41.4134 35.9408 41.4076 36.2613 41.4037 36.4944C41.4008 36.5935 41.3988 36.6721 41.3969 36.7382C41.395 36.7916 41.393 36.8178 41.3911 36.8159Z" fill="#263238"/>
<path d="M35.6606 53.1686C35.6558 53.1365 36.1491 53.1948 36.9905 52.9209C37.4073 52.783 37.9045 52.5421 38.3834 52.1283C38.8573 51.7165 39.3284 51.1356 39.5921 50.3722C39.8984 49.6165 39.816 48.7055 39.8218 47.7264C39.8179 46.7454 39.814 45.6857 39.8102 44.5552C39.8043 42.2901 39.7975 39.7395 39.7908 36.9616L39.8993 37.0684C34.7543 37.0733 28.738 37.0782 22.3339 37.084C20.8809 37.084 19.4493 37.083 18.0942 37.083L18.2183 36.9616C18.227 41.4227 18.1883 45.6527 18.229 49.4359C18.3317 50.3586 18.7533 51.2133 19.3776 51.8408C20.0028 52.4663 20.8073 52.8762 21.6321 53.0093C22.0421 53.0899 22.458 53.0695 22.8718 53.0753C23.2838 53.0763 23.688 53.0782 24.0844 53.0792C24.8763 53.0821 25.6353 53.0841 26.3593 53.087C29.243 53.1025 31.5644 53.1151 33.1812 53.1239C33.9712 53.1326 34.5886 53.1404 35.0228 53.1453C35.2235 53.1501 35.3805 53.154 35.4997 53.1569C35.6054 53.1608 35.6606 53.1637 35.6606 53.1686C35.6606 53.1734 35.6054 53.1763 35.4988 53.1802C35.3795 53.1831 35.2215 53.187 35.0219 53.1919C34.5876 53.1967 33.9712 53.2045 33.1802 53.2132C31.5644 53.222 29.242 53.2346 26.3584 53.2502C25.6343 53.2531 24.8754 53.255 24.0835 53.2579C23.687 53.2589 23.2828 53.2608 22.8709 53.2618C22.4628 53.2579 22.0305 53.2812 21.5982 53.1996C20.7326 53.0646 19.8855 52.6392 19.2264 51.9846C18.5692 51.3289 18.1194 50.4305 18.008 49.4582C17.9508 45.6294 17.9828 41.4315 17.9692 36.9606V36.8392H18.0932C19.4483 36.8392 20.8809 36.8383 22.3329 36.8383C28.736 36.8441 34.7534 36.8489 39.8983 36.8538H40.0079V36.9606C40.0011 39.7385 39.9943 42.2891 39.9885 44.5542C39.9846 45.6848 39.9798 46.7444 39.9769 47.7254C39.972 48.2169 39.9798 48.6841 39.9633 49.1377C39.9546 49.5952 39.8528 50.0255 39.7132 50.414C39.4331 51.1968 38.9397 51.7874 38.4483 52.2021C37.951 52.6178 37.4383 52.8548 37.0118 52.984C36.5834 53.1142 36.2403 53.1559 36.0105 53.1686C35.9029 53.1705 35.8177 53.1715 35.7488 53.1734C35.6897 53.1724 35.6606 53.1705 35.6606 53.1686Z" fill="#263238"/>
<g opacity="0.3">
<path d="M37.0389 52.9451C32.3059 55.3325 26.432 55.4054 21.6398 53.1355L37.0389 52.9451Z" fill="black"/>
</g>
</svg>
