<svg width="93" height="90" viewBox="0 0 93 90" fill="none" xmlns="http://www.w3.org/2000/svg">
<path fill-rule="evenodd" clip-rule="evenodd" d="M46.5 7.49805C25.11 7.49805 7.75 24.2927 7.75 44.9861C7.75 65.6796 25.11 82.4742 46.5 82.4742C67.89 82.4742 85.25 65.6796 85.25 44.9861C85.25 24.2927 67.89 7.49805 46.5 7.49805ZM71.145 63.0929C65.6037 56.57 52.1575 54.3582 46.5 54.3582C40.8425 54.3582 27.3962 56.57 21.855 63.0929C17.9025 58.0695 15.5 51.809 15.5 44.9861C15.5 28.4539 29.4113 14.9957 46.5 14.9957C63.5887 14.9957 77.5 28.4539 77.5 44.9861C77.5 51.809 75.0975 58.0695 71.145 63.0929ZM32.9375 35.6141C32.9375 28.3414 38.9825 22.4933 46.5 22.4933C54.0175 22.4933 60.0625 28.3414 60.0625 35.6141C60.0625 42.8868 54.0175 48.735 46.5 48.735C38.9825 48.735 32.9375 42.8868 32.9375 35.6141Z" fill="black"/>
</svg>
