<svg width="99" height="245" viewBox="0 0 99 245" fill="none" xmlns="http://www.w3.org/2000/svg">
<path d="M59.3383 11.8984C59.3383 11.8984 62.3683 23.2505 62.6295 31.283L62.716 33.9593C62.716 33.9593 56.0305 39.5219 50.422 39.8654L45.7216 28.2837L59.3383 11.8984Z" fill="#263238"/>
<path d="M29.6409 18.8614C30.919 13.324 31.4104 6.87968 36.005 3.27019C39.4148 0.591042 43.2994 -0.155381 47.6289 0.0256291C49.7606 0.115161 52.1672 1.101 54.024 2.15397C56.5695 3.59816 57.6484 6.52642 58.8759 9.18708C61.3369 14.5171 61.0251 21.7342 59.3586 23.7399L37.1325 35.5017C32.6943 33.1875 29.9138 32.2649 29.2049 26.3373C28.9058 23.8411 29.0757 21.3099 29.6409 18.8614Z" fill="#263238"/>
<path d="M36.2409 7.67L50.2287 3.53402C54.7349 2.87615 57.9621 8.34051 58.4273 12.8794C58.9439 17.9224 59.3761 24.0991 58.9255 27.8945C58.0213 35.5261 52.2584 36.7211 52.2584 36.7211C52.2555 36.6958 52.2448 36.835 52.2904 39.0899L52.3079 43.7338C52.3681 45.2111 52.1088 45.7074 51.2076 46.8782C49.1448 49.5563 45.3845 49.9145 40.9511 48.2708C38.3814 47.318 36.5945 45.4018 36.3983 42.7908L33.9665 10.4698C33.8839 9.08597 34.8726 7.8695 36.2409 7.67Z" fill="#AE7461"/>
<path d="M57.0977 20.0779C57.1356 20.5907 56.7335 21.0462 56.2003 21.0958C55.6672 21.1454 55.2039 20.7717 55.1651 20.2579C55.1272 19.745 55.5283 19.2886 56.0615 19.239C56.5956 19.1894 57.0589 19.564 57.0977 20.0779Z" fill="#263238"/>
<path d="M57.5017 17.4522C57.3861 17.5836 56.6296 17.0678 55.5846 17.1116C54.5406 17.1408 53.7948 17.7091 53.6772 17.5855C53.619 17.531 53.7326 17.2975 54.057 17.0406C54.3765 16.7856 54.9271 16.5277 55.5778 16.5044C56.2285 16.482 56.785 16.7009 57.1093 16.9335C57.4415 17.1681 57.559 17.3938 57.5017 17.4522Z" fill="#263238"/>
<path d="M47.5036 20.3562C47.5414 20.8691 47.1394 21.3245 46.6063 21.3741C46.0731 21.4238 45.6098 21.0501 45.571 20.5362C45.5331 20.0234 45.9352 19.567 46.4674 19.5173C47.0015 19.4687 47.4657 19.8433 47.5036 20.3562Z" fill="#263238"/>
<path d="M47.2268 17.5759C47.1113 17.7073 46.3538 17.1915 45.3098 17.2353C44.2658 17.2645 43.5199 17.8328 43.4024 17.7092C43.3451 17.6547 43.4568 17.4212 43.7821 17.1643C44.1007 16.9083 44.6523 16.6504 45.3029 16.6281C45.9536 16.6057 46.5101 16.8246 46.8345 17.0582C47.1647 17.2918 47.2832 17.5175 47.2268 17.5759Z" fill="#263238"/>
<path d="M51.2951 24.3628C51.2883 24.3034 51.9331 24.1652 52.98 23.9891C53.2451 23.9511 53.4957 23.8879 53.5336 23.704C53.5889 23.5084 53.4656 23.2242 53.3248 22.9186C53.0489 22.2822 52.7596 21.6146 52.4566 20.9149C51.2475 18.0605 50.3608 15.7084 50.4754 15.6617C50.591 15.614 51.6641 17.8883 52.8732 20.7436C53.1645 21.4481 53.4432 22.1187 53.7093 22.7609C53.822 23.0607 54.0094 23.3984 53.889 23.8042C53.8249 24.0066 53.6346 24.1594 53.4656 24.212C53.2966 24.2713 53.1471 24.2801 53.015 24.2927C51.9584 24.391 51.3019 24.4222 51.2951 24.3628Z" fill="#263238"/>
<path d="M52.2885 36.7211C52.2885 36.7211 47.2093 37.2515 42.0447 34.4108C42.0447 34.4108 44.7591 39.6192 52.307 38.611L52.2885 36.7211Z" fill="#6F4439"/>
<path d="M47.9075 26.6888C48.16 26.2382 48.6398 25.9881 49.14 25.9521C49.8606 25.9005 50.4753 26.1243 50.9696 26.7724C51.1376 26.9593 51.1444 27.5033 51.0842 27.6551C51.024 27.8079 51.0726 27.732 50.9599 27.84C50.553 28.2293 50.1218 28.6195 49.5857 28.7713C49.0497 28.9222 48.3766 28.7733 48.0017 28.2565C47.6686 27.7972 47.6541 27.1393 47.9075 26.6888Z" fill="#6F4439"/>
<path d="M48.0629 25.2532C48.2319 25.2357 48.2853 26.3714 49.2914 27.1334C50.2965 27.8983 51.4989 27.7163 51.5144 27.8749C51.5338 27.946 51.2551 28.1085 50.7462 28.1445C50.2471 28.1844 49.509 28.0569 48.8932 27.5898C48.2785 27.1217 47.9949 26.4735 47.9347 26.0093C47.8706 25.5374 47.9842 25.2503 48.0629 25.2532Z" fill="#263238"/>
<path d="M47.622 13.7445C47.5473 14.0374 46.4946 14.0053 45.2884 14.271C44.0764 14.5133 43.1265 14.9668 42.9401 14.7284C42.8556 14.6135 43.0012 14.3304 43.3732 14.017C43.7413 13.7046 44.3453 13.3825 45.0698 13.2297C45.7953 13.0779 46.477 13.1295 46.9393 13.2667C47.4055 13.4049 47.6531 13.6053 47.622 13.7445Z" fill="#263238"/>
<path d="M57.4153 14.6351C57.1784 14.8414 56.4169 14.4813 55.4613 14.3314C54.5105 14.1514 53.6705 14.2331 53.519 13.9597C53.4539 13.8283 53.6161 13.6113 54.0026 13.439C54.3833 13.2678 54.9942 13.1704 55.6497 13.2833C56.3043 13.3972 56.8443 13.693 57.1424 13.983C57.4454 14.275 57.5212 14.5329 57.4153 14.6351Z" fill="#263238"/>
<path d="M50.2772 2.71638C50.2897 2.77087 50.3004 2.82635 50.3129 2.88085L50.2869 2.89155C50.284 2.83316 50.2811 2.77477 50.2772 2.71638Z" fill="#263238"/>
<path d="M40.4987 39.7828C40.285 37.7936 41.0833 35.7957 40.8512 33.8094C40.6055 31.7035 39.2439 29.8973 38.6855 27.8526C37.791 24.5769 39.0186 21.093 39.4682 17.7073C41.362 17.4728 43.1295 16.3332 44.3911 14.8588C45.909 13.0857 46.8277 10.8873 47.7212 8.72881C47.6687 10.8445 46.9365 12.9378 45.6614 14.6253C46.5024 14.8014 47.3891 14.4404 48.0203 13.8574C48.6516 13.2745 49.0653 12.493 49.4052 11.7028C50.2278 9.78762 50.6745 7.71768 50.7464 5.63412C51.0251 8.61494 50.6959 11.6532 49.7567 14.4949C50.287 14.3314 50.8542 14.4783 51.4029 14.5581C51.9516 14.6379 52.5809 14.6223 52.9684 14.2253C53.2277 13.9596 53.3219 13.5772 53.3977 13.2132C53.9202 10.6791 54.0056 8.05537 53.6492 5.49204C54.3241 6.87783 54.9943 8.2792 55.3856 9.7701C55.777 11.262 55.879 12.8648 55.4177 14.3353C55.6352 14.6126 56.0994 14.5688 56.3578 14.3294C56.6171 14.09 56.7152 13.7251 56.7695 13.3767C56.9686 12.1028 56.7443 10.8046 56.52 9.53362C57.2765 10.8785 57.5281 12.4385 57.9466 13.9236C58.3652 15.4096 59.0314 16.9327 60.3201 17.7793C60.5435 15.5566 60.4639 14.0384 60.1307 11.9578C59.8763 10.3676 59.1227 8.78914 58.4283 7.33717C57.6494 5.71002 56.5675 4.11695 55.3584 3.05619C53.1277 1.09817 52.1954 1.94093 50.7717 2.68735L50.6036 2.7584C50.5987 2.72337 50.5968 2.68833 50.592 2.6533L50.5279 2.34966C46.8199 1.51273 42.8887 1.69667 39.275 2.87713C36.5897 3.75395 36.343 9.54724 35.6884 6.79414C35.2922 5.12807 33.1372 6.64915 33.111 6.69683C29.944 12.421 26.5876 21.5007 26.4332 35.8492L40.4987 39.7828Z" fill="#263238"/>
<path d="M33.3819 35.2215C33.4139 35.201 33.0886 34.7359 32.638 33.824C32.1893 32.9151 31.6464 31.5302 31.356 29.7396C31.0744 27.9567 31.0841 25.7457 31.7795 23.4548C32.467 21.1601 33.9277 18.9053 35.7564 16.8324C37.588 14.7488 39.5556 12.9621 41.2192 11.2026C42.8867 9.44796 44.2405 7.71182 45.1514 6.1129C46.0614 4.51203 46.5354 3.0805 46.7286 2.07229C46.8228 1.56625 46.8792 1.17308 46.8899 0.901565C46.9103 0.631997 46.9151 0.490882 46.9034 0.489909C46.8617 0.485043 46.8355 1.05338 46.5985 2.0431C46.3674 3.03087 45.8662 4.42737 44.9417 5.99029C44.0161 7.55223 42.6604 9.25236 40.99 10.9836C39.3254 12.7198 37.3481 14.5016 35.4981 16.6056C33.6509 18.698 32.1641 21.0054 31.4765 23.3634C30.7811 25.7145 30.7995 27.9713 31.1171 29.7795C31.4434 31.5964 32.03 32.9861 32.5195 33.8853C32.77 34.3339 32.974 34.6755 33.1352 34.8925C33.2877 35.1154 33.3722 35.2283 33.3819 35.2215Z" fill="#E0E0E0"/>
<path d="M35.168 218.77L37.255 240.239L47.9524 238.925L48.6837 228.169L35.168 218.77Z" fill="#FFBF9D"/>
<path d="M73.5446 236.376C73.331 236.041 71.4877 228.831 71.4877 228.831L83.9254 225.787L85.4511 236.154L73.5446 236.376Z" fill="#FFBF9D"/>
<path d="M85.3879 234.118L85.3821 234.944C85.3821 234.944 98.8706 240.682 98.9872 243.337L72.0898 242.958L72.5967 233.719C76.5678 235.689 80.7496 235.964 85.3879 234.118Z" fill="#FF725E"/>
<g opacity="0.6">
<path d="M75.2761 236.713C74.7536 236.852 74.3846 237.452 74.4973 237.997C74.6099 238.542 75.1955 238.933 75.7209 238.802C76.2454 238.672 76.7105 237.966 76.5396 237.439C76.3687 236.911 75.6558 236.49 75.1761 236.746" fill="white"/>
</g>
<g opacity="0.6">
<path d="M72.0898 242.958L72.2121 240.736L97.9471 241.914C97.9471 241.914 99.1357 242.468 98.9872 243.337L72.0898 242.958Z" fill="white"/>
</g>
<path d="M85.4753 235.023C85.4685 235.158 84.8111 235.21 84.1584 235.638C83.4951 236.047 83.1523 236.63 83.0329 236.575C82.9124 236.547 83.1202 235.739 83.9195 235.236C84.7139 234.726 85.5064 234.899 85.4753 235.023Z" fill="#263238"/>
<path d="M88.2782 236.267C88.3064 236.399 87.7344 236.622 87.2789 237.189C86.8079 237.743 86.6855 238.362 86.5554 238.354C86.432 238.373 86.3533 237.578 86.9312 236.883C87.5042 236.185 88.2772 236.139 88.2782 236.267Z" fill="#263238"/>
<path d="M89.8271 239.777C89.7077 239.805 89.5348 239.124 89.8834 238.387C90.2272 237.646 90.8507 237.362 90.9051 237.476C90.977 237.589 90.572 237.982 90.2952 238.592C90.0039 239.195 89.9582 239.766 89.8271 239.777Z" fill="#263238"/>
<path d="M36.2301 235.756L36.236 236.582C36.236 236.582 22.7474 242.319 22.6309 244.975L49.5283 244.596L49.0204 235.357C45.0503 237.326 40.8684 237.601 36.2301 235.756Z" fill="#FF725E"/>
<g opacity="0.6">
<path d="M46.3422 238.351C46.8647 238.49 47.2337 239.09 47.1211 239.635C47.0084 240.179 46.4228 240.571 45.8974 240.44C45.372 240.31 44.9078 239.604 45.0788 239.077C45.2497 238.548 45.9625 238.128 46.4423 238.384" fill="white"/>
</g>
<g opacity="0.6">
<path d="M49.5286 244.595L49.4062 242.373L23.6713 243.55C23.6713 243.55 22.4826 244.105 22.6311 244.974L49.5286 244.595Z" fill="white"/>
</g>
<path d="M36.143 236.661C36.1498 236.796 36.8073 236.848 37.4599 237.276C38.1232 237.685 38.466 238.268 38.5855 238.213C38.7059 238.185 38.4981 237.377 37.6988 236.874C36.9034 236.364 36.1119 236.536 36.143 236.661Z" fill="#263238"/>
<path d="M33.3402 237.905C33.312 238.037 33.885 238.259 34.3395 238.827C34.8105 239.38 34.9329 239.998 35.063 239.991C35.1873 240.011 35.266 239.216 34.6872 238.521C34.1142 237.821 33.3411 237.776 33.3402 237.905Z" fill="#263238"/>
<path d="M31.7911 241.414C31.9106 241.442 32.0835 240.761 31.7348 240.024C31.391 239.283 30.7675 238.999 30.7131 239.113C30.6413 239.226 31.0453 239.618 31.323 240.229C31.6144 240.831 31.66 241.403 31.7911 241.414Z" fill="#263238"/>
<path d="M69.7521 110.326C70.3271 110.712 74.1835 136.885 79.1879 171.678C83.3047 200.293 85.4345 229.221 85.4345 229.221L72.0703 231.49C72.0703 231.49 60.3201 195.88 54.2503 170.315C48.6525 146.74 46.0275 130.261 46.0275 130.261L46.4053 113.101L69.7521 110.326Z" fill="#263238"/>
<path d="M29.6012 99.8693C29.6012 99.8693 16.9867 115.889 17.6432 132.904C18.0356 143.083 36.0371 229.344 36.0371 229.344L49.2149 229.257L47.798 134.912L49.6898 112.71L29.6012 99.8693Z" fill="#263238"/>
<path d="M49.4334 130.334C49.3897 130.313 49.651 129.649 50.0132 128.558C50.3764 127.467 50.8193 125.938 51.1485 124.212C51.4748 122.486 51.6253 120.899 51.6884 119.746C51.7525 118.594 51.7535 117.878 51.8021 117.876C51.8234 117.875 51.8468 118.053 51.8701 118.378C51.8963 118.702 51.9099 119.172 51.905 119.754C51.8973 120.916 51.7798 122.527 51.4496 124.273C51.1165 126.018 50.6357 127.554 50.2171 128.634C50.0083 129.175 49.8238 129.606 49.681 129.896C49.5402 130.186 49.4528 130.342 49.4334 130.334Z" fill="#455A64"/>
<path d="M74.8158 230.764C74.744 230.802 74.3292 230.091 74.068 229.112C73.8029 228.134 73.8019 227.303 73.8835 227.297C73.9709 227.289 74.1059 228.08 74.3632 229.027C74.6158 229.975 74.8955 230.724 74.8158 230.764Z" fill="#455A64"/>
<path d="M79.3763 229.973C79.355 229.98 79.3191 229.931 79.2715 229.835L79.2685 229.814C79.2219 229.529 79.185 228.893 79.0636 228.167C78.9072 227.18 78.6547 226.402 78.7373 226.366C78.8092 226.33 79.2015 227.083 79.3647 228.114C79.4909 228.868 79.4531 229.532 79.3929 229.817L79.3899 229.797C79.4016 229.905 79.3967 229.966 79.3763 229.973Z" fill="#455A64"/>
<path d="M83.736 229.32C83.6467 229.309 83.7107 228.388 83.5505 227.279C83.3999 226.168 83.0853 225.304 83.1679 225.267C83.2368 225.229 83.6942 226.07 83.8525 227.233C84.0206 228.394 83.8137 229.336 83.736 229.32Z" fill="#455A64"/>
<path d="M46.8453 229.461C46.7618 229.425 47.0444 228.629 47.1279 227.607C47.2212 226.585 47.0794 225.752 47.1678 225.732C47.2425 225.705 47.53 226.552 47.4328 227.635C47.3425 228.717 46.9143 229.5 46.8453 229.461Z" fill="#455A64"/>
<path d="M42.408 229.415C42.3235 229.42 42.2137 228.599 42.1642 227.582C42.1137 226.564 42.1409 225.735 42.2254 225.731C42.3099 225.726 42.4187 226.547 42.4692 227.565C42.5197 228.582 42.4925 229.41 42.408 229.415Z" fill="#455A64"/>
<path d="M38.9224 229.297C38.8466 229.329 38.4922 228.556 38.296 227.528C38.095 226.5 38.1338 225.646 38.2154 225.644C38.3028 225.64 38.3999 226.466 38.5961 227.465C38.7874 228.465 39.0049 229.266 38.9224 229.297Z" fill="#455A64"/>
<path d="M93.5399 82.715C93.5399 82.715 94.5965 81.1959 92.9222 76.9451C91.248 72.6943 71.7916 48.8019 71.7916 48.8019C71.7916 48.8019 64.5535 54.6244 64.9517 61.3763L68.1177 64.9333L80.366 80.5916L93.5399 82.715Z" fill="#AE7461"/>
<path d="M27.6908 43.8905L36.4411 40.5856C38.0114 43.6735 41.2027 45.7239 44.7154 45.6918C48.4398 45.6577 50.4501 43.654 52.2633 40.389L54.0036 40.5856L64.5019 42.132L64.232 92.7622H27.4403L23.3012 45.5196L27.6908 43.8905Z" fill="#FF725E"/>
<path d="M63.8979 42.134C63.8979 42.134 67.16 41.6445 72.3917 47.575C74.7506 50.2483 83.1959 60.9279 83.1959 60.9279L69.1509 68.0593L65.714 64.9656L64.298 80.33L64.3242 57.8896L63.8979 42.134Z" fill="#FF725E"/>
<path d="M24.1072 45.8075L23.3012 45.5185C23.3012 45.5185 17.7558 48.2035 14.8588 57.689C11.9618 67.1735 10.2448 73.395 10.2448 73.395L23.9111 76.3379L27.2276 59.5643L24.1072 45.8075Z" fill="#FF725E"/>
<path d="M24.0247 52.7998C24.0461 52.7988 24.0791 53.0558 24.1199 53.52C24.1607 54.0474 24.2122 54.7072 24.2724 55.4887C24.4016 57.2171 24.5705 59.4807 24.757 61.9837C24.9677 64.4857 25.1581 66.7483 25.3038 68.4747C25.3669 69.2562 25.4213 69.915 25.464 70.4434C25.497 70.9086 25.5048 71.1675 25.4834 71.1694C25.4621 71.1714 25.4135 70.9174 25.3436 70.4561C25.2737 69.9948 25.1843 69.3253 25.0852 68.4971C24.8852 66.8398 24.6492 64.546 24.4472 62.008C24.2462 59.47 24.117 57.1684 24.0529 55.5014C24.0208 54.6673 24.0024 53.9929 23.9995 53.5258C23.9956 53.0597 24.0034 52.8008 24.0247 52.7998Z" fill="#263238"/>
<path d="M29.5477 43.1694C29.5477 43.1694 28.7893 55.7116 28.0609 59.5051C27.3568 63.171 25.4844 71.7447 25.4844 71.7447L25.496 95.8112C25.496 95.8112 18.2337 113.168 16.8585 123.241C15.4833 133.314 16.8585 191.995 16.8585 191.995L82.99 192.121C82.99 192.121 78.5266 149.85 77.8011 141.68C77.0727 133.483 74.7196 121.267 73.1444 113.647C72.2169 109.16 70.8446 104.775 69.048 100.552L66.3511 94.2094L65.274 67.0364C65.274 67.0364 61.6506 46.6154 59.7753 41.4332L57.6232 41.116L59.2324 60.5872L31.795 61.5847L32.3661 42.0746L29.5477 43.1694Z" fill="#E0E0E0"/>
<path d="M66.452 128.647C66.4559 128.655 66.3597 128.711 66.1732 128.811C65.9625 128.921 65.6906 129.064 65.3526 129.241C64.6388 129.612 63.5919 130.123 62.2857 130.731C59.6752 131.946 56.0032 133.498 51.8437 134.939C47.6813 136.375 43.8286 137.425 41.0181 138.083C39.6128 138.413 38.4707 138.659 37.6783 138.808C37.3024 138.878 36.9984 138.934 36.7644 138.978C36.5546 139.014 36.4439 139.03 36.4429 139.021C36.441 139.013 36.5488 138.981 36.7547 138.929C36.9868 138.874 37.2859 138.803 37.6579 138.714C38.4445 138.536 39.5789 138.265 40.9764 137.913C43.7714 137.213 47.6075 136.139 51.7611 134.706C55.9119 133.269 59.5868 131.746 62.2119 130.573C63.5249 129.987 64.5834 129.5 65.3099 129.156C65.6566 128.996 65.9353 128.868 66.1519 128.768C66.3442 128.681 66.4481 128.64 66.452 128.647Z" fill="#263238"/>
<path d="M59.5946 146.56C59.5965 146.569 59.5208 146.595 59.3732 146.64C59.1964 146.69 58.9828 146.749 58.7244 146.822C58.1602 146.976 57.3405 147.185 56.3247 147.433C54.293 147.929 51.4747 148.569 48.3427 149.192C45.2106 149.814 42.3593 150.3 40.2917 150.617C39.2574 150.776 38.4193 150.897 37.8385 150.971C37.5724 151.003 37.351 151.029 37.1694 151.05C37.016 151.066 36.9353 151.07 36.9334 151.062C36.9324 151.053 37.0101 151.033 37.1616 151.002C37.3423 150.968 37.5598 150.926 37.823 150.876C38.4378 150.768 39.2613 150.622 40.2616 150.446C42.3214 150.085 45.1631 149.571 48.2921 148.95C51.4203 148.328 54.2415 147.717 56.2829 147.264C57.2745 147.045 58.0913 146.864 58.7002 146.73C58.9624 146.675 59.1809 146.63 59.3596 146.592C59.512 146.563 59.5926 146.551 59.5946 146.56Z" fill="#263238"/>
<path d="M59.344 77.0736C59.342 77.0717 59.3392 77.0405 59.3372 76.9812C59.3353 76.9121 59.3323 76.8274 59.3294 76.7233C59.3255 76.4839 59.3197 76.1549 59.3129 75.7365C59.3032 74.8684 59.2906 73.6276 59.2741 72.0666L59.344 72.1357C53.9161 72.1474 44.7483 72.1678 34.3433 72.1902H34.3423C34.5938 71.943 34.4122 72.1221 34.4685 72.0676V72.0705V72.0754V72.0851V72.1056V72.1455V72.2253V72.3859V72.706V73.3444C34.4685 73.7687 34.4685 74.1901 34.4685 74.6076C34.4685 75.4435 34.4676 76.2669 34.4676 77.0727L34.3433 76.951C41.4221 76.9724 47.6511 76.9919 52.1292 77.0055C54.3599 77.0201 56.1537 77.0327 57.4075 77.0405C58.0174 77.0473 58.4952 77.0532 58.838 77.0571C58.9924 77.061 59.1157 77.0629 59.2129 77.0648C59.2964 77.0678 59.3411 77.0707 59.344 77.0736C59.3469 77.0765 59.3071 77.0785 59.2274 77.0814C59.1342 77.0833 59.0157 77.0863 58.8681 77.0892C58.5321 77.0931 58.063 77.0989 57.4648 77.1057C56.2178 77.1145 54.4338 77.1262 52.2146 77.1408C47.7143 77.1544 41.4541 77.1738 34.3403 77.1953H34.216V77.0727C34.216 76.2669 34.2151 75.4435 34.2151 74.6076C34.2151 74.1891 34.2151 73.7677 34.2141 73.3444V72.706V72.3859V72.2253V72.1455V72.1056V72.0851V72.0754V72.0705V72.0676C34.2704 72.0122 34.0878 72.1902 34.3403 71.943H34.3413C44.7474 71.9654 53.9142 71.9859 59.342 71.9975H59.4129L59.412 72.0666C59.3955 73.6451 59.3819 74.8995 59.3731 75.7773C59.3663 76.19 59.3605 76.5131 59.3557 76.7496C59.3527 76.8488 59.3508 76.9296 59.3488 76.9958C59.3488 77.0493 59.3459 77.0756 59.344 77.0736Z" fill="#263238"/>
<path d="M53.552 93.6001C53.5471 93.567 54.0453 93.6264 54.8961 93.35C55.3166 93.2108 55.8196 92.9675 56.3043 92.5481C56.783 92.1316 57.2599 91.5448 57.526 90.773C57.8358 90.0091 57.7523 89.0895 57.7581 88.0988C57.7542 87.1071 57.7503 86.0366 57.7455 84.8931C57.7396 82.6032 57.7328 80.0253 57.726 77.2187L57.8358 77.3267C52.6362 77.3316 46.5547 77.3364 40.0829 77.3423C38.6145 77.3423 37.1665 77.3413 35.7971 77.3413L35.9224 77.2187C35.9312 81.7274 35.8913 86.0035 35.9331 89.8271C36.037 90.7604 36.4634 91.6236 37.0936 92.2581C37.7259 92.8906 38.5388 93.3052 39.373 93.4395C39.7877 93.5203 40.2072 93.5008 40.6258 93.5067C41.0424 93.5077 41.4513 93.5096 41.8514 93.5106C42.6516 93.5135 43.4189 93.5154 44.1502 93.5184C47.0646 93.5339 49.411 93.5476 51.0445 93.5563C51.8437 93.566 52.4672 93.5729 52.9052 93.5777C53.1072 93.5826 53.2674 93.5865 53.3879 93.5894C53.4966 93.5923 53.552 93.5962 53.552 93.6001C53.552 93.604 53.4966 93.6079 53.3879 93.6118C53.2674 93.6147 53.1081 93.6186 52.9052 93.6235C52.4662 93.6283 51.8428 93.6361 51.0445 93.6449C49.411 93.6536 47.0646 93.6663 44.1502 93.6828C43.4189 93.6858 42.6516 93.6877 41.8514 93.6906C41.4513 93.6916 41.0424 93.6935 40.6258 93.6945C40.214 93.6906 39.777 93.7149 39.339 93.6322C38.4649 93.495 37.6084 93.0658 36.9421 92.4041C36.2769 91.7414 35.8233 90.8334 35.7107 89.8514C35.6524 85.9821 35.6854 81.7391 35.6718 77.2206V77.098H35.7971C37.1665 77.098 38.6145 77.0971 40.0829 77.0971C46.5547 77.1029 52.6362 77.1077 57.8358 77.1126H57.9465V77.2206C57.9397 80.0282 57.9329 82.6062 57.9271 84.8951C57.9232 86.0386 57.9184 87.1091 57.9145 88.1007C57.9096 88.597 57.9174 89.069 57.9009 89.5274C57.8922 89.9896 57.7892 90.4246 57.6474 90.8168C57.3638 91.608 56.8656 92.2055 56.3693 92.624C55.8672 93.0444 55.3486 93.2838 54.9175 93.4142C54.4843 93.5466 54.1376 93.5874 53.9055 93.6001C53.7967 93.602 53.7103 93.604 53.6413 93.605C53.5821 93.605 53.552 93.603 53.552 93.6001Z" fill="#263238"/>
<g opacity="0.3">
<path d="M54.9456 93.3752C50.1616 95.7877 44.2259 95.8617 39.3817 93.5669L54.9456 93.3752Z" fill="black"/>
</g>
<path d="M64.6213 51.1123C64.6767 51.1016 64.8816 51.8899 65.1166 53.1822C65.3526 54.4746 65.607 56.274 65.7683 58.2739C65.9285 60.2747 65.9645 62.0916 65.9383 63.4054C65.912 64.7192 65.8363 65.5299 65.7799 65.5279C65.7178 65.5269 65.6857 64.7153 65.6333 63.4083C65.5818 62.1004 65.4973 60.2971 65.339 58.3079C65.1788 56.3207 64.9729 54.5262 64.8156 53.227C64.6573 51.9298 64.5592 51.124 64.6213 51.1123Z" fill="#263238"/>
<path d="M70.6961 97.2378L82.2257 77.1953C82.2257 77.1953 93.2961 82.5224 93.5388 82.7151C93.7826 82.9078 81.948 96.9371 73.9951 102.725L71.136 101.271L70.6961 97.2378Z" fill="#AE7461"/>
<path d="M56.9036 92.5053C56.9036 92.5053 61.7526 91.2188 62.2421 91.4903C62.7315 91.7609 66.3511 93.6372 66.3511 93.6372C66.3511 93.6372 67.4641 94.9792 68.0603 95.457C68.0603 95.457 69.3034 96.616 70.1609 96.655C71.0185 96.6939 71.5235 96.511 71.5235 96.511L74.3865 102.274C74.3865 102.274 72.887 104.175 71.8343 104.156C70.7815 104.139 64.9371 101.723 64.9371 101.723L63.525 101.421C63.525 101.421 58.2234 102.174 57.7892 100.607L57.7407 100.16L62.9491 99.1589L64.9312 99.2718L61.4195 98.3814C61.4195 98.3814 56.4549 98.6188 55.9868 98.539C55.5187 98.4592 54.9224 97.813 55.0749 97.4092L56.0994 97.1717C56.0994 97.1717 54.8952 96.5285 54.8593 95.8229L59.449 94.6016C59.449 94.6016 56.4889 93.5174 56.9036 92.5053Z" fill="#AE7461"/>
<path d="M55.5566 97.1552C55.5624 97.1708 55.71 97.126 55.9781 97.0511C56.2451 96.9742 56.6336 96.8691 57.1153 96.7465C58.0787 96.5003 59.417 96.1888 60.9009 95.8658C61.0884 95.8278 61.2699 95.7772 61.4389 95.7636C61.6118 95.749 61.7856 95.7616 61.9497 95.7986C62.2799 95.8881 62.617 96.001 62.9248 96.1032C63.5464 96.3115 64.098 96.5197 64.5535 96.7134C65.0089 96.9061 65.3663 97.0852 65.6082 97.2185C65.8509 97.3499 65.9772 97.4374 65.9889 97.4228C65.9957 97.4151 65.8859 97.3041 65.6529 97.1484C65.4217 96.9908 65.0701 96.7893 64.6175 96.5762C64.165 96.3631 63.6134 96.1383 62.9909 95.9183C62.6762 95.8093 62.3587 95.6964 61.9984 95.5962C61.8138 95.5524 61.6177 95.5378 61.4215 95.5534C61.2205 95.5699 61.0398 95.6225 60.8543 95.6585C59.3674 95.9826 58.0301 96.3183 57.0735 96.6025C56.5957 96.7445 56.2112 96.872 55.9509 96.9732C55.6897 97.0725 55.5518 97.1426 55.5566 97.1552Z" fill="#6F4439"/>
<path d="M59.3363 94.8216C59.3538 94.8537 59.7034 94.6561 60.3143 94.4722C60.9203 94.2863 61.8079 94.1423 62.7684 94.2814C63.7289 94.4206 64.536 94.8108 65.0614 95.1612C65.5916 95.5106 65.8684 95.7996 65.8946 95.7733C65.9121 95.7597 65.6732 95.4308 65.1497 95.0376C64.6331 94.6464 63.8017 94.2153 62.7995 94.0703C61.7972 93.9243 60.8756 94.1004 60.2657 94.3291C59.6481 94.5559 59.3227 94.8031 59.3363 94.8216Z" fill="#6F4439"/>
<path d="M5.98823 62.8994C5.98823 62.8994 0.60119 79.2205 0.160281 82.2656C-0.517593 86.9446 1.02849 89.0953 3.40688 89.9225C6.11449 90.8635 9.66701 90.3147 11.5151 89.034C14.1538 87.2054 17.3431 81.0637 18.5843 78.1344L19.804 75.4533L13.1613 74.0072L5.963 62.8994" fill="#AE7461"/>
<path d="M23.6469 42.8169C22.1105 43.611 21.8299 45.8659 21.8299 45.8659L20.2808 47.4502L20.1391 45.499L22.1669 39.623C22.1669 39.623 23.7227 35.4286 22.8894 35.4802C22.0561 35.5317 21.2258 36.5351 20.5538 38.3452C19.8817 40.1553 19.03 42.451 19.03 42.451C19.03 42.451 18.7231 43.141 18.7493 41.6997C18.7746 40.2585 20.8218 35.2894 20.95 34.5342C21.0772 33.78 21.9571 32.0935 20.9568 31.6352C19.9565 31.1768 19.2679 33.5815 19.2679 33.5815L16.1563 40.8706C16.1563 40.8706 16.8837 37.6387 16.9905 37.0762C17.0974 36.5146 17.7179 34.8778 17.8821 33.8861C18.0462 32.8944 17.8122 32.1957 17.3606 32.003C16.5467 31.6566 16.1563 32.3495 16.1563 32.3495L14.1227 38.9427C14.1227 38.9427 13.3341 42.0286 13.1816 42.1659C13.0292 42.3031 12.7932 40.4677 12.7932 40.4677L13.1525 38.1583C13.1525 38.1583 14.1091 35.1366 13.4273 34.6423C12.7456 34.1479 12.3979 34.6734 12.3979 34.6734L10.6974 40.2166L9.61355 46.9811L9.2047 52.3365L8.93375 53.2007L7.67803 57.2014L5.96296 62.8993L1.23241 78.617L11.5229 83.4342L14.988 64.0029L16.6516 55.3125C16.6516 55.3125 21.049 52.9535 21.8347 51.5891L25.4416 43.1196C25.4416 43.1196 25.2076 42.0092 23.6469 42.8169Z" fill="#AE7461"/>
<path d="M12.7378 49.5083C12.7786 49.556 13.2554 49.1706 14.0615 48.6296C14.854 48.1128 16.0951 47.4043 17.5402 47.6175C18.1773 47.706 18.7493 47.9795 19.1251 48.3756L19.264 48.5215L19.4145 48.3629C20.0798 47.6651 20.7771 47.0696 21.2005 46.6307C21.6434 46.1966 21.8706 45.8969 21.8298 45.8667C21.7997 45.8453 21.5297 46.075 21.0432 46.4623C20.5615 46.8681 19.8827 47.3693 19.1145 48.1352L19.4029 48.1225C18.9766 47.6467 18.3113 47.3216 17.5985 47.2233C16.8089 47.1065 16.0388 47.2515 15.4162 47.5085C14.7889 47.7625 14.2877 48.1001 13.8925 48.4009C13.1097 49.0159 12.7067 49.4723 12.7378 49.5083Z" fill="#6F4439"/>
<path d="M16.6468 55.4739C16.676 55.4807 16.6128 55.8914 16.473 56.6281C16.3137 57.4446 16.1108 58.4908 15.867 59.7432C15.3523 62.3718 14.6657 66.0075 13.9994 70.0384C13.3352 74.0712 12.8175 77.7352 12.4611 80.3901C12.2892 81.6542 12.1464 82.7101 12.0348 83.5344C11.9299 84.2769 11.858 84.6856 11.8289 84.6827C11.7988 84.6798 11.8153 84.2642 11.8677 83.5168C11.9192 82.7685 12.0183 81.6873 12.1581 80.354C12.4378 77.6866 12.9078 74.009 13.5741 69.9683C14.2412 65.9297 14.9764 62.2959 15.5688 59.6809C15.8641 58.373 16.1185 57.3181 16.3098 56.5921C16.4992 55.8651 16.6177 55.4671 16.6468 55.4739Z" fill="#6F4439"/>
</svg>
