<svg width="535" height="22" viewBox="0 0 535 22" fill="none" xmlns="http://www.w3.org/2000/svg">
<path d="M6.8006 21.9297C6.68627 22.0093 5.07202 19.8771 3.19616 17.1672C1.31933 14.4573 -0.107918 12.196 0.00641672 12.1164C0.120751 12.0368 1.73403 14.169 3.61086 16.8789C5.48673 19.5888 6.91494 21.8501 6.8006 21.9297Z" fill="#263238"/>
<path d="M7.88296 6.50825C8.03508 6.50728 8.09225 9.79294 8.67555 13.7864C9.24238 17.7847 10.1144 20.951 9.96811 20.9937C9.90513 21.0121 9.60573 20.2422 9.24238 18.9586C8.87806 17.676 8.46723 15.8749 8.17558 13.8583C7.88587 11.8416 7.7725 9.99781 7.7599 8.66471C7.74731 7.33161 7.81707 6.50825 7.88296 6.50825Z" fill="#263238"/>
<path d="M15.3466 8.49574C15.4881 8.53749 14.8234 11.1309 14.2585 14.3767C13.6839 17.6216 13.4243 20.2868 13.2779 20.2771C13.1471 20.2723 13.1811 17.5672 13.7614 14.2893C14.3322 11.0105 15.2216 8.45593 15.3466 8.49574Z" fill="#263238"/>
<path d="M526.436 19.113C526.321 19.1926 524.707 17.0604 522.831 14.3515C520.955 11.6416 519.527 9.38032 519.642 9.3007C519.756 9.22109 521.369 11.3533 523.246 14.0632C525.122 16.7721 526.55 19.0334 526.436 19.113Z" fill="#263238"/>
<path d="M527.518 3.69156C527.67 3.69059 527.727 6.97625 528.311 10.9707C528.877 14.9681 529.75 18.1352 529.603 18.178C529.54 18.1964 529.241 17.4265 528.878 16.1429C528.513 14.8603 528.102 13.0592 527.811 11.0425C527.522 9.02588 527.408 7.18207 527.395 5.84897C527.382 4.5149 527.452 3.69156 527.518 3.69156Z" fill="#263238"/>
<path d="M534.981 5.67905C535.122 5.7208 534.458 8.31418 533.893 11.56C533.317 14.8049 533.059 17.4701 532.912 17.4604C532.781 17.4556 532.815 14.7505 533.396 11.4726C533.966 8.19379 534.856 5.63924 534.981 5.67905Z" fill="#263238"/>
<path d="M240.592 20.2713C240.468 20.3354 239.46 18.6149 238.342 16.4283C237.223 14.2417 236.416 12.4183 236.54 12.3543C236.664 12.2902 237.671 14.0107 238.79 16.1972C239.909 18.3838 240.716 20.2072 240.592 20.2713Z" fill="#263238"/>
<path d="M244.406 20.7392C244.275 20.7703 243.494 17.9099 242.913 14.3029C242.326 10.6958 242.165 7.7345 242.3 7.72285C242.443 7.70925 242.828 10.6337 243.412 14.2223C243.989 17.8099 244.547 20.7072 244.406 20.7392Z" fill="#263238"/>
<path d="M250.442 8.53653C250.579 8.59285 249.528 11.3814 248.558 14.9166C247.576 18.4498 247.047 21.383 246.899 21.3597C246.834 21.349 246.881 20.6005 247.065 19.4033C247.248 18.2061 247.581 16.5643 248.072 14.7816C248.565 12.9999 249.123 11.4202 249.58 10.2998C250.037 9.17833 250.38 8.51129 250.442 8.53653Z" fill="#263238"/>
<path d="M382.428 12.5485C382.304 12.6126 381.297 10.8911 380.179 8.70553C379.059 6.51897 378.253 4.69554 378.377 4.63146C378.501 4.56737 379.508 6.28788 380.627 8.47444C381.746 10.661 382.552 12.4844 382.428 12.5485Z" fill="#263238"/>
<path d="M386.243 13.0165C386.112 13.0475 385.33 10.1871 384.75 6.58011C384.163 2.97307 384.002 0.0116985 384.137 4.71954e-05C384.28 -0.013546 384.665 2.91092 385.248 6.49951C385.826 10.0871 386.384 12.9844 386.243 13.0165Z" fill="#263238"/>
<path d="M392.279 0.813734C392.416 0.870048 391.365 3.6586 390.395 7.19379C389.413 10.727 388.883 13.6602 388.736 13.6369C388.67 13.6262 388.718 12.8777 388.902 11.6805C389.085 10.4833 389.416 8.84146 389.909 7.05882C390.402 5.27715 390.96 3.69743 391.417 2.57697C391.874 1.45553 392.217 0.78849 392.279 0.813734Z" fill="#263238"/>
</svg>
