<svg width="23" height="2" viewBox="0 0 23 2" fill="none" xmlns="http://www.w3.org/2000/svg">
<path d="M22.2449 1.53811H0.742804C0.54582 1.53811 0.356914 1.45775 0.217625 1.31472C0.0783356 1.17168 0.000103265 0.977698 0.000103265 0.775416C-0.00153986 0.674192 0.0164398 0.573646 0.0530292 0.479638C0.0896186 0.38563 0.144072 0.300046 0.213205 0.227871C0.282338 0.155695 0.364768 0.098359 0.455697 0.0592371C0.546626 0.0201152 0.644217 -1.40545e-05 0.742804 7.36246e-09H22.2449C22.3441 7.36246e-09 22.4422 0.0200555 22.5339 0.0590237C22.6255 0.097992 22.7087 0.15511 22.7788 0.227114C22.849 0.299118 22.9046 0.384591 22.9425 0.478668C22.9805 0.572746 23 0.673587 23 0.775416C22.9967 0.978858 22.9158 1.17283 22.7745 1.31551C22.6332 1.45819 22.443 1.53814 22.2449 1.53811Z" fill="#F06449"/>
</svg>
