<svg width="96" height="8" viewBox="0 0 96 8" fill="none" xmlns="http://www.w3.org/2000/svg">
<path d="M95.4417 7.86516C95.4316 7.70198 95.4316 7.53831 95.4417 7.37513C95.4417 7.0321 95.4417 6.56657 95.4417 5.96627C95.4417 4.74116 95.4417 2.879 95.3702 0.502297L95.4895 0.612552C80.8392 0.735062 43.7481 0.820817 0.357892 0.820817L0.668089 0.502297V7.85292L0.357892 7.5344L67.7756 7.66916L88.0569 7.76717H93.5687H95.0123H95.5133H95.0481H93.6522H88.212L68.0261 7.86516L0.369834 7.99992H0V0.318539L0.310197 0C43.7004 0 80.7914 0.0735107 95.4417 0.196021H95.5491V0.318539C95.5491 2.76874 95.5491 4.56964 95.4895 5.84375V7.22812C95.4418 7.71816 95.4417 7.87741 95.4417 7.86516Z" fill="#263238"/>
</svg>
