<svg width="23" height="2" viewBox="0 0 23 2" fill="none" xmlns="http://www.w3.org/2000/svg">
<path d="M22.2568 1.53893H0.743238C0.546148 1.53893 0.357142 1.45853 0.217778 1.31542C0.078415 1.17231 0.000103127 0.978219 0.000103127 0.77583C-0.00154087 0.674551 0.0164862 0.573952 0.0530951 0.479894C0.089704 0.385836 0.144148 0.300206 0.213318 0.227992C0.282488 0.155778 0.365 0.0984114 0.455978 0.0592687C0.546955 0.0201259 0.644598 -1.4062e-05 0.743238 7.36638e-09H22.2568C22.3554 -1.4062e-05 22.453 0.0201259 22.544 0.0592687C22.635 0.0984114 22.7175 0.155778 22.7866 0.227992C22.8558 0.300206 22.9103 0.385836 22.9469 0.479894C22.9835 0.573952 23.0015 0.674551 22.9999 0.77583C22.9999 0.876043 22.9807 0.97528 22.9433 1.06786C22.906 1.16045 22.8512 1.24456 22.7822 1.31542C22.7132 1.38628 22.6313 1.44249 22.5411 1.48084C22.451 1.51919 22.3543 1.53893 22.2568 1.53893Z" fill="#F06449"/>
</svg>
