<svg width="55" height="82" viewBox="0 0 55 82" fill="none" xmlns="http://www.w3.org/2000/svg">
<path d="M12.7109 10.9897C12.7109 7.38871 9.86813 4.46952 6.36142 4.46952C2.8547 4.46952 0.0119508 7.38871 0.0119508 10.9897V69.3401C0.0119508 72.9411 2.8547 75.8603 6.36142 75.8603C9.86813 75.8603 12.7109 72.9411 12.7109 69.3401V10.9897Z" fill="#F06449"/>
<path d="M3.88621 81.9017C4.05361 81.7297 6.14619 77.7759 5.67984 75.8603H7.2702C7.2702 75.8603 6.83972 79.63 8.94426 81.9999L3.88621 81.9017Z" fill="#F06449"/>
<path d="M5.62005 4.51872L3.22854 0H9.27907C8.52827 0.504247 7.92699 1.21084 7.54104 2.04248C7.1551 2.87411 6.99935 3.79875 7.09083 4.71519L5.62005 4.51872Z" fill="#F06449"/>
<path d="M12.7109 30.4891H0.0119508V47.2378H12.7109V30.4891Z" fill="#E0E0E0"/>
<path d="M0.0358706 64.8092C0.667122 63.9525 1.36709 63.1516 2.12844 62.4148C3.84286 60.5347 5.44036 58.5456 6.91147 56.4594C10.3672 51.5478 12.5076 47.1396 12.6989 47.2378C12.3807 48.268 11.9473 49.257 11.4075 50.1848C10.2393 52.4956 8.9085 54.7159 7.42564 56.8278C5.93275 58.9407 4.26441 60.9169 2.43934 62.7341C1.72175 63.5219 0.914848 64.2185 0.0358706 64.8092Z" fill="white"/>
<path d="M12.6631 62.6235C12.6375 63.4317 12.4503 64.2259 12.113 64.9566C11.4147 66.7641 10.4421 68.4467 9.23124 69.9419C8.04302 71.4533 6.645 72.7772 5.08197 73.8712C4.4561 74.3666 3.74079 74.7297 2.97742 74.9395C3.56204 74.4223 4.17703 73.9426 4.8189 73.5028C6.27205 72.3377 7.59182 71.0072 8.75293 69.5367C9.91711 68.0738 10.9085 66.4746 11.7065 64.7724C11.9732 64.0328 12.2929 63.3145 12.6631 62.6235Z" fill="white"/>
<path d="M11.826 72.7169C10.8919 72.3946 10.0154 71.9176 9.23124 71.3048C7.26395 69.9252 5.5411 68.21 4.13731 66.2335C2.73416 64.2618 1.6109 62.0954 0.801154 59.7992C0.406493 58.8737 0.148558 57.8928 0.0358706 56.8891C0.251107 56.8031 1.39902 61.3219 4.63952 65.8529C6.67088 68.5126 9.09585 70.8287 11.826 72.7169Z" fill="white"/>
<path d="M12.6631 56.0663C12.6631 56.1769 11.9337 56.0663 10.9531 55.5015C10.36 55.2039 9.81216 54.8192 9.32691 54.3595C8.80077 53.8438 8.25072 53.2421 7.70068 52.5914C6.30708 51.0579 5.24007 49.2429 4.56778 47.2622C4.73519 47.1763 6.03856 49.5953 8.15505 52.1739C9.38119 53.7758 10.9158 55.1008 12.6631 56.0663Z" fill="white"/>
<path d="M12.3761 8.82864C12.1029 9.86369 11.701 10.8583 11.1803 11.7879C10.0858 14.0965 8.79748 16.3028 7.32998 18.3818C5.86517 20.4653 4.21165 22.4017 2.39151 24.1653C1.68402 24.9346 0.879761 25.6035 0 26.1545C0.652488 25.3393 1.35545 24.5683 2.10453 23.846C3.82412 22.0095 5.42204 20.0569 6.88755 18.0011C8.32684 15.9384 9.65223 13.7944 10.8575 11.5792C11.2963 10.6248 11.8039 9.70539 12.3761 8.82864Z" fill="white"/>
<path d="M12.6631 30.4889C11.7285 29.6722 10.8825 28.7541 10.14 27.7507C8.25832 25.4156 6.55906 22.9316 5.05804 20.3218C3.54215 17.7143 2.29196 14.9533 1.32728 12.0826C1.02915 11.2143 0.781577 10.3287 0.585902 9.43026C0.488995 9.10396 0.440625 8.7645 0.442417 8.42337C0.550035 8.42337 0.920722 9.77408 1.73384 11.9229C2.81163 14.7166 4.10309 17.4182 5.59612 20.0026C7.08961 22.5828 8.72237 25.0752 10.4868 27.4683C11.2772 28.424 12.0043 29.4331 12.6631 30.4889Z" fill="white"/>
<path d="M12.6631 24.7792C12.3311 25.964 11.7608 27.0642 10.989 28.0086C9.88891 29.6786 8.68119 30.8328 8.5377 30.6732C9.10579 29.6121 9.75345 28.5981 10.4748 27.6402C11.0772 26.5909 11.8131 25.6288 12.6631 24.7792Z" fill="white"/>
<path d="M5.632 4.51883L7.01909 4.4697L7.07888 3.36459L5.08197 3.49966L5.632 4.51883Z" fill="#455A64"/>
<path d="M5.66787 75.799C5.75549 76.2406 5.75549 76.6958 5.66787 77.1374H7.21041V75.799H5.66787Z" fill="#455A64"/>
<path d="M11.7543 38.7038C10.1393 39.0188 8.49245 39.126 6.85168 39.0231C5.21488 39.1256 3.57202 39.0184 1.96104 38.7038C3.57119 38.3826 5.21488 38.2753 6.85168 38.3846C8.49245 38.2742 10.1402 38.3815 11.7543 38.7038Z" fill="#263238"/>
<path d="M48.189 75.8603C46.5153 75.8604 44.9093 75.1819 43.7202 73.9723C42.5312 72.7628 41.8553 71.1201 41.8395 69.4015V10.9897C41.8395 9.26046 42.5085 7.60202 43.6992 6.37925C44.89 5.15647 46.505 4.46952 48.189 4.46952C49.0228 4.46952 49.8485 4.63817 50.6188 4.96584C51.3892 5.29352 52.0891 5.77379 52.6787 6.37925C53.2683 6.9847 53.736 7.70349 54.0551 8.49455C54.3742 9.28562 54.5385 10.1335 54.5385 10.9897V69.4015C54.5227 71.1201 53.8468 72.7628 52.6577 73.9723C51.4687 75.1819 49.8627 75.8604 48.189 75.8603Z" fill="#455A64"/>
<path d="M45.7018 81.9017C45.8812 81.7297 47.9738 77.7759 47.5074 75.8603H49.0978C49.0978 75.8603 48.6673 79.63 50.7599 81.9999L45.7018 81.9017Z" fill="#455A64"/>
<path d="M47.4476 4.51872L45.0561 0H51.1066C50.3556 0.504686 49.7534 1.21097 49.3655 2.0422C48.9777 2.87342 48.8189 3.79786 48.9064 4.71519L47.4476 4.51872Z" fill="#455A64"/>
<path d="M54.5385 30.4891H41.8395V47.2378H54.5385V30.4891Z" fill="#E0E0E0"/>
<path d="M41.8515 64.8092C42.4941 63.9585 43.1975 63.1581 43.956 62.4148C45.667 60.5316 47.2643 58.5428 48.739 56.4594C52.1828 51.5478 54.3352 47.1396 54.5265 47.2378C54.2083 48.268 53.7749 49.257 53.2351 50.1848C52.0667 52.4981 50.7317 54.7186 49.2413 56.8278C47.7555 58.9465 46.0866 60.9233 44.255 62.7341C43.5436 63.5286 42.7358 64.226 41.8515 64.8092Z" fill="white"/>
<path d="M54.5145 62.6235C54.4787 63.4316 54.2877 64.2245 53.9525 64.9566C53.2579 66.7633 52.2894 68.4459 51.0827 69.9419C49.8936 71.4568 48.491 72.7811 46.9215 73.8712C46.3012 74.3685 45.5894 74.7319 44.8289 74.9395C45.4106 74.4186 46.0258 73.9386 46.6704 73.5028C48.1194 72.3371 49.4352 71.0066 50.5925 69.5367C51.7641 68.0769 52.7598 66.4772 53.5579 64.7724C53.8247 64.0328 54.1444 63.3145 54.5145 62.6235Z" fill="white"/>
<path d="M53.6536 72.7169C52.7183 72.3975 51.8414 71.9202 51.0588 71.3048C49.0915 69.9252 47.3687 68.21 45.9649 66.2335C44.5587 64.2618 43.4314 62.0956 42.6168 59.7992C42.2362 58.8687 41.9788 57.8899 41.8515 56.8891C42.0787 56.8031 43.2266 61.3219 46.4671 65.8529C48.4985 68.5126 50.9234 70.8287 53.6536 72.7169Z" fill="white"/>
<path d="M54.5145 56.0663C54.5145 56.1769 53.7732 56.0663 52.8046 55.5015C52.2098 55.2069 51.6616 54.8219 51.1784 54.3595C50.607 53.7994 50.0642 53.2092 49.5522 52.5914C48.1586 51.0579 47.0916 49.2429 46.4193 47.2622C46.5867 47.1763 47.89 49.5953 50.0065 52.1739C51.2294 53.779 52.7648 55.1047 54.5145 56.0663Z" fill="white"/>
<path d="M54.2037 8.82864C53.9305 9.86369 53.5286 10.8583 53.0079 11.7879C51.9091 14.0941 50.621 16.3 49.1576 18.3818C47.6928 20.4653 46.0392 22.4017 44.2191 24.1653C43.5116 24.9346 42.7073 25.6035 41.8276 26.1545C42.4758 25.3356 43.179 24.5642 43.9321 23.846C45.6517 22.0095 47.2496 20.0569 48.7151 18.0011C50.1553 15.9416 51.4769 13.7973 52.6731 11.5792C53.1182 10.6257 53.6297 9.7065 54.2037 8.82864Z" fill="white"/>
<path d="M54.5145 30.4889C53.58 29.6722 52.734 28.7541 51.9915 27.7507C50.1059 25.4186 48.4064 22.9343 46.9095 20.3218C45.3955 17.7116 44.1415 14.9512 43.1668 12.0826C42.8772 11.2126 42.6337 10.3272 42.4374 9.43026C42.3405 9.10396 42.2921 8.7645 42.2939 8.42337C42.3896 8.42337 42.7722 9.77408 43.5853 11.9229C44.6583 14.7166 45.9458 17.4184 47.4357 20.0026C48.9327 22.5833 50.5694 25.0758 52.3383 27.4683C53.1239 28.428 53.8507 29.4368 54.5145 30.4889Z" fill="white"/>
<path d="M54.5145 24.7792C54.1826 25.964 53.6123 27.0642 52.8405 28.0086C51.7284 29.6786 50.5327 30.8328 50.3892 30.6732C50.952 29.6088 51.5999 28.5944 52.3263 27.6402C52.9243 26.5879 53.6606 25.6251 54.5145 24.7792Z" fill="white"/>
<path d="M47.4476 4.51883L48.8467 4.4697L48.9064 3.36459L46.9095 3.49966L47.4476 4.51883Z" fill="#455A64"/>
<path d="M47.4955 75.799C47.575 76.2414 47.575 76.695 47.4955 77.1374H49.038V75.799H47.4955Z" fill="#455A64"/>
<path d="M53.5819 38.7037C51.9668 39.0179 50.32 39.1251 48.6792 39.0229C47.0305 39.1286 45.3754 39.0213 43.7527 38.7037C45.3629 38.3824 47.0066 38.2751 48.6434 38.3844C50.2961 38.2717 51.956 38.379 53.5819 38.7037Z" fill="#263238"/>
<path d="M27.3589 75.8603C25.6894 75.8539 24.0895 75.1725 22.9056 73.9637C21.7217 72.7549 21.0491 71.1158 21.0334 69.4015V10.9897C21.0334 9.26046 21.7023 7.60202 22.8931 6.37925C24.0838 5.15647 25.6988 4.46952 27.3828 4.46952C29.0668 4.46952 30.6818 5.15647 31.8726 6.37925C33.0633 7.60202 33.7323 9.26046 33.7323 10.9897V69.4015C33.7165 71.1243 33.0373 72.7708 31.8431 73.981C30.6489 75.1912 29.0367 75.8669 27.3589 75.8603Z" fill="#7F473D"/>
<path d="M24.8717 81.9017C25.0511 81.7297 27.1437 77.7759 26.6773 75.8603H28.2677C28.2677 75.8603 27.8372 79.63 29.9298 81.9999L24.8717 81.9017Z" fill="#7F473D"/>
<path d="M26.6175 4.51872L24.226 0H30.2766C29.5255 0.504686 28.9233 1.21097 28.5355 2.0422C28.1476 2.87342 27.9888 3.79786 28.0764 4.71519L26.6175 4.51872Z" fill="#7F473D"/>
<path d="M33.7084 30.4891H21.0094V47.2378H33.7084V30.4891Z" fill="#E0E0E0"/>
<path d="M21.0334 64.8092C21.6646 63.9525 22.3646 63.1516 23.1259 62.4148C24.8369 60.5316 26.4343 58.5428 27.909 56.4594C31.3527 51.5478 33.5051 47.1396 33.6964 47.2378C33.3782 48.268 32.9448 49.257 32.405 50.1848C31.2366 52.4981 29.9016 54.7186 28.4112 56.8278C26.9255 58.943 25.2609 60.9195 23.4368 62.7341C22.7192 63.5219 21.9123 64.2185 21.0334 64.8092Z" fill="white"/>
<path d="M33.7084 62.6235C33.6763 63.4308 33.4894 64.2236 33.1583 64.9566C32.4545 66.7613 31.4824 68.4431 30.2766 69.9419C29.0874 71.4568 27.6849 72.7811 26.1153 73.8712C25.4951 74.3685 24.7833 74.7319 24.0227 74.9395C24.6074 74.4223 25.2223 73.9426 25.8642 73.5028C27.3132 72.3371 28.629 71.0066 29.7863 69.5367C30.9579 68.0769 31.9536 66.4772 32.7518 64.7724C33.0185 64.0328 33.3383 63.3145 33.7084 62.6235Z" fill="white"/>
<path d="M32.8235 72.7169C31.8894 72.3946 31.0129 71.9176 30.2287 71.3048C28.2614 69.9252 26.5386 68.21 25.1348 66.2335C23.7331 64.2589 22.6063 62.0933 21.7867 59.7992C21.3986 58.8721 21.1448 57.8917 21.0334 56.8891C21.2486 56.8031 22.3965 61.3219 25.637 65.8529C27.6684 68.5126 30.0933 70.8287 32.8235 72.7169Z" fill="white"/>
<path d="M33.7084 56.0663C33.7084 56.1769 32.967 56.0663 31.9984 55.5015C31.4053 55.2039 30.8575 54.8192 30.3722 54.3595C29.8461 53.8438 29.296 53.2421 28.746 52.5914C27.3524 51.0579 26.2854 49.2429 25.6131 47.2622C25.7805 47.1763 27.0839 49.5953 29.2004 52.1739C30.4265 53.7758 31.9611 55.1008 33.7084 56.0663Z" fill="white"/>
<path d="M33.3736 8.82864C33.1004 9.86369 32.6985 10.8583 32.1778 11.7879C31.0833 14.0965 29.795 16.3028 28.3275 18.3818C26.8627 20.4653 25.2091 22.4017 23.389 24.1653C22.6815 24.9346 21.8772 25.6035 20.9975 26.1545C21.65 25.3393 22.3529 24.5683 23.102 23.846C24.8216 22.0095 26.4195 20.0569 27.885 18.0011C29.3243 15.9384 30.6497 13.7944 31.855 11.5792C32.2938 10.6248 32.8014 9.70539 33.3736 8.82864Z" fill="white"/>
<path d="M33.7084 30.4889C32.7738 29.6722 31.9279 28.7541 31.1853 27.7507C29.3036 25.4156 27.6044 22.9316 26.1034 20.3218C24.5893 17.7116 23.3354 14.9512 22.3606 12.0826C22.071 11.2126 21.8275 10.3272 21.6312 9.43026C21.5343 9.10396 21.486 8.7645 21.4877 8.42337C21.5834 8.42337 21.966 9.77408 22.7792 11.9229C23.857 14.7166 25.1484 17.4182 26.6415 20.0026C28.1349 22.5828 29.7677 25.0752 31.5321 27.4683C32.3177 28.428 33.0445 29.4368 33.7084 30.4889Z" fill="white"/>
<path d="M33.6725 24.7792C33.3405 25.964 32.7702 27.0642 31.9984 28.0086C30.8983 29.6786 29.6906 30.8328 29.6069 30.6732C30.1697 29.6088 30.8176 28.5944 31.5441 27.6402C32.1236 26.5916 32.8397 25.6291 33.6725 24.7792Z" fill="white"/>
<path d="M26.6175 4.51883L28.0166 4.4697L28.0764 3.36459L26.0795 3.49966L26.6175 4.51883Z" fill="#455A64"/>
<path d="M26.6654 75.799C26.745 76.2414 26.745 76.695 26.6654 77.1374H28.2079V75.799H26.6654Z" fill="#455A64"/>
<path d="M32.7518 38.7038C31.1367 39.0181 29.4899 39.1253 27.8492 39.0231C26.2124 39.1257 24.5695 39.0184 22.9585 38.7038C24.5687 38.3826 26.2124 38.2753 27.8492 38.3846C29.4899 38.275 31.1376 38.3823 32.7518 38.7038Z" fill="#263238"/>
</svg>
