<svg width="280" height="330" viewBox="0 0 280 330" fill="none" xmlns="http://www.w3.org/2000/svg">
<path d="M42.4018 116.902H38.9174C37.5225 116.902 36.3925 115.77 36.3925 114.372V72.6186C36.3925 71.2208 37.5225 70.0884 38.9174 70.0884H42.4018C43.7967 70.0884 44.9268 71.2208 44.9268 72.6186V114.372C44.9268 115.77 43.7967 116.902 42.4018 116.902Z" fill="#FF725E"/>
<path d="M38.9931 120.867C39.1105 120.753 40.517 118.158 40.2047 116.902L41.2727 116.859C41.2727 116.859 40.9865 119.332 42.3931 120.867H38.9931Z" fill="#FF725E"/>
<path d="M40.1659 70.1175C40.1805 70.1156 38.5246 67.1567 38.5246 67.1567H42.588C42.588 67.1567 40.9206 68.1394 41.1155 70.2507L40.1659 70.1175Z" fill="#FF725E"/>
<path d="M44.9268 87.1465H36.3925V98.1334H44.9268V87.1465Z" fill="#E0E0E0"/>
<path d="M36.4069 109.654C36.3643 109.607 36.9346 109.036 37.8183 108.084C38.703 107.133 39.8845 105.783 41.0417 104.178C43.3562 100.964 44.7996 98.0643 44.9267 98.1333C44.9742 98.1576 44.6619 98.9041 44.0614 100.068C43.4552 101.226 42.5598 102.805 41.3803 104.424C40.2085 106.049 38.9755 107.387 38.0298 108.291C37.084 109.198 36.4419 109.693 36.4069 109.654Z" fill="white"/>
<path d="M44.9287 108.219C44.9743 108.229 44.9006 108.834 44.5552 109.749C44.2089 110.66 43.5697 111.869 42.621 113.021C41.681 114.179 40.6441 115.062 39.8293 115.595C39.0144 116.134 38.4421 116.342 38.4218 116.297C38.3917 116.238 38.9068 115.941 39.6566 115.355C40.4084 114.774 41.3823 113.881 42.297 112.756C43.2195 111.636 43.8762 110.491 44.2836 109.633C44.6881 108.772 44.8627 108.202 44.9287 108.219Z" fill="white"/>
<path d="M44.3341 114.843C44.3147 114.883 43.6075 114.6 42.589 113.917C41.5724 113.238 40.2784 112.102 39.1648 110.59C38.0541 109.074 37.3363 107.522 36.9212 106.374C36.506 105.223 36.3605 104.48 36.407 104.466C36.5535 104.405 37.3286 107.37 39.5014 110.34C41.6636 113.34 44.4214 114.727 44.3341 114.843Z" fill="white"/>
<path d="M44.9288 103.922C44.92 103.994 44.434 103.912 43.7802 103.555C43.4553 103.372 43.0605 103.17 42.6841 102.803C42.331 102.464 41.9595 102.072 41.5948 101.64C40.1223 99.9046 39.3909 98.1928 39.4898 98.15C39.5985 98.0917 40.4783 99.6791 41.9139 101.368C43.2584 103.198 44.9491 103.846 44.9288 103.922Z" fill="white"/>
<path d="M44.7056 72.9452C44.7531 72.9665 44.4864 73.7199 43.9257 74.8824C43.366 76.044 42.492 77.607 41.3377 79.207C40.1804 80.806 38.964 82.1221 38.0192 83.0018C37.0754 83.8824 36.4255 84.348 36.3925 84.3092C36.3498 84.2596 36.9299 83.7162 37.8107 82.7909C38.6924 81.8665 39.8565 80.5387 40.9982 78.961C42.137 77.3815 43.041 75.8632 43.6628 74.7454C44.2856 73.6275 44.6474 72.9189 44.7056 72.9452Z" fill="white"/>
<path d="M44.9268 87.1465C44.8889 87.1814 44.2119 86.5244 43.2341 85.354C42.2563 84.1856 40.9962 82.4904 39.8147 80.4812C38.6352 78.4701 37.7825 76.527 37.3063 75.0758C37.0628 74.3516 36.8988 73.7548 36.8125 73.3368C36.7233 72.9188 36.6883 72.6855 36.7165 72.6787C36.7834 72.6622 37.0346 73.5672 37.5837 74.9747C38.1259 76.3851 39.0086 78.2806 40.1756 80.2693C41.3445 82.2562 42.5541 83.963 43.4659 85.1703C44.3777 86.3785 44.9753 87.1037 44.9268 87.1465Z" fill="white"/>
<path d="M44.9064 83.4072C45.0092 83.4665 44.5358 84.4385 43.7792 85.5223C43.0381 86.6158 42.2301 87.374 42.1341 87.2681C42.0759 87.1991 42.6986 86.367 43.4359 85.2812C44.1847 84.2101 44.8084 83.3508 44.9064 83.4072Z" fill="white"/>
<path d="M40.1659 70.1175L41.1039 70.0883L41.1447 69.3593L39.8022 69.4487L40.1659 70.1175Z" fill="#455A64"/>
<path d="M40.1979 116.859C40.1979 116.859 40.3036 117.293 40.2173 117.736H41.2572L41.2727 116.859H40.1979Z" fill="#455A64"/>
<path d="M44.2836 92.5345C44.2836 92.6502 42.8101 92.7445 40.9933 92.7445C39.1754 92.7445 37.702 92.6512 37.702 92.5345C37.702 92.4188 39.1754 92.3245 40.9933 92.3245C42.8101 92.3245 44.2836 92.4188 44.2836 92.5345Z" fill="#263238"/>
<path d="M68.7682 116.902C66.411 116.902 64.501 114.987 64.501 112.626V74.3643C64.501 72.0023 66.412 70.0884 68.7682 70.0884C71.1254 70.0884 73.0353 72.0023 73.0353 74.3643V112.626C73.0353 114.988 71.1244 116.902 68.7682 116.902Z" fill="#455A64"/>
<path d="M67.1017 120.867C67.219 120.753 68.6256 118.158 68.3133 116.902L69.3812 116.859C69.3812 116.859 69.0951 119.332 70.5016 120.867H67.1017Z" fill="#455A64"/>
<path d="M68.2745 70.1175C68.289 70.1156 66.6332 67.1567 66.6332 67.1567H70.6966C70.6966 67.1567 69.0291 68.1394 69.2241 70.2507L68.2745 70.1175Z" fill="#455A64"/>
<path d="M73.0353 87.1465H64.501V98.1334H73.0353V87.1465Z" fill="#E0E0E0"/>
<path d="M64.5155 109.654C64.4728 109.607 65.0432 109.036 65.9269 108.084C66.8115 107.133 67.993 105.783 69.1503 104.178C71.4648 100.964 72.9082 98.0643 73.0352 98.1333C73.0828 98.1576 72.7694 98.9041 72.17 100.068C71.5637 101.226 70.6684 102.805 69.4888 104.424C68.317 106.049 67.0841 107.387 66.1384 108.291C65.1916 109.198 64.5504 109.693 64.5155 109.654Z" fill="white"/>
<path d="M73.0373 108.219C73.0829 108.229 73.0091 108.834 72.6638 109.749C72.3175 110.66 71.6783 111.869 70.7296 113.021C69.7896 114.179 68.7526 115.062 67.9378 115.595C67.124 116.134 66.5507 116.342 66.5303 116.297C66.5002 116.238 67.0153 115.941 67.7652 115.355C68.5169 114.774 69.4908 113.881 70.4056 112.756C71.3281 111.636 71.9848 110.491 72.3922 109.633C72.7957 108.772 72.9703 108.202 73.0373 108.219Z" fill="white"/>
<path d="M72.4416 114.843C72.4222 114.883 71.7151 114.6 70.6966 113.917C69.68 113.238 68.3859 112.102 67.2724 110.59C66.1617 109.074 65.4438 107.522 65.0287 106.374C64.6135 105.223 64.468 104.48 64.5155 104.466C64.662 104.405 65.4371 107.37 67.6099 110.34C69.7711 113.34 72.5299 114.727 72.4416 114.843Z" fill="white"/>
<path d="M73.0373 103.922C73.0276 103.994 72.5416 103.912 71.8888 103.555C71.5638 103.372 71.169 103.17 70.7927 102.803C70.4396 102.464 70.068 102.072 69.7033 101.64C68.2308 99.9046 67.4994 98.1928 67.5984 98.15C67.707 98.0917 68.5868 99.6791 70.0234 101.368C71.3669 103.198 73.0567 103.846 73.0373 103.922Z" fill="white"/>
<path d="M72.8132 72.9452C72.8607 72.9665 72.594 73.7199 72.0333 74.8824C71.4736 76.044 70.5996 77.607 69.4453 79.207C68.288 80.806 67.0716 82.1221 66.1268 83.0018C65.183 83.8824 64.5331 84.348 64.5001 84.3092C64.4584 84.2596 65.0374 83.7162 65.9182 82.7909C66.8 81.8665 67.964 80.5387 69.1057 78.961C70.2446 77.3815 71.1486 75.8632 71.7704 74.7454C72.3942 73.6275 72.756 72.9189 72.8132 72.9452Z" fill="white"/>
<path d="M73.0353 87.1465C72.9975 87.1814 72.3204 86.5244 71.3426 85.354C70.3649 84.1856 69.1048 82.4904 67.9233 80.4812C66.7437 78.4701 65.8911 76.527 65.4148 75.0758C65.1713 74.3516 65.0074 73.7548 64.922 73.3368C64.8328 72.9188 64.7979 72.6855 64.826 72.6787C64.892 72.6622 65.1442 73.5672 65.6932 74.9747C66.2354 76.3851 67.1182 78.2806 68.2851 80.2693C69.454 82.2562 70.6636 83.963 71.5754 85.1703C72.4853 86.3785 73.0829 87.1037 73.0353 87.1465Z" fill="white"/>
<path d="M73.014 83.4072C73.1168 83.4665 72.6434 84.4385 71.8868 85.5223C71.1447 86.6158 70.3377 87.374 70.2416 87.2681C70.1834 87.1991 70.8062 86.367 71.5434 85.2812C72.2923 84.2101 72.917 83.3508 73.014 83.4072Z" fill="white"/>
<path d="M68.2744 70.1175L69.2114 70.0883L69.2531 69.3593L67.9096 69.4487L68.2744 70.1175Z" fill="#455A64"/>
<path d="M68.3055 116.859C68.3055 116.859 68.4112 117.293 68.3249 117.736H69.3648L69.3803 116.859H68.3055Z" fill="#455A64"/>
<path d="M72.3922 92.5345C72.3922 92.6502 70.9187 92.7445 69.1018 92.7445C67.284 92.7445 65.8105 92.6512 65.8105 92.5345C65.8105 92.4188 67.284 92.3245 69.1018 92.3245C70.9187 92.3245 72.3922 92.4188 72.3922 92.5345Z" fill="#263238"/>
<path d="M54.7697 116.902C52.4125 116.902 50.5025 114.987 50.5025 112.626V74.3643C50.5025 72.0023 52.4125 70.0884 54.7697 70.0884C57.1269 70.0884 59.0368 72.0023 59.0368 74.3643V112.626C59.0368 114.988 57.1269 116.902 54.7697 116.902Z" fill="#AE7461"/>
<path d="M53.1032 120.867C53.2205 120.753 54.6271 118.158 54.3148 116.902L55.3827 116.859C55.3827 116.859 55.0966 119.332 56.5031 120.867H53.1032Z" fill="#AE7461"/>
<path d="M54.276 70.1175C54.2905 70.1156 52.6347 67.1567 52.6347 67.1567H56.6981C56.6981 67.1567 55.0297 68.1394 55.2256 70.2507L54.276 70.1175Z" fill="#AE7461"/>
<path d="M59.0368 87.1465H50.5025V98.1334H59.0368V87.1465Z" fill="#E0E0E0"/>
<path d="M50.517 109.654C50.4743 109.607 51.0447 109.036 51.9294 108.084C52.814 107.133 53.9955 105.783 55.1527 104.178C57.4672 100.964 58.9106 98.0643 59.0377 98.1333C59.0852 98.1576 58.7729 98.9041 58.1725 100.068C57.5662 101.226 56.6708 102.805 55.4913 104.424C54.3195 106.049 53.0866 107.387 52.1408 108.291C51.1941 109.198 50.5519 109.693 50.517 109.654Z" fill="white"/>
<path d="M59.0388 108.219C59.0844 108.229 59.0106 108.834 58.6653 109.749C58.319 110.66 57.6798 111.869 56.7311 113.021C55.7911 114.179 54.7541 115.062 53.9393 115.595C53.1245 116.134 52.5522 116.342 52.5318 116.297C52.5017 116.238 53.0168 115.941 53.7667 115.355C54.5184 114.774 55.4923 113.881 56.4071 112.756C57.3296 111.636 57.9863 110.491 58.3937 109.633C58.7982 108.772 58.9728 108.202 59.0388 108.219Z" fill="white"/>
<path d="M58.4442 114.843C58.4248 114.883 57.7176 114.6 56.6991 113.917C55.6825 113.238 54.3885 112.102 53.2749 110.59C52.1652 109.074 51.4464 107.522 51.0312 106.374C50.616 105.223 50.4705 104.48 50.5171 104.466C50.6636 104.405 51.4386 107.37 53.6115 110.34C55.7737 113.34 58.5315 114.727 58.4442 114.843Z" fill="white"/>
<path d="M59.0388 103.922C59.0301 103.994 58.5441 103.912 57.8903 103.555C57.5653 103.372 57.1705 103.17 56.7942 102.803C56.4411 102.464 56.0695 102.072 55.7048 101.64C54.2323 99.9046 53.5009 98.1928 53.5999 98.15C53.7085 98.0917 54.5883 99.6791 56.024 101.368C57.3684 103.198 59.0592 103.846 59.0388 103.922Z" fill="white"/>
<path d="M58.8147 72.9452C58.8622 72.9665 58.5955 73.7199 58.0348 74.8824C57.4751 76.044 56.6011 77.607 55.4468 79.207C54.2895 80.806 53.0731 82.1221 52.1283 83.0018C51.1845 83.8824 50.5346 84.348 50.5016 84.3092C50.4599 84.2596 51.0389 83.7162 51.9197 82.7909C52.8015 81.8665 53.9655 80.5387 55.1073 78.961C56.2461 77.3815 57.1501 75.8632 57.7719 74.7454C58.3957 73.6275 58.7575 72.9189 58.8147 72.9452Z" fill="white"/>
<path d="M59.0368 87.1465C58.999 87.1814 58.3219 86.5244 57.3441 85.354C56.3664 84.1856 55.1063 82.4904 53.9248 80.4812C52.7452 78.4701 51.8926 76.527 51.4163 75.0758C51.1728 74.3516 51.0089 73.7548 50.9226 73.3368C50.8333 72.9188 50.7984 72.6855 50.8265 72.6787C50.8935 72.6622 51.1447 73.5672 51.6937 74.9747C52.236 76.3851 53.1187 78.2806 54.2857 80.2693C55.4545 82.2562 56.6642 83.963 57.576 85.1703C58.4878 86.3785 59.0853 87.1037 59.0368 87.1465Z" fill="white"/>
<path d="M59.0155 83.4072C59.1183 83.4665 58.6449 84.4385 57.8883 85.5223C57.1472 86.6158 56.3392 87.374 56.2441 87.2681C56.1849 87.1991 56.8077 86.367 57.5459 85.2812C58.2948 84.2101 58.9185 83.3508 59.0155 83.4072Z" fill="white"/>
<path d="M54.2759 70.1175L55.2139 70.0883L55.2546 69.3593L53.9121 69.4487L54.2759 70.1175Z" fill="#455A64"/>
<path d="M54.308 116.859C54.308 116.859 54.4137 117.293 54.3274 117.736H55.3672L55.3828 116.859H54.308Z" fill="#455A64"/>
<path d="M58.3937 92.5345C58.3937 92.6502 56.9202 92.7445 55.1033 92.7445C53.2855 92.7445 51.812 92.6512 51.812 92.5345C51.812 92.4188 53.2855 92.3245 55.1033 92.3245C56.9202 92.3245 58.3937 92.4188 58.3937 92.5345Z" fill="#263238"/>
<path d="M27.3033 65.9719H21.488V197.372H27.3033V65.9719Z" fill="#AE7461"/>
<path d="M266.014 65.9719H260.198V197.372H266.014V65.9719Z" fill="#AE7461"/>
<path d="M269.664 197.372H15.9579V204.328H269.664V197.372Z" fill="#AE7461"/>
<path d="M263.281 204.328H21.7025V330H263.281V204.328Z" fill="#AE7461"/>
<path d="M270.06 204.384C270.06 204.501 213.254 204.595 143.195 204.595C73.1129 204.595 16.3178 204.501 16.3178 204.384C16.3178 204.268 73.112 204.173 143.195 204.173C213.254 204.172 270.06 204.268 270.06 204.384Z" fill="#263238"/>
<path d="M248.593 313.725C248.593 313.725 248.58 313.132 248.573 311.993C248.569 310.849 248.562 309.16 248.553 306.947C248.542 302.514 248.527 295.99 248.507 287.59C248.484 270.805 248.45 246.534 248.409 216.551L248.592 216.735C193.624 216.752 118.774 216.778 36.4051 216.804H36.3906L36.6428 216.551C36.6379 250.716 36.6341 283.587 36.6302 313.725L36.3906 313.485C98.129 313.532 151.148 313.572 188.741 313.6C207.552 313.628 222.501 313.65 232.756 313.666C237.883 313.68 241.835 313.689 244.513 313.696C245.847 313.703 246.861 313.708 247.552 313.711C248.236 313.716 248.593 313.725 248.593 313.725C248.593 313.725 248.256 313.735 247.581 313.74C246.897 313.743 245.891 313.748 244.57 313.754C241.903 313.761 237.968 313.772 232.863 313.785C222.62 313.8 207.69 313.822 188.902 313.851C151.269 313.879 98.193 313.919 36.3896 313.965H36.15V313.725C36.1461 283.587 36.1413 250.716 36.1374 216.551V216.298H36.3906H36.4051C118.774 216.326 193.624 216.35 248.592 216.368H248.775V216.551C248.733 246.58 248.7 270.891 248.676 287.702C248.657 296.084 248.641 302.595 248.631 307.018C248.622 309.216 248.615 310.894 248.61 312.031C248.605 313.158 248.593 313.725 248.593 313.725Z" fill="#263238"/>
<path d="M279.283 69.7451H63.4475L57.8049 59.0489L56.2577 69.7694L26.2567 69.7451L0 71.8865V19.878H279.283V69.7451Z" fill="#455A64"/>
<path d="M234.205 0H43.2264C24.0082 17.6531 0 19.879 0 19.879H279.283C247.088 17.691 234.205 0 234.205 0Z" fill="#455A64"/>
<path d="M279.805 21.2845C279.805 21.4244 217.627 21.5372 140.943 21.5372C64.2332 21.5372 2.06804 21.4235 2.06804 21.2845C2.06804 21.1455 64.2332 21.0317 140.943 21.0317C217.627 21.0317 279.805 21.1445 279.805 21.2845Z" fill="#263238"/>
<path d="M200.854 49.5969C200.854 49.5969 200.692 49.6309 200.373 49.6766C200.038 49.7223 199.567 49.7855 198.955 49.8681C197.691 50.0295 195.854 50.2647 193.496 50.565C192.309 50.7138 190.992 50.879 189.55 51.0588C188.105 51.2212 186.531 51.3543 184.842 51.5206C181.461 51.8267 177.618 52.2632 173.351 52.4945C171.219 52.6355 168.985 52.7823 166.658 52.9349C164.329 53.0816 161.902 53.1302 159.393 53.2372C154.373 53.487 149.003 53.486 143.353 53.5404C132.054 53.4773 119.63 53.0175 106.635 51.8928C93.6416 50.7031 81.3281 48.9631 70.1932 47.0288C64.6407 45.9751 59.3541 45.0293 54.4564 43.894C52.0042 43.3448 49.6247 42.8665 47.3587 42.3125C45.0947 41.7497 42.9228 41.2102 40.8479 40.6941C36.6884 39.7104 32.9829 38.6023 29.7091 37.7021C28.0756 37.2395 26.5507 36.8293 25.1567 36.4142C23.7696 35.9817 22.5018 35.586 21.36 35.2293C19.0921 34.5149 17.3257 33.9589 16.1112 33.5768C15.5234 33.3873 15.0713 33.2405 14.7493 33.1375C14.4437 33.0364 14.2895 32.9742 14.2895 32.9742C14.2895 32.9742 14.4515 33.0092 14.7619 33.0967C15.0869 33.191 15.5428 33.3241 16.1365 33.4971C17.3568 33.8626 19.13 34.3924 21.4076 35.0738C22.5522 35.4198 23.823 35.8038 25.213 36.2227C26.6147 36.6086 28.1376 37.0266 29.7721 37.4766C33.0489 38.3554 36.7583 39.4421 40.9197 40.4073C42.9946 40.9137 45.1674 41.4445 47.4315 41.9976C49.6975 42.5429 52.0779 43.0133 54.5292 43.5538C59.4259 44.6726 64.7106 45.6048 70.2601 46.6478C81.3892 48.5597 93.6911 50.2861 106.672 51.4749C119.654 52.5985 132.064 53.07 143.354 53.1545C148.998 53.1108 154.364 53.1244 159.38 52.8901C161.889 52.791 164.314 52.7502 166.64 52.6131C168.966 52.4692 171.198 52.3312 173.33 52.2C177.597 51.9871 181.439 51.5721 184.819 51.2882C186.509 51.1337 188.083 51.0112 189.529 50.8605C190.971 50.6934 192.29 50.5408 193.478 50.4027C195.84 50.1354 197.679 49.9264 198.944 49.7835C199.559 49.7184 200.031 49.6688 200.367 49.6329C200.688 49.6018 200.854 49.5969 200.854 49.5969Z" fill="#263238"/>
<path d="M258.815 32.7925C258.818 32.7993 258.752 32.8391 258.621 32.911C258.467 32.9917 258.273 33.0938 258.031 33.2211C257.481 33.5001 256.717 33.887 255.746 34.3788C254.753 34.8823 253.534 35.4859 252.1 36.1498C250.669 36.8186 249.05 37.605 247.226 38.3982C243.602 40.0389 239.23 41.8654 234.328 43.7715C229.414 45.6476 223.964 47.5848 218.175 49.4103C212.378 51.2163 206.795 52.7356 201.689 53.9993C196.576 55.2347 191.944 56.2281 188.034 56.9523C186.084 57.344 184.306 57.622 182.75 57.8903C181.194 58.1634 179.849 58.3647 178.748 58.5182C177.671 58.6689 176.822 58.7875 176.212 58.873C175.942 58.9061 175.724 58.9333 175.552 58.9547C175.402 58.9712 175.326 58.9751 175.325 58.9683C175.324 58.9615 175.398 58.942 175.546 58.9119C175.717 58.8798 175.932 58.839 176.201 58.7885C176.808 58.6845 177.652 58.5396 178.723 58.3559C179.82 58.178 181.16 57.9535 182.71 57.658C184.262 57.3673 186.034 57.0689 187.978 56.6597C191.876 55.8986 196.497 54.877 201.597 53.6231C206.691 52.34 212.261 50.812 218.05 49.0089C223.83 47.1853 229.276 45.2626 234.19 43.409C239.092 41.5252 243.471 39.7298 247.106 38.125C248.936 37.3503 250.562 36.5843 252.001 35.936C253.443 35.2925 254.672 34.7112 255.675 34.2301C256.66 33.7684 257.436 33.4048 257.993 33.1433C258.243 33.0316 258.442 32.9412 258.602 32.8702C258.739 32.8138 258.812 32.7866 258.815 32.7925Z" fill="#263238"/>
<path d="M132.695 191.445L125 194.201C125 194.201 126.434 197.215 124.47 197.87C122.507 198.523 122.424 194.713 122.424 194.713C122.424 194.713 119.317 191.733 121.89 191.068C124.461 190.403 124.353 192.385 124.353 192.385L132.643 189.008L132.695 191.445Z" fill="white"/>
<path d="M131.463 190.709C127.433 180.13 152.703 167.241 152.703 167.241L167.24 196.029C167.24 196.029 135.921 202.421 131.463 190.709Z" fill="#6F4439"/>
<path d="M167.239 196.03C174.886 194.464 168.383 164.463 154.966 166.354C141.55 168.243 149.752 199.609 167.239 196.03Z" fill="#FF9A6C"/>
<path d="M167.045 194.659C174.064 193.222 168.093 165.69 155.78 167.426C143.469 169.16 150.996 197.943 167.045 194.659Z" fill="#FF725E"/>
<path d="M159.358 181.608C158.491 179.51 158.51 177.505 159.406 177.133C160.298 176.759 161.725 178.161 162.592 180.258C163.459 182.357 163.44 184.363 162.547 184.735C161.654 185.107 160.227 183.707 159.358 181.608Z" fill="#E0E0E0"/>
<path d="M209.709 143.232H208.476V166.906H209.709V143.232Z" fill="#263238"/>
<path d="M219.242 132.537L194.594 135.366L196.029 147.916L220.677 145.087L219.242 132.537Z" fill="#E0E0E0"/>
<path d="M220.672 145.109C220.667 145.104 220.652 145.024 220.63 144.874C220.606 144.699 220.575 144.481 220.538 144.211C220.459 143.603 220.35 142.762 220.213 141.698C219.943 139.507 219.56 136.397 219.09 132.576L219.255 132.708C212.756 133.467 204.101 134.478 194.615 135.587C194.456 135.785 194.827 135.317 194.789 135.366V135.369L194.79 135.376L194.792 135.388L194.795 135.415L194.801 135.466L194.812 135.57L194.836 135.777L194.883 136.19L194.977 137.014C195.039 137.561 195.102 138.105 195.164 138.646C195.287 139.727 195.407 140.794 195.526 141.844C195.763 143.943 195.992 145.975 196.211 147.915L196.003 147.749C203.16 146.964 209.293 146.293 213.674 145.813C215.841 145.586 217.573 145.404 218.799 145.276C219.377 145.22 219.835 145.175 220.179 145.141C220.496 145.114 220.664 145.102 220.672 145.109C220.681 145.116 220.529 145.141 220.228 145.183C219.895 145.226 219.452 145.286 218.891 145.36C217.678 145.511 215.964 145.725 213.82 145.993C209.413 146.522 203.243 147.262 196.044 148.124L195.857 148.146L195.835 147.958C195.611 146.019 195.375 143.988 195.133 141.889C195.011 140.84 194.889 139.772 194.765 138.691C194.703 138.151 194.641 137.607 194.578 137.059L194.484 136.236L194.436 135.823L194.413 135.616L194.401 135.512L194.395 135.46L194.392 135.434L194.391 135.422L194.39 135.415V135.412C194.351 135.458 194.723 134.99 194.567 135.188C204.058 134.119 212.717 133.143 219.219 132.411L219.369 132.395L219.384 132.543C219.793 136.41 220.124 139.557 220.359 141.775C220.464 142.829 220.546 143.661 220.606 144.263C220.629 144.524 220.647 144.734 220.662 144.903C220.675 145.043 220.678 145.114 220.672 145.109Z" fill="#263238"/>
<path d="M215.445 139.56C215.454 139.615 214.691 139.77 213.45 139.976C212.209 140.183 210.489 140.441 208.586 140.701C206.683 140.961 204.957 141.174 203.706 141.309C202.454 141.443 201.678 141.499 201.673 141.444C201.667 141.389 202.431 141.234 203.673 141.028C204.914 140.822 206.631 140.565 208.532 140.304C210.431 140.044 212.155 139.832 213.406 139.696C214.657 139.561 215.435 139.506 215.445 139.56Z" fill="#263238"/>
<path d="M207.942 161.615C206.563 161.791 205.337 162.816 204.633 164.133C203.929 165.449 203.706 167.022 203.795 168.538L213.739 169.785C213.643 167.843 213.335 165.853 212.381 164.222C211.426 162.592 209.706 161.391 207.942 161.615Z" fill="white"/>
<path d="M207.942 161.616C207.937 161.597 208.232 161.5 208.792 161.534C209.348 161.562 210.17 161.795 210.999 162.408C211.831 163.008 212.634 164.019 213.133 165.315C213.65 166.608 213.898 168.145 213.983 169.774L213.999 170.065L213.709 170.029C212.509 169.881 211.23 169.724 209.911 169.561C207.722 169.278 205.643 169.01 203.767 168.768L203.576 168.744L203.566 168.553C203.498 167.22 203.678 165.971 204.07 164.936C204.454 163.896 205.061 163.095 205.669 162.577C206.277 162.051 206.876 161.796 207.29 161.691C207.706 161.583 207.94 161.596 207.942 161.616C207.974 161.69 206.978 161.723 205.854 162.781C204.711 163.791 203.821 165.954 204.025 168.525L203.824 168.31C205.702 168.539 207.783 168.792 209.974 169.059C211.292 169.227 212.57 169.39 213.77 169.544L213.495 169.798C213.425 168.198 213.206 166.71 212.74 165.468C212.289 164.219 211.57 163.259 210.809 162.655C210.053 162.044 209.298 161.778 208.773 161.7C208.244 161.616 207.945 161.655 207.942 161.616Z" fill="#263238"/>
<path d="M197.038 161.615C195.659 161.791 194.433 162.816 193.729 164.133C193.025 165.449 192.802 167.022 192.891 168.538L202.835 169.785C202.739 167.843 202.431 165.853 201.477 164.222C200.522 162.592 198.802 161.391 197.038 161.615Z" fill="white"/>
<path d="M197.038 161.616C197.033 161.597 197.328 161.5 197.887 161.534C198.443 161.562 199.266 161.795 200.094 162.408C200.926 163.008 201.729 164.019 202.228 165.315C202.745 166.608 202.993 168.145 203.078 169.774L203.094 170.065L202.804 170.029C201.604 169.881 200.325 169.724 199.006 169.561C196.817 169.278 194.738 169.01 192.862 168.768L192.671 168.744L192.661 168.553C192.593 167.22 192.773 165.971 193.165 164.936C193.549 163.896 194.156 163.095 194.764 162.577C195.372 162.052 195.971 161.797 196.385 161.691C196.803 161.583 197.036 161.596 197.038 161.616C197.07 161.69 196.074 161.723 194.95 162.781C193.807 163.791 192.917 165.954 193.121 168.525L192.92 168.31C194.798 168.539 196.879 168.792 199.07 169.059C200.388 169.227 201.667 169.39 202.866 169.544L202.591 169.798C202.521 168.198 202.302 166.71 201.836 165.467C201.385 164.218 200.666 163.258 199.905 162.654C199.148 162.043 198.394 161.777 197.869 161.699C197.34 161.616 197.041 161.655 197.038 161.616Z" fill="#263238"/>
<path d="M218.867 161.615C217.489 161.791 216.263 162.816 215.558 164.133C214.854 165.449 214.631 167.022 214.72 168.538L224.664 169.785C224.568 167.843 224.261 165.853 223.306 164.222C222.352 162.592 220.632 161.391 218.867 161.615Z" fill="white"/>
<path d="M218.867 161.616C218.862 161.597 219.157 161.5 219.718 161.534C220.274 161.562 221.095 161.795 221.925 162.408C222.756 163.008 223.559 164.019 224.059 165.315C224.576 166.608 224.823 168.145 224.908 169.774L224.924 170.065L224.634 170.029C223.434 169.881 222.156 169.724 220.836 169.561C218.647 169.278 216.568 169.01 214.692 168.768L214.501 168.744L214.491 168.553C214.423 167.22 214.604 165.971 214.996 164.936C215.38 163.896 215.986 163.095 216.594 162.577C217.203 162.051 217.8 161.796 218.215 161.691C218.631 161.583 218.865 161.596 218.867 161.616C218.899 161.69 217.903 161.723 216.78 162.781C215.636 163.791 214.747 165.954 214.95 168.525L214.749 168.31C216.627 168.539 218.708 168.792 220.899 169.059C222.219 169.227 223.496 169.39 224.695 169.544L224.421 169.798C224.351 168.198 224.131 166.71 223.666 165.467C223.215 164.218 222.495 163.258 221.735 162.654C220.978 162.043 220.222 161.777 219.698 161.699C219.17 161.616 218.87 161.655 218.867 161.616Z" fill="#263238"/>
<path d="M229.793 161.615C228.414 161.791 227.188 162.816 226.484 164.133C225.78 165.449 225.557 167.022 225.646 168.538L235.59 169.785C235.495 167.843 235.186 165.853 234.232 164.222C233.277 162.592 231.558 161.391 229.793 161.615Z" fill="white"/>
<path d="M229.793 161.616C229.788 161.597 230.083 161.5 230.643 161.534C231.199 161.562 232.022 161.795 232.85 162.408C233.682 163.008 234.485 164.019 234.984 165.315C235.501 166.608 235.749 168.145 235.834 169.774L235.849 170.065L235.56 170.029C234.361 169.881 233.082 169.724 231.763 169.561C229.573 169.278 227.495 169.01 225.619 168.768L225.428 168.744L225.418 168.553C225.35 167.22 225.53 165.971 225.922 164.936C226.306 163.896 226.913 163.095 227.521 162.577C228.129 162.051 228.727 161.796 229.141 161.691C229.558 161.583 229.791 161.596 229.793 161.616C229.825 161.69 228.828 161.723 227.706 162.781C226.562 163.791 225.673 165.954 225.876 168.525L225.675 168.31C227.553 168.539 229.634 168.792 231.825 169.059C233.143 169.227 234.421 169.39 235.621 169.544L235.346 169.798C235.276 168.198 235.057 166.71 234.591 165.467C234.14 164.218 233.421 163.258 232.66 162.654C231.903 162.043 231.149 161.777 230.624 161.699C230.095 161.616 229.797 161.655 229.793 161.616Z" fill="#263238"/>
<path d="M245.157 164.223C244.202 162.592 242.483 161.391 240.718 161.616C239.34 161.792 238.114 162.817 237.409 164.133C236.705 165.449 236.482 167.023 236.571 168.539L246.515 169.786C246.419 167.844 246.111 165.854 245.157 164.223Z" fill="white"/>
<path d="M245.157 164.223C245.173 164.213 245.262 164.325 245.403 164.552C245.541 164.782 245.726 165.133 245.912 165.606C246.29 166.549 246.611 167.996 246.714 169.776L246.727 170.011L246.491 169.983C243.926 169.677 240.748 169.297 237.292 168.884C237.035 168.852 236.779 168.82 236.541 168.789L236.333 168.763L236.321 168.553C236.198 166.529 236.661 164.497 237.82 163.107C238.386 162.417 239.097 161.9 239.85 161.625C240.604 161.34 241.388 161.356 242.035 161.523C243.347 161.89 244.133 162.702 244.584 163.257C245.032 163.833 245.178 164.211 245.157 164.223C245.12 164.245 244.917 163.902 244.437 163.382C243.96 162.88 243.162 162.153 241.952 161.863C241.353 161.732 240.662 161.738 239.992 162.009C239.324 162.272 238.685 162.754 238.174 163.397C237.133 164.682 236.702 166.588 236.823 168.523L236.603 168.288C236.841 168.318 237.097 168.35 237.354 168.382C240.805 168.836 243.978 169.253 246.54 169.589L246.317 169.796C246.262 168.04 246.007 166.625 245.7 165.681C245.399 164.734 245.113 164.247 245.157 164.223Z" fill="#263238"/>
<path d="M249.624 169.957H187.834H176.793V167.922H249.624V169.957Z" fill="#FF725E"/>
<path d="M182.602 172.676L178.27 169.804H247.596L245.43 172.676H182.602Z" fill="#FF725E"/>
<path d="M248.888 169.957C248.888 170.097 232.671 170.209 212.671 170.209C192.664 170.209 176.451 170.096 176.451 169.957C176.451 169.818 192.664 169.704 212.671 169.704C232.671 169.704 248.888 169.818 248.888 169.957Z" fill="#263238"/>
<path d="M207.942 173.335C206.563 173.51 205.337 174.536 204.633 175.852C203.929 177.168 203.706 178.742 203.795 180.257L213.739 181.505C213.643 179.562 213.335 177.573 212.381 175.942C211.426 174.31 209.706 173.11 207.942 173.335Z" fill="white"/>
<path d="M207.942 173.335C207.937 173.316 208.232 173.219 208.792 173.253C209.348 173.281 210.17 173.514 210.999 174.127C211.831 174.727 212.634 175.738 213.133 177.034C213.65 178.327 213.898 179.864 213.983 181.493L213.999 181.784L213.709 181.748C212.509 181.6 211.23 181.442 209.911 181.28C207.722 180.997 205.643 180.729 203.767 180.487L203.576 180.463L203.566 180.272C203.498 178.938 203.678 177.689 204.07 176.654C204.454 175.614 205.061 174.813 205.669 174.295C206.277 173.77 206.876 173.515 207.29 173.409C207.706 173.302 207.94 173.315 207.942 173.335C207.974 173.409 206.978 173.442 205.854 174.5C204.711 175.51 203.821 177.673 204.025 180.244L203.824 180.029C205.702 180.258 207.783 180.511 209.974 180.778C211.292 180.946 212.57 181.109 213.77 181.263L213.495 181.517C213.425 179.917 213.206 178.429 212.74 177.187C212.289 175.938 211.57 174.977 210.809 174.374C210.053 173.762 209.298 173.497 208.773 173.419C208.244 173.336 207.945 173.374 207.942 173.335Z" fill="#263238"/>
<path d="M197.038 173.335C195.659 173.51 194.433 174.536 193.729 175.852C193.025 177.168 192.802 178.742 192.891 180.257L202.835 181.505C202.739 179.562 202.431 177.573 201.477 175.942C200.522 174.31 198.802 173.11 197.038 173.335Z" fill="white"/>
<path d="M197.038 173.335C197.033 173.316 197.328 173.219 197.887 173.253C198.443 173.281 199.266 173.514 200.094 174.127C200.926 174.727 201.729 175.738 202.228 177.034C202.745 178.327 202.993 179.864 203.078 181.493L203.094 181.784L202.804 181.748C201.604 181.6 200.325 181.442 199.006 181.28C196.817 180.997 194.738 180.729 192.862 180.487L192.671 180.463L192.661 180.272C192.593 178.938 192.773 177.689 193.165 176.655C193.549 175.615 194.156 174.814 194.764 174.296C195.372 173.77 195.971 173.515 196.385 173.41C196.803 173.302 197.036 173.315 197.038 173.335C197.07 173.409 196.074 173.442 194.95 174.5C193.807 175.51 192.917 177.673 193.121 180.244L192.92 180.029C194.798 180.258 196.879 180.511 199.07 180.778C200.388 180.946 201.667 181.109 202.866 181.263L202.591 181.517C202.521 179.917 202.302 178.429 201.836 177.186C201.385 175.937 200.666 174.976 199.905 174.373C199.148 173.761 198.394 173.496 197.869 173.418C197.34 173.336 197.041 173.374 197.038 173.335Z" fill="#263238"/>
<path d="M186.134 173.335C184.755 173.51 183.529 174.536 182.825 175.852C182.121 177.168 181.897 178.742 181.987 180.257L191.93 181.505C191.834 179.562 191.527 177.573 190.572 175.942C189.618 174.31 187.899 173.11 186.134 173.335Z" fill="white"/>
<path d="M186.134 173.335C186.13 173.316 186.424 173.219 186.984 173.253C187.54 173.281 188.363 173.514 189.191 174.127C190.022 174.727 190.826 175.738 191.325 177.034C191.842 178.327 192.09 179.864 192.175 181.493L192.19 181.784L191.9 181.748C190.7 181.6 189.422 181.442 188.103 181.28C185.913 180.997 183.835 180.729 181.959 180.487L181.767 180.463L181.757 180.272C181.689 178.938 181.87 177.689 182.262 176.655C182.645 175.615 183.253 174.814 183.861 174.296C184.469 173.771 185.067 173.515 185.482 173.41C185.899 173.302 186.132 173.315 186.134 173.335C186.166 173.409 185.169 173.442 184.047 174.5C182.903 175.51 182.015 177.673 182.218 180.244L182.017 180.029C183.895 180.258 185.975 180.511 188.167 180.778C189.485 180.946 190.764 181.109 191.963 181.263L191.688 181.517C191.618 179.917 191.399 178.429 190.933 177.186C190.482 175.937 189.762 174.976 189.002 174.373C188.245 173.761 187.491 173.496 186.966 173.418C186.436 173.336 186.136 173.374 186.134 173.335Z" fill="#263238"/>
<path d="M218.867 173.335C217.489 173.51 216.263 174.536 215.558 175.852C214.854 177.168 214.631 178.742 214.72 180.257L224.664 181.505C224.568 179.562 224.261 177.573 223.306 175.942C222.352 174.31 220.632 173.11 218.867 173.335Z" fill="white"/>
<path d="M218.867 173.335C218.862 173.316 219.157 173.219 219.718 173.253C220.274 173.281 221.095 173.514 221.925 174.127C222.756 174.727 223.559 175.738 224.059 177.034C224.576 178.327 224.823 179.864 224.908 181.493L224.924 181.784L224.634 181.748C223.434 181.6 222.156 181.442 220.836 181.28C218.647 180.997 216.568 180.729 214.692 180.487L214.501 180.463L214.491 180.272C214.423 178.938 214.604 177.689 214.996 176.655C215.38 175.615 215.986 174.814 216.594 174.296C217.203 173.771 217.8 173.515 218.215 173.41C218.631 173.302 218.865 173.315 218.867 173.335C218.899 173.409 217.903 173.442 216.78 174.5C215.636 175.51 214.747 177.673 214.95 180.244L214.749 180.029C216.627 180.258 218.708 180.511 220.899 180.778C222.219 180.946 223.496 181.109 224.695 181.263L224.421 181.517C224.351 179.917 224.131 178.429 223.666 177.186C223.215 175.937 222.495 174.976 221.735 174.373C220.978 173.761 220.222 173.496 219.698 173.418C219.17 173.336 218.87 173.374 218.867 173.335Z" fill="#263238"/>
<path d="M229.793 173.335C228.414 173.51 227.188 174.536 226.484 175.852C225.78 177.168 225.556 178.742 225.646 180.257L235.589 181.505C235.494 179.562 235.186 177.573 234.231 175.942C233.277 174.31 231.558 173.11 229.793 173.335Z" fill="white"/>
<path d="M229.793 173.335C229.788 173.316 230.083 173.219 230.643 173.253C231.199 173.281 232.022 173.514 232.85 174.127C233.681 174.727 234.485 175.738 234.984 177.034C235.501 178.327 235.749 179.864 235.834 181.493L235.849 181.784L235.56 181.748C234.36 181.6 233.082 181.442 231.763 181.28C229.573 180.997 227.495 180.729 225.618 180.487L225.427 180.463L225.418 180.272C225.35 178.938 225.53 177.689 225.922 176.655C226.306 175.615 226.913 174.814 227.521 174.296C228.129 173.771 228.726 173.515 229.141 173.41C229.558 173.302 229.791 173.315 229.793 173.335C229.825 173.409 228.828 173.442 227.706 174.5C226.562 175.51 225.673 177.673 225.876 180.244L225.675 180.029C227.553 180.258 229.633 180.511 231.825 180.778C233.143 180.946 234.421 181.109 235.62 181.263L235.346 181.517C235.276 179.917 235.057 178.429 234.591 177.186C234.14 175.937 233.42 174.976 232.66 174.373C231.903 173.761 231.149 173.496 230.624 173.418C230.095 173.336 229.796 173.374 229.793 173.335Z" fill="#263238"/>
<path d="M245.157 175.942C244.202 174.31 242.483 173.11 240.718 173.335C239.34 173.51 238.114 174.536 237.409 175.852C236.705 177.168 236.482 178.742 236.571 180.257L246.515 181.505C246.419 179.562 246.111 177.573 245.157 175.942Z" fill="white"/>
<path d="M245.157 175.942C245.173 175.932 245.262 176.043 245.403 176.271C245.541 176.501 245.726 176.851 245.912 177.325C246.29 178.268 246.611 179.715 246.714 181.495L246.727 181.73L246.491 181.702C243.926 181.396 240.748 181.016 237.292 180.603C237.035 180.57 236.779 180.538 236.541 180.508L236.333 180.482L236.321 180.272C236.198 178.248 236.661 176.216 237.82 174.826C238.386 174.136 239.097 173.618 239.85 173.343C240.604 173.059 241.388 173.075 242.035 173.242C243.347 173.609 244.133 174.42 244.584 174.975C245.032 175.552 245.178 175.931 245.157 175.942C245.12 175.964 244.917 175.62 244.437 175.101C243.96 174.599 243.162 173.872 241.952 173.582C241.353 173.451 240.662 173.457 239.992 173.728C239.324 173.991 238.685 174.473 238.174 175.115C237.133 176.4 236.702 178.307 236.823 180.242L236.603 180.006C236.841 180.036 237.097 180.068 237.354 180.1C240.805 180.553 243.978 180.971 246.54 181.307L246.317 181.514C246.262 179.758 246.007 178.343 245.7 177.399C245.399 176.453 245.113 175.966 245.157 175.942Z" fill="#263238"/>
<path d="M249.624 182.26H187.834H176.793V180.225H249.624V182.26Z" fill="#FF725E"/>
<path d="M182.602 184.98L178.27 182.106H247.596L245.43 184.98H182.602Z" fill="#FF725E"/>
<path d="M248.888 182.26C248.888 182.4 232.671 182.513 212.671 182.513C192.664 182.513 176.451 182.4 176.451 182.26C176.451 182.12 192.664 182.007 212.671 182.007C232.671 182.007 248.888 182.12 248.888 182.26Z" fill="#263238"/>
<path d="M207.942 185.638C206.563 185.813 205.337 186.839 204.633 188.155C203.929 189.471 203.706 191.045 203.795 192.56L213.739 193.808C213.643 191.865 213.335 189.876 212.381 188.245C211.426 186.614 209.706 185.413 207.942 185.638Z" fill="white"/>
<path d="M207.942 185.638C207.937 185.619 208.232 185.522 208.792 185.556C209.348 185.584 210.17 185.817 210.999 186.43C211.831 187.03 212.634 188.041 213.133 189.337C213.65 190.63 213.898 192.167 213.983 193.796L213.999 194.087L213.709 194.051C212.509 193.903 211.23 193.745 209.911 193.582C207.722 193.299 205.643 193.031 203.767 192.789L203.576 192.765L203.566 192.574C203.498 191.241 203.678 189.991 204.07 188.957C204.454 187.917 205.061 187.116 205.669 186.598C206.277 186.073 206.876 185.818 207.29 185.712C207.706 185.605 207.94 185.618 207.942 185.638C207.974 185.712 206.978 185.745 205.854 186.803C204.711 187.813 203.821 189.976 204.025 192.547L203.824 192.332C205.702 192.561 207.783 192.814 209.974 193.081C211.292 193.249 212.57 193.412 213.77 193.566L213.495 193.82C213.425 192.22 213.206 190.732 212.74 189.49C212.289 188.241 211.57 187.28 210.809 186.677C210.053 186.065 209.298 185.8 208.773 185.722C208.244 185.638 207.945 185.677 207.942 185.638Z" fill="#263238"/>
<path d="M197.038 185.638C195.659 185.813 194.433 186.839 193.729 188.155C193.025 189.471 192.802 191.045 192.891 192.56L202.835 193.808C202.739 191.865 202.431 189.876 201.477 188.245C200.522 186.614 198.802 185.413 197.038 185.638Z" fill="white"/>
<path d="M197.038 185.638C197.033 185.619 197.328 185.522 197.887 185.556C198.443 185.584 199.266 185.817 200.094 186.43C200.926 187.03 201.729 188.04 202.228 189.337C202.745 190.63 202.993 192.167 203.078 193.796L203.094 194.087L202.804 194.051C201.604 193.903 200.325 193.745 199.006 193.583C196.817 193.3 194.738 193.032 192.862 192.79L192.671 192.766L192.661 192.575C192.593 191.241 192.773 189.992 193.165 188.958C193.549 187.918 194.156 187.117 194.764 186.599C195.372 186.074 195.971 185.819 196.385 185.713C196.803 185.605 197.036 185.618 197.038 185.638C197.07 185.712 196.074 185.745 194.95 186.803C193.807 187.813 192.917 189.976 193.121 192.547L192.92 192.332C194.798 192.561 196.879 192.814 199.07 193.081C200.388 193.249 201.667 193.412 202.866 193.566L202.591 193.82C202.521 192.22 202.302 190.732 201.836 189.49C201.385 188.241 200.666 187.28 199.905 186.677C199.148 186.065 198.394 185.8 197.869 185.722C197.34 185.638 197.041 185.677 197.038 185.638Z" fill="#263238"/>
<path d="M186.134 185.638C184.755 185.813 183.529 186.839 182.825 188.155C182.121 189.471 181.897 191.045 181.987 192.56L191.93 193.808C191.834 191.865 191.527 189.876 190.572 188.245C189.618 186.614 187.899 185.413 186.134 185.638Z" fill="white"/>
<path d="M186.134 185.638C186.13 185.619 186.424 185.522 186.984 185.556C187.54 185.584 188.363 185.817 189.191 186.43C190.022 187.03 190.826 188.041 191.325 189.337C191.842 190.63 192.09 192.167 192.175 193.796L192.19 194.087L191.9 194.051C190.7 193.903 189.422 193.745 188.103 193.583C185.913 193.3 183.835 193.032 181.959 192.79L181.767 192.766L181.757 192.575C181.689 191.241 181.87 189.992 182.262 188.958C182.645 187.918 183.253 187.117 183.861 186.599C184.469 186.074 185.067 185.819 185.482 185.713C185.899 185.605 186.132 185.618 186.134 185.638C186.166 185.712 185.169 185.745 184.047 186.803C182.903 187.813 182.015 189.976 182.218 192.547L182.017 192.332C183.895 192.561 185.975 192.814 188.167 193.081C189.485 193.249 190.764 193.412 191.963 193.566L191.688 193.82C191.618 192.22 191.399 190.732 190.933 189.49C190.482 188.241 189.762 187.28 189.002 186.677C188.245 186.065 187.491 185.8 186.966 185.722C186.436 185.638 186.136 185.677 186.134 185.638Z" fill="#263238"/>
<path d="M218.867 185.638C217.489 185.813 216.263 186.839 215.558 188.155C214.854 189.471 214.631 191.045 214.72 192.56L224.664 193.808C224.568 191.865 224.261 189.876 223.306 188.245C222.352 186.614 220.632 185.413 218.867 185.638Z" fill="white"/>
<path d="M218.867 185.638C218.862 185.619 219.157 185.522 219.718 185.556C220.274 185.584 221.095 185.817 221.925 186.43C222.756 187.03 223.559 188.041 224.059 189.337C224.576 190.63 224.823 192.167 224.908 193.796L224.924 194.087L224.634 194.051C223.434 193.903 222.156 193.745 220.836 193.583C218.647 193.3 216.568 193.032 214.692 192.79L214.501 192.766L214.491 192.575C214.423 191.241 214.604 189.992 214.996 188.958C215.38 187.918 215.986 187.117 216.594 186.599C217.203 186.074 217.8 185.819 218.215 185.713C218.631 185.605 218.865 185.618 218.867 185.638C218.899 185.712 217.903 185.745 216.78 186.803C215.636 187.813 214.747 189.976 214.95 192.547L214.749 192.332C216.627 192.561 218.708 192.814 220.899 193.081C222.219 193.249 223.496 193.412 224.695 193.566L224.421 193.82C224.351 192.22 224.131 190.732 223.666 189.49C223.215 188.241 222.495 187.28 221.735 186.677C220.978 186.065 220.222 185.8 219.698 185.722C219.17 185.638 218.87 185.677 218.867 185.638Z" fill="#263238"/>
<path d="M229.793 185.638C228.414 185.813 227.188 186.839 226.484 188.155C225.78 189.471 225.556 191.045 225.646 192.56L235.589 193.808C235.494 191.865 235.186 189.876 234.231 188.245C233.277 186.614 231.558 185.413 229.793 185.638Z" fill="white"/>
<path d="M229.793 185.638C229.788 185.619 230.083 185.522 230.643 185.556C231.199 185.584 232.022 185.817 232.85 186.43C233.681 187.03 234.485 188.041 234.984 189.337C235.501 190.63 235.749 192.167 235.834 193.796L235.849 194.087L235.56 194.051C234.36 193.903 233.082 193.745 231.763 193.583C229.573 193.3 227.495 193.032 225.618 192.79L225.427 192.766L225.418 192.575C225.35 191.241 225.53 189.992 225.922 188.958C226.306 187.918 226.913 187.117 227.521 186.599C228.129 186.074 228.726 185.819 229.141 185.713C229.558 185.605 229.791 185.618 229.793 185.638C229.825 185.712 228.828 185.745 227.706 186.803C226.562 187.813 225.673 189.976 225.876 192.547L225.675 192.332C227.553 192.561 229.633 192.814 231.825 193.081C233.143 193.249 234.421 193.412 235.62 193.566L235.346 193.82C235.276 192.22 235.057 190.732 234.591 189.49C234.14 188.241 233.42 187.28 232.66 186.677C231.903 186.065 231.149 185.8 230.624 185.722C230.095 185.638 229.796 185.677 229.793 185.638Z" fill="#263238"/>
<path d="M245.157 188.245C244.202 186.614 242.483 185.413 240.718 185.638C239.34 185.813 238.114 186.839 237.409 188.155C236.705 189.471 236.482 191.045 236.571 192.56L246.515 193.808C246.419 191.865 246.111 189.876 245.157 188.245Z" fill="white"/>
<path d="M245.157 188.245C245.173 188.235 245.262 188.346 245.403 188.574C245.541 188.804 245.726 189.155 245.912 189.628C246.29 190.571 246.611 192.018 246.714 193.798L246.727 194.033L246.491 194.005C243.926 193.699 240.748 193.319 237.292 192.906C237.035 192.873 236.779 192.841 236.541 192.811L236.333 192.785L236.321 192.575C236.198 190.551 236.661 188.519 237.82 187.129C238.386 186.439 239.097 185.922 239.85 185.646C240.604 185.362 241.388 185.378 242.035 185.545C243.347 185.912 244.133 186.723 244.584 187.278C245.032 187.854 245.178 188.233 245.157 188.245C245.12 188.267 244.917 187.923 244.437 187.404C243.96 186.902 243.162 186.175 241.952 185.885C241.353 185.755 240.662 185.76 239.992 186.031C239.324 186.294 238.685 186.777 238.174 187.418C237.133 188.703 236.702 190.61 236.823 192.545L236.603 192.31C236.841 192.34 237.097 192.372 237.354 192.404C240.805 192.858 243.978 193.275 246.54 193.611L246.317 193.818C246.262 192.062 246.007 190.647 245.7 189.703C245.399 188.756 245.113 188.269 245.157 188.245Z" fill="#263238"/>
<path d="M249.624 194.563H187.834H176.793V192.527H249.624V194.563Z" fill="#FF725E"/>
<path d="M182.602 197.282L178.27 194.409H247.596L245.43 197.282H182.602Z" fill="#FF725E"/>
<path d="M248.888 194.563C248.888 194.703 232.671 194.816 212.671 194.816C192.664 194.816 176.451 194.702 176.451 194.563C176.451 194.423 192.664 194.31 212.671 194.31C232.671 194.309 248.888 194.423 248.888 194.563Z" fill="#263238"/>
<path d="M41.0748 170.566C41.0748 170.566 30.6227 174.383 32.3057 180.596C33.9887 186.809 38.5944 197.371 38.5944 197.371H50.1096V168.702H41.1155L41.0748 170.566Z" fill="#E0E0E0"/>
<path d="M57.7156 170.566C57.7156 170.566 68.1676 174.383 66.4846 180.596C64.8016 186.809 60.1959 197.371 60.1959 197.371H48.6807V168.702H57.6738L57.7156 170.566Z" fill="#E0E0E0"/>
<path d="M58.9058 165.289H40.0252V169.395H58.9058V165.289Z" fill="#263238"/>
<path d="M40.0252 195.311L35.1043 182.026C35.1043 182.026 38.6002 178.588 44.207 180.043C49.8137 181.497 48.6846 182.974 53.9034 181.827C62.2999 179.981 64.919 181.232 64.919 181.232L59.1949 195.376L40.3152 195.31" fill="#FFBF9D"/>
<g opacity="0.3">
<path d="M60.6363 171.935L34.6183 187.531L35.8386 190.704L63.0255 173.471C63.0255 173.471 61.1912 172.231 60.6363 171.935Z" fill="white"/>
</g>
<path d="M104.204 151.144C103.974 149.646 103.054 147.531 102.709 147.186L98.7664 147.158V147.111L95.5197 147.134L92.273 147.111V147.158L88.3308 147.186C87.9864 147.532 87.0649 149.646 86.835 151.144C86.6051 152.642 87.1348 170.921 87.1348 170.921H92.2264H98.8149H103.616C103.616 170.921 104.435 152.642 104.204 151.144Z" fill="#FF725E"/>
<path d="M88.7334 146.789C88.4356 146.886 83.566 149.599 84.6592 150.083C85.7524 150.568 87.6401 149.405 89.8266 150.083C92.013 150.762 94.4468 151.44 95.9377 150.81C97.4287 150.181 99.7635 149.357 101.005 149.793C102.247 150.229 105.03 150.811 105.874 150.325C106.719 149.841 102.992 146.789 102.992 146.789H88.7334Z" fill="#E0E0E0"/>
<g opacity="0.3">
<path d="M98.7081 165.586L86.9941 165.687L86.7768 154.602H98.7081V165.586Z" fill="white"/>
</g>
<path d="M102.96 145.058H88.6761V146.789H102.96V145.058Z" fill="#263238"/>
<path d="M103.484 144.382H87.9582V146.113H103.484V144.382Z" fill="#263238"/>
<path d="M103.532 146.093C103.532 146.233 100.046 146.346 95.7456 146.346C91.4445 146.346 87.9592 146.232 87.9592 146.093C87.9592 145.953 91.4445 145.841 95.7456 145.841C100.046 145.84 103.532 145.953 103.532 146.093Z" fill="#455A64"/>
<path d="M114.894 177.683C114.664 176.185 113.743 174.07 113.398 173.725L109.456 173.697V173.65L106.209 173.674L102.963 173.65V173.697L99.0204 173.725C98.675 174.071 97.7545 176.185 97.5246 177.683C97.2947 179.181 97.8244 197.46 97.8244 197.46H102.916H109.504H114.305C114.303 197.46 115.124 179.181 114.894 177.683Z" fill="#FF725E"/>
<path d="M99.422 173.329C99.1242 173.426 94.2547 176.139 95.3479 176.623C96.4412 177.107 98.3288 175.944 100.515 176.623C102.702 177.301 105.136 177.98 106.626 177.35C108.117 176.72 110.452 175.897 111.694 176.332C112.935 176.769 115.719 177.35 116.562 176.865C117.407 176.381 113.68 173.329 113.68 173.329H99.422Z" fill="#E0E0E0"/>
<g opacity="0.3">
<path d="M109.398 192.126L97.6828 192.227L97.4655 181.142H109.398V192.126Z" fill="white"/>
</g>
<path d="M113.648 171.597H99.3648V173.329H113.648V171.597Z" fill="#263238"/>
<path d="M114.172 170.921H98.647V172.652H114.172V170.921Z" fill="#263238"/>
<path d="M114.221 172.633C114.221 172.773 110.734 172.886 106.434 172.886C102.133 172.886 98.6479 172.772 98.6479 172.633C98.6479 172.493 102.133 172.38 106.434 172.38C110.734 172.38 114.221 172.493 114.221 172.633Z" fill="#455A64"/>
<path d="M92.887 177.683C92.6571 176.185 91.7365 174.07 91.3912 173.725L87.449 173.697V173.65L84.2023 173.674L80.9556 173.65V173.697L77.0135 173.725C76.6691 174.071 75.7476 176.185 75.5177 177.683C75.2878 179.181 75.8174 197.46 75.8174 197.46H80.9091H87.4975H92.2982C92.2962 197.46 93.1169 179.181 92.887 177.683Z" fill="#455A64"/>
<path d="M77.416 173.329C77.1182 173.426 72.2486 176.139 73.3419 176.623C74.4351 177.107 76.3228 175.944 78.5092 176.623C80.6956 177.301 83.1294 177.98 84.6204 177.35C86.1113 176.72 88.4462 175.897 89.6878 176.332C90.9294 176.769 93.7124 177.35 94.5564 176.865C95.4013 176.381 91.6744 173.329 91.6744 173.329H77.416Z" fill="#E0E0E0"/>
<g opacity="0.3">
<path d="M87.3908 192.126L75.6758 192.227L75.4585 181.142H87.3908V192.126Z" fill="white"/>
</g>
<path d="M91.6414 171.597H77.3577V173.329H91.6414V171.597Z" fill="#263238"/>
<path d="M92.1652 170.921H76.6399V172.652H92.1652V170.921Z" fill="#263238"/>
<path d="M92.2147 172.633C92.2147 172.773 88.7284 172.886 84.4283 172.886C80.1272 172.886 76.6419 172.772 76.6419 172.633C76.6419 172.493 80.1272 172.38 84.4283 172.38C88.7284 172.38 92.2147 172.493 92.2147 172.633Z" fill="#455A64"/>
</svg>
