<svg width="65" height="58" viewBox="0 0 65 58" fill="none" xmlns="http://www.w3.org/2000/svg">
<path d="M34.3568 57.6571V12.5106L40.5621 4.62537V0H58.9265V5.16664L65 11.2928V57.6571H34.3568Z" fill="#F06449"/>
<path d="M52.0863 22.1428H36.7646V44.2732H52.0863V22.1428Z" fill="white"/>
<path d="M55.3327 57.6572C55.2872 57.4807 55.2671 57.2984 55.2728 57.1159C55.2728 56.6977 55.2728 56.181 55.2728 55.566C55.2728 54.1267 55.2728 52.1953 55.1769 49.8457C55.1769 45.0235 55.0931 38.3562 55.0931 30.9999C55.0931 23.9142 55.0931 17.4682 55.1769 12.6583C56.279 10.4195 57.2014 8.57423 57.8723 7.22106L58.639 5.74491C58.7184 5.56869 58.819 5.40335 58.9384 5.25282C58.9384 5.25282 58.9384 5.44964 58.7468 5.79408C58.5551 6.13853 58.3395 6.70441 58.0759 7.30718L55.5363 12.8305V12.7445C55.5363 17.5666 55.5363 24.0003 55.6082 31.086C55.6082 38.4668 55.6082 45.1097 55.5243 49.9318C55.5243 52.2814 55.5243 54.2128 55.4405 55.652C55.4405 56.2671 55.4405 56.7838 55.4405 57.202C55.4195 57.3571 55.3834 57.5096 55.3327 57.6572Z" fill="#263238"/>
<path d="M55.0931 12.6583C51.5824 12.9433 48.0596 13.0377 44.5392 12.9413C41.0229 13.0376 37.5041 12.9432 33.9974 12.6583C37.5041 12.3735 41.0229 12.2791 44.5392 12.3754C48.0596 12.2789 51.5824 12.3734 55.0931 12.6583Z" fill="#263238"/>
<path d="M58.9265 4.44083C55.7836 4.71827 52.628 4.81271 49.4747 4.72374C46.3215 4.81271 43.1659 4.71827 40.023 4.44083C43.1655 4.15586 46.3215 4.06137 49.4747 4.15788C52.628 4.06137 55.784 4.15586 58.9265 4.44083Z" fill="#263238"/>
<path d="M0.359375 57.6571V12.5106L6.56468 4.62537V0H24.929V5.16664L31.0146 11.2928V57.6571H0.359375Z" fill="#455A64"/>
<path d="M18.0888 22.1428H2.76723V44.2732H18.0888V22.1428Z" fill="white"/>
<path d="M21.3472 57.6572C21.3018 57.4807 21.2816 57.2984 21.2873 57.1159C21.2873 56.6977 21.2873 56.181 21.2873 55.566C21.2873 54.1267 21.2873 52.1953 21.1915 49.8457C21.1915 45.0235 21.1196 38.3562 21.1196 30.9999C21.1196 23.9142 21.1196 17.4682 21.1915 12.6583C22.3056 10.4195 23.216 8.57423 23.8988 7.22106L24.6535 5.74491C24.7329 5.56869 24.8336 5.40335 24.953 5.25282C24.953 5.25282 24.953 5.44964 24.7613 5.79408C24.5697 6.13853 24.366 6.70441 24.0905 7.30718L21.5509 12.8305V12.7445C21.5509 17.5666 21.5509 24.0003 21.6227 31.086C21.6227 38.4668 21.6227 45.1097 21.5389 49.9318C21.5389 52.2814 21.5389 54.2128 21.455 55.652C21.455 56.2671 21.455 56.7838 21.455 57.202C21.432 57.3567 21.396 57.509 21.3472 57.6572Z" fill="#263238"/>
<path d="M21.0956 12.6583C17.589 12.9432 14.0702 13.0376 10.5538 12.9413C7.03348 13.0377 3.51064 12.9433 0 12.6583C3.51064 12.3734 7.03348 12.2789 10.5538 12.3754C14.0702 12.2791 17.589 12.3735 21.0956 12.6583Z" fill="#263238"/>
<path d="M24.929 4.44083C21.7862 4.71827 18.6306 4.81271 15.4773 4.72374C12.3241 4.81271 9.16846 4.71827 6.02562 4.44083C9.16804 4.15586 12.3241 4.06137 15.4773 4.15788C18.6306 4.06137 21.7866 4.15586 24.929 4.44083Z" fill="#263238"/>
</svg>
