<svg width="493" height="467" viewBox="0 0 493 467" fill="none" xmlns="http://www.w3.org/2000/svg">
<path d="M129.82 320.793H0V466.669H129.82V320.793Z" fill="#F06449"/>
<g opacity="0.4">
<path d="M129.82 320.793H0V466.669H129.82V320.793Z" fill="black"/>
</g>
<path d="M130.166 350.864C130.166 351.047 101.026 351.182 65.0948 351.182C29.164 351.182 0 351.047 0 350.864C0 350.68 29.1402 350.546 65.0948 350.546C101.049 350.546 130.166 350.693 130.166 350.864Z" fill="#263238"/>
<path d="M130.166 386.562C130.166 386.733 101.026 386.88 65.0948 386.88C29.164 386.88 0 386.733 0 386.562C0 386.391 29.1402 386.232 65.0948 386.232C101.049 386.232 130.166 386.428 130.166 386.562Z" fill="#263238"/>
<path d="M130.166 422.248C130.166 422.419 101.026 422.566 65.0948 422.566C29.164 422.566 0 422.419 0 422.248C0 422.077 29.1402 421.905 65.0948 421.905C101.049 421.905 130.166 422.064 130.166 422.248Z" fill="#263238"/>
<path d="M130.166 459.451C130.166 459.622 101.026 459.769 65.0948 459.769C29.164 459.769 0 459.622 0 459.451C0 459.28 29.1402 459.133 65.0948 459.133C101.049 459.133 130.166 459.267 130.166 459.451Z" fill="#263238"/>
<path d="M119.444 69.4511H110.818V267.442H119.444V69.4511Z" fill="#F06449"/>
<g opacity="0.4">
<path d="M119.444 69.4511H110.818V267.442H119.444V69.4511Z" fill="black"/>
</g>
<path d="M473.331 69.4511H464.706V267.442H473.331V69.4511Z" fill="#F06449"/>
<g opacity="0.4">
<path d="M473.331 69.4511H464.706V267.442H473.331V69.4511Z" fill="black"/>
</g>
<path d="M493 75.1397H213L183.145 73.3413L162.773 75.1397H117.883L78.962 78.3694V0H493V75.1397Z" fill="#F06449"/>
<g opacity="0.3">
<path d="M161.974 0H119.432V75.1397H161.974V0Z" fill="white"/>
</g>
<g opacity="0.3">
<path d="M257.043 0H214.501V75.1397H257.043V0Z" fill="white"/>
</g>
<g opacity="0.3">
<path d="M352.1 0H309.558V75.1397H352.1V0Z" fill="white"/>
</g>
<g opacity="0.3">
<path d="M447.157 0H404.615V75.1397H447.157V0Z" fill="white"/>
</g>
<path d="M387.4 50.452L386.685 50.5744L384.588 50.868L376.487 51.9201L370.638 52.6786C368.493 52.9233 366.17 53.1312 363.656 53.3759C358.653 53.8408 352.934 54.5014 346.62 54.8562L336.696 55.5291C333.253 55.7493 329.655 55.8227 325.974 55.9817C318.54 56.361 310.57 56.361 302.147 56.4466C285.397 56.3487 266.979 55.6514 247.715 53.9387C228.451 52.226 210.2 49.4978 193.688 46.5984C185.456 44.9958 177.617 43.5645 170.362 41.8395C166.728 41.0076 163.213 40.2858 159.842 39.3927L150.192 36.946C144.021 35.4535 138.529 33.7652 133.668 32.395C131.286 31.6977 128.986 31.0738 126.925 30.4376L121.29 28.6393L113.511 26.1925L111.497 25.5197C111.045 25.3729 110.818 25.275 110.818 25.275C110.818 25.275 111.057 25.275 111.509 25.4585L113.547 26.0702L121.362 28.5169L127.009 30.2664L133.764 32.1626C138.624 33.4961 144.128 35.1476 150.287 36.6157L159.949 39.0624C163.309 39.8821 166.835 40.6039 170.469 41.4235C177.724 43.124 185.563 44.5432 193.795 46.1213C210.295 49.0329 228.523 51.651 247.775 53.4616C267.027 55.2722 285.421 55.9083 302.147 56.0062C310.487 56.0062 318.481 56.0062 325.974 55.6025C329.691 55.4557 333.289 55.3945 336.696 55.1865L346.62 54.5504C352.946 54.2323 358.641 53.5961 363.656 53.1679C366.158 52.9355 368.493 52.752 370.638 52.5196L376.487 51.8222L384.588 50.8802L386.697 50.66L387.4 50.452Z" fill="#263238"/>
<path d="M473.331 24.9201C473.24 24.9939 473.14 25.0555 473.033 25.1036L472.163 25.5807L468.78 27.3302C467.303 28.1009 465.504 29.0184 463.371 30.0216C461.239 31.0247 458.856 32.2359 456.152 33.447C450.779 35.8938 444.238 38.7075 437.031 41.6069C429.823 44.5063 421.663 47.3935 413.073 50.1706C404.483 52.9476 396.204 55.2231 388.639 57.1438C381.074 59.0645 374.188 60.5326 368.386 61.6336C365.491 62.2208 362.858 62.649 360.547 63.0527C358.236 63.4564 356.246 63.7745 354.59 64.0069L350.837 64.5452L349.849 64.6676C349.738 64.6812 349.626 64.6812 349.515 64.6676L349.849 64.5819L350.814 64.3984L354.554 63.7378C356.175 63.4687 358.128 63.1261 360.511 62.6735C362.894 62.2208 365.443 61.7804 368.326 61.1687C374.104 59.9453 380.955 58.4528 388.508 56.5444C396.061 54.6359 404.329 52.2748 412.906 49.5344C421.484 46.794 429.585 43.8457 436.828 41.032C444.072 38.2182 450.588 35.4411 455.985 33.0066C458.689 31.7832 461.108 30.6577 463.24 29.679C465.373 28.7003 467.196 27.8195 468.685 27.0855L472.116 25.4339L473.021 25.018L473.331 24.9201Z" fill="#263238"/>
<path d="M478.728 267.442H102.61V277.926H478.728V267.442Z" fill="#F06449"/>
<path d="M469.268 277.926H111.128V466.571H469.268V277.926Z" fill="#F06449"/>
<g opacity="0.3">
<path d="M469.268 277.926H111.128V466.571H469.268V277.926Z" fill="black"/>
</g>
<path d="M111.128 310.578C111.128 310.395 191.091 310.26 289.698 310.26C388.305 310.26 468.268 310.395 468.268 310.578C468.268 310.762 388.329 310.896 289.698 310.896C191.067 310.896 111.128 310.774 111.128 310.578Z" fill="#263238"/>
<path d="M111.128 348.503C111.128 348.332 191.091 348.185 289.698 348.185C388.305 348.185 468.268 348.332 468.268 348.503C468.268 348.674 388.329 348.821 289.698 348.821C191.067 348.821 111.128 348.711 111.128 348.503Z" fill="#263238"/>
<path d="M111.128 386.427C111.128 386.244 191.091 386.109 289.698 386.109C388.305 386.109 468.268 386.244 468.268 386.427C468.268 386.611 388.329 386.746 289.698 386.746C191.067 386.746 111.128 386.635 111.128 386.427Z" fill="#263238"/>
<path d="M111.128 424.352C111.128 424.181 191.091 424.034 289.698 424.034C388.305 424.034 468.268 424.181 468.268 424.352C468.268 424.523 388.329 424.67 289.698 424.67C191.067 424.67 111.128 424.572 111.128 424.352Z" fill="#263238"/>
<path d="M479.323 278.012C479.323 278.183 395.108 278.33 291.247 278.33C187.386 278.33 103.146 278.183 103.146 278.012C103.146 277.841 187.35 277.694 291.247 277.694C395.143 277.694 479.323 277.841 479.323 278.012Z" fill="#263238"/>
<path d="M111.474 466.131C111.307 466.131 111.164 424.157 111.164 372.371C111.164 320.586 111.307 278.612 111.474 278.612C111.64 278.612 111.783 320.586 111.783 372.371C111.783 424.157 111.652 466.131 111.474 466.131Z" fill="#263238"/>
<g opacity="0.4">
<path d="M478.728 267.442H102.61V277.926H478.728V267.442Z" fill="black"/>
</g>
</svg>
