<svg width="286" height="78" viewBox="0 0 286 78" fill="none" xmlns="http://www.w3.org/2000/svg">
<path d="M12.8662 40.1915C12.8662 40.1915 17.4601 43.8515 18.2058 48.7324C18.9507 53.6133 18.2058 56.4191 18.2058 56.4191C18.2058 56.4191 19.8204 57.5178 22.9246 57.5178C26.0288 57.5178 27.8914 56.2978 27.8914 56.2978C27.8914 56.2978 27.2705 54.2237 27.2705 49.0992C27.2705 43.9747 32.4852 40.1925 32.4852 40.1925L30.1878 38.3009C30.1878 38.3009 26.6487 41.5755 25.0351 44.3008V37.5079H20.4413V44.6463C19.0136 41.1688 15.5985 38.5503 15.5985 38.5503L12.8662 40.1915Z" fill="#455A64"/>
<g opacity="0.3">
<path d="M12.8662 40.1915C12.8662 40.1915 17.4601 43.8515 18.2058 48.7324C18.9507 53.6133 18.2058 56.4191 18.2058 56.4191C18.2058 56.4191 19.8204 57.5178 22.9246 57.5178C26.0288 57.5178 27.8914 56.2978 27.8914 56.2978C27.8914 56.2978 27.2705 54.2237 27.2705 49.0992C27.2705 43.9747 32.4852 40.1925 32.4852 40.1925L30.1878 38.3009C30.1878 38.3009 26.6487 41.5755 25.0351 44.3008V37.5079H20.4413V44.6463C19.0136 41.1688 15.5985 38.5503 15.5985 38.5503L12.8662 40.1915Z" fill="black"/>
</g>
<path d="M10.8778 43.706C6.48639 44.1816 3.69502 40.9487 4.22676 37.3858C2.77005 37.1849 -0.796153 34.51 0.160776 30.4298C0.971454 26.9727 4.85438 25.6566 7.71838 26.2749C7.36002 23.5156 8.94457 20.6166 11.4822 19.3849C14.0198 18.1533 17.3254 18.6803 19.3381 20.636C21.1299 17.7195 24.8879 16.1122 28.2807 16.812C31.6736 17.5118 34.4572 20.469 34.9027 23.8475C37.1807 22.1228 40.8796 22.6712 42.5388 24.9792C44.1979 27.2872 43.487 30.8957 41.0714 32.4291C43.1712 33.5579 44.3906 36.0823 43.9509 38.3942C43.5112 40.706 41.4482 42.6287 39.0752 42.9363C36.7023 43.244 34.4833 42.4103 33.4489 40.2897C32.2218 41.3058 30.0851 41.0185 28.6546 40.3042C27.224 39.5899 26.3039 37.9914 26.4172 36.4181C25.5242 38.2515 23.4525 39.1512 21.3992 39.39C19.3972 39.6239 18.2872 38.7999 16.4983 36.9898C16.1593 41.1593 14.6329 43.2993 10.8778 43.706Z" fill="#455A64"/>
<g opacity="0.3">
<path d="M32.1481 30.0988C32.1113 30.1027 32.0832 29.8232 31.9244 29.3554C31.7539 28.8963 31.4333 28.2344 30.7854 27.6326C30.1539 27.0357 29.1805 26.4825 28.0192 26.4524C26.8686 26.4272 25.6007 26.9959 24.7561 28.017C24.2816 28.5906 23.9832 29.268 23.8864 29.9367L23.7915 30.5928L23.5174 29.9891C23.0864 29.038 22.172 28.4246 21.3042 28.2412C20.4228 28.0432 19.6025 28.2955 19.0368 28.642C17.8804 29.3777 17.6915 30.2871 17.6276 30.2386C17.6111 30.2347 17.6373 30.0241 17.8049 29.6747C17.9734 29.3311 18.3027 28.8439 18.9013 28.4372C19.4853 28.0364 20.3841 27.7219 21.373 27.918C22.3406 28.0995 23.3672 28.7546 23.8709 29.8348L23.5028 29.8872C23.6026 29.1428 23.93 28.3955 24.4481 27.7695C25.3683 26.6563 26.7562 26.0438 28.0289 26.0914C29.3103 26.1467 30.3389 26.7766 30.983 27.4347C31.6455 28.1005 31.9418 28.8187 32.0716 29.3088C32.1907 29.8125 32.1646 30.0988 32.1481 30.0988Z" fill="black"/>
</g>
<g opacity="0.3">
<path d="M4.84181 35.6951C4.79919 35.6951 4.74786 35.3816 4.91348 34.907C5.07329 34.4353 5.50623 33.8443 6.17744 33.4532C6.85058 33.064 7.58668 32.9786 8.08452 33.0698C8.58719 33.1571 8.84096 33.3532 8.82062 33.3891C8.79543 33.4483 8.51262 33.3532 8.05836 33.3435C7.60508 33.3289 6.97649 33.4454 6.3789 33.788C5.78518 34.1355 5.37645 34.6198 5.17015 35.0167C4.95997 35.4127 4.90767 35.7019 4.84181 35.6951Z" fill="black"/>
</g>
<path d="M53.0321 31.5829C53.0321 31.5829 54.4278 36.3668 52.5139 40.1519C50.5991 43.9361 48.6746 45.5463 48.6746 45.5463C48.6746 45.5463 49.2586 47.0953 51.4378 48.5919C53.6161 50.0884 55.5329 50.1311 55.5329 50.1311C55.5329 50.1311 56.1334 48.3764 58.6923 44.7795C61.2512 41.1827 66.8 41.0439 66.8 41.0439L66.1327 38.6088C66.1327 38.6088 62.0135 39.2008 59.5204 40.3344L62.9123 35.5671L59.688 33.3513L56.1237 38.3603C56.8579 35.2312 55.7692 31.747 55.7692 31.747L53.0321 31.5829Z" fill="#455A64"/>
<g opacity="0.3">
<path d="M53.0321 31.5829C53.0321 31.5829 54.4278 36.3668 52.5139 40.1519C50.5991 43.9361 48.6746 45.5463 48.6746 45.5463C48.6746 45.5463 49.2586 47.0953 51.4378 48.5919C53.6161 50.0884 55.5329 50.1311 55.5329 50.1311C55.5329 50.1311 56.1334 48.3764 58.6923 44.7795C61.2512 41.1827 66.8 41.0439 66.8 41.0439L66.1327 38.6088C66.1327 38.6088 62.0135 39.2008 59.5204 40.3344L62.9123 35.5671L59.688 33.3513L56.1237 38.3603C56.8579 35.2312 55.7692 31.747 55.7692 31.747L53.0321 31.5829Z" fill="black"/>
</g>
<path d="M49.8804 33.0901C46.5612 31.3062 46.2174 27.6909 48.3695 25.447C47.4474 24.6036 46.2803 21.0067 48.9903 18.6046C51.2858 16.5693 54.668 17.5185 56.3687 19.3335C57.4952 17.2245 60.0551 15.954 62.4512 16.3131C64.8474 16.6722 66.9037 18.6366 67.3395 20.9795C70.0534 19.7964 73.4937 20.4816 75.5248 22.6091C77.5558 24.7365 78.0323 28.1538 76.6589 30.7404C79.119 30.6288 81.4407 32.797 81.4523 35.2166C81.4639 37.6361 79.1626 39.8257 76.7025 39.7374C77.613 41.5417 77.2071 43.9011 75.7446 45.3123C74.2821 46.7225 71.8733 47.0767 70.0544 46.1479C68.2354 45.2191 67.0945 43.5643 67.4277 41.5776C66.0591 41.6989 64.7031 40.4673 64.0561 39.2754C63.4091 38.0836 63.5622 36.5191 64.4261 35.4699C62.8842 36.3259 60.981 35.9581 59.4207 35.136C57.8991 34.3343 57.531 33.2211 57.1804 31.0878C54.8588 33.85 52.7192 34.6148 49.8804 33.0901Z" fill="#455A64"/>
<g opacity="0.3">
<path d="M71.6031 33.7977C71.5721 33.7802 71.6883 33.5696 71.8065 33.1649C71.9121 32.7611 72.0147 32.1438 71.8578 31.414C71.7116 30.6948 71.3038 29.8436 70.5096 29.27C69.7212 28.7042 68.556 28.4936 67.4616 28.8013C66.8465 28.973 66.3041 29.3021 65.9051 29.7204L65.4441 30.2047L65.5719 29.5564C65.7424 28.6916 65.4131 27.8268 64.9017 27.2843C64.3883 26.7243 63.6939 26.5049 63.1273 26.4739C61.9553 26.4273 61.3665 26.9659 61.3413 26.897C61.3297 26.8834 61.4517 26.7456 61.7432 26.5777C62.0328 26.4147 62.5084 26.2283 63.135 26.2293C63.7491 26.2274 64.5433 26.4389 65.1457 27.0582C65.7404 27.656 66.1375 28.6178 65.9516 29.6291L65.6194 29.4651C66.0639 28.9866 66.6722 28.6169 67.3531 28.4266C68.5628 28.0869 69.8519 28.3286 70.7275 28.9818C71.605 29.6447 72.0128 30.589 72.1339 31.3664C72.2646 32.1574 72.1096 32.8067 71.9527 33.2134C71.7823 33.622 71.6186 33.8084 71.6031 33.7977Z" fill="black"/>
</g>
<g opacity="0.3">
<path d="M49.646 24.558C49.6102 24.5327 49.7254 24.2823 50.079 24.0232C50.4267 23.7631 51.032 23.5515 51.7052 23.602C52.3783 23.6544 52.943 23.9552 53.2461 24.2649C53.5551 24.5745 53.6297 24.8394 53.59 24.8598C53.5357 24.8928 53.3788 24.6948 53.065 24.4755C52.7541 24.2532 52.2592 24.0378 51.6751 23.9912C51.0911 23.9494 50.569 24.0873 50.2262 24.259C49.8804 24.426 49.6944 24.5987 49.646 24.558Z" fill="black"/>
</g>
<path d="M37.5071 58.0071C37.5071 58.0071 41.3959 61.1953 41.9741 65.3833C42.5523 69.5712 41.8801 71.9656 41.8801 71.9656C41.8801 71.9656 43.2487 72.9245 45.9074 72.9614C48.5651 72.9983 50.1748 71.9753 50.1748 71.9753C50.1748 71.9753 49.6683 70.1914 49.7312 65.8035C49.7942 61.4157 54.3057 58.2381 54.3057 58.2381L52.3618 56.592C52.3618 56.592 49.2915 59.3542 47.8764 61.668L47.9597 55.8515L44.0265 55.7972L43.9393 61.9087C42.7596 58.9146 39.8675 56.6328 39.8675 56.6328L37.5071 58.0071Z" fill="#455A64"/>
<g opacity="0.3">
<path d="M37.5071 58.0071C37.5071 58.0071 41.3959 61.1953 41.9741 65.3833C42.5523 69.5712 41.8801 71.9656 41.8801 71.9656C41.8801 71.9656 43.2487 72.9245 45.9074 72.9614C48.5651 72.9983 50.1748 71.9753 50.1748 71.9753C50.1748 71.9753 49.6683 70.1914 49.7312 65.8035C49.7942 61.4157 54.3057 58.2381 54.3057 58.2381L52.3618 56.592C52.3618 56.592 49.2915 59.3542 47.8764 61.668L47.9597 55.8515L44.0265 55.7972L43.9393 61.9087C42.7596 58.9146 39.8675 56.6328 39.8675 56.6328L37.5071 58.0071Z" fill="black"/>
</g>
<path d="M35.7618 60.9935C31.9961 61.3487 29.6454 58.5477 30.1442 55.503C28.8996 55.3138 25.8787 52.9815 26.7485 49.4992C27.4855 46.5487 30.8261 45.4675 33.2707 46.0305C32.9976 43.6643 34.3894 41.2 36.5773 40.1751C38.7653 39.1502 41.5896 39.6403 43.2884 41.3398C44.8585 38.8629 48.0963 37.5323 50.9923 38.1709C53.8892 38.8105 56.236 41.3757 56.576 44.2737C58.548 42.8237 61.7083 43.3372 63.1001 45.3326C64.492 47.3281 63.8392 50.4106 61.7519 51.6946C63.536 52.6855 64.5491 54.8615 64.1442 56.8356C63.7394 58.8097 61.9495 60.4315 59.9136 60.6674C57.8777 60.9022 55.9881 60.1627 55.128 58.3341C54.0655 59.1902 52.2388 58.9184 51.0223 58.2895C49.8068 57.6606 49.0378 56.2814 49.154 54.9362C48.3675 56.495 46.5815 57.2413 44.8207 57.4218C43.1034 57.5985 42.163 56.8803 40.654 55.3089C40.315 58.8757 38.9813 60.6887 35.7618 60.9935Z" fill="#455A64"/>
<g opacity="0.3">
<path d="M54.1401 49.5934C54.1042 49.5963 54.08 49.3575 53.9473 48.9577C53.804 48.5656 53.5357 47.9988 52.9894 47.4805C52.4577 46.9661 51.6335 46.4866 50.6485 46.4497C49.6722 46.4167 48.5883 46.8855 47.8581 47.7435C47.4474 48.2249 47.1859 48.7965 47.0958 49.3634L46.9912 50.0185L46.7268 49.4109C46.3742 48.6014 45.6071 48.0676 44.873 47.9007C44.1282 47.7212 43.4279 47.9221 42.9417 48.2094C41.945 48.8169 41.7659 49.5885 41.7058 49.5448C41.6884 49.54 41.7107 49.3585 41.8559 49.0596C42.0022 48.7655 42.2889 48.3482 42.808 48.0036C43.3146 47.6629 44.0933 47.3999 44.9456 47.5795C45.7795 47.7464 46.658 48.3229 47.0813 49.2624L46.7123 49.31C46.8072 48.6684 47.0987 48.0269 47.553 47.4941C48.3598 46.5458 49.5646 46.0344 50.662 46.0916C51.7671 46.1557 52.6437 46.7128 53.188 47.2893C53.7478 47.8716 53.9909 48.4947 54.0936 48.9179C54.1885 49.3488 54.1594 49.5934 54.1401 49.5934Z" fill="black"/>
</g>
<g opacity="0.3">
<path d="M30.6915 54.0629C30.6469 54.0619 30.5995 53.7911 30.7438 53.3806C30.8832 52.9729 31.2629 52.4643 31.8489 52.1343C32.4358 51.8063 33.0751 51.7432 33.5022 51.8335C33.9351 51.9199 34.1482 52.0975 34.1269 52.1353C34.1008 52.1926 33.8577 52.1149 33.4722 52.1072C33.0877 52.0955 32.555 52.1897 32.0455 52.4731C31.538 52.7604 31.1845 53.1631 30.9995 53.4941C30.8106 53.825 30.7554 54.0697 30.6915 54.0629Z" fill="black"/>
</g>
<path d="M2.67419 40.6904V76.7202H79.8629V40.6904H2.67419ZM53.2113 58.5146H29.3258C26.4579 58.5146 24.1334 56.4318 24.1334 53.8627C24.1334 51.2937 26.4579 49.2109 29.3258 49.2109H53.2113C56.0791 49.2109 58.4037 51.2937 58.4037 53.8627C58.4037 56.4318 56.0791 58.5146 53.2113 58.5146Z" fill="#FF9C67"/>
<path d="M79.4542 49.211C79.4542 49.3187 62.4512 49.4061 41.4831 49.4061C20.5071 49.4061 3.5081 49.3187 3.5081 49.211C3.5081 49.1033 20.5071 49.0159 41.4831 49.0159C62.4512 49.0159 79.4542 49.1033 79.4542 49.211Z" fill="#263238"/>
<path d="M79.4542 58.6788C79.4542 58.7865 62.4512 58.8739 41.4831 58.8739C20.5071 58.8739 3.5081 58.7865 3.5081 58.6788C3.5081 58.5711 20.5071 58.4837 41.4831 58.4837C62.4512 58.4837 79.4542 58.5711 79.4542 58.6788Z" fill="#263238"/>
<path d="M79.4542 68.1464C79.4542 68.2541 62.4512 68.3414 41.4831 68.3414C20.5071 68.3414 3.5081 68.2541 3.5081 68.1464C3.5081 68.0386 20.5071 67.9513 41.4831 67.9513C62.4512 67.9523 79.4542 68.0396 79.4542 68.1464Z" fill="#263238"/>
<path d="M23.9281 68.262C23.8186 68.262 23.7295 66.1103 23.7295 63.4578C23.7295 60.8033 23.8186 58.6525 23.9281 58.6525C24.0375 58.6525 24.1266 60.8033 24.1266 63.4578C24.1266 66.1103 24.0375 68.262 23.9281 68.262Z" fill="#263238"/>
<path d="M60.9829 68.262C60.8735 68.262 60.7844 66.1103 60.7844 63.4578C60.7844 60.8033 60.8735 58.6525 60.9829 58.6525C61.0924 58.6525 61.1815 60.8033 61.1815 63.4578C61.1815 66.1103 61.0924 68.262 60.9829 68.262Z" fill="#263238"/>
<path d="M41.1334 76.6466C41.024 76.6466 40.9349 74.7608 40.9349 72.4344C40.9349 70.108 41.024 68.2222 41.1334 68.2222C41.2429 68.2222 41.332 70.108 41.332 72.4344C41.332 74.7608 41.2429 76.6466 41.1334 76.6466Z" fill="#263238"/>
<path d="M41.4811 49.1148C41.3716 49.1148 41.2825 47.229 41.2825 44.9026C41.2825 42.5762 41.3716 40.6904 41.4811 40.6904C41.5905 40.6904 41.6796 42.5762 41.6796 44.9026C41.6787 47.229 41.5905 49.1148 41.4811 49.1148Z" fill="#263238"/>
<path d="M106.181 37.4662C107.882 48.5548 115.102 55.5175 124.491 55.83C135.074 56.1813 141.496 53.0038 145.028 44.6075C149.01 35.1408 106.181 37.4662 106.181 37.4662Z" fill="#455A64"/>
<g opacity="0.3">
<path d="M106.181 37.4662C107.882 48.5548 115.102 55.5175 124.491 55.83C135.074 56.1813 141.496 53.0038 145.028 44.6075C149.01 35.1408 106.181 37.4662 106.181 37.4662Z" fill="black"/>
</g>
<path d="M140.792 51.6442C139.786 52.4731 137.625 52.4682 136.335 52.5478C134.962 52.6332 133.577 51.9587 132.208 52.0916C130.067 52.2984 127.959 54.4044 126.068 53.165C124.75 52.3022 124.498 50.2815 123.318 49.2033C121.636 47.6659 120.394 48.9975 118.845 47.3029C116.996 45.2793 118.637 42.6743 117.049 40.4091C116.141 39.1134 114.303 38.1758 114.506 35.6485C114.592 34.579 115.993 33.0338 116.331 32.0381C116.765 30.7579 116.217 29.9096 116.396 28.547C116.63 26.7592 117.183 25.7993 120.35 24.7414C122.224 24.1154 122.818 23.9621 123.284 21.8938C123.867 19.3034 124.951 19.0821 125.965 19.1278C127.264 19.186 127.796 19.5868 129.044 19.5461C130.935 19.484 131.54 17.438 133.512 17.9524C135.645 18.5085 135.877 20.2313 137.657 21.3125C138.653 21.9171 139.854 21.7774 140.915 22.2588C142.261 22.8683 143.462 23.8602 144.315 25.1597C145.991 27.7113 146.719 29.8776 147.155 32.899C148.24 40.4207 145.772 47.5397 140.792 51.6442Z" fill="#455A64"/>
<g opacity="0.3">
<path d="M140.792 51.6442C139.786 52.4731 137.625 52.4682 136.335 52.5478C134.962 52.6332 133.577 51.9587 132.208 52.0916C130.067 52.2984 127.959 54.4044 126.068 53.165C124.75 52.3022 124.498 50.2815 123.318 49.2033C121.636 47.6659 120.394 48.9975 118.845 47.3029C116.996 45.2793 118.637 42.6743 117.049 40.4091C116.141 39.1134 114.303 38.1758 114.506 35.6485C114.592 34.579 115.993 33.0338 116.331 32.0381C116.765 30.7579 116.217 29.9096 116.396 28.547C116.63 26.7592 117.183 25.7993 120.35 24.7414C122.224 24.1154 122.818 23.9621 123.284 21.8938C123.867 19.3034 124.951 19.0821 125.965 19.1278C127.264 19.186 127.796 19.5868 129.044 19.5461C130.935 19.484 131.54 17.438 133.512 17.9524C135.645 18.5085 135.877 20.2313 137.657 21.3125C138.653 21.9171 139.854 21.7774 140.915 22.2588C142.261 22.8683 143.462 23.8602 144.315 25.1597C145.991 27.7113 146.719 29.8776 147.155 32.899C148.24 40.4207 145.772 47.5397 140.792 51.6442Z" fill="black"/>
</g>
<path d="M109.835 22.5935C110.589 21.3978 111.511 20.2331 112.793 19.6401C114.158 19.0093 115.778 19.0995 117.123 18.4259C119.228 17.371 120.692 14.5137 123.006 14.9426C124.618 15.2406 125.518 17.073 127.06 17.632C129.257 18.4298 130.091 16.6586 132.202 17.6602C134.724 18.8559 133.893 22.0044 136.227 23.5349C137.561 24.4104 139.726 24.5715 140.328 27.0707C140.582 28.1286 139.655 30.1658 139.631 31.2537C139.6 32.6513 140.426 33.2443 140.681 34.6186C141.015 36.4219 140.761 37.5623 137.888 39.8412C136.187 41.1903 135.634 41.5736 135.824 43.7389C136.061 46.4497 135.032 47.0951 133.989 47.4571C132.654 47.9211 131.985 47.7512 130.734 48.2889C128.837 49.1051 128.877 51.3034 126.714 51.6004C124.374 51.9217 123.587 50.3668 121.437 50.0446C120.234 49.8641 119.062 50.4785 117.831 50.4425C116.272 50.3979 114.737 49.9291 113.457 49.0275C110.943 47.2572 108.835 44.9327 107.487 42.1841C104.819 36.7529 106.098 28.511 109.835 22.5935Z" fill="#455A64"/>
<path d="M131.064 28.2091C131.072 28.2984 129.431 28.3421 126.881 28.9516C126.245 29.1078 125.55 29.2835 124.825 29.5436C124.086 29.761 123.331 30.09 122.529 30.4122C120.95 31.1178 119.271 32.0234 117.633 33.1657C116.008 34.3294 114.593 35.6105 113.399 36.8635C112.827 37.5128 112.264 38.1145 111.812 38.7396C111.323 39.3374 110.925 39.9343 110.565 40.4827C109.136 42.6859 108.546 44.2193 108.463 44.1815C108.438 44.1708 108.583 43.7903 108.871 43.1071C109.009 42.7625 109.191 42.3481 109.448 41.8881C109.699 41.4261 109.956 40.8806 110.328 40.3313C110.676 39.7674 111.067 39.154 111.55 38.5396C111.997 37.8981 112.557 37.2799 113.131 36.6141C114.326 35.329 115.754 34.0198 117.404 32.8396C119.067 31.6798 120.777 30.7704 122.385 30.0745C123.203 29.7571 123.973 29.4359 124.725 29.2291C125.465 28.9807 126.172 28.8176 126.82 28.6779C127.462 28.5119 128.06 28.4517 128.579 28.3712C129.097 28.2829 129.549 28.2498 129.919 28.2363C130.656 28.1906 131.062 28.181 131.064 28.2091Z" fill="#263238"/>
<path d="M124.936 20.8174C125.037 20.9067 122.929 22.5722 121.647 25.5129C120.321 28.4353 120.495 31.1189 120.361 31.1033C120.317 31.1072 120.21 30.4521 120.274 29.3845C120.335 28.3208 120.619 26.8475 121.282 25.3499C121.95 23.8552 122.853 22.6585 123.602 21.9015C124.351 21.1406 124.909 20.7825 124.936 20.8174Z" fill="#263238"/>
<path d="M130.962 39.2297C130.966 39.2569 130.73 39.3258 130.297 39.4258C129.864 39.5257 129.236 39.6568 128.452 39.7888C126.895 40.0372 124.663 40.3517 122.234 39.8771C119.786 39.3617 117.949 37.8545 117.009 36.5627C116.529 35.9124 116.235 35.3232 116.088 34.8991C115.937 34.4759 115.895 34.2294 115.916 34.2236C115.992 34.1916 116.239 35.1738 117.23 36.3879C118.192 37.5914 119.987 38.9958 122.312 39.485C124.653 39.945 126.852 39.6859 128.41 39.5092C129.98 39.3112 130.952 39.1695 130.962 39.2297Z" fill="#263238"/>
<path d="M122.253 46.273C122.26 46.3002 122.074 46.3594 121.726 46.4448C121.554 46.4972 121.337 46.5205 121.084 46.5428C120.832 46.5778 120.543 46.5885 120.223 46.5739C118.942 46.5671 117.189 46.1575 115.436 45.3112C113.684 44.4581 112.278 43.3565 111.41 42.4219C111.186 42.1957 111 41.9754 110.847 41.7735C110.688 41.5765 110.555 41.4047 110.466 41.2485C110.276 40.9466 110.184 40.7739 110.208 40.7583C110.267 40.7185 110.702 41.3669 111.611 42.221C112.509 43.0828 113.903 44.1184 115.61 44.9502C117.32 45.7742 119.001 46.2128 120.237 46.2905C121.475 46.3895 122.238 46.1973 122.253 46.273Z" fill="#263238"/>
<path d="M112.09 27.8529C112.147 27.8898 111.788 28.4547 111.354 29.4271C110.921 30.3977 110.452 31.805 110.317 33.4181C110.187 35.0321 110.433 36.4957 110.735 37.5128C111.036 38.5329 111.333 39.1327 111.271 39.1637C111.236 39.1841 110.846 38.627 110.467 37.6002C110.087 36.5792 109.783 35.0602 109.92 33.3851C110.059 31.7109 110.592 30.2648 111.101 29.3039C111.611 28.3382 112.057 27.8277 112.09 27.8529Z" fill="#263238"/>
<g opacity="0.3">
<path d="M119.14 30.2502C114.829 32.7455 111.616 36.8277 109.797 41.4698C112.166 37.4207 116.726 32.8882 120.724 30.9985C124.949 29.0021 129.616 28.1422 134.257 27.6084C129.118 26.6796 123.661 27.6336 119.14 30.2502Z" fill="black"/>
</g>
<path d="M114.575 20.3914C114.572 20.4302 114.244 20.3458 113.69 20.4904C113.137 20.6243 112.404 21.064 111.786 21.8889C110.58 23.5592 109.176 26.1254 108.348 29.1894C107.495 32.2535 107.407 35.1651 107.548 37.2372C107.702 39.3162 108.02 40.5789 107.947 40.5944C107.92 40.6012 107.827 40.2906 107.681 39.7199C107.541 39.1483 107.382 38.3097 107.267 37.2615C107.05 35.171 107.095 32.201 107.963 29.0836C108.81 25.9604 110.271 23.3816 111.567 21.7113C112.24 20.8728 113.062 20.4292 113.658 20.339C113.955 20.2836 114.191 20.2982 114.346 20.3225C114.501 20.3448 114.578 20.3807 114.575 20.3914Z" fill="white"/>
<path d="M123.185 16.5606C123.158 16.6208 122.84 16.4762 122.316 16.4898C121.798 16.4966 121.074 16.7062 120.442 17.1973C119.809 17.6952 119.365 18.3115 119.037 18.7492C118.711 19.1918 118.497 19.4655 118.449 19.4354C118.403 19.4072 118.529 19.086 118.8 18.5949C119.072 18.1116 119.497 17.4322 120.197 16.8799C120.905 16.3277 121.745 16.1365 122.327 16.2064C122.92 16.2714 123.21 16.5257 123.185 16.5606Z" fill="white"/>
<path d="M132.291 19.7226C132.268 19.7818 131.853 19.6352 131.165 19.5537C130.482 19.4683 129.51 19.4838 128.525 19.8322C127.54 20.1816 126.774 20.7834 126.297 21.2793C125.814 21.7763 125.582 22.1519 125.527 22.1208C125.485 22.1004 125.632 21.6666 126.085 21.092C126.53 20.5213 127.326 19.8322 128.391 19.4547C129.457 19.0771 130.506 19.1111 131.212 19.2742C131.925 19.4353 132.311 19.6808 132.291 19.7226Z" fill="white"/>
<path d="M139.092 27.8383C138.99 27.9014 138.404 26.7843 137.1 26.0904C135.812 25.3673 134.558 25.477 134.556 25.3566C134.549 25.3091 134.854 25.2082 135.369 25.213C135.88 25.2159 136.597 25.3595 137.292 25.7381C137.986 26.1185 138.494 26.6456 138.773 27.0755C139.055 27.5064 139.135 27.818 139.092 27.8383Z" fill="white"/>
<path d="M167.775 22.3888C157.064 19.1248 147.675 22.6324 143.33 30.9782C138.432 40.3858 138.512 47.562 144.536 54.3879C151.328 62.0825 167.775 22.3888 167.775 22.3888Z" fill="#455A64"/>
<g opacity="0.3">
<path d="M167.775 22.3888C157.064 19.1248 147.675 22.6324 143.33 30.9782C138.432 40.3858 138.512 47.562 144.536 54.3879C151.328 62.0825 167.775 22.3888 167.775 22.3888Z" fill="black"/>
</g>
<path d="M140.039 47.5165C139.729 46.2489 140.669 44.2991 141.155 43.0995C141.673 41.8222 142.879 40.8624 143.352 39.5696C144.093 37.546 143.111 34.7304 145.044 33.558C146.392 32.7417 148.318 33.3881 149.799 32.7893C151.91 31.9362 151.25 30.2368 153.445 29.5719C156.066 28.778 157.698 31.3878 160.423 30.9336C161.981 30.6735 163.621 29.4186 165.806 30.6968C166.731 31.2374 167.514 33.1717 168.264 33.9083C169.227 34.8546 170.228 34.7275 171.376 35.4787C172.883 36.4638 173.507 37.38 173.088 40.6993C172.84 42.6637 172.72 43.2664 174.38 44.5815C176.458 46.2295 176.187 47.3049 175.708 48.2007C175.093 49.3489 174.502 49.6565 173.999 50.8008C173.236 52.5362 174.816 53.9677 173.499 55.5264C172.076 57.2123 170.425 56.6765 168.682 57.816C167.707 58.4536 167.313 59.5989 166.42 60.3491C165.289 61.3003 163.878 61.9563 162.339 62.164C159.318 62.5736 157.053 62.2931 154.147 61.3789C146.912 59.102 141.576 53.7901 140.039 47.5165Z" fill="#455A64"/>
<g opacity="0.3">
<path d="M140.039 47.5165C139.729 46.2489 140.669 44.2991 141.155 43.0995C141.673 41.8222 142.879 40.8624 143.352 39.5696C144.093 37.546 143.111 34.7304 145.044 33.558C146.392 32.7417 148.318 33.3881 149.799 32.7893C151.91 31.9362 151.25 30.2368 153.445 29.5719C156.066 28.778 157.698 31.3878 160.423 30.9336C161.981 30.6735 163.621 29.4186 165.806 30.6968C166.731 31.2374 167.514 33.1717 168.264 33.9083C169.227 34.8546 170.228 34.7275 171.376 35.4787C172.883 36.4638 173.507 37.38 173.088 40.6993C172.84 42.6637 172.72 43.2664 174.38 44.5815C176.458 46.2295 176.187 47.3049 175.708 48.2007C175.093 49.3489 174.502 49.6565 173.999 50.8008C173.236 52.5362 174.816 53.9677 173.499 55.5264C172.076 57.2123 170.425 56.6765 168.682 57.816C167.707 58.4536 167.313 59.5989 166.42 60.3491C165.289 61.3003 163.878 61.9563 162.339 62.164C159.318 62.5736 157.053 62.2931 154.147 61.3789C146.912 59.102 141.576 53.7901 140.039 47.5165Z" fill="black"/>
</g>
<path d="M179.574 32.1272C180.323 33.3268 180.972 34.6633 180.951 36.0774C180.927 37.5837 180.144 39.0085 180.168 40.5148C180.206 42.8722 182.142 45.4316 180.755 47.3368C179.788 48.6635 177.751 48.6849 176.58 49.834C174.912 51.4723 176.144 52.9922 174.329 54.4665C172.161 56.2261 169.689 54.1122 167.302 55.5583C165.936 56.3852 164.854 58.2701 162.346 57.7314C161.284 57.5033 159.852 55.7845 158.884 55.2914C157.64 54.6586 156.749 55.1478 155.403 54.7828C153.635 54.3034 152.721 53.5803 151.914 49.999C151.437 47.8793 151.331 47.2135 149.302 46.4478C146.761 45.4888 146.626 44.2795 146.752 43.1809C146.913 41.7736 147.354 41.2437 147.412 39.88C147.5 37.8127 145.504 36.8975 146.174 34.8147C146.898 32.5621 148.637 32.5252 149.858 30.7219C150.541 29.7135 150.496 28.3887 151.061 27.292C151.777 25.9031 152.862 24.72 154.227 23.9533C156.908 22.4479 159.912 21.5511 162.967 21.523C169.007 21.4677 175.869 26.1904 179.574 32.1272Z" fill="#455A64"/>
<path d="M165.333 48.8731C165.248 48.8411 165.92 47.3406 166.476 44.7735C166.61 44.131 166.753 43.4274 166.834 42.6597C166.958 41.8978 166.989 41.0738 167.047 40.21C167.095 38.4785 167.008 36.5704 166.69 34.5953C166.346 32.6241 165.806 30.7918 165.195 29.1709C164.859 28.3731 164.561 27.6044 164.195 26.925C163.868 26.2253 163.504 25.607 163.167 25.0441C161.803 22.8002 160.68 21.6026 160.75 21.5443C160.77 21.5259 161.05 21.8229 161.54 22.3771C161.79 22.6508 162.084 22.9953 162.387 23.4262C162.694 23.8533 163.074 24.3211 163.407 24.8947C163.764 25.4547 164.146 26.072 164.49 26.7737C164.874 27.455 165.187 28.2295 165.538 29.0341C166.176 30.6694 166.736 32.5271 167.084 34.5284C167.407 36.5326 167.485 38.4708 167.415 40.2255C167.347 41.1009 167.303 41.9356 167.162 42.7053C167.066 43.4807 166.907 44.1902 166.752 44.8366C166.624 45.4888 166.417 46.0546 166.266 46.5584C166.121 47.065 165.955 47.4872 165.808 47.8269C165.525 48.5111 165.358 48.8838 165.333 48.8731Z" fill="#263238"/>
<path d="M174.635 46.5371C174.511 46.5895 173.925 43.9642 171.834 41.5329C169.779 39.0706 167.289 38.0651 167.361 37.9506C167.376 37.9098 168.013 38.0962 168.944 38.6164C169.875 39.1318 171.077 40.0266 172.138 41.2738C173.193 42.5248 173.878 43.8584 174.236 44.8619C174.597 45.8684 174.677 46.5283 174.635 46.5371Z" fill="#263238"/>
<path d="M155.463 44.0097C155.437 44.0019 155.477 43.7593 155.574 43.3244C155.671 42.8906 155.826 42.2656 156.046 41.5008C156.497 39.9867 157.179 37.834 158.658 35.8464C160.182 33.8587 162.333 32.8512 163.902 32.561C164.694 32.4096 165.352 32.3989 165.798 32.4494C166.244 32.496 166.483 32.5659 166.479 32.5872C166.475 32.6697 165.485 32.4669 163.963 32.8376C162.464 33.1861 160.424 34.1993 158.977 36.088C157.55 38.0039 156.832 40.1013 156.315 41.5862C155.815 43.0867 155.521 44.0262 155.463 44.0097Z" fill="#263238"/>
<path d="M152.896 33.094C152.869 33.0882 152.896 32.895 152.97 32.5437C152.998 32.3651 153.071 32.1593 153.16 31.9215C153.238 31.6779 153.353 31.412 153.505 31.1296C154.065 29.9746 155.193 28.5683 156.713 27.3512C158.238 26.138 159.838 25.3451 161.054 24.9656C161.354 24.8608 161.633 24.788 161.882 24.7366C162.128 24.6783 162.34 24.6327 162.519 24.6191C162.873 24.5784 163.068 24.5696 163.072 24.5978C163.083 24.6676 162.31 24.7812 161.148 25.2325C159.985 25.6702 158.45 26.4816 156.962 27.6637C155.481 28.8507 154.359 30.1804 153.754 31.2635C153.129 32.3398 152.971 33.1134 152.896 33.094Z" fill="#263238"/>
<path d="M173.867 31.8876C173.808 31.9225 173.456 31.3548 172.769 30.5414C172.083 29.7301 171.021 28.6964 169.628 27.8763C168.233 27.0601 166.81 26.6485 165.764 26.4816C164.716 26.3108 164.048 26.3195 164.046 26.2506C164.043 26.2099 164.713 26.0992 165.801 26.2011C166.884 26.3001 168.382 26.6835 169.831 27.5308C171.277 28.382 172.347 29.4893 172.991 30.3648C173.637 31.2451 173.904 31.8682 173.867 31.8876Z" fill="#263238"/>
<g opacity="0.3">
<path d="M168.658 37.2179C168.279 32.2438 165.997 27.5745 162.609 23.9213C165.226 27.8133 167.33 33.8957 167.299 38.3253C167.267 43.0053 166.018 47.5941 164.49 52.0169C167.551 47.7765 169.055 42.4346 168.658 37.2179Z" fill="black"/>
</g>
<path d="M179.504 37.3625C179.47 37.3431 179.689 37.083 179.798 36.521C179.917 35.9639 179.839 35.1108 179.365 34.1956C178.385 32.3826 176.684 30.0037 174.287 27.9296C171.9 25.8323 169.318 24.492 167.393 23.7233C165.456 22.9624 164.183 22.7032 164.199 22.6304C164.205 22.6033 164.525 22.6537 165.101 22.7683C165.676 22.8896 166.499 23.1089 167.493 23.4593C169.467 24.1688 172.119 25.4936 174.548 27.6278C176.991 29.7436 178.679 32.1797 179.62 34.0752C180.084 35.0457 180.125 35.9804 179.949 36.5569C179.87 36.849 179.754 37.0567 179.665 37.1858C179.577 37.3159 179.512 37.3693 179.504 37.3625Z" fill="white"/>
<path d="M179.223 46.7982C179.181 46.7477 179.448 46.5235 179.662 46.0441C179.88 45.5734 180.006 44.828 179.837 44.0457C179.663 43.2576 179.301 42.5909 179.049 42.1046C178.792 41.6193 178.639 41.3078 178.686 41.2767C178.731 41.2476 178.965 41.5009 179.291 41.9571C179.607 42.4123 180.034 43.0907 180.228 43.9623C180.419 44.8406 180.227 45.683 179.912 46.178C179.598 46.6837 179.243 46.8361 179.223 46.7982Z" fill="white"/>
<path d="M172.435 53.6552C172.391 53.6086 172.703 53.2961 173.074 52.7109C173.446 52.1314 173.854 51.2463 173.966 50.2058C174.079 49.1644 173.868 48.2123 173.628 47.5669C173.39 46.9157 173.153 46.5439 173.205 46.508C173.242 46.4789 173.568 46.7992 173.889 47.4573C174.209 48.1066 174.484 49.1237 174.363 50.2495C174.242 51.3754 173.756 52.309 173.305 52.8749C172.852 53.4485 172.465 53.6911 172.435 53.6552Z" fill="white"/>
<path d="M162.192 56.2843C162.179 56.165 163.437 56.1194 164.627 55.242C165.835 54.3918 166.279 53.2116 166.387 53.2611C166.433 53.2756 166.391 53.595 166.165 54.0569C165.941 54.518 165.501 55.1032 164.86 55.5671C164.218 56.0281 163.523 56.2601 163.017 56.3261C162.506 56.395 162.191 56.3329 162.192 56.2843Z" fill="white"/>
<path d="M120.612 58.7173C122.313 69.8059 129.532 76.7696 138.921 77.0811C149.505 77.4325 155.926 74.2549 159.458 65.8586C163.44 56.3919 120.612 58.7173 120.612 58.7173Z" fill="#455A64"/>
<g opacity="0.3">
<path d="M120.612 58.7173C122.313 69.8059 129.532 76.7696 138.921 77.0811C149.505 77.4325 155.926 74.2549 159.458 65.8586C163.44 56.3919 120.612 58.7173 120.612 58.7173Z" fill="black"/>
</g>
<path d="M155.224 72.8951C154.218 73.7239 152.057 73.7191 150.767 73.7987C149.393 73.8841 148.008 73.2095 146.64 73.3425C144.498 73.5492 142.391 75.6553 140.499 74.4159C139.182 73.5531 138.929 71.5324 137.749 70.4541C136.068 68.9168 134.825 70.2484 133.276 68.5538C131.428 66.5302 133.068 63.9252 131.481 61.6609C130.572 60.3652 128.734 59.4277 128.937 56.9004C129.024 55.8308 130.424 54.2857 130.762 53.2899C131.196 52.0097 130.649 51.1615 130.827 49.7988C131.061 48.0111 131.614 47.0512 134.783 45.9923C136.657 45.3663 137.25 45.213 137.716 43.1447C138.299 40.5543 139.383 40.333 140.397 40.3786C141.696 40.4369 142.229 40.8377 143.476 40.7969C145.367 40.7348 145.972 38.6889 147.944 39.2033C150.077 39.7594 150.309 41.4822 152.09 42.5633C153.085 43.168 154.286 43.0282 155.348 43.5096C156.693 44.1192 157.894 45.1111 158.747 46.4106C160.423 48.9622 161.151 51.1285 161.587 54.1498C162.67 61.6716 160.202 68.7906 155.224 72.8951Z" fill="#455A64"/>
<g opacity="0.3">
<path d="M155.224 72.8951C154.218 73.7239 152.057 73.7191 150.767 73.7987C149.393 73.8841 148.008 73.2095 146.64 73.3425C144.498 73.5492 142.391 75.6553 140.499 74.4159C139.182 73.5531 138.929 71.5324 137.749 70.4541C136.068 68.9168 134.825 70.2484 133.276 68.5538C131.428 66.5302 133.068 63.9252 131.481 61.6609C130.572 60.3652 128.734 59.4277 128.937 56.9004C129.024 55.8308 130.424 54.2857 130.762 53.2899C131.196 52.0097 130.649 51.1615 130.827 49.7988C131.061 48.0111 131.614 47.0512 134.783 45.9923C136.657 45.3663 137.25 45.213 137.716 43.1447C138.299 40.5543 139.383 40.333 140.397 40.3786C141.696 40.4369 142.229 40.8377 143.476 40.7969C145.367 40.7348 145.972 38.6889 147.944 39.2033C150.077 39.7594 150.309 41.4822 152.09 42.5633C153.085 43.168 154.286 43.0282 155.348 43.5096C156.693 44.1192 157.894 45.1111 158.747 46.4106C160.423 48.9622 161.151 51.1285 161.587 54.1498C162.67 61.6716 160.202 68.7906 155.224 72.8951Z" fill="black"/>
</g>
<path d="M124.265 43.8436C125.02 42.6479 125.941 41.4832 127.223 40.8902C128.589 40.2594 130.209 40.3496 131.553 39.6761C133.658 38.622 135.123 35.7638 137.436 36.1928C139.048 36.4907 139.949 38.3231 141.491 38.8831C143.687 39.6809 144.521 37.9097 146.633 38.9113C149.154 40.107 148.323 43.2555 150.657 44.786C151.992 45.6615 154.156 45.8226 154.757 48.3218C155.012 49.3797 154.085 51.4169 154.061 52.5048C154.03 53.9024 154.856 54.4955 155.111 55.8698C155.445 57.674 155.19 58.8134 152.317 61.0923C150.616 62.4414 150.063 62.8247 150.253 64.99C150.491 67.7008 149.461 68.3462 148.419 68.7082C147.083 69.1722 146.415 69.0023 145.164 69.54C143.266 70.3562 143.307 72.5545 141.143 72.8515C138.803 73.1728 138.017 71.6179 135.866 71.2957C134.663 71.1152 133.492 71.7296 132.261 71.6936C130.701 71.649 129.167 71.1802 127.887 70.2786C125.372 68.5083 123.265 66.1838 121.916 63.4352C119.25 58.004 120.528 49.7611 124.265 43.8436Z" fill="#455A64"/>
<path d="M145.495 49.4593C145.503 49.5486 143.862 49.5923 141.312 50.2018C140.675 50.358 139.981 50.5337 139.255 50.7938C138.516 51.0112 137.761 51.3403 136.959 51.6625C135.38 52.3681 133.702 53.2736 132.063 54.4159C130.438 55.5796 129.024 56.8608 127.829 58.1137C127.257 58.763 126.694 59.3648 126.242 59.9898C125.754 60.5877 125.356 61.1846 124.995 61.7329C123.567 63.9361 122.976 65.4696 122.894 65.4317C122.869 65.421 123.014 65.0406 123.301 64.3573C123.439 64.0128 123.622 63.5974 123.879 63.1383C124.13 62.6763 124.386 62.1309 124.758 61.5815C125.107 61.0176 125.497 60.4042 125.98 59.7899C126.427 59.1483 126.987 58.5301 127.56 57.8643C128.755 56.5793 130.184 55.27 131.833 54.0898C133.496 52.93 135.207 52.0206 136.815 51.3238C137.632 51.0064 138.402 50.6851 139.155 50.4784C139.895 50.229 140.602 50.0669 141.25 49.9271C141.892 49.7612 142.489 49.701 143.009 49.6204C143.527 49.5321 143.978 49.4991 144.348 49.4855C145.086 49.4419 145.494 49.4322 145.495 49.4593Z" fill="#263238"/>
<path d="M139.367 42.0685C139.467 42.1578 137.36 43.8233 136.078 46.764C134.752 49.6864 134.925 52.37 134.791 52.3544C134.748 52.3583 134.64 51.7032 134.704 50.6356C134.765 49.5719 135.049 48.0985 135.712 46.601C136.381 45.1063 137.283 43.9096 138.033 43.1526C138.782 42.3917 139.34 42.0336 139.367 42.0685Z" fill="#263238"/>
<path d="M145.392 60.4799C145.397 60.5071 145.161 60.576 144.728 60.6759C144.296 60.7759 143.666 60.9069 142.883 61.0399C141.325 61.2883 139.094 61.6028 136.664 61.1282C134.217 60.6128 132.38 59.1056 131.439 57.8138C130.96 57.1645 130.665 56.5744 130.518 56.1502C130.367 55.7271 130.325 55.4806 130.347 55.4747C130.422 55.4427 130.669 56.4249 131.661 57.64C132.623 58.8435 134.417 60.2479 136.743 60.7371C139.084 61.1971 141.283 60.938 142.841 60.7613C144.41 60.5624 145.382 60.4207 145.392 60.4799Z" fill="#263238"/>
<path d="M136.684 67.5232C136.691 67.5503 136.505 67.6095 136.157 67.695C135.985 67.7474 135.768 67.7706 135.515 67.793C135.262 67.8279 134.973 67.8386 134.654 67.824C133.372 67.8172 131.619 67.4077 129.866 66.5613C128.114 65.7082 126.709 64.6066 125.841 63.672C125.616 63.4459 125.43 63.2255 125.277 63.0237C125.118 62.8266 124.986 62.6549 124.897 62.4986C124.707 62.1968 124.615 62.024 124.638 62.0085C124.697 61.9687 125.133 62.618 126.041 63.4711C126.939 64.332 128.333 65.3685 130.041 66.2003C131.75 67.0243 133.431 67.463 134.667 67.5406C135.905 67.6406 136.668 67.4484 136.684 67.5232Z" fill="#263238"/>
<path d="M126.521 49.1041C126.577 49.141 126.219 49.7058 125.785 50.6783C125.352 51.6489 124.882 53.0562 124.747 54.6693C124.618 56.2833 124.864 57.7469 125.166 58.764C125.466 59.7841 125.763 60.3839 125.702 60.4149C125.667 60.4353 125.276 59.8782 124.898 58.8514C124.518 57.8303 124.214 56.3114 124.35 54.6362C124.49 52.962 125.023 51.515 125.531 50.5551C126.042 49.5894 126.487 49.0779 126.521 49.1041Z" fill="#263238"/>
<g opacity="0.3">
<path d="M133.571 51.5012C129.261 53.9965 126.047 58.0786 124.228 62.7218C126.597 58.6736 131.158 54.1401 135.156 52.2505C139.38 50.2531 144.048 49.3941 148.688 48.8603C143.548 47.9305 138.092 48.8846 133.571 51.5012Z" fill="black"/>
</g>
<path d="M129.006 41.6415C129.003 41.6803 128.675 41.5959 128.122 41.7405C127.569 41.8744 126.836 42.3141 126.218 43.1381C125.011 44.8084 123.608 47.3746 122.779 50.4386C121.926 53.5026 121.837 56.4143 121.979 58.4864C122.133 60.5653 122.451 61.8281 122.378 61.8436C122.351 61.8504 122.258 61.5398 122.112 60.9691C121.973 60.3975 121.814 59.5589 121.698 58.5107C121.482 56.4201 121.526 53.4502 122.395 50.3328C123.241 47.2096 124.702 44.6308 125.999 42.9605C126.671 42.1219 127.493 41.6784 128.089 41.5881C128.386 41.5328 128.623 41.5474 128.778 41.5716C128.932 41.5959 129.008 41.6318 129.006 41.6415Z" fill="white"/>
<path d="M137.616 37.8107C137.589 37.8709 137.272 37.7263 136.748 37.7399C136.23 37.7467 135.505 37.9563 134.874 38.4474C134.24 38.9453 133.797 39.5616 133.468 39.9993C133.143 40.4419 132.929 40.7156 132.88 40.6855C132.835 40.6574 132.961 40.3361 133.231 39.845C133.503 39.3617 133.928 38.6823 134.629 38.1301C135.337 37.5778 136.177 37.3866 136.759 37.4565C137.35 37.5225 137.642 37.7758 137.616 37.8107Z" fill="white"/>
<path d="M146.722 40.9737C146.7 41.0329 146.283 40.8863 145.595 40.8048C144.913 40.7194 143.94 40.7349 142.955 41.0834C141.97 41.4328 141.204 42.0345 140.728 42.5304C140.244 43.0274 140.013 43.403 139.958 43.3719C139.916 43.3515 140.062 42.9177 140.515 42.3431C140.961 41.7724 141.756 41.0833 142.822 40.7058C143.887 40.3283 144.937 40.3622 145.642 40.5253C146.356 40.6864 146.741 40.9319 146.722 40.9737Z" fill="white"/>
<path d="M153.522 49.0885C153.42 49.1516 152.834 48.0345 151.531 47.3405C150.243 46.6175 148.988 46.7271 148.986 46.6068C148.98 46.5592 149.285 46.4583 149.799 46.4631C150.31 46.4661 151.027 46.6097 151.723 46.9882C152.416 47.3687 152.925 47.8957 153.204 48.3247C153.485 48.7566 153.566 49.0691 153.522 49.0885Z" fill="white"/>
<path d="M106.568 43.3721V77.1075H177.442V43.3721H106.568ZM152.97 60.0608H131.039C128.407 60.0608 126.271 58.1109 126.271 55.7049C126.271 53.2989 128.406 51.3491 131.039 51.3491H152.97C155.604 51.3491 157.738 53.2989 157.738 55.7049C157.738 58.1109 155.603 60.0608 152.97 60.0608Z" fill="#FF9C67"/>
<path d="M177.066 51.3492C177.066 51.4598 161.455 51.5491 142.201 51.5491C122.941 51.5491 107.333 51.4598 107.333 51.3492C107.333 51.2385 122.941 51.1492 142.201 51.1492C161.454 51.1492 177.066 51.2385 177.066 51.3492Z" fill="#263238"/>
<path d="M177.066 60.2141C177.066 60.3247 161.455 60.414 142.201 60.414C122.941 60.414 107.333 60.3247 107.333 60.2141C107.333 60.1034 122.941 60.0142 142.201 60.0142C161.454 60.0142 177.066 60.1044 177.066 60.2141Z" fill="#263238"/>
<path d="M177.066 69.0792C177.066 69.1899 161.455 69.2792 142.201 69.2792C122.941 69.2792 107.333 69.1899 107.333 69.0792C107.333 68.9686 122.941 68.8793 142.201 68.8793C161.454 68.8793 177.066 68.9696 177.066 69.0792Z" fill="#263238"/>
<path d="M126.082 69.1868C125.972 69.1868 125.883 67.1729 125.883 64.6883C125.883 62.2037 125.972 60.1898 126.082 60.1898C126.193 60.1898 126.282 62.2037 126.282 64.6883C126.283 67.1729 126.193 69.1868 126.082 69.1868Z" fill="#263238"/>
<path d="M160.105 69.1868C159.995 69.1868 159.906 67.1729 159.906 64.6883C159.906 62.2037 159.995 60.1898 160.105 60.1898C160.216 60.1898 160.305 62.2037 160.305 64.6883C160.305 67.1729 160.216 69.1868 160.105 69.1868Z" fill="#263238"/>
<path d="M141.88 77.0377C141.77 77.0377 141.681 75.2722 141.681 73.0943C141.681 70.9154 141.77 69.15 141.88 69.15C141.991 69.15 142.08 70.9154 142.08 73.0943C142.081 75.2722 141.991 77.0377 141.88 77.0377Z" fill="#263238"/>
<path d="M142.199 51.2598C142.088 51.2598 141.999 49.4943 141.999 47.3164C141.999 45.1375 142.088 43.3721 142.199 43.3721C142.309 43.3721 142.398 45.1375 142.398 47.3164C142.399 49.4934 142.309 51.2598 142.199 51.2598Z" fill="#263238"/>
<path d="M141.32 34.4593H142.552V10.8215H141.32V34.4593Z" fill="#263238"/>
<path d="M131.809 0.17878L130.377 12.7091L154.988 15.534L156.42 3.00362L131.809 0.17878Z" fill="#E0E0E0"/>
<path d="M130.374 12.6958C130.368 12.7006 130.371 12.6298 130.382 12.4881C130.396 12.3202 130.415 12.1105 130.438 11.8495C130.497 11.2487 130.579 10.4179 130.684 9.36485C130.917 7.15102 131.249 4.00934 131.657 0.14848L131.673 0L131.822 0.0164977C138.314 0.748294 146.96 1.72176 156.437 2.79034C156.281 2.59235 156.653 3.06013 156.614 3.01355V3.01648L156.613 3.02326L156.611 3.03588L156.608 3.06209L156.602 3.11351L156.591 3.21738L156.567 3.42409L156.52 3.8366L156.426 4.65864C156.363 5.20506 156.301 5.74856 156.239 6.28818C156.115 7.36744 155.992 8.43311 155.872 9.48131C155.63 11.5767 155.394 13.6042 155.171 15.5415L155.148 15.7297L154.961 15.7074C147.774 14.8456 141.614 14.107 137.213 13.5799C135.072 13.3121 133.361 13.0986 132.149 12.9472C131.59 12.8734 131.148 12.8142 130.814 12.7705C130.517 12.7278 130.366 12.7026 130.374 12.6958C130.383 12.689 130.551 12.7006 130.867 12.7298C131.21 12.7637 131.667 12.8084 132.244 12.8647C133.468 12.9928 135.198 13.1733 137.362 13.4004C141.737 13.8799 147.86 14.5505 155.006 15.3337L154.798 15.4997C155.017 13.5625 155.245 11.534 155.482 9.43765C155.601 8.38946 155.722 7.32378 155.844 6.24453C155.905 5.7049 155.967 5.16137 156.03 4.61495L156.124 3.79291L156.171 3.38044L156.194 3.1737L156.206 3.06985L156.212 3.0184L156.215 2.99219L156.217 2.97957L156.218 2.97279V2.96989C156.18 2.92039 156.55 3.38819 156.392 3.19019C146.92 2.08376 138.277 1.07439 131.789 0.316389L131.954 0.185355C131.484 4.0006 131.102 7.1054 130.833 9.29302C130.695 10.3567 130.587 11.1953 130.508 11.8019C130.471 12.0717 130.441 12.2891 130.416 12.4638C130.394 12.6113 130.381 12.6909 130.374 12.6958Z" fill="#263238"/>
<path d="M135.594 7.15585C135.603 7.1015 136.381 7.15683 137.63 7.29174C138.88 7.42568 140.6 7.63823 142.496 7.89833C144.394 8.15747 146.108 8.41466 147.348 8.62139C148.587 8.82715 149.351 8.98242 149.345 9.03774C149.339 9.0921 148.564 9.03677 147.315 8.90283C146.066 8.76889 144.342 8.5554 142.442 8.29529C140.543 8.03518 138.825 7.77799 137.586 7.57223C136.347 7.3655 135.586 7.2102 135.594 7.15585Z" fill="#263238"/>
<path d="M274.773 21.4395C274.902 23.2603 274.534 25.0995 273.836 26.7805C271.787 31.7167 269.032 33.5753 268.036 35.6523C267.867 36.0036 267.942 36.2094 267.636 36.1366C267.417 36.0852 267.503 35.6804 267.529 35.4524C267.683 34.0684 266.297 29.0205 266.666 25.5081C266.875 23.5204 267.346 21.5647 268.497 19.9138C269.373 18.6589 271.356 16.6363 272.887 17.0041C274.501 17.3904 274.729 20.8077 274.773 21.4395Z" fill="#455A64"/>
<g opacity="0.3">
<path d="M274.773 21.4395C274.902 23.2603 274.534 25.0995 273.836 26.7805C271.787 31.7167 269.032 33.5753 268.036 35.6523C267.867 36.0036 267.942 36.2094 267.636 36.1366C267.417 36.0852 267.503 35.6804 267.529 35.4524C267.683 34.0684 266.297 29.0205 266.666 25.5081C266.875 23.5204 267.346 21.5647 268.497 19.9138C269.373 18.6589 271.356 16.6363 272.887 17.0041C274.501 17.3904 274.729 20.8077 274.773 21.4395Z" fill="black"/>
</g>
<path d="M280.882 35.7978C279.84 36.6024 278.585 37.2488 277.323 37.7059C276.483 38.0097 273.219 39.2918 271.598 40.3691C271.178 40.6477 273.443 34.6031 275.013 31.7875C276.092 29.8522 278.442 27.0755 281.42 26.7338C282.805 26.5747 284.018 26.6358 284.765 27.3074C285.683 28.1324 285.329 32.365 280.882 35.7978Z" fill="#455A64"/>
<g opacity="0.3">
<path d="M280.882 35.7978C279.84 36.6024 278.585 37.2488 277.323 37.7059C276.483 38.0097 273.219 39.2918 271.598 40.3691C271.178 40.6477 273.443 34.6031 275.013 31.7875C276.092 29.8522 278.442 27.0755 281.42 26.7338C282.805 26.5747 284.018 26.6358 284.765 27.3074C285.683 28.1324 285.329 32.365 280.882 35.7978Z" fill="black"/>
</g>
<path d="M282.661 41.5689C281.284 42.7171 278.778 43.5818 276.728 43.6255C273.194 43.7002 271.831 44.7572 271.831 44.7572C271.657 44.5553 271.831 43.8818 271.65 44.0633C271.199 44.5136 272.958 42.8491 273.955 40.7915C274.864 38.9135 275.827 36.4037 280.236 34.5887C280.955 34.2927 284.969 33.4202 285.81 35.3215C286.684 37.2965 284.356 40.1548 282.661 41.5689Z" fill="#455A64"/>
<path d="M261.336 23.2389C260.536 26.5019 261.243 29.595 262.159 31.6448C263 33.5238 265.215 36.6771 265.215 36.6771C265.328 37.1488 267.196 33.6151 268.201 28.3673C268.606 26.2563 268.544 24.1133 267.598 21.9509C267.257 21.1726 265.944 18.6103 264.217 18.8578C262.427 19.114 261.512 22.5207 261.336 23.2389Z" fill="#455A64"/>
<path d="M255.642 35.0874C256.225 37.3643 257.63 38.9182 258.623 39.8422C260.242 41.3504 262.307 42.6325 262.307 42.6325C262.563 42.5908 262.849 42.8237 262.808 42.5908C262.767 42.3579 263.641 40.5817 263.156 36.817C262.879 34.6652 261.871 32.2534 261.369 31.4663C259.676 28.8099 257.479 28.1033 256.465 28.7585C255.01 29.6979 255.078 32.8794 255.642 35.0874Z" fill="#455A64"/>
<path d="M275.588 22.9799C274.137 24.0737 272.764 25.5645 271.982 27.2154C269.661 32.1157 270.446 35.5126 269.702 37.7352C269.531 38.2438 269.696 39.5948 270.085 38.7261C271.152 36.3425 273.566 35.3399 274.762 34.6993C277.203 33.3929 278.633 31.5955 279.527 29.6437C281.515 25.3044 280.691 22.5839 279.849 22.0171C278.759 21.2843 276.491 22.2976 275.588 22.9799Z" fill="#455A64"/>
<path d="M272.869 43.1682C270.388 44.8939 268.844 46.5448 267.927 47.7453C268.632 45.8227 270.306 42.0559 273.911 38.0204C277.676 33.8063 282.266 29.6824 282.266 29.6824C282.266 29.6824 277.247 33.2861 273.084 38.0233C270.835 40.5827 269.481 42.3161 268.623 43.5739C268.742 43.1051 268.877 42.5917 269.029 42.0288C271.341 33.4559 277.665 24.5977 277.665 24.5977C277.665 24.5977 270.851 33.517 268.79 40.2148C268.369 41.5794 267.727 43.8427 267.026 46.1274C266.863 45.2423 266.479 42.2229 267.608 37.4264C268.851 32.1456 272.084 19.4149 272.109 19.314C272.109 19.314 268.407 31.4527 266.869 37.8884C266.417 39.782 265.879 42.1084 265.472 44.1844C265.54 42.1317 265.567 39.3724 265.631 35.7551C265.743 29.4203 264.143 21.7219 264.143 21.7219C264.143 21.7219 265.078 29.5087 265.026 35.1864C264.981 39.9887 264.506 43.7408 264.185 45.9352C263.823 44.789 263.276 43.3351 262.581 41.4901C260.51 35.9861 257.299 31.0557 257.299 31.0557C257.299 31.0557 260.098 36.1773 261.824 41.164C263.765 46.7728 263.852 47.8463 263.593 49.9873C263.22 53.0717 266.752 53.6686 267.704 50.8443C268.395 48.7935 269.56 46.2109 273.672 43.3623C278.293 40.1624 283.694 37.2498 283.694 37.2498C283.694 37.2498 278.018 39.5869 272.869 43.1682Z" fill="#263238"/>
<path d="M222.465 22.4033C223.013 24.1445 223.082 26.0186 222.794 27.8161C221.948 33.0939 219.701 35.5456 219.216 37.7973C219.134 38.1787 219.255 38.3612 218.939 38.3621C218.714 38.3631 218.705 37.9496 218.676 37.7216C218.503 36.3395 215.982 31.7546 215.525 28.2519C215.266 26.27 215.271 24.2571 216.006 22.3839C216.565 20.9591 218.026 18.5298 219.599 18.5298C221.259 18.5298 222.275 21.7996 222.465 22.4033Z" fill="#455A64"/>
<g opacity="0.3">
<path d="M222.465 22.4033C223.013 24.1445 223.082 26.0186 222.794 27.8161C221.948 33.0939 219.701 35.5456 219.216 37.7973C219.134 38.1787 219.255 38.3612 218.939 38.3621C218.714 38.3631 218.705 37.9496 218.676 37.7216C218.503 36.3395 215.982 31.7546 215.525 28.2519C215.266 26.27 215.271 24.2571 216.006 22.3839C216.565 20.9591 218.026 18.5298 219.599 18.5298C221.259 18.5298 222.275 21.7996 222.465 22.4033Z" fill="black"/>
</g>
<path d="M231.741 34.9419C230.915 35.9678 229.844 36.8898 228.723 37.6274C227.977 38.1195 225.101 40.1276 223.776 41.5523C223.432 41.9211 224.229 35.5145 225.102 32.4107C225.703 30.2764 227.342 27.028 230.16 26.0002C231.468 25.5227 232.664 25.2985 233.546 25.7779C234.63 26.3671 235.269 30.5657 231.741 34.9419Z" fill="#455A64"/>
<g opacity="0.3">
<path d="M231.741 34.9419C230.915 35.9678 229.844 36.8898 228.723 37.6274C227.977 38.1195 225.101 40.1276 223.776 41.5523C223.432 41.9211 224.229 35.5145 225.102 32.4107C225.703 30.2764 227.342 27.028 230.16 26.0002C231.468 25.5227 232.664 25.2985 233.546 25.7779C234.63 26.3671 235.269 30.5657 231.741 34.9419Z" fill="black"/>
</g>
<path d="M234.814 40.1383C233.741 41.5767 231.506 43.0024 229.521 43.5226C226.102 44.4204 225.022 45.7656 225.022 45.7656C224.806 45.6103 224.818 44.9144 224.684 45.1328C224.35 45.6753 225.674 43.6469 226.165 41.4136C226.613 39.3755 226.966 36.7103 230.832 33.9151C231.462 33.46 235.163 31.6741 236.422 33.327C237.732 35.0458 236.133 38.369 234.814 40.1383Z" fill="#455A64"/>
<path d="M209.814 27.2899C209.795 30.65 211.2 33.4937 212.569 35.2727C213.823 36.9042 216.71 39.4539 216.71 39.4539C216.93 39.8858 217.926 36.0133 217.684 30.6752C217.586 28.5284 217.029 26.4582 215.606 24.5753C215.094 23.8979 213.221 21.7122 211.599 22.3557C209.917 23.0234 209.818 26.5494 209.814 27.2899Z" fill="#455A64"/>
<path d="M207.032 40.1402C208.127 42.2181 209.855 43.4012 211.035 44.0689C212.959 45.1579 215.266 45.9227 215.266 45.9227C215.506 45.8227 215.838 45.9819 215.744 45.7655C215.65 45.549 216.087 43.6167 214.741 40.0683C213.972 38.0408 212.43 35.9309 211.759 35.2816C209.496 33.0939 207.195 32.9183 206.362 33.7918C205.163 35.0476 205.969 38.1253 207.032 40.1402Z" fill="#455A64"/>
<path d="M223.613 23.7117C222.457 25.1141 221.467 26.8844 221.09 28.6721C219.973 33.9791 221.524 37.1004 221.318 39.4346C221.27 39.9684 221.744 41.2447 221.92 40.3091C222.404 37.741 224.518 36.2036 225.533 35.302C227.604 33.4618 228.577 31.38 228.993 29.2739C229.918 24.59 228.484 22.1364 227.533 21.7822C226.305 21.3231 224.335 22.8372 223.613 23.7117Z" fill="#455A64"/>
<path d="M225.663 43.9798C223.65 46.2373 222.532 48.2026 221.919 49.5847C222.158 47.5504 222.911 43.4964 225.48 38.731C228.162 33.754 231.668 28.6732 231.668 28.6732C231.668 28.6732 227.624 33.3493 224.677 38.9271C223.085 41.9406 222.17 43.9429 221.628 45.3667C221.635 44.8824 221.646 44.3524 221.664 43.7691C221.92 34.8925 226.012 24.8026 226.012 24.8026C226.012 24.8026 221.458 35.0672 221.01 42.0619C220.919 43.4877 220.82 45.8384 220.669 48.224C220.305 47.4009 219.23 44.5543 219.213 39.6259C219.195 34.2005 219.381 21.065 219.382 20.9612C219.382 20.9612 218.603 33.6298 218.602 40.248C218.602 42.1949 218.621 44.5825 218.707 46.6973C218.295 44.6844 217.681 41.995 216.902 38.4631C215.539 32.2758 212.194 25.1627 212.194 25.1627C212.194 25.1627 214.913 32.5175 216.181 38.0516C217.253 42.7326 217.663 46.4925 217.86 48.7015C217.241 47.6717 216.371 46.3848 215.267 44.7523C211.974 39.883 207.705 35.8368 207.705 35.8368C207.705 35.8368 211.618 40.1645 214.455 44.6116C217.645 49.6128 217.98 50.6368 218.226 52.7797C218.581 55.8671 222.154 55.6225 222.423 52.6536C222.619 50.498 223.15 47.7144 226.489 43.9846C230.239 39.7938 234.815 35.7009 234.815 35.7009C234.815 35.7009 229.837 39.2949 225.663 43.9798Z" fill="#263238"/>
<path d="M228.146 67.0245C228.453 65.225 229.247 63.5266 230.324 62.0601C233.484 57.7537 236.602 56.6036 238.06 54.8237C238.307 54.5228 238.283 54.3044 238.564 54.448C238.764 54.5509 238.584 54.9226 238.506 55.1381C238.028 56.4464 238.178 61.6786 236.987 65.0038C236.313 66.8847 235.39 68.6724 233.881 70.0021C232.733 71.0124 230.326 72.5042 228.927 71.784C227.45 71.0222 228.039 67.6475 228.146 67.0245Z" fill="#455A64"/>
<g opacity="0.3">
<path d="M228.146 67.0245C228.453 65.225 229.247 63.5266 230.324 62.0601C233.484 57.7537 236.602 56.6036 238.06 54.8237C238.307 54.5228 238.283 54.3044 238.564 54.448C238.764 54.5509 238.584 54.9226 238.506 55.1381C238.028 56.4464 238.178 61.6786 236.987 65.0038C236.313 66.8847 235.39 68.6724 233.881 70.0021C232.733 71.0124 230.326 72.5042 228.927 71.784C227.45 71.0222 228.039 67.6475 228.146 67.0245Z" fill="black"/>
</g>
<path d="M225.617 51.6228C226.82 51.09 228.194 50.76 229.526 50.6173C230.415 50.5222 233.889 50.0534 235.718 49.3935C236.192 49.2226 232.559 54.5558 230.367 56.9162C228.86 58.539 225.919 60.6761 222.944 60.2996C221.562 60.1249 220.397 59.7764 219.831 58.9456C219.136 57.9246 220.484 53.8978 225.617 51.6228Z" fill="#455A64"/>
<g opacity="0.3">
<path d="M225.617 51.6228C226.82 51.09 228.194 50.76 229.526 50.6173C230.415 50.5222 233.889 50.0534 235.718 49.3935C236.192 49.2226 232.559 54.5558 230.367 56.9162C228.86 58.539 225.919 60.6761 222.944 60.2996C221.562 60.1249 220.397 59.7764 219.831 58.9456C219.136 57.9246 220.484 53.8978 225.617 51.6228Z" fill="black"/>
</g>
<path d="M225.257 45.5938C226.867 44.8067 229.506 44.5631 231.508 45.0096C234.959 45.7783 236.534 45.0765 236.534 45.0765C236.655 45.3143 236.327 45.9267 236.545 45.7938C237.089 45.4638 234.986 46.6615 233.53 48.423C232.201 50.0302 230.671 52.2392 225.958 52.9526C225.19 53.069 221.083 52.9603 220.718 50.9134C220.338 48.785 223.275 46.5625 225.257 45.5938Z" fill="#455A64"/>
<path d="M241.625 68.4754C243.176 65.4968 243.224 62.3231 242.819 60.1141C242.448 58.0886 241.043 54.4985 241.043 54.4985C241.045 54.0142 238.392 57.0016 236.172 61.8592C235.279 63.8129 234.829 65.9093 235.235 68.2357C235.381 69.0733 236.05 71.8753 237.785 72.0461C239.587 72.2227 241.285 69.1315 241.625 68.4754Z" fill="#455A64"/>
<path d="M249.965 58.3226C249.939 55.9719 248.943 54.1288 248.198 52.9943C246.983 51.1444 245.281 49.4061 245.281 49.4061C245.022 49.3858 244.799 49.0917 244.784 49.3266C244.768 49.5624 243.499 51.0803 243.076 54.8519C242.835 57.0075 243.243 59.5901 243.544 60.4753C244.559 63.4588 246.524 64.6681 247.664 64.2731C249.301 63.7082 249.99 60.6014 249.965 58.3226Z" fill="#455A64"/>
<path d="M227.72 65.3349C229.389 64.6186 231.076 63.4976 232.228 62.0796C235.644 57.8723 235.688 54.3851 236.937 52.4032C237.222 51.95 237.384 50.599 236.8 51.3502C235.198 53.4116 232.616 53.8105 231.302 54.1473C228.621 54.8344 226.805 56.2408 225.474 57.9237C222.513 61.6652 222.669 64.5041 223.354 65.2553C224.238 66.2258 226.681 65.7813 227.72 65.3349Z" fill="#455A64"/>
<path d="M235.148 46.3712C237.967 45.2851 239.859 44.0496 241.035 43.1023C239.894 44.8018 237.375 48.0619 232.915 51.124C228.259 54.321 222.822 57.2336 222.822 57.2336C222.822 57.2336 228.552 54.9285 233.718 51.3181C236.51 49.3673 238.237 48.0066 239.368 46.9885C239.14 47.4155 238.888 47.8823 238.608 48.3928C234.328 56.1699 226.085 63.2675 226.085 63.2675C226.085 63.2675 234.82 56.2262 238.41 50.2116C239.142 48.9858 240.302 46.9399 241.526 44.8882C241.474 45.7869 241.132 48.8111 238.897 53.2019C236.438 58.0353 230.279 69.6314 230.23 69.7236C230.23 69.7236 236.703 58.8137 239.724 52.9282C240.612 51.1968 241.687 49.0654 242.575 47.1447C242.023 49.1227 241.342 51.7966 240.422 55.2944C238.811 61.4215 238.539 69.2801 238.539 69.2801C238.539 69.2801 239.477 61.4943 240.875 55.9903C242.057 51.3365 243.409 47.8047 244.241 45.75C244.321 46.9496 244.508 48.4928 244.744 50.4504C245.45 56.2902 247.401 61.8437 247.401 61.8437C247.401 61.8437 245.896 56.2019 245.403 50.9473C244.848 45.0376 245.017 43.9729 245.777 41.9552C246.87 39.0474 243.582 37.6275 241.987 40.1441C240.828 41.9717 239.086 44.203 234.415 45.9907C229.167 47.9988 223.231 49.542 223.231 49.542C223.231 49.542 229.297 48.6238 235.148 46.3712Z" fill="#263238"/>
<path d="M247.027 27.0134C247.773 28.6788 248.059 30.5326 247.981 32.3514C247.753 37.6924 245.804 40.3876 245.582 42.681C245.544 43.0692 245.686 43.2362 245.373 43.274C245.15 43.3012 245.092 42.8916 245.038 42.6684C244.707 41.3154 241.671 37.0547 240.812 33.6296C240.326 31.6914 240.097 29.6921 240.611 27.7452C241.001 26.2651 242.17 23.6824 243.732 23.499C245.381 23.3059 246.769 26.4359 247.027 27.0134Z" fill="#455A64"/>
<g opacity="0.3">
<path d="M247.027 27.0134C247.773 28.6788 248.059 30.5326 247.981 32.3514C247.753 37.6924 245.804 40.3876 245.582 42.681C245.544 43.0692 245.686 43.2362 245.373 43.274C245.15 43.3012 245.092 42.8916 245.038 42.6684C244.707 41.3154 241.671 37.0547 240.812 33.6296C240.326 31.6914 240.097 29.6921 240.611 27.7452C241.001 26.2651 242.17 23.6824 243.732 23.499C245.381 23.3059 246.769 26.4359 247.027 27.0134Z" fill="black"/>
</g>
<path d="M257.693 38.3883C256.991 39.5035 256.034 40.543 255.006 41.4068C254.321 41.9813 251.698 44.3116 250.546 45.881C250.248 46.2877 250.297 39.8306 250.805 36.6462C251.153 34.4566 252.407 31.0393 255.086 29.6912C256.331 29.0652 257.492 28.7032 258.424 29.0769C259.569 29.5359 260.69 33.6326 257.693 38.3883Z" fill="#455A64"/>
<g opacity="0.3">
<path d="M257.693 38.3883C256.991 39.5035 256.034 40.543 255.006 41.4068C254.321 41.9813 251.698 44.3116 250.546 45.881C250.248 46.2877 250.297 39.8306 250.805 36.6462C251.153 34.4566 252.407 31.0393 255.086 29.6912C256.331 29.0652 257.492 28.7032 258.424 29.0769C259.569 29.5359 260.69 33.6326 257.693 38.3883Z" fill="black"/>
</g>
<path d="M261.345 43.1934C260.446 44.7463 258.391 46.4224 256.48 47.1697C253.187 48.4586 252.271 49.9213 252.271 49.9213C252.038 49.7922 251.971 49.0992 251.862 49.3321C251.594 49.9096 252.674 47.7414 252.903 45.4655C253.113 43.3885 253.154 40.7 256.671 37.4759C257.244 36.9498 260.714 34.7467 262.156 36.2413C263.654 37.7952 262.451 41.2814 261.345 43.1934Z" fill="#455A64"/>
<path d="M235.028 33.3376C235.398 36.6763 237.123 39.3375 238.688 40.9467C240.122 42.422 243.286 44.6183 243.286 44.6183C243.554 45.0221 244.094 41.0603 243.236 35.7863C242.892 33.6646 242.098 31.6741 240.467 29.9698C239.88 29.3564 237.766 27.4036 236.231 28.2315C234.636 29.0875 234.947 32.6019 235.028 33.3376Z" fill="#455A64"/>
<path d="M233.751 46.4244C235.08 48.3616 236.933 49.3351 238.182 49.8611C240.22 50.7191 242.6 51.2112 242.6 51.2112C242.827 51.084 243.175 51.2034 243.056 50.9996C242.938 50.7958 243.148 48.8255 241.401 45.4577C240.402 43.5331 238.627 41.6163 237.885 41.0505C235.383 39.1404 233.078 39.2346 232.351 40.1983C231.307 41.5833 232.463 44.5464 233.751 46.4244Z" fill="#455A64"/>
<path d="M248.32 28.179C247.333 29.7057 246.556 31.5798 246.389 33.3996C245.893 38.8007 247.796 41.7202 247.861 44.0631C247.876 44.5988 248.494 45.811 248.56 44.8609C248.744 42.2539 250.666 40.4807 251.57 39.4675C253.414 37.3992 254.138 35.2174 254.308 33.0774C254.685 28.3178 252.977 26.0477 251.99 25.806C250.716 25.4935 248.935 27.2269 248.32 28.179Z" fill="#455A64"/>
<path d="M252.701 48.0723C250.963 50.5482 250.081 52.631 249.632 54.0742C249.634 52.0263 249.913 47.9122 251.912 42.8799C254 37.6243 256.893 32.1708 256.893 32.1708C256.893 32.1708 253.418 37.2846 251.137 43.1681C249.905 46.3467 249.228 48.4411 248.854 49.9183C248.805 49.4369 248.755 48.9079 248.705 48.3275C247.932 39.481 250.828 28.9835 250.828 28.9835C250.828 28.9835 247.492 39.7081 247.857 46.7077C247.932 48.1344 248.105 50.4812 248.232 52.8678C247.775 52.0933 246.377 49.3903 245.79 44.4968C245.143 39.1102 243.808 26.0417 243.796 25.9379C243.796 25.9379 244.49 38.6114 245.255 45.1849C245.48 47.1183 245.775 49.4883 246.105 51.5779C245.463 49.6271 244.542 47.027 243.359 43.6087C241.289 37.6223 237.143 30.945 237.143 30.945C237.143 30.945 240.695 37.9339 242.595 43.2836C244.202 47.8083 245.045 51.4954 245.496 53.6656C244.763 52.7144 243.749 51.5372 242.463 50.0445C238.629 45.5906 233.92 42.0685 233.92 42.0685C233.92 42.0685 238.307 45.9119 241.64 49.9988C245.388 54.5954 245.839 55.5737 246.332 57.674C247.041 60.6992 250.561 60.0412 250.486 57.0606C250.431 54.8963 250.637 52.07 253.52 47.9772C256.76 43.3787 260.831 38.7822 260.831 38.7822C260.831 38.7822 256.306 42.9332 252.701 48.0723Z" fill="#263238"/>
<path d="M204.362 39.4558V77.1074H285.025V39.4558H204.362ZM257.174 58.0817H232.213C229.216 58.0817 226.787 55.9047 226.787 53.2202C226.787 50.5356 229.216 48.3587 232.213 48.3587H257.174C260.17 48.3587 262.6 50.5356 262.6 53.2202C262.6 55.9047 260.17 58.0817 257.174 58.0817Z" fill="#FF9C67"/>
<path d="M284.597 48.3587C284.597 48.4713 266.829 48.5625 244.917 48.5625C222.996 48.5625 205.232 48.4713 205.232 48.3587C205.232 48.2461 222.996 48.1549 244.917 48.1549C266.83 48.1549 284.597 48.2461 284.597 48.3587Z" fill="#263238"/>
<path d="M284.597 58.2535C284.597 58.3661 266.829 58.4573 244.917 58.4573C222.996 58.4573 205.232 58.3661 205.232 58.2535C205.232 58.1409 222.996 58.0497 244.917 58.0497C266.83 58.0497 284.597 58.1409 284.597 58.2535Z" fill="#263238"/>
<path d="M284.597 69.5643C284.597 69.6769 266.829 69.7682 244.917 69.7682C222.996 69.7682 205.232 69.6769 205.232 69.5643C205.232 69.4518 222.996 69.3605 244.917 69.3605C266.83 69.3615 284.597 69.4527 284.597 69.5643Z" fill="#263238"/>
<path d="M226.572 68.2676C226.458 68.2676 226.365 66.0198 226.365 63.2469C226.365 60.4731 226.458 58.2263 226.572 58.2263C226.687 58.2263 226.78 60.4741 226.78 63.2469C226.78 66.0188 226.688 68.2676 226.572 68.2676Z" fill="#263238"/>
<path d="M265.295 68.2676C265.181 68.2676 265.088 66.0198 265.088 63.2469C265.088 60.4731 265.181 58.2263 265.295 58.2263C265.409 58.2263 265.502 60.4741 265.502 63.2469C265.502 66.0188 265.409 68.2676 265.295 68.2676Z" fill="#263238"/>
<path d="M244.552 77.03C244.438 77.03 244.345 75.0588 244.345 72.6285C244.345 70.1973 244.438 68.2271 244.552 68.2271C244.667 68.2271 244.76 70.1973 244.76 72.6285C244.76 75.0588 244.667 77.03 244.552 77.03Z" fill="#263238"/>
<path d="M244.916 48.2587C244.801 48.2587 244.708 46.2875 244.708 43.8573C244.708 41.426 244.801 39.4558 244.916 39.4558C245.03 39.4558 245.123 41.426 245.123 43.8573C245.123 46.2875 245.03 48.2587 244.916 48.2587Z" fill="#263238"/>
</svg>
