<svg width="189" height="210" viewBox="0 0 189 210" fill="none" xmlns="http://www.w3.org/2000/svg">
<path d="M54 126H69.9545L95.1136 140.842V155.066L135 133.421V148.882L95.1136 173L54 150.118V126Z" fill="black"/>
<path d="M95.1136 155.066V140.842L69.9545 126H54V150.118L95.1136 173M95.1136 155.066V173M95.1136 155.066L135 133.421V148.882L95.1136 173" stroke="black" stroke-opacity="0.92"/>
<path d="M133.575 111.293C136.535 115.929 138.868 117.726 146 117.39V108.854C142.55 109.725 140.991 108.836 138.437 106.415C137.566 95.4765 136.432 89.3343 133.575 78.3659L124.931 68C127.762 82.2706 128.698 90.2795 128.713 104.585C126.643 107.629 125.23 108.713 122.23 109.463C119.295 108.606 118.077 107.583 116.828 104.585C116.439 90.8533 115.877 82.9904 114.126 68.6098H106.023L106.563 103.976C104.545 107.225 102.919 108.462 99 109.463V118C104.598 117.599 107.235 115.961 110.885 110.073C114.198 115.61 116.703 117.299 122.23 118C126.985 117.48 129.466 115.989 133.575 111.293Z" fill="black" stroke="#050404" stroke-opacity="0.92"/>
<path d="M59.2759 111.293C55.8743 115.929 53.1937 117.726 45 117.39V108.854C48.9634 109.725 50.7549 108.836 53.6897 106.415C54.6904 95.4765 55.9934 89.3343 59.2759 78.3659L69.2069 68C65.954 82.2706 64.8785 90.2795 64.8621 104.585C67.24 107.629 68.8637 108.713 72.3103 109.463C75.6825 108.606 77.0823 107.583 78.5172 104.585C78.9639 90.8533 79.6093 82.9904 81.6207 68.6098H90.931L90.3103 103.976C92.6295 107.225 94.497 108.462 99 109.463V118C92.5686 117.599 89.539 115.961 85.3448 110.073C81.5389 115.61 78.6601 117.299 72.3103 118C66.8467 117.48 63.9969 115.989 59.2759 111.293Z" fill="black" stroke="#050404" stroke-opacity="0.92"/>
<path d="M146.769 96.3394V160L156 153.879V93.8909L128.923 59H92V67.5697H122.154L146.769 96.3394Z" fill="black"/>
<path d="M146.769 96.3394V160L156 153.879V93.8909M146.769 96.3394L156 93.8909M146.769 96.3394L122.154 67.5697M156 93.8909L128.923 59M122.154 67.5697L128.923 59M122.154 67.5697H92V59H128.923" stroke="#050404" stroke-opacity="0.92"/>
<path d="M44.2308 96.3394V160L35 153.879V93.8909L62.0769 59H99V67.5697H68.8462L44.2308 96.3394Z" fill="black"/>
<path d="M44.2308 96.3394V160L35 153.879V93.8909M44.2308 96.3394L35 93.8909M44.2308 96.3394L68.8462 67.5697M35 93.8909L62.0769 59M68.8462 67.5697L62.0769 59M68.8462 67.5697H99V59H62.0769" stroke="#050404" stroke-opacity="0.92"/>
<path d="M94.5 21.6784V1L1 55.7368V155.48L93.8849 209C117.465 194.404 169.3 163.264 188 155.48V54.5205L169.546 65.4678V144.532L93.8849 188.322L19.4539 144.532V66.076L94.5 21.6784Z" fill="black"/>
<path d="M19.454 66.076L94.5 21.6784V1L1.00001 55.7368M19.454 66.076L1.00001 55.7368M19.454 66.076V144.532M1.00001 55.7368V155.48M1.00001 155.48L19.454 144.532M1.00001 155.48L93.8849 209M19.454 144.532L93.8849 188.322M93.8849 209V188.322M93.8849 209C117.465 194.404 169.3 163.264 188 155.48M93.8849 188.322L169.546 144.532M169.546 144.532L188 155.48M169.546 144.532V65.4678L188 54.5205V155.48" stroke="#050404" stroke-opacity="0.92"/>
<path d="M94.5 21.6784V1L188 55.7368V155.48L95.1151 209C71.5351 194.404 19.7 163.264 1 155.48V54.5205L19.4539 65.4678V144.532L95.1151 188.322L169.546 144.532V66.076L94.5 21.6784Z" fill="black"/>
<path d="M169.546 66.076L94.5 21.6784V1L188 55.7368M169.546 66.076L188 55.7368M169.546 66.076V144.532M188 55.7368V155.48M188 155.48L169.546 144.532M188 155.48L95.1151 209M169.546 144.532L95.1151 188.322M95.1151 209V188.322M95.1151 209C71.5351 194.404 19.7 163.264 1 155.48M95.1151 188.322L19.4539 144.532M19.4539 144.532L1 155.48M19.4539 144.532V65.4678L1 54.5205V155.48" stroke="#050404" stroke-opacity="0.92"/>
</svg>
